<?xml version="1.0" encoding="utf-8"?>
<!-- Generator: Adobe Illustrator 22.0.0, SVG Export Plug-In . SVG Version: 6.00 Build 0)  -->
<svg version="1.1" id="Layer_1" xmlns="http://www.w3.org/2000/svg" xmlns:xlink="http://www.w3.org/1999/xlink" x="0px" y="0px"
	 viewBox="0 0 1190.6 841.9" style="enable-background:new 0 0 1190.6 841.9;" xml:space="preserve">
<style type="text/css">
	.st0{fill:none;}
	.st1{fill:#010101;}
	.st2{fill:#FFFFFF;}
	.st3{fill:#077147;}
	.st4{fill:#FFFFFF;stroke:#FFFFFF;stroke-miterlimit:10;}
	.st5{fill-rule:evenodd;clip-rule:evenodd;fill:#077147;}
	.st6{fill-rule:evenodd;clip-rule:evenodd;fill:#FFFFFF;}
	.st7{fill:#EB2627;}
	.st8{fill:#2A3B8F;}
	.st9{fill:#08713D;}
	.st10{fill-rule:evenodd;clip-rule:evenodd;fill:#08713D;}
	.st11{fill:#FFFFFF;stroke:#FFFFFF;stroke-width:2;stroke-miterlimit:10;}
	.st12{fill:#FFFFFF;stroke:#FFFFFF;stroke-width:3;stroke-miterlimit:10;}
	.st13{display:none;fill:#FFFFFF;stroke:#000000;stroke-miterlimit:10;}
	.st14{display:none;}
	.st15{display:inline;fill:#EB2627;}
	.st16{display:inline;}
	.st17{fill:#FFFFFF;stroke:#FFFFFF;stroke-width:5;stroke-miterlimit:10;}
	.st18{fill:#FFFFFF;stroke:#FFFFFF;stroke-width:5;}
	.st19{fill:#FFFFFF;stroke:#FFFFFF;stroke-width:6;stroke-miterlimit:10;}
</style>
<g>
	<g>
		<rect x="0" y="0" class="st0" width="1190.6" height="841.9"/>
		<rect x="28.3" y="20" class="st13" width="1133.9" height="801.8"/>
		<g id="stecon_74_" class="st14">
			<path id="red_74_" class="st15" d="M47.1,38.3c47.3,0,94.6,0,141.9,0c0,25.1,0,50.3,0,75.4c-47.3,0-94.6,0-141.8,0
				c0-0.3-0.1-0.5-0.1-0.8c0-24.6,0-49.2,0-73.8C47.2,38.9,47.1,38.6,47.1,38.3z M50.4,76c0.3,0.1,0.4,0.2,0.6,0.3
				c4,2,7.9,4.1,11.9,6.1c18.2,9.4,36.4,18.7,54.6,28.1c0.4,0.2,0.8,0.2,1.2,0c15.3-7.9,30.7-15.8,46-23.7c6.8-3.5,13.7-7,20.5-10.6
				c0.2-0.1,0.3-0.2,0.5-0.3c-0.2-0.1-0.4-0.2-0.5-0.3c-4.2-2.2-8.4-4.3-12.6-6.5c-18-9.3-36-18.6-54-27.8c-0.3-0.2-0.6-0.2-1,0
				c-7.8,4.1-15.7,8.1-23.5,12.1c-14,7.2-28,14.4-42,21.6C51.6,75.4,51.1,75.7,50.4,76z"/>
			<g id="white_74_" class="st16">
				<path class="st2" d="M50.4,76c0.7-0.3,1.2-0.6,1.8-0.9c14-7.2,28-14.4,42-21.6c7.8-4,15.7-8.1,23.5-12.1c0.4-0.2,0.6-0.1,1,0
					c18,9.3,36,18.6,54,27.8c4.2,2.2,8.4,4.3,12.6,6.5c0.1,0.1,0.3,0.2,0.5,0.3c-0.2,0.1-0.4,0.2-0.5,0.3c-6.8,3.5-13.7,7-20.5,10.6
					c-15.3,7.9-30.7,15.8-46,23.7c-0.4,0.2-0.8,0.2-1.2,0c-18.2-9.4-36.4-18.8-54.6-28.1c-4-2-7.9-4.1-11.9-6.1
					C50.8,76.3,50.7,76.2,50.4,76z M54.8,76c0.2,0.1,0.3,0.2,0.5,0.3c1.1,0.6,2.2,1.1,3.2,1.7c19.7,10.1,39.5,20.2,59.2,30.4
					c0.3,0.2,0.5,0.2,0.9,0c14.3-7.4,28.6-14.7,43-22.1c6.5-3.3,13-6.6,19.4-10c0.2-0.1,0.3-0.2,0.5-0.3c-0.3-0.1-0.5-0.2-0.7-0.3
					c-17.7-9.1-35.5-18.2-53.2-27.3c-3-1.6-6.1-3.1-9.1-4.7c-0.3-0.1-0.5-0.2-0.7,0c-0.4,0.2-0.8,0.4-1.2,0.6
					C96.2,54.8,75.9,65.2,55.5,75.7C55.3,75.8,55.1,75.9,54.8,76z"/>
				<path class="st2" d="M152.4,67.3c1.6,0,3,0,4.5,0c0,5.8,0,11.5,0,17.2c-1.6,0-3.1,0-4.7,0c-1-2.9-2-5.9-3.1-8.8c0,0-0.1,0-0.1,0
					c0,2.9,0,5.8,0,8.8c-1.5,0-3,0-4.5,0c0,0,0,0,0,0c0,0,0,0,0,0c0-0.1,0-0.3,0-0.4c0-5.5,0-11,0-16.5c0,0,0-0.1,0.1-0.2
					c0.1,0,0.3,0,0.4,0c1.3,0,2.6,0,3.9,0c0.5,0,0.5,0,0.6,0.5c0.9,2.8,1.8,5.5,2.6,8.3c0,0.1,0.1,0.3,0.2,0.4
					C152.4,73.4,152.4,70.4,152.4,67.3z"/>
				<path class="st2" d="M142.8,76c0,1.7,0,3.4,0,5c0,0.9-0.3,1.6-0.9,2.2c-0.8,0.8-1.8,1.3-2.8,1.5c-1.7,0.3-3.4,0.3-5.1-0.1
					c-1-0.2-1.8-0.7-2.5-1.4c-0.6-0.6-0.9-1.3-0.9-2.1c0-3.4,0-6.7,0-10.1c0-0.8,0.3-1.4,0.7-2c0.7-0.8,1.6-1.3,2.6-1.5
					c1.9-0.4,3.9-0.4,5.8,0.1c0.8,0.2,1.6,0.7,2.2,1.3c0.6,0.6,0.9,1.3,0.9,2.2C142.8,72.6,142.8,74.3,142.8,76z M137.6,76
					c0-1.6,0-3.3,0-4.9c0-0.8-0.1-1-0.9-1c-0.1,0-0.2,0-0.3,0c-0.6,0.1-0.7,0.2-0.7,0.8c0,3.3,0,6.7,0,10c0,0.6,0.1,0.8,0.7,0.8
					c0.2,0,0.4,0,0.5,0c0.5-0.1,0.6-0.2,0.6-0.8C137.6,79.3,137.6,77.7,137.6,76z"/>
				<path class="st2" d="M129.3,77.7c0,0.2,0,0.4,0,0.6c0,0.9,0,1.8,0,2.6c0,0.9-0.3,1.7-1,2.3c-0.8,0.8-1.7,1.2-2.8,1.4
					c-1.7,0.3-3.3,0.3-5-0.1c-0.9-0.2-1.7-0.7-2.4-1.3c-0.7-0.6-1-1.4-1-2.4c0-3.3,0-6.6,0-9.9c0-1,0.4-1.8,1-2.4
					c0.8-0.7,1.8-1.2,2.8-1.4c1.6-0.3,3.2-0.3,4.8,0.1c1,0.2,1.8,0.7,2.5,1.3c0.7,0.6,1,1.4,1,2.3c0,0.9,0,1.9,0,2.8
					c0,0.2,0,0.4,0,0.6c-1.7,0-3.4,0-5.1,0c0-0.2,0-0.4,0-0.6c0-1,0-1.9,0-2.9c0-0.6-0.1-0.7-0.6-0.8c-0.1,0-0.2,0-0.3,0
					c-0.8,0.1-0.8,0.3-0.8,0.9c0,3.3,0,6.5,0,9.8c0,0.1,0,0.2,0,0.3c0,0.2,0.1,0.4,0.3,0.5c0.1,0.1,0.3,0.1,0.4,0.1
					c0.7,0.1,0.9-0.2,0.9-0.9c0-0.8,0-1.7,0-2.5c0-0.2,0-0.4,0-0.5C124.5,77.7,128.6,77.6,129.3,77.7z"/>
				<path class="st2" d="M105.7,84.4c0-5.7,0-11.4,0-17.1c0.4-0.1,9.7-0.1,10.1,0c0,0.9,0,1.8,0,2.8c-0.2,0-0.3,0-0.5,0
					c-1.2,0-2.5,0-3.7,0c-0.2,0-0.3,0-0.5,0c0,1.5,0,3,0,4.5c1.1,0,2.3,0,3.5,0c0,0.9,0,1.7,0,2.5c-0.4,0.2-0.8,0.1-1.2,0.1
					c-0.4,0-0.8,0-1.1,0c-0.4,0-0.8,0-1.1,0c-0.1,0.4-0.1,3.2-0.1,4.1c0.2,0,0.3,0,0.5,0c1.2,0,2.4,0,3.6,0c0.2,0,0.4,0,0.6,0
					c0,1,0,2,0,2.9C115.5,84.5,106.3,84.5,105.7,84.4z"/>
				<path class="st2" d="M100.8,84.5c-1.8,0-3.5,0-5.3,0c0-4.7,0-9.5,0-14.2c-1.2,0-2.3,0-3.4,0c-0.1-0.4-0.1-2.4,0-2.9
					c0.3-0.1,11.5-0.1,12,0c0.1,0.4,0.1,2.3,0,2.9c-1.1,0-2.2,0-3.4,0C100.8,75,100.8,79.7,100.8,84.5z"/>
				<path class="st2" d="M90.9,73.3c-1.7,0-3.4,0-5.1,0c0-0.2,0-0.3,0-0.5c0-0.7,0-1.3,0-2c0-0.4-0.2-0.6-0.6-0.7
					c-0.1,0-0.3,0-0.4,0c-0.3,0-0.5,0.2-0.5,0.6c0,0.6,0,1.2,0,1.9c0,0.4,0.2,0.7,0.5,0.9c0.4,0.2,0.8,0.5,1.2,0.7
					c1.1,0.6,2.2,1.2,3.3,1.9c0.2,0.1,0.3,0.2,0.5,0.3c0.8,0.5,1.2,1.3,1.2,2.4c0,0.7,0,1.5,0,2.2c0,0.8-0.3,1.4-0.7,1.9
					c-0.7,0.8-1.6,1.3-2.6,1.6c-1.7,0.4-3.5,0.4-5.2,0c-0.9-0.2-1.7-0.7-2.5-1.4c-0.7-0.6-1-1.4-1-2.3c0-0.8,0-1.7,0-2.5
					c0.3-0.1,4.4-0.2,5,0c0,0.1,0,0.3,0,0.5c0,0.7,0,1.5,0,2.2c0,0.5,0.1,0.6,0.5,0.7c0.3,0,0.5,0,0.8-0.1c0.2,0,0.4-0.2,0.3-0.5
					c0-0.7,0-1.4,0-2.1c0-0.4-0.2-0.6-0.5-0.8c-0.4-0.3-0.9-0.6-1.3-0.8c-1.1-0.7-2.2-1.3-3.3-2c-0.3-0.2-0.7-0.5-1-0.7
					c-0.5-0.4-0.7-1-0.7-1.6c0-0.7,0-1.5,0-2.2c0-0.8,0.3-1.5,0.8-2.1c0.8-0.8,1.8-1.3,2.9-1.5c1.6-0.3,3.1-0.3,4.7,0.1
					c1,0.2,1.9,0.7,2.6,1.5c0.6,0.6,0.9,1.3,0.9,2.1C90.9,71.7,90.9,72.5,90.9,73.3z"/>
			</g>
			<g id="blue_74_" class="st16">
				<path class="st8" d="M54.8,76c0.3-0.2,0.5-0.3,0.7-0.4c20.4-10.5,40.7-20.9,61.1-31.4c0.4-0.2,0.8-0.4,1.2-0.6
					c0.3-0.2,0.5-0.1,0.7,0c3,1.6,6.1,3.1,9.1,4.7c17.7,9.1,35.5,18.2,53.2,27.3c0.2,0.1,0.4,0.2,0.7,0.3c-0.2,0.1-0.4,0.2-0.5,0.3
					c-6.5,3.3-13,6.6-19.4,10c-14.3,7.3-28.6,14.7-43,22.1c-0.3,0.2-0.6,0.1-0.9,0C98,98.2,78.2,88.1,58.5,78
					c-1.1-0.6-2.2-1.1-3.2-1.7C55.1,76.2,55,76.2,54.8,76z M152.4,67.3c0,3.1,0,6.2,0,9.2c-0.1-0.1-0.2-0.3-0.2-0.4
					c-0.9-2.8-1.8-5.5-2.6-8.3c-0.2-0.5-0.2-0.5-0.6-0.5c-1.3,0-2.6,0-3.9,0c-0.1,0-0.3,0-0.4,0c0,0.1-0.1,0.1-0.1,0.2
					c0,5.5,0,11,0,16.5c0,0.1,0,0.3,0,0.4c0,0,0,0,0,0c0,0,0,0,0,0c1.5,0,3,0,4.5,0c0-3,0-5.9,0-8.8c0,0,0.1,0,0.1,0
					c1,2.9,2,5.9,3.1,8.8c1.6,0,3.1,0,4.7,0c0-5.7,0-11.4,0-17.2C155.4,67.3,154,67.3,152.4,67.3z M142.8,76c0-1.7,0-3.3,0-5
					c0-0.9-0.3-1.6-0.9-2.2c-0.6-0.6-1.4-1.1-2.2-1.3c-1.9-0.5-3.9-0.5-5.8-0.1c-1,0.2-1.9,0.7-2.6,1.5c-0.5,0.6-0.8,1.2-0.7,2
					c0,3.4,0,6.7,0,10.1c0,0.9,0.3,1.6,0.9,2.1c0.7,0.7,1.6,1.2,2.5,1.4c1.7,0.4,3.4,0.4,5.1,0.1c1.1-0.2,2-0.7,2.8-1.5
					c0.6-0.6,0.9-1.3,0.9-2.2C142.8,79.3,142.8,77.6,142.8,76z M129.3,77.7c-0.7-0.1-4.8-0.1-5.2,0c0,0.2,0,0.3,0,0.5
					c0,0.8,0,1.7,0,2.5c0,0.7-0.3,1-0.9,0.9c-0.2,0-0.3,0-0.4-0.1c-0.2-0.1-0.3-0.2-0.3-0.5c0-0.1,0-0.2,0-0.3c0-3.3,0-6.5,0-9.8
					c0-0.6,0-0.8,0.8-0.9c0.1,0,0.2,0,0.3,0c0.5,0.1,0.6,0.2,0.6,0.8c0,1,0,1.9,0,2.9c0,0.2,0,0.3,0,0.6c1.7,0,3.4,0,5.1,0
					c0-0.2,0-0.4,0-0.6c0-0.9,0-1.9,0-2.8c0-1-0.3-1.7-1-2.3c-0.7-0.7-1.6-1.1-2.5-1.3c-1.6-0.3-3.2-0.3-4.8-0.1
					c-1,0.2-2,0.6-2.8,1.4c-0.7,0.6-1,1.4-1,2.4c0,3.3,0,6.6,0,9.9c0,1,0.3,1.7,1,2.4c0.7,0.7,1.5,1.1,2.4,1.3
					c1.7,0.4,3.3,0.4,5,0.1c1-0.2,2-0.7,2.8-1.4c0.6-0.6,1-1.3,1-2.3c0-0.9,0-1.8,0-2.6C129.3,78.1,129.3,77.9,129.3,77.7z
					 M90.9,73.3c0-0.8,0-1.6,0-2.4c0-0.9-0.3-1.6-0.9-2.1c-0.7-0.7-1.6-1.2-2.6-1.5c-1.6-0.4-3.1-0.4-4.7-0.1
					c-1.1,0.2-2.1,0.7-2.9,1.5c-0.6,0.6-0.9,1.2-0.8,2.1c0,0.7,0,1.5,0,2.2c0,0.7,0.2,1.2,0.7,1.6c0.3,0.3,0.6,0.5,1,0.7
					c1.1,0.7,2.2,1.3,3.3,2c0.5,0.3,0.9,0.6,1.3,0.8c0.3,0.2,0.5,0.4,0.5,0.8c0,0.7,0,1.4,0,2.1c0,0.3-0.1,0.5-0.3,0.5
					c-0.3,0.1-0.5,0.1-0.8,0.1c-0.4,0-0.5-0.2-0.5-0.7c0-0.7,0-1.5,0-2.2c0-0.2,0-0.3,0-0.5c-0.6-0.1-4.7-0.1-5,0c0,0.8,0,1.7,0,2.5
					c0,1,0.3,1.7,1,2.3c0.7,0.7,1.5,1.1,2.5,1.4c1.7,0.4,3.5,0.4,5.2,0c1-0.2,1.9-0.8,2.6-1.6c0.5-0.5,0.8-1.2,0.7-1.9
					c0-0.7,0-1.5,0-2.2c0-1-0.4-1.8-1.2-2.4c-0.2-0.1-0.3-0.2-0.5-0.3c-1.1-0.6-2.2-1.2-3.3-1.9c-0.4-0.2-0.8-0.5-1.2-0.7
					c-0.3-0.2-0.5-0.5-0.5-0.9c0-0.6,0-1.2,0-1.9c0-0.4,0.2-0.5,0.5-0.6c0.1,0,0.3,0,0.4,0c0.4,0,0.6,0.2,0.6,0.7c0,0.7,0,1.3,0,2
					c0,0.2,0,0.3,0,0.5C87.5,73.3,89.1,73.3,90.9,73.3z M105.7,84.4c0.6,0.1,9.7,0.1,10.1,0c0-1,0-1.9,0-2.9c-0.2,0-0.4,0-0.6,0
					c-1.2,0-2.4,0-3.6,0c-0.2,0-0.4,0-0.5,0c-0.1-0.9-0.1-3.7,0.1-4.1c0.4,0,0.7,0,1.1,0c0.4,0,0.8,0,1.1,0c0.4,0,0.8,0.1,1.2-0.1
					c0-0.8,0-1.6,0-2.5c-1.2,0-2.3,0-3.5,0c0-1.5,0-3,0-4.5c0.2,0,0.4,0,0.5,0c1.2,0,2.5,0,3.7,0c0.2,0,0.3,0,0.5,0c0-1,0-1.9,0-2.8
					c-0.4-0.1-9.7-0.1-10.1,0C105.7,73,105.7,78.7,105.7,84.4z M100.8,84.5c0-4.8,0-9.5,0-14.3c1.2,0,2.3,0,3.4,0
					c0.1-0.5,0.1-2.5,0-2.9c-0.5-0.1-11.7-0.1-12,0c-0.1,0.5-0.1,2.4,0,2.9c1.1,0,2.2,0,3.4,0c0,4.8,0,9.5,0,14.2
					C97.3,84.5,99,84.5,100.8,84.5z"/>
				<path class="st8" d="M137.6,76c0,1.7,0,3.3,0,5c0,0.5-0.1,0.7-0.6,0.8c-0.2,0-0.4,0-0.5,0c-0.5-0.1-0.7-0.2-0.7-0.8
					c0-3.3,0-6.7,0-10c0-0.6,0.1-0.7,0.7-0.8c0.1,0,0.2,0,0.3,0c0.8,0,0.9,0.2,0.9,1C137.6,72.8,137.6,74.4,137.6,76z"/>
			</g>
		</g>
	</g>
	<g>
		
			<rect x="-12.2" y="430.7" transform="matrix(-1.836970e-16 1 -1 -1.836970e-16 809.6807 402.3891)" class="st9" width="431.6" height="350.6"/>
		<path class="st2" d="M201,677.3c26.4,0,52.6,0,78.8,0c0,22,0,43.9,0,65.9c-54.4,0-108.9,0-163.4,0c0.2-2.1,0.3-4.2,0.5-6.3
			c1.1-14.5,3.9-28.7,8.6-42.6c5-14.7,12.2-28.3,20.7-41.2c10.9-16.5,23.1-31.9,35.6-47.1c10-12.2,20-24.4,28.9-37.5
			c5.9-8.7,9.9-18.3,11.3-28.8c1.3-9.3,1-18.7-2.9-27.5c-4.9-10.9-18.8-14.7-28.3-7.9c-4.2,3-6.5,7.3-8.1,12
			c-1.9,5.6-2.8,11.5-3.2,17.4c-0.3,4.1-0.5,8.2-0.7,12.3c0,0.2-0.1,0.5-0.1,0.8c-19-2.5-38-4.9-57.1-7.4c0.2-3,0.4-6,0.7-8.9
			c0.9-9.5,2.3-18.9,4.7-28.2c2.9-11.3,7-22.1,14-31.5c11-15.1,25.8-24.5,44.1-28.4c14-3,28-2.5,41.7,1.6
			c15.5,4.6,27.5,14,36.7,27.2c8.2,11.7,13.2,24.7,15.2,38.8c3.9,27.3-0.7,53.3-12.6,78.1c-7.3,15.4-16.9,29.3-27.6,42.4
			c-9.2,11.3-18.5,22.5-27.7,33.8c-3,3.7-5.8,7.7-8.6,11.6C201.7,676.2,201.5,676.6,201,677.3z"/>
	</g>
	<g>
		<rect x="28.3" y="20" class="st9" width="350.6" height="350.9"/>
		<g>
			<path class="st2" d="M182.3,297.3c0-1.4,0-2.7,0-4c0-18.6,0-37.1,0-55.7c0-1.3-0.1-2.6-0.2-3.9c-0.3-2.5-1.9-3.8-4.2-3.7
				c-2.4,0.1-3.7,1.7-4.1,4c-0.2,1-0.1,2-0.1,3c0,17.1,0,34.3,0,51.4c0,5.4-3.2,9.1-8,9.2c-5.6,0.2-9.4-3.3-9.4-9
				c-0.1-21.6-0.2-43.3,0-64.9c0.2-13.8,12.2-25.8,25.9-26c19.2-0.2,38.3-0.2,57.5,0c11.5,0.1,22,9.5,24,21c0.4,2.4,0.6,4.8,0.6,7.2
				c0,21,0,42,0,63c0,4.5-3,8.2-6.9,8.7c-4.8,0.7-8.7-1.5-10.1-5.8c-0.4-1.1-0.4-2.4-0.4-3.5c0-17.6,0-35.2,0-52.8
				c0-3.5-1.9-5.8-4.6-5.4c-2.7,0.4-3.7,2.2-3.6,4.9c0.1,15.5,0,31,0,46.5c0,5.3,0,10.5,0,16C219.9,297.3,201.5,297.3,182.3,297.3z"
				/>
			<path class="st2" d="M182.7,188.5c-3.1,0.7-6.1,1.2-9.2,2.1c-13,3.6-25.9,16.8-25.6,34.6c0.3,13.8,0.1,27.7,0.1,41.7
				c-15.7,0-31.1,0-47,0c0-1.3,0-2.6,0-3.9c0-19.6,0.1-39.1-0.1-58.7c0-1.6-1.3-3.6-2.7-4.6c-0.7-0.6-3.2-0.1-4,0.8
				c-1,1-1.4,2.9-1.4,4.4c-0.1,17.6,0,35.2-0.1,52.7c0,6.9-6.3,11.3-12.3,8.7c-3.3-1.4-5.1-4-5.1-7.7c0-22.5-0.1-45,0-67.6
				c0.1-10.6,10.8-22,22-23.8c2.8-0.4,5.6-0.7,8.5-0.7c16.4-0.1,32.9,0,49.3,0C169.3,166.6,179.3,174.6,182.7,188.5z"/>
			<path class="st2" d="M319.5,267.1c-15.8,0-31.1,0-47,0c0-1.2,0-2.3,0-3.5c0-13.4,0-26.8,0-40.2c0-17.2-13.1-32-30.2-34.1
				c-1.3-0.2-2.5-0.5-4.1-0.8c0.9-6.4,4.4-11.3,9.2-15.3c5.4-4.5,11.7-6.6,18.7-6.6c17.3,0,34.6,0,51.9,0c13.2,0,23.4,8,26.7,20.8
				c0.3,1.3,0.5,2.6,0.5,3.9c0,22,0.1,43.9,0.1,65.9c0,6.2-3.2,9.9-8.4,10c-5.1,0.1-8.9-4.1-9.1-10c-0.1-4.6,0-9.2,0-13.8
				c0-13,0-25.9,0-38.9c0-3.4-1.5-5.3-4-5.2c-2.5,0.1-4.2,2-4.2,5.3c0,19.7,0,39.3,0,59C319.5,264.6,319.5,265.7,319.5,267.1z"/>
			<path class="st2" d="M264,158.2c-9.5,0.7-17.7,4.1-24.8,11c-3-18.7-13.3-29.6-32.4-28.3c-14.6,1-23.1,10.7-26.2,26.3
				c-3.8-2.1-7.4-4.8-11.5-6.4c-4-1.6-8.3-2.1-12.7-3.1c-2-12.1,7.5-25.4,20.7-28.6c1.9-0.5,3.9-0.7,5.8-0.7c18.5-0.1,37-0.1,55.5,0
				C254,128.4,265.9,142.4,264,158.2z"/>
			<path class="st2" d="M108.2,139.2c-0.7-10.3,8.7-20.8,20.4-20.7c11.4,0.1,20.7,9.2,20.7,20.6c0,11.5-9.1,20.4-20.5,20.7
				C117.6,160.1,107.5,149.8,108.2,139.2z"/>
			<path class="st2" d="M230.2,100.7c0.5,10.1-7.7,20.7-20.5,20.6c-12.3-0.1-20.3-9.5-20.5-20.8c-0.2-11.3,9.4-20.4,20.8-20.5
				C222.1,79.9,230.9,90.6,230.2,100.7z"/>
			<path class="st2" d="M270.5,139.1c-0.7-10.5,9.1-20.8,20.5-20.6c11.3,0.1,20.8,9.4,20.6,20.7c-0.3,13.3-11.2,20.7-21,20.6
				C280.5,159.7,269.8,150.6,270.5,139.1z"/>
			<path class="st2" d="M230.2,169.7c0.7,9.1-6.6,20.4-20.4,20.8c-11,0.3-21-9.5-20.7-20.7c0.2-11.2,8-20.6,20.6-20.8
				C222.5,148.9,230.7,159.4,230.2,169.7z"/>
			<path class="st2" d="M337.5,314.9l36.8,37L360,366.3L322.8,329c0,13.6,0.1,27.9,0.1,42.2l-18.2-18.2l-0.1-55.8
				c16.8,0,56.3,0,56.3,0l17.8,17.9L337.5,314.9z"/>
			<path class="st2" d="M322.5,62l36.8-37l14.3,14.4l-37.2,37.3c13.5,0,27.8-0.1,42-0.1l-18.2,18.2L304.7,95c0-16.8,0-56.5,0-56.5
				l17.8-17.9L322.5,62z"/>
			<path class="st2" d="M70.3,77.2l-36.8-37l14.3-14.4L85,63.2c0-13.6-0.1-27.9-0.1-42.2l18.2,18.2l0.1,55.8c-16.8,0-56.3,0-56.3,0
				L29.1,77.2L70.3,77.2z"/>
			<path class="st2" d="M85.2,329.5l-36.8,37L34,352.1l37.2-37.3c-13.5,0-27.8,0.1-42,0.1l18.2-18.2l55.7-0.1c0,16.8,0,56.5,0,56.5
				l-17.8,17.9L85.2,329.5z"/>
		</g>
	</g>
	<g>
		
			<rect x="379.2" y="38.9" transform="matrix(-1.836970e-16 1 -1 -1.836970e-16 1201.0677 -359.178)" class="st9" width="801.8" height="764.2"/>
		<g>
			<path class="st17" d="M614.2,688.4v-88.5h26.4c10,0,16.6,0.4,19.6,1.3c4.7,1.3,8.6,4.2,11.7,8.7c3.2,4.4,4.7,10.2,4.7,17.2
				c0,5.4-0.9,10-2.7,13.7c-1.8,3.7-4.1,6.6-6.9,8.7c-2.8,2.1-5.7,3.5-8.5,4.2c-3.9,0.8-9.6,1.3-17.1,1.3h-10.7v33.4H614.2z
				 M630.7,614.8V640h9c6.5,0,10.8-0.5,13-1.4c2.2-0.9,3.9-2.4,5.1-4.3c1.2-2,1.9-4.3,1.9-6.9c0-3.2-0.9-5.9-2.6-8
				c-1.7-2.1-4-3.4-6.6-3.9c-2-0.4-5.9-0.6-11.9-0.6H630.7z"/>
			<path class="st17" d="M686.9,644.7c0-9,1.2-16.6,3.7-22.7c1.9-4.5,4.4-8.6,7.6-12.1c3.2-3.6,6.7-6.2,10.6-8
				c5.1-2.3,10.9-3.5,17.6-3.5c12,0,21.6,4,28.9,12.1c7.2,8.1,10.8,19.3,10.8,33.8c0,14.3-3.6,25.5-10.7,33.6
				c-7.2,8.1-16.7,12.1-28.7,12.1c-12.1,0-21.8-4-29-12C690.5,669.8,686.9,658.8,686.9,644.7z M703.9,644.1c0,10,2.1,17.6,6.4,22.8
				c4.3,5.2,9.7,7.8,16.3,7.8c6.6,0,12-2.6,16.2-7.7s6.3-12.8,6.3-23.1c0-10.1-2.1-17.7-6.2-22.7c-4.1-5-9.5-7.5-16.3-7.5
				c-6.8,0-12.3,2.5-16.4,7.6C706,626.3,703.9,633.9,703.9,644.1z"/>
			<path class="st17" d="M778.5,688.4v-88.5h16.5v88.5H778.5z"/>
			<path class="st17" d="M810.8,688.4v-88.5h16l33.4,59.1v-59.1h15.3v88.5H859l-32.9-57.7v57.7H810.8z"/>
			<path class="st17" d="M911.4,688.4v-73.6h-24.2v-15H952v15h-24.2v73.6H911.4z"/>
		</g>
		<g>
			<path class="st0" d="M440.2,523.3v-17h30.7v17H440.2z"/>
			<path class="st18" d="M553.6,546.9h-17.9l-7.1-20.1H496l-6.7,20.1h-17.5l31.8-88.5h17.4L553.6,546.9z M523.3,511.9L512,479
				l-11,32.9H523.3z"/>
			<path class="st18" d="M558.2,518.1l16-1.7c1,5.8,2.9,10.1,5.9,12.9c3,2.7,6.9,4.1,11.9,4.1c5.3,0,9.3-1.2,12-3.7
				c2.7-2.4,4-5.3,4-8.5c0-2.1-0.6-3.9-1.7-5.3s-3.1-2.7-5.9-3.8c-1.9-0.7-6.3-2-13.2-3.9c-8.8-2.4-15-5.3-18.6-8.8
				c-5-4.9-7.5-10.8-7.5-17.8c0-4.5,1.2-8.7,3.5-12.7c2.4-3.9,5.8-6.9,10.2-9s9.8-3.1,16.1-3.1c10.2,0,18,2.4,23.1,7.3
				c5.2,4.9,7.9,11.4,8.2,19.5l-16.5,0.8c-0.7-4.5-2.2-7.8-4.5-9.8c-2.3-2-5.8-3-10.4-3c-4.8,0-8.5,1.1-11.2,3.2
				c-1.7,1.4-2.6,3.2-2.6,5.5c0,2.1,0.8,3.9,2.5,5.4c2.1,1.9,7.1,3.9,15.1,5.9s13.9,4.2,17.8,6.4s6.8,5.2,9,9
				c2.2,3.8,3.3,8.5,3.3,14.1c0,5.1-1.3,9.8-3.9,14.3c-2.6,4.4-6.3,7.7-11,9.9c-4.8,2.2-10.7,3.2-17.8,3.2
				c-10.3,0-18.2-2.6-23.8-7.8C562.6,535.5,559.3,528,558.2,518.1z"/>
			<path class="st18" d="M634.3,518.1l16-1.7c1,5.8,2.9,10.1,5.9,12.9c3,2.7,6.9,4.1,11.9,4.1c5.3,0,9.3-1.2,12-3.7
				c2.7-2.4,4-5.3,4-8.5c0-2.1-0.6-3.9-1.7-5.3s-3.1-2.7-5.9-3.8c-1.9-0.7-6.3-2-13.2-3.9c-8.8-2.4-15-5.3-18.6-8.8
				c-5-4.9-7.5-10.8-7.5-17.8c0-4.5,1.2-8.7,3.5-12.7c2.4-3.9,5.8-6.9,10.2-9s9.8-3.1,16.1-3.1c10.2,0,18,2.4,23.1,7.3
				c5.2,4.9,7.9,11.4,8.2,19.5l-16.5,0.8c-0.7-4.5-2.2-7.8-4.5-9.8c-2.3-2-5.8-3-10.4-3c-4.8,0-8.5,1.1-11.2,3.2
				c-1.7,1.4-2.6,3.2-2.6,5.5c0,2.1,0.8,3.9,2.5,5.4c2.1,1.9,7.1,3.9,15.1,5.9s13.9,4.2,17.8,6.4s6.8,5.2,9,9
				c2.2,3.8,3.3,8.5,3.3,14.1c0,5.1-1.3,9.8-3.9,14.3c-2.6,4.4-6.3,7.7-11,9.9c-4.8,2.2-10.7,3.2-17.8,3.2
				c-10.3,0-18.2-2.6-23.8-7.8C638.6,535.5,635.3,528,634.3,518.1z"/>
			<path class="st18" d="M714.5,546.9v-88.5H775v15h-44V493h41v14.9h-41V532h45.6v14.9H714.5z"/>
			<path class="st18" d="M790.3,546.9v-88.5H815l14.8,60.4l14.6-60.4h24.7v88.5h-15.3v-69.7l-16.2,69.7h-15.9l-16.1-69.7v69.7H790.3
				z"/>
			<path class="st18" d="M885.6,458.4h32.6c6.5,0,11.3,0.3,14.4,0.9s6,1.8,8.5,3.7c2.5,1.9,4.6,4.3,6.3,7.4
				c1.7,3.1,2.5,6.5,2.5,10.4c0,4.1-1,8-3.1,11.4c-2.1,3.5-4.9,6.1-8.4,7.8c5,1.6,8.8,4.2,11.5,8c2.7,3.8,4,8.2,4,13.3
				c0,4-0.9,7.9-2.6,11.7c-1.7,3.8-4.1,6.8-7.1,9.1c-3,2.3-6.7,3.7-11.1,4.2c-2.7,0.3-9.4,0.5-19.9,0.6h-27.8V458.4z M902.1,473.1
				v20.5h10.8c6.4,0,10.4-0.1,12-0.3c2.8-0.4,5-1.4,6.7-3.2c1.6-1.8,2.4-4.1,2.4-6.9c0-2.7-0.7-5-2.1-6.7c-1.4-1.7-3.5-2.7-6.2-3.1
				c-1.6-0.2-6.3-0.3-14.1-0.3H902.1z M902.1,508.3V532h15.3c5.9,0,9.7-0.2,11.3-0.5c2.4-0.5,4.4-1.7,6-3.5c1.5-1.9,2.3-4.4,2.3-7.5
				c0-2.7-0.6-4.9-1.8-6.8c-1.2-1.9-2.9-3.2-5.1-4c-2.2-0.8-7.1-1.3-14.6-1.3H902.1z"/>
			<path class="st18" d="M968.3,546.9v-87.8h16.5V532h41v14.9H968.3z"/>
			<path class="st18" d="M1048.5,546.9v-37.3l-29.9-51.3h19.3l19.2,35l18.8-35h19l-30,51.4v37.1H1048.5z"/>
			<path class="st0" d="M1094.9,523.3v-17h30.7v17H1094.9z"/>
		</g>
		<g>
			<path class="st19" d="M501.2,259.7c0,7-2.1,12.5-6.3,16.4s-9.6,5.8-16.3,5.8c-12.8,0-20.2-6.2-22.3-18.5l-3.9-22.5
				c-1.9,0.8-4.1,1.1-6.6,1.1c-5.1,0-9.5-2-13.1-6c-3.7-4-5.5-8.7-5.5-14.3c0-5.5,1.8-10.3,5.5-14.3c3.7-4,8.1-6,13.1-6
				c4.6,0,8.6,1.6,12.1,4.7c3.5,3.1,5.7,7,6.6,11.8l7.4,43.4c0.5,3.4,2.7,5.1,6.6,5.1c4.4,0,6.6-1.9,6.6-5.7v-63.7
				c0-6.2-2.7-10.9-8.1-14.2c-4.6-2.6-10.2-4-16.8-4c-15.1,0-24.1,4.6-27.1,13.7h-15.8c2.3-19.2,16.1-28.9,41.5-29.1
				c11.7,0,21.4,2.4,28.9,7.1c9.1,6.1,13.7,15.2,13.7,27.4V259.7z M453.9,221.8c0-2.5-0.8-4.6-2.4-6.3c-1.6-1.7-3.5-2.6-5.8-2.6
				c-2.3,0-4.2,0.9-5.8,2.6c-1.6,1.7-2.4,3.8-2.4,6.3c0,2.5,0.8,4.6,2.4,6.3c1.6,1.7,3.5,2.6,5.8,2.6c2.3,0,4.2-0.9,5.8-2.6
				C453.1,226.3,453.9,224.2,453.9,221.8z"/>
			<path class="st19" d="M501.2,346.6h-15.8V325h-1.1c-4.4,0-8.1-1.7-11.2-5c-3.1-3.3-4.6-7.3-4.6-11.8c0-4.8,1.5-8.8,4.6-12.3
				c3.1-3.4,6.9-5.1,11.4-5.1c4.4,0,8.2,1.5,11.6,4.6c3.3,3,5,7.2,5,12.5V346.6z M492,307.3c0-2.1-0.7-3.9-2.1-5.4
				c-1.4-1.5-3.1-2.3-5-2.3c-1.9,0-3.6,0.8-5.1,2.3c-1.5,1.5-2.2,3.3-2.2,5.4c0,2.1,0.7,3.9,2.2,5.6c1.5,1.6,3.2,2.4,5.1,2.4
				c1.9,0,3.6-0.8,5-2.4C491.3,311.2,492,309.4,492,307.3z"/>
			<path class="st19" d="M607.6,279.6h-16.3v-76.2c0-7.2-2.5-13.1-7.5-17.6c-5-4.5-10.9-6.8-17.6-6.8c-7.3,0-13.7,2.7-19.1,8.1
				c-5.4,5.4-8.1,11.9-8.1,19.5c0,4.7,1.4,11.5,4.3,20.2c2.9,8.7,4.3,15.2,4.3,19.6c0,1.3-0.2,3.1-0.5,5.4
				c5-8.9,10.6-16.4,16.8-22.5c-4.9-0.4-8.8-2.5-11.6-6.3c-2.6-3.2-3.9-7.2-3.9-12c0-4.9,1.7-9.3,5.1-13c3.4-3.7,7.5-5.6,12.2-5.6
				s8.8,1.9,12.1,5.6c3.3,3.7,5,8,5,13c0,8.6-3.8,18.1-11.5,28.5c-10.6,14.3-16.6,22.8-18,25.7c-2.6,4.9-3.9,9.8-3.9,14.5H533
				c0.2-7,0.3-13.5,0.3-19.4c0-10.3-1.1-18.1-3.2-23.7c-1.6-4.9-3.2-10-4.8-15.3c-1.6-5.2-2.4-9.8-2.4-13.8
				c0-12.9,4.2-23.5,12.5-31.6c8.3-8.2,18.4-12.3,30.4-12.3c12.1,0,22,3.4,29.7,10.3c8.2,7.4,12.4,17.6,12.4,30.5V279.6z
				 M573.7,210.9c0-2.5-0.7-4.5-2.2-6.1c-1.5-1.6-3.4-2.4-5.7-2.4c-2.3,0-4.2,0.8-5.7,2.4c-1.5,1.6-2.2,3.7-2.2,6.1
				c0,2.5,0.7,4.5,2.2,6.1c1.5,1.6,3.4,2.4,5.7,2.4c2.3,0,4.2-0.8,5.7-2.4C573,215.4,573.7,213.4,573.7,210.9z"/>
			<path class="st19" d="M692.2,260.5c0,6.1-2,11.2-5.9,15.3c-3.9,4.1-8.7,6.1-14.3,6.1c-5.6,0-10.4-2.1-14.3-6.3
				c-3.9-4.2-5.9-9.3-5.9-15.4c0-6.1,2-11.2,5.9-15.4c3.9-4.2,8.7-6.3,14.3-6.3c2.1,0,3.4,0.1,3.9,0.3v-24.5c0-3-5.8-6-17.5-9
				c-11.7-2.9-22.2-5.3-31.7-7c0.3-10.5,2.9-18.9,7.6-25.2c4.7-6.4,11.6-9.6,20.5-9.6c3.7,0,8.7,0.9,15.1,2.7
				c6.4,1.8,11,2.7,13.8,2.7c3,0,4.6-2.1,5-6.3l12.9,3.7c-3.2,11.6-8.9,17.4-17.3,17.4c-3.2,0-7.7-0.8-13.5-2.4
				c-5.9-1.6-10.3-2.4-13.3-2.4c-7.7,0-12.1,3.1-13.1,9.4c13.5,3,24.8,6.3,34,9.7s13.8,9.3,13.8,17.7V260.5z M680.9,260.2
				c0-2.7-0.9-4.9-2.7-6.8c-1.8-1.9-3.9-2.9-6.4-2.9s-4.6,1-6.4,2.9c-1.8,1.9-2.7,4.2-2.7,6.8c0,2.7,0.9,4.9,2.7,6.8
				c1.8,1.9,3.9,2.9,6.4,2.9s4.6-0.9,6.4-2.9C680,265.2,680.9,262.9,680.9,260.2z"/>
			<path class="st19" d="M793.7,258.8c0,6.7-2,12.1-6,16.4c-4,4.3-9,6.4-15,6.4c-5.6,0-10.3-2.1-14.2-6.3c-3.9-4.2-5.8-9.3-5.8-15.2
				c0-6.1,1.9-11.3,5.8-15.5c3.9-4.2,8.6-6.3,14.2-6.3c1.9,0,3.5,0.1,4.7,0.3v-41.5c0-12-8.1-18.1-24.2-18.1c-6.7,0-12.3,2.2-17,6.6
				c-4.6,4.4-7,10.3-7,17.6h-15.8c0.5-12.5,4.3-22.3,11.4-29.2c7.1-6.9,16.5-10.4,28.3-10.4c11.6,0,20.8,2.5,27.9,7.4
				c8.4,5.9,12.6,14.9,12.6,27.1V258.8z M781.6,260c0-2.7-0.9-4.9-2.6-6.8c-1.8-1.9-3.9-2.9-6.3-2.9c-2.5,0-4.6,1-6.3,2.9
				c-1.8,1.9-2.6,4.2-2.6,6.8c0,2.7,0.9,4.9,2.6,6.8c1.7,1.9,3.9,2.9,6.3,2.9c2.5,0,4.6-0.9,6.3-2.9
				C780.7,264.9,781.6,262.6,781.6,260z"/>
			<path class="st19" d="M903.2,279.6H887c-10.2-9.9-20.4-16.8-30.7-20.8v1.4c0,6.1-2.1,11.2-6.4,15.4c-4.3,4.2-9.2,6.3-14.6,6.3
				c-5.8,0-10.8-2.3-15-6.8c-4.2-4.6-6.3-10-6.3-16.3c0-6.3,2.1-11.6,6.3-16.1c4.2-4.5,9.2-6.7,15-6.7h1.8v-29.6
				c-1.8,0.4-3.2,0.6-4.5,0.6c-5.6,0-10.3-2.1-14.2-6.4c-3.9-4.3-5.8-9.5-5.8-15.5c0-5.9,1.9-10.9,5.8-15.1
				c3.9-4.2,8.6-6.3,14.2-6.3c6,0,10.9,2.2,14.8,6.6c3.9,4.4,5.9,9.9,5.9,16.5v54.2c13.8,5.1,25.1,11.9,33.6,20.2v-95.2h16.3V279.6z
				 M841.5,185.3c0-2.7-0.9-4.9-2.6-6.8c-1.8-1.9-3.9-2.9-6.3-2.9c-2.5,0-4.6,1-6.3,2.9c-1.8,1.9-2.6,4.2-2.6,6.8
				c0,2.7,0.9,4.9,2.6,6.8c1.7,1.9,3.9,2.9,6.3,2.9c2.5,0,4.6-0.9,6.3-2.9C840.6,190.2,841.5,187.9,841.5,185.3z M844.1,258.8
				c0-2.7-0.9-4.9-2.6-6.8c-1.8-1.9-3.9-2.9-6.3-2.9c-2.5,0-4.6,1-6.3,2.9c-1.8,1.9-2.6,4.2-2.6,6.8c0,2.7,0.9,4.9,2.6,6.8
				c1.7,1.9,3.9,2.9,6.3,2.9c2.5,0,4.6-0.9,6.3-2.9C843.2,263.8,844.1,261.5,844.1,258.8z"/>
			<path class="st19" d="M1029.9,279.6h-18.4l-24.7-88.4l-25.5,88.4h-17.6v-73.3c-1.8,0.4-3.2,0.6-4.5,0.6c-5.6,0-10.3-2.1-14.2-6.4
				c-3.9-4.3-5.8-9.5-5.8-15.5c0-5.9,1.9-10.9,5.8-15.1c3.9-4.2,8.6-6.3,14.2-6.3c6,0,10.9,2.2,14.8,6.6c3.9,4.4,5.9,9.9,5.9,16.5
				v42.5c0,4.9-1.1,15-3.2,30.2c3.9-17.3,6-26.6,6.6-27.9l18.4-60.7h10l18.4,60.7c0.3,1.1,2.5,10.5,6.6,27.9
				c-2.1-15.2-3.2-25.3-3.2-30.2v-63.3h16.3V279.6z M948.2,185.3c0-2.7-0.9-4.9-2.6-6.8c-1.8-1.9-3.9-2.9-6.3-2.9
				c-2.5,0-4.6,1-6.3,2.9c-1.8,1.9-2.6,4.2-2.6,6.8c0,2.7,0.9,4.9,2.6,6.8c1.7,1.9,3.9,2.9,6.3,2.9c2.5,0,4.6-0.9,6.3-2.9
				C947.3,190.2,948.2,187.9,948.2,185.3z"/>
			<path class="st19" d="M1134.8,279.6h-16.3v-49.3c0-5.7-3-10.1-8.9-13.1c-4.6-2.3-9.6-3.4-15.2-3.4c-5.4,0-10.1,1.4-13.9,4.3
				c-4.7,3.4-7.1,8-7.1,13.7v7.1c1.4-0.4,3-0.6,4.7-0.6c5.6,0,10.4,2.1,14.5,6.4c4,4.3,6,9.4,6,15.3c0,6.1-2.1,11.2-6.3,15.4
				c-4.2,4.2-9,6.3-14.5,6.3c-5.8,0-10.7-2-14.7-6.1c-4-4.1-6-9.3-6-15.5v-26.2c0-11.2,3.9-20,11.6-26.2c6.8-5.5,15.3-8.3,25.5-8.3
				c10.9,0,19,3.2,24.4,9.7v-12.7c0-5.8-3.2-10.4-9.5-13.6c-4.9-2.4-10.4-3.7-16.6-3.7c-6.8,0-12.7,1.7-17.6,5.1
				c-5.4,3.8-8.7,8.8-9.7,15.2h-15.8c1.1-11.6,5.7-20.5,13.9-26.8c7.7-5.9,17.6-8.8,29.7-8.8c10.9,0,20.2,2.8,28.1,8.3
				c9.1,6.3,13.7,15,13.7,26.2V279.6z M1086.9,260c0-2.7-0.9-4.9-2.6-6.8c-1.8-1.9-3.9-2.9-6.3-2.9c-2.5,0-4.6,1-6.3,2.9
				c-1.8,1.9-2.6,4.2-2.6,6.8c0,2.7,0.9,4.9,2.6,6.8c1.7,1.9,3.9,2.9,6.3,2.9c2.5,0,4.6-0.9,6.3-2.9
				C1086.1,264.9,1086.9,262.6,1086.9,260z"/>
		</g>
	</g>
</g>
</svg>
