<?xml version="1.0" encoding="utf-8"?>
<!-- Generator: Adobe Illustrator 22.0.0, SVG Export Plug-In . SVG Version: 6.00 Build 0)  -->
<svg version="1.1" id="Layer_1" xmlns="http://www.w3.org/2000/svg" xmlns:xlink="http://www.w3.org/1999/xlink" x="0px" y="0px"
	 viewBox="0 0 841.9 1190.6" style="enable-background:new 0 0 841.9 1190.6;" xml:space="preserve">
<style type="text/css">
	.st0{fill:none;}
	.st1{fill:#010101;}
	.st2{fill:#FFFFFF;}
	.st3{fill:#077147;}
	.st4{fill:#FFFFFF;stroke:#FFFFFF;stroke-miterlimit:10;}
	.st5{fill-rule:evenodd;clip-rule:evenodd;fill:#077147;}
	.st6{fill:#08713D;}
	.st7{fill:#EB2627;}
	.st8{fill:#2A3B8F;}
</style>
<g>
	<g>
		<rect x="-0.4" y="0.7" class="st0" width="841.9" height="1190.6"/>
		<rect x="27.9" y="29" class="st1" width="785.2" height="1133.9"/>
		<rect x="33.6" y="34.7" class="st2" width="773.9" height="1122.5"/>
		<rect x="52.1" y="793.3" class="st3" width="737" height="348.7"/>
	</g>
	<g>
		<g>
			<path class="st4" d="M121.4,1051.9v-53.7H147v9.1h-18.6v11.9h17.3v9h-17.3v14.6h19.3v9H121.4z"/>
			<path class="st4" d="M153.5,1051.9v-53.7H164l6.3,36.6l6.2-36.6h10.5v53.7h-6.5v-42.3l-6.9,42.3h-6.7l-6.8-42.3v42.3H153.5z"/>
			<path class="st4" d="M193.8,1051.9v-53.7h25.6v9.1h-18.6v11.9h17.3v9h-17.3v14.6h19.3v9H193.8z"/>
			<path class="st4" d="M226,1051.9v-53.7h14.7c3.7,0,6.4,0.5,8,1.4c1.7,1,3,2.7,4,5.1c1,2.5,1.5,5.3,1.5,8.5c0,4-0.8,7.4-2.3,10
				c-1.5,2.6-3.8,4.3-6.8,5c1.5,1.4,2.8,2.9,3.7,4.5c1,1.6,2.3,4.5,4,8.7l4.2,10.5h-8.3l-5-11.7c-1.8-4.2-3-6.8-3.7-7.9
				c-0.7-1.1-1.4-1.8-2.1-2.2c-0.7-0.4-1.9-0.6-3.5-0.6H233v22.4H226z M233,1020.9h5.2c3.3,0,5.4-0.2,6.3-0.7c0.8-0.4,1.5-1.2,2-2.3
				s0.7-2.4,0.7-4c0-1.8-0.3-3.3-0.9-4.4c-0.6-1.1-1.5-1.8-2.6-2.1c-0.6-0.1-2.3-0.2-5.1-0.2H233V1020.9z"/>
			<path class="st4" d="M276.9,1032.2v-9h15v21.4c-1.5,2.2-3.6,4.1-6.4,5.8c-2.8,1.7-5.6,2.5-8.4,2.5c-3.6,0-6.8-1.2-9.5-3.5
				s-4.7-5.7-6.1-10.1c-1.4-4.4-2-9.1-2-14.3c0-5.6,0.8-10.6,2.3-14.9c1.5-4.3,3.7-7.7,6.6-10c2.2-1.8,5-2.7,8.3-2.7
				c4.3,0,7.6,1.4,10.1,4.2c2.4,2.8,4,6.7,4.7,11.6l-6.9,2c-0.5-2.6-1.4-4.7-2.7-6.2c-1.3-1.5-3-2.3-5-2.3c-3,0-5.5,1.5-7.3,4.5
				c-1.8,3-2.7,7.5-2.7,13.4c0,6.4,0.9,11.2,2.7,14.3c1.8,3.2,4.2,4.8,7.2,4.8c1.5,0,2.9-0.4,4.4-1.3c1.5-0.9,2.7-2,3.8-3.2v-6.8
				H276.9z"/>
			<path class="st4" d="M298.4,1051.9v-53.7H324v9.1h-18.6v11.9h17.3v9h-17.3v14.6h19.3v9H298.4z"/>
			<path class="st4" d="M330.7,1051.9v-53.7h6.8l14.1,35.9v-35.9h6.5v53.7h-7l-13.9-35v35H330.7z"/>
			<path class="st4" d="M387.5,1032.2l6.8,3.3c-1,5.9-2.8,10.2-5.2,13.1s-5.5,4.3-9.2,4.3c-4.6,0-8.4-2.4-11.3-7.3
				c-3-4.9-4.4-11.5-4.4-20c0-8.9,1.5-15.9,4.5-20.8c3-4.9,6.9-7.4,11.7-7.4c4.2,0,7.7,1.9,10.3,5.8c1.6,2.3,2.7,5.6,3.5,9.9
				l-6.9,2.6c-0.4-2.8-1.3-5-2.6-6.6s-2.9-2.4-4.7-2.4c-2.6,0-4.6,1.4-6.2,4.3c-1.6,2.9-2.4,7.5-2.4,13.9c0,6.8,0.8,11.6,2.4,14.5
				c1.6,2.9,3.6,4.3,6.1,4.3c1.9,0,3.4-0.9,4.8-2.7C386,1039,387,1036.1,387.5,1032.2z"/>
			<path class="st4" d="M409.4,1051.9v-22.6l-12.7-31.1h8.2l8.1,21.2l8-21.2h8l-12.7,31.2v22.5H409.4z"/>
			<path class="st4" d="M458.4,1051.9v-53.7h25.6v9.1h-18.6v11.9h17.3v9h-17.3v14.6h19.3v9H458.4z"/>
			<path class="st4" d="M499.7,1051.9v-22.6L487,998.2h8.2l8.1,21.2l8-21.2h8l-12.7,31.2v22.5H499.7z"/>
			<path class="st4" d="M522.8,1051.9v-53.7h25.6v9.1h-18.6v11.9h17.3v9h-17.3v14.6h19.3v9H522.8z"/>
			<path class="st4" d="M586.7,1051.9l-8.2-53.7h7.1l5.2,36.9l6.3-36.9h8.3l6.1,37.5l5.3-37.5h7l-8.4,53.7H608l-6.9-40.1l-6.9,40.1
				H586.7z"/>
			<path class="st4" d="M655.9,1051.9h-7.6l-3-12.2h-13.8l-2.9,12.2h-7.4l13.5-53.7h7.4L655.9,1051.9z M643,1030.7l-4.8-19.9
				l-4.7,19.9H643z"/>
			<path class="st4" d="M657.8,1034.5l6.8-1c0.4,3.5,1.2,6.1,2.5,7.8c1.3,1.7,2.9,2.5,5.1,2.5c2.2,0,3.9-0.7,5.1-2.2
				c1.1-1.5,1.7-3.2,1.7-5.2c0-1.3-0.2-2.3-0.7-3.2c-0.5-0.9-1.3-1.7-2.5-2.3c-0.8-0.4-2.7-1.2-5.6-2.3c-3.7-1.4-6.4-3.2-7.9-5.3
				c-2.1-3-3.2-6.6-3.2-10.8c0-2.7,0.5-5.3,1.5-7.7c1-2.4,2.4-4.2,4.3-5.4s4.1-1.9,6.8-1.9c4.3,0,7.6,1.5,9.8,4.4s3.3,6.9,3.5,11.8
				l-7,0.5c-0.3-2.8-0.9-4.7-1.9-6c-1-1.2-2.5-1.8-4.4-1.8c-2,0-3.6,0.6-4.8,1.9c-0.7,0.8-1.1,1.9-1.1,3.3c0,1.3,0.3,2.4,1,3.3
				c0.9,1.1,3,2.3,6.4,3.6c3.4,1.2,5.9,2.5,7.5,3.9s2.9,3.1,3.8,5.5c0.9,2.3,1.4,5.2,1.4,8.6c0,3.1-0.6,6-1.6,8.6
				c-1.1,2.7-2.7,4.7-4.7,6c-2,1.3-4.5,2-7.5,2c-4.4,0-7.7-1.6-10.1-4.7C659.7,1045,658.3,1040.5,657.8,1034.5z"/>
			<path class="st4" d="M691.8,1051.9v-53.7h7v21.1h13.7v-21.1h7v53.7h-7v-23.5h-13.7v23.5H691.8z"/>
		</g>
		<g>
			<path class="st4" d="M221.1,934.8h-7.5v-42c0-2.7-0.6-4-1.8-4c-1,0-1.8,0.6-2.2,1.9l-14.4,44.1h-8.5v-33.4
				c-0.8,0.2-1.5,0.3-2.1,0.3c-2.6,0-4.8-1-6.5-2.9c-1.8-2-2.7-4.3-2.7-7.1c0-2.7,0.9-5,2.7-6.9c1.8-1.9,3.9-2.9,6.5-2.9
				c2.7,0,5,1,6.8,3c1.8,2,2.7,4.5,2.7,7.5v19.4c0,2.9-0.5,7.5-1.5,13.8c0.9-3.8,2-8.1,3.4-12.7l6.8-23.1c1.5-5.3,4.6-7.9,9.1-7.8
				c6,0.1,9.1,3.8,9.1,11V934.8z M188.9,891.7c0-1.2-0.4-2.3-1.2-3.1c-0.8-0.9-1.8-1.3-2.9-1.3c-1.1,0-2.1,0.4-2.9,1.3
				c-0.8,0.9-1.2,1.9-1.2,3.1c0,1.2,0.4,2.3,1.2,3.1c0.8,0.9,1.8,1.3,2.9,1.3c1.1,0,2.1-0.4,2.9-1.3
				C188.4,894,188.9,893,188.9,891.7z"/>
			<path class="st4" d="M221.4,876.3c-10-3.5-19.1-5.2-27.4-5.2c-3.8,0-7.6,0.3-11.5,0.8c1-11.6,6.8-17.4,17.6-17.4
				c5.7,0,10.3,1.7,13.8,5.1v-9h7.3v23.9C221.2,875.1,221.3,875.7,221.4,876.3z M213.6,868.6c-0.5-2.2-1.9-4.2-4.4-6.1
				c-2.4-1.9-5.2-2.9-8.2-2.9c-2.9,0-5.4,0.6-7.5,1.9c-2.1,1.3-3.4,2.9-4,5c1.4-0.3,3.5-0.5,6.4-0.5
				C201.9,866,207.8,866.9,213.6,868.6z"/>
			<path class="st4" d="M221.1,846.8h-7.3v-14.8h7.3V846.8z"/>
			<path class="st4" d="M269.3,934.8h-7.5v-22.5c0-2.6-1.4-4.6-4.1-6c-2.1-1-4.4-1.6-7-1.6c-2.5,0-4.6,0.7-6.4,2
				c-2.2,1.6-3.3,3.6-3.3,6.2v3.3c0.6-0.2,1.4-0.3,2.2-0.3c2.6,0,4.8,1,6.6,2.9c1.9,2,2.8,4.3,2.8,7c0,2.8-1,5.1-2.9,7
				c-1.9,1.9-4.2,2.9-6.6,2.9c-2.7,0-4.9-0.9-6.8-2.8c-1.9-1.9-2.8-4.2-2.8-7.1v-12c0-5.1,1.8-9.1,5.3-12c3.1-2.5,7-3.8,11.7-3.8
				c5,0,8.7,1.5,11.2,4.4v-5.8c0-2.7-1.5-4.7-4.4-6.2c-2.3-1.1-4.8-1.7-7.6-1.7c-3.1,0-5.8,0.8-8.1,2.3c-2.5,1.7-4,4-4.5,6.9h-7.3
				c0.5-5.3,2.6-9.4,6.4-12.2c3.5-2.7,8.1-4,13.7-4c5,0,9.3,1.3,12.9,3.8c4.2,2.9,6.3,6.8,6.3,12V934.8z M247.3,925.8
				c0-1.2-0.4-2.3-1.2-3.1c-0.8-0.9-1.8-1.3-2.9-1.3c-1.1,0-2.1,0.4-2.9,1.3c-0.8,0.9-1.2,1.9-1.2,3.1c0,1.2,0.4,2.3,1.2,3.1
				c0.8,0.9,1.8,1.3,2.9,1.3c1.1,0,2.1-0.4,2.9-1.3C246.9,928.1,247.3,927,247.3,925.8z"/>
			<path class="st4" d="M276.7,852c-0.8,4.6-1.9,8.4-3.4,11.6c-1.4,3.1-3.3,5.6-5.6,7.5c-2.3,1.9-4.9,3.2-7.9,4
				c-3,0.8-6.5,1.2-10.5,1.2h-4v-5.2c1.6-0.1,3-0.7,4-1.8c1.1-1.1,1.8-2.3,2.2-3.4c-2-0.3-3.6-1.3-4.8-2.9c-1.2-1.6-1.8-3.5-1.8-5.7
				c0-2.3,0.8-4.3,2.4-5.8c1.6-1.6,3.4-2.3,5.5-2.3c2.4,0,4.3,0.8,5.7,2.5c1.4,1.6,2.1,3.7,2.1,6.2c0,2.5-0.6,4.9-1.7,7.3
				c-1.1,2.3-2.3,4.2-3.5,5.5c4-0.8,7.3-2.9,9.8-6.3c2.5-3.4,3.9-7.5,4-12.2H276.7z M256,857.4c0-1-0.3-1.8-0.9-2.4
				c-0.6-0.7-1.3-1-2.2-1c-0.9,0-1.6,0.3-2.2,1c-0.6,0.6-0.8,1.5-0.8,2.4c0,1,0.3,1.8,0.8,2.4c0.6,0.7,1.3,1,2.2,1
				c0.9,0,1.6-0.3,2.2-1C255.7,859.2,256,858.4,256,857.4z"/>
			<path class="st4" d="M309.9,934.8h-7.5V897c0-2.4-0.8-4.4-2.3-5.9c-1.5-1.5-3.6-2.3-6.3-2.3c-2.7,0-4.8,0.9-6.5,2.8
				c-1.7,1.9-2.6,4.3-2.7,7.2h-7.3c0.2-5.2,1.8-9.3,4.8-12.4c2.9-3.1,6.8-4.6,11.7-4.6c4.5,0,8.3,1.2,11.4,3.7
				c3.1,2.5,4.7,6.2,4.7,11.2V934.8z"/>
			<path class="st4" d="M348.4,934.8H341l-22.6-27.4l4.5-5.6l18,21.8v-22.4c-0.2,0.1-1,0.1-2.3,0.1c-2.5,0-4.6-0.9-6.3-2.7
				c-1.7-1.8-2.6-4-2.6-6.8c0-2.8,0.9-5.1,2.7-7.1c1.8-1.9,3.9-2.9,6.3-2.9c2.8,0,5.2,1,7,2.9c1.9,2,2.8,4.5,2.8,7.6V934.8z
				 M342.7,891.6c0-1.2-0.4-2.2-1.2-3c-0.8-0.8-1.8-1.3-2.9-1.3c-1.1,0-2.1,0.4-2.9,1.3c-0.8,0.8-1.2,1.9-1.2,3c0,1.2,0.4,2.2,1.2,3
				c0.8,0.8,1.8,1.3,2.9,1.3c1.1,0,2.1-0.4,2.9-1.3C342.3,893.8,342.7,892.8,342.7,891.6z"/>
			<path class="st4" d="M397.3,934.8h-7.5v-34.1c0-5.5-1.4-9.5-4.2-12l-7.5,5.8l-7.4-5.8c-3.4,1.8-5.1,5.9-5.1,12.3
				c0,2.1,0.6,5.2,1.8,9.2c1.2,4.1,1.8,7.1,1.8,9.1c0,1.4-0.2,2.8-0.7,4.3c0.5-1.2,1.7-2.9,3.5-5.1c1.9-2.2,3.6-3.8,5.3-4.9
				c-2.2-0.2-3.9-1.1-5.1-2.7c-1.3-1.6-1.9-3.5-1.9-5.5c0-2.3,0.7-4.3,2.2-6c1.5-1.6,3.3-2.5,5.5-2.5c2.2,0,4,0.8,5.6,2.5
				c1.5,1.6,2.3,3.6,2.3,6c0,3.7-1.8,7.7-5.4,11.8c-4.8,5.5-7.7,9.1-8.5,10.8c-1.2,2.5-1.8,4.7-1.8,6.6h-7.5c0.2-3.3,0.2-6.6,0.2-10
				c0-3.5-0.5-6.7-1.5-9.6c-2.1-6.2-3.2-10.9-3.2-14c0-4.8,1.1-8.9,3.4-12.3c2.2-3.5,5.4-5.8,9.6-7l6.9,5.6l6.4-5.6
				c8.6,1.4,12.9,7.6,12.9,18.7V934.8z M381.6,905.4c0-1.1-0.3-2.1-1-2.8c-0.7-0.7-1.6-1.1-2.6-1.1c-1,0-1.9,0.4-2.6,1.1
				c-0.7,0.7-1,1.7-1,2.8c0,1.1,0.3,2.1,1,2.8c0.7,0.7,1.6,1.1,2.6,1.1c1,0,1.9-0.4,2.6-1.1C381.2,907.5,381.6,906.5,381.6,905.4z"
				/>
			<path class="st4" d="M437.9,934.8h-7.5V897c0-2.4-0.8-4.4-2.3-5.9c-1.5-1.5-3.6-2.3-6.3-2.3c-2.7,0-4.8,0.9-6.5,2.8
				c-1.7,1.9-2.6,4.3-2.7,7.2h-7.3c0.2-5.2,1.8-9.3,4.8-12.4c2.9-3.1,6.8-4.6,11.7-4.6c4.5,0,8.3,1.2,11.4,3.7
				c3.1,2.5,4.7,6.2,4.7,11.2V934.8z"/>
			<path class="st4" d="M488.9,925.9c0,2.8-0.9,5.1-2.7,7c-1.8,1.9-3.9,2.9-6.5,2.9c-2.3,0-4.4-0.8-6.2-2.5
				c-1.8-1.7-2.7-3.8-2.9-6.3c-2.8,1.1-5.6,3.7-8.5,7.8h-6.9v-10.1c0-2.4,0.4-4.1,1.2-4.9c-0.8,0-1.4,0-1.7-0.1
				c-4.4-1-6.6-3.9-6.6-8.7c0-2.5,0.8-4.6,2.5-6.4c1.7-1.7,3.6-2.6,6-2.6c2.3,0,4.3,0.9,5.9,2.6c1.6,1.7,2.4,3.9,2.4,6.4
				c0,1.2-0.4,2.8-1.1,4.9c-0.7,2-1.1,3.7-1.1,5v5.5c1.3-1.4,3.7-3.1,7.3-5.3c3.5-2.1,6-4,7.5-5.7c1.2-1.7,1.8-3.8,1.8-6.1v-11.9
				c0-2.8-1.3-5-3.9-6.6c-2.2-1.2-4.8-1.8-8-1.8c-3.4,0-6.2,0.7-8.6,2.1c-2.8,1.6-4.4,4-4.6,7.2h-7.3c1.2-10.8,8-16.3,20.3-16.3
				c5.3,0,9.7,1.1,13.2,3.4c4.2,2.8,6.3,6.9,6.3,12.5v12.3c0,3.3-0.9,5.7-2.7,7.3C487.3,919.3,488.9,922.1,488.9,925.9z
				 M460.1,910.9c0-1.1-0.3-2.1-1-2.8c-0.7-0.7-1.6-1.1-2.6-1.1c-1,0-1.9,0.4-2.6,1.1c-0.7,0.7-1,1.7-1,2.8c0,1.1,0.3,2.1,1,2.8
				c0.7,0.7,1.5,1.1,2.6,1.1c1,0,1.9-0.4,2.6-1.1C459.8,912.9,460.1,912,460.1,910.9z M483.6,926.1c0-1.1-0.4-2.1-1.1-2.9
				c-0.7-0.8-1.6-1.2-2.7-1.2c-1,0-1.9,0.4-2.7,1.2c-0.7,0.8-1.1,1.7-1.1,2.9c0,1.1,0.4,2.1,1.1,2.9c0.7,0.8,1.6,1.2,2.7,1.2
				c1,0,1.9-0.4,2.7-1.2C483.2,928.1,483.6,927.2,483.6,926.1z"/>
			<path class="st4" d="M486.8,965.3h-7.3v-9.9h-0.5c-2,0-3.7-0.8-5.1-2.3c-1.4-1.5-2.1-3.3-2.1-5.4c0-2.2,0.7-4,2.1-5.6
				c1.4-1.6,3.2-2.3,5.3-2.3c2,0,3.8,0.7,5.3,2.1c1.5,1.4,2.3,3.3,2.3,5.7V965.3z M482.6,947.4c0-1-0.3-1.8-1-2.5
				c-0.6-0.7-1.4-1-2.3-1c-0.9,0-1.7,0.3-2.4,1c-0.7,0.7-1,1.5-1,2.5c0,1,0.3,1.8,1,2.5c0.7,0.7,1.5,1.1,2.4,1.1
				c0.9,0,1.7-0.4,2.3-1.1C482.3,949.2,482.6,948.3,482.6,947.4z"/>
			<path class="st4" d="M534.1,934.8h-7.5v-34.4c0-3.5-1-6.4-3-8.4c-2-2.1-4.7-3.1-8-3.1c-4.8,0-8.5,2.2-11,6.5
				c3.8,0.8,6.5,2.7,8.1,5.8c-4.1,2.6-6.2,5.7-6.2,9.4v24.2h-7.5v-24.7c0-3.6,1.7-6.5,5-8.6c-2-1.5-4.5-2-7.4-1.6
				c0.2-5.4,2.1-9.8,5.8-13.3c3.4-3.2,7.7-4.8,12.9-4.8c5.8,0,10.4,1.7,13.7,5c3.3,3.3,5,7.9,5,13.6V934.8z"/>
			<path class="st4" d="M564.9,925.9c0,2.8-0.9,5.1-2.7,7s-4,2.9-6.5,2.9c-2.7,0-5-1-6.9-3c-1.9-2-2.8-4.5-2.8-7.5v-42.4h7.5v33.4
				c0.4-0.2,1.1-0.3,2.2-0.3c2.5,0,4.7,1,6.5,2.9C564,920.8,564.9,923.2,564.9,925.9z M559.8,925.9c0-1.2-0.4-2.3-1.2-3.1
				c-0.8-0.9-1.8-1.3-2.9-1.3c-1.1,0-2.1,0.4-2.9,1.3c-0.8,0.9-1.2,1.9-1.2,3.1c0,1.2,0.4,2.3,1.2,3.1c0.8,0.9,1.8,1.3,2.9,1.3
				c1.1,0,2.1-0.4,2.9-1.3C559.4,928.2,559.8,927.1,559.8,925.9z"/>
			<path class="st4" d="M610.2,925.9c0,2.8-0.9,5.1-2.7,7c-1.8,1.9-3.9,2.9-6.5,2.9c-2.3,0-4.4-0.8-6.2-2.5
				c-1.8-1.7-2.7-3.8-2.9-6.3c-2.8,1.1-5.6,3.7-8.5,7.8h-6.9v-10.1c0-2.4,0.4-4.1,1.2-4.9c-0.8,0-1.4,0-1.7-0.1
				c-4.4-1-6.6-3.9-6.6-8.7c0-2.5,0.8-4.6,2.5-6.4c1.7-1.7,3.6-2.6,6-2.6c2.3,0,4.3,0.9,5.9,2.6c1.6,1.7,2.4,3.9,2.4,6.4
				c0,1.2-0.4,2.8-1.1,4.9c-0.7,2-1.1,3.7-1.1,5v5.5c1.3-1.4,3.7-3.1,7.3-5.3c3.5-2.1,6-4,7.5-5.7c1.2-1.7,1.8-3.8,1.8-6.1v-11.9
				c0-2.8-1.3-5-3.9-6.6c-2.2-1.2-4.8-1.8-8-1.8c-3.4,0-6.2,0.7-8.6,2.1c-2.8,1.6-4.3,4-4.6,7.2h-7.3c1.2-10.8,8-16.3,20.3-16.3
				c5.3,0,9.7,1.1,13.2,3.4c4.2,2.8,6.3,6.9,6.3,12.5v12.3c0,3.3-0.9,5.7-2.7,7.3C608.7,919.3,610.2,922.1,610.2,925.9z
				 M581.5,910.9c0-1.1-0.3-2.1-1-2.8c-0.7-0.7-1.6-1.1-2.6-1.1c-1,0-1.9,0.4-2.6,1.1c-0.7,0.7-1,1.7-1,2.8c0,1.1,0.3,2.1,1,2.8
				c0.7,0.7,1.5,1.1,2.6,1.1c1,0,1.9-0.4,2.6-1.1C581.1,912.9,581.5,912,581.5,910.9z M604.9,926.1c0-1.1-0.4-2.1-1.1-2.9
				c-0.7-0.8-1.6-1.2-2.7-1.2c-1,0-1.9,0.4-2.7,1.2c-0.7,0.8-1.1,1.7-1.1,2.9c0,1.1,0.4,2.1,1.1,2.9c0.7,0.8,1.6,1.2,2.7,1.2
				c1,0,1.9-0.4,2.7-1.2C604.5,928.1,604.9,927.2,604.9,926.1z"/>
			<path class="st4" d="M608.4,876.3c-10-3.5-19.1-5.2-27.4-5.2c-3.8,0-7.6,0.3-11.5,0.8c1-11.6,6.8-17.4,17.6-17.4
				c6.2,0,11.1,2,14.7,6C605.5,864.5,607.7,869.8,608.4,876.3z M600.7,868.6c-0.5-2.2-1.9-4.2-4.4-6.1c-2.4-1.9-5.2-2.9-8.2-2.9
				c-2.9,0-5.4,0.6-7.5,1.9c-2.1,1.3-3.4,2.9-4,5c1.4-0.3,3.5-0.5,6.4-0.5C589,866,594.9,866.9,600.7,868.6z"/>
			<path class="st4" d="M660.5,910.2c0,3.5-0.8,5.9-2.5,7.2c3.1,1.9,4.7,4.8,4.7,8.6c0,2.8-0.9,5.1-2.7,7c-1.8,1.9-3.9,2.8-6.4,2.8
				c-2.3,0-4.4-0.8-6-2.4s-2.7-3.6-3-6c-2.6,1.4-4.4,2.4-5.6,3.1c-1.9,1.3-3.5,2.7-4.6,4.3h-7.6v-33.4c-0.8,0.2-1.5,0.3-2.1,0.3
				c-2.6,0-4.8-1-6.5-2.9c-1.8-2-2.7-4.3-2.7-7.1c0-2.7,0.9-5,2.7-6.9c1.8-1.9,3.9-2.9,6.5-2.9c2.7,0,5,1,6.8,3
				c1.8,2,2.7,4.5,2.7,7.5v33c1.3-1,4.2-2.6,8.7-4.5c4-1.8,6.8-3.6,8.3-5.5c1.1-1.3,1.7-3.4,1.7-6.2v-26.3h7.5V910.2z M628.8,891.7
				c0-1.2-0.4-2.3-1.2-3.1c-0.8-0.9-1.8-1.3-2.9-1.3c-1.1,0-2.1,0.4-2.9,1.3c-0.8,0.9-1.2,1.9-1.2,3.1c0,1.2,0.4,2.3,1.2,3.1
				c0.8,0.9,1.8,1.3,2.9,1.3c1.1,0,2.1-0.4,2.9-1.3C628.4,894,628.8,893,628.8,891.7z M657.6,926c0-1.2-0.4-2.2-1.2-3.1
				c-0.8-0.9-1.8-1.3-2.9-1.3c-1.1,0-2.1,0.4-2.9,1.3c-0.8,0.9-1.2,1.9-1.2,3.1c0,1.2,0.4,2.2,1.2,3.1c0.8,0.9,1.8,1.3,2.9,1.3
				c1.1,0,2.1-0.4,2.9-1.3C657.2,928.2,657.6,927.2,657.6,926z"/>
		</g>
	</g>
	<g>
		<rect x="52" y="54.2" class="st5" width="737" height="694.5"/>
		<g>
			<path class="st2" d="M295.3,748.7c-0.1-1.2-0.3-2.4-0.3-3.6c0-44.8,0-89.7,0-134.5c0-4.2-0.8-8.4-2.8-12.2
				c-2.6-4.7-6.7-7.8-11.7-10c-5.7-2.5-11.9-3.7-18.1-4.2c-5.2-0.4-10.5-0.4-15.7-0.6c-9-0.4-17.8-1.4-25.8-5.7
				c-9.2-4.8-14.5-12.2-16.2-22c-0.5-3-0.9-6.1-0.2-9.2c0.8-3.9,4.7-6.5,9.1-5.8c1.1,0.2,2.2,0.2,3.3,0.2c73.8,0,147.6,0,221.5,0
				c0.9,0,1.8,0,2.7-0.1c5.6-0.7,9.1,1.8,9.5,7.1c0.6,6.4-0.8,12.5-4.1,18.1c-4.8,8.2-12.5,12.8-21.9,15.2
				c-5.6,1.5-11.3,2.1-17.1,2.1c-7.7,0-15.3,0.3-22.8,1.7c-4.8,0.9-9.4,2.3-13.6,4.7c-6.6,3.7-10.2,9.3-11.1,16.4
				c-0.4,2.9-0.5,5.8-0.5,8.7c0,43.3,0,86.7,0,130c0,1.2-0.2,2.4-0.3,3.6C337.8,748.7,316.6,748.7,295.3,748.7z"/>
			<path class="st2" d="M517.3,196.1c-7.9,14.1-17.4,26.5-28.2,38c-11.1,11.9-23.5,22.5-37.2,31.7c-16.4,11-34,19.6-53.1,25.6
				c-13.2,4.2-26.7,7-40.6,8.6c-11.3,1.3-22.7,1.9-34.1,1.5c-22.9-0.8-45.3-4.5-66.9-12.1c-24.5-8.7-46.4-21.4-65.9-37.9
				c-17.2-14.6-31.7-31.2-43.3-50c-0.4-0.7-0.8-1.6-1.3-2.2c-1.9-2.1-1.2-4,0.1-6.1c7.1-11.5,15.4-22.2,24.8-32.2
				c12.9-13.7,27.3-25.8,43.6-35.9c22.5-13.9,46.9-23.4,73.4-28.2c11.5-2.1,23.1-3.5,34.8-3.5c3.2,0,6.3-0.4,9.5-0.3
				c30.2,0.4,59.3,5.7,86.8,17.7c19.2,8.4,36.7,19.2,52.5,32.6c14.6,12.3,27.2,26.1,37.9,41.6C512.6,188.5,514.9,192.3,517.3,196.1z
				 M192.9,196.1c30.1,39.2,85.9,72.7,153.8,67c31.6-2.7,60.1-13.1,85.7-30.8c14.7-10.2,27.7-22,38.3-35.9
				c-11.4-16.6-45.9-44.3-59.7-48c7.6,17.7,8.8,35.7,3,53.9c-5.8,18.2-17.3,32.7-34.1,43.3c-28.9,18.1-66,18.3-95.3,0.6
				c-14.7-8.9-25.5-21.1-32.1-36.3c-8.9-20.4-8.6-41-0.1-61.6C228.9,160.3,208.8,175.8,192.9,196.1z M331,139.6
				c-22.6-0.5-41.8,17.5-42.3,38.7c-0.5,21,17.1,40.8,42.3,40.9c23.7,0.1,42.7-17.3,42.6-40C373.5,155,352.2,139,331,139.6z"/>
			<path class="st2" d="M637.5,145.5c0-18.1,0-35.8,0-53.7c19.7,0,39,0,58.7,0c0,17.8,0,35.5,0,53.5c6.7,0.4,13,0.1,19.3,0.2
				c6.3,0,12.5,0,18.8,0c6.4,0,12.7,0,19,0c0.8,2.1,1,49.8,0.3,54.8c-1.1,0.1-2.2,0.2-3.4,0.2c-16.7,0-33.4,0-50.1,0
				c-1.2,0-2.3,0-3.8,0c0,18.2,0,36,0,53.8c-2.5,0.6-54.4,0.8-58.7,0.2c-0.2-3.4-0.1-7-0.1-10.5c0-3.7,0-7.3,0-11
				c0-3.6,0-7.1,0-10.7c0-3.7,0-7.3,0-11c0-3.5,0-7.1,0-11c-19.2,0-38.1,0-57.3,0c0-18.5,0-36.6,0-55
				C599.3,145.5,618.2,145.5,637.5,145.5z"/>
			<path class="st2" d="M166.2,324.6c-5.3,0-9.3-3.7-9.3-8.6c0-5.1,4.1-9,9.3-9c5.2,0,9.3,3.8,9.3,8.7
				C175.5,320.9,171.6,324.6,166.2,324.6z"/>
			<path class="st2" d="M400.3,463.9c-0.1,5-4.4,8.5-9.9,8.4c-4.4-0.1-9.1-4.1-8.8-9.2c0.3-4.8,4.4-8.5,9.6-8.4
				C395.9,454.8,400.7,458.6,400.3,463.9z"/>
			<path class="st2" d="M265.1,472.3c-5.2,0-9.2-3.8-9.2-8.7c0-5,4.2-8.8,9.5-8.8c5.1,0,9.2,3.9,9.3,8.8
				C274.7,468.5,270.5,472.3,265.1,472.3z"/>
			<path class="st2" d="M251.7,430.8c0-5.1,4.1-8.8,9.5-8.7c5.2,0.1,9.1,3.9,9.1,8.8c0,4.9-4,8.7-9.2,8.8
				C255.8,439.7,251.6,435.8,251.7,430.8z"/>
			<path class="st2" d="M490,324.6c-5.4,0-9.4-3.8-9.3-8.9c0-4.8,4.2-8.6,9.4-8.7c5.1-0.1,9.3,3.9,9.3,8.7
				C499.4,320.8,495.4,324.6,490,324.6z"/>
			<path class="st2" d="M327.2,472.3c-5.5,0-9.5-3.7-9.5-8.8c0-4.8,4.2-8.7,9.3-8.7c5.3,0,9.5,3.9,9.5,8.9
				C336.5,468.4,332.3,472.3,327.2,472.3z"/>
			<path class="st2" d="M232,472.3c-5.2,0-9.2-3.9-9.1-8.8c0.1-5,4-8.7,9.3-8.7c5.5,0,9.4,3.9,9.5,8.9
				C241.7,468.6,237.4,472.3,232,472.3z"/>
			<path class="st2" d="M432.4,422c5.3,0,9.7,3.9,9.5,8.8c-0.2,5.3-4.1,8.6-9.3,8.8c-5.2,0.2-9.4-3.9-9.4-8.9
				C423.2,425.9,427.2,422.1,432.4,422z"/>
			<path class="st2" d="M227.1,519.8c0.4-5.4,3.9-8.6,9.3-8.7c6.1-0.1,9.5,4.5,9.4,8.9c-0.1,5-4.4,8.8-9.6,8.7
				C231,528.5,227,524.6,227.1,519.8z"/>
			<path class="st2" d="M222.8,324.6c-5.4,0-9.4-3.7-9.4-8.8c0-4.8,4.1-8.8,9.2-8.8c5,0.1,9.5,3.2,9.5,8.9
				C232,321.7,227.3,324.5,222.8,324.6z"/>
			<path class="st2" d="M327.1,422c5.1,0,9.4,3.9,9.4,8.7c0,4.7-3.7,8.8-9.4,9c-5.2,0.1-9.4-4.1-9.3-9
				C317.8,425.8,321.9,422,327.1,422z"/>
			<path class="st2" d="M404.6,430.7c0.1,4.8-4.1,8.8-9.1,9c-5.1,0.1-9.6-3.9-9.7-8.7c-0.1-4.9,4.2-8.9,9.4-8.9
				C400.4,422,404.6,425.9,404.6,430.7z"/>
			<path class="st2" d="M421.8,500.6c-5.1,0-9.3-4-9.3-8.7c0-5,4.2-8.9,9.5-8.9c4.9,0,9.3,4.2,9.3,8.8
				C431.3,496.7,427.1,500.6,421.8,500.6z"/>
			<path class="st2" d="M243.7,491.9c0,4.8-4.1,8.6-9.3,8.7c-4.6,0-9.5-3.1-9.4-8.9c0.1-5.3,3.7-8.5,9.6-8.7
				C239.6,482.8,243.7,487,243.7,491.9z"/>
			<path class="st2" d="M258.1,492c-0.1-4.4,3.1-8.9,9.3-9c5.2-0.1,9.7,4.2,9.5,8.9c-0.3,5.9-5,8.7-9.4,8.7
				C262.2,500.6,258.1,496.8,258.1,492z"/>
			<path class="st2" d="M258.1,519.9c-0.2-4.2,3.3-9,9.5-8.8c6.1,0.2,9.2,3.9,9.2,8.8c0,5.8-5,8.9-9.5,8.8
				C262.1,528.6,258,524.7,258.1,519.9z"/>
			<path class="st2" d="M327,528.6c-5.2,0-9.3-3.8-9.3-8.7c-0.1-4.9,4.3-9.2,9.4-9c6.1,0.3,9.1,4.2,9.4,8.7
				C336.7,524.6,332.2,528.7,327,528.6z"/>
			<path class="st2" d="M419.8,528.6c-5.2,0-9.5-4.1-9.4-8.9c0.1-4.7,4.4-8.7,9.4-8.8c5.1,0,9.4,4.1,9.4,9
				C429,524.9,424.9,528.6,419.8,528.6z"/>
			<path class="st2" d="M326.9,500.6c-5.2-0.1-9.2-3.9-9.2-8.8c0-4.9,4.3-9.1,9.5-8.9c6,0.3,9.1,4.3,9.3,8.8
				C336.6,496.6,332.2,500.6,326.9,500.6z"/>
			<path class="st2" d="M241.7,367.4c-5.4,0-9.3-3.7-9.2-8.6c0-5,4.2-8.8,9.5-8.7c5.2,0,9.2,3.8,9.2,8.7
				C251.3,363.7,247.2,367.4,241.7,367.4z"/>
			<path class="st2" d="M254.5,406.7c-5.3,0-9.4-3.6-9.4-8.5c0.1-5.2,4.4-9,9.5-8.8c5.4,0.1,9.4,3.8,9.3,8.9
				C263.9,403.2,260,406.7,254.5,406.7z"/>
			<path class="st2" d="M366.2,367.4c-4.4,0.4-9.1-3.2-9.1-8.7c0-5,4.2-8.7,9.6-8.6c5.2,0.1,9.2,3.9,9.1,8.8
				C375.8,363.9,371.8,367.4,366.2,367.4z"/>
			<path class="st2" d="M414.3,367.4c-5.3,0-9.4-3.7-9.3-8.6c0.1-5.7,5.3-9,9.6-8.8c5.2,0.2,9.1,3.8,9.2,8.8
				C423.9,362.6,420.5,367.9,414.3,367.4z"/>
			<path class="st2" d="M414.7,463.5c0-4.8,4.1-8.7,9.2-8.8c5.3-0.1,9.6,4.2,9.4,8.9c-0.2,5-3.9,8.7-9.2,8.7
				C418.7,472.3,414.7,468.6,414.7,463.5z"/>
			<path class="st2" d="M433.6,324.5c-4.7,0.2-9.4-3.6-9.2-8.9c0.1-4.2,3.5-8.6,9.3-8.6c5.6,0,9.3,4.4,9.3,9
				C442.9,320,438.8,325,433.6,324.5z"/>
			<path class="st2" d="M232.9,431c0,5.1-4.2,8.9-9.5,8.7c-4.7-0.2-9.2-3.6-9-9.2c0.1-3.9,3.5-8.5,9.5-8.4
				C229.3,422.1,233.5,426.7,232.9,431z"/>
			<path class="st2" d="M462.4,367.4c-5.2,0.5-9.5-3.8-9.4-8.7c0.1-5,4-8.6,9.3-8.7c4.2-0.1,9.1,2.8,9.5,8.6
				C472.1,363.5,467.8,367.4,462.4,367.4z"/>
			<path class="st2" d="M307.5,431c0,4.9-4.1,8.7-9.3,8.7c-5.4,0-9-3.8-9.2-9c-0.2-4.1,3.5-8.6,9.3-8.6
				C303.5,422.1,308,426.1,307.5,431z"/>
			<path class="st2" d="M360.1,406.7c-4.5,0.4-9.4-3.1-9.4-8.7c0-4.9,4.1-8.6,9.3-8.6c5.2,0,9.4,3.7,9.4,8.5
				C369.5,403.6,364.7,407.1,360.1,406.7z"/>
			<path class="st2" d="M289.6,367.4c-4.7,0.4-9.2-3.4-9.3-8.6c-0.1-4.9,4.2-8.8,9.5-8.7c5.1,0,9.2,3.9,9.2,8.7
				C299.1,364,294.6,367.9,289.6,367.4z"/>
			<path class="st2" d="M367.1,463.6c0,5.3-3.8,8.7-9.4,8.7c-5.2,0-8.9-3.8-9.1-8.8c-0.1-4.2,3.6-8.6,9.2-8.8
				C362.1,454.6,367.8,458.3,367.1,463.6z"/>
			<path class="st2" d="M327,406.7c-5.4,0-9.2-3.6-9.3-8.6c0-5,4.1-8.8,9.5-8.8c5.3,0,9.4,4,9.3,8.9
				C336.4,403.2,332.4,406.7,327,406.7z"/>
			<path class="st2" d="M401.6,406.7c-5.1,0.4-9.3-3.5-9.4-8.5c-0.1-5,4.1-8.9,9.4-8.8c5.5,0,9.4,3.7,9.4,8.9
				C411,403,406.6,407.2,401.6,406.7z"/>
			<path class="st2" d="M298.4,472.3c-5.4,0-9.3-3.5-9.4-8.5c-0.1-5.2,3.8-9,9.1-9.1c5.3-0.1,9.3,3.6,9.3,8.5
				C307.5,468.5,303.8,472.2,298.4,472.3z"/>
			<path class="st2" d="M123.5,275.8c-5.4,0-9.1-3.5-9.1-8.6c0-5.1,3.9-8.8,9.4-8.7c5.3,0.1,9.2,3.8,9.2,8.7
				C132.9,273,127.9,276.4,123.5,275.8z"/>
			<path class="st2" d="M307.5,491.9c0,5.1-3.8,8.6-9.2,8.7c-5.7,0.1-9.5-4.4-9.3-8.9c0.2-4.9,4-8.9,9.2-8.7
				C304.5,483.1,308,487.6,307.5,491.9z"/>
			<path class="st2" d="M327.1,367.4c-5.5,0-9.5-3.6-9.4-8.7c0-4.8,4.2-8.6,9.4-8.6c5.3,0,9.6,3.9,9.4,8.9
				C336.3,364,332,367.8,327.1,367.4z"/>
			<path class="st2" d="M367.1,520c0.5,4.6-3.9,8.7-9.1,8.7c-5.4,0-9.2-3.7-9.3-8.9c-0.1-4.3,3.7-8.9,9.5-8.7
				C364.3,511.3,367.6,515.7,367.1,520z"/>
			<path class="st2" d="M398.1,519.9c0,5-3.8,8.7-9.1,8.8c-5.3,0.1-9.5-3.9-9.4-8.8c0.1-4.5,3.3-8.7,9.4-8.8
				C394.2,510.9,398.1,515,398.1,519.9z"/>
			<path class="st2" d="M367.1,491.7c0.5,5.1-4.2,8.9-9.2,8.9c-5.3-0.1-9-3.7-9.2-8.7c-0.2-4.5,3.6-8.9,9.4-8.9
				C363.3,482.8,367.1,486.7,367.1,491.7z"/>
			<path class="st2" d="M398.1,491.9c0,5-3.9,8.6-9.2,8.7c-4.6,0.1-9.6-3.3-9.3-9.2c0.3-4.8,4-8.4,9.2-8.5
				C393.9,482.8,398.1,486.9,398.1,491.9z"/>
			<path class="st2" d="M367.1,431c0.4,4.4-3.5,8.6-9.2,8.7c-5.4,0.1-9.3-3.9-9.2-9c0.1-4.9,4-8.7,9.3-8.7
				C363.1,422,367.6,425.9,367.1,431z"/>
			<path class="st2" d="M307.5,520c0,5-3.9,8.6-9.3,8.6c-5,0-9.5-3.9-9.2-9c0.3-4.9,4.2-8.9,9.3-8.6
				C304.4,511.3,307.9,515.4,307.5,520z"/>
			<path class="st2" d="M452.4,398.1c0.6,4.4-4.2,8.9-9.4,8.6c-5.3-0.3-9.1-3.7-9-8.7c0-5.1,3.9-8.6,9.4-8.7
				C447.4,389.2,452.9,392.8,452.4,398.1z"/>
			<path class="st2" d="M296,406.7c-4.7,0.5-9.5-3.9-9.2-8.9c0.3-4.9,4.1-8.5,9.4-8.5c5.4,0.1,9.2,3.8,9.3,9
				C305.6,402.3,301.5,407.2,296,406.7z"/>
			<path class="st2" d="M222.2,398.2c0.6,4.2-3.9,8.6-9.1,8.7c-5.6,0-9.6-4.6-9.4-8.8c0.2-5.1,4-8.7,9.5-8.6
				C218.5,389.4,222.2,393,222.2,398.2z"/>
			<path class="st2" d="M193.8,367.4c-4.8,0.6-9.2-4.1-9.2-8.5c0-5.5,5-8.9,9.4-8.8c5.3,0.1,8.9,3.7,9.2,8.7
				C203.4,362.9,199.2,368,193.8,367.4z"/>
			<path class="st2" d="M532.6,275.8c-5.5,0-9-3.4-9.3-8.5c-0.2-4.4,3.6-8.9,9.3-8.9c5.4,0,9.2,4.4,9.3,8.6
				C542,271.8,537.4,276.4,532.6,275.8z"/>
			<path class="st6" d="M192.9,196.1c15.9-20.3,36-35.8,59.5-47.8c-8.5,20.6-8.7,41.2,0.1,61.6c6.6,15.2,17.4,27.4,32.1,36.3
				c29.2,17.7,66.3,17.6,95.3-0.6c16.8-10.5,28.2-25,34.1-43.3c5.8-18.2,4.6-36.1-3-53.9c13.8,3.6,48.3,31.3,59.7,48
				c-10.6,13.9-23.6,25.7-38.3,35.9c-25.5,17.7-54,28.2-85.7,30.8C278.7,268.8,223,235.3,192.9,196.1z"/>
			<path class="st6" d="M331,139.6c21.2-0.7,42.5,15.3,42.6,39.6c0.1,22.7-18.9,40-42.6,40c-25.2-0.1-42.8-19.9-42.3-40.9
				C289.2,157.1,308.4,139.1,331,139.6z"/>
		</g>
	</g>
	<g id="stecon_50_">
		<path id="red_50_" class="st7" d="M52,54.2c42.5,0,85,0,127.6,0c0,22.6,0,45.1,0,67.7c-42.5,0-85,0-127.5,0c0-0.2,0-0.5,0-0.7
			c0-22.1,0-44.2,0-66.3C52,54.6,52,54.4,52,54.2z M55,88c0.2,0.1,0.4,0.2,0.5,0.3c3.6,1.8,7.1,3.7,10.7,5.5
			c16.4,8.4,32.7,16.8,49.1,25.2c0.4,0.2,0.7,0.2,1.1,0c13.8-7.1,27.6-14.2,41.4-21.3c6.1-3.2,12.3-6.3,18.4-9.5
			c0.1-0.1,0.3-0.2,0.5-0.3c-0.2-0.1-0.3-0.2-0.5-0.3c-3.8-1.9-7.6-3.9-11.4-5.8c-16.2-8.3-32.4-16.7-48.5-25
			c-0.3-0.2-0.5-0.2-0.9,0c-7,3.6-14.1,7.3-21.1,10.9c-12.6,6.5-25.2,12.9-37.7,19.4C56,87.5,55.5,87.7,55,88z"/>
		<g id="white_50_">
			<path class="st2" d="M55,88c0.6-0.3,1.1-0.6,1.6-0.8c12.6-6.5,25.2-12.9,37.7-19.4c7-3.6,14.1-7.2,21.1-10.9
				c0.3-0.2,0.6-0.1,0.9,0c16.2,8.3,32.4,16.7,48.5,25c3.8,1.9,7.6,3.9,11.4,5.8c0.1,0.1,0.3,0.1,0.5,0.3c-0.2,0.1-0.3,0.2-0.5,0.3
				c-6.1,3.2-12.3,6.3-18.4,9.5c-13.8,7.1-27.6,14.2-41.4,21.3c-0.4,0.2-0.7,0.2-1.1,0c-16.4-8.4-32.7-16.8-49.1-25.2
				c-3.6-1.8-7.1-3.7-10.7-5.5C55.3,88.2,55.2,88.1,55,88z M58.9,88c0.2,0.1,0.3,0.2,0.4,0.2c1,0.5,1.9,1,2.9,1.5
				c17.7,9.1,35.5,18.2,53.2,27.3c0.3,0.1,0.5,0.2,0.8,0c12.9-6.6,25.7-13.2,38.6-19.8c5.8-3,11.6-6,17.5-9c0.1-0.1,0.3-0.2,0.5-0.3
				c-0.2-0.1-0.4-0.2-0.6-0.3c-15.9-8.2-31.9-16.4-47.8-24.5c-2.7-1.4-5.5-2.8-8.2-4.2c-0.2-0.1-0.4-0.1-0.7,0
				c-0.3,0.2-0.7,0.4-1.1,0.6c-18.3,9.4-36.6,18.8-54.9,28.1C59.3,87.8,59.1,87.9,58.9,88z"/>
			<path class="st2" d="M146.6,80.1c1.4,0,2.7,0,4.1,0c0,5.2,0,10.3,0,15.4c-1.4,0-2.8,0-4.2,0c-0.9-2.6-1.8-5.3-2.7-7.9
				c0,0-0.1,0-0.1,0c0,2.6,0,5.2,0,7.9c-1.4,0-2.7,0-4,0c0,0,0,0,0,0c0,0,0,0,0,0c0-0.1,0-0.2,0-0.3c0-4.9,0-9.9,0-14.8
				c0,0,0-0.1,0-0.2c0.1,0,0.3,0,0.4,0c1.2,0,2.3,0,3.5,0c0.4,0,0.4,0,0.5,0.4c0.8,2.5,1.6,5,2.4,7.5c0,0.1,0.1,0.2,0.2,0.4
				C146.6,85.7,146.6,83,146.6,80.1z"/>
			<path class="st2" d="M138,87.9c0,1.5,0,3,0,4.5c0,0.8-0.3,1.4-0.8,1.9c-0.7,0.7-1.6,1.2-2.6,1.3c-1.5,0.3-3.1,0.3-4.6-0.1
				c-0.9-0.2-1.6-0.6-2.3-1.3c-0.5-0.5-0.8-1.1-0.8-1.9c0-3,0-6.1,0-9.1c0-0.7,0.2-1.3,0.7-1.8c0.6-0.7,1.4-1.2,2.3-1.4
				c1.7-0.4,3.5-0.4,5.2,0.1c0.7,0.2,1.4,0.6,2,1.2c0.6,0.5,0.9,1.2,0.8,2C138,85,138,86.5,138,87.9z M133.3,88c0-1.5,0-2.9,0-4.4
				c0-0.7-0.1-0.9-0.8-0.9c-0.1,0-0.2,0-0.2,0c-0.5,0.1-0.6,0.2-0.6,0.7c0,3,0,6,0,9c0,0.5,0.1,0.7,0.6,0.7c0.2,0,0.3,0,0.5,0
				c0.5-0.1,0.6-0.2,0.6-0.7C133.3,91,133.3,89.5,133.3,88z"/>
			<path class="st2" d="M125.9,89.6c0,0.2,0,0.3,0,0.5c0,0.8,0,1.6,0,2.4c0,0.8-0.3,1.5-0.9,2c-0.7,0.7-1.5,1.1-2.5,1.3
				c-1.5,0.3-3,0.3-4.5-0.1c-0.8-0.2-1.5-0.6-2.2-1.2c-0.6-0.6-0.9-1.2-0.9-2.1c0-3,0-5.9,0-8.9c0-0.9,0.3-1.6,0.9-2.1
				c0.7-0.7,1.6-1.1,2.5-1.2c1.4-0.2,2.9-0.2,4.3,0.1c0.9,0.2,1.6,0.6,2.3,1.2c0.6,0.6,0.9,1.2,0.9,2.1c0,0.8,0,1.7,0,2.5
				c0,0.2,0,0.3,0,0.5c-1.6,0-3.1,0-4.6,0c0-0.2,0-0.3,0-0.5c0-0.9,0-1.7,0-2.6c0-0.5-0.1-0.6-0.6-0.7c-0.1,0-0.2,0-0.3,0
				c-0.7,0.1-0.7,0.3-0.7,0.8c0,2.9,0,5.9,0,8.8c0,0.1,0,0.2,0,0.3c0,0.2,0.1,0.4,0.3,0.4c0.1,0,0.3,0.1,0.4,0.1
				c0.6,0.1,0.8-0.2,0.8-0.8c0-0.8,0-1.5,0-2.3c0-0.2,0-0.3,0-0.5C121.5,89.5,125.2,89.5,125.9,89.6z"/>
			<path class="st2" d="M104.7,95.6c0-5.1,0-10.2,0-15.3c0.4-0.1,8.7-0.1,9.1,0c0,0.8,0,1.6,0,2.5c-0.1,0-0.3,0-0.4,0
				c-1.1,0-2.2,0-3.3,0c-0.1,0-0.3,0-0.5,0c0,1.4,0,2.7,0,4.1c1,0,2.1,0,3.1,0c0,0.8,0,1.5,0,2.2c-0.4,0.1-0.7,0.1-1,0.1
				c-0.3,0-0.7,0-1,0c-0.3,0-0.7,0-1,0c-0.1,0.3-0.1,2.8,0,3.7c0.1,0,0.3,0,0.5,0c1.1,0,2.2,0,3.3,0c0.2,0,0.3,0,0.5,0
				c0,0.9,0,1.8,0,2.6C113.4,95.6,105.2,95.7,104.7,95.6z"/>
			<path class="st2" d="M100.3,95.6c-1.6,0-3.1,0-4.7,0c0-4.3,0-8.5,0-12.8c-1,0-2,0-3,0c-0.1-0.4-0.1-2.1,0-2.6
				c0.3-0.1,10.4-0.1,10.8,0c0.1,0.3,0.1,2.1,0,2.6c-1,0-2,0-3,0C100.3,87.1,100.3,91.3,100.3,95.6z"/>
			<path class="st2" d="M91.3,85.6c-1.6,0-3.1,0-4.6,0c0-0.2,0-0.3,0-0.5c0-0.6,0-1.2,0-1.8c0-0.4-0.1-0.6-0.5-0.6
				c-0.1,0-0.2,0-0.4,0c-0.3,0-0.5,0.2-0.5,0.5c0,0.6,0,1.1,0,1.7c0,0.4,0.2,0.6,0.5,0.8c0.4,0.2,0.7,0.4,1.1,0.7
				c1,0.6,2,1.1,2.9,1.7c0.1,0.1,0.3,0.2,0.4,0.3c0.7,0.5,1.1,1.2,1.1,2.1c0,0.7,0,1.3,0,2c0,0.7-0.2,1.3-0.7,1.7
				c-0.7,0.7-1.5,1.2-2.4,1.4c-1.5,0.4-3.1,0.4-4.7,0c-0.8-0.2-1.6-0.6-2.2-1.2c-0.6-0.5-0.9-1.2-0.9-2.1c0-0.8,0-1.5,0-2.3
				c0.3-0.1,3.9-0.1,4.5,0c0,0.1,0,0.3,0,0.4c0,0.7,0,1.3,0,2c0,0.4,0.1,0.6,0.5,0.6c0.2,0,0.5,0,0.7-0.1c0.2,0,0.3-0.2,0.3-0.4
				c0-0.6,0-1.2,0-1.8c0-0.3-0.2-0.6-0.4-0.7c-0.4-0.3-0.8-0.5-1.2-0.8c-1-0.6-2-1.2-2.9-1.8c-0.3-0.2-0.6-0.4-0.9-0.7
				c-0.4-0.4-0.6-0.9-0.6-1.5c0-0.7,0-1.3,0-2c0-0.8,0.3-1.4,0.8-1.9c0.7-0.7,1.6-1.2,2.6-1.4c1.4-0.3,2.8-0.3,4.2,0.1
				c0.9,0.2,1.7,0.7,2.3,1.3c0.5,0.5,0.8,1.1,0.8,1.9C91.3,84.1,91.3,84.8,91.3,85.6z"/>
		</g>
		<g id="blue_50_">
			<path class="st8" d="M58.9,88c0.3-0.1,0.5-0.2,0.7-0.3c18.3-9.4,36.6-18.8,54.9-28.1c0.4-0.2,0.7-0.4,1.1-0.6
				c0.2-0.1,0.4-0.1,0.7,0c2.7,1.4,5.4,2.8,8.2,4.2c15.9,8.2,31.9,16.4,47.8,24.5c0.2,0.1,0.3,0.2,0.6,0.3c-0.2,0.1-0.3,0.2-0.5,0.3
				c-5.8,3-11.6,6-17.5,9c-12.9,6.6-25.7,13.2-38.6,19.8c-0.3,0.1-0.5,0.1-0.8,0c-17.7-9.1-35.5-18.2-53.2-27.3
				c-1-0.5-1.9-1-2.9-1.5C59.2,88.2,59,88.1,58.9,88z M146.6,80.1c0,2.8,0,5.5,0,8.3c-0.1-0.1-0.1-0.2-0.2-0.4
				c-0.8-2.5-1.6-5-2.4-7.5c-0.1-0.4-0.1-0.4-0.5-0.4c-1.2,0-2.3,0-3.5,0c-0.1,0-0.3,0-0.4,0c0,0.1,0,0.1,0,0.2c0,4.9,0,9.9,0,14.8
				c0,0.1,0,0.2,0,0.3c0,0,0,0,0,0c0,0,0,0,0,0c1.3,0,2.7,0,4,0c0-2.7,0-5.3,0-7.9c0,0,0.1,0,0.1,0c0.9,2.6,1.8,5.3,2.7,7.9
				c1.4,0,2.8,0,4.2,0c0-5.1,0-10.2,0-15.4C149.3,80.1,148,80.1,146.6,80.1z M138,87.9c0-1.5,0-3,0-4.5c0-0.8-0.3-1.5-0.8-2
				c-0.6-0.6-1.2-1-2-1.2c-1.7-0.5-3.5-0.5-5.2-0.1c-0.9,0.2-1.7,0.7-2.3,1.4c-0.4,0.5-0.7,1.1-0.7,1.8c0,3,0,6.1,0,9.1
				c0,0.8,0.3,1.4,0.8,1.9c0.6,0.7,1.4,1.1,2.3,1.3c1.5,0.3,3.1,0.3,4.6,0.1c1-0.2,1.8-0.6,2.6-1.3c0.5-0.5,0.8-1.2,0.8-1.9
				C138,91,138,89.5,138,87.9z M125.9,89.6c-0.6-0.1-4.3-0.1-4.7,0c0,0.1,0,0.3,0,0.5c0,0.8,0,1.5,0,2.3c0,0.7-0.2,0.9-0.8,0.8
				c-0.1,0-0.3,0-0.4-0.1c-0.2-0.1-0.3-0.2-0.3-0.4c0-0.1,0-0.2,0-0.3c0-2.9,0-5.9,0-8.8c0-0.5,0-0.7,0.7-0.8c0.1,0,0.2,0,0.3,0
				c0.5,0.1,0.6,0.2,0.6,0.7c0,0.9,0,1.7,0,2.6c0,0.2,0,0.3,0,0.5c1.6,0,3.1,0,4.6,0c0-0.2,0-0.4,0-0.5c0-0.8,0-1.7,0-2.5
				c0-0.9-0.3-1.5-0.9-2.1c-0.7-0.6-1.4-1-2.3-1.2c-1.4-0.3-2.9-0.3-4.3-0.1c-0.9,0.2-1.8,0.6-2.5,1.2c-0.6,0.6-0.9,1.3-0.9,2.1
				c0,3,0,5.9,0,8.9c0,0.9,0.3,1.6,0.9,2.1c0.6,0.6,1.4,1,2.2,1.2c1.5,0.3,3,0.3,4.5,0.1c0.9-0.2,1.8-0.6,2.5-1.3
				c0.6-0.5,0.9-1.2,0.9-2c0-0.8,0-1.6,0-2.4C125.9,89.9,125.9,89.7,125.9,89.6z M91.3,85.6c0-0.7,0-1.4,0-2.1
				c0-0.8-0.3-1.4-0.8-1.9c-0.7-0.7-1.4-1.1-2.3-1.3c-1.4-0.3-2.8-0.3-4.2-0.1c-1,0.2-1.9,0.6-2.6,1.4c-0.5,0.5-0.8,1.1-0.8,1.9
				c0,0.7,0,1.3,0,2c0,0.6,0.2,1.1,0.6,1.5c0.3,0.2,0.6,0.5,0.9,0.7c1,0.6,2,1.2,2.9,1.8c0.4,0.2,0.8,0.5,1.2,0.8
				c0.2,0.2,0.4,0.4,0.4,0.7c0,0.6,0,1.2,0,1.8c0,0.2-0.1,0.4-0.3,0.4c-0.2,0-0.5,0.1-0.7,0.1c-0.4,0-0.5-0.2-0.5-0.6
				c0-0.7,0-1.3,0-2c0-0.1,0-0.3,0-0.4c-0.6-0.1-4.2-0.1-4.5,0c0,0.7,0,1.5,0,2.3c0,0.9,0.3,1.5,0.9,2.1c0.6,0.6,1.4,1,2.2,1.2
				c1.6,0.4,3.1,0.3,4.7,0c0.9-0.2,1.7-0.7,2.4-1.4c0.4-0.5,0.7-1.1,0.7-1.7c0-0.7,0-1.3,0-2c0-0.9-0.4-1.6-1.1-2.1
				c-0.1-0.1-0.3-0.2-0.4-0.3c-1-0.6-2-1.1-2.9-1.7c-0.4-0.2-0.7-0.4-1.1-0.7c-0.3-0.2-0.5-0.4-0.5-0.8c0-0.6,0-1.1,0-1.7
				c0-0.3,0.2-0.5,0.5-0.5c0.1,0,0.2,0,0.4,0c0.4,0,0.5,0.2,0.5,0.6c0,0.6,0,1.2,0,1.8c0,0.1,0,0.3,0,0.5
				C88.3,85.6,89.7,85.6,91.3,85.6z M104.7,95.6c0.5,0.1,8.8,0.1,9.1,0c0-0.9,0-1.7,0-2.6c-0.2,0-0.3,0-0.5,0c-1.1,0-2.2,0-3.3,0
				c-0.2,0-0.3,0-0.5,0c-0.1-0.8,0-3.3,0-3.7c0.3,0,0.7,0,1,0c0.3,0,0.7,0,1,0c0.3,0,0.7,0.1,1-0.1c0-0.7,0-1.5,0-2.2
				c-1.1,0-2.1,0-3.1,0c0-1.4,0-2.7,0-4.1c0.2,0,0.3,0,0.5,0c1.1,0,2.2,0,3.3,0c0.1,0,0.3,0,0.4,0c0-0.9,0-1.7,0-2.5
				c-0.4-0.1-8.7-0.1-9.1,0C104.7,85.3,104.7,90.4,104.7,95.6z M100.3,95.6c0-4.3,0-8.5,0-12.8c1,0,2,0,3,0c0.1-0.5,0.1-2.2,0-2.6
				c-0.4-0.1-10.5-0.1-10.8,0c-0.1,0.4-0.1,2.2,0,2.6c1,0,2,0,3,0c0,4.3,0,8.5,0,12.8C97.1,95.6,98.6,95.6,100.3,95.6z"/>
			<path class="st8" d="M133.3,88c0,1.5,0,3,0,4.5c0,0.5-0.1,0.6-0.6,0.7c-0.2,0-0.3,0-0.5,0c-0.5-0.1-0.6-0.2-0.6-0.7c0-3,0-6,0-9
				c0-0.5,0.1-0.6,0.6-0.7c0.1,0,0.2,0,0.2,0c0.7,0,0.8,0.1,0.8,0.9C133.3,85.1,133.3,86.5,133.3,88z"/>
		</g>
	</g>
</g>
</svg>
