<?xml version="1.0" encoding="utf-8"?>
<!-- Generator: Adobe Illustrator 22.0.0, SVG Export Plug-In . SVG Version: 6.00 Build 0)  -->
<svg version="1.1" id="Layer_1" xmlns="http://www.w3.org/2000/svg" xmlns:xlink="http://www.w3.org/1999/xlink" x="0px" y="0px"
	 viewBox="0 0 841.9 1190.6" style="enable-background:new 0 0 841.9 1190.6;" xml:space="preserve">
<style type="text/css">
	.st0{fill:none;}
	.st1{fill:#010101;}
	.st2{fill:#FFFFFF;}
	.st3{fill:#077147;}
	.st4{fill:#FFFFFF;stroke:#FFFFFF;stroke-miterlimit:10;}
	.st5{fill-rule:evenodd;clip-rule:evenodd;fill:#077147;}
	.st6{fill-rule:evenodd;clip-rule:evenodd;fill:#FFFFFF;}
	.st7{fill:#EB2627;}
	.st8{fill:#2A3B8F;}
	.st9{fill:#08713D;}
	.st10{fill-rule:evenodd;clip-rule:evenodd;fill:#08713D;}
	.st11{fill:#FFFFFF;stroke:#FFFFFF;stroke-width:2;stroke-miterlimit:10;}
	.st12{fill:#FFFFFF;stroke:#FFFFFF;stroke-width:3;stroke-miterlimit:10;}
	.st13{display:none;fill:#FFFFFF;stroke:#000000;stroke-miterlimit:10;}
	.st14{display:none;}
	.st15{display:inline;fill:#EB2627;}
	.st16{display:inline;}
	.st17{fill:#FFFFFF;stroke:#FFFFFF;stroke-width:5;stroke-miterlimit:10;}
	.st18{fill:#FFFFFF;stroke:#FFFFFF;stroke-width:5;}
	.st19{fill:#FFFFFF;stroke:#FFFFFF;stroke-width:6;stroke-miterlimit:10;}
</style>
<g>
	<g>
		<rect x="0" y="0" class="st0" width="841.9" height="1190.6"/>
		<rect x="28.3" y="28.3" class="st1" width="785.2" height="1133.9"/>
		<rect x="34" y="34" class="st2" width="773.9" height="1122.5"/>
		<rect x="52.5" y="792.6" class="st3" width="737" height="348.7"/>
	</g>
	<g>
		<g>
			<path class="st4" d="M134.4,1051.3v-53.7H160v9.1h-18.6v11.9h17.3v9h-17.3v14.6h19.3v9H134.4z"/>
			<path class="st4" d="M166.5,1051.3v-53.7h10.4l6.3,36.6l6.2-36.6h10.5v53.7h-6.5V1009l-6.9,42.3h-6.7L173,1009v42.3H166.5z"/>
			<path class="st4" d="M206.8,1051.3v-53.7h25.6v9.1h-18.6v11.9h17.3v9h-17.3v14.6h19.3v9H206.8z"/>
			<path class="st4" d="M239,1051.3v-53.7h14.7c3.7,0,6.4,0.5,8,1.4c1.7,1,3,2.7,4,5.1c1,2.5,1.5,5.3,1.5,8.5c0,4-0.8,7.4-2.3,10
				c-1.5,2.6-3.8,4.3-6.8,5c1.5,1.4,2.8,2.9,3.7,4.5c1,1.6,2.3,4.5,4,8.7l4.2,10.5h-8.3l-5-11.7c-1.8-4.2-3-6.8-3.7-7.9
				c-0.7-1.1-1.4-1.8-2.1-2.2c-0.7-0.4-1.9-0.6-3.5-0.6H246v22.4H239z M246,1020.3h5.2c3.3,0,5.4-0.2,6.3-0.7c0.8-0.4,1.5-1.2,2-2.3
				s0.7-2.4,0.7-4c0-1.8-0.3-3.3-0.9-4.4c-0.6-1.1-1.5-1.8-2.6-2.1c-0.6-0.1-2.3-0.2-5.1-0.2H246V1020.3z"/>
			<path class="st4" d="M289.9,1031.5v-9h15v21.4c-1.5,2.2-3.6,4.1-6.4,5.8c-2.8,1.7-5.6,2.5-8.4,2.5c-3.6,0-6.8-1.2-9.5-3.5
				s-4.7-5.7-6.1-10.1c-1.4-4.4-2-9.1-2-14.3c0-5.6,0.8-10.6,2.3-14.9c1.5-4.3,3.7-7.7,6.6-10c2.2-1.8,5-2.7,8.3-2.7
				c4.3,0,7.6,1.4,10.1,4.2c2.4,2.8,4,6.7,4.7,11.6l-6.9,2c-0.5-2.6-1.4-4.7-2.7-6.2c-1.3-1.5-3-2.3-5-2.3c-3,0-5.5,1.5-7.3,4.5
				c-1.8,3-2.7,7.5-2.7,13.4c0,6.4,0.9,11.2,2.7,14.3c1.8,3.2,4.2,4.8,7.2,4.8c1.5,0,2.9-0.4,4.4-1.3c1.5-0.9,2.7-2,3.8-3.2v-6.8
				H289.9z"/>
			<path class="st4" d="M311.4,1051.3v-53.7H337v9.1h-18.6v11.9h17.3v9h-17.3v14.6h19.3v9H311.4z"/>
			<path class="st4" d="M343.6,1051.3v-53.7h6.8l14.1,35.9v-35.9h6.5v53.7h-7l-13.9-35v35H343.6z"/>
			<path class="st4" d="M400.5,1031.5l6.8,3.3c-1,5.9-2.8,10.2-5.2,13.1s-5.5,4.3-9.2,4.3c-4.6,0-8.4-2.4-11.3-7.3
				c-3-4.9-4.4-11.5-4.4-20c0-8.9,1.5-15.9,4.5-20.8c3-4.9,6.9-7.4,11.7-7.4c4.2,0,7.7,1.9,10.3,5.8c1.6,2.3,2.7,5.6,3.5,9.9
				l-6.9,2.6c-0.4-2.8-1.3-5-2.6-6.6s-2.9-2.4-4.7-2.4c-2.6,0-4.6,1.4-6.2,4.3c-1.6,2.9-2.4,7.5-2.4,13.9c0,6.8,0.8,11.6,2.4,14.5
				c1.6,2.9,3.6,4.3,6.1,4.3c1.9,0,3.4-0.9,4.8-2.7C399,1038.3,399.9,1035.5,400.5,1031.5z"/>
			<path class="st4" d="M422.3,1051.3v-22.6l-12.7-31.1h8.2l8.1,21.2l8-21.2h8l-12.7,31.2v22.5H422.3z"/>
			<path class="st4" d="M471.6,1051.3V998h7v44.2h17.3v9H471.6z"/>
			<path class="st4" d="M500.7,1051.3v-53.7h7v53.7H500.7z"/>
			<path class="st4" d="M514.3,1051.3v-53.7H538v9.1h-16.7v12.7h14.4v9.1h-14.4v22.8H514.3z"/>
			<path class="st4" d="M543.8,1051.3v-53.7h25.6v9.1h-18.6v11.9h17.3v9h-17.3v14.6H570v9H543.8z"/>
			<path class="st4" d="M576,997.6h13.8c2.7,0,4.8,0.2,6.1,0.5c1.3,0.4,2.5,1.1,3.6,2.2s1.9,2.6,2.7,4.5c0.7,1.9,1.1,4,1.1,6.3
				c0,2.5-0.4,4.8-1.3,6.9s-2.1,3.7-3.5,4.7c2.1,1,3.7,2.6,4.9,4.9c1.1,2.3,1.7,5,1.7,8.1c0,2.4-0.4,4.8-1.1,7.1
				c-0.7,2.3-1.7,4.2-3,5.5s-2.8,2.2-4.7,2.5c-1.2,0.2-4,0.3-8.4,0.4H576V997.6z M583,1006.5v12.4h4.6c2.7,0,4.4-0.1,5.1-0.2
				c1.2-0.2,2.1-0.9,2.8-1.9c0.7-1.1,1-2.5,1-4.2c0-1.7-0.3-3-0.9-4c-0.6-1-1.5-1.7-2.6-1.9c-0.7-0.1-2.7-0.2-6-0.2H583z
				 M583,1027.9v14.4h6.5c2.5,0,4.1-0.1,4.8-0.3c1-0.3,1.9-1,2.5-2.1c0.7-1.1,1-2.7,1-4.6c0-1.6-0.3-3-0.8-4.1s-1.2-1.9-2.2-2.5
				s-3-0.8-6.2-0.8H583z"/>
			<path class="st4" d="M610.8,997.6h7v29.1c0,4.6,0.1,7.6,0.3,9c0.3,2.2,1,4,2.1,5.3c1.1,1.3,2.7,2,4.6,2c2,0,3.5-0.6,4.5-1.9
				c1-1.3,1.6-2.8,1.8-4.6s0.3-4.9,0.3-9.1v-29.7h7v28.2c0,6.4-0.2,11-0.6,13.7s-1.1,4.9-2.1,6.7c-1,1.8-2.4,3.3-4.1,4.4
				s-3.9,1.6-6.6,1.6c-3.3,0-5.8-0.6-7.5-1.8c-1.7-1.2-3.1-2.7-4-4.6c-1-1.9-1.6-3.9-2-6c-0.5-3.1-0.7-7.6-0.7-13.6V997.6z"/>
			<path class="st4" d="M644.3,1024.8c0-5.5,0.5-10.1,1.6-13.8c0.8-2.7,1.9-5.2,3.2-7.4c1.4-2.2,2.8-3.8,4.5-4.8
				c2.2-1.4,4.6-2.1,7.4-2.1c5.1,0,9.2,2.5,12.2,7.4s4.6,11.7,4.6,20.5c0,8.7-1.5,15.4-4.5,20.3s-7.1,7.3-12.2,7.3
				c-5.1,0-9.2-2.4-12.3-7.3C645.8,1040,644.3,1033.3,644.3,1024.8z M651.4,1024.4c0,6.1,0.9,10.7,2.7,13.8c1.8,3.1,4.1,4.7,6.9,4.7
				c2.8,0,5.1-1.6,6.8-4.7c1.8-3.1,2.7-7.8,2.7-14c0-6.2-0.9-10.7-2.6-13.8c-1.7-3-4-4.5-6.9-4.5s-5.2,1.5-7,4.6
				C652.3,1013.6,651.4,1018.2,651.4,1024.4z"/>
			<path class="st4" d="M692.3,1051.3v-22.6l-12.7-31.1h8.2l8.1,21.2l8-21.2h8l-12.7,31.2v22.5H692.3z"/>
		</g>
		<g>
			<path class="st4" d="M208.6,934.1h-7.5v-28.9c0-2.3-0.4-3.5-1.3-3.5c-0.6,0-1.6,1.1-2.8,3.3l-15.7,29.1h-7v-33.4
				c-0.8,0.2-1.5,0.3-2.1,0.3c-2.6,0-4.8-1-6.5-2.9c-1.8-2-2.7-4.3-2.7-7.1c0-2.7,0.9-5,2.7-6.9c1.8-1.9,3.9-2.9,6.5-2.9
				c2.7,0,5,1,6.8,3c1.8,2,2.7,4.5,2.7,7.5v19.4c0,2.3-0.5,6.8-1.4,13.8c0.8-3.7,2-7.1,3.6-10.3l6.6-12.3c1.5-2.6,2.7-4.1,3.9-4.4
				c-1.6-2.2-2.4-4.4-2.4-6.8c0-2.8,0.9-5.1,2.7-7c1.8-1.9,3.9-2.9,6.5-2.9c2.6,0,4.8,1,6.5,2.9c1.8,1.9,2.7,4.2,2.7,7
				c0,2.9-1.1,5.4-3.4,7.5c1,2.2,1.6,4.5,1.6,7V934.1z M176.3,891.1c0-1.2-0.4-2.3-1.2-3.1c-0.8-0.9-1.8-1.3-2.9-1.3
				c-1.1,0-2.1,0.4-2.9,1.3c-0.8,0.9-1.2,1.9-1.2,3.1c0,1.2,0.4,2.3,1.2,3.1c0.8,0.9,1.8,1.3,2.9,1.3c1.1,0,2.1-0.4,2.9-1.3
				C175.9,893.3,176.3,892.3,176.3,891.1z M205.3,891.1c0-1.2-0.4-2.3-1.2-3.1c-0.8-0.9-1.8-1.3-2.9-1.3c-1.1,0-2.1,0.4-2.9,1.3
				c-0.8,0.9-1.2,1.9-1.2,3.1c0,1.2,0.4,2.3,1.2,3.1c0.8,0.9,1.8,1.3,2.9,1.3c1.1,0,2.1-0.4,2.9-1.3
				C204.9,893.3,205.3,892.3,205.3,891.1z"/>
			<path class="st4" d="M208.6,873.8h-7.5v-18.3h7.5V873.8z"/>
			<path class="st4" d="M254.4,924.6c0,3-0.9,5.5-2.8,7.5c-1.9,1.9-4.1,2.9-6.9,2.9c-2.6,0-4.8-1-6.5-2.9c-1.8-1.9-2.7-4.2-2.7-6.9
				c0-2.8,0.9-5.1,2.7-7.1c1.8-1.9,3.9-2.9,6.5-2.9c0.9,0,1.6,0,2.2,0.1v-18.9c0-5.5-3.7-8.2-11.1-8.2c-3.1,0-5.7,1-7.8,3
				c-2.1,2-3.2,4.7-3.2,8h-7.3c0.2-5.7,2-10.2,5.3-13.3c3.3-3.2,7.6-4.7,13-4.7c5.3,0,9.6,1.1,12.8,3.4c3.9,2.7,5.8,6.8,5.8,12.4
				V924.6z M248.8,925.1c0-1.2-0.4-2.3-1.2-3.1c-0.8-0.9-1.8-1.3-2.9-1.3c-1.1,0-2.1,0.4-2.9,1.3c-0.8,0.9-1.2,1.9-1.2,3.1
				c0,1.2,0.4,2.3,1.2,3.1c0.8,0.9,1.8,1.3,2.9,1.3c1.1,0,2.1-0.4,2.9-1.3C248.4,927.4,248.8,926.4,248.8,925.1z"/>
			<path class="st4" d="M292.8,934.1h-7.4l-22.6-27.4l4.5-5.6l18,21.8v-22.4c-0.2,0.1-1,0.1-2.3,0.1c-2.5,0-4.6-0.9-6.3-2.7
				c-1.7-1.8-2.6-4-2.6-6.8c0-2.8,0.9-5.1,2.7-7.1c1.8-1.9,3.9-2.9,6.3-2.9c2.8,0,5.2,1,7,2.9c1.9,2,2.8,4.5,2.8,7.6V934.1z
				 M287.1,891c0-1.2-0.4-2.2-1.2-3c-0.8-0.8-1.8-1.3-2.9-1.3c-1.1,0-2.1,0.4-2.9,1.3c-0.8,0.8-1.2,1.9-1.2,3c0,1.2,0.4,2.2,1.2,3
				c0.8,0.8,1.8,1.3,2.9,1.3c1.1,0,2.1-0.4,2.9-1.3C286.7,893.1,287.1,892.1,287.1,891z"/>
			<path class="st4" d="M342.9,921.9c0,4.2-1.2,7.5-3.7,9.8c-2.5,2.3-5.7,3.4-9.7,3.4c-4,0-7.3-1.1-9.7-3.4
				c-2.5-2.3-3.7-5.6-3.7-9.8v-8.4c0-2.5,1.1-5.9,3.2-10c2.1-4.2,3.2-7.5,3.2-9.9c0-2-0.6-3.6-1.9-4.9c-1.3-1.3-2.8-1.9-4.5-1.9
				c-2.6,0-4.3,0.5-5.2,1.6c2.4,0.1,4.4,0.9,5.9,2.5c1.5,1.6,2.2,3.6,2.2,6c0,2.6-0.8,4.8-2.5,6.6c-1.7,1.8-3.7,2.7-6,2.7
				c-2.7,0-4.9-1.1-6.6-3.2c-1.7-2.1-2.5-4.7-2.5-7.7c0-4,1.5-7.3,4.4-9.9c2.9-2.6,6.3-3.9,10.2-3.9c4,0,7.3,1,9.8,3.1
				c2.5,2.1,3.8,5.1,3.8,9.1c0,2.6-1,6.2-3,10.9c-2,4.7-3,8-3,9.9v9.5c0,1.5,0.6,2.6,1.9,3.4c1.2,0.8,2.6,1.2,4,1.2
				c1.5,0,2.9-0.4,4.1-1.2s1.8-1.9,1.8-3.3v-21.4c0-3.2-1.2-5.2-3.5-6c0.3-1.6,0.4-3.1,0.1-4.5c4.1-1.6,6.2-5.8,6.2-12.4h7.5
				c-0.6,6.7-2.7,11.6-6.4,14.7c2.4,2.1,3.6,4.8,3.6,8.2V921.9z M314.2,896.9c0-1.1-0.4-2.1-1.1-2.9c-0.7-0.8-1.6-1.2-2.7-1.2
				c-1,0-1.9,0.4-2.7,1.2s-1.1,1.7-1.1,2.9c0,1.1,0.4,2.1,1.1,2.9c0.7,0.8,1.6,1.2,2.7,1.2c1,0,1.9-0.4,2.7-1.2
				C313.8,899,314.2,898.1,314.2,896.9z"/>
			<path class="st4" d="M342.9,957.8c0,2.9-1.1,5-3.4,6.5c-1.9,1.3-4.5,2-7.6,2c-2.7,0-5.1-0.6-7.1-1.8c-2.3-1.4-3.4-3.3-3.4-5.7
				v-3.9h-0.7c-2,0-3.7-0.8-5.1-2.3c-1.4-1.5-2.1-3.3-2.1-5.4c0-2.2,0.7-4,2.1-5.6c1.4-1.6,3.2-2.3,5.3-2.3c2,0,3.8,0.7,5.3,2.1
				c1.5,1.4,2.3,3.3,2.3,5.8v11.8c0,1.3,1.2,2,3.6,2c2.6,0,3.9-0.7,3.9-2v-18.4h7V957.8z M324.2,946.7c0-1-0.3-1.8-1-2.5
				c-0.6-0.7-1.4-1-2.3-1c-0.9,0-1.7,0.3-2.4,1c-0.7,0.7-1,1.5-1,2.5c0,1,0.3,1.8,1,2.5c0.7,0.7,1.5,1.1,2.4,1.1
				c0.9,0,1.7-0.4,2.3-1.1C323.9,948.5,324.2,947.7,324.2,946.7z"/>
			<path class="st4" d="M393.1,921.9c0,4.2-1.2,7.5-3.7,9.8c-2.5,2.3-5.7,3.4-9.7,3.4c-4,0-7.3-1.1-9.7-3.4
				c-2.5-2.3-3.7-5.6-3.7-9.8v-8.4c0-2.5,1.1-5.9,3.2-10c2.1-4.2,3.2-7.5,3.2-9.9c0-2-0.6-3.6-1.9-4.9c-1.3-1.3-2.8-1.9-4.5-1.9
				c-2.6,0-4.3,0.5-5.2,1.6c2.4,0.1,4.4,0.9,5.9,2.5c1.5,1.6,2.2,3.6,2.2,6c0,2.6-0.8,4.8-2.5,6.6c-1.7,1.8-3.7,2.7-6,2.7
				c-2.7,0-4.9-1.1-6.6-3.2c-1.7-2.1-2.5-4.7-2.5-7.7c0-4,1.5-7.3,4.4-9.9c2.9-2.6,6.3-3.9,10.2-3.9c4,0,7.3,1,9.8,3.1
				c2.5,2.1,3.8,5.1,3.8,9.1c0,2.6-1,6.2-3,10.9c-2,4.7-3,8-3,9.9v9.5c0,1.5,0.6,2.6,1.9,3.4c1.2,0.8,2.6,1.2,4,1.2
				c1.5,0,2.9-0.4,4.1-1.2s1.8-1.9,1.8-3.3v-21.4c0-3.2-1.2-5.2-3.5-6c0.3-1.6,0.4-3.1,0.1-4.5c4.1-1.6,6.2-5.8,6.2-12.4h7.5
				c-0.6,6.7-2.7,11.6-6.4,14.7c2.4,2.1,3.6,4.8,3.6,8.2V921.9z M364.3,896.9c0-1.1-0.4-2.1-1.1-2.9c-0.7-0.8-1.6-1.2-2.7-1.2
				c-1,0-1.9,0.4-2.7,1.2s-1.1,1.7-1.1,2.9c0,1.1,0.4,2.1,1.1,2.9c0.7,0.8,1.6,1.2,2.7,1.2c1,0,1.9-0.4,2.7-1.2
				C364,899,364.3,898.1,364.3,896.9z"/>
			<path class="st4" d="M393.3,875.6c-10-3.5-19.1-5.2-27.4-5.2c-3.8,0-7.6,0.3-11.5,0.8c1-11.6,6.8-17.4,17.6-17.4
				c5.7,0,10.3,1.7,13.8,5.1v-9h7.3v23.9C393.2,874.4,393.3,875,393.3,875.6z M385.6,867.9c-0.5-2.2-1.9-4.2-4.4-6.1
				c-2.4-1.9-5.2-2.9-8.2-2.9c-2.9,0-5.4,0.6-7.5,1.9c-2.1,1.3-3.4,2.9-4,5c1.4-0.3,3.5-0.5,6.4-0.5
				C373.9,865.3,379.8,866.2,385.6,867.9z"/>
			<path class="st4" d="M451.3,934.1h-8.5l-11.4-40.3l-11.7,40.3h-8.1v-33.4c-0.8,0.2-1.5,0.3-2.1,0.3c-2.6,0-4.8-1-6.5-2.9
				c-1.8-2-2.7-4.3-2.7-7.1c0-2.7,0.9-5,2.7-6.9c1.8-1.9,3.9-2.9,6.5-2.9c2.7,0,5,1,6.8,3c1.8,2,2.7,4.5,2.7,7.5v19.4
				c0,2.3-0.5,6.8-1.4,13.8c1.8-7.9,2.8-12.1,3-12.7l8.5-27.7h4.6l8.5,27.7c0.2,0.5,1.2,4.8,3,12.7c-1-6.9-1.5-11.5-1.5-13.8v-28.9
				h7.5V934.1z M413.8,891.1c0-1.2-0.4-2.3-1.2-3.1c-0.8-0.9-1.8-1.3-2.9-1.3c-1.1,0-2.1,0.4-2.9,1.3c-0.8,0.9-1.2,1.9-1.2,3.1
				c0,1.2,0.4,2.3,1.2,3.1c0.8,0.9,1.8,1.3,2.9,1.3c1.1,0,2.1-0.4,2.9-1.3C413.4,893.3,413.8,892.3,413.8,891.1z"/>
			<path class="st4" d="M502.3,925.3c0,2.8-0.9,5.1-2.7,7c-1.8,1.9-3.9,2.9-6.5,2.9c-2.3,0-4.4-0.8-6.2-2.5
				c-1.8-1.7-2.7-3.8-2.9-6.3c-2.8,1.1-5.6,3.7-8.5,7.8h-6.9V924c0-2.4,0.4-4.1,1.2-4.9c-0.8,0-1.4,0-1.7-0.1
				c-4.4-1-6.6-3.9-6.6-8.7c0-2.5,0.8-4.6,2.5-6.4c1.7-1.7,3.6-2.6,6-2.6c2.3,0,4.3,0.9,5.9,2.6c1.6,1.7,2.4,3.9,2.4,6.4
				c0,1.2-0.4,2.8-1.1,4.9c-0.7,2-1.1,3.7-1.1,5v5.5c1.3-1.4,3.7-3.1,7.3-5.3c3.5-2.1,6-4,7.5-5.7c1.2-1.7,1.8-3.8,1.8-6.1v-11.9
				c0-2.8-1.3-5-3.9-6.6c-2.2-1.2-4.8-1.8-8-1.8c-3.4,0-6.2,0.7-8.6,2.1c-2.8,1.6-4.4,4-4.6,7.2h-7.3c1.2-10.8,8-16.3,20.3-16.3
				c5.3,0,9.7,1.1,13.2,3.4c4.2,2.8,6.3,6.9,6.3,12.5v12.3c0,3.3-0.9,5.7-2.7,7.3C500.8,918.6,502.3,921.5,502.3,925.3z
				 M473.6,910.2c0-1.1-0.3-2.1-1-2.8c-0.7-0.7-1.6-1.1-2.6-1.1c-1,0-1.9,0.4-2.6,1.1c-0.7,0.7-1,1.7-1,2.8c0,1.1,0.3,2.1,1,2.8
				c0.7,0.7,1.5,1.1,2.6,1.1c1,0,1.9-0.4,2.6-1.1C473.2,912.3,473.6,911.3,473.6,910.2z M497,925.4c0-1.1-0.4-2.1-1.1-2.9
				c-0.7-0.8-1.6-1.2-2.7-1.2c-1,0-1.9,0.4-2.7,1.2c-0.7,0.8-1.1,1.7-1.1,2.9c0,1.1,0.4,2.1,1.1,2.9c0.7,0.8,1.6,1.2,2.7,1.2
				c1,0,1.9-0.4,2.7-1.2C496.7,927.5,497,926.5,497,925.4z"/>
			<path class="st4" d="M500.3,964.7H493v-9.9h-0.5c-2,0-3.7-0.8-5.1-2.3c-1.4-1.5-2.1-3.3-2.1-5.4c0-2.2,0.7-4,2.1-5.6
				c1.4-1.6,3.2-2.3,5.3-2.3c2,0,3.8,0.7,5.3,2.1c1.5,1.4,2.3,3.3,2.3,5.7V964.7z M496,946.7c0-1-0.3-1.8-1-2.5
				c-0.6-0.7-1.4-1-2.3-1c-0.9,0-1.7,0.3-2.4,1c-0.7,0.7-1,1.5-1,2.5c0,1,0.3,1.8,1,2.5c0.7,0.7,1.5,1.1,2.4,1.1
				c0.9,0,1.7-0.4,2.3-1.1C495.7,948.5,496,947.7,496,946.7z"/>
			<path class="st4" d="M547.5,934.1H540v-34.4c0-3.5-1-6.4-3-8.4c-2-2.1-4.7-3.1-8-3.1c-4.8,0-8.5,2.2-11,6.5
				c3.8,0.8,6.5,2.7,8.1,5.8c-4.1,2.6-6.2,5.7-6.2,9.4v24.2h-7.5v-24.7c0-3.6,1.7-6.5,5-8.6c-2-1.5-4.5-2-7.4-1.6
				c0.2-5.4,2.1-9.8,5.8-13.3c3.4-3.2,7.7-4.8,12.9-4.8c5.8,0,10.4,1.7,13.7,5c3.3,3.3,5,7.9,5,13.6V934.1z"/>
			<path class="st4" d="M578.3,925.3c0,2.8-0.9,5.1-2.7,7s-4,2.9-6.5,2.9c-2.7,0-5-1-6.9-3c-1.9-2-2.8-4.5-2.8-7.5v-42.4h7.5v33.4
				c0.4-0.2,1.1-0.3,2.2-0.3c2.5,0,4.7,1,6.5,2.9C577.4,920.2,578.3,922.5,578.3,925.3z M573.3,925.3c0-1.2-0.4-2.3-1.2-3.1
				c-0.8-0.9-1.8-1.3-2.9-1.3c-1.1,0-2.1,0.4-2.9,1.3c-0.8,0.9-1.2,1.9-1.2,3.1c0,1.2,0.4,2.3,1.2,3.1c0.8,0.9,1.8,1.3,2.9,1.3
				c1.1,0,2.1-0.4,2.9-1.3C572.9,927.5,573.3,926.5,573.3,925.3z"/>
			<path class="st4" d="M623.7,925.3c0,2.8-0.9,5.1-2.7,7c-1.8,1.9-3.9,2.9-6.5,2.9c-2.3,0-4.4-0.8-6.2-2.5
				c-1.8-1.7-2.7-3.8-2.9-6.3c-2.8,1.1-5.6,3.7-8.5,7.8h-6.9V924c0-2.4,0.4-4.1,1.2-4.9c-0.8,0-1.4,0-1.7-0.1
				c-4.4-1-6.6-3.9-6.6-8.7c0-2.5,0.8-4.6,2.5-6.4c1.7-1.7,3.6-2.6,6-2.6c2.3,0,4.3,0.9,5.9,2.6c1.6,1.7,2.4,3.9,2.4,6.4
				c0,1.2-0.4,2.8-1.1,4.9c-0.7,2-1.1,3.7-1.1,5v5.5c1.3-1.4,3.7-3.1,7.3-5.3c3.5-2.1,6-4,7.5-5.7c1.2-1.7,1.8-3.8,1.8-6.1v-11.9
				c0-2.8-1.3-5-3.9-6.6c-2.2-1.2-4.8-1.8-8-1.8c-3.4,0-6.2,0.7-8.6,2.1c-2.8,1.6-4.3,4-4.6,7.2h-7.3c1.2-10.8,8-16.3,20.3-16.3
				c5.3,0,9.7,1.1,13.2,3.4c4.2,2.8,6.3,6.9,6.3,12.5v12.3c0,3.3-0.9,5.7-2.7,7.3C622.1,918.6,623.7,921.5,623.7,925.3z
				 M594.9,910.2c0-1.1-0.3-2.1-1-2.8c-0.7-0.7-1.6-1.1-2.6-1.1c-1,0-1.9,0.4-2.6,1.1c-0.7,0.7-1,1.7-1,2.8c0,1.1,0.3,2.1,1,2.8
				c0.7,0.7,1.5,1.1,2.6,1.1c1,0,1.9-0.4,2.6-1.1C594.6,912.3,594.9,911.3,594.9,910.2z M618.3,925.4c0-1.1-0.4-2.1-1.1-2.9
				c-0.7-0.8-1.6-1.2-2.7-1.2c-1,0-1.9,0.4-2.7,1.2c-0.7,0.8-1.1,1.7-1.1,2.9c0,1.1,0.4,2.1,1.1,2.9c0.7,0.8,1.6,1.2,2.7,1.2
				c1,0,1.9-0.4,2.7-1.2C618,927.5,618.3,926.5,618.3,925.4z"/>
			<path class="st4" d="M621.8,875.6c-10-3.5-19.1-5.2-27.4-5.2c-3.8,0-7.6,0.3-11.5,0.8c1-11.6,6.8-17.4,17.6-17.4
				c6.2,0,11.1,2,14.7,6C618.9,863.9,621.1,869.1,621.8,875.6z M614.1,867.9c-0.5-2.2-1.9-4.2-4.4-6.1c-2.4-1.9-5.2-2.9-8.2-2.9
				c-2.9,0-5.4,0.6-7.5,1.9c-2.1,1.3-3.4,2.9-4,5c1.4-0.3,3.5-0.5,6.4-0.5C602.4,865.3,608.3,866.2,614.1,867.9z"/>
			<path class="st4" d="M673.9,909.5c0,3.5-0.8,5.9-2.5,7.2c3.1,1.9,4.7,4.8,4.7,8.6c0,2.8-0.9,5.1-2.7,7c-1.8,1.9-3.9,2.8-6.4,2.8
				c-2.3,0-4.4-0.8-6-2.4s-2.7-3.6-3-6c-2.6,1.4-4.4,2.4-5.6,3.1c-1.9,1.3-3.5,2.7-4.6,4.3h-7.6v-33.4c-0.8,0.2-1.5,0.3-2.1,0.3
				c-2.6,0-4.8-1-6.5-2.9c-1.8-2-2.7-4.3-2.7-7.1c0-2.7,0.9-5,2.7-6.9c1.8-1.9,3.9-2.9,6.5-2.9c2.7,0,5,1,6.8,3
				c1.8,2,2.7,4.5,2.7,7.5v33c1.3-1,4.2-2.6,8.7-4.5c4-1.8,6.8-3.6,8.3-5.5c1.1-1.3,1.7-3.4,1.7-6.2v-26.3h7.5V909.5z M642.3,891.1
				c0-1.2-0.4-2.3-1.2-3.1c-0.8-0.9-1.8-1.3-2.9-1.3c-1.1,0-2.1,0.4-2.9,1.3c-0.8,0.9-1.2,1.9-1.2,3.1c0,1.2,0.4,2.3,1.2,3.1
				c0.8,0.9,1.8,1.3,2.9,1.3c1.1,0,2.1-0.4,2.9-1.3C641.9,893.3,642.3,892.3,642.3,891.1z M671,925.3c0-1.2-0.4-2.2-1.2-3.1
				c-0.8-0.9-1.8-1.3-2.9-1.3c-1.1,0-2.1,0.4-2.9,1.3c-0.8,0.9-1.2,1.9-1.2,3.1c0,1.2,0.4,2.2,1.2,3.1c0.8,0.9,1.8,1.3,2.9,1.3
				c1.1,0,2.1-0.4,2.9-1.3C670.6,927.6,671,926.5,671,925.3z"/>
		</g>
	</g>
	<g>
		<rect x="52.4" y="53.5" class="st5" width="737" height="694.5"/>
		<g>
			<path class="st2" d="M632,220.7c-1.2,6.1-2.3,13.6-4.2,21c-1.3,4.8-3.7,9.2-7.8,12.7c-5.5,4.7-10.4,10.1-15.7,14.9
				c-2,1.8-4.4,3.3-6.9,4.3c-2.3,0.9-2.9,2.1-2.8,4.2c0.5,16.6,0.9,33.1,1.2,49.7c0,2.5-0.9,5-1.2,7.5c-0.2,1.6,0,2.7,2.3,3.2
				c2,0.5,3.9,2.2,5.6,3.6c4,3.3,8.1,6.5,11.8,10c3,2.8,6.2,5.7,8.4,9.1c2.6,4,4.7,8.4,6.1,12.9c3.1,9.9,3.6,20.1,2.3,30.3
				c-1.4,11.5-2.9,23.2-8.1,33.8c-4.3,8.7-9.2,17-14.2,25.4c-2.6,4.4-5.5,8.7-8.9,12.6c-4.5,5.1-10.1,9.5-14.3,14.8
				c-5.6,7-13.2,11.7-20.3,16.9c-8.9,6.6-18.7,11.4-29.4,14.3c-7.6,2-15.4,4-23.3,4.6c-6,0.5-12.3-0.9-18.3-2.1
				c-10.1-2.1-19-6.6-26.7-13.5c-3.6-3.2-7.4-6.2-10.9-9.4c-2.1-1.9-3.8-4.1-5.6-6.3c-1.8-2.2-3.6-2-6-1c-2,0.9-4.2,1.6-6.4,1.9
				c-5.7,0.7-11.5,1.1-17.2,1.6c-7.3,0.7-14.5,1.9-21.8,1.9c-14.7,0-29.3-1.7-43.7-4.9c-1-0.2-2-0.7-3-1.1c-5.1-1.9-8,1.4-11.1,4.4
				c-4.4,4.1-8.8,8.3-13.7,11.8c-4.7,3.4-9.7,7.2-15.2,8.6c-13,3.3-26.4,3.6-39.6-0.3c-3.3-1-6.7-1.4-9.9-2.4
				c-13-4.3-25.6-9.2-36.2-17.9c-8.8-7.2-17.9-14.2-26.1-22.1c-5.7-5.5-10.8-11.8-14.9-18.4c-6.3-10.1-12.2-20.5-16.9-31.3
				c-2.9-6.6-3.9-14.1-4.5-21.3c-0.6-7.8-0.5-15.8,0.6-23.6c1.7-11.9,8.1-22.1,16.8-30.4c6.2-5.9,13.4-10.9,20.4-16.1
				c2-1.5,2.9-2.6,2.9-5.3c-0.2-14.4-0.5-28.9,0.2-43.3c0.2-4-1.1-5.8-4-7.5c-9.1-5.7-17-12.6-23.9-20.6c-4.3-4.9-7.2-10.8-9.7-16.9
				c-2.9-7.3-4.4-14.6-4.2-22.3c0.2-8.8,1.7-17.4,3.9-25.9c4.2-16.2,12.8-30.2,22.9-43.4c4.1-5.3,8.6-10.4,13.3-15.2
				c7.6-7.8,16.4-14.5,25.6-20.4c5.8-3.7,11.7-7.4,17.8-10.7c3.6-1.9,7.6-2.9,11.5-4.1c4.8-1.5,9.5-3,14.4-4.3
				c2.7-0.7,5.5-1.2,8.3-1.3c8-0.2,16.1-0.4,24.1,0c7.5,0.4,13.9,4,19.8,8.3c1.1,0.8,2.7,1.1,3.7,2.1c5.7,5,11.2,10.2,17,15.1
				c1.2,1,3.6,1.5,5.1,1c22.1-6.8,44.9-6.8,67.7-5.7c9.7,0.5,19.2,3.3,28.9,4.9c1,0.2,2.5-0.4,3.2-1.1c2.3-2.4,4-5.5,6.5-7.5
				c6.9-5.7,13.5-11.9,21.3-16.1c11.5-6.3,24.4-8.7,37.9-7.4c11.2,1.1,22,4.5,32.1,8.9c8.3,3.6,16,8.8,23.2,14.3
				c12.1,9.2,23.1,19.8,31.8,32.1c6,8.5,11.1,17.7,15.8,26.9c3.4,6.5,6,13.5,8.2,20.5c1.4,4.7,1.6,9.8,2.2,14.7
				C630.6,209.1,631.2,214.1,632,220.7z M287.9,302.4c-0.5,25.6,4.8,47.1,18,66.6c8.8,13,19.4,24,33.1,32.1
				c7.2,4.3,14.7,8.4,22.6,11.1c8.2,2.8,16.6,5.2,25.6,5.9c9.4,0.7,18.7,1.4,28-0.1c7.5-1.2,15-3.1,22.4-4.9c2.5-0.6,4.7-2.3,7.2-3
				c7.5-2.3,14-6.3,20.3-10.7c5.1-3.6,10.1-7.7,14.4-12.1c5.6-5.7,10.9-11.8,15.6-18.3c3.3-4.5,6.3-9.2,7.9-14.9
				c1.5-5.6,5.1-10.7,6.6-16.4c3-11.2,4.9-22.7,3.8-34.3c-1-10.6-2.3-21.2-4.6-31.6c-3-13-10.4-24.3-18.2-35.1
				c-4.3-5.9-9.1-11.5-15.3-15.8c-8-5.5-15.9-11-24.2-16c-4-2.4-8.7-3.8-13.2-5.3c-10.1-3.4-20.4-5.8-31.1-6.2
				c-9.2-0.4-18.4-0.2-27.4,2.1c-4.7,1.2-9.7,1.7-14.2,3.3c-9.3,3.3-18.4,7.3-26.8,12.6c-1.6,1-3.3,1.8-4.7,2.9
				c-2.1,1.8-4,3.8-6.1,5.7c-4.5,4.1-9.7,7.6-13.4,12.3c-5.8,7.5-11.1,15.4-15.4,23.7C290.8,271.4,287.5,287.9,287.9,302.4z
				 M469.1,124.6c3.7,1.9,6.9,3.6,10.2,5.2c6.6,3.2,13.5,5.8,19.9,9.4c7.4,4.1,14.8,8.5,21.5,13.6c7.5,5.7,14.6,12.1,21.2,18.7
				c6,6,11.5,12.4,16.5,19.2c6,8.1,11.4,16.7,16.5,25.4c3.5,6,6.2,12.4,8.6,18.8c2.4,6.4,4.2,13.1,6,19.7c1,3.4,2.8,4.5,6.1,2.8
				c1-0.5,1.9-1.1,2.7-1.8c5.5-5,11.6-9.6,14.4-16.8c1.6-4.1,3.5-8.4,4-12.7c0.6-5.2,0.3-10.7-0.4-15.9c-0.7-5.5-2.1-11-3.7-16.4
				c-1.3-4.6-3.3-9-5.1-13.4c-1.5-3.7-2.7-7.6-4.7-11.1c-3.1-5.4-6.5-10.6-10.2-15.6c-5.9-7.9-11.9-15.8-19.8-22.1
				c-8.2-6.4-16.2-12.9-24.8-18.8c-7.8-5.5-16.9-8.7-26.5-9.9c-6.6-0.8-13.1-0.3-19.9,0.9c-7.8,1.4-14.2,4.5-20.7,8
				C475.5,114.8,472,119.4,469.1,124.6z M468.7,488c4.7,8.3,11.6,13.3,19.8,16.9c2,0.9,4,1.9,6.2,2.4c4,0.9,8.1,1.9,12.2,2.1
				c6,0.3,12.1,0.8,17.9-0.2c6.2-1.1,12-4,17.9-6.2c2-0.7,4.1-1.5,5.7-2.8c4.5-3.4,8.8-7,13.1-10.6c5.1-4.1,10.9-7.7,15.3-12.5
				c7.3-7.9,14-16.4,20.2-25.1c3.3-4.7,7.4-9.3,8.8-15.1c0.7-2.7,1.7-5.4,2.7-8.1c3.7-9.6,7.2-19.1,8.2-29.6
				c1.4-14.7-2.5-27-12.9-37.4c-2.4-2.4-5.3-4.5-8.2-6.3c-1.6-1-4.3-1.6-5.2,0.9c-2.1,5.7-4,11.5-5.7,17.3
				c-2.9,10.5-8.4,19.8-13.7,29.2c-4,7.1-8.6,14-13.7,20.3c-6.7,8.3-13.7,16.3-21.5,23.6c-6.9,6.5-14.9,11.8-22.4,17.6
				c-8.6,6.7-18.5,11.3-28.2,16.1C479.9,483.3,474.3,485.5,468.7,488z M296.6,506.9c6.9,0.2,16.3-4.8,21.8-8.1
				c2.9-1.7,5.5-3.8,8.3-5.7c2.6-1.8,3.4-5.6,1.3-6.7c-5.2-2.8-10.6-5.4-15.9-8c-4.9-2.4-10-4.5-14.5-7.4
				c-7.3-4.7-14.3-9.9-21.1-15.2c-5.2-3.9-10.4-7.9-14.9-12.5c-6.1-6.1-11.8-12.7-17.2-19.4c-4.8-6-8.9-12.4-13.2-18.7
				c-1.3-1.8-2.3-3.8-3.3-5.7c-2.6-5.5-5.1-11-7.6-16.6c-1.6-3.6-3.1-7.3-4.5-11.1c-1.8-5-3.9-9.9-5.1-15c-0.9-3.9-3.8-3.9-6-2.9
				c-3.3,1.4-6.7,3.4-9,6c-4.1,4.7-7.3,10.1-10.9,15.3c-0.4,0.6-0.9,1.2-1,1.8c-1.3,6.8-3,13.4-3.4,20.5c-0.6,9,0.9,17.7,4.7,25.4
				c5,10.3,11.5,20.1,18,29.7c3.7,5.5,8.3,10.7,13.3,15.3c7.2,6.7,14.7,13.2,22.7,19c5.6,4,12.2,6.8,18.5,9.7
				c7.3,3.4,14.7,6.9,22.4,9.1C285.1,507.3,291,506.6,296.6,506.9z M331.2,125.2c-4.4-4.1-8.1-8.1-12.4-11.2c-2-1.4-3.1-4.1-6.5-4.2
				c-2.4-0.1-4.7-1.9-7.2-2.4c-3.9-0.8-7.9-1.6-11.9-1.5c-4.2,0-8.3,1-12.4,1.7c-8.4,1.3-16.1,4.4-23.5,8.4c-6,3.3-12.4,6-18.3,9.3
				c-4.1,2.3-8.1,5.1-11.6,8.2c-3.5,3.1-6.5,6.8-9.7,10.2c-4.9,5.2-10.2,10-14.5,15.7c-4.8,6.3-8.5,13.4-12.8,20
				c-4.9,7.4-7.5,15.6-9.3,24c-1.9,9-0.7,18.1,1.5,27c1.3,5.1,2.8,10,6.9,13.9c2.3,2.1,3.8,5,5.8,7.3c2.7,3.1,4.9,6.8,10.3,6.7
				c4.5-0.1,4.8-0.2,6-4.4c1.9-7,4.1-13.9,6.6-20.6c1.7-4.5,4.3-8.7,6.5-13.1c1.6-3.2,2.8-6.7,4.8-9.7c4.1-6.4,8.4-12.6,12.8-18.7
				c4.2-5.8,8.3-11.7,13.3-16.9c5.7-5.9,12-11.3,18.4-16.6c5.7-4.7,11.8-8.9,18-13.1c3.4-2.3,7.2-4,10.8-6c3.8-2.1,7.5-4.6,11.4-6.5
				C319.3,130.2,324.7,128.1,331.2,125.2z"/>
			<path class="st2" d="M292.7,671.6c0,7.9,0,15.3,0,23.3c-5.7,0.4-10.8,1.3-16,1.1c-14-0.4-28-1.1-42-2.1
				c-5.4-0.4-10.8-1.9-16.2-2.9c-3-0.6-4.2-2.3-2.9-5.1c2.4-5.2,5.2-10.3,8-15.4c0.9-1.6,2.3-2.1,4.5-1.6
				c15.5,3.6,31.4,4.2,47.3,3.7C281.2,672.5,287,672,292.7,671.6z"/>
			<path class="st2" d="M170.7,612.5c2,1,3.7,1.7,5.1,2.7c4.1,2.6,8,5.4,12.1,8c1.6,1,2.2,1.9,1.2,4c-3.1,6.3-5.2,13-1.2,19.7
				c2.6,4.2,5.9,7.9,10.6,10.3c3,1.5,5.8,3.3,8.4,5.3c2.8,2.2,0.7,4.7-0.2,6.9c-1.5,3.8-3.6,7.4-4.9,11.3c-1.1,3.1-3,3.8-5.5,2.5
				c-5.2-2.8-10.6-5.5-15.2-9c-4.7-3.5-9.3-7.5-12.6-12.2c-3-4.3-4.8-9.6-6-14.7c-2.7-11.2,0.5-21.7,5.5-31.8
				C168.7,614.4,169.8,613.5,170.7,612.5z"/>
			<path class="st2" d="M384.9,667.8c-1.3-7.2-2.5-13.8-3.8-20.4c-0.5-2.4,1-3.5,2.8-4.4c10.3-5.3,20.6-10.6,31-15.7
				c6.7-3.3,13.6-6.4,20.4-9.5c4.3-2,6.8-0.7,7.6,3.6c1,5.7,2,11.4,3.3,17.1c0.5,2.3,0,3.5-2.2,4.4c-10.7,4.6-21.4,9.4-32.1,14.2
				c-7.5,3.3-15.6,5.4-22.2,10.6C388.6,668.4,386.6,667.8,384.9,667.8z"/>
			<path class="st2" d="M249.4,581.2c-5.8,2.9-11.1,5.3-16.3,8.1c-11.7,6.2-22.8,13.2-32.2,22.5c-0.8,0.8-3.1,1.2-3.9,0.7
				c-5.4-3.2-10.5-6.8-15.8-10.3c-2-1.3-2.5-2.4-0.3-4.3c6.3-5.2,12.1-10.9,18.5-15.9c4.7-3.6,9.9-6.7,15.2-9.5
				c7.5-4,15.4-7.5,23-11.2c1.8-0.9,3.2-0.5,3.9,1.2C244.2,568.7,246.8,574.9,249.4,581.2z"/>
			<path class="st2" d="M516.7,584.3c0.6,1.2,1.4,2.3,1.6,3.5c0.9,5.8,1.7,11.6,2.5,17.3c0.2,1.7,0,2.8-2.1,3.5
				c-13.5,4.7-26.9,9.4-40.3,14.3c-2.7,1-5.1,2.6-7.6,4c-2.7,1.6-5.4,3.3-8.1,5c-2.5,1.5-3.7,0.9-4.2-1.9
				c-1.2-6.1-2.3-12.2-3.6-18.3c-0.4-1.8-0.4-3.1,1.7-4c10.5-4.5,20.8-9.3,31.5-13.5c8.4-3.3,17.1-5.7,25.6-8.5
				C514.6,585.5,515.4,585,516.7,584.3z"/>
			<path class="st2" d="M597.1,600.2c-21-1.4-41.4,0.7-62.1,4.3c-0.8-5.5-1.8-10.5-2.2-15.5c-0.7-7.7-0.5-7.6,7.4-8.9
				c17.8-3,35.7-3.9,53.7-3.5c1.9,0,3.9,0.2,5.8,0.7c0.8,0.2,1.9,1.7,1.8,2.4C600.1,586.4,598.6,593.1,597.1,600.2z"/>
			<path class="st2" d="M372,675.8c-9,2.8-17.9,5.7-26.9,8.3c-9.4,2.7-19,5-28.5,7.4c-1.2,0.3-2.4,0.5-3.6,0.4
				c-2.7-0.1-4.1-1.4-4-4.2c0.2-4.6,0.2-9.2,0.3-13.8c0.1-4.3,1.8-5.8,6.1-6.7c7.8-1.6,15.5-3.5,23.1-5.6c6.6-1.8,13-4,19.5-6.1
				c2.6-0.8,5.1-2,7.7-2.7c0.7-0.2,2.4,1.2,2.5,2C369.7,661.5,370.7,668.3,372,675.8z"/>
			<path class="st2" d="M317.5,552.2c0,2.3,0,4.5,0,6.8c0,3.8-1.1,4.9-5,5.5c-15.1,2.3-30,5.3-44.4,10.3c-5,1.7-5.1,1.7-7.3-2.9
				c-2.3-4.7-4.4-9.5-6.4-14.3c-0.9-2-0.6-3.2,2.2-4c10.2-2.6,20.2-6,30.5-8.5c8.6-2,17.4-3.2,26.2-4.6c2.6-0.4,4.2,0.9,4.2,3.6
				C317.5,546.7,317.5,549.5,317.5,552.2z"/>
			<path class="st2" d="M615.7,580.3c9.6-1.4,18.4,1.8,27.1,4.8c9.9,3.5,19.4,7.6,27.6,14.2c1.8,1.4,3.7,2.8,5,4.6
				c0.6,0.8,0.3,3.3-0.4,3.8c-5.6,3.5-11.5,6.7-17.3,9.9c-0.7,0.4-2.2,0-3-0.5c-7.7-5.8-16.4-9.4-25.9-11.6
				c-3.9-0.9-7.8-2.3-11.7-3.3c-1.7-0.5-5.1-0.3-5.1-0.7c-0.3-2.5,0-5.2,0.5-7.7C613.4,589.3,614.6,585,615.7,580.3z"/>
			<path class="st2" d="M688.8,631.8c-0.6,11.4-3,21-9.4,29.4c-2.3,2.9-4.3,6-6.2,9.1c-1.2,2-2.8,1.9-4.6,1.3
				c-5.8-2.1-11.6-4.2-17.4-6.3c-2.5-0.9-3-3.1-1.1-4.9c6.3-6,11.2-12.9,14-21.1c0.4-1.1,0.8-2.5,0.5-3.5c-1.6-4.2,0.8-6.6,4.1-8.5
				c4.9-2.8,9.8-5.5,14.7-8.2c2.1-1.2,3.2-0.2,3.6,1.8C687.6,624.9,688.3,629,688.8,631.8z"/>
			<path class="st2" d="M598.8,692.5c3.8-1.8,8.5-3.8,13-6.2c6.7-3.7,13.3-7.7,20-11.4c1.1-0.6,2.7-0.9,3.8-0.5
				c7.1,2.6,14.1,5.5,21.2,8c3.4,1.2,1.8,2.4,0.3,3.5c-3.8,2.9-7.7,5.8-11.7,8.4c-5.9,3.7-12.1,7-18.1,10.5c-2.6,1.5-5.2,3.2-8,4.4
				c-1.4,0.6-3.9,0.7-4.8-0.2C609.1,703.7,604.1,698.1,598.8,692.5z"/>
			<path class="st2" d="M367.1,532.3c1.2,1.6,2.9,3.7,4.5,5.9c2.4,3.2,4.7,6.4,7,9.7c1.3,1.9,1.4,3.1-1,4.9
				c-11.8,8.5-25.5,9-39.2,9.6c-1.8,0.1-3.6-0.3-5.3-0.8c-0.7-0.2-1.6-1.5-1.6-2.3c0-5.7,0.3-11.3,0.3-17c0-2.7,1.1-3.3,3.7-3.5
				c5.9-0.3,11.9-0.4,17.7-1.6C357.7,536.3,362.1,534.1,367.1,532.3z"/>
			<path class="st2" d="M600.5,716.6c-4.5,1.6-9.1,3.4-13.9,4.8c-5.9,1.8-11.9,3.3-18,4.7c-1.2,0.3-3.2,0.2-3.9-0.5
				c-6.1-6-12.1-12.2-18.1-18.4c0.1,0,0.7-0.4,1.5-0.6c8.9-2.2,17.8-4.5,26.7-6.5c5.4-1.2,10.4-0.7,14.3,4.3
				C592.3,708.7,596.5,712.4,600.5,716.6z"/>
			<path class="st2" d="M373.7,525.6c3.6-6.2,6.9-12,10.4-17.8c0.5-0.8,1.8-1.7,2.7-1.8c4-0.2,8.1,0,12.1-0.1c2.7,0,3.6,1.1,2.8,3.6
				c-2.4,7.1-4.9,14.3-7.3,21.4c-0.7,2-1.5,4-2.3,5.9c-1,2.6-2.9,2.6-4.6,1.2C382.7,533.9,378.1,529.6,373.7,525.6z"/>
		</g>
	</g>
	<g id="stecon_55_">
		<path id="red_55_" class="st7" d="M52.4,53.5c42.5,0,85,0,127.6,0c0,22.6,0,45.1,0,67.7c-42.5,0-85,0-127.5,0c0-0.2,0-0.5,0-0.7
			c0-22.1,0-44.2,0-66.3C52.5,54,52.5,53.8,52.4,53.5z M55.4,87.4c0.2,0.1,0.4,0.2,0.5,0.3c3.6,1.8,7.1,3.7,10.7,5.5
			c16.4,8.4,32.7,16.8,49.1,25.2c0.4,0.2,0.7,0.2,1.1,0c13.8-7.1,27.6-14.2,41.4-21.3c6.1-3.2,12.3-6.3,18.4-9.5
			c0.1-0.1,0.3-0.2,0.5-0.3c-0.2-0.1-0.3-0.2-0.5-0.3c-3.8-1.9-7.6-3.9-11.4-5.8c-16.2-8.3-32.4-16.7-48.5-25
			c-0.3-0.2-0.5-0.2-0.9,0c-7,3.6-14.1,7.3-21.1,10.9C82.1,73.6,69.6,80.1,57,86.5C56.5,86.8,56,87.1,55.4,87.4z"/>
		<g id="white_55_">
			<path class="st2" d="M55.4,87.4c0.6-0.3,1.1-0.6,1.6-0.8c12.6-6.5,25.2-12.9,37.7-19.4c7-3.6,14.1-7.2,21.1-10.9
				c0.3-0.2,0.6-0.1,0.9,0c16.2,8.3,32.4,16.7,48.5,25c3.8,1.9,7.6,3.9,11.4,5.8c0.1,0.1,0.3,0.1,0.5,0.3c-0.2,0.1-0.3,0.2-0.5,0.3
				c-6.1,3.2-12.3,6.3-18.4,9.5c-13.8,7.1-27.6,14.2-41.4,21.3c-0.4,0.2-0.7,0.2-1.1,0C99.4,110,83,101.6,66.6,93.1
				c-3.6-1.8-7.1-3.7-10.7-5.5C55.8,87.6,55.6,87.5,55.4,87.4z M59.3,87.4c0.2,0.1,0.3,0.2,0.4,0.2c1,0.5,1.9,1,2.9,1.5
				c17.7,9.1,35.5,18.2,53.2,27.3c0.3,0.1,0.5,0.2,0.8,0c12.9-6.6,25.7-13.2,38.6-19.8c5.8-3,11.6-6,17.5-9c0.1-0.1,0.3-0.2,0.5-0.3
				c-0.2-0.1-0.4-0.2-0.6-0.3c-15.9-8.2-31.9-16.4-47.8-24.5c-2.7-1.4-5.5-2.8-8.2-4.2c-0.2-0.1-0.4-0.1-0.7,0
				c-0.3,0.2-0.7,0.4-1.1,0.6C96.6,68.3,78.3,77.6,60,87C59.8,87.1,59.6,87.2,59.3,87.4z"/>
			<path class="st2" d="M147,79.5c1.4,0,2.7,0,4.1,0c0,5.2,0,10.3,0,15.4c-1.4,0-2.8,0-4.2,0c-0.9-2.6-1.8-5.3-2.7-7.9
				c0,0-0.1,0-0.1,0c0,2.6,0,5.2,0,7.9c-1.4,0-2.7,0-4,0c0,0,0,0,0,0c0,0,0,0,0,0c0-0.1,0-0.2,0-0.3c0-4.9,0-9.9,0-14.8
				c0,0,0-0.1,0-0.2c0.1,0,0.3,0,0.4,0c1.2,0,2.3,0,3.5,0c0.4,0,0.4,0,0.5,0.4c0.8,2.5,1.6,5,2.4,7.5c0,0.1,0.1,0.2,0.2,0.4
				C147,85,147,82.3,147,79.5z"/>
			<path class="st2" d="M138.4,87.3c0,1.5,0,3,0,4.5c0,0.8-0.3,1.4-0.8,1.9c-0.7,0.7-1.6,1.2-2.6,1.3c-1.5,0.3-3.1,0.3-4.6-0.1
				c-0.9-0.2-1.6-0.6-2.3-1.3c-0.5-0.5-0.8-1.1-0.8-1.9c0-3,0-6.1,0-9.1c0-0.7,0.2-1.3,0.7-1.8c0.6-0.7,1.4-1.2,2.3-1.4
				c1.7-0.4,3.5-0.4,5.2,0.1c0.7,0.2,1.4,0.6,2,1.2c0.6,0.5,0.9,1.2,0.8,2C138.4,84.3,138.4,85.8,138.4,87.3z M133.8,87.3
				c0-1.5,0-2.9,0-4.4c0-0.7-0.1-0.9-0.8-0.9c-0.1,0-0.2,0-0.2,0c-0.5,0.1-0.6,0.2-0.6,0.7c0,3,0,6,0,9c0,0.5,0.1,0.7,0.6,0.7
				c0.2,0,0.3,0,0.5,0c0.5-0.1,0.6-0.2,0.6-0.7C133.8,90.3,133.8,88.8,133.8,87.3z"/>
			<path class="st2" d="M126.3,88.9c0,0.2,0,0.3,0,0.5c0,0.8,0,1.6,0,2.4c0,0.8-0.3,1.5-0.9,2c-0.7,0.7-1.5,1.1-2.5,1.3
				c-1.5,0.3-3,0.3-4.5-0.1c-0.8-0.2-1.5-0.6-2.2-1.2c-0.6-0.6-0.9-1.2-0.9-2.1c0-3,0-5.9,0-8.9c0-0.9,0.3-1.6,0.9-2.1
				c0.7-0.7,1.6-1.1,2.5-1.2c1.4-0.2,2.9-0.2,4.3,0.1c0.9,0.2,1.6,0.6,2.3,1.2c0.6,0.6,0.9,1.2,0.9,2.1c0,0.8,0,1.7,0,2.5
				c0,0.2,0,0.3,0,0.5c-1.6,0-3.1,0-4.6,0c0-0.2,0-0.3,0-0.5c0-0.9,0-1.7,0-2.6c0-0.5-0.1-0.6-0.6-0.7c-0.1,0-0.2,0-0.3,0
				c-0.7,0.1-0.7,0.3-0.7,0.8c0,2.9,0,5.9,0,8.8c0,0.1,0,0.2,0,0.3c0,0.2,0.1,0.4,0.3,0.4c0.1,0,0.3,0.1,0.4,0.1
				c0.6,0.1,0.8-0.2,0.8-0.8c0-0.8,0-1.5,0-2.3c0-0.2,0-0.3,0-0.5C122,88.8,125.7,88.8,126.3,88.9z"/>
			<path class="st2" d="M105.1,94.9c0-5.1,0-10.2,0-15.3c0.4-0.1,8.7-0.1,9.1,0c0,0.8,0,1.6,0,2.5c-0.1,0-0.3,0-0.4,0
				c-1.1,0-2.2,0-3.3,0c-0.1,0-0.3,0-0.5,0c0,1.4,0,2.7,0,4.1c1,0,2.1,0,3.1,0c0,0.8,0,1.5,0,2.2c-0.4,0.1-0.7,0.1-1,0.1
				c-0.3,0-0.7,0-1,0c-0.3,0-0.7,0-1,0c-0.1,0.3-0.1,2.8,0,3.7c0.1,0,0.3,0,0.5,0c1.1,0,2.2,0,3.3,0c0.2,0,0.3,0,0.5,0
				c0,0.9,0,1.8,0,2.6C113.9,95,105.7,95,105.1,94.9z"/>
			<path class="st2" d="M100.7,94.9c-1.6,0-3.1,0-4.7,0c0-4.3,0-8.5,0-12.8c-1,0-2,0-3,0c-0.1-0.4-0.1-2.1,0-2.6
				c0.3-0.1,10.4-0.1,10.8,0c0.1,0.3,0.1,2.1,0,2.6c-1,0-2,0-3,0C100.7,86.4,100.7,90.6,100.7,94.9z"/>
			<path class="st2" d="M91.8,84.9c-1.6,0-3.1,0-4.6,0c0-0.2,0-0.3,0-0.5c0-0.6,0-1.2,0-1.8c0-0.4-0.1-0.6-0.5-0.6
				c-0.1,0-0.2,0-0.4,0c-0.3,0-0.5,0.2-0.5,0.5c0,0.6,0,1.1,0,1.7c0,0.4,0.2,0.6,0.5,0.8c0.4,0.2,0.7,0.4,1.1,0.7
				c1,0.6,2,1.1,2.9,1.7c0.1,0.1,0.3,0.2,0.4,0.3c0.7,0.5,1.1,1.2,1.1,2.1c0,0.7,0,1.3,0,2c0,0.7-0.2,1.3-0.7,1.7
				c-0.7,0.7-1.5,1.2-2.4,1.4c-1.5,0.4-3.1,0.4-4.7,0c-0.8-0.2-1.6-0.6-2.2-1.2c-0.6-0.5-0.9-1.2-0.9-2.1c0-0.8,0-1.5,0-2.3
				c0.3-0.1,3.9-0.1,4.5,0c0,0.1,0,0.3,0,0.4c0,0.7,0,1.3,0,2c0,0.4,0.1,0.6,0.5,0.6c0.2,0,0.5,0,0.7-0.1c0.2,0,0.3-0.2,0.3-0.4
				c0-0.6,0-1.2,0-1.8c0-0.3-0.2-0.6-0.4-0.7c-0.4-0.3-0.8-0.5-1.2-0.8c-1-0.6-2-1.2-2.9-1.8c-0.3-0.2-0.6-0.4-0.9-0.7
				c-0.4-0.4-0.6-0.9-0.6-1.5c0-0.7,0-1.3,0-2c0-0.8,0.3-1.4,0.8-1.9c0.7-0.7,1.6-1.2,2.6-1.4c1.4-0.3,2.8-0.3,4.2,0.1
				c0.9,0.2,1.7,0.7,2.3,1.3c0.5,0.5,0.8,1.1,0.8,1.9C91.7,83.5,91.8,84.2,91.8,84.9z"/>
		</g>
		<g id="blue_55_">
			<path class="st8" d="M59.3,87.4c0.3-0.1,0.5-0.2,0.7-0.3c18.3-9.4,36.6-18.8,54.9-28.1c0.4-0.2,0.7-0.4,1.1-0.6
				c0.2-0.1,0.4-0.1,0.7,0c2.7,1.4,5.4,2.8,8.2,4.2c15.9,8.2,31.9,16.4,47.8,24.5c0.2,0.1,0.3,0.2,0.6,0.3c-0.2,0.1-0.3,0.2-0.5,0.3
				c-5.8,3-11.6,6-17.5,9c-12.9,6.6-25.7,13.2-38.6,19.8c-0.3,0.1-0.5,0.1-0.8,0c-17.7-9.1-35.5-18.2-53.2-27.3
				c-1-0.5-1.9-1-2.9-1.5C59.6,87.5,59.5,87.5,59.3,87.4z M147,79.5c0,2.8,0,5.5,0,8.3c-0.1-0.1-0.1-0.2-0.2-0.4
				c-0.8-2.5-1.6-5-2.4-7.5c-0.1-0.4-0.1-0.4-0.5-0.4c-1.2,0-2.3,0-3.5,0c-0.1,0-0.3,0-0.4,0c0,0.1,0,0.1,0,0.2c0,4.9,0,9.9,0,14.8
				c0,0.1,0,0.2,0,0.3c0,0,0,0,0,0c0,0,0,0,0,0c1.3,0,2.7,0,4,0c0-2.7,0-5.3,0-7.9c0,0,0.1,0,0.1,0c0.9,2.6,1.8,5.3,2.7,7.9
				c1.4,0,2.8,0,4.2,0c0-5.1,0-10.2,0-15.4C149.8,79.5,148.5,79.5,147,79.5z M138.4,87.3c0-1.5,0-3,0-4.5c0-0.8-0.3-1.5-0.8-2
				c-0.6-0.6-1.2-1-2-1.2c-1.7-0.5-3.5-0.5-5.2-0.1c-0.9,0.2-1.7,0.7-2.3,1.4c-0.4,0.5-0.7,1.1-0.7,1.8c0,3,0,6.1,0,9.1
				c0,0.8,0.3,1.4,0.8,1.9c0.6,0.7,1.4,1.1,2.3,1.3c1.5,0.3,3.1,0.3,4.6,0.1c1-0.2,1.8-0.6,2.6-1.3c0.5-0.5,0.8-1.2,0.8-1.9
				C138.4,90.3,138.4,88.8,138.4,87.3z M126.3,88.9c-0.6-0.1-4.3-0.1-4.7,0c0,0.1,0,0.3,0,0.5c0,0.8,0,1.5,0,2.3
				c0,0.7-0.2,0.9-0.8,0.8c-0.1,0-0.3,0-0.4-0.1c-0.2-0.1-0.3-0.2-0.3-0.4c0-0.1,0-0.2,0-0.3c0-2.9,0-5.9,0-8.8c0-0.5,0-0.7,0.7-0.8
				c0.1,0,0.2,0,0.3,0c0.5,0.1,0.6,0.2,0.6,0.7c0,0.9,0,1.7,0,2.6c0,0.2,0,0.3,0,0.5c1.6,0,3.1,0,4.6,0c0-0.2,0-0.4,0-0.5
				c0-0.8,0-1.7,0-2.5c0-0.9-0.3-1.5-0.9-2.1c-0.7-0.6-1.4-1-2.3-1.2c-1.4-0.3-2.9-0.3-4.3-0.1c-0.9,0.2-1.8,0.6-2.5,1.2
				c-0.6,0.6-0.9,1.3-0.9,2.1c0,3,0,5.9,0,8.9c0,0.9,0.3,1.6,0.9,2.1c0.6,0.6,1.4,1,2.2,1.2c1.5,0.3,3,0.3,4.5,0.1
				c0.9-0.2,1.8-0.6,2.5-1.3c0.6-0.5,0.9-1.2,0.9-2c0-0.8,0-1.6,0-2.4C126.3,89.2,126.3,89.1,126.3,88.9z M91.8,84.9
				c0-0.7,0-1.4,0-2.1c0-0.8-0.3-1.4-0.8-1.9c-0.7-0.7-1.4-1.1-2.3-1.3c-1.4-0.3-2.8-0.3-4.2-0.1c-1,0.2-1.9,0.6-2.6,1.4
				c-0.5,0.5-0.8,1.1-0.8,1.9c0,0.7,0,1.3,0,2c0,0.6,0.2,1.1,0.6,1.5c0.3,0.2,0.6,0.5,0.9,0.7c1,0.6,2,1.2,2.9,1.8
				c0.4,0.2,0.8,0.5,1.2,0.8c0.2,0.2,0.4,0.4,0.4,0.7c0,0.6,0,1.2,0,1.8c0,0.2-0.1,0.4-0.3,0.4c-0.2,0-0.5,0.1-0.7,0.1
				c-0.4,0-0.5-0.2-0.5-0.6c0-0.7,0-1.3,0-2c0-0.1,0-0.3,0-0.4c-0.6-0.1-4.2-0.1-4.5,0c0,0.7,0,1.5,0,2.3c0,0.9,0.3,1.5,0.9,2.1
				c0.6,0.6,1.4,1,2.2,1.2c1.6,0.4,3.1,0.3,4.7,0c0.9-0.2,1.7-0.7,2.4-1.4c0.4-0.5,0.7-1.1,0.7-1.7c0-0.7,0-1.3,0-2
				c0-0.9-0.4-1.6-1.1-2.1c-0.1-0.1-0.3-0.2-0.4-0.3c-1-0.6-2-1.1-2.9-1.7c-0.4-0.2-0.7-0.4-1.1-0.7c-0.3-0.2-0.5-0.4-0.5-0.8
				c0-0.6,0-1.1,0-1.7c0-0.3,0.2-0.5,0.5-0.5c0.1,0,0.2,0,0.4,0c0.4,0,0.5,0.2,0.5,0.6c0,0.6,0,1.2,0,1.8c0,0.1,0,0.3,0,0.5
				C88.7,84.9,90.2,84.9,91.8,84.9z M105.1,94.9c0.5,0.1,8.8,0.1,9.1,0c0-0.9,0-1.7,0-2.6c-0.2,0-0.3,0-0.5,0c-1.1,0-2.2,0-3.3,0
				c-0.2,0-0.3,0-0.5,0c-0.1-0.8,0-3.3,0-3.7c0.3,0,0.7,0,1,0c0.3,0,0.7,0,1,0c0.3,0,0.7,0.1,1-0.1c0-0.7,0-1.5,0-2.2
				c-1.1,0-2.1,0-3.1,0c0-1.4,0-2.7,0-4.1c0.2,0,0.3,0,0.5,0c1.1,0,2.2,0,3.3,0c0.1,0,0.3,0,0.4,0c0-0.9,0-1.7,0-2.5
				c-0.4-0.1-8.7-0.1-9.1,0C105.1,84.7,105.1,89.8,105.1,94.9z M100.7,94.9c0-4.3,0-8.5,0-12.8c1,0,2,0,3,0c0.1-0.5,0.1-2.2,0-2.6
				c-0.4-0.1-10.5-0.1-10.8,0c-0.1,0.4-0.1,2.2,0,2.6c1,0,2,0,3,0c0,4.3,0,8.5,0,12.8C97.5,94.9,99.1,94.9,100.7,94.9z"/>
			<path class="st8" d="M133.8,87.3c0,1.5,0,3,0,4.5c0,0.5-0.1,0.6-0.6,0.7c-0.2,0-0.3,0-0.5,0c-0.5-0.1-0.6-0.2-0.6-0.7
				c0-3,0-6,0-9c0-0.5,0.1-0.6,0.6-0.7c0.1,0,0.2,0,0.2,0c0.7,0,0.8,0.1,0.8,0.9C133.8,84.4,133.8,85.9,133.8,87.3z"/>
		</g>
	</g>
</g>
</svg>
