<?xml version="1.0" encoding="utf-8"?>
<!-- Generator: Adobe Illustrator 22.0.0, SVG Export Plug-In . SVG Version: 6.00 Build 0)  -->
<svg version="1.1" id="Layer_1" xmlns="http://www.w3.org/2000/svg" xmlns:xlink="http://www.w3.org/1999/xlink" x="0px" y="0px"
	 viewBox="0 0 841.9 1190.6" style="enable-background:new 0 0 841.9 1190.6;" xml:space="preserve">
<style type="text/css">
	.st0{fill:none;}
	.st1{fill:#010101;}
	.st2{fill:#FFFFFF;}
	.st3{fill:#077147;}
	.st4{fill:#FFFFFF;stroke:#FFFFFF;stroke-miterlimit:10;}
	.st5{fill-rule:evenodd;clip-rule:evenodd;fill:#077147;}
	.st6{fill-rule:evenodd;clip-rule:evenodd;fill:#FFFFFF;}
	.st7{fill:#EB2627;}
	.st8{fill:#2A3B8F;}
</style>
<g>
	<g>
		<rect x="-0.3" y="0.7" class="st0" width="841.9" height="1190.6"/>
		<rect x="28" y="29" class="st1" width="785.2" height="1133.9"/>
		<rect x="33.7" y="34.7" class="st2" width="773.9" height="1122.5"/>
		<rect x="52.2" y="793.3" class="st3" width="737" height="348.7"/>
	</g>
	<g>
		<g>
			<path class="st4" d="M116.2,1051.9v-53.7h25.6v9.1h-18.6v11.9h17.3v9h-17.3v14.6h19.3v9H116.2z"/>
			<path class="st4" d="M148.3,1051.9v-53.7h10.4l6.3,36.6l6.2-36.6h10.5v53.7h-6.5v-42.3l-6.9,42.3h-6.7l-6.8-42.3v42.3H148.3z"/>
			<path class="st4" d="M188.6,1051.9v-53.7h25.6v9.1h-18.6v11.9h17.3v9h-17.3v14.6h19.3v9H188.6z"/>
			<path class="st4" d="M220.8,1051.9v-53.7h14.7c3.7,0,6.4,0.5,8,1.4c1.7,1,3,2.7,4,5.1c1,2.5,1.5,5.3,1.5,8.5c0,4-0.8,7.4-2.3,10
				c-1.5,2.6-3.8,4.3-6.8,5c1.5,1.4,2.8,2.9,3.7,4.5c1,1.6,2.3,4.5,4,8.7l4.2,10.5h-8.3l-5-11.7c-1.8-4.2-3-6.8-3.7-7.9
				c-0.7-1.1-1.4-1.8-2.1-2.2c-0.7-0.4-1.9-0.6-3.5-0.6h-1.4v22.4H220.8z M227.8,1020.9h5.2c3.3,0,5.4-0.2,6.3-0.7
				c0.8-0.4,1.5-1.2,2-2.3s0.7-2.4,0.7-4c0-1.8-0.3-3.3-0.9-4.4c-0.6-1.1-1.5-1.8-2.6-2.1c-0.6-0.1-2.3-0.2-5.1-0.2h-5.4V1020.9z"/>
			<path class="st4" d="M271.7,1032.2v-9h15v21.4c-1.5,2.2-3.6,4.1-6.4,5.8c-2.8,1.7-5.6,2.5-8.4,2.5c-3.6,0-6.8-1.2-9.5-3.5
				s-4.7-5.7-6.1-10.1c-1.4-4.4-2-9.1-2-14.3c0-5.6,0.8-10.6,2.3-14.9c1.5-4.3,3.7-7.7,6.6-10c2.2-1.8,5-2.7,8.3-2.7
				c4.3,0,7.6,1.4,10.1,4.2c2.4,2.8,4,6.7,4.7,11.6l-6.9,2c-0.5-2.6-1.4-4.7-2.7-6.2c-1.3-1.5-3-2.3-5-2.3c-3,0-5.5,1.5-7.3,4.5
				c-1.8,3-2.7,7.5-2.7,13.4c0,6.4,0.9,11.2,2.7,14.3c1.8,3.2,4.2,4.8,7.2,4.8c1.5,0,2.9-0.4,4.4-1.3c1.5-0.9,2.7-2,3.8-3.2v-6.8
				H271.7z"/>
			<path class="st4" d="M293.2,1051.9v-53.7h25.6v9.1h-18.6v11.9h17.3v9h-17.3v14.6h19.3v9H293.2z"/>
			<path class="st4" d="M325.4,1051.9v-53.7h6.8l14.1,35.9v-35.9h6.5v53.7h-7l-13.9-35v35H325.4z"/>
			<path class="st4" d="M382.3,1032.2l6.8,3.3c-1,5.9-2.8,10.2-5.2,13.1s-5.5,4.3-9.2,4.3c-4.6,0-8.4-2.4-11.3-7.3
				c-3-4.9-4.4-11.5-4.4-20c0-8.9,1.5-15.9,4.5-20.8c3-4.9,6.9-7.4,11.7-7.4c4.2,0,7.7,1.9,10.3,5.8c1.6,2.3,2.7,5.6,3.5,9.9
				l-6.9,2.6c-0.4-2.8-1.3-5-2.6-6.6s-2.9-2.4-4.7-2.4c-2.6,0-4.6,1.4-6.2,4.3c-1.6,2.9-2.4,7.5-2.4,13.9c0,6.8,0.8,11.6,2.4,14.5
				c1.6,2.9,3.6,4.3,6.1,4.3c1.9,0,3.4-0.9,4.8-2.7C380.8,1039,381.7,1036.1,382.3,1032.2z"/>
			<path class="st4" d="M404.1,1051.9v-22.6l-12.7-31.1h8.2l8.1,21.2l8-21.2h8l-12.7,31.2v22.5H404.1z"/>
			<path class="st4" d="M475.3,1032.2l6.8,3.3c-1,5.9-2.8,10.2-5.2,13.1c-2.4,2.8-5.5,4.3-9.2,4.3c-4.6,0-8.4-2.4-11.3-7.3
				c-3-4.9-4.4-11.5-4.4-20c0-8.9,1.5-15.9,4.5-20.8c3-4.9,6.9-7.4,11.7-7.4c4.2,0,7.7,1.9,10.3,5.8c1.6,2.3,2.8,5.6,3.5,9.9
				l-6.9,2.6c-0.4-2.8-1.3-5-2.6-6.6s-2.9-2.4-4.7-2.4c-2.6,0-4.6,1.4-6.2,4.3c-1.6,2.9-2.4,7.5-2.4,13.9c0,6.8,0.8,11.6,2.4,14.5
				c1.6,2.9,3.6,4.3,6.1,4.3c1.9,0,3.4-0.9,4.8-2.7C473.8,1039,474.7,1036.1,475.3,1032.2z"/>
			<path class="st4" d="M519.2,1051.9h-7.6l-3-12.2h-13.8l-2.9,12.2h-7.4l13.5-53.7h7.4L519.2,1051.9z M506.4,1030.7l-4.8-19.9
				l-4.7,19.9H506.4z"/>
			<path class="st4" d="M522.9,1051.9v-53.7h14.7c3.7,0,6.4,0.5,8,1.4c1.7,1,3,2.7,4,5.1c1,2.5,1.5,5.3,1.5,8.5c0,4-0.8,7.4-2.3,10
				c-1.5,2.6-3.8,4.3-6.8,5c1.5,1.4,2.8,2.9,3.7,4.5c1,1.6,2.3,4.5,4,8.7l4.2,10.5h-8.3l-5-11.7c-1.8-4.2-3-6.8-3.7-7.9
				c-0.7-1.1-1.4-1.8-2.1-2.2c-0.7-0.4-1.9-0.6-3.5-0.6h-1.4v22.4H522.9z M529.9,1020.9h5.2c3.3,0,5.4-0.2,6.3-0.7s1.5-1.2,2-2.3
				c0.5-1.1,0.7-2.4,0.7-4c0-1.8-0.3-3.3-0.9-4.4c-0.6-1.1-1.5-1.8-2.6-2.1c-0.6-0.1-2.3-0.2-5.1-0.2h-5.4V1020.9z"/>
			<path class="st4" d="M584.6,1051.9v-53.7h11.2c4.2,0,7,0.3,8.3,0.8c2,0.8,3.6,2.6,5,5.3c1.3,2.7,2,6.2,2,10.5
				c0,3.3-0.4,6.1-1.2,8.3s-1.7,4-2.9,5.3c-1.2,1.3-2.4,2.1-3.6,2.5c-1.7,0.5-4.1,0.8-7.2,0.8h-4.5v20.3H584.6z M591.6,1007.3v15.2
				h3.8c2.7,0,4.6-0.3,5.5-0.8c0.9-0.6,1.7-1.4,2.2-2.6c0.5-1.2,0.8-2.6,0.8-4.2c0-2-0.4-3.6-1.1-4.8s-1.7-2.1-2.8-2.4
				c-0.8-0.2-2.5-0.4-5-0.4H591.6z"/>
			<path class="st4" d="M615.4,1025.4c0-5.5,0.5-10.1,1.6-13.8c0.8-2.7,1.9-5.2,3.2-7.4c1.4-2.2,2.8-3.8,4.5-4.8
				c2.2-1.4,4.6-2.1,7.4-2.1c5.1,0,9.2,2.5,12.2,7.4s4.6,11.7,4.6,20.5c0,8.7-1.5,15.4-4.5,20.3c-3,4.9-7.1,7.3-12.2,7.3
				c-5.1,0-9.2-2.4-12.3-7.3C616.9,1040.7,615.4,1034,615.4,1025.4z M622.6,1025c0,6.1,0.9,10.7,2.7,13.8c1.8,3.1,4.1,4.7,6.9,4.7
				c2.8,0,5.1-1.6,6.8-4.7c1.8-3.1,2.7-7.8,2.7-14c0-6.2-0.9-10.7-2.6-13.8s-4-4.5-6.9-4.5s-5.2,1.5-7,4.6
				C623.4,1014.3,622.6,1018.9,622.6,1025z"/>
			<path class="st4" d="M654.1,1051.9v-53.7h7v53.7H654.1z"/>
			<path class="st4" d="M667.8,1051.9v-53.7h6.8l14.1,35.9v-35.9h6.5v53.7h-7l-13.9-35v35H667.8z"/>
			<path class="st4" d="M710.4,1051.9v-44.6h-10.3v-9.1h27.5v9.1h-10.2v44.6H710.4z"/>
		</g>
		<g>
			<path class="st4" d="M214.3,934.8h-7.5v-42c0-2.7-0.6-4-1.8-4c-1,0-1.8,0.6-2.2,1.9l-14.4,44.1H180v-33.4
				c-0.8,0.2-1.5,0.3-2.1,0.3c-2.6,0-4.8-1-6.5-2.9c-1.8-2-2.7-4.3-2.7-7.1c0-2.7,0.9-5,2.7-6.9c1.8-1.9,3.9-2.9,6.5-2.9
				c2.7,0,5,1,6.8,3c1.8,2,2.7,4.5,2.7,7.5v19.4c0,2.9-0.5,7.5-1.4,13.8c0.9-3.8,2-8.1,3.4-12.7l6.8-23.1c1.5-5.3,4.6-7.9,9.1-7.8
				c6,0.1,9.1,3.8,9.1,11V934.8z M182,891.7c0-1.2-0.4-2.3-1.2-3.1c-0.8-0.9-1.8-1.3-2.9-1.3c-1.1,0-2.1,0.4-2.9,1.3
				c-0.8,0.9-1.2,1.9-1.2,3.1c0,1.2,0.4,2.3,1.2,3.1c0.8,0.9,1.8,1.3,2.9,1.3c1.1,0,2.1-0.4,2.9-1.3C181.6,894,182,893,182,891.7z"
				/>
			<path class="st4" d="M214.5,876.3c-10-3.5-19.1-5.2-27.4-5.2c-3.8,0-7.6,0.3-11.5,0.8c1-11.6,6.8-17.4,17.6-17.4
				c5.7,0,10.3,1.7,13.8,5.1v-9h7.3v23.9C214.4,875.1,214.4,875.7,214.5,876.3z M206.8,868.6c-0.5-2.2-1.9-4.2-4.4-6.1
				c-2.4-1.9-5.2-2.9-8.2-2.9c-2.9,0-5.4,0.6-7.5,1.9c-2.1,1.3-3.4,2.9-4,5c1.4-0.3,3.5-0.5,6.4-0.5
				C195.1,866,201,866.9,206.8,868.6z"/>
			<path class="st4" d="M214.3,846.8H207v-14.8h7.3V846.8z"/>
			<path class="st4" d="M261.4,925.7c0,3.2-1,5.7-2.9,7.5s-4.4,2.7-7.5,2.7c-5.9,0-9.3-2.8-10.3-8.5l-1.8-10.3
				c-0.9,0.3-1.9,0.5-3,0.5c-2.3,0-4.4-0.9-6-2.7c-1.7-1.8-2.5-4-2.5-6.5c0-2.5,0.8-4.7,2.5-6.5c1.7-1.8,3.7-2.7,6-2.7
				c2.1,0,3.9,0.7,5.6,2.1c1.6,1.4,2.6,3.2,3,5.4l3.4,19.8c0.2,1.6,1.2,2.3,3,2.3c2,0,3-0.9,3-2.6v-29.1c0-2.8-1.3-5-3.7-6.5
				c-2.1-1.2-4.7-1.8-7.7-1.8c-6.9,0-11.1,2.1-12.4,6.2h-7.3c1-8.8,7.4-13.2,19.1-13.3c5.4,0,9.8,1.1,13.3,3.3
				c4.2,2.8,6.3,6.9,6.3,12.5V925.7z M239.7,908.4c0-1.1-0.4-2.1-1.1-2.9c-0.7-0.8-1.6-1.2-2.7-1.2c-1,0-1.9,0.4-2.7,1.2
				c-0.7,0.8-1.1,1.7-1.1,2.9c0,1.1,0.4,2.1,1.1,2.9c0.7,0.8,1.6,1.2,2.7,1.2c1,0,1.9-0.4,2.7-1.2
				C239.3,910.5,239.7,909.5,239.7,908.4z"/>
			<path class="st4" d="M309,923.1c0,4.5-1.9,7.8-5.7,10c-3.1,1.8-7,2.7-11.8,2.7c-4.8,0-8.7-0.9-11.7-2.7c-3.6-2.2-5.4-5.5-5.4-10
				v-13.2c0-3.1,0.8-5.8,2.4-7.9c1.6-2.1,3.9-3.2,6.9-3.2c2.6,0,4.8,0.9,6.5,2.8c1.8,1.9,2.7,4.2,2.7,7c0,2.7-0.9,5-2.7,6.9
				c-1.8,1.9-3.9,2.9-6.5,2.9c-0.7,0-1.3-0.1-1.8-0.3v4c0,4.5,3.3,6.7,9.8,6.7c6.6,0,9.9-2.3,9.9-6.8v-24.8c0-2.8-1.3-5-3.7-6.5
				c-2.1-1.2-4.7-1.8-7.7-1.8c-7.7,0-11.8,2.1-12.4,6.2h-7.3c1-8.8,7.4-13.2,19.1-13.3c5.4,0,9.8,1.1,13.3,3.3
				c4.2,2.8,6.3,6.9,6.3,12.5V923.1z M287.7,908.6c0-1.2-0.4-2.2-1.2-3.1c-0.8-0.9-1.8-1.3-2.9-1.3s-2.1,0.4-2.9,1.3
				c-0.8,0.9-1.2,1.9-1.2,3.1c0,1.2,0.4,2.2,1.2,3.1c0.8,0.9,1.8,1.3,2.9,1.3s2.1-0.4,2.9-1.3C287.3,910.8,287.7,909.8,287.7,908.6z
				"/>
			<path class="st4" d="M358,934.8h-7.5V900c0-3.3-1.1-6-3.4-8c-2.3-2.1-5-3.1-8.1-3.1c-3.4,0-6.3,1.2-8.8,3.7
				c-2.5,2.5-3.7,5.4-3.7,8.9c0,2.2,0.7,5.2,2,9.2c1.3,4,2,6.9,2,8.9c0,0.6-0.1,1.4-0.2,2.5c2.3-4.1,4.9-7.5,7.7-10.3
				c-2.3-0.2-4-1.1-5.3-2.9c-1.2-1.5-1.8-3.3-1.8-5.5c0-2.3,0.8-4.2,2.4-5.9c1.6-1.7,3.4-2.5,5.6-2.5s4,0.8,5.6,2.5
				c1.5,1.7,2.3,3.7,2.3,5.9c0,3.9-1.8,8.2-5.3,13c-4.9,6.5-7.6,10.4-8.3,11.7c-1.2,2.3-1.8,4.5-1.8,6.6h-7.6
				c0.1-3.2,0.1-6.2,0.1-8.8c0-4.7-0.5-8.3-1.5-10.8c-0.7-2.3-1.5-4.6-2.2-7c-0.7-2.4-1.1-4.5-1.1-6.3c0-5.9,1.9-10.7,5.7-14.4
				c3.8-3.7,8.5-5.6,14-5.6c5.6,0,10.1,1.6,13.7,4.7c3.8,3.4,5.7,8,5.7,13.9V934.8z M342.4,903.4c0-1.1-0.3-2.1-1-2.8
				c-0.7-0.7-1.6-1.1-2.6-1.1c-1,0-1.9,0.4-2.6,1.1c-0.7,0.7-1,1.7-1,2.8c0,1.1,0.3,2.1,1,2.8c0.7,0.7,1.5,1.1,2.6,1.1
				c1,0,1.9-0.4,2.6-1.1C342,905.5,342.4,904.6,342.4,903.4z"/>
			<path class="st4" d="M396.9,926.1c0,2.8-0.9,5.1-2.7,7s-4,2.8-6.6,2.8c-2.6,0-4.8-1-6.6-2.9s-2.7-4.2-2.7-7c0-2.8,0.9-5.1,2.7-7
				c1.8-1.9,4-2.9,6.6-2.9c1,0,1.6,0,1.8,0.1V905c0-1.4-2.7-2.8-8-4.1c-5.4-1.3-10.2-2.4-14.6-3.2c0.2-4.8,1.3-8.6,3.5-11.5
				c2.2-2.9,5.3-4.4,9.4-4.4c1.7,0,4,0.4,6.9,1.2c2.9,0.8,5.1,1.2,6.3,1.2c1.4,0,2.1-1,2.3-2.9l5.9,1.7c-1.5,5.3-4.1,7.9-8,7.9
				c-1.5,0-3.5-0.4-6.2-1.1c-2.7-0.7-4.7-1.1-6.1-1.1c-3.5,0-5.6,1.4-6,4.3c6.2,1.4,11.4,2.9,15.6,4.4c4.2,1.6,6.3,4.2,6.3,8.1
				V926.1z M391.7,925.9c0-1.2-0.4-2.3-1.2-3.1c-0.8-0.9-1.8-1.3-2.9-1.3s-2.1,0.4-2.9,1.3c-0.8,0.9-1.2,1.9-1.2,3.1
				c0,1.2,0.4,2.3,1.2,3.1c0.8,0.9,1.8,1.3,2.9,1.3s2.1-0.4,2.9-1.3C391.3,928.2,391.7,927.1,391.7,925.9z"/>
			<path class="st4" d="M445,934.8h-7.5v-34.4c0-3.5-1-6.4-3-8.4c-2-2.1-4.7-3.1-8-3.1c-4.8,0-8.5,2.2-11,6.5
				c3.8,0.8,6.5,2.7,8.1,5.8c-4.1,2.6-6.2,5.7-6.2,9.4v6.1c0.6-0.3,1.3-0.5,2.3-0.5c2.5,0,4.6,0.9,6.3,2.8c1.7,1.9,2.6,4.2,2.6,7
				c0,2.8-0.9,5.1-2.7,7c-1.8,1.9-3.9,2.9-6.5,2.9c-2.7,0-4.9-1-6.8-3c-1.9-2-2.8-4.5-2.8-7.5v-15.2c0-3.6,1.7-6.5,5-8.6
				c-2-1.5-4.5-2-7.4-1.6c0.2-5.4,2.1-9.8,5.8-13.3c3.4-3.2,7.7-4.8,12.9-4.8c5.8,0,10.4,1.7,13.7,5c3.3,3.3,5,7.9,5,13.6V934.8z
				 M423.8,926c0-1.2-0.4-2.2-1.2-3.1c-0.8-0.9-1.8-1.3-2.9-1.3c-1.1,0-2.1,0.4-2.9,1.3c-0.8,0.9-1.2,1.9-1.2,3.1
				c0,1.2,0.4,2.2,1.2,3.1c0.8,0.9,1.8,1.3,2.9,1.3c1.1,0,2.1-0.4,2.9-1.3C423.4,928.2,423.8,927.2,423.8,926z"/>
			<path class="st4" d="M496,925.9c0,2.8-0.9,5.1-2.7,7c-1.8,1.9-3.9,2.9-6.5,2.9c-2.3,0-4.4-0.8-6.2-2.5c-1.8-1.7-2.7-3.8-2.9-6.3
				c-2.8,1.1-5.6,3.7-8.5,7.8h-6.9v-10.1c0-2.4,0.4-4.1,1.2-4.9c-0.8,0-1.4,0-1.7-0.1c-4.4-1-6.6-3.9-6.6-8.7c0-2.5,0.8-4.6,2.5-6.4
				c1.7-1.7,3.6-2.6,6-2.6c2.3,0,4.3,0.9,5.9,2.6c1.6,1.7,2.4,3.9,2.4,6.4c0,1.2-0.4,2.8-1.1,4.9c-0.7,2-1.1,3.7-1.1,5v5.5
				c1.3-1.4,3.7-3.1,7.3-5.3c3.5-2.1,6-4,7.5-5.7c1.2-1.7,1.8-3.8,1.8-6.1v-11.9c0-2.8-1.3-5-3.9-6.6c-2.2-1.2-4.8-1.8-8-1.8
				c-3.4,0-6.2,0.7-8.6,2.1c-2.8,1.6-4.3,4-4.6,7.2h-7.3c1.2-10.8,8-16.3,20.3-16.3c5.3,0,9.7,1.1,13.2,3.4
				c4.2,2.8,6.3,6.9,6.3,12.5v12.3c0,3.3-0.9,5.7-2.7,7.3C494.4,919.3,496,922.1,496,925.9z M467.2,910.9c0-1.1-0.3-2.1-1-2.8
				c-0.7-0.7-1.6-1.1-2.6-1.1c-1,0-1.9,0.4-2.6,1.1c-0.7,0.7-1,1.7-1,2.8c0,1.1,0.3,2.1,1,2.8c0.7,0.7,1.5,1.1,2.6,1.1
				c1,0,1.9-0.4,2.6-1.1C466.9,912.9,467.2,912,467.2,910.9z M490.6,926.1c0-1.1-0.4-2.1-1.1-2.9c-0.7-0.8-1.6-1.2-2.7-1.2
				c-1,0-1.9,0.4-2.7,1.2c-0.7,0.8-1.1,1.7-1.1,2.9c0,1.1,0.4,2.1,1.1,2.9c0.7,0.8,1.6,1.2,2.7,1.2c1,0,1.9-0.4,2.7-1.2
				C490.3,928.1,490.6,927.2,490.6,926.1z"/>
			<path class="st4" d="M493.9,965.3h-7.3v-9.9h-0.5c-2,0-3.7-0.8-5.1-2.3c-1.4-1.5-2.1-3.3-2.1-5.4c0-2.2,0.7-4,2.1-5.6
				c1.4-1.6,3.2-2.3,5.3-2.3c2,0,3.8,0.7,5.3,2.1c1.5,1.4,2.3,3.3,2.3,5.7V965.3z M489.7,947.4c0-1-0.3-1.8-1-2.5
				c-0.6-0.7-1.4-1-2.3-1c-0.9,0-1.7,0.3-2.4,1c-0.7,0.7-1,1.5-1,2.5c0,1,0.3,1.8,1,2.5c0.7,0.7,1.5,1.1,2.4,1.1
				c0.9,0,1.7-0.4,2.3-1.1C489.4,949.2,489.7,948.3,489.7,947.4z"/>
			<path class="st4" d="M541.2,934.8h-7.5v-34.4c0-3.5-1-6.4-3-8.4c-2-2.1-4.7-3.1-8-3.1c-4.8,0-8.5,2.2-11,6.5
				c3.8,0.8,6.5,2.7,8.1,5.8c-4.1,2.6-6.2,5.7-6.2,9.4v24.2h-7.5v-24.7c0-3.6,1.7-6.5,5-8.6c-2-1.5-4.5-2-7.4-1.6
				c0.2-5.4,2.1-9.8,5.8-13.3c3.4-3.2,7.7-4.8,12.9-4.8c5.8,0,10.4,1.7,13.7,5c3.3,3.3,5,7.9,5,13.6V934.8z"/>
			<path class="st4" d="M572,925.9c0,2.8-0.9,5.1-2.7,7c-1.8,1.9-4,2.9-6.5,2.9c-2.7,0-5-1-6.9-3c-1.9-2-2.8-4.5-2.8-7.5v-42.4h7.5
				v33.4c0.4-0.2,1.1-0.3,2.2-0.3c2.5,0,4.7,1,6.5,2.9C571.1,920.8,572,923.2,572,925.9z M566.9,925.9c0-1.2-0.4-2.3-1.2-3.1
				c-0.8-0.9-1.8-1.3-2.9-1.3c-1.1,0-2.1,0.4-2.9,1.3c-0.8,0.9-1.2,1.9-1.2,3.1c0,1.2,0.4,2.3,1.2,3.1c0.8,0.9,1.8,1.3,2.9,1.3
				c1.1,0,2.1-0.4,2.9-1.3C566.5,928.2,566.9,927.1,566.9,925.9z"/>
			<path class="st4" d="M617.3,925.9c0,2.8-0.9,5.1-2.7,7c-1.8,1.9-3.9,2.9-6.5,2.9c-2.3,0-4.4-0.8-6.2-2.5
				c-1.8-1.7-2.7-3.8-2.9-6.3c-2.8,1.1-5.6,3.7-8.5,7.8h-6.9v-10.1c0-2.4,0.4-4.1,1.2-4.9c-0.8,0-1.4,0-1.7-0.1
				c-4.4-1-6.6-3.9-6.6-8.7c0-2.5,0.8-4.6,2.5-6.4c1.7-1.7,3.6-2.6,6-2.6c2.3,0,4.3,0.9,5.9,2.6c1.6,1.7,2.4,3.9,2.4,6.4
				c0,1.2-0.4,2.8-1.1,4.9c-0.7,2-1.1,3.7-1.1,5v5.5c1.3-1.4,3.7-3.1,7.3-5.3c3.5-2.1,6-4,7.5-5.7c1.2-1.7,1.8-3.8,1.8-6.1v-11.9
				c0-2.8-1.3-5-3.9-6.6c-2.2-1.2-4.8-1.8-8-1.8c-3.4,0-6.2,0.7-8.6,2.1c-2.8,1.6-4.4,4-4.6,7.2h-7.3c1.2-10.8,8-16.3,20.3-16.3
				c5.3,0,9.7,1.1,13.2,3.4c4.2,2.8,6.3,6.9,6.3,12.5v12.3c0,3.3-0.9,5.7-2.7,7.3C615.7,919.3,617.3,922.1,617.3,925.9z
				 M588.5,910.9c0-1.1-0.3-2.1-1-2.8c-0.7-0.7-1.6-1.1-2.6-1.1c-1,0-1.9,0.4-2.6,1.1c-0.7,0.7-1,1.7-1,2.8c0,1.1,0.3,2.1,1,2.8
				c0.7,0.7,1.6,1.1,2.6,1.1c1,0,1.9-0.4,2.6-1.1C588.2,912.9,588.5,912,588.5,910.9z M612,926.1c0-1.1-0.4-2.1-1.1-2.9
				c-0.7-0.8-1.6-1.2-2.7-1.2c-1,0-1.9,0.4-2.7,1.2c-0.7,0.8-1.1,1.7-1.1,2.9c0,1.1,0.4,2.1,1.1,2.9c0.7,0.8,1.6,1.2,2.7,1.2
				c1,0,1.9-0.4,2.7-1.2C611.6,928.1,612,927.2,612,926.1z"/>
			<path class="st4" d="M615.5,876.3c-10-3.5-19.1-5.2-27.4-5.2c-3.8,0-7.6,0.3-11.5,0.8c1-11.6,6.8-17.4,17.6-17.4
				c6.2,0,11.1,2,14.7,6C612.6,864.5,614.7,869.8,615.5,876.3z M607.7,868.6c-0.5-2.2-1.9-4.2-4.4-6.1c-2.4-1.9-5.2-2.9-8.2-2.9
				c-2.9,0-5.4,0.6-7.5,1.9c-2.1,1.3-3.4,2.9-4,5c1.4-0.3,3.5-0.5,6.4-0.5C596.1,866,601.9,866.9,607.7,868.6z"/>
			<path class="st4" d="M667.6,910.2c0,3.5-0.8,5.9-2.5,7.2c3.1,1.9,4.7,4.8,4.7,8.6c0,2.8-0.9,5.1-2.7,7c-1.8,1.9-3.9,2.8-6.4,2.8
				c-2.3,0-4.4-0.8-6-2.4c-1.7-1.6-2.7-3.6-3-6c-2.6,1.4-4.4,2.4-5.6,3.1c-1.9,1.3-3.5,2.7-4.6,4.3h-7.6v-33.4
				c-0.8,0.2-1.5,0.3-2.1,0.3c-2.6,0-4.8-1-6.5-2.9c-1.8-2-2.7-4.3-2.7-7.1c0-2.7,0.9-5,2.7-6.9c1.8-1.9,3.9-2.9,6.5-2.9
				c2.7,0,5,1,6.8,3c1.8,2,2.7,4.5,2.7,7.5v33c1.3-1,4.2-2.6,8.7-4.5c4-1.8,6.8-3.6,8.3-5.5c1.1-1.3,1.7-3.4,1.7-6.2v-26.3h7.5
				V910.2z M635.9,891.7c0-1.2-0.4-2.3-1.2-3.1c-0.8-0.9-1.8-1.3-2.9-1.3c-1.1,0-2.1,0.4-2.9,1.3c-0.8,0.9-1.2,1.9-1.2,3.1
				c0,1.2,0.4,2.3,1.2,3.1c0.8,0.9,1.8,1.3,2.9,1.3c1.1,0,2.1-0.4,2.9-1.3C635.5,894,635.9,893,635.9,891.7z M664.7,926
				c0-1.2-0.4-2.2-1.2-3.1c-0.8-0.9-1.8-1.3-2.9-1.3c-1.1,0-2.1,0.4-2.9,1.3c-0.8,0.9-1.2,1.9-1.2,3.1c0,1.2,0.4,2.2,1.2,3.1
				c0.8,0.9,1.8,1.3,2.9,1.3c1.1,0,2.1-0.4,2.9-1.3C664.3,928.2,664.7,927.2,664.7,926z"/>
		</g>
	</g>
	<g>
		<rect x="52.1" y="54.2" class="st5" width="737" height="694.5"/>
		<g>
			<path class="st6" d="M427.1,152.7V152c-2.2-0.1-4.3-0.2-6.5,0c-2.2-0.1-4.3-0.1-6.5,0v0.7c-4.3,0.7-8.5,2-12.5,3.7
				c-15.7,6.1-26.2,20.5-26.7,36.8c0,2.6,0.3,5.1,0.8,7.6H263.5l-0.9-0.8l-31,38.2l-1.5,7.8h-0.2v1.1l-20.4,105.6v59.3l0.1,0v105.3
				h-0.4v39.1c-10.7,1.7-18.5,10.5-18.5,20.9s7.8,19.2,18.5,20.9v29.2h0.4V683h69v-67.2h284.1V683h69v-55.8h0.4V598
				c10.7-1.7,18.5-10.5,18.5-20.9s-7.8-19.2-18.5-20.9v-39.1h-0.4V411.9l0.1,0v-59.3L611.3,247v-1.1h-0.2l-1.5-7.8l-31-38.2
				l-0.8,0.8H465.4c0.5-2.5,0.8-5,0.8-7.6c-0.5-16.2-11-30.7-26.7-36.8C435.6,154.7,431.4,153.4,427.1,152.7 M414.1,598.1h205.6v8.4
				l-57.1,0H278.6l-57.1,0v-8.4H414.1z M414.1,547.8h205.6v8.4H221.5v-8.4H414.1z M414.1,289.9h180.3l13,56.3l7.4,59H226.4l7.4-59
				l13-56.3H414.1z M414.1,228h154.8l6.8,17.8H265.5l6.8-17.8H414.1z"/>
			<path class="st5" d="M613.9,485.9c0,7.2-3,14.1-8.3,19.1c-5.3,5.1-12.5,7.9-20,7.9c-7.5,0-14.7-2.8-20-7.9
				c-5.3-5.1-8.3-11.9-8.3-19.1c0-7.2,3-14,8.3-19.1c5.3-5.1,12.5-7.9,20-7.9c7.5,0,14.7,2.8,20,7.9
				C610.9,471.9,613.9,478.7,613.9,485.9"/>
			<path class="st6" d="M607.4,485.9c0,11.5-9.7,20.8-21.7,20.8c-12,0-21.7-9.3-21.7-20.8c0-11.5,9.7-20.8,21.7-20.8
				C597.7,465.1,607.4,474.4,607.4,485.9"/>
			<polyline class="st5" points="411,481.2 387.5,481.2 387.5,463.4 411,463.4 411,440.8 429.6,440.8 429.6,463.4 453.2,463.4 
				453.2,481.2 429.6,481.2 429.6,503.7 411,503.7 411,481.2 			"/>
			<path class="st5" d="M227.3,485.9c0-7.2,3-14,8.3-19.1c5.3-5.1,12.5-7.9,20-7.9c7.5,0,14.7,2.8,20,7.9c5.3,5.1,8.3,11.9,8.3,19.1
				c0,7.2-3,14.1-8.3,19.1c-5.3,5.1-12.5,7.9-20,7.9c-7.5,0-14.7-2.8-20-7.9C230.3,500,227.3,493.1,227.3,485.9"/>
			<path class="st6" d="M233.8,485.9c0-11.5,9.7-20.8,21.7-20.8c12,0,21.7,9.3,21.7,20.8c0,11.5-9.7,20.8-21.7,20.8
				C243.6,506.7,233.8,497.4,233.8,485.9"/>
			<path class="st5" d="M387.7,194.3c0.4-14.5,9.8-27.4,23.9-32.7c2.3-1.1,5.2-0.3,6.5,1.8c1.3,2.1,0.7,4.9-1.4,6.4
				c-5.2,1.8-9.1,5.9-10.4,10.9c-1.4,5.1,0,10.5,3.6,14.4c-2.7,3.3-6.9,5.2-11.3,5.1C394.2,200,390.2,197.9,387.7,194.3"/>
			<path class="st5" d="M220.4,454.8v-8c129.3-43.6,270.2-43.6,399.5,0v8C490.5,411.8,349.8,411.8,220.4,454.8"/>
		</g>
	</g>
	<g id="stecon_56_">
		<path id="red_56_" class="st7" d="M52.1,54.2c42.5,0,85,0,127.6,0c0,22.6,0,45.1,0,67.7c-42.5,0-85,0-127.5,0c0-0.2,0-0.5,0-0.7
			c0-22.1,0-44.2,0-66.3C52.1,54.6,52.1,54.4,52.1,54.2z M55.1,88c0.2,0.1,0.4,0.2,0.5,0.3c3.6,1.8,7.1,3.7,10.7,5.5
			c16.4,8.4,32.7,16.8,49.1,25.2c0.4,0.2,0.7,0.2,1.1,0c13.8-7.1,27.6-14.2,41.4-21.3c6.1-3.2,12.3-6.3,18.4-9.5
			c0.1-0.1,0.3-0.2,0.5-0.3c-0.2-0.1-0.3-0.2-0.5-0.3c-3.8-1.9-7.6-3.9-11.4-5.8c-16.2-8.3-32.4-16.7-48.5-25
			c-0.3-0.2-0.5-0.2-0.9,0c-7,3.6-14.1,7.3-21.1,10.9c-12.6,6.5-25.2,12.9-37.7,19.4C56.2,87.5,55.7,87.7,55.1,88z"/>
		<g id="white_56_">
			<path class="st2" d="M55.1,88c0.6-0.3,1.1-0.6,1.6-0.8c12.6-6.5,25.2-12.9,37.7-19.4c7-3.6,14.1-7.2,21.1-10.9
				c0.3-0.2,0.6-0.1,0.9,0c16.2,8.3,32.4,16.7,48.5,25c3.8,1.9,7.6,3.9,11.4,5.8c0.1,0.1,0.3,0.1,0.5,0.3c-0.2,0.1-0.3,0.2-0.5,0.3
				c-6.1,3.2-12.3,6.3-18.4,9.5c-13.8,7.1-27.6,14.2-41.4,21.3c-0.4,0.2-0.7,0.2-1.1,0c-16.4-8.4-32.7-16.8-49.1-25.2
				c-3.6-1.8-7.1-3.7-10.7-5.5C55.4,88.2,55.3,88.1,55.1,88z M59,88c0.2,0.1,0.3,0.2,0.4,0.2c1,0.5,1.9,1,2.9,1.5
				c17.7,9.1,35.5,18.2,53.2,27.3c0.3,0.1,0.5,0.2,0.8,0c12.9-6.6,25.7-13.2,38.6-19.8c5.8-3,11.6-6,17.5-9c0.1-0.1,0.3-0.2,0.5-0.3
				c-0.2-0.1-0.4-0.2-0.6-0.3c-15.9-8.2-31.9-16.4-47.8-24.5c-2.7-1.4-5.5-2.8-8.2-4.2c-0.2-0.1-0.4-0.1-0.7,0
				c-0.3,0.2-0.7,0.4-1.1,0.6c-18.3,9.4-36.6,18.8-54.9,28.1C59.4,87.8,59.2,87.9,59,88z"/>
			<path class="st2" d="M146.7,80.1c1.4,0,2.7,0,4.1,0c0,5.2,0,10.3,0,15.4c-1.4,0-2.8,0-4.2,0c-0.9-2.6-1.8-5.3-2.7-7.9
				c0,0-0.1,0-0.1,0c0,2.6,0,5.2,0,7.9c-1.4,0-2.7,0-4,0c0,0,0,0,0,0c0,0,0,0,0,0c0-0.1,0-0.2,0-0.3c0-4.9,0-9.9,0-14.8
				c0,0,0-0.1,0-0.2c0.1,0,0.3,0,0.4,0c1.2,0,2.3,0,3.5,0c0.4,0,0.4,0,0.5,0.4c0.8,2.5,1.6,5,2.4,7.5c0,0.1,0.1,0.2,0.2,0.4
				C146.7,85.7,146.7,83,146.7,80.1z"/>
			<path class="st2" d="M138.1,87.9c0,1.5,0,3,0,4.5c0,0.8-0.3,1.4-0.8,1.9c-0.7,0.7-1.6,1.2-2.6,1.3c-1.5,0.3-3.1,0.3-4.6-0.1
				c-0.9-0.2-1.6-0.6-2.3-1.3c-0.5-0.5-0.8-1.1-0.8-1.9c0-3,0-6.1,0-9.1c0-0.7,0.2-1.3,0.7-1.8c0.6-0.7,1.4-1.2,2.3-1.4
				c1.7-0.4,3.5-0.4,5.2,0.1c0.7,0.2,1.4,0.6,2,1.2c0.6,0.5,0.9,1.2,0.8,2C138.1,85,138.1,86.5,138.1,87.9z M133.4,88
				c0-1.5,0-2.9,0-4.4c0-0.7-0.1-0.9-0.8-0.9c-0.1,0-0.2,0-0.2,0c-0.5,0.1-0.6,0.2-0.6,0.7c0,3,0,6,0,9c0,0.5,0.1,0.7,0.6,0.7
				c0.2,0,0.3,0,0.5,0c0.5-0.1,0.6-0.2,0.6-0.7C133.4,91,133.4,89.5,133.4,88z"/>
			<path class="st2" d="M126,89.6c0,0.2,0,0.3,0,0.5c0,0.8,0,1.6,0,2.4c0,0.8-0.3,1.5-0.9,2c-0.7,0.7-1.5,1.1-2.5,1.3
				c-1.5,0.3-3,0.3-4.5-0.1c-0.8-0.2-1.5-0.6-2.2-1.2c-0.6-0.6-0.9-1.2-0.9-2.1c0-3,0-5.9,0-8.9c0-0.9,0.3-1.6,0.9-2.1
				c0.7-0.7,1.6-1.1,2.5-1.2c1.4-0.2,2.9-0.2,4.3,0.1c0.9,0.2,1.6,0.6,2.3,1.2c0.6,0.6,0.9,1.2,0.9,2.1c0,0.8,0,1.7,0,2.5
				c0,0.2,0,0.3,0,0.5c-1.6,0-3.1,0-4.6,0c0-0.2,0-0.3,0-0.5c0-0.9,0-1.7,0-2.6c0-0.5-0.1-0.6-0.6-0.7c-0.1,0-0.2,0-0.3,0
				c-0.7,0.1-0.7,0.3-0.7,0.8c0,2.9,0,5.9,0,8.8c0,0.1,0,0.2,0,0.3c0,0.2,0.1,0.4,0.3,0.4c0.1,0,0.3,0.1,0.4,0.1
				c0.6,0.1,0.8-0.2,0.8-0.8c0-0.8,0-1.5,0-2.3c0-0.2,0-0.3,0-0.5C121.6,89.5,125.3,89.5,126,89.6z"/>
			<path class="st2" d="M104.8,95.6c0-5.1,0-10.2,0-15.3c0.4-0.1,8.7-0.1,9.1,0c0,0.8,0,1.6,0,2.5c-0.1,0-0.3,0-0.4,0
				c-1.1,0-2.2,0-3.3,0c-0.1,0-0.3,0-0.5,0c0,1.4,0,2.7,0,4.1c1,0,2.1,0,3.1,0c0,0.8,0,1.5,0,2.2c-0.4,0.1-0.7,0.1-1,0.1
				c-0.3,0-0.7,0-1,0c-0.3,0-0.7,0-1,0c-0.1,0.3-0.1,2.8,0,3.7c0.1,0,0.3,0,0.5,0c1.1,0,2.2,0,3.3,0c0.2,0,0.3,0,0.5,0
				c0,0.9,0,1.8,0,2.6C113.5,95.6,105.3,95.7,104.8,95.6z"/>
			<path class="st2" d="M100.4,95.6c-1.6,0-3.1,0-4.7,0c0-4.3,0-8.5,0-12.8c-1,0-2,0-3,0c-0.1-0.4-0.1-2.1,0-2.6
				c0.3-0.1,10.4-0.1,10.8,0c0.1,0.3,0.1,2.1,0,2.6c-1,0-2,0-3,0C100.4,87.1,100.4,91.3,100.4,95.6z"/>
			<path class="st2" d="M91.4,85.6c-1.6,0-3.1,0-4.6,0c0-0.2,0-0.3,0-0.5c0-0.6,0-1.2,0-1.8c0-0.4-0.1-0.6-0.5-0.6
				c-0.1,0-0.2,0-0.4,0c-0.3,0-0.5,0.2-0.5,0.5c0,0.6,0,1.1,0,1.7c0,0.4,0.2,0.6,0.5,0.8c0.4,0.2,0.7,0.4,1.1,0.7
				c1,0.6,2,1.1,2.9,1.7c0.1,0.1,0.3,0.2,0.4,0.3c0.7,0.5,1.1,1.2,1.1,2.1c0,0.7,0,1.3,0,2c0,0.7-0.2,1.3-0.7,1.7
				c-0.7,0.7-1.5,1.2-2.4,1.4c-1.5,0.4-3.1,0.4-4.7,0c-0.8-0.2-1.6-0.6-2.2-1.2c-0.6-0.5-0.9-1.2-0.9-2.1c0-0.8,0-1.5,0-2.3
				c0.3-0.1,3.9-0.1,4.5,0c0,0.1,0,0.3,0,0.4c0,0.7,0,1.3,0,2c0,0.4,0.1,0.6,0.5,0.6c0.2,0,0.5,0,0.7-0.1c0.2,0,0.3-0.2,0.3-0.4
				c0-0.6,0-1.2,0-1.8c0-0.3-0.2-0.6-0.4-0.7c-0.4-0.3-0.8-0.5-1.2-0.8c-1-0.6-2-1.2-2.9-1.8c-0.3-0.2-0.6-0.4-0.9-0.7
				c-0.4-0.4-0.6-0.9-0.6-1.5c0-0.7,0-1.3,0-2c0-0.8,0.3-1.4,0.8-1.9c0.7-0.7,1.6-1.2,2.6-1.4c1.4-0.3,2.8-0.3,4.2,0.1
				c0.9,0.2,1.7,0.7,2.3,1.3c0.5,0.5,0.8,1.1,0.8,1.9C91.4,84.1,91.4,84.8,91.4,85.6z"/>
		</g>
		<g id="blue_56_">
			<path class="st8" d="M59,88c0.3-0.1,0.5-0.2,0.7-0.3c18.3-9.4,36.6-18.8,54.9-28.1c0.4-0.2,0.7-0.4,1.1-0.6
				c0.2-0.1,0.4-0.1,0.7,0c2.7,1.4,5.4,2.8,8.2,4.2c15.9,8.2,31.9,16.4,47.8,24.5c0.2,0.1,0.3,0.2,0.6,0.3c-0.2,0.1-0.3,0.2-0.5,0.3
				c-5.8,3-11.6,6-17.5,9c-12.9,6.6-25.7,13.2-38.6,19.8c-0.3,0.1-0.5,0.1-0.8,0C97.8,107.9,80,98.8,62.3,89.7c-1-0.5-1.9-1-2.9-1.5
				C59.3,88.2,59.2,88.1,59,88z M146.7,80.1c0,2.8,0,5.5,0,8.3c-0.1-0.1-0.1-0.2-0.2-0.4c-0.8-2.5-1.6-5-2.4-7.5
				c-0.1-0.4-0.1-0.4-0.5-0.4c-1.2,0-2.3,0-3.5,0c-0.1,0-0.3,0-0.4,0c0,0.1,0,0.1,0,0.2c0,4.9,0,9.9,0,14.8c0,0.1,0,0.2,0,0.3
				c0,0,0,0,0,0c0,0,0,0,0,0c1.3,0,2.7,0,4,0c0-2.7,0-5.3,0-7.9c0,0,0.1,0,0.1,0c0.9,2.6,1.8,5.3,2.7,7.9c1.4,0,2.8,0,4.2,0
				c0-5.1,0-10.2,0-15.4C149.5,80.1,148.1,80.1,146.7,80.1z M138.1,87.9c0-1.5,0-3,0-4.5c0-0.8-0.3-1.5-0.8-2c-0.6-0.6-1.2-1-2-1.2
				c-1.7-0.5-3.5-0.5-5.2-0.1c-0.9,0.2-1.7,0.7-2.3,1.4c-0.4,0.5-0.7,1.1-0.7,1.8c0,3,0,6.1,0,9.1c0,0.8,0.3,1.4,0.8,1.9
				c0.6,0.7,1.4,1.1,2.3,1.3c1.5,0.3,3.1,0.3,4.6,0.1c1-0.2,1.8-0.6,2.6-1.3c0.5-0.5,0.8-1.2,0.8-1.9
				C138.1,91,138.1,89.5,138.1,87.9z M126,89.6c-0.6-0.1-4.3-0.1-4.7,0c0,0.1,0,0.3,0,0.5c0,0.8,0,1.5,0,2.3c0,0.7-0.2,0.9-0.8,0.8
				c-0.1,0-0.3,0-0.4-0.1c-0.2-0.1-0.3-0.2-0.3-0.4c0-0.1,0-0.2,0-0.3c0-2.9,0-5.9,0-8.8c0-0.5,0-0.7,0.7-0.8c0.1,0,0.2,0,0.3,0
				c0.5,0.1,0.6,0.2,0.6,0.7c0,0.9,0,1.7,0,2.6c0,0.2,0,0.3,0,0.5c1.6,0,3.1,0,4.6,0c0-0.2,0-0.4,0-0.5c0-0.8,0-1.7,0-2.5
				c0-0.9-0.3-1.5-0.9-2.1c-0.7-0.6-1.4-1-2.3-1.2c-1.4-0.3-2.9-0.3-4.3-0.1c-0.9,0.2-1.8,0.6-2.5,1.2c-0.6,0.6-0.9,1.3-0.9,2.1
				c0,3,0,5.9,0,8.9c0,0.9,0.3,1.6,0.9,2.1c0.6,0.6,1.4,1,2.2,1.2c1.5,0.3,3,0.3,4.5,0.1c0.9-0.2,1.8-0.6,2.5-1.3
				c0.6-0.5,0.9-1.2,0.9-2c0-0.8,0-1.6,0-2.4C126,89.9,126,89.7,126,89.6z M91.4,85.6c0-0.7,0-1.4,0-2.1c0-0.8-0.3-1.4-0.8-1.9
				c-0.7-0.7-1.4-1.1-2.3-1.3c-1.4-0.3-2.8-0.3-4.2-0.1c-1,0.2-1.9,0.6-2.6,1.4c-0.5,0.5-0.8,1.1-0.8,1.9c0,0.7,0,1.3,0,2
				c0,0.6,0.2,1.1,0.6,1.5c0.3,0.2,0.6,0.5,0.9,0.7c1,0.6,2,1.2,2.9,1.8c0.4,0.2,0.8,0.5,1.2,0.8c0.2,0.2,0.4,0.4,0.4,0.7
				c0,0.6,0,1.2,0,1.8c0,0.2-0.1,0.4-0.3,0.4c-0.2,0-0.5,0.1-0.7,0.1c-0.4,0-0.5-0.2-0.5-0.6c0-0.7,0-1.3,0-2c0-0.1,0-0.3,0-0.4
				c-0.6-0.1-4.2-0.1-4.5,0c0,0.7,0,1.5,0,2.3c0,0.9,0.3,1.5,0.9,2.1c0.6,0.6,1.4,1,2.2,1.2c1.6,0.4,3.1,0.3,4.7,0
				c0.9-0.2,1.7-0.7,2.4-1.4c0.4-0.5,0.7-1.1,0.7-1.7c0-0.7,0-1.3,0-2c0-0.9-0.4-1.6-1.1-2.1c-0.1-0.1-0.3-0.2-0.4-0.3
				c-1-0.6-2-1.1-2.9-1.7c-0.4-0.2-0.7-0.4-1.1-0.7c-0.3-0.2-0.5-0.4-0.5-0.8c0-0.6,0-1.1,0-1.7c0-0.3,0.2-0.5,0.5-0.5
				c0.1,0,0.2,0,0.4,0c0.4,0,0.5,0.2,0.5,0.6c0,0.6,0,1.2,0,1.8c0,0.1,0,0.3,0,0.5C88.4,85.6,89.9,85.6,91.4,85.6z M104.8,95.6
				c0.5,0.1,8.8,0.1,9.1,0c0-0.9,0-1.7,0-2.6c-0.2,0-0.3,0-0.5,0c-1.1,0-2.2,0-3.3,0c-0.2,0-0.3,0-0.5,0c-0.1-0.8,0-3.3,0-3.7
				c0.3,0,0.7,0,1,0c0.3,0,0.7,0,1,0c0.3,0,0.7,0.1,1-0.1c0-0.7,0-1.5,0-2.2c-1.1,0-2.1,0-3.1,0c0-1.4,0-2.7,0-4.1
				c0.2,0,0.3,0,0.5,0c1.1,0,2.2,0,3.3,0c0.1,0,0.3,0,0.4,0c0-0.9,0-1.7,0-2.5c-0.4-0.1-8.7-0.1-9.1,0
				C104.8,85.3,104.8,90.4,104.8,95.6z M100.4,95.6c0-4.3,0-8.5,0-12.8c1,0,2,0,3,0c0.1-0.5,0.1-2.2,0-2.6c-0.4-0.1-10.5-0.1-10.8,0
				c-0.1,0.4-0.1,2.2,0,2.6c1,0,2,0,3,0c0,4.3,0,8.5,0,12.8C97.2,95.6,98.8,95.6,100.4,95.6z"/>
			<path class="st8" d="M133.4,88c0,1.5,0,3,0,4.5c0,0.5-0.1,0.6-0.6,0.7c-0.2,0-0.3,0-0.5,0c-0.5-0.1-0.6-0.2-0.6-0.7c0-3,0-6,0-9
				c0-0.5,0.1-0.6,0.6-0.7c0.1,0,0.2,0,0.2,0c0.7,0,0.8,0.1,0.8,0.9C133.4,85.1,133.4,86.5,133.4,88z"/>
		</g>
	</g>
</g>
</svg>
