<?xml version="1.0" encoding="utf-8"?>
<!-- Generator: Adobe Illustrator 22.0.0, SVG Export Plug-In . SVG Version: 6.00 Build 0)  -->
<svg version="1.1" id="Layer_1" xmlns="http://www.w3.org/2000/svg" xmlns:xlink="http://www.w3.org/1999/xlink" x="0px" y="0px"
	 viewBox="0 0 841.9 1190.6" style="enable-background:new 0 0 841.9 1190.6;" xml:space="preserve">
<style type="text/css">
	.st0{fill:none;}
	.st1{fill:#010101;}
	.st2{fill:#FFFFFF;}
	.st3{fill:#077147;}
	.st4{fill:#FFFFFF;stroke:#FFFFFF;stroke-miterlimit:10;}
	.st5{fill-rule:evenodd;clip-rule:evenodd;fill:#077147;}
	.st6{fill-rule:evenodd;clip-rule:evenodd;fill:#FFFFFF;}
	.st7{fill:#EB2627;}
	.st8{fill:#2A3B8F;}
	.st9{fill:#08713D;}
	.st10{fill-rule:evenodd;clip-rule:evenodd;fill:#08713D;}
	.st11{fill:#FFFFFF;stroke:#FFFFFF;stroke-width:2;stroke-miterlimit:10;}
	.st12{fill:#FFFFFF;stroke:#FFFFFF;stroke-width:3;stroke-miterlimit:10;}
	.st13{display:none;fill:#FFFFFF;stroke:#000000;stroke-miterlimit:10;}
	.st14{display:none;}
	.st15{display:inline;fill:#EB2627;}
	.st16{display:inline;}
	.st17{fill:#FFFFFF;stroke:#FFFFFF;stroke-width:5;stroke-miterlimit:10;}
	.st18{fill:#FFFFFF;stroke:#FFFFFF;stroke-width:5;}
	.st19{fill:#FFFFFF;stroke:#FFFFFF;stroke-width:6;stroke-miterlimit:10;}
</style>
<g>
	<g>
		<rect x="0" y="0" class="st0" width="841.9" height="1190.6"/>
		<rect x="28.3" y="28.3" class="st1" width="785.2" height="1133.9"/>
		<rect x="34" y="34" class="st2" width="773.9" height="1122.5"/>
		<rect x="52.5" y="792.6" class="st3" width="737" height="348.7"/>
	</g>
	<g>
		<g>
			<path class="st4" d="M248.4,1051.3v-53.7h23.7v9.1h-16.7v12.7h14.4v9.1h-14.4v22.8H248.4z"/>
			<path class="st4" d="M277.7,1051.3v-53.7h7v53.7H277.7z"/>
			<path class="st4" d="M291.3,1051.3v-53.7H306c3.7,0,6.4,0.5,8,1.4c1.7,1,3,2.7,4,5.1c1,2.5,1.5,5.3,1.5,8.5c0,4-0.8,7.4-2.3,10
				c-1.5,2.6-3.8,4.3-6.8,5c1.5,1.4,2.8,2.9,3.7,4.5c1,1.6,2.3,4.5,4,8.7l4.2,10.5H314l-5-11.7c-1.8-4.2-3-6.8-3.7-7.9
				c-0.7-1.1-1.4-1.8-2.1-2.2c-0.7-0.4-1.9-0.6-3.5-0.6h-1.4v22.4H291.3z M298.3,1020.3h5.2c3.3,0,5.4-0.2,6.3-0.7
				c0.8-0.4,1.5-1.2,2-2.3c0.5-1.1,0.7-2.4,0.7-4c0-1.8-0.3-3.3-0.9-4.4s-1.5-1.8-2.6-2.1c-0.6-0.1-2.3-0.2-5.1-0.2h-5.4V1020.3z"/>
			<path class="st4" d="M324.4,1033.8l6.8-1c0.4,3.5,1.2,6.1,2.5,7.8c1.3,1.7,2.9,2.5,5.1,2.5c2.2,0,3.9-0.7,5.1-2.2
				c1.1-1.5,1.7-3.2,1.7-5.2c0-1.3-0.2-2.3-0.7-3.2c-0.5-0.9-1.3-1.7-2.5-2.3c-0.8-0.4-2.7-1.2-5.6-2.3c-3.7-1.4-6.4-3.2-7.9-5.3
				c-2.1-3-3.2-6.6-3.2-10.8c0-2.7,0.5-5.3,1.5-7.7c1-2.4,2.4-4.2,4.3-5.4s4.1-1.9,6.8-1.9c4.3,0,7.6,1.5,9.8,4.4s3.3,6.9,3.5,11.8
				l-7,0.5c-0.3-2.8-0.9-4.7-1.9-6c-1-1.2-2.5-1.8-4.4-1.8c-2,0-3.6,0.6-4.8,1.9c-0.7,0.8-1.1,1.9-1.1,3.3c0,1.3,0.3,2.4,1,3.3
				c0.9,1.1,3,2.3,6.4,3.6c3.4,1.2,5.9,2.5,7.5,3.9s2.9,3.1,3.8,5.5c0.9,2.3,1.4,5.2,1.4,8.6c0,3.1-0.6,6-1.6,8.6
				c-1.1,2.7-2.7,4.7-4.7,6c-2,1.3-4.5,2-7.5,2c-4.4,0-7.7-1.6-10.1-4.7C326.2,1044.4,324.8,1039.8,324.4,1033.8z"/>
			<path class="st4" d="M366.1,1051.3v-44.6h-10.3v-9.1h27.5v9.1h-10.2v44.6H366.1z"/>
			<path class="st4" d="M444,1051.3h-7.6l-3-12.2h-13.8l-2.9,12.2h-7.4l13.5-53.7h7.4L444,1051.3z M431.1,1030l-4.8-19.9l-4.7,19.9
				H431.1z"/>
			<path class="st4" d="M447.5,1051.3v-53.7h7v53.7H447.5z"/>
			<path class="st4" d="M461.1,997.6h12.7c2.9,0,5.1,0.3,6.6,1c2,0.9,3.8,2.6,5.2,4.9s2.5,5.3,3.3,8.7s1.1,7.7,1.1,12.7
				c0,4.4-0.4,8.2-1.1,11.4c-0.9,3.9-2.1,7.1-3.7,9.5c-1.2,1.8-2.8,3.3-4.9,4.3c-1.5,0.8-3.6,1.1-6.2,1.1h-13.1V997.6z
				 M468.1,1006.7v35.6h5.2c1.9,0,3.4-0.2,4.2-0.5c1.1-0.4,2.1-1.2,2.8-2.2c0.7-1,1.4-2.8,1.8-5.2c0.5-2.4,0.7-5.7,0.7-9.8
				s-0.2-7.3-0.7-9.6c-0.5-2.2-1.1-4-2-5.2c-0.8-1.2-1.9-2.1-3.2-2.5c-1-0.3-2.9-0.5-5.7-0.5H468.1z"/>
			<path class="st4" d="M522.9,1051.3v-53.7h7v23.8l14.1-23.8h9.4l-13,20.9l13.7,32.8h-9l-9.5-25.2l-5.7,9v16.2H522.9z"/>
			<path class="st4" d="M557.4,1051.3v-53.7h7v53.7H557.4z"/>
			<path class="st4" d="M578.8,1051.3v-44.6h-10.3v-9.1H596v9.1h-10.2v44.6H578.8z"/>
		</g>
		<g>
			<path class="st4" d="M196.8,921.9c0,4.2-1.2,7.5-3.7,9.8c-2.5,2.3-5.7,3.4-9.7,3.4c-4,0-7.3-1.1-9.7-3.4
				c-2.5-2.3-3.7-5.6-3.7-9.8v-8.4c0-2.5,1.1-5.9,3.2-10c2.1-4.2,3.2-7.5,3.2-9.9c0-2-0.6-3.6-1.9-4.9c-1.3-1.3-2.8-1.9-4.5-1.9
				c-2.6,0-4.3,0.5-5.2,1.6c2.4,0.1,4.4,0.9,5.9,2.5c1.5,1.6,2.2,3.6,2.2,6c0,2.6-0.8,4.8-2.5,6.6c-1.7,1.8-3.7,2.7-6,2.7
				c-2.7,0-4.9-1.1-6.6-3.2c-1.7-2.1-2.5-4.7-2.5-7.7c0-4,1.5-7.3,4.4-9.9c2.9-2.6,6.3-3.9,10.2-3.9c4,0,7.3,1,9.8,3.1
				c2.5,2.1,3.8,5.1,3.8,9.1c0,2.6-1,6.2-3,10.9c-2,4.7-3,8-3,9.9v9.5c0,1.5,0.6,2.6,1.9,3.4c1.2,0.8,2.6,1.2,4,1.2
				c1.5,0,2.9-0.4,4.1-1.2c1.2-0.8,1.8-1.9,1.8-3.3v-21.4c0-3.2-1.2-5.2-3.5-6c0.3-1.6,0.4-3.1,0.1-4.5c4.1-1.6,6.2-5.8,6.2-12.4
				h7.5c-0.6,6.7-2.7,11.6-6.4,14.7c2.4,2.1,3.6,4.8,3.6,8.2V921.9z M168,896.9c0-1.1-0.4-2.1-1.1-2.9c-0.7-0.8-1.6-1.2-2.7-1.2
				c-1,0-1.9,0.4-2.7,1.2s-1.1,1.7-1.1,2.9c0,1.1,0.4,2.1,1.1,2.9c0.7,0.8,1.6,1.2,2.7,1.2c1,0,1.9-0.4,2.7-1.2
				C167.7,899,168,898.1,168,896.9z"/>
			<path class="st4" d="M196.8,964.7h-7.3v-9.9H189c-2,0-3.7-0.8-5.1-2.3c-1.4-1.5-2.1-3.3-2.1-5.4c0-2.2,0.7-4,2.1-5.6
				c1.4-1.6,3.2-2.3,5.3-2.3c2,0,3.8,0.7,5.3,2.1c1.5,1.4,2.3,3.3,2.3,5.7V964.7z M192.6,946.7c0-1-0.3-1.8-1-2.5
				c-0.6-0.7-1.4-1-2.3-1c-0.9,0-1.7,0.3-2.4,1c-0.7,0.7-1,1.5-1,2.5c0,1,0.3,1.8,1,2.5c0.7,0.7,1.5,1.1,2.4,1.1
				c0.9,0,1.7-0.4,2.3-1.1C192.2,948.5,192.6,947.7,192.6,946.7z"/>
			<path class="st4" d="M245.7,934.1h-7.5v-34.7c0-3.3-1.1-6-3.4-8c-2.3-2.1-5-3.1-8.1-3.1c-3.4,0-6.3,1.2-8.8,3.7
				c-2.5,2.5-3.7,5.4-3.7,8.9c0,2.2,0.7,5.2,2,9.2c1.3,4,2,6.9,2,8.9c0,0.6-0.1,1.4-0.2,2.5c2.3-4.1,4.9-7.5,7.7-10.3
				c-2.3-0.2-4-1.1-5.3-2.9c-1.2-1.5-1.8-3.3-1.8-5.5c0-2.3,0.8-4.2,2.4-5.9c1.6-1.7,3.4-2.5,5.6-2.5s4,0.8,5.6,2.5
				c1.5,1.7,2.3,3.7,2.3,5.9c0,3.9-1.8,8.2-5.3,13c-4.9,6.5-7.6,10.4-8.3,11.7c-1.2,2.3-1.8,4.5-1.8,6.6h-7.6
				c0.1-3.2,0.1-6.2,0.1-8.8c0-4.7-0.5-8.3-1.5-10.8c-0.7-2.3-1.5-4.6-2.2-7c-0.7-2.4-1.1-4.5-1.1-6.3c0-5.9,1.9-10.7,5.7-14.4
				c3.8-3.7,8.5-5.6,14-5.6c5.6,0,10.1,1.6,13.7,4.7c3.8,3.4,5.7,8,5.7,13.9V934.1z M230.1,902.8c0-1.1-0.3-2.1-1-2.8
				c-0.7-0.7-1.6-1.1-2.6-1.1c-1,0-1.9,0.4-2.6,1.1c-0.7,0.7-1,1.7-1,2.8c0,1.1,0.3,2.1,1,2.8c0.7,0.7,1.5,1.1,2.6,1.1
				c1,0,1.9-0.4,2.6-1.1C229.8,904.8,230.1,903.9,230.1,902.8z"/>
			<path class="st4" d="M299.5,922.4c0,8.5-5.8,12.7-17.5,12.7c-11.8,0-17.6-4.2-17.6-12.7v-21.7c-0.8,0.2-1.5,0.3-2.1,0.3
				c-2.6,0-4.8-1-6.5-2.9c-1.8-2-2.7-4.3-2.7-7.1c0-2.7,0.9-5,2.7-6.9c1.8-1.9,3.9-2.9,6.5-2.9c2.7,0,5,1,6.8,3
				c1.8,2,2.7,4.5,2.7,7.5v30.7c0,1.7,1.1,3.1,3.3,4.1c2.2,1,4.5,1.6,6.9,1.6c2.3,0,4.6-0.5,6.8-1.6s3.3-2.4,3.3-4.2v-61h7.5V922.4z
				 M266.4,891.1c0-1.2-0.4-2.3-1.2-3.1c-0.8-0.9-1.8-1.3-2.9-1.3c-1.1,0-2.1,0.4-2.9,1.3c-0.8,0.9-1.2,1.9-1.2,3.1
				c0,1.2,0.4,2.3,1.2,3.1c0.8,0.9,1.8,1.3,2.9,1.3c1.1,0,2.1-0.4,2.9-1.3C266,893.3,266.4,892.3,266.4,891.1z"/>
			<path class="st4" d="M343.6,955.3c0,5.8-2.7,8.7-8.1,8.7h-9.9l-5.3-7.8c-0.2,2.1-1,3.9-2.5,5.3c-1.5,1.5-3.3,2.2-5.2,2.2
				c-2.7,0-4.8-0.9-6.3-2.6c-1.5-1.7-2.3-3.9-2.3-6.6c0-2.7,0.8-4.9,2.5-6.6c1.7-1.7,3.9-2.5,6.8-2.5c1.6,0,2.7,0.2,3.4,0.7
				c0.2-2.9,1.7-5.1,4.4-6.6l3.7,2.3c-2.4,1.2-3.6,3.6-3.6,7.3l5.9,8.6h6.3c2.6,0,3.9-0.7,3.9-2.2v-1.7h-1.5c-2.2,0-4-0.7-5.5-2.1
				c-1.5-1.4-2.2-3.2-2.2-5.3c0-2,0.7-3.7,2.2-5.2c1.5-1.5,3.3-2.2,5.5-2.2c2.1,0,3.9,0.7,5.5,2.2c1.6,1.5,2.4,3.2,2.4,5.2V955.3z
				 M316.1,951.9c-1-0.4-2-0.6-2.8-0.6c-3.1,0-4.6,1.1-4.6,3.4c0,2.2,1,3.3,3.1,3.3C314.6,957.9,316.1,955.9,316.1,951.9z
				 M343.6,923.3c0,7.9-3.8,11.8-11.5,11.8c-7.4,0-11.1-3.7-11.1-11.2v-4.3c-0.6,0.2-1.2,0.3-1.7,0.3c-2.3,0-4.3-0.8-5.8-2.5
				c-1.5-1.7-2.3-3.7-2.3-6.2c0-2.5,0.9-4.6,2.6-6.2c1.7-1.6,3.7-2.5,5.9-2.5c2.4,0,4.5,0.8,6.2,2.4c1.7,1.6,2.6,3.7,2.6,6.2v12.6
				c0,3.1,1.2,4.7,3.7,4.7c2.6,0,3.9-1.6,3.9-4.7V905c0-1.8-3.8-3.6-11.4-5.5c-6.5-1.5-11.5-2.2-15-2.2c0.5-5.5,2.4-9.8,5.7-12.6
				c2.7-2.3,6.1-3.5,10.2-3.5c1.5,0,3.8,0.4,6.8,1.3c3,0.9,5.4,1.3,7.1,1.3c1.2,0,2-1,2.3-3.1l6.2,1.7c-1.5,6-4.4,9-8.8,9
				c-1.5,0-3.8-0.5-6.7-1.6c-2.9-1-5.2-1.6-6.8-1.6c-1.2,0-2.6,0.3-4.2,1c-1.6,0.7-2.6,1.5-3.1,2.4c9.3,1.6,16.1,3.6,20.5,5.7
				c3.1,1.6,4.7,3.9,4.7,6.9V923.3z M322.8,911.2c0-1-0.3-1.9-1-2.7c-0.7-0.7-1.5-1.1-2.5-1.1s-1.8,0.4-2.5,1.1
				c-0.7,0.7-1,1.6-1,2.7s0.3,1.9,1,2.7c0.7,0.7,1.5,1.1,2.5,1.1s1.8-0.4,2.5-1.1C322.5,913.2,322.8,912.3,322.8,911.2z
				 M338.3,946.3c0-0.8-0.3-1.4-0.8-2c-0.5-0.5-1.2-0.8-2-0.8c-0.8,0-1.4,0.3-1.9,0.8c-0.5,0.5-0.7,1.2-0.7,2c0,0.8,0.2,1.5,0.7,2
				c0.5,0.6,1.1,0.8,1.9,0.8c0.8,0,1.5-0.3,2-0.8C338,947.8,338.3,947.1,338.3,946.3z"/>
			<path class="st4" d="M394.8,934.1h-7.5c-4.7-4.5-9.4-7.7-14.1-9.5v0.7c0,2.8-1,5.1-3,7c-2,1.9-4.2,2.9-6.7,2.9
				c-2.7,0-5-1-6.9-3.1s-2.9-4.5-2.9-7.4c0-2.9,1-5.3,2.9-7.3c1.9-2,4.2-3.1,6.9-3.1h0.8v-13.5c-0.8,0.2-1.5,0.3-2.1,0.3
				c-2.6,0-4.8-1-6.5-2.9c-1.8-2-2.7-4.3-2.7-7.1c0-2.7,0.9-5,2.7-6.9c1.8-1.9,3.9-2.9,6.5-2.9c2.7,0,5,1,6.8,3
				c1.8,2,2.7,4.5,2.7,7.5v24.7c6.4,2.3,11.5,5.4,15.5,9.2v-43.4h7.5V934.1z M366.4,891.1c0-1.2-0.4-2.3-1.2-3.1
				c-0.8-0.9-1.8-1.3-2.9-1.3c-1.1,0-2.1,0.4-2.9,1.3c-0.8,0.9-1.2,1.9-1.2,3.1c0,1.2,0.4,2.3,1.2,3.1c0.8,0.9,1.8,1.3,2.9,1.3
				c1.1,0,2.1-0.4,2.9-1.3C366,893.3,366.4,892.3,366.4,891.1z M367.7,924.6c0-1.2-0.4-2.3-1.2-3.1c-0.8-0.9-1.8-1.3-2.9-1.3
				c-1.1,0-2.1,0.4-2.9,1.3c-0.8,0.9-1.2,1.9-1.2,3.1c0,1.2,0.4,2.3,1.2,3.1c0.8,0.9,1.8,1.3,2.9,1.3c1.1,0,2.1-0.4,2.9-1.3
				C367.3,926.9,367.7,925.8,367.7,924.6z"/>
			<path class="st4" d="M453.1,934.1h-8.5l-11.4-40.3l-11.7,40.3h-8.1v-33.4c-0.8,0.2-1.5,0.3-2.1,0.3c-2.6,0-4.8-1-6.5-2.9
				c-1.8-2-2.7-4.3-2.7-7.1c0-2.7,0.9-5,2.7-6.9c1.8-1.9,3.9-2.9,6.5-2.9c2.7,0,5,1,6.8,3c1.8,2,2.7,4.5,2.7,7.5v19.4
				c0,2.3-0.5,6.8-1.4,13.8c1.8-7.9,2.8-12.1,3-12.7l8.5-27.7h4.6l8.5,27.7c0.2,0.5,1.2,4.8,3,12.7c-1-6.9-1.5-11.5-1.5-13.8v-28.9
				h7.5V934.1z M415.5,891.1c0-1.2-0.4-2.3-1.2-3.1c-0.8-0.9-1.8-1.3-2.9-1.3c-1.1,0-2.1,0.4-2.9,1.3c-0.8,0.9-1.2,1.9-1.2,3.1
				c0,1.2,0.4,2.3,1.2,3.1c0.8,0.9,1.8,1.3,2.9,1.3c1.1,0,2.1-0.4,2.9-1.3C415.1,893.3,415.5,892.3,415.5,891.1z"/>
			<path class="st4" d="M499.7,921c0,9.4-6,14.2-17.9,14.2c-11.8,0-17.8-4.7-17.8-14.2v-6c0-4.2,1.6-7.1,4.9-8.8
				c-3.6-2.7-5.5-6.6-5.5-11.8c0-3.8,1-7,3-9.4c2-2.5,4.7-3.7,8.2-3.7c2.4,0,4.5,0.8,6.2,2.4c1.7,1.6,2.5,3.7,2.5,6.3
				c0,2.3-0.8,4.4-2.3,6.1c-1.5,1.7-3.6,2.6-6.1,2.6c-1.3,0-2.4-0.2-3.4-0.6c0.6,3.3,2.1,4.9,4.4,4.9h8.6v6.4h-8.6
				c-1.3,0-2.3,0.6-3.1,1.8c-0.8,1.2-1.2,2.6-1.2,4.1v5.9c0,4.6,3.4,7,10.3,7c7,0,10.5-2.3,10.5-7v-38.9h7.5V921z M478.8,890
				c0-1.2-0.4-2.2-1.1-3c-0.7-0.8-1.7-1.2-2.8-1.2c-1.1,0-2.1,0.4-2.8,1.2c-0.7,0.8-1.1,1.8-1.1,3c0,1.2,0.4,2.2,1.1,3
				s1.7,1.2,2.8,1.2c1.1,0,2.1-0.4,2.8-1.2S478.8,891.3,478.8,890z"/>
			<path class="st4" d="M540.3,934.1h-7.5v-37.7c0-2.4-0.8-4.4-2.3-5.9c-1.5-1.5-3.6-2.3-6.3-2.3c-2.7,0-4.8,0.9-6.5,2.8
				c-1.7,1.9-2.6,4.3-2.7,7.2h-7.3c0.2-5.2,1.8-9.3,4.8-12.4c2.9-3.1,6.8-4.6,11.7-4.6c4.5,0,8.3,1.2,11.4,3.7
				c3.1,2.5,4.7,6.2,4.7,11.2V934.1z"/>
			<path class="st4" d="M594.1,922.4c0,8.5-5.8,12.7-17.5,12.7c-11.8,0-17.6-4.2-17.6-12.7v-21.7c-0.8,0.2-1.5,0.3-2.1,0.3
				c-2.6,0-4.8-1-6.5-2.9c-1.8-2-2.7-4.3-2.7-7.1c0-2.7,0.9-5,2.7-6.9c1.8-1.9,3.9-2.9,6.5-2.9c2.7,0,5,1,6.8,3
				c1.8,2,2.7,4.5,2.7,7.5v30.7c0,1.7,1.1,3.1,3.3,4.1c2.2,1,4.5,1.6,6.9,1.6c2.3,0,4.6-0.5,6.8-1.6c2.2-1,3.3-2.4,3.3-4.1v-40.2
				h7.5V922.4z M561,891.1c0-1.2-0.4-2.3-1.2-3.1c-0.8-0.9-1.8-1.3-2.9-1.3c-1.1,0-2.1,0.4-2.9,1.3c-0.8,0.9-1.2,1.9-1.2,3.1
				c0,1.2,0.4,2.3,1.2,3.1c0.8,0.9,1.8,1.3,2.9,1.3c1.1,0,2.1-0.4,2.9-1.3C560.6,893.3,561,892.3,561,891.1z"/>
			<path class="st4" d="M634.7,934.1h-7.5v-37.7c0-2.4-0.8-4.4-2.3-5.9c-1.5-1.5-3.6-2.3-6.3-2.3c-2.7,0-4.8,0.9-6.5,2.8
				c-1.7,1.9-2.6,4.3-2.7,7.2h-7.3c0.2-5.2,1.8-9.3,4.8-12.4c2.9-3.1,6.8-4.6,11.7-4.6c4.5,0,8.3,1.2,11.4,3.7
				c3.1,2.5,4.7,6.2,4.7,11.2V934.1z"/>
			<path class="st4" d="M682.9,934.1h-7.5v-22.5c0-2.6-1.4-4.6-4.1-6c-2.1-1-4.4-1.6-7-1.6c-2.5,0-4.6,0.7-6.4,2
				c-2.2,1.6-3.3,3.6-3.3,6.2v3.3c0.6-0.2,1.4-0.3,2.2-0.3c2.6,0,4.8,1,6.6,2.9c1.9,2,2.8,4.3,2.8,7c0,2.8-1,5.1-2.9,7
				c-1.9,1.9-4.2,2.9-6.6,2.9c-2.7,0-4.9-0.9-6.8-2.8c-1.9-1.9-2.8-4.2-2.8-7.1v-12c0-5.1,1.8-9.1,5.3-12c3.1-2.5,7-3.8,11.7-3.8
				c5,0,8.7,1.5,11.2,4.4v-5.8c0-2.7-1.5-4.7-4.4-6.2c-2.3-1.1-4.8-1.7-7.6-1.7c-3.1,0-5.8,0.8-8.1,2.3c-2.5,1.7-4,4-4.5,6.9h-7.3
				c0.5-5.3,2.6-9.4,6.4-12.2c3.5-2.7,8.1-4,13.7-4c5,0,9.3,1.3,12.9,3.8c4.2,2.9,6.3,6.8,6.3,12V934.1z M660.9,925.1
				c0-1.2-0.4-2.3-1.2-3.1c-0.8-0.9-1.8-1.3-2.9-1.3c-1.1,0-2.1,0.4-2.9,1.3c-0.8,0.9-1.2,1.9-1.2,3.1c0,1.2,0.4,2.3,1.2,3.1
				c0.8,0.9,1.8,1.3,2.9,1.3c1.1,0,2.1-0.4,2.9-1.3C660.5,927.4,660.9,926.4,660.9,925.1z"/>
		</g>
	</g>
	<g>
		<rect x="52.4" y="53.5" class="st5" width="737" height="694.5"/>
		<g>
			<path class="st6" d="M642.7,267.8c33.6,0,60.9,26.5,60.9,59.1v273.9c0,32.7-27.3,59.1-60.9,59.1l-443.5,0
				c-33.6,0-60.9-26.5-60.9-59.1l0-273.9c0-32.7,27.3-59.1,60.9-59.1l109.1,0l0-56.3c0-16.3,13.6-29.6,30.4-29.6h163.5
				c16.8,0,30.4,13.2,30.4,29.6l0,56.3L642.7,267.8 M505.7,267.8v-44.9c0-3.9-1.6-7.7-4.5-10.5c-2.9-2.8-6.7-4.3-10.8-4.3h-140
				c-4,0-7.9,1.6-10.8,4.3c-2.8,2.8-4.5,6.5-4.4,10.5l0,44.9H505.7z"/>
			<polyline class="st5" points="376.2,423.7 376.2,341.2 459.1,341.2 459.1,423.7 545.5,423.7 545.5,502.9 459.1,502.9 
				459.1,585.4 376.2,585.4 376.2,502.9 289.8,502.9 289.8,423.7 376.2,423.7 			"/>
		</g>
	</g>
	<g id="stecon_60_">
		<path id="red_60_" class="st7" d="M52.4,53.5c42.5,0,85,0,127.6,0c0,22.6,0,45.1,0,67.7c-42.5,0-85,0-127.5,0c0-0.2,0-0.5,0-0.7
			c0-22.1,0-44.2,0-66.3C52.5,54,52.5,53.8,52.4,53.5z M55.4,87.4c0.2,0.1,0.4,0.2,0.5,0.3c3.6,1.8,7.1,3.7,10.7,5.5
			c16.4,8.4,32.7,16.8,49.1,25.2c0.4,0.2,0.7,0.2,1.1,0c13.8-7.1,27.6-14.2,41.4-21.3c6.1-3.2,12.3-6.3,18.4-9.5
			c0.1-0.1,0.3-0.2,0.5-0.3c-0.2-0.1-0.3-0.2-0.5-0.3c-3.8-1.9-7.6-3.9-11.4-5.8c-16.2-8.3-32.4-16.7-48.5-25
			c-0.3-0.2-0.5-0.2-0.9,0c-7,3.6-14.1,7.3-21.1,10.9C82.1,73.6,69.6,80.1,57,86.5C56.5,86.8,56,87.1,55.4,87.4z"/>
		<g id="white_60_">
			<path class="st2" d="M55.4,87.4c0.6-0.3,1.1-0.6,1.6-0.8c12.6-6.5,25.2-12.9,37.7-19.4c7-3.6,14.1-7.2,21.1-10.9
				c0.3-0.2,0.6-0.1,0.9,0c16.2,8.3,32.4,16.7,48.5,25c3.8,1.9,7.6,3.9,11.4,5.8c0.1,0.1,0.3,0.1,0.5,0.3c-0.2,0.1-0.3,0.2-0.5,0.3
				c-6.1,3.2-12.3,6.3-18.4,9.5c-13.8,7.1-27.6,14.2-41.4,21.3c-0.4,0.2-0.7,0.2-1.1,0C99.4,110,83,101.6,66.6,93.1
				c-3.6-1.8-7.1-3.7-10.7-5.5C55.8,87.6,55.6,87.5,55.4,87.4z M59.3,87.4c0.2,0.1,0.3,0.2,0.4,0.2c1,0.5,1.9,1,2.9,1.5
				c17.7,9.1,35.5,18.2,53.2,27.3c0.3,0.1,0.5,0.2,0.8,0c12.9-6.6,25.7-13.2,38.6-19.8c5.8-3,11.6-6,17.5-9c0.1-0.1,0.3-0.2,0.5-0.3
				c-0.2-0.1-0.4-0.2-0.6-0.3c-15.9-8.2-31.9-16.4-47.8-24.5c-2.7-1.4-5.5-2.8-8.2-4.2c-0.2-0.1-0.4-0.1-0.7,0
				c-0.3,0.2-0.7,0.4-1.1,0.6C96.6,68.3,78.3,77.6,60,87C59.8,87.1,59.6,87.2,59.3,87.4z"/>
			<path class="st2" d="M147,79.5c1.4,0,2.7,0,4.1,0c0,5.2,0,10.3,0,15.4c-1.4,0-2.8,0-4.2,0c-0.9-2.6-1.8-5.3-2.7-7.9
				c0,0-0.1,0-0.1,0c0,2.6,0,5.2,0,7.9c-1.4,0-2.7,0-4,0c0,0,0,0,0,0c0,0,0,0,0,0c0-0.1,0-0.2,0-0.3c0-4.9,0-9.9,0-14.8
				c0,0,0-0.1,0-0.2c0.1,0,0.3,0,0.4,0c1.2,0,2.3,0,3.5,0c0.4,0,0.4,0,0.5,0.4c0.8,2.5,1.6,5,2.4,7.5c0,0.1,0.1,0.2,0.2,0.4
				C147,85,147,82.3,147,79.5z"/>
			<path class="st2" d="M138.4,87.3c0,1.5,0,3,0,4.5c0,0.8-0.3,1.4-0.8,1.9c-0.7,0.7-1.6,1.2-2.6,1.3c-1.5,0.3-3.1,0.3-4.6-0.1
				c-0.9-0.2-1.6-0.6-2.3-1.3c-0.5-0.5-0.8-1.1-0.8-1.9c0-3,0-6.1,0-9.1c0-0.7,0.2-1.3,0.7-1.8c0.6-0.7,1.4-1.2,2.3-1.4
				c1.7-0.4,3.5-0.4,5.2,0.1c0.7,0.2,1.4,0.6,2,1.2c0.6,0.5,0.9,1.2,0.8,2C138.4,84.3,138.4,85.8,138.4,87.3z M133.8,87.3
				c0-1.5,0-2.9,0-4.4c0-0.7-0.1-0.9-0.8-0.9c-0.1,0-0.2,0-0.2,0c-0.5,0.1-0.6,0.2-0.6,0.7c0,3,0,6,0,9c0,0.5,0.1,0.7,0.6,0.7
				c0.2,0,0.3,0,0.5,0c0.5-0.1,0.6-0.2,0.6-0.7C133.8,90.3,133.8,88.8,133.8,87.3z"/>
			<path class="st2" d="M126.3,88.9c0,0.2,0,0.3,0,0.5c0,0.8,0,1.6,0,2.4c0,0.8-0.3,1.5-0.9,2c-0.7,0.7-1.5,1.1-2.5,1.3
				c-1.5,0.3-3,0.3-4.5-0.1c-0.8-0.2-1.5-0.6-2.2-1.2c-0.6-0.6-0.9-1.2-0.9-2.1c0-3,0-5.9,0-8.9c0-0.9,0.3-1.6,0.9-2.1
				c0.7-0.7,1.6-1.1,2.5-1.2c1.4-0.2,2.9-0.2,4.3,0.1c0.9,0.2,1.6,0.6,2.3,1.2c0.6,0.6,0.9,1.2,0.9,2.1c0,0.8,0,1.7,0,2.5
				c0,0.2,0,0.3,0,0.5c-1.6,0-3.1,0-4.6,0c0-0.2,0-0.3,0-0.5c0-0.9,0-1.7,0-2.6c0-0.5-0.1-0.6-0.6-0.7c-0.1,0-0.2,0-0.3,0
				c-0.7,0.1-0.7,0.3-0.7,0.8c0,2.9,0,5.9,0,8.8c0,0.1,0,0.2,0,0.3c0,0.2,0.1,0.4,0.3,0.4c0.1,0,0.3,0.1,0.4,0.1
				c0.6,0.1,0.8-0.2,0.8-0.8c0-0.8,0-1.5,0-2.3c0-0.2,0-0.3,0-0.5C122,88.8,125.7,88.8,126.3,88.9z"/>
			<path class="st2" d="M105.1,94.9c0-5.1,0-10.2,0-15.3c0.4-0.1,8.7-0.1,9.1,0c0,0.8,0,1.6,0,2.5c-0.1,0-0.3,0-0.4,0
				c-1.1,0-2.2,0-3.3,0c-0.1,0-0.3,0-0.5,0c0,1.4,0,2.7,0,4.1c1,0,2.1,0,3.1,0c0,0.8,0,1.5,0,2.2c-0.4,0.1-0.7,0.1-1,0.1
				c-0.3,0-0.7,0-1,0c-0.3,0-0.7,0-1,0c-0.1,0.3-0.1,2.8,0,3.7c0.1,0,0.3,0,0.5,0c1.1,0,2.2,0,3.3,0c0.2,0,0.3,0,0.5,0
				c0,0.9,0,1.8,0,2.6C113.9,95,105.7,95,105.1,94.9z"/>
			<path class="st2" d="M100.7,94.9c-1.6,0-3.1,0-4.7,0c0-4.3,0-8.5,0-12.8c-1,0-2,0-3,0c-0.1-0.4-0.1-2.1,0-2.6
				c0.3-0.1,10.4-0.1,10.8,0c0.1,0.3,0.1,2.1,0,2.6c-1,0-2,0-3,0C100.7,86.4,100.7,90.6,100.7,94.9z"/>
			<path class="st2" d="M91.8,84.9c-1.6,0-3.1,0-4.6,0c0-0.2,0-0.3,0-0.5c0-0.6,0-1.2,0-1.8c0-0.4-0.1-0.6-0.5-0.6
				c-0.1,0-0.2,0-0.4,0c-0.3,0-0.5,0.2-0.5,0.5c0,0.6,0,1.1,0,1.7c0,0.4,0.2,0.6,0.5,0.8c0.4,0.2,0.7,0.4,1.1,0.7
				c1,0.6,2,1.1,2.9,1.7c0.1,0.1,0.3,0.2,0.4,0.3c0.7,0.5,1.1,1.2,1.1,2.1c0,0.7,0,1.3,0,2c0,0.7-0.2,1.3-0.7,1.7
				c-0.7,0.7-1.5,1.2-2.4,1.4c-1.5,0.4-3.1,0.4-4.7,0c-0.8-0.2-1.6-0.6-2.2-1.2c-0.6-0.5-0.9-1.2-0.9-2.1c0-0.8,0-1.5,0-2.3
				c0.3-0.1,3.9-0.1,4.5,0c0,0.1,0,0.3,0,0.4c0,0.7,0,1.3,0,2c0,0.4,0.1,0.6,0.5,0.6c0.2,0,0.5,0,0.7-0.1c0.2,0,0.3-0.2,0.3-0.4
				c0-0.6,0-1.2,0-1.8c0-0.3-0.2-0.6-0.4-0.7c-0.4-0.3-0.8-0.5-1.2-0.8c-1-0.6-2-1.2-2.9-1.8c-0.3-0.2-0.6-0.4-0.9-0.7
				c-0.4-0.4-0.6-0.9-0.6-1.5c0-0.7,0-1.3,0-2c0-0.8,0.3-1.4,0.8-1.9c0.7-0.7,1.6-1.2,2.6-1.4c1.4-0.3,2.8-0.3,4.2,0.1
				c0.9,0.2,1.7,0.7,2.3,1.3c0.5,0.5,0.8,1.1,0.8,1.9C91.7,83.5,91.8,84.2,91.8,84.9z"/>
		</g>
		<g id="blue_60_">
			<path class="st8" d="M59.3,87.4c0.3-0.1,0.5-0.2,0.7-0.3c18.3-9.4,36.6-18.8,54.9-28.1c0.4-0.2,0.7-0.4,1.1-0.6
				c0.2-0.1,0.4-0.1,0.7,0c2.7,1.4,5.4,2.8,8.2,4.2c15.9,8.2,31.9,16.4,47.8,24.5c0.2,0.1,0.3,0.2,0.6,0.3c-0.2,0.1-0.3,0.2-0.5,0.3
				c-5.8,3-11.6,6-17.5,9c-12.9,6.6-25.7,13.2-38.6,19.8c-0.3,0.1-0.5,0.1-0.8,0c-17.7-9.1-35.5-18.2-53.2-27.3
				c-1-0.5-1.9-1-2.9-1.5C59.6,87.5,59.5,87.5,59.3,87.4z M147,79.5c0,2.8,0,5.5,0,8.3c-0.1-0.1-0.1-0.2-0.2-0.4
				c-0.8-2.5-1.6-5-2.4-7.5c-0.1-0.4-0.1-0.4-0.5-0.4c-1.2,0-2.3,0-3.5,0c-0.1,0-0.3,0-0.4,0c0,0.1,0,0.1,0,0.2c0,4.9,0,9.9,0,14.8
				c0,0.1,0,0.2,0,0.3c0,0,0,0,0,0c0,0,0,0,0,0c1.3,0,2.7,0,4,0c0-2.7,0-5.3,0-7.9c0,0,0.1,0,0.1,0c0.9,2.6,1.8,5.3,2.7,7.9
				c1.4,0,2.8,0,4.2,0c0-5.1,0-10.2,0-15.4C149.8,79.5,148.5,79.5,147,79.5z M138.4,87.3c0-1.5,0-3,0-4.5c0-0.8-0.3-1.5-0.8-2
				c-0.6-0.6-1.2-1-2-1.2c-1.7-0.5-3.5-0.5-5.2-0.1c-0.9,0.2-1.7,0.7-2.3,1.4c-0.4,0.5-0.7,1.1-0.7,1.8c0,3,0,6.1,0,9.1
				c0,0.8,0.3,1.4,0.8,1.9c0.6,0.7,1.4,1.1,2.3,1.3c1.5,0.3,3.1,0.3,4.6,0.1c1-0.2,1.8-0.6,2.6-1.3c0.5-0.5,0.8-1.2,0.8-1.9
				C138.4,90.3,138.4,88.8,138.4,87.3z M126.3,88.9c-0.6-0.1-4.3-0.1-4.7,0c0,0.1,0,0.3,0,0.5c0,0.8,0,1.5,0,2.3
				c0,0.7-0.2,0.9-0.8,0.8c-0.1,0-0.3,0-0.4-0.1c-0.2-0.1-0.3-0.2-0.3-0.4c0-0.1,0-0.2,0-0.3c0-2.9,0-5.9,0-8.8c0-0.5,0-0.7,0.7-0.8
				c0.1,0,0.2,0,0.3,0c0.5,0.1,0.6,0.2,0.6,0.7c0,0.9,0,1.7,0,2.6c0,0.2,0,0.3,0,0.5c1.6,0,3.1,0,4.6,0c0-0.2,0-0.4,0-0.5
				c0-0.8,0-1.7,0-2.5c0-0.9-0.3-1.5-0.9-2.1c-0.7-0.6-1.4-1-2.3-1.2c-1.4-0.3-2.9-0.3-4.3-0.1c-0.9,0.2-1.8,0.6-2.5,1.2
				c-0.6,0.6-0.9,1.3-0.9,2.1c0,3,0,5.9,0,8.9c0,0.9,0.3,1.6,0.9,2.1c0.6,0.6,1.4,1,2.2,1.2c1.5,0.3,3,0.3,4.5,0.1
				c0.9-0.2,1.8-0.6,2.5-1.3c0.6-0.5,0.9-1.2,0.9-2c0-0.8,0-1.6,0-2.4C126.3,89.2,126.3,89.1,126.3,88.9z M91.8,84.9
				c0-0.7,0-1.4,0-2.1c0-0.8-0.3-1.4-0.8-1.9c-0.7-0.7-1.4-1.1-2.3-1.3c-1.4-0.3-2.8-0.3-4.2-0.1c-1,0.2-1.9,0.6-2.6,1.4
				c-0.5,0.5-0.8,1.1-0.8,1.9c0,0.7,0,1.3,0,2c0,0.6,0.2,1.1,0.6,1.5c0.3,0.2,0.6,0.5,0.9,0.7c1,0.6,2,1.2,2.9,1.8
				c0.4,0.2,0.8,0.5,1.2,0.8c0.2,0.2,0.4,0.4,0.4,0.7c0,0.6,0,1.2,0,1.8c0,0.2-0.1,0.4-0.3,0.4c-0.2,0-0.5,0.1-0.7,0.1
				c-0.4,0-0.5-0.2-0.5-0.6c0-0.7,0-1.3,0-2c0-0.1,0-0.3,0-0.4c-0.6-0.1-4.2-0.1-4.5,0c0,0.7,0,1.5,0,2.3c0,0.9,0.3,1.5,0.9,2.1
				c0.6,0.6,1.4,1,2.2,1.2c1.6,0.4,3.1,0.3,4.7,0c0.9-0.2,1.7-0.7,2.4-1.4c0.4-0.5,0.7-1.1,0.7-1.7c0-0.7,0-1.3,0-2
				c0-0.9-0.4-1.6-1.1-2.1c-0.1-0.1-0.3-0.2-0.4-0.3c-1-0.6-2-1.1-2.9-1.7c-0.4-0.2-0.7-0.4-1.1-0.7c-0.3-0.2-0.5-0.4-0.5-0.8
				c0-0.6,0-1.1,0-1.7c0-0.3,0.2-0.5,0.5-0.5c0.1,0,0.2,0,0.4,0c0.4,0,0.5,0.2,0.5,0.6c0,0.6,0,1.2,0,1.8c0,0.1,0,0.3,0,0.5
				C88.7,84.9,90.2,84.9,91.8,84.9z M105.1,94.9c0.5,0.1,8.8,0.1,9.1,0c0-0.9,0-1.7,0-2.6c-0.2,0-0.3,0-0.5,0c-1.1,0-2.2,0-3.3,0
				c-0.2,0-0.3,0-0.5,0c-0.1-0.8,0-3.3,0-3.7c0.3,0,0.7,0,1,0c0.3,0,0.7,0,1,0c0.3,0,0.7,0.1,1-0.1c0-0.7,0-1.5,0-2.2
				c-1.1,0-2.1,0-3.1,0c0-1.4,0-2.7,0-4.1c0.2,0,0.3,0,0.5,0c1.1,0,2.2,0,3.3,0c0.1,0,0.3,0,0.4,0c0-0.9,0-1.7,0-2.5
				c-0.4-0.1-8.7-0.1-9.1,0C105.1,84.7,105.1,89.8,105.1,94.9z M100.7,94.9c0-4.3,0-8.5,0-12.8c1,0,2,0,3,0c0.1-0.5,0.1-2.2,0-2.6
				c-0.4-0.1-10.5-0.1-10.8,0c-0.1,0.4-0.1,2.2,0,2.6c1,0,2,0,3,0c0,4.3,0,8.5,0,12.8C97.5,94.9,99.1,94.9,100.7,94.9z"/>
			<path class="st8" d="M133.8,87.3c0,1.5,0,3,0,4.5c0,0.5-0.1,0.6-0.6,0.7c-0.2,0-0.3,0-0.5,0c-0.5-0.1-0.6-0.2-0.6-0.7
				c0-3,0-6,0-9c0-0.5,0.1-0.6,0.6-0.7c0.1,0,0.2,0,0.2,0c0.7,0,0.8,0.1,0.8,0.9C133.8,84.4,133.8,85.9,133.8,87.3z"/>
		</g>
	</g>
</g>
</svg>
