<?xml version="1.0" encoding="utf-8"?>
<!-- Generator: Adobe Illustrator 22.0.0, SVG Export Plug-In . SVG Version: 6.00 Build 0)  -->
<svg version="1.1" id="Layer_1" xmlns="http://www.w3.org/2000/svg" xmlns:xlink="http://www.w3.org/1999/xlink" x="0px" y="0px"
	 viewBox="0 0 1190.6 841.9" style="enable-background:new 0 0 1190.6 841.9;" xml:space="preserve">
<style type="text/css">
	.st0{fill:none;}
	.st1{fill:#010101;}
	.st2{fill:#FFFFFF;}
	.st3{fill:#077147;}
	.st4{fill:#FFFFFF;stroke:#FFFFFF;stroke-miterlimit:10;}
	.st5{fill-rule:evenodd;clip-rule:evenodd;fill:#077147;}
	.st6{fill-rule:evenodd;clip-rule:evenodd;fill:#FFFFFF;}
	.st7{fill:#EB2627;}
	.st8{fill:#2A3B8F;}
	.st9{fill:#08713D;}
	.st10{fill-rule:evenodd;clip-rule:evenodd;fill:#08713D;}
	.st11{fill:#FFFFFF;stroke:#FFFFFF;stroke-width:2;stroke-miterlimit:10;}
	.st12{fill:#FFFFFF;stroke:#FFFFFF;stroke-width:3;stroke-miterlimit:10;}
	.st13{display:none;fill:#FFFFFF;stroke:#000000;stroke-miterlimit:10;}
	.st14{display:none;}
	.st15{display:inline;fill:#EB2627;}
	.st16{display:inline;}
	.st17{fill:#FFFFFF;stroke:#FFFFFF;stroke-width:5;stroke-miterlimit:10;}
	.st18{fill:#FFFFFF;stroke:#FFFFFF;stroke-width:5;}
	.st19{fill:#FFFFFF;stroke:#FFFFFF;stroke-width:6;stroke-miterlimit:10;}
</style>
<g>
	<g>
		<rect x="0" y="0.6" class="st0" width="1190.6" height="840.8"/>
		<rect x="28.3" y="20.6" class="st2" width="1133.9" height="800.7"/>
		<rect x="28.3" y="568.3" class="st3" width="1133.9" height="253"/>
		<rect x="28.3" y="20.6" class="st3" width="1133.9" height="511.7"/>
		<g id="stecon_89_">
			<path id="red_89_" class="st7" d="M47.1,38.9c47.3,0,94.6,0,141.9,0c0,25.1,0,50.2,0,75.3c-47.3,0-94.6,0-141.8,0
				c0-0.3-0.1-0.5-0.1-0.8c0-24.6,0-49.2,0-73.7C47.2,39.4,47.1,39.1,47.1,38.9z M50.4,76.5c0.3,0.1,0.4,0.2,0.6,0.3
				c4,2,7.9,4.1,11.9,6.1c18.2,9.4,36.4,18.7,54.6,28.1c0.4,0.2,0.8,0.2,1.2,0c15.3-7.9,30.7-15.8,46-23.7c6.8-3.5,13.7-7,20.5-10.5
				c0.2-0.1,0.3-0.2,0.5-0.3c-0.2-0.1-0.4-0.2-0.5-0.3c-4.2-2.2-8.4-4.3-12.6-6.5c-18-9.3-36-18.5-54-27.8c-0.3-0.2-0.6-0.2-1,0
				c-7.8,4-15.7,8.1-23.5,12.1c-14,7.2-28,14.4-42,21.6C51.6,75.9,51.1,76.2,50.4,76.5z"/>
			<g id="white_89_">
				<path class="st2" d="M50.4,76.5c0.7-0.3,1.2-0.6,1.8-0.9c14-7.2,28-14.4,42-21.6c7.8-4,15.7-8.1,23.5-12.1c0.4-0.2,0.6-0.1,1,0
					c18,9.3,36,18.5,54,27.8c4.2,2.2,8.4,4.3,12.6,6.5c0.1,0.1,0.3,0.2,0.5,0.3c-0.2,0.1-0.4,0.2-0.5,0.3c-6.8,3.5-13.7,7-20.5,10.5
					c-15.3,7.9-30.7,15.8-46,23.7c-0.4,0.2-0.8,0.2-1.2,0c-18.2-9.4-36.4-18.7-54.6-28.1c-4-2-7.9-4.1-11.9-6.1
					C50.8,76.7,50.7,76.6,50.4,76.5z M54.8,76.5c0.2,0.1,0.3,0.2,0.5,0.3c1.1,0.6,2.2,1.1,3.2,1.7c19.7,10.1,39.5,20.2,59.2,30.3
					c0.3,0.2,0.5,0.2,0.9,0c14.3-7.3,28.6-14.7,43-22c6.5-3.3,13-6.6,19.4-10c0.2-0.1,0.3-0.2,0.5-0.3c-0.3-0.1-0.5-0.2-0.7-0.3
					c-17.7-9.1-35.5-18.2-53.2-27.3c-3-1.6-6.1-3.1-9.1-4.7c-0.3-0.1-0.5-0.2-0.7,0c-0.4,0.2-0.8,0.4-1.2,0.6
					C96.2,55.2,75.9,65.7,55.5,76.1C55.3,76.2,55.1,76.4,54.8,76.5z"/>
				<path class="st2" d="M152.4,67.7c1.6,0,3,0,4.5,0c0,5.8,0,11.4,0,17.2c-1.6,0-3.1,0-4.7,0c-1-2.9-2-5.9-3.1-8.8c0,0-0.1,0-0.1,0
					c0,2.9,0,5.8,0,8.8c-1.5,0-3,0-4.5,0c0,0,0,0,0,0c0,0,0,0,0,0c0-0.1,0-0.3,0-0.4c0-5.5,0-11,0-16.5c0,0,0-0.1,0.1-0.2
					c0.1,0,0.3,0,0.4,0c1.3,0,2.6,0,3.9,0c0.5,0,0.5,0,0.6,0.5c0.9,2.8,1.8,5.5,2.6,8.3c0,0.1,0.1,0.3,0.2,0.4
					C152.4,73.9,152.4,70.9,152.4,67.7z"/>
				<path class="st2" d="M142.8,76.4c0,1.7,0,3.3,0,5c0,0.9-0.3,1.6-0.9,2.2c-0.8,0.8-1.8,1.3-2.8,1.5c-1.7,0.3-3.4,0.3-5.1-0.1
					c-1-0.2-1.8-0.7-2.5-1.4c-0.6-0.6-0.9-1.3-0.9-2.1c0-3.4,0-6.7,0-10.1c0-0.8,0.3-1.4,0.7-2c0.7-0.8,1.6-1.3,2.6-1.5
					c1.9-0.4,3.9-0.4,5.8,0.1c0.8,0.2,1.6,0.7,2.2,1.3c0.6,0.6,0.9,1.3,0.9,2.2C142.8,73.1,142.8,74.8,142.8,76.4z M137.6,76.5
					c0-1.6,0-3.2,0-4.9c0-0.8-0.1-1-0.9-1c-0.1,0-0.2,0-0.3,0c-0.6,0.1-0.7,0.2-0.7,0.8c0,3.3,0,6.7,0,10c0,0.6,0.1,0.7,0.7,0.8
					c0.2,0,0.4,0,0.5,0c0.5-0.1,0.6-0.2,0.6-0.8C137.6,79.8,137.6,78.1,137.6,76.5z"/>
				<path class="st2" d="M129.3,78.2c0,0.2,0,0.4,0,0.6c0,0.9,0,1.8,0,2.6c0,0.9-0.3,1.7-1,2.3c-0.8,0.8-1.7,1.2-2.8,1.4
					c-1.7,0.3-3.3,0.3-5-0.1c-0.9-0.2-1.7-0.7-2.4-1.3c-0.7-0.6-1-1.4-1-2.4c0-3.3,0-6.6,0-9.9c0-1,0.4-1.8,1-2.4
					c0.8-0.7,1.8-1.2,2.8-1.4c1.6-0.3,3.2-0.3,4.8,0.1c1,0.2,1.8,0.7,2.5,1.3c0.7,0.6,1,1.4,1,2.3c0,0.9,0,1.9,0,2.8
					c0,0.2,0,0.3,0,0.6c-1.7,0-3.4,0-5.1,0c0-0.2,0-0.4,0-0.6c0-1,0-1.9,0-2.9c0-0.6-0.1-0.7-0.6-0.8c-0.1,0-0.2,0-0.3,0
					c-0.8,0.1-0.8,0.3-0.8,0.9c0,3.3,0,6.5,0,9.8c0,0.1,0,0.2,0,0.3c0,0.2,0.1,0.4,0.3,0.5c0.1,0.1,0.3,0.1,0.4,0.1
					c0.7,0.1,0.9-0.2,0.9-0.9c0-0.8,0-1.7,0-2.5c0-0.2,0-0.4,0-0.5C124.5,78.1,128.6,78.1,129.3,78.2z"/>
				<path class="st2" d="M105.7,84.9c0-5.7,0-11.4,0-17.1c0.4-0.1,9.7-0.1,10.1,0c0,0.9,0,1.8,0,2.8c-0.2,0-0.3,0-0.5,0
					c-1.2,0-2.5,0-3.7,0c-0.2,0-0.3,0-0.5,0c0,1.5,0,3,0,4.5c1.1,0,2.3,0,3.5,0c0,0.9,0,1.7,0,2.5c-0.4,0.2-0.8,0.1-1.2,0.1
					c-0.4,0-0.8,0-1.1,0c-0.4,0-0.8,0-1.1,0c-0.1,0.4-0.1,3.2-0.1,4.1c0.2,0,0.3,0,0.5,0c1.2,0,2.4,0,3.6,0c0.2,0,0.4,0,0.6,0
					c0,1,0,2,0,2.9C115.5,85,106.3,85,105.7,84.9z"/>
				<path class="st2" d="M100.8,84.9c-1.8,0-3.5,0-5.3,0c0-4.7,0-9.4,0-14.2c-1.2,0-2.3,0-3.4,0c-0.1-0.4-0.1-2.4,0-2.9
					c0.3-0.1,11.5-0.1,12,0c0.1,0.4,0.1,2.3,0,2.9c-1.1,0-2.2,0-3.4,0C100.8,75.4,100.8,80.2,100.8,84.9z"/>
				<path class="st2" d="M90.9,73.8c-1.7,0-3.4,0-5.1,0c0-0.2,0-0.3,0-0.5c0-0.7,0-1.3,0-2c0-0.4-0.2-0.6-0.6-0.7
					c-0.1,0-0.3,0-0.4,0c-0.3,0-0.5,0.2-0.5,0.6c0,0.6,0,1.2,0,1.9c0,0.4,0.2,0.7,0.5,0.9c0.4,0.2,0.8,0.5,1.2,0.7
					c1.1,0.6,2.2,1.2,3.3,1.9c0.2,0.1,0.3,0.2,0.5,0.3c0.8,0.5,1.2,1.3,1.2,2.3c0,0.7,0,1.5,0,2.2c0,0.8-0.3,1.4-0.7,1.9
					c-0.7,0.8-1.6,1.3-2.6,1.6c-1.7,0.4-3.5,0.4-5.2,0c-0.9-0.2-1.7-0.7-2.5-1.4c-0.7-0.6-1-1.4-1-2.3c0-0.8,0-1.7,0-2.5
					c0.3-0.1,4.4-0.2,5,0c0,0.1,0,0.3,0,0.5c0,0.7,0,1.5,0,2.2c0,0.5,0.1,0.6,0.5,0.7c0.3,0,0.5,0,0.8-0.1c0.2,0,0.4-0.2,0.3-0.5
					c0-0.7,0-1.4,0-2c0-0.4-0.2-0.6-0.5-0.8c-0.4-0.3-0.9-0.6-1.3-0.8c-1.1-0.7-2.2-1.3-3.3-2c-0.3-0.2-0.7-0.5-1-0.7
					c-0.5-0.4-0.7-1-0.7-1.6c0-0.7,0-1.5,0-2.2c0-0.8,0.3-1.5,0.8-2.1c0.8-0.8,1.8-1.3,2.9-1.5c1.6-0.3,3.1-0.3,4.7,0.1
					c1,0.2,1.9,0.7,2.6,1.5c0.6,0.6,0.9,1.3,0.9,2.1C90.9,72.2,90.9,73,90.9,73.8z"/>
			</g>
			<g id="blue_89_">
				<path class="st8" d="M54.8,76.5c0.3-0.2,0.5-0.3,0.7-0.4c20.4-10.4,40.7-20.9,61.1-31.3c0.4-0.2,0.8-0.4,1.2-0.6
					c0.3-0.2,0.5-0.1,0.7,0c3,1.6,6.1,3.1,9.1,4.7c17.7,9.1,35.5,18.2,53.2,27.3c0.2,0.1,0.4,0.2,0.7,0.3c-0.2,0.1-0.4,0.2-0.5,0.3
					c-6.5,3.3-13,6.6-19.4,10c-14.3,7.3-28.6,14.7-43,22c-0.3,0.2-0.6,0.1-0.9,0C98,98.6,78.2,88.5,58.5,78.4
					c-1.1-0.6-2.2-1.1-3.2-1.7C55.1,76.7,55,76.6,54.8,76.5z M152.4,67.7c0,3.1,0,6.2,0,9.2c-0.1-0.1-0.2-0.3-0.2-0.4
					c-0.9-2.8-1.8-5.5-2.6-8.3c-0.2-0.5-0.2-0.5-0.6-0.5c-1.3,0-2.6,0-3.9,0c-0.1,0-0.3,0-0.4,0c0,0.1-0.1,0.1-0.1,0.2
					c0,5.5,0,11,0,16.5c0,0.1,0,0.3,0,0.4c0,0,0,0,0,0c0,0,0,0,0,0c1.5,0,3,0,4.5,0c0-3,0-5.9,0-8.8c0,0,0.1,0,0.1,0
					c1,2.9,2,5.9,3.1,8.8c1.6,0,3.1,0,4.7,0c0-5.7,0-11.4,0-17.2C155.4,67.7,154,67.7,152.4,67.7z M142.8,76.4c0-1.7,0-3.3,0-5
					c0-0.9-0.3-1.6-0.9-2.2c-0.6-0.6-1.4-1.1-2.2-1.3c-1.9-0.5-3.9-0.5-5.8-0.1c-1,0.2-1.9,0.7-2.6,1.5c-0.5,0.6-0.8,1.2-0.7,2
					c0,3.4,0,6.7,0,10.1c0,0.9,0.3,1.5,0.9,2.1c0.7,0.7,1.6,1.2,2.5,1.4c1.7,0.4,3.4,0.4,5.1,0.1c1.1-0.2,2-0.7,2.8-1.5
					c0.6-0.6,0.9-1.3,0.9-2.2C142.8,79.8,142.8,78.1,142.8,76.4z M129.3,78.2c-0.7-0.1-4.8-0.1-5.2,0c0,0.2,0,0.3,0,0.5
					c0,0.8,0,1.7,0,2.5c0,0.7-0.3,1-0.9,0.9c-0.2,0-0.3,0-0.4-0.1c-0.2-0.1-0.3-0.2-0.3-0.5c0-0.1,0-0.2,0-0.3c0-3.3,0-6.5,0-9.8
					c0-0.6,0-0.8,0.8-0.9c0.1,0,0.2,0,0.3,0c0.5,0.1,0.6,0.2,0.6,0.8c0,1,0,1.9,0,2.9c0,0.2,0,0.3,0,0.6c1.7,0,3.4,0,5.1,0
					c0-0.2,0-0.4,0-0.6c0-0.9,0-1.9,0-2.8c0-1-0.3-1.7-1-2.3c-0.7-0.7-1.6-1.1-2.5-1.3c-1.6-0.3-3.2-0.3-4.8-0.1
					c-1,0.2-2,0.6-2.8,1.4c-0.7,0.6-1,1.4-1,2.4c0,3.3,0,6.6,0,9.9c0,1,0.3,1.7,1,2.4c0.7,0.7,1.5,1.1,2.4,1.3
					c1.7,0.4,3.3,0.4,5,0.1c1-0.2,2-0.7,2.8-1.4c0.6-0.6,1-1.3,1-2.3c0-0.9,0-1.8,0-2.6C129.3,78.6,129.3,78.4,129.3,78.2z
					 M90.9,73.8c0-0.8,0-1.6,0-2.4c0-0.9-0.3-1.5-0.9-2.1c-0.7-0.7-1.6-1.2-2.6-1.5c-1.6-0.4-3.1-0.4-4.7-0.1
					c-1.1,0.2-2.1,0.7-2.9,1.5c-0.6,0.6-0.9,1.2-0.8,2.1c0,0.7,0,1.5,0,2.2c0,0.7,0.2,1.2,0.7,1.6c0.3,0.3,0.6,0.5,1,0.7
					c1.1,0.7,2.2,1.3,3.3,2c0.5,0.3,0.9,0.6,1.3,0.8c0.3,0.2,0.5,0.4,0.5,0.8c0,0.7,0,1.4,0,2c0,0.3-0.1,0.5-0.3,0.5
					c-0.3,0.1-0.5,0.1-0.8,0.1c-0.4,0-0.5-0.2-0.5-0.7c0-0.7,0-1.5,0-2.2c0-0.2,0-0.3,0-0.5c-0.6-0.1-4.7-0.1-5,0c0,0.8,0,1.7,0,2.5
					c0,1,0.3,1.7,1,2.3c0.7,0.7,1.5,1.1,2.5,1.4c1.7,0.4,3.5,0.4,5.2,0c1-0.2,1.9-0.8,2.6-1.6c0.5-0.5,0.8-1.2,0.7-1.9
					c0-0.7,0-1.5,0-2.2c0-1-0.4-1.8-1.2-2.3c-0.2-0.1-0.3-0.2-0.5-0.3c-1.1-0.6-2.2-1.2-3.3-1.9c-0.4-0.2-0.8-0.5-1.2-0.7
					c-0.3-0.2-0.5-0.5-0.5-0.9c0-0.6,0-1.2,0-1.9c0-0.4,0.2-0.5,0.5-0.6c0.1,0,0.3,0,0.4,0c0.4,0,0.6,0.2,0.6,0.7c0,0.7,0,1.3,0,2
					c0,0.2,0,0.3,0,0.5C87.5,73.8,89.1,73.8,90.9,73.8z M105.7,84.9c0.6,0.1,9.7,0.1,10.1,0c0-1,0-1.9,0-2.9c-0.2,0-0.4,0-0.6,0
					c-1.2,0-2.4,0-3.6,0c-0.2,0-0.4,0-0.5,0c-0.1-0.9-0.1-3.7,0.1-4.1c0.4,0,0.7,0,1.1,0c0.4,0,0.8,0,1.1,0c0.4,0,0.8,0.1,1.2-0.1
					c0-0.8,0-1.6,0-2.5c-1.2,0-2.3,0-3.5,0c0-1.5,0-3,0-4.5c0.2,0,0.4,0,0.5,0c1.2,0,2.5,0,3.7,0c0.2,0,0.3,0,0.5,0c0-1,0-1.9,0-2.8
					c-0.4-0.1-9.7-0.1-10.1,0C105.7,73.5,105.7,79.2,105.7,84.9z M100.8,84.9c0-4.8,0-9.5,0-14.2c1.2,0,2.3,0,3.4,0
					c0.1-0.5,0.1-2.5,0-2.9c-0.5-0.1-11.7-0.1-12,0c-0.1,0.5-0.1,2.4,0,2.9c1.1,0,2.2,0,3.4,0c0,4.8,0,9.5,0,14.2
					C97.3,84.9,99,84.9,100.8,84.9z"/>
				<path class="st8" d="M137.6,76.5c0,1.7,0,3.3,0,5c0,0.5-0.1,0.7-0.6,0.8c-0.2,0-0.4,0-0.5,0c-0.5-0.1-0.7-0.2-0.7-0.8
					c0-3.3,0-6.7,0-10c0-0.6,0.1-0.7,0.7-0.8c0.1,0,0.2,0,0.3,0c0.8,0,0.9,0.2,0.9,1C137.6,73.2,137.6,74.9,137.6,76.5z"/>
			</g>
		</g>
	</g>
	<g>
		<path class="st11" d="M177.6,392.2H159v-96.9c0-6.2-1.5-9.3-4.5-9.3c-2.6,0-4.4,1.5-5.4,4.5l-35.7,101.7h-21v-77.1
			c-2,0.4-3.7,0.6-5.1,0.6c-6.4,0-11.8-2.3-16.2-6.8c-4.4-4.5-6.6-9.9-6.6-16.3c0-6.2,2.2-11.5,6.6-15.9c4.4-4.4,9.8-6.6,16.2-6.6
			c6.8,0,12.5,2.3,17,6.9c4.5,4.6,6.8,10.4,6.8,17.4v44.7c0,6.8-1.2,17.4-3.6,31.8c2.2-8.8,5-18.6,8.4-29.4l16.8-53.4
			c3.8-12.2,11.3-18.2,22.5-18c15,0.2,22.5,8.7,22.5,25.5V392.2z M97.5,292.9c0-2.8-1-5.2-3-7.2c-2-2-4.4-3-7.2-3
			c-2.8,0-5.2,1-7.2,3c-2,2-3,4.4-3,7.2c0,2.8,1,5.2,3,7.2c2,2,4.4,3,7.2,3c2.8,0,5.2-1,7.2-3C96.5,298.1,97.5,295.7,97.5,292.9z"/>
		<path class="st11" d="M178.2,257.2c-24.8-8-47.5-12-68.1-12c-9.4,0-18.9,0.6-28.5,1.8c2.4-26.8,17-40.2,43.8-40.2
			c14.2,0,25.6,3.9,34.2,11.7v-20.7h18V253C177.8,254.4,178,255.8,178.2,257.2z M159,239.5c-1.2-5-4.8-9.7-10.8-14.1
			c-6-4.4-12.8-6.6-20.4-6.6c-7.2,0-13.4,1.5-18.6,4.4c-5.2,2.9-8.5,6.8-9.9,11.5c3.4-0.8,8.7-1.2,15.9-1.2
			C130,233.5,144.6,235.5,159,239.5z"/>
		<path class="st11" d="M177.6,189.1h-18v-34.2h18V189.1z"/>
		<path class="st11" d="M322.2,392.2h-21l-28.2-93l-29.1,93h-20.1v-77.1c-2,0.4-3.7,0.6-5.1,0.6c-6.4,0-11.8-2.3-16.2-6.8
			c-4.4-4.5-6.6-9.9-6.6-16.3c0-6.2,2.2-11.5,6.6-15.9c4.4-4.4,9.8-6.6,16.2-6.6c6.8,0,12.5,2.3,17,6.9c4.5,4.6,6.8,10.4,6.8,17.4
			v44.7c0,5.2-1.2,15.8-3.6,31.8c4.4-18.2,6.9-28,7.5-29.4l21-63.9h11.4l21,63.9c0.4,1.2,2.9,11,7.5,29.4c-2.4-16-3.6-26.6-3.6-31.8
			v-66.6h18.6V392.2z M228.9,292.9c0-2.8-1-5.2-3-7.2c-2-2-4.4-3-7.2-3c-2.8,0-5.2,1-7.2,3c-2,2-3,4.4-3,7.2c0,2.8,1,5.2,3,7.2
			c2,2,4.4,3,7.2,3c2.8,0,5.2-1,7.2-3C227.9,298.1,228.9,295.7,228.9,292.9z"/>
		<path class="st11" d="M352.5,199.3c-5.2,33.2-23.2,49.8-54,49.8c-12,0-21.2-2.4-27.6-7.4c-6.4-4.9-9.6-11.1-9.6-18.8
			c0-5.8,2-10.7,6-14.7c4-4,8.9-6,14.7-6c6.2,0,11.3,2.1,15.2,6.2c3.9,4.1,5.8,9,5.8,14.5c0,5.4-1.5,9.4-4.5,12
			c20.8-0.8,32.9-12.7,36.3-35.7H352.5z M291,223c0-2.6-0.9-4.8-2.7-6.6s-4-2.7-6.6-2.7c-2.6,0-4.7,0.9-6.5,2.7
			c-1.7,1.8-2.5,4-2.5,6.6c0,2.6,0.9,4.8,2.5,6.5c1.7,1.7,3.9,2.5,6.5,2.5c2.6,0,4.8-0.8,6.6-2.5C290.1,227.8,291,225.6,291,223z"/>
		<path class="st11" d="M439.5,392.2h-18.6V313c0-8.2-2.5-14.7-7.5-19.4c-5-4.8-11.6-7.2-19.8-7.2c-12,0-21.1,5-27.3,15
			c9.4,1.8,16.1,6.3,20.1,13.5c-10.2,6-15.3,13.2-15.3,21.6v55.8h-18.6v-57c0-8.4,4.1-15,12.3-19.8c-5-3.4-11.1-4.6-18.3-3.6
			c0.4-12.4,5.2-22.6,14.4-30.6c8.4-7.4,19.1-11.1,32.1-11.1c14.4,0,25.7,3.9,34,11.5c8.3,7.7,12.5,18.1,12.5,31.3V392.2z"/>
		<path class="st11" d="M564,364c0,9.8-3.1,17.4-9.2,22.7c-6.1,5.3-14.2,8-24.1,8c-10,0-18.1-2.6-24.2-7.9
			c-6.1-5.3-9.2-12.8-9.2-22.6v-19.4c0-5.8,2.6-13.5,8-23.2c5.3-9.7,8-17.3,8-22.9c0-4.6-1.6-8.4-4.8-11.4c-3.2-3-6.9-4.5-11.1-4.5
			c-6.4,0-10.7,1.2-12.9,3.6c6,0.2,10.8,2.1,14.5,5.7c3.7,3.6,5.5,8.2,5.5,13.8c0,6-2.1,11.1-6.3,15.2c-4.2,4.1-9.2,6.2-15,6.2
			c-6.8,0-12.3-2.4-16.3-7.4c-4.1-4.9-6.2-10.8-6.2-17.8c0-9.2,3.6-16.8,11-22.8c7.3-6,15.8-9,25.3-9c10,0,18.2,2.4,24.5,7.2
			c6.3,4.8,9.5,11.8,9.5,20.9c0,6-2.5,14.4-7.5,25.1c-5,10.8-7.5,18.3-7.5,22.7V368c0,3.4,1.5,6,4.6,7.8c3.1,1.8,6.5,2.7,10.1,2.7
			c3.8,0,7.2-0.9,10.2-2.8s4.5-4.4,4.5-7.6v-49.4c0-7.4-2.9-12-8.7-13.8c0.8-3.6,0.9-7.1,0.3-10.5c10.2-3.8,15.3-13.4,15.3-28.7
			h18.6c-1.4,15.4-6.7,26.7-15.9,33.9c6,4.8,9,11.1,9,18.9V364z M492.6,306.4c0-2.6-0.9-4.8-2.7-6.6c-1.8-1.8-4-2.7-6.6-2.7
			c-2.6,0-4.8,0.9-6.6,2.7c-1.8,1.8-2.7,4-2.7,6.6c0,2.6,0.9,4.8,2.7,6.6c1.8,1.8,4,2.7,6.6,2.7c2.6,0,4.8-0.9,6.6-2.7
			C491.7,311.2,492.6,309,492.6,306.4z"/>
		<path class="st11" d="M594.3,199.3c-5.2,33.2-23.2,49.8-54,49.8c-12,0-21.2-2.4-27.6-7.4c-6.4-4.9-9.6-11.1-9.6-18.8
			c0-5.8,2-10.7,6-14.7c4-4,8.9-6,14.7-6c6.2,0,11.3,2.1,15.2,6.2c3.9,4.1,5.8,9,5.8,14.5c0,5.4-1.5,9.4-4.5,12
			c20.8-0.8,32.9-12.7,36.3-35.7H594.3z M532.8,223c0-2.6-0.9-4.8-2.7-6.6s-4-2.7-6.6-2.7c-2.6,0-4.7,0.9-6.5,2.7
			c-1.7,1.8-2.5,4-2.5,6.6c0,2.6,0.9,4.8,2.5,6.5c1.7,1.7,3.9,2.5,6.5,2.5c2.6,0,4.8-0.8,6.6-2.5C531.9,227.8,532.8,225.6,532.8,223
			z"/>
		<path class="st11" d="M564,189.1h-18v-34.2h18V189.1z"/>
		<path class="st11" d="M677.7,370.3c0,7-2.3,12.8-6.9,17.3c-4.6,4.5-10.3,6.8-17.1,6.8c-6.4,0-11.8-2.2-16.2-6.6
			c-4.4-4.4-6.6-9.8-6.6-16c0-6.4,2.2-11.9,6.6-16.3c4.4-4.4,9.8-6.6,16.2-6.6c2.2,0,4,0.1,5.4,0.3v-43.7c0-12.7-9.2-19-27.6-19
			c-7.6,0-14.1,2.3-19.4,7c-5.3,4.6-7.9,10.8-7.9,18.5h-18c0.6-13.2,4.9-23.4,13-30.8c8.1-7.3,18.8-10.9,32.3-10.9
			c13.2,0,23.8,2.6,31.8,7.8c9.6,6.2,14.4,15.7,14.4,28.5V370.3z M663.9,371.5c0-2.8-1-5.2-3-7.2c-2-2-4.4-3-7.2-3
			c-2.8,0-5.2,1-7.2,3c-2,2-3,4.4-3,7.2c0,2.8,1,5.2,3,7.2c2,2,4.4,3,7.2,3c2.8,0,5.2-1,7.2-3C662.9,376.7,663.9,374.3,663.9,371.5z
			"/>
		<path class="st11" d="M798.6,392.2H780v-81.7c0-7.2-3.1-13.2-9.3-17.9c-5.8-4.2-12.5-6.3-20.1-6.3c-9,0-16.2,3-21.6,9
			c-5.4,6-8.1,13-8.1,21c0,2.2,0.4,5.9,1.3,11c0.9,5.1,1.3,9.6,1.3,13.4v8.4c0-0.2,0.3-2.3,1.1-6.5c0.7-4.1,1.1-7.2,1.3-9.4
			c2-8.4,5.1-15.4,9.3-21c5.2-7.2,11.2-10.8,18-10.8c5.4,0,10.1,1.9,14.1,5.7c4,3.8,6,8.4,6,13.8c0,5.2-2,9.8-6,13.7
			c-4,3.9-8.7,5.8-14.1,5.8c-5,0-9.5-1.8-13.5-5.4c-6,18.2-9,37.3-9,57.3h-18.6V373c0-9.4-1.7-19.6-5-30.8c-3.3-11.1-5-19.8-5-26.3
			c0-13.8,5-25,15-33.6c9.4-8.2,21-12.3,34.8-12.3c12.6,0,23.2,3.3,31.8,9.9c9.8,7.6,14.7,17.9,14.7,30.9V392.2z M762.3,320.8
			c0-2.6-0.9-4.8-2.7-6.6c-1.8-1.8-4-2.7-6.6-2.7c-2.6,0-4.8,0.9-6.5,2.7c-1.7,1.8-2.5,4-2.5,6.6c0,2.6,0.8,4.8,2.5,6.5
			c1.7,1.7,3.8,2.5,6.5,2.5c2.6,0,4.8-0.8,6.6-2.5C761.4,325.6,762.3,323.4,762.3,320.8z"/>
		<path class="st11" d="M895.2,372.1c0,6.4-2.3,11.8-6.8,16c-4.5,4.3-10,6.5-16.3,6.5c-6.4,0-11.9-2.2-16.4-6.6
			c-4.5-4.4-6.8-9.8-6.8-16.2c0-6.4,2.3-11.8,6.8-16.2c4.5-4.4,9.9-6.6,16.4-6.6c2.4,0,3.9,0.1,4.5,0.3v-25.8c0-3.2-6.7-6.3-20-9.5
			c-13.3-3.1-25.3-5.5-36.2-7.3c0.4-11,3.3-19.8,8.7-26.5c5.4-6.7,13.2-10,23.4-10c4.2,0,9.9,1,17.3,2.8c7.3,1.9,12.5,2.8,15.8,2.8
			c3.4,0,5.3-2.2,5.7-6.6l14.7,3.9c-3.6,12.2-10.2,18.3-19.8,18.3c-3.6,0-8.8-0.8-15.5-2.5c-6.7-1.7-11.8-2.6-15.1-2.6
			c-8.8,0-13.8,3.3-15,9.9c15.4,3.2,28.3,6.6,38.8,10.2c10.5,3.6,15.8,9.8,15.8,18.6V372.1z M882.3,371.8c0-2.8-1-5.2-3-7.2
			c-2-2-4.5-3-7.3-3s-5.3,1-7.3,3c-2,2-3,4.4-3,7.2c0,2.8,1,5.2,3,7.2c2,2,4.5,3,7.3,3s5.3-1,7.3-3
			C881.3,377,882.3,374.6,882.3,371.8z"/>
		<path class="st11" d="M998.1,392.2h-18.6v-87.1c0-5.6-1.9-10.1-5.7-13.6c-3.8-3.5-9-5.2-15.6-5.2c-6.6,0-12,2.2-16.2,6.5
			c-4.2,4.3-6.4,9.9-6.6,16.6h-18c0.6-12,4.5-21.5,11.9-28.7c7.3-7.1,16.9-10.6,28.9-10.6c11.2,0,20.6,2.8,28.4,8.5
			c7.7,5.7,11.5,14.4,11.5,26V392.2z"/>
		<path class="st11" d="M1111.8,370.3c0,7-2.3,12.8-6.9,17.3c-4.6,4.5-10.3,6.8-17.1,6.8c-6.4,0-11.8-2.2-16.2-6.6
			c-4.4-4.4-6.6-9.8-6.6-16c0-6.4,2.2-11.9,6.6-16.3c4.4-4.4,9.8-6.6,16.2-6.6c2.2,0,4,0.1,5.4,0.3v-43.7c0-12.7-9.2-19-27.6-19
			c-7.6,0-14.1,2.3-19.4,7c-5.3,4.6-7.9,10.8-7.9,18.5h-18c0.6-13.2,4.9-23.4,13-30.8c8.1-7.3,18.8-10.9,32.3-10.9
			c13.2,0,23.8,2.6,31.8,7.8c9.6,6.2,14.4,15.7,14.4,28.5V370.3z M1098,371.5c0-2.8-1-5.2-3-7.2c-2-2-4.4-3-7.2-3
			c-2.8,0-5.2,1-7.2,3c-2,2-3,4.4-3,7.2c0,2.8,1,5.2,3,7.2c2,2,4.4,3,7.2,3c2.8,0,5.2-1,7.2-3C1097,376.7,1098,374.3,1098,371.5z"/>
	</g>
	<g>
		<path class="st12" d="M108.3,751.4V637.5h48.4c12.2,0,21,1,26.5,3.1c5.5,2,9.9,5.7,13.2,10.9c3.3,5.2,5,11.2,5,17.9
			c0,8.5-2.5,15.6-7.5,21.2c-5,5.6-12.5,9.1-22.5,10.5c5,2.9,9.1,6.1,12.3,9.5c3.2,3.5,7.6,9.6,13.1,18.5l13.9,22.2h-27.5
			l-16.6-24.8c-5.9-8.9-9.9-14.4-12.1-16.7c-2.2-2.3-4.5-3.9-6.9-4.7c-2.4-0.9-6.3-1.3-11.6-1.3h-4.7v47.5H108.3z M131.3,685.7h17
			c11,0,17.9-0.5,20.7-1.4s4.9-2.5,6.4-4.8c1.6-2.3,2.3-5.1,2.3-8.5c0-3.8-1-6.9-3.1-9.3c-2-2.4-4.9-3.8-8.7-4.5
			c-1.9-0.3-7.5-0.4-16.8-0.4h-17.9V685.7z"/>
		<path class="st12" d="M223,751.4V637.5h84.4v19.3H246V682h57.1v19.2H246v31h63.6v19.2H223z"/>
		<path class="st12" d="M323.3,714.3l22.4-2.2c1.3,7.5,4.1,13,8.2,16.5c4.1,3.5,9.7,5.3,16.7,5.3c7.4,0,13-1.6,16.7-4.7
			c3.8-3.1,5.6-6.8,5.6-11c0-2.7-0.8-5-2.4-6.9c-1.6-1.9-4.3-3.5-8.3-4.9c-2.7-0.9-8.8-2.6-18.4-5c-12.3-3.1-21-6.8-25.9-11.3
			c-7-6.3-10.5-13.9-10.5-22.9c0-5.8,1.6-11.2,4.9-16.3c3.3-5,8-8.9,14.2-11.5c6.2-2.6,13.7-4,22.4-4c14.3,0,25,3.1,32.3,9.4
			c7.2,6.3,11,14.6,11.4,25.1l-23,1c-1-5.8-3.1-10.1-6.3-12.6c-3.2-2.6-8.1-3.8-14.6-3.8c-6.7,0-11.9,1.4-15.7,4.1
			c-2.4,1.8-3.6,4.1-3.6,7.1c0,2.7,1.1,5,3.4,6.9c2.9,2.4,9.9,5,21.1,7.6c11.2,2.6,19.4,5.4,24.8,8.2c5.4,2.8,9.5,6.7,12.6,11.6
			c3,4.9,4.5,10.9,4.5,18.1c0,6.5-1.8,12.6-5.4,18.3c-3.6,5.7-8.7,9.9-15.4,12.7c-6.6,2.8-14.9,4.2-24.8,4.2
			c-14.4,0-25.4-3.3-33.2-10C329.4,736.8,324.8,727.1,323.3,714.3z"/>
		<path class="st12" d="M460.8,751.4v-94.6H427v-19.3h90.4v19.3h-33.7v94.6H460.8z"/>
		<path class="st12" d="M761.5,751.4h-25l-9.9-25.9h-45.5l-9.4,25.9h-24.4l44.3-113.8H716L761.5,751.4z M719.2,706.3l-15.7-42.2
			l-15.4,42.2H719.2z"/>
		<path class="st12" d="M773.8,751.4V637.5h48.4c12.2,0,21,1,26.5,3.1c5.5,2,9.9,5.7,13.2,10.9c3.3,5.2,5,11.2,5,17.9
			c0,8.5-2.5,15.6-7.5,21.2c-5,5.6-12.5,9.1-22.5,10.5c5,2.9,9.1,6.1,12.3,9.5c3.2,3.5,7.6,9.6,13.1,18.5l13.9,22.2h-27.5L832,726.6
			c-5.9-8.9-9.9-14.4-12.1-16.7c-2.2-2.3-4.5-3.9-6.9-4.7c-2.4-0.9-6.3-1.3-11.6-1.3h-4.7v47.5H773.8z M796.8,685.7h17
			c11,0,17.9-0.5,20.7-1.4s4.9-2.5,6.4-4.8c1.6-2.3,2.3-5.1,2.3-8.5c0-3.8-1-6.9-3.1-9.3c-2-2.4-4.9-3.8-8.7-4.5
			c-1.9-0.3-7.5-0.4-16.8-0.4h-17.9V685.7z"/>
		<path class="st12" d="M888.5,751.4V637.5h84.4v19.3h-61.4V682h57.1v19.2h-57.1v31h63.6v19.2H888.5z"/>
		<path class="st12" d="M1097.2,751.4h-25l-9.9-25.9h-45.5l-9.4,25.9H983l44.3-113.8h24.3L1097.2,751.4z M1054.9,706.3l-15.7-42.2
			l-15.4,42.2H1054.9z"/>
	</g>
</g>
</svg>
