<?xml version="1.0" encoding="utf-8"?>
<!-- Generator: Adobe Illustrator 22.0.0, SVG Export Plug-In . SVG Version: 6.00 Build 0)  -->
<svg version="1.1" id="Layer_1" xmlns="http://www.w3.org/2000/svg" xmlns:xlink="http://www.w3.org/1999/xlink" x="0px" y="0px"
	 viewBox="0 0 841.9 1190.6" style="enable-background:new 0 0 841.9 1190.6;" xml:space="preserve">
<style type="text/css">
	.st0{fill:none;}
	.st1{fill:#010101;}
	.st2{fill:#FFFFFF;}
	.st3{fill:#077147;}
	.st4{fill:#FFFFFF;stroke:#FFFFFF;stroke-miterlimit:10;}
	.st5{fill-rule:evenodd;clip-rule:evenodd;fill:#077147;}
	.st6{fill-rule:evenodd;clip-rule:evenodd;fill:#FFFFFF;}
	.st7{fill-rule:evenodd;clip-rule:evenodd;fill:#08713D;}
	.st8{fill:#EB2627;}
	.st9{fill:#2A3B8F;}
</style>
<g>
	<g>
		<rect x="0.4" y="0.7" class="st0" width="841.9" height="1190.6"/>
		<rect x="28.8" y="29" class="st1" width="785.2" height="1133.9"/>
		<rect x="34.5" y="34.7" class="st2" width="773.9" height="1122.5"/>
		<rect x="53" y="793.3" class="st3" width="737" height="348.7"/>
	</g>
	<g>
		<g>
			<path class="st4" d="M147.8,1051.9v-53.7h25.6v9.1h-18.6v11.9h17.3v9h-17.3v14.6h19.3v9H147.8z"/>
			<path class="st4" d="M179.9,1051.9v-53.7h10.4l6.3,36.6l6.2-36.6h10.5v53.7h-6.5v-42.3l-6.9,42.3h-6.7l-6.8-42.3v42.3H179.9z"/>
			<path class="st4" d="M220.2,1051.9v-53.7h25.6v9.1h-18.6v11.9h17.3v9h-17.3v14.6h19.3v9H220.2z"/>
			<path class="st4" d="M252.4,1051.9v-53.7h14.7c3.7,0,6.4,0.5,8,1.4c1.7,1,3,2.7,4,5.1s1.5,5.3,1.5,8.5c0,4-0.8,7.4-2.3,10
				c-1.5,2.6-3.8,4.3-6.8,5c1.5,1.4,2.8,2.9,3.7,4.5c1,1.6,2.3,4.5,4,8.7l4.2,10.5h-8.3l-5-11.7c-1.8-4.2-3-6.8-3.7-7.9
				c-0.7-1.1-1.4-1.8-2.1-2.2c-0.7-0.4-1.9-0.6-3.5-0.6h-1.4v22.4H252.4z M259.4,1020.9h5.2c3.3,0,5.4-0.2,6.3-0.7
				c0.8-0.4,1.5-1.2,2-2.3c0.5-1.1,0.7-2.4,0.7-4c0-1.8-0.3-3.3-0.9-4.4s-1.5-1.8-2.6-2.1c-0.6-0.1-2.3-0.2-5.1-0.2h-5.4V1020.9z"/>
			<path class="st4" d="M303.3,1032.2v-9h15v21.4c-1.5,2.2-3.6,4.1-6.4,5.8s-5.6,2.5-8.4,2.5c-3.6,0-6.8-1.2-9.5-3.5
				s-4.7-5.7-6.1-10.1s-2-9.1-2-14.3c0-5.6,0.8-10.6,2.3-14.9c1.5-4.3,3.7-7.7,6.6-10c2.2-1.8,5-2.7,8.3-2.7c4.3,0,7.6,1.4,10.1,4.2
				c2.4,2.8,4,6.7,4.7,11.6l-6.9,2c-0.5-2.6-1.4-4.7-2.7-6.2s-3-2.3-5-2.3c-3,0-5.5,1.5-7.3,4.5c-1.8,3-2.7,7.5-2.7,13.4
				c0,6.4,0.9,11.2,2.7,14.3c1.8,3.2,4.2,4.8,7.2,4.8c1.5,0,2.9-0.4,4.4-1.3c1.5-0.9,2.7-2,3.8-3.2v-6.8H303.3z"/>
			<path class="st4" d="M324.8,1051.9v-53.7h25.6v9.1h-18.6v11.9h17.3v9h-17.3v14.6h19.3v9H324.8z"/>
			<path class="st4" d="M357,1051.9v-53.7h6.8l14.1,35.9v-35.9h6.5v53.7h-7l-13.9-35v35H357z"/>
			<path class="st4" d="M413.9,1032.2l6.8,3.3c-1,5.9-2.8,10.2-5.2,13.1s-5.5,4.3-9.2,4.3c-4.6,0-8.4-2.4-11.3-7.3
				c-3-4.9-4.4-11.5-4.4-20c0-8.9,1.5-15.9,4.5-20.8c3-4.9,6.9-7.4,11.7-7.4c4.2,0,7.7,1.9,10.3,5.8c1.6,2.3,2.7,5.6,3.5,9.9
				l-6.9,2.6c-0.4-2.8-1.3-5-2.6-6.6c-1.3-1.6-2.9-2.4-4.7-2.4c-2.6,0-4.6,1.4-6.2,4.3c-1.6,2.9-2.4,7.5-2.4,13.9
				c0,6.8,0.8,11.6,2.4,14.5s3.6,4.3,6.1,4.3c1.9,0,3.4-0.9,4.8-2.7C412.4,1039,413.4,1036.1,413.9,1032.2z"/>
			<path class="st4" d="M435.8,1051.9v-22.6l-12.7-31.1h8.2l8.1,21.2l8-21.2h8l-12.7,31.2v22.5H435.8z"/>
			<path class="st4" d="M483.1,1034.5l6.8-1c0.4,3.5,1.2,6.1,2.5,7.8s2.9,2.5,5.1,2.5c2.2,0,3.9-0.7,5.1-2.2
				c1.1-1.5,1.7-3.2,1.7-5.2c0-1.3-0.2-2.3-0.7-3.2c-0.5-0.9-1.3-1.7-2.5-2.3c-0.8-0.4-2.7-1.2-5.6-2.3c-3.7-1.4-6.4-3.2-7.9-5.3
				c-2.1-3-3.2-6.6-3.2-10.8c0-2.7,0.5-5.3,1.5-7.7c1-2.4,2.4-4.2,4.3-5.4c1.9-1.2,4.1-1.9,6.8-1.9c4.3,0,7.6,1.5,9.8,4.4
				c2.2,3,3.3,6.9,3.5,11.8l-7,0.5c-0.3-2.8-0.9-4.7-1.9-6c-1-1.2-2.5-1.8-4.4-1.8c-2,0-3.6,0.6-4.8,1.9c-0.7,0.8-1.1,1.9-1.1,3.3
				c0,1.3,0.3,2.4,1,3.3c0.9,1.1,3,2.3,6.4,3.6c3.4,1.2,5.9,2.5,7.5,3.9c1.6,1.3,2.9,3.1,3.8,5.5c0.9,2.3,1.4,5.2,1.4,8.6
				c0,3.1-0.6,6-1.7,8.6s-2.7,4.7-4.7,6c-2,1.3-4.5,2-7.5,2c-4.4,0-7.7-1.6-10.1-4.7C484.9,1045,483.5,1040.5,483.1,1034.5z"/>
			<path class="st4" d="M517,1051.9v-53.7h7v21.1h13.7v-21.1h7v53.7h-7v-23.5H524v23.5H517z"/>
			<path class="st4" d="M550.5,1025.4c0-5.5,0.5-10.1,1.6-13.8c0.8-2.7,1.9-5.2,3.2-7.4c1.4-2.2,2.8-3.8,4.5-4.8
				c2.2-1.4,4.6-2.1,7.4-2.1c5.1,0,9.2,2.5,12.2,7.4c3.1,4.9,4.6,11.7,4.6,20.5c0,8.7-1.5,15.4-4.5,20.3s-7.1,7.3-12.2,7.3
				c-5.1,0-9.2-2.4-12.3-7.3C552,1040.7,550.5,1034,550.5,1025.4z M557.6,1025c0,6.1,0.9,10.7,2.7,13.8c1.8,3.1,4.1,4.7,6.9,4.7
				c2.8,0,5.1-1.6,6.8-4.7c1.8-3.1,2.7-7.8,2.7-14c0-6.2-0.9-10.7-2.6-13.8c-1.7-3-4-4.5-6.9-4.5s-5.2,1.5-7,4.6
				C558.5,1014.3,557.6,1018.9,557.6,1025z"/>
			<path class="st4" d="M594.3,1051.9l-8.2-53.7h7.1l5.2,36.9l6.3-36.9h8.3l6.1,37.5l5.3-37.5h7l-8.4,53.7h-7.4l-6.9-40.1l-6.9,40.1
				H594.3z"/>
			<path class="st4" d="M635,1051.9v-53.7h25.6v9.1h-18.6v11.9h17.3v9h-17.3v14.6h19.3v9H635z"/>
			<path class="st4" d="M667.2,1051.9v-53.7h14.7c3.7,0,6.4,0.5,8,1.4c1.7,1,3,2.7,4,5.1c1,2.5,1.5,5.3,1.5,8.5c0,4-0.8,7.4-2.3,10
				c-1.5,2.6-3.8,4.3-6.8,5c1.5,1.4,2.8,2.9,3.7,4.5c1,1.6,2.3,4.5,4,8.7l4.2,10.5h-8.3l-5-11.7c-1.8-4.2-3-6.8-3.7-7.9
				c-0.7-1.1-1.4-1.8-2.1-2.2c-0.7-0.4-1.9-0.6-3.5-0.6h-1.4v22.4H667.2z M674.2,1020.9h5.2c3.3,0,5.4-0.2,6.3-0.7s1.5-1.2,2-2.3
				c0.5-1.1,0.7-2.4,0.7-4c0-1.8-0.3-3.3-0.9-4.4c-0.6-1.1-1.5-1.8-2.6-2.1c-0.6-0.1-2.3-0.2-5.1-0.2h-5.4V1020.9z"/>
		</g>
		<g>
			<path class="st4" d="M219.4,934.8h-7.5v-42c0-2.7-0.6-4-1.8-4c-1,0-1.8,0.6-2.2,1.9l-14.4,44.1h-8.5v-33.4
				c-0.8,0.2-1.5,0.3-2.1,0.3c-2.6,0-4.8-1-6.5-2.9c-1.8-2-2.7-4.3-2.7-7.1c0-2.7,0.9-5,2.7-6.9c1.8-1.9,3.9-2.9,6.5-2.9
				c2.7,0,5,1,6.8,3c1.8,2,2.7,4.5,2.7,7.5v19.4c0,2.9-0.5,7.5-1.5,13.8c0.9-3.8,2-8.1,3.4-12.7l6.8-23.1c1.5-5.3,4.6-7.9,9.1-7.8
				c6,0.1,9.1,3.8,9.1,11V934.8z M187.1,891.7c0-1.2-0.4-2.3-1.2-3.1c-0.8-0.9-1.8-1.3-2.9-1.3c-1.1,0-2.1,0.4-2.9,1.3
				c-0.8,0.9-1.2,1.9-1.2,3.1c0,1.2,0.4,2.3,1.2,3.1c0.8,0.9,1.8,1.3,2.9,1.3c1.1,0,2.1-0.4,2.9-1.3
				C186.7,894,187.1,893,187.1,891.7z"/>
			<path class="st4" d="M219.6,876.3c-10-3.5-19.1-5.2-27.4-5.2c-3.8,0-7.6,0.3-11.5,0.8c1-11.6,6.8-17.4,17.6-17.4
				c5.7,0,10.3,1.7,13.8,5.1v-9h7.3v23.9C219.5,875.1,219.6,875.7,219.6,876.3z M211.9,868.6c-0.5-2.2-1.9-4.2-4.4-6.1
				c-2.4-1.9-5.2-2.9-8.2-2.9c-2.9,0-5.4,0.6-7.5,1.9c-2.1,1.3-3.4,2.9-4,5c1.4-0.3,3.5-0.5,6.4-0.5
				C200.2,866,206.1,866.9,211.9,868.6z"/>
			<path class="st4" d="M219.4,846.8h-7.3v-14.8h7.3V846.8z"/>
			<path class="st4" d="M267.6,934.8h-7.5v-22.5c0-2.6-1.4-4.6-4.1-6c-2.1-1-4.4-1.6-7-1.6c-2.5,0-4.6,0.7-6.4,2
				c-2.2,1.6-3.3,3.6-3.3,6.2v3.3c0.6-0.2,1.4-0.3,2.2-0.3c2.6,0,4.8,1,6.6,2.9c1.9,2,2.8,4.3,2.8,7c0,2.8-1,5.1-2.9,7
				c-1.9,1.9-4.2,2.9-6.6,2.9c-2.7,0-4.9-0.9-6.8-2.8c-1.9-1.9-2.8-4.2-2.8-7.1v-12c0-5.1,1.8-9.1,5.3-12c3.1-2.5,7-3.8,11.7-3.8
				c5,0,8.7,1.5,11.2,4.4v-5.8c0-2.7-1.5-4.7-4.4-6.2c-2.3-1.1-4.8-1.7-7.6-1.7c-3.1,0-5.8,0.8-8.1,2.3c-2.5,1.7-4,4-4.5,6.9h-7.3
				c0.5-5.3,2.6-9.4,6.4-12.2c3.5-2.7,8.1-4,13.7-4c5,0,9.3,1.3,12.9,3.8c4.2,2.9,6.3,6.8,6.3,12V934.8z M245.6,925.8
				c0-1.2-0.4-2.3-1.2-3.1c-0.8-0.9-1.8-1.3-2.9-1.3c-1.1,0-2.1,0.4-2.9,1.3c-0.8,0.9-1.2,1.9-1.2,3.1c0,1.2,0.4,2.3,1.2,3.1
				c0.8,0.9,1.8,1.3,2.9,1.3c1.1,0,2.1-0.4,2.9-1.3C245.2,928.1,245.6,927,245.6,925.8z"/>
			<path class="st4" d="M275,852c-0.8,4.6-1.9,8.4-3.4,11.6c-1.4,3.1-3.3,5.6-5.6,7.5c-2.3,1.9-4.9,3.2-7.9,4
				c-3,0.8-6.5,1.2-10.5,1.2h-4v-5.2c1.6-0.1,3-0.7,4-1.8c1.1-1.1,1.8-2.3,2.2-3.4c-2-0.3-3.6-1.3-4.8-2.9c-1.2-1.6-1.8-3.5-1.8-5.7
				c0-2.3,0.8-4.3,2.4-5.8c1.6-1.6,3.4-2.3,5.5-2.3c2.4,0,4.3,0.8,5.7,2.5c1.4,1.6,2.1,3.7,2.1,6.2c0,2.5-0.6,4.9-1.7,7.3
				c-1.1,2.3-2.3,4.2-3.5,5.5c4-0.8,7.3-2.9,9.8-6.3c2.5-3.4,3.9-7.5,4-12.2H275z M254.3,857.4c0-1-0.3-1.8-0.9-2.4
				c-0.6-0.7-1.3-1-2.2-1c-0.9,0-1.6,0.3-2.2,1c-0.6,0.6-0.8,1.5-0.8,2.4c0,1,0.3,1.8,0.8,2.4c0.6,0.7,1.3,1,2.2,1
				c0.9,0,1.6-0.3,2.2-1C254,859.2,254.3,858.4,254.3,857.4z"/>
			<path class="st4" d="M308.2,934.8h-7.5V897c0-2.4-0.8-4.4-2.3-5.9c-1.5-1.5-3.6-2.3-6.3-2.3c-2.7,0-4.8,0.9-6.5,2.8
				c-1.7,1.9-2.6,4.3-2.7,7.2h-7.3c0.2-5.2,1.8-9.3,4.8-12.4c2.9-3.1,6.8-4.6,11.7-4.6c4.5,0,8.3,1.2,11.4,3.7
				c3.1,2.5,4.7,6.2,4.7,11.2V934.8z"/>
			<path class="st4" d="M346.7,934.8h-7.4l-22.6-27.4l4.5-5.6l18,21.8v-22.4c-0.2,0.1-1,0.1-2.3,0.1c-2.5,0-4.6-0.9-6.3-2.7
				c-1.7-1.8-2.6-4-2.6-6.8c0-2.8,0.9-5.1,2.7-7.1c1.8-1.9,3.9-2.9,6.3-2.9c2.8,0,5.2,1,7,2.9c1.9,2,2.8,4.5,2.8,7.6V934.8z
				 M341,891.6c0-1.2-0.4-2.2-1.2-3c-0.8-0.8-1.8-1.3-2.9-1.3c-1.1,0-2.1,0.4-2.9,1.3c-0.8,0.8-1.2,1.9-1.2,3c0,1.2,0.4,2.2,1.2,3
				c0.8,0.8,1.8,1.3,2.9,1.3c1.1,0,2.1-0.4,2.9-1.3C340.6,893.8,341,892.8,341,891.6z"/>
			<path class="st4" d="M395.6,934.8h-7.5v-34.1c0-5.5-1.4-9.5-4.2-12l-7.5,5.8l-7.4-5.8c-3.4,1.8-5.1,5.9-5.1,12.3
				c0,2.1,0.6,5.2,1.8,9.2c1.2,4.1,1.8,7.1,1.8,9.1c0,1.4-0.2,2.8-0.7,4.3c0.5-1.2,1.7-2.9,3.5-5.1c1.9-2.2,3.6-3.8,5.3-4.9
				c-2.2-0.2-3.9-1.1-5.1-2.7c-1.3-1.6-1.9-3.5-1.9-5.5c0-2.3,0.7-4.3,2.2-6c1.5-1.6,3.3-2.5,5.5-2.5c2.2,0,4,0.8,5.6,2.5
				c1.5,1.6,2.3,3.6,2.3,6c0,3.7-1.8,7.7-5.4,11.8c-4.8,5.5-7.7,9.1-8.5,10.8c-1.2,2.5-1.8,4.7-1.8,6.6h-7.5c0.2-3.3,0.2-6.6,0.2-10
				c0-3.5-0.5-6.7-1.5-9.6c-2.1-6.2-3.2-10.9-3.2-14c0-4.8,1.1-8.9,3.4-12.3c2.2-3.5,5.4-5.8,9.6-7l6.9,5.6l6.4-5.6
				c8.6,1.4,12.9,7.6,12.9,18.7V934.8z M379.9,905.4c0-1.1-0.3-2.1-1-2.8c-0.7-0.7-1.6-1.1-2.6-1.1c-1,0-1.9,0.4-2.6,1.1
				c-0.7,0.7-1,1.7-1,2.8c0,1.1,0.3,2.1,1,2.8c0.7,0.7,1.6,1.1,2.6,1.1c1,0,1.9-0.4,2.6-1.1C379.5,907.5,379.9,906.5,379.9,905.4z"
				/>
			<path class="st4" d="M407.8,851.2c-2.1,14.4-9.3,21.6-21.8,21.6c-4.8,0-8.5-1.1-11.1-3.2c-2.6-2.1-3.9-4.8-3.9-8.1
				c0-2.5,0.8-4.6,2.4-6.4c1.6-1.7,3.6-2.6,5.9-2.6c2.5,0,4.5,0.9,6.1,2.7c1.6,1.8,2.4,3.9,2.4,6.3c0,2.3-0.6,4.1-1.8,5.2
				c8.4-0.3,13.3-5.5,14.6-15.5H407.8z M383,861.5c0-1.1-0.4-2.1-1.1-2.9c-0.7-0.8-1.6-1.2-2.7-1.2c-1,0-1.9,0.4-2.6,1.2
				c-0.7,0.8-1,1.7-1,2.9c0,1.1,0.3,2.1,1,2.8c0.7,0.7,1.6,1.1,2.6,1.1c1,0,1.9-0.4,2.7-1.1C382.7,863.5,383,862.6,383,861.5z"/>
			<path class="st4" d="M441.4,925.3c0,3-0.9,5.5-2.8,7.5c-1.9,1.9-4.2,2.9-6.9,2.9c-2.6,0-4.8-1-6.5-2.9c-1.8-1.9-2.7-4.2-2.7-6.9
				c0-2.8,0.9-5.1,2.7-7.1c1.8-1.9,3.9-2.9,6.5-2.9c0.9,0,1.6,0,2.2,0.1v-18.9c0-5.5-3.7-8.2-11.1-8.2c-3.1,0-5.7,1-7.8,3
				c-2.1,2-3.2,4.7-3.2,8h-7.3c0.2-5.7,2-10.2,5.3-13.3c3.3-3.2,7.6-4.7,13-4.7c5.3,0,9.6,1.1,12.8,3.4c3.9,2.7,5.8,6.8,5.8,12.4
				V925.3z M435.8,925.8c0-1.2-0.4-2.3-1.2-3.1c-0.8-0.9-1.8-1.3-2.9-1.3c-1.1,0-2.1,0.4-2.9,1.3c-0.8,0.9-1.2,1.9-1.2,3.1
				c0,1.2,0.4,2.3,1.2,3.1c0.8,0.9,1.8,1.3,2.9,1.3c1.1,0,2.1-0.4,2.9-1.3C435.4,928.1,435.8,927,435.8,925.8z"/>
			<path class="st4" d="M492.4,925.9c0,2.8-0.9,5.1-2.7,7c-1.8,1.9-3.9,2.9-6.5,2.9c-2.3,0-4.4-0.8-6.2-2.5
				c-1.8-1.7-2.7-3.8-2.9-6.3c-2.8,1.1-5.6,3.7-8.5,7.8h-6.9v-10.1c0-2.4,0.4-4.1,1.2-4.9c-0.8,0-1.4,0-1.7-0.1
				c-4.4-1-6.6-3.9-6.6-8.7c0-2.5,0.8-4.6,2.5-6.4c1.7-1.7,3.6-2.6,6-2.6c2.3,0,4.3,0.9,5.9,2.6c1.6,1.7,2.4,3.9,2.4,6.4
				c0,1.2-0.4,2.8-1.1,4.9c-0.7,2-1.1,3.7-1.1,5v5.5c1.3-1.4,3.7-3.1,7.3-5.3c3.5-2.1,6-4,7.5-5.7c1.2-1.7,1.8-3.8,1.8-6.1v-11.9
				c0-2.8-1.3-5-3.9-6.6c-2.2-1.2-4.8-1.8-8-1.8c-3.4,0-6.2,0.7-8.6,2.1c-2.8,1.6-4.4,4-4.6,7.2h-7.3c1.2-10.8,8-16.3,20.3-16.3
				c5.3,0,9.7,1.1,13.2,3.4c4.2,2.8,6.3,6.9,6.3,12.5v12.3c0,3.3-0.9,5.7-2.7,7.3C490.8,919.3,492.4,922.1,492.4,925.9z
				 M463.6,910.9c0-1.1-0.3-2.1-1-2.8c-0.7-0.7-1.6-1.1-2.6-1.1c-1,0-1.9,0.4-2.6,1.1c-0.7,0.7-1,1.7-1,2.8c0,1.1,0.3,2.1,1,2.8
				c0.7,0.7,1.5,1.1,2.6,1.1c1,0,1.9-0.4,2.6-1.1C463.3,912.9,463.6,912,463.6,910.9z M487.1,926.1c0-1.1-0.4-2.1-1.1-2.9
				c-0.7-0.8-1.6-1.2-2.7-1.2c-1,0-1.9,0.4-2.7,1.2c-0.7,0.8-1.1,1.7-1.1,2.9c0,1.1,0.4,2.1,1.1,2.9c0.7,0.8,1.6,1.2,2.7,1.2
				c1,0,1.9-0.4,2.7-1.2C486.7,928.1,487.1,927.2,487.1,926.1z"/>
			<path class="st4" d="M490.3,965.3h-7.3v-9.9h-0.5c-2,0-3.7-0.8-5.1-2.3c-1.4-1.5-2.1-3.3-2.1-5.4c0-2.2,0.7-4,2.1-5.6
				c1.4-1.6,3.2-2.3,5.3-2.3c2,0,3.8,0.7,5.3,2.1c1.5,1.4,2.3,3.3,2.3,5.7V965.3z M486.1,947.4c0-1-0.3-1.8-1-2.5
				c-0.6-0.7-1.4-1-2.3-1c-0.9,0-1.7,0.3-2.4,1c-0.7,0.7-1,1.5-1,2.5c0,1,0.3,1.8,1,2.5c0.7,0.7,1.5,1.1,2.4,1.1
				c0.9,0,1.7-0.4,2.3-1.1C485.8,949.2,486.1,948.3,486.1,947.4z"/>
			<path class="st4" d="M537.6,934.8h-7.5v-34.4c0-3.5-1-6.4-3-8.4c-2-2.1-4.7-3.1-8-3.1c-4.8,0-8.5,2.2-11,6.5
				c3.8,0.8,6.5,2.7,8.1,5.8c-4.1,2.6-6.2,5.7-6.2,9.4v24.2h-7.5v-24.7c0-3.6,1.7-6.5,5-8.6c-2-1.5-4.5-2-7.4-1.6
				c0.2-5.4,2.1-9.8,5.8-13.3c3.4-3.2,7.7-4.8,12.9-4.8c5.8,0,10.4,1.7,13.7,5c3.3,3.3,5,7.9,5,13.6V934.8z"/>
			<path class="st4" d="M568.4,925.9c0,2.8-0.9,5.1-2.7,7c-1.8,1.9-4,2.9-6.5,2.9c-2.7,0-5-1-6.9-3c-1.9-2-2.8-4.5-2.8-7.5v-42.4
				h7.5v33.4c0.4-0.2,1.1-0.3,2.2-0.3c2.5,0,4.7,1,6.5,2.9C567.5,920.8,568.4,923.2,568.4,925.9z M563.3,925.9
				c0-1.2-0.4-2.3-1.2-3.1c-0.8-0.9-1.8-1.3-2.9-1.3c-1.1,0-2.1,0.4-2.9,1.3c-0.8,0.9-1.2,1.9-1.2,3.1c0,1.2,0.4,2.3,1.2,3.1
				c0.8,0.9,1.8,1.3,2.9,1.3c1.1,0,2.1-0.4,2.9-1.3C562.9,928.2,563.3,927.1,563.3,925.9z"/>
			<path class="st4" d="M613.7,925.9c0,2.8-0.9,5.1-2.7,7c-1.8,1.9-3.9,2.9-6.5,2.9c-2.3,0-4.4-0.8-6.2-2.5
				c-1.8-1.7-2.7-3.8-2.9-6.3c-2.8,1.1-5.6,3.7-8.5,7.8h-6.9v-10.1c0-2.4,0.4-4.1,1.2-4.9c-0.8,0-1.4,0-1.7-0.1
				c-4.4-1-6.6-3.9-6.6-8.7c0-2.5,0.8-4.6,2.5-6.4c1.7-1.7,3.6-2.6,6-2.6c2.3,0,4.3,0.9,5.9,2.6c1.6,1.7,2.4,3.9,2.4,6.4
				c0,1.2-0.4,2.8-1.1,4.9c-0.7,2-1.1,3.7-1.1,5v5.5c1.3-1.4,3.7-3.1,7.3-5.3c3.5-2.1,6-4,7.5-5.7c1.2-1.7,1.8-3.8,1.8-6.1v-11.9
				c0-2.8-1.3-5-3.9-6.6c-2.2-1.2-4.8-1.8-8-1.8c-3.4,0-6.2,0.7-8.6,2.1c-2.8,1.6-4.3,4-4.6,7.2h-7.3c1.2-10.8,8-16.3,20.3-16.3
				c5.3,0,9.7,1.1,13.2,3.4c4.2,2.8,6.3,6.9,6.3,12.5v12.3c0,3.3-0.9,5.7-2.7,7.3C612.1,919.3,613.7,922.1,613.7,925.9z M585,910.9
				c0-1.1-0.3-2.1-1-2.8c-0.7-0.7-1.6-1.1-2.6-1.1c-1,0-1.9,0.4-2.6,1.1c-0.7,0.7-1,1.7-1,2.8c0,1.1,0.3,2.1,1,2.8
				c0.7,0.7,1.5,1.1,2.6,1.1c1,0,1.9-0.4,2.6-1.1C584.6,912.9,585,912,585,910.9z M608.4,926.1c0-1.1-0.4-2.1-1.1-2.9
				c-0.7-0.8-1.6-1.2-2.7-1.2c-1,0-1.9,0.4-2.7,1.2c-0.7,0.8-1.1,1.7-1.1,2.9c0,1.1,0.4,2.1,1.1,2.9c0.7,0.8,1.6,1.2,2.7,1.2
				c1,0,1.9-0.4,2.7-1.2C608,928.1,608.4,927.2,608.4,926.1z"/>
			<path class="st4" d="M611.9,876.3c-10-3.5-19.1-5.2-27.4-5.2c-3.8,0-7.6,0.3-11.5,0.8c1-11.6,6.8-17.4,17.6-17.4
				c6.2,0,11.1,2,14.7,6C609,864.5,611.2,869.8,611.9,876.3z M604.2,868.6c-0.5-2.2-1.9-4.2-4.4-6.1c-2.4-1.9-5.2-2.9-8.2-2.9
				c-2.9,0-5.4,0.6-7.5,1.9c-2.1,1.3-3.4,2.9-4,5c1.4-0.3,3.5-0.5,6.4-0.5C592.5,866,598.4,866.9,604.2,868.6z"/>
			<path class="st4" d="M664,910.2c0,3.5-0.8,5.9-2.5,7.2c3.1,1.9,4.7,4.8,4.7,8.6c0,2.8-0.9,5.1-2.7,7c-1.8,1.9-3.9,2.8-6.4,2.8
				c-2.3,0-4.4-0.8-6-2.4c-1.7-1.6-2.7-3.6-3-6c-2.6,1.4-4.4,2.4-5.6,3.1c-1.9,1.3-3.5,2.7-4.6,4.3h-7.6v-33.4
				c-0.8,0.2-1.5,0.3-2.1,0.3c-2.6,0-4.8-1-6.5-2.9c-1.8-2-2.7-4.3-2.7-7.1c0-2.7,0.9-5,2.7-6.9c1.8-1.9,3.9-2.9,6.5-2.9
				c2.7,0,5,1,6.8,3c1.8,2,2.7,4.5,2.7,7.5v33c1.3-1,4.2-2.6,8.7-4.5c4-1.8,6.8-3.6,8.3-5.5c1.1-1.3,1.7-3.4,1.7-6.2v-26.3h7.5
				V910.2z M632.3,891.7c0-1.2-0.4-2.3-1.2-3.1c-0.8-0.9-1.8-1.3-2.9-1.3c-1.1,0-2.1,0.4-2.9,1.3c-0.8,0.9-1.2,1.9-1.2,3.1
				c0,1.2,0.4,2.3,1.2,3.1c0.8,0.9,1.8,1.3,2.9,1.3c1.1,0,2.1-0.4,2.9-1.3C631.9,894,632.3,893,632.3,891.7z M661.1,926
				c0-1.2-0.4-2.2-1.2-3.1c-0.8-0.9-1.8-1.3-2.9-1.3c-1.1,0-2.1,0.4-2.9,1.3c-0.8,0.9-1.2,1.9-1.2,3.1c0,1.2,0.4,2.2,1.2,3.1
				c0.8,0.9,1.8,1.3,2.9,1.3c1.1,0,2.1-0.4,2.9-1.3C660.7,928.2,661.1,927.2,661.1,926z"/>
		</g>
	</g>
	<g>
		<rect x="52.9" y="54.2" class="st5" width="737" height="694.5"/>
		<g>
			<path class="st6" d="M424.6,402.2c-19.7,0.5-60.1,6.6-89.2,26.1c-25.6,17.1-33,36.8-33.3,47.8c-0.5,14.2,7,42.9,8.9,45.6
				c1.1,1.6,0.6,4.7,0,4.9c-1.9,0.4-18.8,2.7-19.2,11.5c-0.5,8.9,0,26.6,2.3,35.9c2.3,9.3,13.6,35,16.9,38.5
				c3.3,3.5,6.1,7.5,10.8,8.4c1.6,0.3,5.6,0.2,5.6,4.4c0,6.5-0.7,55.5,46.1,75.8c30.6,13.3,51.4,25.6,89.5,5
				c14.6-7.9,29.5-13.8,38.2-23c12.9-13.7,23-45.6,22.2-53.7c-1-10.2,3.4-10.2,4.7-10.3c3.8-0.4,6.3-0.4,9.5-7.1
				c3.3-6.6,18.3-46.5,17.8-54c-0.4-6.8,3.7-27.5-12.2-26.1c-6.5,0.6-10.2-6.8-6.6-14.2c2.8-5.8,8.4-31,3.8-47.8
				c-4.7-16.8-11.7-38.5-28.2-35.9C506.6,416.6,463.4,401.3,424.6,402.2"/>
			<path class="st7" d="M521.3,515c-11.9-15.7-12-26.1-10.6-56.4c0.1-1.3-0.7-2.5-1.9-3.1c-1.2-0.6-2.7-0.4-3.8,0.4
				c-0.4,0.3-37,26.9-85.6,29.3c3-1.5,6.4-2.7,11.1-3.5c1.7-0.3,3-1.8,2.9-3.4c-0.1-1.7-1.5-3-3.2-3.1c-6.4-0.5-79.8,1.8-95.4,13.6
				l-0.6,0.4c-4.2,3.2-8.2,6.2-9.2,12.8c-1,7-0.5,10.7,0.5,17.3c0.3,1.8,2.1,3.1,4,2.8c1.9-0.3,3.3-1.9,3-3.8
				c-0.9-6.1-1.3-9.3-0.5-15.5c0.5-3.8,2.4-5.3,6.6-8.5l0.6-0.4c9.1-6.9,48.1-10.6,72.2-11.8c-1.2,0.8-2.3,1.5-3.4,2.3l-2.2,1.5
				c-1.2,0.8-1.7,2.3-1.3,3.7c0.4,1.4,1.7,2.3,3.2,2.4c45.2,1.5,81.9-18.1,95.8-26.8c-1.1,26.4,0,37.6,12.2,53.8
				c1.1,1.5,3.3,1.8,4.9,0.8C522,518.5,522.4,516.5,521.3,515"/>
			<path class="st6" d="M347.9,313.9c1-4.7-1-12.5-1-12.5s-7.8,4-10.6,7.9c-1,1.4-1.7,2.4-2.1,3.2c-1.6,3.3,0,7.1,3.4,8.6
				c3.5,1.5,7.6,0,9.2-3.2C347.3,317,347.7,315,347.9,313.9"/>
			<path class="st6" d="M335.3,348.5c1-4.7-1-12.5-1-12.5s-7.8,4-10.6,7.9c-1,1.4-1.7,2.4-2.1,3.2c-1.6,3.3,0,7.2,3.4,8.6
				c3.5,1.5,7.6,0,9.2-3.2C334.6,351.5,335.1,349.5,335.3,348.5"/>
			<path class="st6" d="M320.5,385.6c1-4.7-1-12.5-1-12.5s-7.8,4-10.6,7.9c-1,1.4-1.7,2.4-2.1,3.2c-1.6,3.3,0,7.1,3.4,8.6
				c3.5,1.5,7.6,0,9.2-3.2C319.8,388.7,320.3,386.7,320.5,385.6"/>
			<path class="st6" d="M302.9,432.1c1-4.7-1-12.5-1-12.5s-7.8,4-10.6,7.9c-1,1.4-1.7,2.4-2.1,3.2c-1.6,3.3,0,7.1,3.4,8.6
				c3.5,1.5,7.6,0,9.2-3.2C302.2,435.2,302.7,433.2,302.9,432.1"/>
			<path class="st6" d="M283.9,483.9c1-4.7-1-12.5-1-12.5s-7.8,4-10.6,7.9c-1,1.4-1.7,2.4-2.1,3.2c-1.6,3.3,0,7.2,3.4,8.6
				c3.5,1.5,7.6,0,9.2-3.2C283.2,487,283.7,485,283.9,483.9"/>
			<path class="st6" d="M257.2,547.7c1-4.7-1-12.5-1-12.5s-7.8,4-10.6,7.9c-1,1.4-1.7,2.4-2.1,3.2c-1.6,3.3,0,7.1,3.4,8.6
				c3.5,1.5,7.6,0,9.2-3.2C256.5,550.7,256.9,548.7,257.2,547.7"/>
			<path class="st6" d="M317.1,315.3c1.4-4.6,0.2-12.6,0.2-12.6s-8.2,3.3-11.3,7c-1.1,1.3-1.9,2.2-2.4,3c-1.9,3.1-0.7,7.1,2.6,8.9
				c3.3,1.8,7.5,0.7,9.4-2.5C316.1,318.3,316.7,316.4,317.1,315.3"/>
			<path class="st6" d="M299.9,346c1.4-4.6,0.2-12.6,0.2-12.6s-8.2,3.3-11.3,7c-1.1,1.3-1.9,2.2-2.4,3c-1.9,3.1-0.7,7.1,2.6,8.9
				c3.3,1.8,7.5,0.7,9.4-2.5C298.9,349,299.5,347.1,299.9,346"/>
			<path class="st6" d="M279.2,380.6c1.4-4.6,0.2-12.6,0.2-12.6s-8.2,3.3-11.3,7c-1.1,1.3-1.9,2.2-2.4,3c-1.9,3.1-0.7,7.1,2.6,8.9
				c3.3,1.8,7.5,0.7,9.4-2.5C278.3,383.5,278.9,381.6,279.2,380.6"/>
			<path class="st6" d="M254.5,424.2c1.4-4.6,0.2-12.6,0.2-12.6s-8.2,3.3-11.3,7c-1.1,1.3-1.9,2.2-2.4,3c-1.9,3.1-0.7,7.1,2.6,8.9
				c3.3,1.8,7.5,0.7,9.4-2.5C253.6,427.2,254.2,425.3,254.5,424.2"/>
			<path class="st6" d="M226.2,474.3c1.9-4.4,1.6-12.5,1.6-12.5s-8.5,2.5-12,5.8c-1.3,1.2-2.1,2-2.7,2.8c-2.2,2.9-1.5,7,1.6,9.1
				c3.1,2.1,7.4,1.4,9.6-1.5C225,477.2,225.8,475.3,226.2,474.3"/>
			<path class="st6" d="M191.2,534.8c1.9-4.4,1.6-12.5,1.6-12.5s-8.5,2.5-12,5.8c-1.3,1.2-2.1,2-2.7,2.8c-2.2,2.9-1.5,7,1.6,9.1
				c3.1,2.1,7.4,1.4,9.6-1.5C189.9,537.7,190.8,535.8,191.2,534.8"/>
			<path class="st6" d="M384.8,313.2c0.2-4.8-3.1-12.2-3.1-12.2s-7.1,5.1-9.2,9.3c-0.8,1.6-1.3,2.6-1.5,3.5c-1,3.5,1.1,7.1,4.8,8
				c3.7,1,7.5-1.1,8.5-4.6C384.6,316.3,384.8,314.3,384.8,313.2"/>
			<path class="st6" d="M378.7,348.1c0.2-4.8-3.1-12.2-3.1-12.2s-7.1,5.1-9.2,9.3c-0.8,1.6-1.3,2.6-1.5,3.5c-1,3.5,1.1,7.1,4.8,8
				c3.7,1,7.5-1.1,8.5-4.6C378.6,351.2,378.7,349.2,378.7,348.1"/>
			<path class="st6" d="M371.2,387.5c0.2-4.8-3.1-12.2-3.1-12.2s-7.1,5.1-9.2,9.3c-0.8,1.6-1.3,2.6-1.5,3.5c-1,3.5,1.1,7.1,4.8,8
				c3.7,1,7.5-1.1,8.5-4.6C371,390.6,371.1,388.6,371.2,387.5"/>
			<path class="st6" d="M424.4,311.4c-0.9-4.7-5.7-11.4-5.7-11.4s-5.8,6.4-6.9,10.9c-0.4,1.7-0.7,2.8-0.7,3.7
				c-0.2,3.6,2.7,6.7,6.5,6.9c3.8,0.2,7.1-2.5,7.3-6.1C424.9,314.5,424.6,312.5,424.4,311.4"/>
			<path class="st6" d="M463.4,310.9c-1.5-4.5-7.2-10.6-7.2-10.6s-4.8,7-5.3,11.7c-0.2,1.7-0.3,2.8-0.2,3.8c0.3,3.6,3.6,6.3,7.4,6
				c3.8-0.3,6.7-3.4,6.4-7C464.4,313.9,463.8,312,463.4,310.9"/>
			<path class="st6" d="M503.5,309.5c-2.4-4.2-9.2-9.1-9.2-9.1s-3.4,7.7-3,12.4c0.2,1.7,0.3,2.8,0.5,3.7c1,3.5,4.8,5.6,8.4,4.7
				c3.7-0.9,5.9-4.5,4.9-8C505,312.3,504,310.5,503.5,309.5"/>
			<path class="st6" d="M537.4,309c-3-3.8-10.5-7.8-10.5-7.8s-2.2,8.1-1,12.7c0.4,1.7,0.7,2.8,1.1,3.6c1.5,3.3,5.6,4.9,9.1,3.4
				c3.5-1.4,5.1-5.2,3.6-8.6C539.4,311.5,538.1,309.9,537.4,309"/>
			<path class="st6" d="M555.7,342.2c-3-3.8-10.5-7.8-10.5-7.8s-2.2,8.1-1,12.7c0.4,1.7,0.7,2.8,1.1,3.6c1.5,3.3,5.6,4.9,9.1,3.4
				c3.5-1.4,5.1-5.2,3.6-8.6C557.7,344.8,556.4,343.1,555.7,342.2"/>
			<path class="st6" d="M575,376.8c-3-3.8-10.5-7.8-10.5-7.8s-2.2,8.1-1,12.7c0.4,1.7,0.7,2.8,1.1,3.6c1.5,3.3,5.6,4.9,9.1,3.4
				c3.5-1.4,5.1-5.2,3.6-8.6C576.9,379.3,575.7,377.6,575,376.8"/>
			<path class="st6" d="M598.9,418.2c-3.2-3.7-11-7.2-11-7.2s-1.6,8.2-0.2,12.7c0.5,1.6,0.9,2.7,1.3,3.6c1.7,3.2,5.9,4.5,9.3,2.9
				c3.4-1.6,4.8-5.5,3.1-8.8C601,420.6,599.7,419,598.9,418.2"/>
			<path class="st6" d="M629.4,468.2c-3.2-3.7-11-7.2-11-7.2s-1.6,8.2-0.2,12.7c0.5,1.6,0.9,2.7,1.3,3.6c1.7,3.2,5.9,4.5,9.3,2.9
				c3.4-1.6,4.8-5.5,3.1-8.8C631.5,470.6,630.2,469.1,629.4,468.2"/>
			<path class="st6" d="M662.7,529.8c-3.2-3.7-11-7.1-11-7.1s-1.6,8.2-0.2,12.7c0.5,1.6,0.9,2.7,1.3,3.6c1.7,3.2,5.9,4.5,9.3,2.9
				c3.4-1.6,4.8-5.5,3.1-8.8C664.8,532.2,663.5,530.6,662.7,529.8"/>
			<path class="st6" d="M517.3,343.8c-2.4-4.2-9.2-9.1-9.2-9.1s-3.4,7.7-3,12.4c0.2,1.7,0.3,2.8,0.5,3.7c1,3.5,4.7,5.6,8.4,4.7
				c3.7-0.9,5.9-4.5,4.9-8C518.8,346.5,517.8,344.7,517.3,343.8"/>
			<path class="st6" d="M530.1,381.2c-2.4-4.2-9.2-9.1-9.2-9.1s-3.4,7.7-3,12.4c0.2,1.7,0.3,2.8,0.5,3.7c1,3.5,4.7,5.6,8.4,4.7
				c3.7-0.9,5.9-4.5,4.9-8C531.6,384,530.6,382.2,530.1,381.2"/>
			<path class="st6" d="M547.6,427.6c-2.4-4.2-9.2-9.1-9.2-9.1s-3.4,7.7-3,12.4c0.2,1.7,0.3,2.8,0.5,3.7c1,3.5,4.7,5.6,8.4,4.7
				c3.7-0.9,5.9-4.5,4.9-8C549.1,430.3,548.2,428.5,547.6,427.6"/>
			<path class="st6" d="M568.9,479.8c-2.4-4.2-9.2-9.1-9.2-9.1s-3.4,7.7-3,12.4c0.2,1.7,0.3,2.8,0.5,3.7c1,3.5,4.7,5.6,8.4,4.7
				c3.7-0.9,5.9-4.5,4.9-8C570.4,482.6,569.4,480.8,568.9,479.8"/>
			<path class="st6" d="M593,545.6c-2.4-4.2-9.2-9.1-9.2-9.1s-3.4,7.7-3,12.4c0.2,1.7,0.3,2.8,0.5,3.7c1,3.5,4.7,5.6,8.4,4.7
				c3.7-0.9,5.9-4.5,4.9-8C594.5,548.4,593.5,546.6,593,545.6"/>
			<path class="st6" d="M471.3,347.5C469.7,343,464,337,464,337s-4.8,7-5.3,11.7c-0.2,1.7-0.3,2.8-0.2,3.8c0.3,3.6,3.6,6.3,7.4,6
				c3.8-0.3,6.7-3.4,6.4-7C472.2,350.5,471.6,348.6,471.3,347.5"/>
			<path class="st6" d="M476.6,386.8c-1.5-4.6-7.2-10.6-7.2-10.6s-4.9,7-5.3,11.7c-0.2,1.7-0.3,2.8-0.2,3.8c0.3,3.6,3.6,6.3,7.4,6
				c3.8-0.3,6.7-3.4,6.4-7C477.5,389.8,476.9,387.8,476.6,386.8"/>
			<path class="st6" d="M425,347.2c-0.9-4.7-5.7-11.4-5.7-11.4s-5.8,6.4-6.9,10.9c-0.4,1.7-0.7,2.8-0.7,3.7
				c-0.2,3.6,2.7,6.7,6.5,6.9c3.8,0.2,7.1-2.5,7.3-6.1C425.5,350.2,425.2,348.2,425,347.2"/>
			<path class="st6" d="M423.7,386.7c-0.9-4.7-5.7-11.4-5.7-11.4s-5.8,6.4-6.9,10.9c-0.4,1.7-0.7,2.8-0.7,3.7
				c-0.2,3.6,2.7,6.7,6.5,6.9c3.8,0.2,7.1-2.5,7.3-6.1C424.3,389.8,423.9,387.8,423.7,386.7"/>
			<path class="st6" d="M622.9,120c-13.8-13.1-32.9-22.7-56.7-28.7c-17.4-4.4-32.5-5.6-38.7-5.6c-12.4,0-44.5,1-73.5,10
				c-54,16.7-62.1,50-62.1,68.4v48.5c-40.4,9.5-72.1,39.8-81.6,78.2h217.2c-9.6-39.1-42.4-69.9-84-78.7v-48c0-4.5,1.5-7.9,4.9-11.1
				c13.6-12.8,49.5-18.5,79-18.5c0.7,0,63,3.2,68,37.7h51.8C646.3,152,637.9,134.1,622.9,120"/>
		</g>
	</g>
	<g id="stecon_57_">
		<path id="red_57_" class="st8" d="M52.9,54.2c42.5,0,85,0,127.6,0c0,22.6,0,45.1,0,67.7c-42.5,0-85,0-127.5,0c0-0.2,0-0.5,0-0.7
			c0-22.1,0-44.2,0-66.3C52.9,54.6,52.9,54.4,52.9,54.2z M55.8,88c0.2,0.1,0.4,0.2,0.5,0.3c3.6,1.8,7.1,3.7,10.7,5.5
			c16.4,8.4,32.7,16.8,49.1,25.2c0.4,0.2,0.7,0.2,1.1,0c13.8-7.1,27.6-14.2,41.4-21.3c6.1-3.2,12.3-6.3,18.4-9.5
			c0.1-0.1,0.3-0.2,0.5-0.3c-0.2-0.1-0.3-0.2-0.5-0.3c-3.8-1.9-7.6-3.9-11.4-5.8c-16.2-8.3-32.4-16.7-48.5-25
			c-0.3-0.2-0.5-0.2-0.9,0c-7,3.6-14.1,7.3-21.1,10.9C82.6,74.3,70,80.7,57.4,87.2C56.9,87.5,56.4,87.7,55.8,88z"/>
		<g id="white_57_">
			<path class="st2" d="M55.8,88c0.6-0.3,1.1-0.6,1.6-0.8C70,80.7,82.6,74.3,95.2,67.8c7-3.6,14.1-7.2,21.1-10.9
				c0.3-0.2,0.6-0.1,0.9,0c16.2,8.3,32.4,16.7,48.5,25c3.8,1.9,7.6,3.9,11.4,5.8c0.1,0.1,0.3,0.1,0.5,0.3c-0.2,0.1-0.3,0.2-0.5,0.3
				c-6.1,3.2-12.3,6.3-18.4,9.5c-13.8,7.1-27.6,14.2-41.4,21.3c-0.4,0.2-0.7,0.2-1.1,0c-16.4-8.4-32.7-16.8-49.1-25.2
				c-3.6-1.8-7.1-3.7-10.7-5.5C56.2,88.2,56.1,88.1,55.8,88z M59.7,88c0.2,0.1,0.3,0.2,0.4,0.2c1,0.5,1.9,1,2.9,1.5
				c17.7,9.1,35.5,18.2,53.2,27.3c0.3,0.1,0.5,0.2,0.8,0c12.9-6.6,25.7-13.2,38.6-19.8c5.8-3,11.6-6,17.5-9c0.1-0.1,0.3-0.2,0.5-0.3
				c-0.2-0.1-0.4-0.2-0.6-0.3c-15.9-8.2-31.9-16.4-47.8-24.5c-2.7-1.4-5.5-2.8-8.2-4.2c-0.2-0.1-0.4-0.1-0.7,0
				c-0.3,0.2-0.7,0.4-1.1,0.6C97,68.9,78.7,78.3,60.4,87.7C60.2,87.8,60,87.9,59.7,88z"/>
			<path class="st2" d="M147.5,80.1c1.4,0,2.7,0,4.1,0c0,5.2,0,10.3,0,15.4c-1.4,0-2.8,0-4.2,0c-0.9-2.6-1.8-5.3-2.7-7.9
				c0,0-0.1,0-0.1,0c0,2.6,0,5.2,0,7.9c-1.4,0-2.7,0-4,0c0,0,0,0,0,0c0,0,0,0,0,0c0-0.1,0-0.2,0-0.3c0-4.9,0-9.9,0-14.8
				c0,0,0-0.1,0-0.2c0.1,0,0.3,0,0.4,0c1.2,0,2.3,0,3.5,0c0.4,0,0.4,0,0.5,0.4c0.8,2.5,1.6,5,2.4,7.5c0,0.1,0.1,0.2,0.2,0.4
				C147.5,85.7,147.5,83,147.5,80.1z"/>
			<path class="st2" d="M138.9,87.9c0,1.5,0,3,0,4.5c0,0.8-0.3,1.4-0.8,1.9c-0.7,0.7-1.6,1.2-2.6,1.3c-1.5,0.3-3.1,0.3-4.6-0.1
				c-0.9-0.2-1.6-0.6-2.3-1.3c-0.5-0.5-0.8-1.1-0.8-1.9c0-3,0-6.1,0-9.1c0-0.7,0.2-1.3,0.7-1.8c0.6-0.7,1.4-1.2,2.3-1.4
				c1.7-0.4,3.5-0.4,5.2,0.1c0.7,0.2,1.4,0.6,2,1.2c0.6,0.5,0.9,1.2,0.8,2C138.9,85,138.9,86.5,138.9,87.9z M134.2,88
				c0-1.5,0-2.9,0-4.4c0-0.7-0.1-0.9-0.8-0.9c-0.1,0-0.2,0-0.2,0c-0.5,0.1-0.6,0.2-0.6,0.7c0,3,0,6,0,9c0,0.5,0.1,0.7,0.6,0.7
				c0.2,0,0.3,0,0.5,0c0.5-0.1,0.6-0.2,0.6-0.7C134.2,91,134.2,89.5,134.2,88z"/>
			<path class="st2" d="M126.8,89.6c0,0.2,0,0.3,0,0.5c0,0.8,0,1.6,0,2.4c0,0.8-0.3,1.5-0.9,2c-0.7,0.7-1.5,1.1-2.5,1.3
				c-1.5,0.3-3,0.3-4.5-0.1c-0.8-0.2-1.5-0.6-2.2-1.2c-0.6-0.6-0.9-1.2-0.9-2.1c0-3,0-5.9,0-8.9c0-0.9,0.3-1.6,0.9-2.1
				c0.7-0.7,1.6-1.1,2.5-1.2c1.4-0.2,2.9-0.2,4.3,0.1c0.9,0.2,1.6,0.6,2.3,1.2c0.6,0.6,0.9,1.2,0.9,2.1c0,0.8,0,1.7,0,2.5
				c0,0.2,0,0.3,0,0.5c-1.6,0-3.1,0-4.6,0c0-0.2,0-0.3,0-0.5c0-0.9,0-1.7,0-2.6c0-0.5-0.1-0.6-0.6-0.7c-0.1,0-0.2,0-0.3,0
				c-0.7,0.1-0.7,0.3-0.7,0.8c0,2.9,0,5.9,0,8.8c0,0.1,0,0.2,0,0.3c0,0.2,0.1,0.4,0.3,0.4c0.1,0,0.3,0.1,0.4,0.1
				c0.6,0.1,0.8-0.2,0.8-0.8c0-0.8,0-1.5,0-2.3c0-0.2,0-0.3,0-0.5C122.4,89.5,126.1,89.5,126.8,89.6z"/>
			<path class="st2" d="M105.6,95.6c0-5.1,0-10.2,0-15.3c0.4-0.1,8.7-0.1,9.1,0c0,0.8,0,1.6,0,2.5c-0.1,0-0.3,0-0.4,0
				c-1.1,0-2.2,0-3.3,0c-0.1,0-0.3,0-0.5,0c0,1.4,0,2.7,0,4.1c1,0,2.1,0,3.1,0c0,0.8,0,1.5,0,2.2c-0.4,0.1-0.7,0.1-1,0.1
				c-0.3,0-0.7,0-1,0c-0.3,0-0.7,0-1,0c-0.1,0.3-0.1,2.8,0,3.7c0.1,0,0.3,0,0.5,0c1.1,0,2.2,0,3.3,0c0.2,0,0.3,0,0.5,0
				c0,0.9,0,1.8,0,2.6C114.3,95.6,106.1,95.7,105.6,95.6z"/>
			<path class="st2" d="M101.1,95.6c-1.6,0-3.1,0-4.7,0c0-4.3,0-8.5,0-12.8c-1,0-2,0-3,0c-0.1-0.4-0.1-2.1,0-2.6
				c0.3-0.1,10.4-0.1,10.8,0c0.1,0.3,0.1,2.1,0,2.6c-1,0-2,0-3,0C101.1,87.1,101.1,91.3,101.1,95.6z"/>
			<path class="st2" d="M92.2,85.6c-1.6,0-3.1,0-4.6,0c0-0.2,0-0.3,0-0.5c0-0.6,0-1.2,0-1.8c0-0.4-0.1-0.6-0.5-0.6
				c-0.1,0-0.2,0-0.4,0c-0.3,0-0.5,0.2-0.5,0.5c0,0.6,0,1.1,0,1.7c0,0.4,0.2,0.6,0.5,0.8c0.4,0.2,0.7,0.4,1.1,0.7
				c1,0.6,2,1.1,2.9,1.7c0.1,0.1,0.3,0.2,0.4,0.3c0.7,0.5,1.1,1.2,1.1,2.1c0,0.7,0,1.3,0,2c0,0.7-0.2,1.3-0.7,1.7
				c-0.7,0.7-1.5,1.2-2.4,1.4c-1.5,0.4-3.1,0.4-4.7,0c-0.8-0.2-1.6-0.6-2.2-1.2c-0.6-0.5-0.9-1.2-0.9-2.1c0-0.8,0-1.5,0-2.3
				c0.3-0.1,3.9-0.1,4.5,0c0,0.1,0,0.3,0,0.4c0,0.7,0,1.3,0,2c0,0.4,0.1,0.6,0.5,0.6c0.2,0,0.5,0,0.7-0.1c0.2,0,0.3-0.2,0.3-0.4
				c0-0.6,0-1.2,0-1.8c0-0.3-0.2-0.6-0.4-0.7c-0.4-0.3-0.8-0.5-1.2-0.8c-1-0.6-2-1.2-2.9-1.8c-0.3-0.2-0.6-0.4-0.9-0.7
				c-0.4-0.4-0.6-0.9-0.6-1.5c0-0.7,0-1.3,0-2c0-0.8,0.3-1.4,0.8-1.9c0.7-0.7,1.6-1.2,2.6-1.4c1.4-0.3,2.8-0.3,4.2,0.1
				c0.9,0.2,1.7,0.7,2.3,1.3c0.5,0.5,0.8,1.1,0.8,1.9C92.2,84.1,92.2,84.8,92.2,85.6z"/>
		</g>
		<g id="blue_57_">
			<path class="st9" d="M59.7,88c0.3-0.1,0.5-0.2,0.7-0.3c18.3-9.4,36.6-18.8,54.9-28.1c0.4-0.2,0.7-0.4,1.1-0.6
				c0.2-0.1,0.4-0.1,0.7,0c2.7,1.4,5.4,2.8,8.2,4.2c15.9,8.2,31.9,16.4,47.8,24.5c0.2,0.1,0.3,0.2,0.6,0.3c-0.2,0.1-0.3,0.2-0.5,0.3
				c-5.8,3-11.6,6-17.5,9c-12.9,6.6-25.7,13.2-38.6,19.8c-0.3,0.1-0.5,0.1-0.8,0c-17.7-9.1-35.5-18.2-53.2-27.3
				c-1-0.5-1.9-1-2.9-1.5C60.1,88.2,59.9,88.1,59.7,88z M147.5,80.1c0,2.8,0,5.5,0,8.3c-0.1-0.1-0.1-0.2-0.2-0.4
				c-0.8-2.5-1.6-5-2.4-7.5c-0.1-0.4-0.1-0.4-0.5-0.4c-1.2,0-2.3,0-3.5,0c-0.1,0-0.3,0-0.4,0c0,0.1,0,0.1,0,0.2c0,4.9,0,9.9,0,14.8
				c0,0.1,0,0.2,0,0.3c0,0,0,0,0,0c0,0,0,0,0,0c1.3,0,2.7,0,4,0c0-2.7,0-5.3,0-7.9c0,0,0.1,0,0.1,0c0.9,2.6,1.8,5.3,2.7,7.9
				c1.4,0,2.8,0,4.2,0c0-5.1,0-10.2,0-15.4C150.2,80.1,148.9,80.1,147.5,80.1z M138.9,87.9c0-1.5,0-3,0-4.5c0-0.8-0.3-1.5-0.8-2
				c-0.6-0.6-1.2-1-2-1.2c-1.7-0.5-3.5-0.5-5.2-0.1c-0.9,0.2-1.7,0.7-2.3,1.4c-0.4,0.5-0.7,1.1-0.7,1.8c0,3,0,6.1,0,9.1
				c0,0.8,0.3,1.4,0.8,1.9c0.6,0.7,1.4,1.1,2.3,1.3c1.5,0.3,3.1,0.3,4.6,0.1c1-0.2,1.8-0.6,2.6-1.3c0.5-0.5,0.8-1.2,0.8-1.9
				C138.9,91,138.9,89.5,138.9,87.9z M126.8,89.6c-0.6-0.1-4.3-0.1-4.7,0c0,0.1,0,0.3,0,0.5c0,0.8,0,1.5,0,2.3
				c0,0.7-0.2,0.9-0.8,0.8c-0.1,0-0.3,0-0.4-0.1c-0.2-0.1-0.3-0.2-0.3-0.4c0-0.1,0-0.2,0-0.3c0-2.9,0-5.9,0-8.8c0-0.5,0-0.7,0.7-0.8
				c0.1,0,0.2,0,0.3,0c0.5,0.1,0.6,0.2,0.6,0.7c0,0.9,0,1.7,0,2.6c0,0.2,0,0.3,0,0.5c1.6,0,3.1,0,4.6,0c0-0.2,0-0.4,0-0.5
				c0-0.8,0-1.7,0-2.5c0-0.9-0.3-1.5-0.9-2.1c-0.7-0.6-1.4-1-2.3-1.2c-1.4-0.3-2.9-0.3-4.3-0.1c-0.9,0.2-1.8,0.6-2.5,1.2
				c-0.6,0.6-0.9,1.3-0.9,2.1c0,3,0,5.9,0,8.9c0,0.9,0.3,1.6,0.9,2.1c0.6,0.6,1.4,1,2.2,1.2c1.5,0.3,3,0.3,4.5,0.1
				c0.9-0.2,1.8-0.6,2.5-1.3c0.6-0.5,0.9-1.2,0.9-2c0-0.8,0-1.6,0-2.4C126.8,89.9,126.8,89.7,126.8,89.6z M92.2,85.6
				c0-0.7,0-1.4,0-2.1c0-0.8-0.3-1.4-0.8-1.9c-0.7-0.7-1.4-1.1-2.3-1.3c-1.4-0.3-2.8-0.3-4.2-0.1c-1,0.2-1.9,0.6-2.6,1.4
				c-0.5,0.5-0.8,1.1-0.8,1.9c0,0.7,0,1.3,0,2c0,0.6,0.2,1.1,0.6,1.5c0.3,0.2,0.6,0.5,0.9,0.7c1,0.6,2,1.2,2.9,1.8
				c0.4,0.2,0.8,0.5,1.2,0.8c0.2,0.2,0.4,0.4,0.4,0.7c0,0.6,0,1.2,0,1.8c0,0.2-0.1,0.4-0.3,0.4c-0.2,0-0.5,0.1-0.7,0.1
				c-0.4,0-0.5-0.2-0.5-0.6c0-0.7,0-1.3,0-2c0-0.1,0-0.3,0-0.4c-0.6-0.1-4.2-0.1-4.5,0c0,0.7,0,1.5,0,2.3c0,0.9,0.3,1.5,0.9,2.1
				c0.6,0.6,1.4,1,2.2,1.2c1.6,0.4,3.1,0.3,4.7,0c0.9-0.2,1.7-0.7,2.4-1.4c0.4-0.5,0.7-1.1,0.7-1.7c0-0.7,0-1.3,0-2
				c0-0.9-0.4-1.6-1.1-2.1c-0.1-0.1-0.3-0.2-0.4-0.3c-1-0.6-2-1.1-2.9-1.7c-0.4-0.2-0.7-0.4-1.1-0.7c-0.3-0.2-0.5-0.4-0.5-0.8
				c0-0.6,0-1.1,0-1.7c0-0.3,0.2-0.5,0.5-0.5c0.1,0,0.2,0,0.4,0c0.4,0,0.5,0.2,0.5,0.6c0,0.6,0,1.2,0,1.8c0,0.1,0,0.3,0,0.5
				C89.1,85.6,90.6,85.6,92.2,85.6z M105.6,95.6c0.5,0.1,8.8,0.1,9.1,0c0-0.9,0-1.7,0-2.6c-0.2,0-0.3,0-0.5,0c-1.1,0-2.2,0-3.3,0
				c-0.2,0-0.3,0-0.5,0c-0.1-0.8,0-3.3,0-3.7c0.3,0,0.7,0,1,0c0.3,0,0.7,0,1,0c0.3,0,0.7,0.1,1-0.1c0-0.7,0-1.5,0-2.2
				c-1.1,0-2.1,0-3.1,0c0-1.4,0-2.7,0-4.1c0.2,0,0.3,0,0.5,0c1.1,0,2.2,0,3.3,0c0.1,0,0.3,0,0.4,0c0-0.9,0-1.7,0-2.5
				c-0.4-0.1-8.7-0.1-9.1,0C105.6,85.3,105.6,90.4,105.6,95.6z M101.1,95.6c0-4.3,0-8.5,0-12.8c1,0,2,0,3,0c0.1-0.5,0.1-2.2,0-2.6
				c-0.4-0.1-10.5-0.1-10.8,0c-0.1,0.4-0.1,2.2,0,2.6c1,0,2,0,3,0c0,4.3,0,8.5,0,12.8C98,95.6,99.5,95.6,101.1,95.6z"/>
			<path class="st9" d="M134.2,88c0,1.5,0,3,0,4.5c0,0.5-0.1,0.6-0.6,0.7c-0.2,0-0.3,0-0.5,0c-0.5-0.1-0.6-0.2-0.6-0.7c0-3,0-6,0-9
				c0-0.5,0.1-0.6,0.6-0.7c0.1,0,0.2,0,0.2,0c0.7,0,0.8,0.1,0.8,0.9C134.2,85.1,134.2,86.5,134.2,88z"/>
		</g>
	</g>
</g>
</svg>
