<?xml version="1.0" encoding="utf-8"?>
<!-- Generator: Adobe Illustrator 22.0.0, SVG Export Plug-In . SVG Version: 6.00 Build 0)  -->
<svg version="1.1" id="Layer_1" xmlns="http://www.w3.org/2000/svg" xmlns:xlink="http://www.w3.org/1999/xlink" x="0px" y="0px"
	 viewBox="0 0 841.9 1190.6" style="enable-background:new 0 0 841.9 1190.6;" xml:space="preserve">
<style type="text/css">
	.st0{fill:none;}
	.st1{fill:#010101;}
	.st2{fill:#FFFFFF;}
	.st3{fill:#154989;}
	.st4{fill:#EB2627;}
	.st5{fill:#2A3B8F;}
	.st6{fill:#FFFFFF;stroke:#FFFFFF;stroke-miterlimit:10;}
	.st7{fill-rule:evenodd;clip-rule:evenodd;fill:#FFFFFF;}
	.st8{fill-rule:evenodd;clip-rule:evenodd;fill:#154989;}
	.st9{fill:#2F3690;}
</style>
<g>
	<g>
		<rect x="0" y="0" class="st0" width="841.9" height="1190.6"/>
		<rect x="28.3" y="28.3" class="st1" width="785.2" height="1133.9"/>
		<rect x="34" y="34" class="st2" width="773.9" height="1122.5"/>
		<rect x="52.5" y="792.6" class="st3" width="737" height="348.7"/>
		<g id="stecon_49_">
			<path id="red_49_" class="st4" d="M52.8,53.5c42.5,0,85,0,127.6,0c0,22.6,0,45.1,0,67.7c-42.5,0-85,0-127.5,0c0-0.2,0-0.5,0-0.7
				c0-22.1,0-44.2,0-66.3C52.9,54,52.8,53.8,52.8,53.5z M55.8,87.4c0.2,0.1,0.4,0.2,0.5,0.3c3.6,1.8,7.1,3.7,10.7,5.5
				c16.4,8.4,32.7,16.8,49.1,25.2c0.4,0.2,0.7,0.2,1.1,0c13.8-7.1,27.6-14.2,41.4-21.3c6.1-3.2,12.3-6.3,18.4-9.5
				c0.1-0.1,0.3-0.2,0.5-0.3c-0.2-0.1-0.3-0.2-0.5-0.3c-3.8-1.9-7.6-3.9-11.4-5.8c-16.2-8.3-32.4-16.7-48.5-25
				c-0.3-0.2-0.5-0.2-0.9,0c-7,3.6-14.1,7.3-21.1,10.9c-12.6,6.5-25.2,12.9-37.7,19.4C56.9,86.8,56.4,87.1,55.8,87.4z"/>
			<g id="white_49_">
				<path class="st2" d="M55.8,87.4c0.6-0.3,1.1-0.6,1.6-0.8c12.6-6.5,25.2-12.9,37.7-19.4c7-3.6,14.1-7.2,21.1-10.9
					c0.3-0.2,0.6-0.1,0.9,0c16.2,8.3,32.4,16.7,48.5,25c3.8,1.9,7.6,3.9,11.4,5.8c0.1,0.1,0.3,0.1,0.5,0.3c-0.2,0.1-0.3,0.2-0.5,0.3
					c-6.1,3.2-12.3,6.3-18.4,9.5c-13.8,7.1-27.6,14.2-41.4,21.3c-0.4,0.2-0.7,0.2-1.1,0C99.7,110,83.4,101.6,67,93.1
					c-3.6-1.8-7.1-3.7-10.7-5.5C56.2,87.6,56,87.5,55.8,87.4z M59.7,87.4c0.2,0.1,0.3,0.2,0.4,0.2c1,0.5,1.9,1,2.9,1.5
					c17.7,9.1,35.5,18.2,53.2,27.3c0.3,0.1,0.5,0.2,0.8,0c12.9-6.6,25.7-13.2,38.6-19.8c5.8-3,11.6-6,17.5-9
					c0.1-0.1,0.3-0.2,0.5-0.3c-0.2-0.1-0.4-0.2-0.6-0.3c-15.9-8.2-31.9-16.4-47.8-24.5c-2.7-1.4-5.5-2.8-8.2-4.2
					c-0.2-0.1-0.4-0.1-0.7,0c-0.3,0.2-0.7,0.4-1.1,0.6C97,68.3,78.6,77.6,60.3,87C60.1,87.1,60,87.2,59.7,87.4z"/>
				<path class="st2" d="M147.4,79.5c1.4,0,2.7,0,4.1,0c0,5.2,0,10.3,0,15.4c-1.4,0-2.8,0-4.2,0c-0.9-2.6-1.8-5.3-2.7-7.9
					c0,0-0.1,0-0.1,0c0,2.6,0,5.2,0,7.9c-1.4,0-2.7,0-4,0c0,0,0,0,0,0c0,0,0,0,0,0c0-0.1,0-0.2,0-0.3c0-4.9,0-9.9,0-14.8
					c0,0,0-0.1,0-0.2c0.1,0,0.3,0,0.4,0c1.2,0,2.3,0,3.5,0c0.4,0,0.4,0,0.5,0.4c0.8,2.5,1.6,5,2.4,7.5c0,0.1,0.1,0.2,0.2,0.4
					C147.4,85,147.4,82.3,147.4,79.5z"/>
				<path class="st2" d="M138.8,87.3c0,1.5,0,3,0,4.5c0,0.8-0.3,1.4-0.8,1.9c-0.7,0.7-1.6,1.2-2.6,1.3c-1.5,0.3-3.1,0.3-4.6-0.1
					c-0.9-0.2-1.6-0.6-2.3-1.3c-0.5-0.5-0.8-1.1-0.8-1.9c0-3,0-6.1,0-9.1c0-0.7,0.2-1.3,0.7-1.8c0.6-0.7,1.4-1.2,2.3-1.4
					c1.7-0.4,3.5-0.4,5.2,0.1c0.7,0.2,1.4,0.6,2,1.2c0.6,0.5,0.9,1.2,0.8,2C138.8,84.3,138.8,85.8,138.8,87.3z M134.2,87.3
					c0-1.5,0-2.9,0-4.4c0-0.7-0.1-0.9-0.8-0.9c-0.1,0-0.2,0-0.2,0c-0.5,0.1-0.6,0.2-0.6,0.7c0,3,0,6,0,9c0,0.5,0.1,0.7,0.6,0.7
					c0.2,0,0.3,0,0.5,0c0.5-0.1,0.6-0.2,0.6-0.7C134.2,90.3,134.2,88.8,134.2,87.3z"/>
				<path class="st2" d="M126.7,88.9c0,0.2,0,0.3,0,0.5c0,0.8,0,1.6,0,2.4c0,0.8-0.3,1.5-0.9,2c-0.7,0.7-1.5,1.1-2.5,1.3
					c-1.5,0.3-3,0.3-4.5-0.1c-0.8-0.2-1.5-0.6-2.2-1.2c-0.6-0.6-0.9-1.2-0.9-2.1c0-3,0-5.9,0-8.9c0-0.9,0.3-1.6,0.9-2.1
					c0.7-0.7,1.6-1.1,2.5-1.2c1.4-0.2,2.9-0.2,4.3,0.1c0.9,0.2,1.6,0.6,2.3,1.2c0.6,0.6,0.9,1.2,0.9,2.1c0,0.8,0,1.7,0,2.5
					c0,0.2,0,0.3,0,0.5c-1.6,0-3.1,0-4.6,0c0-0.2,0-0.3,0-0.5c0-0.9,0-1.7,0-2.6c0-0.5-0.1-0.6-0.6-0.7c-0.1,0-0.2,0-0.3,0
					c-0.7,0.1-0.7,0.3-0.7,0.8c0,2.9,0,5.9,0,8.8c0,0.1,0,0.2,0,0.3c0,0.2,0.1,0.4,0.3,0.4c0.1,0,0.3,0.1,0.4,0.1
					c0.6,0.1,0.8-0.2,0.8-0.8c0-0.8,0-1.5,0-2.3c0-0.2,0-0.3,0-0.5C122.4,88.8,126,88.8,126.7,88.9z"/>
				<path class="st2" d="M105.5,94.9c0-5.1,0-10.2,0-15.3c0.4-0.1,8.7-0.1,9.1,0c0,0.8,0,1.6,0,2.5c-0.1,0-0.3,0-0.4,0
					c-1.1,0-2.2,0-3.3,0c-0.1,0-0.3,0-0.5,0c0,1.4,0,2.7,0,4.1c1,0,2.1,0,3.1,0c0,0.8,0,1.5,0,2.2c-0.4,0.1-0.7,0.1-1,0.1
					c-0.3,0-0.7,0-1,0c-0.3,0-0.7,0-1,0c-0.1,0.3-0.1,2.8,0,3.7c0.1,0,0.3,0,0.5,0c1.1,0,2.2,0,3.3,0c0.2,0,0.3,0,0.5,0
					c0,0.9,0,1.8,0,2.6C114.3,95,106,95,105.5,94.9z"/>
				<path class="st2" d="M101.1,94.9c-1.6,0-3.1,0-4.7,0c0-4.3,0-8.5,0-12.8c-1,0-2,0-3,0c-0.1-0.4-0.1-2.1,0-2.6
					c0.3-0.1,10.4-0.1,10.8,0c0.1,0.3,0.1,2.1,0,2.6c-1,0-2,0-3,0C101.1,86.4,101.1,90.6,101.1,94.9z"/>
				<path class="st2" d="M92.1,84.9c-1.6,0-3.1,0-4.6,0c0-0.2,0-0.3,0-0.5c0-0.6,0-1.2,0-1.8c0-0.4-0.1-0.6-0.5-0.6
					c-0.1,0-0.2,0-0.4,0c-0.3,0-0.5,0.2-0.5,0.5c0,0.6,0,1.1,0,1.7c0,0.4,0.2,0.6,0.5,0.8c0.4,0.2,0.7,0.4,1.1,0.7
					c1,0.6,2,1.1,2.9,1.7c0.1,0.1,0.3,0.2,0.4,0.3c0.7,0.5,1.1,1.2,1.1,2.1c0,0.7,0,1.3,0,2c0,0.7-0.2,1.3-0.7,1.7
					c-0.7,0.7-1.5,1.2-2.4,1.4c-1.5,0.4-3.1,0.4-4.7,0c-0.8-0.2-1.6-0.6-2.2-1.2c-0.6-0.5-0.9-1.2-0.9-2.1c0-0.8,0-1.5,0-2.3
					c0.3-0.1,3.9-0.1,4.5,0c0,0.1,0,0.3,0,0.4c0,0.7,0,1.3,0,2c0,0.4,0.1,0.6,0.5,0.6c0.2,0,0.5,0,0.7-0.1c0.2,0,0.3-0.2,0.3-0.4
					c0-0.6,0-1.2,0-1.8c0-0.3-0.2-0.6-0.4-0.7c-0.4-0.3-0.8-0.5-1.2-0.8c-1-0.6-2-1.2-2.9-1.8c-0.3-0.2-0.6-0.4-0.9-0.7
					c-0.4-0.4-0.6-0.9-0.6-1.5c0-0.7,0-1.3,0-2c0-0.8,0.3-1.4,0.8-1.9c0.7-0.7,1.6-1.2,2.6-1.4c1.4-0.3,2.8-0.3,4.2,0.1
					c0.9,0.2,1.7,0.7,2.3,1.3c0.5,0.5,0.8,1.1,0.8,1.9C92.1,83.5,92.1,84.2,92.1,84.9z"/>
			</g>
			<g id="blue_49_">
				<path class="st5" d="M59.7,87.4c0.3-0.1,0.5-0.2,0.7-0.3c18.3-9.4,36.6-18.8,54.9-28.1c0.4-0.2,0.7-0.4,1.1-0.6
					c0.2-0.1,0.4-0.1,0.7,0c2.7,1.4,5.4,2.8,8.2,4.2c15.9,8.2,31.9,16.4,47.8,24.5c0.2,0.1,0.3,0.2,0.6,0.3
					c-0.2,0.1-0.3,0.2-0.5,0.3c-5.8,3-11.6,6-17.5,9c-12.9,6.6-25.7,13.2-38.6,19.8c-0.3,0.1-0.5,0.1-0.8,0
					C98.5,107.3,80.8,98.2,63,89.1c-1-0.5-1.9-1-2.9-1.5C60,87.5,59.9,87.5,59.7,87.4z M147.4,79.5c0,2.8,0,5.5,0,8.3
					c-0.1-0.1-0.1-0.2-0.2-0.4c-0.8-2.5-1.6-5-2.4-7.5c-0.1-0.4-0.1-0.4-0.5-0.4c-1.2,0-2.3,0-3.5,0c-0.1,0-0.3,0-0.4,0
					c0,0.1,0,0.1,0,0.2c0,4.9,0,9.9,0,14.8c0,0.1,0,0.2,0,0.3c0,0,0,0,0,0c0,0,0,0,0,0c1.3,0,2.7,0,4,0c0-2.7,0-5.3,0-7.9
					c0,0,0.1,0,0.1,0c0.9,2.6,1.8,5.3,2.7,7.9c1.4,0,2.8,0,4.2,0c0-5.1,0-10.2,0-15.4C150.2,79.5,148.8,79.5,147.4,79.5z
					 M138.8,87.3c0-1.5,0-3,0-4.5c0-0.8-0.3-1.5-0.8-2c-0.6-0.6-1.2-1-2-1.2c-1.7-0.5-3.5-0.5-5.2-0.1c-0.9,0.2-1.7,0.7-2.3,1.4
					c-0.4,0.5-0.7,1.1-0.7,1.8c0,3,0,6.1,0,9.1c0,0.8,0.3,1.4,0.8,1.9c0.6,0.7,1.4,1.1,2.3,1.3c1.5,0.3,3.1,0.3,4.6,0.1
					c1-0.2,1.8-0.6,2.6-1.3c0.5-0.5,0.8-1.2,0.8-1.9C138.8,90.3,138.8,88.8,138.8,87.3z M126.7,88.9c-0.6-0.1-4.3-0.1-4.7,0
					c0,0.1,0,0.3,0,0.5c0,0.8,0,1.5,0,2.3c0,0.7-0.2,0.9-0.8,0.8c-0.1,0-0.3,0-0.4-0.1c-0.2-0.1-0.3-0.2-0.3-0.4c0-0.1,0-0.2,0-0.3
					c0-2.9,0-5.9,0-8.8c0-0.5,0-0.7,0.7-0.8c0.1,0,0.2,0,0.3,0c0.5,0.1,0.6,0.2,0.6,0.7c0,0.9,0,1.7,0,2.6c0,0.2,0,0.3,0,0.5
					c1.6,0,3.1,0,4.6,0c0-0.2,0-0.4,0-0.5c0-0.8,0-1.7,0-2.5c0-0.9-0.3-1.5-0.9-2.1c-0.7-0.6-1.4-1-2.3-1.2
					c-1.4-0.3-2.9-0.3-4.3-0.1c-0.9,0.2-1.8,0.6-2.5,1.2c-0.6,0.6-0.9,1.3-0.9,2.1c0,3,0,5.9,0,8.9c0,0.9,0.3,1.6,0.9,2.1
					c0.6,0.6,1.4,1,2.2,1.2c1.5,0.3,3,0.3,4.5,0.1c0.9-0.2,1.8-0.6,2.5-1.3c0.6-0.5,0.9-1.2,0.9-2c0-0.8,0-1.6,0-2.4
					C126.7,89.2,126.7,89.1,126.7,88.9z M92.1,84.9c0-0.7,0-1.4,0-2.1c0-0.8-0.3-1.4-0.8-1.9c-0.7-0.7-1.4-1.1-2.3-1.3
					c-1.4-0.3-2.8-0.3-4.2-0.1c-1,0.2-1.9,0.6-2.6,1.4c-0.5,0.5-0.8,1.1-0.8,1.9c0,0.7,0,1.3,0,2c0,0.6,0.2,1.1,0.6,1.5
					c0.3,0.2,0.6,0.5,0.9,0.7c1,0.6,2,1.2,2.9,1.8c0.4,0.2,0.8,0.5,1.2,0.8c0.2,0.2,0.4,0.4,0.4,0.7c0,0.6,0,1.2,0,1.8
					c0,0.2-0.1,0.4-0.3,0.4c-0.2,0-0.5,0.1-0.7,0.1c-0.4,0-0.5-0.2-0.5-0.6c0-0.7,0-1.3,0-2c0-0.1,0-0.3,0-0.4
					c-0.6-0.1-4.2-0.1-4.5,0c0,0.7,0,1.5,0,2.3c0,0.9,0.3,1.5,0.9,2.1c0.6,0.6,1.4,1,2.2,1.2c1.6,0.4,3.1,0.3,4.7,0
					c0.9-0.2,1.7-0.7,2.4-1.4c0.4-0.5,0.7-1.1,0.7-1.7c0-0.7,0-1.3,0-2c0-0.9-0.4-1.6-1.1-2.1c-0.1-0.1-0.3-0.2-0.4-0.3
					c-1-0.6-2-1.1-2.9-1.7c-0.4-0.2-0.7-0.4-1.1-0.7c-0.3-0.2-0.5-0.4-0.5-0.8c0-0.6,0-1.1,0-1.7c0-0.3,0.2-0.5,0.5-0.5
					c0.1,0,0.2,0,0.4,0c0.4,0,0.5,0.2,0.5,0.6c0,0.6,0,1.2,0,1.8c0,0.1,0,0.3,0,0.5C89.1,84.9,90.6,84.9,92.1,84.9z M105.5,94.9
					c0.5,0.1,8.8,0.1,9.1,0c0-0.9,0-1.7,0-2.6c-0.2,0-0.3,0-0.5,0c-1.1,0-2.2,0-3.3,0c-0.2,0-0.3,0-0.5,0c-0.1-0.8,0-3.3,0-3.7
					c0.3,0,0.7,0,1,0c0.3,0,0.7,0,1,0c0.3,0,0.7,0.1,1-0.1c0-0.7,0-1.5,0-2.2c-1.1,0-2.1,0-3.1,0c0-1.4,0-2.7,0-4.1
					c0.2,0,0.3,0,0.5,0c1.1,0,2.2,0,3.3,0c0.1,0,0.3,0,0.4,0c0-0.9,0-1.7,0-2.5c-0.4-0.1-8.7-0.1-9.1,0
					C105.5,84.7,105.5,89.8,105.5,94.9z M101.1,94.9c0-4.3,0-8.5,0-12.8c1,0,2,0,3,0c0.1-0.5,0.1-2.2,0-2.6
					c-0.4-0.1-10.5-0.1-10.8,0c-0.1,0.4-0.1,2.2,0,2.6c1,0,2,0,3,0c0,4.3,0,8.5,0,12.8C97.9,94.9,99.5,94.9,101.1,94.9z"/>
				<path class="st5" d="M134.2,87.3c0,1.5,0,3,0,4.5c0,0.5-0.1,0.6-0.6,0.7c-0.2,0-0.3,0-0.5,0c-0.5-0.1-0.6-0.2-0.6-0.7
					c0-3,0-6,0-9c0-0.5,0.1-0.6,0.6-0.7c0.1,0,0.2,0,0.2,0c0.7,0,0.8,0.1,0.8,0.9C134.2,84.4,134.2,85.9,134.2,87.3z"/>
			</g>
		</g>
	</g>
	<g>
		<path class="st6" d="M160,1033.8l6.8-1c0.4,3.5,1.2,6.1,2.5,7.8s2.9,2.5,5.1,2.5c2.2,0,3.9-0.7,5.1-2.2c1.1-1.5,1.7-3.2,1.7-5.2
			c0-1.3-0.2-2.3-0.7-3.2c-0.5-0.9-1.3-1.7-2.5-2.3c-0.8-0.4-2.7-1.2-5.6-2.3c-3.7-1.4-6.4-3.2-7.9-5.3c-2.1-3-3.2-6.6-3.2-10.8
			c0-2.7,0.5-5.3,1.5-7.7c1-2.4,2.4-4.2,4.3-5.4c1.9-1.2,4.1-1.9,6.8-1.9c4.3,0,7.6,1.5,9.8,4.4s3.3,6.9,3.5,11.8l-7,0.5
			c-0.3-2.8-0.9-4.7-1.9-6c-1-1.2-2.5-1.8-4.4-1.8c-2,0-3.6,0.6-4.8,1.9c-0.7,0.8-1.1,1.9-1.1,3.3c0,1.3,0.3,2.4,1,3.3
			c0.9,1.1,3,2.3,6.4,3.6c3.4,1.2,5.9,2.5,7.5,3.9s2.9,3.1,3.8,5.5c0.9,2.3,1.4,5.2,1.4,8.6c0,3.1-0.6,6-1.6,8.6
			c-1.1,2.7-2.7,4.7-4.7,6c-2,1.3-4.5,2-7.5,2c-4.4,0-7.7-1.6-10.1-4.7C161.9,1044.4,160.5,1039.8,160,1033.8z"/>
		<path class="st6" d="M198.9,1051.3l-8.2-53.7h7.1l5.2,36.9l6.3-36.9h8.3l6.1,37.5l5.3-37.5h7l-8.4,53.7h-7.4l-6.9-40.1l-6.9,40.1
			H198.9z"/>
		<path class="st6" d="M239.3,1051.3v-53.7h7v53.7H239.3z"/>
		<path class="st6" d="M260.7,1051.3v-44.6h-10.3v-9.1h27.5v9.1h-10.2v44.6H260.7z"/>
		<path class="st6" d="M304.5,1031.5l6.8,3.3c-1,5.9-2.8,10.2-5.2,13.1c-2.4,2.8-5.5,4.3-9.2,4.3c-4.6,0-8.4-2.4-11.3-7.3
			c-3-4.9-4.4-11.5-4.4-20c0-8.9,1.5-15.9,4.5-20.8c3-4.9,6.9-7.4,11.7-7.4c4.2,0,7.7,1.9,10.3,5.8c1.6,2.3,2.7,5.6,3.5,9.9
			l-6.9,2.6c-0.4-2.8-1.3-5-2.6-6.6s-2.9-2.4-4.7-2.4c-2.6,0-4.6,1.4-6.2,4.3c-1.6,2.9-2.4,7.5-2.4,13.9c0,6.8,0.8,11.6,2.4,14.5
			c1.6,2.9,3.6,4.3,6.1,4.3c1.9,0,3.4-0.9,4.8-2.7C303,1038.3,304,1035.5,304.5,1031.5z"/>
		<path class="st6" d="M317.3,1051.3v-53.7h7v21.1H338v-21.1h7v53.7h-7v-23.5h-13.7v23.5H317.3z"/>
		<path class="st6" d="M377.5,1024.8c0-5.5,0.5-10.1,1.6-13.8c0.8-2.7,1.9-5.2,3.2-7.4c1.4-2.2,2.8-3.8,4.5-4.8
			c2.2-1.4,4.6-2.1,7.4-2.1c5.1,0,9.2,2.5,12.2,7.4c3.1,4.9,4.6,11.7,4.6,20.5c0,8.7-1.5,15.4-4.5,20.3c-3,4.9-7.1,7.3-12.2,7.3
			c-5.1,0-9.2-2.4-12.3-7.3C379.1,1040,377.5,1033.3,377.5,1024.8z M384.7,1024.4c0,6.1,0.9,10.7,2.7,13.8c1.8,3.1,4.1,4.7,6.9,4.7
			s5.1-1.6,6.8-4.7c1.8-3.1,2.7-7.8,2.7-14c0-6.2-0.9-10.7-2.6-13.8c-1.7-3-4-4.5-6.9-4.5s-5.2,1.5-7,4.6
			C385.6,1013.6,384.7,1018.2,384.7,1024.4z"/>
		<path class="st6" d="M416.5,1051.3v-53.7h23.7v9.1h-16.7v12.7h14.4v9.1h-14.4v22.8H416.5z"/>
		<path class="st6" d="M446,1051.3v-53.7h23.7v9.1H453v12.7h14.4v9.1H453v22.8H446z"/>
		<path class="st6" d="M502.3,1051.3v-53.7h25.6v9.1h-18.6v11.9h17.3v9h-17.3v14.6h19.3v9H502.3z"/>
		<path class="st6" d="M534.5,1051.3v-53.7h6.8l14.1,35.9v-35.9h6.5v53.7h-7l-13.9-35v35H534.5z"/>
		<path class="st6" d="M585.4,1031.5v-9h15v21.4c-1.5,2.2-3.6,4.1-6.4,5.8c-2.8,1.7-5.6,2.5-8.4,2.5c-3.6,0-6.8-1.2-9.5-3.5
			s-4.7-5.7-6.1-10.1c-1.4-4.4-2-9.1-2-14.3c0-5.6,0.8-10.6,2.3-14.9c1.5-4.3,3.7-7.7,6.6-10c2.2-1.8,5-2.7,8.3-2.7
			c4.3,0,7.6,1.4,10.1,4.2c2.4,2.8,4,6.7,4.7,11.6l-6.9,2c-0.5-2.6-1.4-4.7-2.7-6.2s-3-2.3-5-2.3c-3,0-5.5,1.5-7.3,4.5
			c-1.8,3-2.7,7.5-2.7,13.4c0,6.4,0.9,11.2,2.7,14.3c1.8,3.2,4.2,4.8,7.2,4.8c1.5,0,2.9-0.4,4.4-1.3c1.5-0.9,2.7-2,3.8-3.2v-6.8
			H585.4z"/>
		<path class="st6" d="M606.7,1051.3v-53.7h7v53.7H606.7z"/>
		<path class="st6" d="M620.3,1051.3v-53.7h6.8l14.1,35.9v-35.9h6.5v53.7h-7l-13.9-35v35H620.3z"/>
		<path class="st6" d="M655.1,1051.3v-53.7h25.6v9.1h-18.6v11.9h17.3v9h-17.3v14.6h19.3v9H655.1z"/>
	</g>
	<g>
		<path class="st6" d="M238.7,934.1h-7.5v-34.7c0-3.3-1.1-6-3.4-8c-2.3-2.1-5-3.1-8.1-3.1c-3.4,0-6.3,1.2-8.8,3.7
			c-2.5,2.5-3.7,5.4-3.7,8.9c0,2.2,0.7,5.2,2,9.2c1.3,4,2,6.9,2,8.9c0,0.6-0.1,1.4-0.2,2.5c2.3-4.1,4.9-7.5,7.7-10.3
			c-2.3-0.2-4-1.1-5.3-2.9c-1.2-1.5-1.8-3.3-1.8-5.5c0-2.3,0.8-4.2,2.4-5.9c1.6-1.7,3.4-2.5,5.6-2.5c2.2,0,4,0.8,5.6,2.5
			c1.5,1.7,2.3,3.7,2.3,5.9c0,3.9-1.8,8.2-5.3,13c-4.9,6.5-7.6,10.4-8.3,11.7c-1.2,2.3-1.8,4.5-1.8,6.6h-7.6
			c0.1-3.2,0.1-6.2,0.1-8.8c0-4.7-0.5-8.3-1.5-10.8c-0.7-2.3-1.5-4.6-2.2-7c-0.7-2.4-1.1-4.5-1.1-6.3c0-5.9,1.9-10.7,5.7-14.4
			c3.8-3.7,8.5-5.6,14-5.6c5.6,0,10.1,1.6,13.7,4.7c3.8,3.4,5.7,8,5.7,13.9V934.1z M223.1,902.8c0-1.1-0.3-2.1-1-2.8
			c-0.7-0.7-1.6-1.1-2.6-1.1c-1,0-1.9,0.4-2.6,1.1c-0.7,0.7-1,1.7-1,2.8c0,1.1,0.3,2.1,1,2.8c0.7,0.7,1.6,1.1,2.6,1.1
			c1,0,1.9-0.4,2.6-1.1C222.8,904.8,223.1,903.9,223.1,902.8z"/>
		<path class="st6" d="M250.9,850.5c-2.1,14.4-9.3,21.6-21.8,21.6c-4.8,0-8.5-1.1-11.1-3.2c-2.6-2.1-3.9-4.8-3.9-8.1
			c0-2.5,0.8-4.6,2.4-6.4c1.6-1.7,3.6-2.6,5.9-2.6c2.5,0,4.5,0.9,6.1,2.7c1.6,1.8,2.4,3.9,2.4,6.3c0,2.3-0.6,4.1-1.8,5.2
			c8.4-0.3,13.3-5.5,14.6-15.5H250.9z M226.1,860.8c0-1.1-0.4-2.1-1.1-2.9c-0.7-0.8-1.6-1.2-2.7-1.2c-1,0-1.9,0.4-2.6,1.2
			c-0.7,0.8-1,1.7-1,2.9c0,1.1,0.3,2.1,1,2.8c0.7,0.7,1.6,1.1,2.6,1.1c1,0,1.9-0.4,2.7-1.1C225.8,862.9,226.1,861.9,226.1,860.8z"/>
		<path class="st6" d="M292.5,922.4c0,8.5-5.8,12.7-17.5,12.7c-11.8,0-17.6-4.2-17.6-12.7v-21.7c-0.8,0.2-1.5,0.3-2.1,0.3
			c-2.6,0-4.8-1-6.5-2.9c-1.8-2-2.7-4.3-2.7-7.1c0-2.7,0.9-5,2.7-6.9c1.8-1.9,3.9-2.9,6.5-2.9c2.7,0,5,1,6.8,3
			c1.8,2,2.7,4.5,2.7,7.5v30.7c0,1.7,1.1,3.1,3.3,4.1c2.2,1,4.5,1.6,6.9,1.6c2.3,0,4.6-0.5,6.8-1.6c2.2-1,3.3-2.4,3.3-4.1v-40.2h7.5
			V922.4z M259.4,891.1c0-1.2-0.4-2.3-1.2-3.1c-0.8-0.9-1.8-1.3-2.9-1.3c-1.1,0-2.1,0.4-2.9,1.3c-0.8,0.9-1.2,1.9-1.2,3.1
			c0,1.2,0.4,2.3,1.2,3.1c0.8,0.9,1.8,1.3,2.9,1.3c1.1,0,2.1-0.4,2.9-1.3C259,893.3,259.4,892.3,259.4,891.1z"/>
		<path class="st6" d="M323.3,925.3c0,2.8-0.9,5.1-2.7,7c-1.8,1.9-4,2.9-6.5,2.9c-2.7,0-5-1-6.9-3c-1.9-2-2.8-4.5-2.8-7.5v-42.4h7.5
			v33.4c0.4-0.2,1.1-0.3,2.2-0.3c2.5,0,4.7,1,6.5,2.9C322.4,920.2,323.3,922.5,323.3,925.3z M318.2,925.3c0-1.2-0.4-2.3-1.2-3.1
			c-0.8-0.9-1.8-1.3-2.9-1.3c-1.1,0-2.1,0.4-2.9,1.3c-0.8,0.9-1.2,1.9-1.2,3.1c0,1.2,0.4,2.3,1.2,3.1c0.8,0.9,1.8,1.3,2.9,1.3
			c1.1,0,2.1-0.4,2.9-1.3C317.8,927.5,318.2,926.5,318.2,925.3z"/>
		<path class="st6" d="M366.3,934.1h-7.5v-35.4c0-3.1-1.2-5.7-3.7-7.8c-2.3-1.8-5-2.7-8.1-2.7c-3.6,0-6.5,1.3-8.7,3.9
			c-2.2,2.6-3.3,5.6-3.3,9.1c0,1,0.2,2.5,0.5,4.7c0.4,2.2,0.5,4.1,0.5,5.8v3.6c0-0.1,0.1-1,0.4-2.8c0.3-1.8,0.5-3.1,0.5-4.1
			c0.8-3.6,2.1-6.7,3.7-9.1c2.1-3.1,4.5-4.7,7.3-4.7c2.2,0,4.1,0.8,5.7,2.5c1.6,1.6,2.4,3.6,2.4,6c0,2.3-0.8,4.2-2.4,5.9
			c-1.6,1.7-3.5,2.5-5.7,2.5c-2,0-3.8-0.8-5.4-2.3c-2.4,7.9-3.6,16.2-3.6,24.8h-7.5v-8.3c0-4.1-0.7-8.5-2-13.3
			c-1.3-4.8-2-8.6-2-11.4c0-6,2-10.8,6-14.6c3.8-3.6,8.5-5.3,14-5.3c5.1,0,9.3,1.4,12.8,4.3c3.9,3.3,5.9,7.8,5.9,13.4V934.1z
			 M351.7,903.2c0-1.1-0.4-2.1-1.1-2.9s-1.6-1.2-2.7-1.2c-1,0-1.9,0.4-2.6,1.2c-0.7,0.8-1,1.7-1,2.9c0,1.1,0.3,2.1,1,2.8
			c0.7,0.7,1.6,1.1,2.6,1.1c1,0,1.9-0.4,2.7-1.1C351.3,905.2,351.7,904.3,351.7,903.2z"/>
		<path class="st6" d="M405.2,925.4c0,2.8-0.9,5.1-2.7,7s-4,2.8-6.6,2.8c-2.6,0-4.8-1-6.6-2.9c-1.8-1.9-2.7-4.2-2.7-7
			c0-2.8,0.9-5.1,2.7-7c1.8-1.9,4-2.9,6.6-2.9c1,0,1.6,0,1.8,0.1v-11.2c0-1.4-2.7-2.8-8-4.1c-5.4-1.3-10.2-2.4-14.6-3.2
			c0.2-4.8,1.3-8.6,3.5-11.5c2.2-2.9,5.3-4.4,9.4-4.4c1.7,0,4,0.4,6.9,1.2c2.9,0.8,5.1,1.2,6.3,1.2c1.4,0,2.1-1,2.3-2.9l5.9,1.7
			c-1.5,5.3-4.1,7.9-8,7.9c-1.5,0-3.5-0.4-6.2-1.1c-2.7-0.7-4.7-1.1-6.1-1.1c-3.5,0-5.6,1.4-6,4.3c6.2,1.4,11.4,2.9,15.6,4.4
			c4.2,1.6,6.3,4.2,6.3,8.1V925.4z M400,925.3c0-1.2-0.4-2.3-1.2-3.1c-0.8-0.9-1.8-1.3-2.9-1.3s-2.1,0.4-2.9,1.3
			c-0.8,0.9-1.2,1.9-1.2,3.1c0,1.2,0.4,2.3,1.2,3.1c0.8,0.9,1.8,1.3,2.9,1.3s2.1-0.4,2.9-1.3C399.6,927.5,400,926.5,400,925.3z"/>
		<path class="st6" d="M406.3,875.6c-10-3.5-19.1-5.2-27.4-5.2c-3.8,0-7.6,0.3-11.5,0.8c1-11.6,6.8-17.4,17.6-17.4
			c1.2,0,2.3,0.1,3.4,0.3v-4.2h5.4v5.5c1.8,0.8,3.4,2,5,3.5v-9h7.3v23.9L406.3,875.6z M398.6,867.9c-0.5-2.2-1.9-4.2-4.4-6.1
			c-2.4-1.9-5.2-2.9-8.2-2.9c-2.9,0-5.4,0.6-7.5,1.9c-2.1,1.3-3.4,2.9-4,5c1.4-0.3,3.5-0.5,6.4-0.5
			C386.9,865.3,392.8,866.2,398.6,867.9z"/>
		<path class="st6" d="M406.1,846.1h-7.3v-14.8h7.3V846.1z"/>
		<path class="st6" d="M453.7,922.4c0,4.5-1.9,7.8-5.7,10c-3.1,1.8-7,2.7-11.8,2.7c-4.8,0-8.7-0.9-11.7-2.7c-3.6-2.2-5.4-5.5-5.4-10
			v-13.2c0-3.1,0.8-5.8,2.4-7.9c1.6-2.1,3.9-3.2,6.9-3.2c2.6,0,4.8,0.9,6.5,2.8c1.8,1.9,2.7,4.2,2.7,7c0,2.7-0.9,5-2.7,6.9
			c-1.8,1.9-3.9,2.9-6.5,2.9c-0.7,0-1.3-0.1-1.8-0.3v4c0,4.5,3.3,6.7,9.8,6.7c6.6,0,9.9-2.3,9.9-6.8v-24.8c0-2.8-1.3-5-3.7-6.5
			c-2.1-1.2-4.7-1.8-7.7-1.8c-7.7,0-11.8,2.1-12.4,6.2H415c1-8.8,7.4-13.2,19.1-13.3c5.4,0,9.8,1.1,13.3,3.3
			c4.2,2.8,6.3,6.9,6.3,12.5V922.4z M432.4,907.9c0-1.2-0.4-2.2-1.2-3.1c-0.8-0.9-1.8-1.3-2.9-1.3c-1.1,0-2.1,0.4-2.9,1.3
			c-0.8,0.9-1.2,1.9-1.2,3.1c0,1.2,0.4,2.2,1.2,3.1c0.8,0.9,1.8,1.3,2.9,1.3c1.1,0,2.1-0.4,2.9-1.3
			C432,910.1,432.4,909.1,432.4,907.9z"/>
		<path class="st6" d="M492.1,934.1h-7.4l-22.6-27.4l4.5-5.6l18,21.8v-22.4c-0.2,0.1-1,0.1-2.3,0.1c-2.5,0-4.6-0.9-6.3-2.7
			c-1.7-1.8-2.6-4-2.6-6.8c0-2.8,0.9-5.1,2.7-7.1c1.8-1.9,3.9-2.9,6.3-2.9c2.8,0,5.2,1,7,2.9c1.9,2,2.8,4.5,2.8,7.6V934.1z
			 M486.4,891c0-1.2-0.4-2.2-1.2-3c-0.8-0.8-1.8-1.3-2.9-1.3c-1.1,0-2.1,0.4-2.9,1.3c-0.8,0.8-1.2,1.9-1.2,3c0,1.2,0.4,2.2,1.2,3
			c0.8,0.8,1.8,1.3,2.9,1.3c1.1,0,2.1-0.4,2.9-1.3C486,893.1,486.4,892.1,486.4,891z"/>
		<path class="st6" d="M538.7,921c0,9.4-6,14.2-17.9,14.2c-11.8,0-17.8-4.7-17.8-14.2v-6c0-4.2,1.6-7.1,4.9-8.8
			c-3.6-2.7-5.5-6.6-5.5-11.8c0-3.8,1-7,3-9.4c2-2.5,4.7-3.7,8.2-3.7c2.4,0,4.5,0.8,6.2,2.4c1.7,1.6,2.5,3.7,2.5,6.3
			c0,2.3-0.8,4.4-2.3,6.1c-1.5,1.7-3.6,2.6-6.1,2.6c-1.3,0-2.4-0.2-3.4-0.6c0.6,3.3,2.1,4.9,4.4,4.9h8.6v6.4h-8.6
			c-1.3,0-2.3,0.6-3.1,1.8c-0.8,1.2-1.2,2.6-1.2,4.1v5.9c0,4.6,3.4,7,10.3,7c7,0,10.5-2.3,10.5-7v-38.9h7.5V921z M517.8,890
			c0-1.2-0.4-2.2-1.1-3c-0.7-0.8-1.7-1.2-2.8-1.2c-1.1,0-2.1,0.4-2.8,1.2c-0.7,0.8-1.1,1.8-1.1,3c0,1.2,0.4,2.2,1.1,3
			s1.7,1.2,2.8,1.2c1.1,0,2.1-0.4,2.8-1.2S517.8,891.3,517.8,890z"/>
		<path class="st6" d="M591.1,909.5c0,3.5-0.8,5.9-2.5,7.2c3.1,1.9,4.7,4.8,4.7,8.6c0,2.8-0.9,5.1-2.7,7c-1.8,1.9-3.9,2.8-6.4,2.8
			c-2.3,0-4.4-0.8-6-2.4c-1.7-1.6-2.7-3.6-3-6c-2.6,1.4-4.4,2.4-5.6,3.1c-1.9,1.3-3.5,2.7-4.6,4.3h-7.6v-33.4
			c-0.8,0.2-1.5,0.3-2.1,0.3c-2.6,0-4.8-1-6.5-2.9c-1.8-2-2.7-4.3-2.7-7.1c0-2.7,0.9-5,2.7-6.9c1.8-1.9,3.9-2.9,6.5-2.9
			c2.7,0,5,1,6.8,3c1.8,2,2.7,4.5,2.7,7.5v33c1.3-1,4.2-2.6,8.7-4.5c4-1.8,6.8-3.6,8.3-5.5c1.1-1.3,1.7-3.4,1.7-6.2v-26.3h7.5V909.5
			z M559.4,891.1c0-1.2-0.4-2.3-1.2-3.1c-0.8-0.9-1.8-1.3-2.9-1.3c-1.1,0-2.1,0.4-2.9,1.3c-0.8,0.9-1.2,1.9-1.2,3.1
			c0,1.2,0.4,2.3,1.2,3.1c0.8,0.9,1.8,1.3,2.9,1.3c1.1,0,2.1-0.4,2.9-1.3C559,893.3,559.4,892.3,559.4,891.1z M588.2,925.3
			c0-1.2-0.4-2.2-1.2-3.1c-0.8-0.9-1.8-1.3-2.9-1.3c-1.1,0-2.1,0.4-2.9,1.3c-0.8,0.9-1.2,1.9-1.2,3.1c0,1.2,0.4,2.2,1.2,3.1
			c0.8,0.9,1.8,1.3,2.9,1.3c1.1,0,2.1-0.4,2.9-1.3C587.8,927.6,588.2,926.5,588.2,925.3z"/>
		<path class="st6" d="M640,934.1h-7.5v-34.1c0-5.5-1.4-9.5-4.2-12l-7.5,5.8l-7.4-5.8c-3.4,1.8-5.1,5.9-5.1,12.3
			c0,2.1,0.6,5.2,1.8,9.2c1.2,4.1,1.8,7.1,1.8,9.1c0,1.4-0.2,2.8-0.7,4.3c0.5-1.2,1.7-2.9,3.5-5.1c1.9-2.2,3.6-3.8,5.3-4.9
			c-2.2-0.2-3.9-1.1-5.1-2.7c-1.3-1.6-1.9-3.5-1.9-5.5c0-2.3,0.7-4.3,2.2-6c1.5-1.6,3.3-2.5,5.5-2.5c2.2,0,4,0.8,5.6,2.5
			c1.5,1.6,2.3,3.6,2.3,6c0,3.7-1.8,7.7-5.4,11.8c-4.8,5.5-7.7,9.1-8.5,10.8c-1.2,2.5-1.8,4.7-1.8,6.6h-7.5c0.2-3.3,0.2-6.6,0.2-10
			c0-3.5-0.5-6.7-1.5-9.6c-2.1-6.2-3.2-10.9-3.2-14c0-4.8,1.1-8.9,3.4-12.3c2.2-3.5,5.4-5.8,9.6-7l6.9,5.6l6.4-5.6
			c8.6,1.4,12.9,7.6,12.9,18.7V934.1z M624.3,904.7c0-1.1-0.3-2.1-1-2.8c-0.7-0.7-1.6-1.1-2.6-1.1c-1,0-1.9,0.4-2.6,1.1
			c-0.7,0.7-1,1.7-1,2.8c0,1.1,0.3,2.1,1,2.8c0.7,0.7,1.6,1.1,2.6,1.1c1,0,1.9-0.4,2.6-1.1C624,906.8,624.3,905.9,624.3,904.7z"/>
		<path class="st6" d="M645,847.4c-0.3,3.6-1.4,6.3-3.3,7.9c-1.9,1.6-4.4,2.9-7.5,3.8c1.3,0.7,2.3,1.7,3.1,3.1
			c0.8,1.3,1.1,2.8,1.1,4.5c0,2.3-0.8,4.3-2.3,6c-1.5,1.6-3.4,2.5-5.6,2.5s-4-0.8-5.6-2.5c-1.5-1.6-2.3-3.7-2.3-6.1
			c0-6.2,3-10.3,8.9-12.1c3.4-1,5.5-2.2,6.5-3.6c0.9-1.5,1.4-2.6,1.4-3.4H645z M634.1,866.6c0-1-0.3-1.8-1-2.5
			c-0.7-0.7-1.5-1.1-2.4-1.1c-0.9,0-1.7,0.4-2.4,1.1c-0.7,0.7-1,1.6-1,2.5c0,1,0.3,1.8,1,2.5c0.7,0.7,1.5,1.1,2.4,1.1
			c0.9,0,1.7-0.4,2.4-1.1C633.8,868.4,634.1,867.6,634.1,866.6z"/>
	</g>
	<g>
		<path class="st3" d="M451.7,54.9c191,17,332.1,185.6,315.1,376.6c-17,191-185.6,332.1-376.6,315.1C199.2,729.6,58.1,561,75.1,370
			C92.1,179,260.7,37.9,451.7,54.9"/>
		<g>
			<g>
				<path class="st2" d="M360.1,400c2,0.1,3.9,0.3,5.8,0.3c32.2,0,64.5-0.1,96.7,0.1c5.1,0,6.9-1.2,6.8-6.6
					c-0.1-10.5,7.7-19.2,18.1-21c2.9-0.5,5.9-0.7,8.9-0.7c52.9,0,105.9,0,158.8,0c10.1,0,19,2.6,23.8,12.4c1.7,3.4,2.7,7.5,2.7,11.3
					c0.2,35,0,70,0.2,105.1c0.1,12.6-9.3,23.3-22.4,23.4c-27,0.2-54.1,0.3-81.1,0.3c-29.2,0-58.5,0-87.7-0.4
					c-12.1-0.2-21.1-9.8-21.3-21.8c-0.2-12.1-0.5-24.3,0.1-36.4c0.3-6.4-2-7.6-7.8-7.5c-21.9,0.3-43.8-0.1-65.7,0.2
					c-6.4,0.1-11.8-1.3-16.1-6c-4.9-5.4-11.3-4-17.3-3.6c-1,0.1-2.5,3.5-2.7,5.5c-2,18.7-2.9,37.7-5.8,56.2
					c-3.6,22.6-10.1,44.4-24.2,63c-11.4,15-25.7,25.4-45.7,21.6c-18.5-3.6-32.7-14.4-43.3-29.9c-12.5-18.1-18.8-38.6-23.4-59.8
					c-7-32.1-8.2-64.5-6.8-97.2c1.2-27.6,4.5-55,12.1-81.6c5.1-17.9,12.3-35.1,25.1-49.1c11-11.9,24-20.7,41.2-17.6
					c15.2,2.7,27.2,11.4,36.7,23.5c11.3,14.6,19,31.2,22.8,49.1c4.5,21.3,7.3,42.9,10.8,64.4C359.6,398,359.8,398.8,360.1,400z
					 M344.5,399.6c-1.9-20.3-4.6-39.2-10.1-57.7c-3.5-12-8.1-23.5-16.4-33.1c-9.1-10.6-24.1-16.6-39.1-6.5
					c-14.8,10-22.3,24.8-27.7,40.8c-7.1,20.9-10.1,42.7-11.4,64.7c-1.9,33.1-1.1,65.9,7.7,98.1c5.1,18.9,12.6,36.9,29.2,48.8
					c14.1,10.1,29.7,12.8,41.1,0.6c6.5-7,12.4-15.9,15.2-24.9c5-16.4,8.1-33.4,10.9-50.3c1.7-9.9,1.3-20,1.8-30.7
					c-2.9,0-4.8,0-6.7,0c-12.3,0-24.7-0.2-37,0.1c-4.2,0.1-5.7-1.3-5.5-5.4c0.3-5.2,0.3-10.4,0-15.5c-0.4-5.1,1.3-7,6.7-6.9
					c11.9,0.4,23.9,0.1,35.8,0.1c7,0,7.3-0.5,5.5-8.4c-15.6,0-31.4,0-47.2,0c-0.3-1.7-0.5-2.6-0.6-3.6c-0.5-10.2-0.5-10.2,9.4-10.2
					C318.5,399.6,331,399.6,344.5,399.6z M635.1,448.1c0,11.7-0.1,23.5,0,35.2c0.1,9.5,5.6,15.4,14.4,15.4
					c8.3,0.1,14.4-5.7,14.5-14.6c0.2-23.7,0.2-47.3,0-71c-0.1-9.4-6.2-15.3-14.7-15.2c-8.5,0.1-14.1,6.2-14.2,15.6
					C635.1,425,635.1,436.6,635.1,448.1z M468,413.8c-35.9,0-71,0-106.3,0c0,2.5,0,4.8,0,6.9c35.7,0,71,0,106.3,0
					C468,418.3,468,416.3,468,413.8z"/>
				<path class="st2" d="M377.9,344.8c-0.9-8-1.5-15.6-2.7-23.2c-4.1-25.2-10.8-49.4-27.1-69.9c-21.6-27.4-56.2-35.8-88.4-22.2
					c-27.1,11.4-45.5,30.9-55.4,58c-5.2,14.2-8,29.2-11.9,43.9c-0.2,0.9-0.2,2-0.2,3c0,0.5,0.3,1.1,1,3.1
					c6.2-7.7,11.8-14.7,17.5-21.7c0.4,0.2,0.8,0.4,1.1,0.6c-9.9,35.6-19.8,71.1-30.2,108.5c-10.2-38.1-20.1-74.6-29.9-111.2
					c8.2,7.3,12.8,17.3,20.8,24.2c3.7-15.5,6.2-30.1,10.7-44.2c12.3-38.6,35.4-67.7,74.7-82.1c20.4-7.5,40.9-8.6,61.1-1.4
					c21.3,7.5,37.8,21.6,49.9,40.9c12.4,19.8,19.2,41.5,22.9,64.4c1.3,7.8,1.7,15.8,3,23.6c0.6,3.7-0.9,4.7-4,4.9
					C386.7,344.2,382.6,344.5,377.9,344.8z"/>
			</g>
			<g>
				<path class="st3" d="M344.5,399.6c-13.5,0-26,0-38.5,0c-10,0-10,0-9.4,10.2c0.1,1,0.3,1.9,0.6,3.6c15.9,0,31.6,0,47.2,0
					c1.8,7.9,1.5,8.3-5.5,8.4c-11.9,0-23.9,0.3-35.8-0.1c-5.4-0.2-7,1.8-6.7,6.9c0.4,5.1,0.3,10.3,0,15.5c-0.2,4.1,1.2,5.5,5.5,5.4
					c12.3-0.3,24.7-0.1,37-0.1c1.9,0,3.9,0,6.7,0c-0.6,10.7-0.2,20.9-1.8,30.7c-2.8,16.9-5.9,34-10.9,50.3
					c-2.8,9.1-8.6,17.9-15.2,24.9c-11.4,12.2-27,9.4-41.1-0.6c-16.6-11.8-24-29.9-29.2-48.8c-8.8-32.2-9.6-65-7.7-98.1
					c1.3-22.1,4.3-43.8,11.4-64.7c5.4-16,12.9-30.8,27.7-40.8c15.1-10.1,30-4.1,39.1,6.5c8.3,9.6,12.9,21.1,16.4,33.1
					C339.9,360.3,342.6,379.3,344.5,399.6z"/>
				<path class="st3" d="M635.1,448.1c0-11.5-0.1-23.1,0-34.6c0.1-9.4,5.6-15.4,14.2-15.6c8.5-0.1,14.6,5.8,14.7,15.2
					c0.2,23.7,0.2,47.3,0,71c-0.1,8.9-6.2,14.7-14.5,14.6c-8.8-0.1-14.3-5.9-14.4-15.4C635.1,471.6,635.1,459.8,635.1,448.1z"/>
				<path class="st3" d="M468,413.8c0,2.5,0,4.5,0,6.9c-35.3,0-70.6,0-106.3,0c0-2.2,0-4.4,0-6.9C397,413.8,432.1,413.8,468,413.8z"
					/>
			</g>
		</g>
	</g>
</g>
</svg>
