<?xml version="1.0" encoding="utf-8"?>
<!-- Generator: Adobe Illustrator 22.0.0, SVG Export Plug-In . SVG Version: 6.00 Build 0)  -->
<svg version="1.1" id="Layer_1" xmlns="http://www.w3.org/2000/svg" xmlns:xlink="http://www.w3.org/1999/xlink" x="0px" y="0px"
	 viewBox="0 0 841.9 1190.6" style="enable-background:new 0 0 841.9 1190.6;" xml:space="preserve">
<style type="text/css">
	.st0{fill:none;}
	.st1{fill:#010101;}
	.st2{fill:#FFFFFF;}
	.st3{fill:#154989;}
	.st4{fill:#EB2627;}
	.st5{fill:#2A3B8F;}
	.st6{fill:#FFFFFF;stroke:#FFFFFF;stroke-miterlimit:10;}
	.st7{fill-rule:evenodd;clip-rule:evenodd;fill:#FFFFFF;}
	.st8{fill-rule:evenodd;clip-rule:evenodd;fill:#154989;}
	.st9{fill:#2F3690;}
</style>
<g>
	<g>
		<rect x="0" y="0" class="st0" width="841.9" height="1190.6"/>
		<rect x="28.3" y="28.3" class="st1" width="785.2" height="1133.9"/>
		<rect x="34" y="34" class="st2" width="773.9" height="1122.5"/>
		<rect x="52.5" y="792.6" class="st3" width="737" height="348.7"/>
		<g id="stecon_121_">
			<path id="red_121_" class="st4" d="M52.8,53.5c42.5,0,85,0,127.6,0c0,22.6,0,45.1,0,67.7c-42.5,0-85,0-127.5,0c0-0.2,0-0.5,0-0.7
				c0-22.1,0-44.2,0-66.3C52.9,54,52.8,53.8,52.8,53.5z M55.8,87.4c0.2,0.1,0.4,0.2,0.5,0.3c3.6,1.8,7.1,3.7,10.7,5.5
				c16.4,8.4,32.7,16.8,49.1,25.2c0.4,0.2,0.7,0.2,1.1,0c13.8-7.1,27.6-14.2,41.4-21.3c6.1-3.2,12.3-6.3,18.4-9.5
				c0.1-0.1,0.3-0.2,0.5-0.3c-0.2-0.1-0.3-0.2-0.5-0.3c-3.8-1.9-7.6-3.9-11.4-5.8c-16.2-8.3-32.4-16.7-48.5-25
				c-0.3-0.2-0.5-0.2-0.9,0c-7,3.6-14.1,7.3-21.1,10.9c-12.6,6.5-25.2,12.9-37.7,19.4C56.9,86.8,56.4,87.1,55.8,87.4z"/>
			<g id="white_121_">
				<path class="st2" d="M55.8,87.4c0.6-0.3,1.1-0.6,1.6-0.8c12.6-6.5,25.2-12.9,37.7-19.4c7-3.6,14.1-7.2,21.1-10.9
					c0.3-0.2,0.6-0.1,0.9,0c16.2,8.3,32.4,16.7,48.5,25c3.8,1.9,7.6,3.9,11.4,5.8c0.1,0.1,0.3,0.1,0.5,0.3c-0.2,0.1-0.3,0.2-0.5,0.3
					c-6.1,3.2-12.3,6.3-18.4,9.5c-13.8,7.1-27.6,14.2-41.4,21.3c-0.4,0.2-0.7,0.2-1.1,0C99.7,110,83.4,101.6,67,93.1
					c-3.6-1.8-7.1-3.7-10.7-5.5C56.2,87.6,56,87.5,55.8,87.4z M59.7,87.4c0.2,0.1,0.3,0.2,0.4,0.2c1,0.5,1.9,1,2.9,1.5
					c17.7,9.1,35.5,18.2,53.2,27.3c0.3,0.1,0.5,0.2,0.8,0c12.9-6.6,25.7-13.2,38.6-19.8c5.8-3,11.6-6,17.5-9
					c0.1-0.1,0.3-0.2,0.5-0.3c-0.2-0.1-0.4-0.2-0.6-0.3c-15.9-8.2-31.9-16.4-47.8-24.5c-2.7-1.4-5.5-2.8-8.2-4.2
					c-0.2-0.1-0.4-0.1-0.7,0c-0.3,0.2-0.7,0.4-1.1,0.6C97,68.3,78.6,77.6,60.3,87C60.1,87.1,60,87.2,59.7,87.4z"/>
				<path class="st2" d="M147.4,79.5c1.4,0,2.7,0,4.1,0c0,5.2,0,10.3,0,15.4c-1.4,0-2.8,0-4.2,0c-0.9-2.6-1.8-5.3-2.7-7.9
					c0,0-0.1,0-0.1,0c0,2.6,0,5.2,0,7.9c-1.4,0-2.7,0-4,0c0,0,0,0,0,0c0,0,0,0,0,0c0-0.1,0-0.2,0-0.3c0-4.9,0-9.9,0-14.8
					c0,0,0-0.1,0-0.2c0.1,0,0.3,0,0.4,0c1.2,0,2.3,0,3.5,0c0.4,0,0.4,0,0.5,0.4c0.8,2.5,1.6,5,2.4,7.5c0,0.1,0.1,0.2,0.2,0.4
					C147.4,85,147.4,82.3,147.4,79.5z"/>
				<path class="st2" d="M138.8,87.3c0,1.5,0,3,0,4.5c0,0.8-0.3,1.4-0.8,1.9c-0.7,0.7-1.6,1.2-2.6,1.3c-1.5,0.3-3.1,0.3-4.6-0.1
					c-0.9-0.2-1.6-0.6-2.3-1.3c-0.5-0.5-0.8-1.1-0.8-1.9c0-3,0-6.1,0-9.1c0-0.7,0.2-1.3,0.7-1.8c0.6-0.7,1.4-1.2,2.3-1.4
					c1.7-0.4,3.5-0.4,5.2,0.1c0.7,0.2,1.4,0.6,2,1.2c0.6,0.5,0.9,1.2,0.8,2C138.8,84.3,138.8,85.8,138.8,87.3z M134.2,87.3
					c0-1.5,0-2.9,0-4.4c0-0.7-0.1-0.9-0.8-0.9c-0.1,0-0.2,0-0.2,0c-0.5,0.1-0.6,0.2-0.6,0.7c0,3,0,6,0,9c0,0.5,0.1,0.7,0.6,0.7
					c0.2,0,0.3,0,0.5,0c0.5-0.1,0.6-0.2,0.6-0.7C134.2,90.3,134.2,88.8,134.2,87.3z"/>
				<path class="st2" d="M126.7,88.9c0,0.2,0,0.3,0,0.5c0,0.8,0,1.6,0,2.4c0,0.8-0.3,1.5-0.9,2c-0.7,0.7-1.5,1.1-2.5,1.3
					c-1.5,0.3-3,0.3-4.5-0.1c-0.8-0.2-1.5-0.6-2.2-1.2c-0.6-0.6-0.9-1.2-0.9-2.1c0-3,0-5.9,0-8.9c0-0.9,0.3-1.6,0.9-2.1
					c0.7-0.7,1.6-1.1,2.5-1.2c1.4-0.2,2.9-0.2,4.3,0.1c0.9,0.2,1.6,0.6,2.3,1.2c0.6,0.6,0.9,1.2,0.9,2.1c0,0.8,0,1.7,0,2.5
					c0,0.2,0,0.3,0,0.5c-1.6,0-3.1,0-4.6,0c0-0.2,0-0.3,0-0.5c0-0.9,0-1.7,0-2.6c0-0.5-0.1-0.6-0.6-0.7c-0.1,0-0.2,0-0.3,0
					c-0.7,0.1-0.7,0.3-0.7,0.8c0,2.9,0,5.9,0,8.8c0,0.1,0,0.2,0,0.3c0,0.2,0.1,0.4,0.3,0.4c0.1,0,0.3,0.1,0.4,0.1
					c0.6,0.1,0.8-0.2,0.8-0.8c0-0.8,0-1.5,0-2.3c0-0.2,0-0.3,0-0.5C122.4,88.8,126,88.8,126.7,88.9z"/>
				<path class="st2" d="M105.5,94.9c0-5.1,0-10.2,0-15.3c0.4-0.1,8.7-0.1,9.1,0c0,0.8,0,1.6,0,2.5c-0.1,0-0.3,0-0.4,0
					c-1.1,0-2.2,0-3.3,0c-0.1,0-0.3,0-0.5,0c0,1.4,0,2.7,0,4.1c1,0,2.1,0,3.1,0c0,0.8,0,1.5,0,2.2c-0.4,0.1-0.7,0.1-1,0.1
					c-0.3,0-0.7,0-1,0c-0.3,0-0.7,0-1,0c-0.1,0.3-0.1,2.8,0,3.7c0.1,0,0.3,0,0.5,0c1.1,0,2.2,0,3.3,0c0.2,0,0.3,0,0.5,0
					c0,0.9,0,1.8,0,2.6C114.3,95,106,95,105.5,94.9z"/>
				<path class="st2" d="M101.1,94.9c-1.6,0-3.1,0-4.7,0c0-4.3,0-8.5,0-12.8c-1,0-2,0-3,0c-0.1-0.4-0.1-2.1,0-2.6
					c0.3-0.1,10.4-0.1,10.8,0c0.1,0.3,0.1,2.1,0,2.6c-1,0-2,0-3,0C101.1,86.4,101.1,90.6,101.1,94.9z"/>
				<path class="st2" d="M92.1,84.9c-1.6,0-3.1,0-4.6,0c0-0.2,0-0.3,0-0.5c0-0.6,0-1.2,0-1.8c0-0.4-0.1-0.6-0.5-0.6
					c-0.1,0-0.2,0-0.4,0c-0.3,0-0.5,0.2-0.5,0.5c0,0.6,0,1.1,0,1.7c0,0.4,0.2,0.6,0.5,0.8c0.4,0.2,0.7,0.4,1.1,0.7
					c1,0.6,2,1.1,2.9,1.7c0.1,0.1,0.3,0.2,0.4,0.3c0.7,0.5,1.1,1.2,1.1,2.1c0,0.7,0,1.3,0,2c0,0.7-0.2,1.3-0.7,1.7
					c-0.7,0.7-1.5,1.2-2.4,1.4c-1.5,0.4-3.1,0.4-4.7,0c-0.8-0.2-1.6-0.6-2.2-1.2c-0.6-0.5-0.9-1.2-0.9-2.1c0-0.8,0-1.5,0-2.3
					c0.3-0.1,3.9-0.1,4.5,0c0,0.1,0,0.3,0,0.4c0,0.7,0,1.3,0,2c0,0.4,0.1,0.6,0.5,0.6c0.2,0,0.5,0,0.7-0.1c0.2,0,0.3-0.2,0.3-0.4
					c0-0.6,0-1.2,0-1.8c0-0.3-0.2-0.6-0.4-0.7c-0.4-0.3-0.8-0.5-1.2-0.8c-1-0.6-2-1.2-2.9-1.8c-0.3-0.2-0.6-0.4-0.9-0.7
					c-0.4-0.4-0.6-0.9-0.6-1.5c0-0.7,0-1.3,0-2c0-0.8,0.3-1.4,0.8-1.9c0.7-0.7,1.6-1.2,2.6-1.4c1.4-0.3,2.8-0.3,4.2,0.1
					c0.9,0.2,1.7,0.7,2.3,1.3c0.5,0.5,0.8,1.1,0.8,1.9C92.1,83.5,92.1,84.2,92.1,84.9z"/>
			</g>
			<g id="blue_121_">
				<path class="st5" d="M59.7,87.4c0.3-0.1,0.5-0.2,0.7-0.3c18.3-9.4,36.6-18.8,54.9-28.1c0.4-0.2,0.7-0.4,1.1-0.6
					c0.2-0.1,0.4-0.1,0.7,0c2.7,1.4,5.4,2.8,8.2,4.2c15.9,8.2,31.9,16.4,47.8,24.5c0.2,0.1,0.3,0.2,0.6,0.3
					c-0.2,0.1-0.3,0.2-0.5,0.3c-5.8,3-11.6,6-17.5,9c-12.9,6.6-25.7,13.2-38.6,19.8c-0.3,0.1-0.5,0.1-0.8,0
					C98.5,107.3,80.8,98.2,63,89.1c-1-0.5-1.9-1-2.9-1.5C60,87.5,59.9,87.5,59.7,87.4z M147.4,79.5c0,2.8,0,5.5,0,8.3
					c-0.1-0.1-0.1-0.2-0.2-0.4c-0.8-2.5-1.6-5-2.4-7.5c-0.1-0.4-0.1-0.4-0.5-0.4c-1.2,0-2.3,0-3.5,0c-0.1,0-0.3,0-0.4,0
					c0,0.1,0,0.1,0,0.2c0,4.9,0,9.9,0,14.8c0,0.1,0,0.2,0,0.3c0,0,0,0,0,0c0,0,0,0,0,0c1.3,0,2.7,0,4,0c0-2.7,0-5.3,0-7.9
					c0,0,0.1,0,0.1,0c0.9,2.6,1.8,5.3,2.7,7.9c1.4,0,2.8,0,4.2,0c0-5.1,0-10.2,0-15.4C150.2,79.5,148.8,79.5,147.4,79.5z
					 M138.8,87.3c0-1.5,0-3,0-4.5c0-0.8-0.3-1.5-0.8-2c-0.6-0.6-1.2-1-2-1.2c-1.7-0.5-3.5-0.5-5.2-0.1c-0.9,0.2-1.7,0.7-2.3,1.4
					c-0.4,0.5-0.7,1.1-0.7,1.8c0,3,0,6.1,0,9.1c0,0.8,0.3,1.4,0.8,1.9c0.6,0.7,1.4,1.1,2.3,1.3c1.5,0.3,3.1,0.3,4.6,0.1
					c1-0.2,1.8-0.6,2.6-1.3c0.5-0.5,0.8-1.2,0.8-1.9C138.8,90.3,138.8,88.8,138.8,87.3z M126.7,88.9c-0.6-0.1-4.3-0.1-4.7,0
					c0,0.1,0,0.3,0,0.5c0,0.8,0,1.5,0,2.3c0,0.7-0.2,0.9-0.8,0.8c-0.1,0-0.3,0-0.4-0.1c-0.2-0.1-0.3-0.2-0.3-0.4c0-0.1,0-0.2,0-0.3
					c0-2.9,0-5.9,0-8.8c0-0.5,0-0.7,0.7-0.8c0.1,0,0.2,0,0.3,0c0.5,0.1,0.6,0.2,0.6,0.7c0,0.9,0,1.7,0,2.6c0,0.2,0,0.3,0,0.5
					c1.6,0,3.1,0,4.6,0c0-0.2,0-0.4,0-0.5c0-0.8,0-1.7,0-2.5c0-0.9-0.3-1.5-0.9-2.1c-0.7-0.6-1.4-1-2.3-1.2
					c-1.4-0.3-2.9-0.3-4.3-0.1c-0.9,0.2-1.8,0.6-2.5,1.2c-0.6,0.6-0.9,1.3-0.9,2.1c0,3,0,5.9,0,8.9c0,0.9,0.3,1.6,0.9,2.1
					c0.6,0.6,1.4,1,2.2,1.2c1.5,0.3,3,0.3,4.5,0.1c0.9-0.2,1.8-0.6,2.5-1.3c0.6-0.5,0.9-1.2,0.9-2c0-0.8,0-1.6,0-2.4
					C126.7,89.2,126.7,89.1,126.7,88.9z M92.1,84.9c0-0.7,0-1.4,0-2.1c0-0.8-0.3-1.4-0.8-1.9c-0.7-0.7-1.4-1.1-2.3-1.3
					c-1.4-0.3-2.8-0.3-4.2-0.1c-1,0.2-1.9,0.6-2.6,1.4c-0.5,0.5-0.8,1.1-0.8,1.9c0,0.7,0,1.3,0,2c0,0.6,0.2,1.1,0.6,1.5
					c0.3,0.2,0.6,0.5,0.9,0.7c1,0.6,2,1.2,2.9,1.8c0.4,0.2,0.8,0.5,1.2,0.8c0.2,0.2,0.4,0.4,0.4,0.7c0,0.6,0,1.2,0,1.8
					c0,0.2-0.1,0.4-0.3,0.4c-0.2,0-0.5,0.1-0.7,0.1c-0.4,0-0.5-0.2-0.5-0.6c0-0.7,0-1.3,0-2c0-0.1,0-0.3,0-0.4
					c-0.6-0.1-4.2-0.1-4.5,0c0,0.7,0,1.5,0,2.3c0,0.9,0.3,1.5,0.9,2.1c0.6,0.6,1.4,1,2.2,1.2c1.6,0.4,3.1,0.3,4.7,0
					c0.9-0.2,1.7-0.7,2.4-1.4c0.4-0.5,0.7-1.1,0.7-1.7c0-0.7,0-1.3,0-2c0-0.9-0.4-1.6-1.1-2.1c-0.1-0.1-0.3-0.2-0.4-0.3
					c-1-0.6-2-1.1-2.9-1.7c-0.4-0.2-0.7-0.4-1.1-0.7c-0.3-0.2-0.5-0.4-0.5-0.8c0-0.6,0-1.1,0-1.7c0-0.3,0.2-0.5,0.5-0.5
					c0.1,0,0.2,0,0.4,0c0.4,0,0.5,0.2,0.5,0.6c0,0.6,0,1.2,0,1.8c0,0.1,0,0.3,0,0.5C89.1,84.9,90.6,84.9,92.1,84.9z M105.5,94.9
					c0.5,0.1,8.8,0.1,9.1,0c0-0.9,0-1.7,0-2.6c-0.2,0-0.3,0-0.5,0c-1.1,0-2.2,0-3.3,0c-0.2,0-0.3,0-0.5,0c-0.1-0.8,0-3.3,0-3.7
					c0.3,0,0.7,0,1,0c0.3,0,0.7,0,1,0c0.3,0,0.7,0.1,1-0.1c0-0.7,0-1.5,0-2.2c-1.1,0-2.1,0-3.1,0c0-1.4,0-2.7,0-4.1
					c0.2,0,0.3,0,0.5,0c1.1,0,2.2,0,3.3,0c0.1,0,0.3,0,0.4,0c0-0.9,0-1.7,0-2.5c-0.4-0.1-8.7-0.1-9.1,0
					C105.5,84.7,105.5,89.8,105.5,94.9z M101.1,94.9c0-4.3,0-8.5,0-12.8c1,0,2,0,3,0c0.1-0.5,0.1-2.2,0-2.6
					c-0.4-0.1-10.5-0.1-10.8,0c-0.1,0.4-0.1,2.2,0,2.6c1,0,2,0,3,0c0,4.3,0,8.5,0,12.8C97.9,94.9,99.5,94.9,101.1,94.9z"/>
				<path class="st5" d="M134.2,87.3c0,1.5,0,3,0,4.5c0,0.5-0.1,0.6-0.6,0.7c-0.2,0-0.3,0-0.5,0c-0.5-0.1-0.6-0.2-0.6-0.7
					c0-3,0-6,0-9c0-0.5,0.1-0.6,0.6-0.7c0.1,0,0.2,0,0.2,0c0.7,0,0.8,0.1,0.8,0.9C134.2,84.4,134.2,85.9,134.2,87.3z"/>
			</g>
		</g>
	</g>
	<g>
		<g>
			<path class="st6" d="M96.8,1062.9h7v29.1c0,4.6,0.1,7.6,0.3,9c0.3,2.2,1,4,2.2,5.3c1.1,1.3,2.7,2,4.7,2c2,0,3.5-0.6,4.5-1.9
				c1-1.3,1.6-2.8,1.8-4.6c0.2-1.8,0.3-4.9,0.3-9.1v-29.7h7v28.2c0,6.4-0.2,11-0.6,13.7s-1.1,4.9-2.1,6.7c-1,1.8-2.4,3.3-4.1,4.4
				s-4,1.6-6.7,1.6c-3.3,0-5.9-0.6-7.6-1.8c-1.7-1.2-3.1-2.7-4.1-4.6c-1-1.9-1.7-3.9-2-6c-0.5-3.1-0.7-7.6-0.7-13.6V1062.9z"/>
			<path class="st6" d="M130.3,1099.1l6.9-1c0.4,3.5,1.3,6.1,2.5,7.8s3,2.5,5.1,2.5c2.3,0,4-0.7,5.1-2.2c1.2-1.5,1.7-3.2,1.7-5.2
				c0-1.3-0.2-2.3-0.7-3.2c-0.5-0.9-1.3-1.7-2.5-2.3c-0.8-0.4-2.7-1.2-5.6-2.3c-3.8-1.4-6.4-3.2-8-5.3c-2.1-3-3.2-6.6-3.2-10.8
				c0-2.7,0.5-5.3,1.5-7.7c1-2.4,2.5-4.2,4.4-5.4c1.9-1.2,4.2-1.9,6.9-1.9c4.4,0,7.7,1.5,9.9,4.4c2.2,3,3.4,6.9,3.5,11.8l-7,0.5
				c-0.3-2.8-0.9-4.7-1.9-6c-1-1.2-2.5-1.8-4.5-1.8c-2,0-3.7,0.6-4.8,1.9c-0.7,0.8-1.1,1.9-1.1,3.3c0,1.3,0.3,2.4,1,3.3
				c0.9,1.1,3,2.3,6.5,3.6c3.4,1.2,6,2.5,7.6,3.9c1.6,1.3,2.9,3.1,3.9,5.5c0.9,2.3,1.4,5.2,1.4,8.6c0,3.1-0.6,6-1.7,8.6
				c-1.1,2.7-2.7,4.7-4.7,6c-2,1.3-4.6,2-7.6,2c-4.4,0-7.8-1.6-10.2-4.7C132.2,1109.7,130.7,1105.1,130.3,1099.1z"/>
			<path class="st6" d="M164.6,1116.6v-53.7h25.9v9.1h-18.8v11.9h17.5v9h-17.5v14.6h19.5v9H164.6z"/>
			<path class="st6" d="M253.9,1116.6h-7.7l-3-12.2h-13.9l-2.9,12.2h-7.5l13.6-53.7h7.5L253.9,1116.6z M240.9,1095.3l-4.8-19.9
				l-4.7,19.9H240.9z"/>
			<path class="st6" d="M257.6,1062.9h12.9c2.9,0,5.1,0.3,6.6,1c2,0.9,3.8,2.6,5.3,4.9s2.6,5.3,3.3,8.7s1.1,7.7,1.1,12.7
				c0,4.4-0.4,8.2-1.1,11.4c-0.9,3.9-2.1,7.1-3.7,9.5c-1.2,1.8-2.9,3.3-5,4.3c-1.6,0.8-3.6,1.1-6.2,1.1h-13.3V1062.9z M264.6,1072
				v35.6h5.3c2,0,3.4-0.2,4.3-0.5c1.1-0.4,2.1-1.2,2.8-2.2s1.4-2.8,1.8-5.2c0.5-2.4,0.7-5.7,0.7-9.8s-0.2-7.3-0.7-9.6
				c-0.5-2.2-1.1-4-2-5.2c-0.9-1.2-1.9-2.1-3.3-2.5c-1-0.3-2.9-0.5-5.8-0.5H264.6z"/>
			<path class="st6" d="M305.4,1062.9h7v34c0,4.4-0.3,7.9-0.8,10.3c-0.7,3.1-1.9,5.6-3.7,7.5c-1.8,1.9-4.2,2.8-7.1,2.8
				c-3.4,0-6.1-1.5-8-4.5c-1.9-3-2.8-7.3-2.8-13.1l6.6-1.2c0.1,3.1,0.4,5.3,0.9,6.5c0.8,1.9,1.9,2.9,3.5,2.9c1.6,0,2.7-0.7,3.3-2.1
				c0.7-1.4,1-4.2,1-8.6V1062.9z"/>
			<path class="st6" d="M319.9,1062.9h7v29.1c0,4.6,0.1,7.6,0.3,9c0.3,2.2,1,4,2.2,5.3c1.1,1.3,2.7,2,4.7,2c2,0,3.5-0.6,4.5-1.9
				s1.6-2.8,1.8-4.6s0.3-4.9,0.3-9.1v-29.7h7v28.2c0,6.4-0.2,11-0.6,13.7s-1.1,4.9-2.1,6.7c-1,1.8-2.4,3.3-4.1,4.4s-4,1.6-6.7,1.6
				c-3.3,0-5.9-0.6-7.6-1.8c-1.7-1.2-3.1-2.7-4.1-4.6s-1.7-3.9-2-6c-0.5-3.1-0.7-7.6-0.7-13.6V1062.9z"/>
			<path class="st6" d="M353.3,1099.1l6.9-1c0.4,3.5,1.2,6.1,2.5,7.8s3,2.5,5.1,2.5c2.3,0,4-0.7,5.1-2.2c1.2-1.5,1.7-3.2,1.7-5.2
				c0-1.3-0.2-2.3-0.7-3.2c-0.5-0.9-1.3-1.7-2.5-2.3c-0.8-0.4-2.7-1.2-5.6-2.3c-3.8-1.4-6.4-3.2-8-5.3c-2.1-3-3.2-6.6-3.2-10.8
				c0-2.7,0.5-5.3,1.5-7.7c1-2.4,2.5-4.2,4.4-5.4s4.2-1.9,6.9-1.9c4.4,0,7.7,1.5,9.9,4.4s3.4,6.9,3.5,11.8l-7,0.5
				c-0.3-2.8-0.9-4.7-1.9-6c-1-1.2-2.5-1.8-4.5-1.8c-2,0-3.7,0.6-4.8,1.9c-0.7,0.8-1.1,1.9-1.1,3.3c0,1.3,0.3,2.4,1,3.3
				c0.9,1.1,3,2.3,6.5,3.6c3.4,1.2,6,2.5,7.6,3.9s2.9,3.1,3.9,5.5c0.9,2.3,1.4,5.2,1.4,8.6c0,3.1-0.6,6-1.7,8.6
				c-1.1,2.7-2.7,4.7-4.7,6s-4.6,2-7.6,2c-4.4,0-7.8-1.6-10.2-4.7C355.2,1109.7,353.8,1105.1,353.3,1099.1z"/>
			<path class="st6" d="M395.5,1116.6V1072h-10.4v-9.1h27.7v9.1h-10.3v44.6H395.5z"/>
			<path class="st6" d="M445.3,1116.6h-7.7l-3-12.2h-13.9l-2.9,12.2h-7.5l13.6-53.7h7.5L445.3,1116.6z M432.3,1095.3l-4.8-19.9
				l-4.7,19.9H432.3z"/>
			<path class="st6" d="M449,1062.9H463c2.8,0,4.8,0.2,6.2,0.5c1.4,0.4,2.6,1.1,3.6,2.2s2,2.6,2.7,4.5c0.7,1.9,1.1,4,1.1,6.3
				c0,2.5-0.4,4.8-1.3,6.9s-2.1,3.7-3.6,4.7c2.1,1,3.8,2.6,4.9,4.9s1.7,5,1.7,8.1c0,2.4-0.4,4.8-1.1,7.1c-0.7,2.3-1.7,4.2-3,5.5
				s-2.9,2.2-4.7,2.5c-1.2,0.2-4,0.3-8.5,0.4H449V1062.9z M456.1,1071.8v12.4h4.6c2.7,0,4.5-0.1,5.1-0.2c1.2-0.2,2.2-0.9,2.8-1.9
				c0.7-1.1,1-2.5,1-4.2c0-1.7-0.3-3-0.9-4c-0.6-1-1.5-1.7-2.7-1.9c-0.7-0.1-2.7-0.2-6-0.2H456.1z M456.1,1093.2v14.4h6.5
				c2.5,0,4.1-0.1,4.8-0.3c1-0.3,1.9-1,2.6-2.1c0.7-1.1,1-2.7,1-4.6c0-1.6-0.3-3-0.8-4.1s-1.2-1.9-2.2-2.5s-3-0.8-6.2-0.8H456.1z"/>
			<path class="st6" d="M484.4,1116.6v-53.2h7v44.2H509v9H484.4z"/>
			<path class="st6" d="M514,1116.6v-53.7h25.9v9.1H521v11.9h17.5v9H521v14.6h19.5v9H514z"/>
			<path class="st6" d="M589.8,1096.8v-9H605v21.4c-1.5,2.2-3.6,4.1-6.4,5.8s-5.6,2.5-8.5,2.5c-3.7,0-6.8-1.2-9.5-3.5
				s-4.8-5.7-6.1-10.1c-1.4-4.4-2-9.1-2-14.3c0-5.6,0.8-10.6,2.3-14.9c1.5-4.3,3.8-7.7,6.7-10c2.2-1.8,5-2.7,8.4-2.7
				c4.3,0,7.7,1.4,10.2,4.2c2.4,2.8,4,6.7,4.7,11.6l-7,2c-0.5-2.6-1.4-4.7-2.8-6.2c-1.4-1.5-3.1-2.3-5.1-2.3c-3.1,0-5.5,1.5-7.3,4.5
				c-1.8,3-2.7,7.5-2.7,13.4c0,6.4,0.9,11.2,2.8,14.3c1.8,3.2,4.3,4.8,7.2,4.8c1.5,0,3-0.4,4.4-1.3c1.5-0.9,2.8-2,3.8-3.2v-6.8
				H589.8z"/>
			<path class="st6" d="M611.5,1062.9h7v29.1c0,4.6,0.1,7.6,0.3,9c0.3,2.2,1,4,2.2,5.3c1.1,1.3,2.7,2,4.7,2c2,0,3.5-0.6,4.5-1.9
				c1-1.3,1.6-2.8,1.8-4.6c0.2-1.8,0.3-4.9,0.3-9.1v-29.7h7v28.2c0,6.4-0.2,11-0.6,13.7s-1.1,4.9-2.1,6.7c-1,1.8-2.4,3.3-4.1,4.4
				s-4,1.6-6.7,1.6c-3.3,0-5.9-0.6-7.6-1.8c-1.7-1.2-3.1-2.7-4.1-4.6c-1-1.9-1.7-3.9-2-6c-0.5-3.1-0.7-7.6-0.7-13.6V1062.9z"/>
			<path class="st6" d="M678.2,1116.6h-7.7l-3-12.2h-13.9l-2.9,12.2h-7.5l13.6-53.7h7.5L678.2,1116.6z M665.2,1095.3l-4.8-19.9
				l-4.7,19.9H665.2z"/>
			<path class="st6" d="M681.9,1116.6v-53.7h14.8c3.7,0,6.4,0.5,8.1,1.4c1.7,1,3,2.7,4.1,5.1c1,2.5,1.5,5.3,1.5,8.5
				c0,4-0.8,7.4-2.3,10c-1.5,2.6-3.8,4.3-6.9,5c1.5,1.4,2.8,2.9,3.8,4.5s2.3,4.5,4,8.7l4.3,10.5h-8.4l-5.1-11.7
				c-1.8-4.2-3-6.8-3.7-7.9c-0.7-1.1-1.4-1.8-2.1-2.2c-0.7-0.4-1.9-0.6-3.5-0.6H689v22.4H681.9z M689,1085.6h5.2
				c3.4,0,5.5-0.2,6.3-0.7c0.8-0.4,1.5-1.2,2-2.3c0.5-1.1,0.7-2.4,0.7-4c0-1.8-0.3-3.3-0.9-4.4s-1.5-1.8-2.7-2.1
				c-0.6-0.1-2.3-0.2-5.1-0.2H689V1085.6z"/>
			<path class="st6" d="M717.1,1062.9H730c2.9,0,5.1,0.3,6.6,1c2,0.9,3.8,2.6,5.3,4.9c1.5,2.4,2.6,5.3,3.3,8.7s1.1,7.7,1.1,12.7
				c0,4.4-0.4,8.2-1.1,11.4c-0.9,3.9-2.1,7.1-3.7,9.5c-1.2,1.8-2.9,3.3-5,4.3c-1.6,0.8-3.6,1.1-6.2,1.1h-13.3V1062.9z M724.1,1072
				v35.6h5.3c2,0,3.4-0.2,4.3-0.5c1.1-0.4,2.1-1.2,2.8-2.2c0.8-1,1.4-2.8,1.8-5.2s0.7-5.7,0.7-9.8s-0.2-7.3-0.7-9.6
				c-0.5-2.2-1.1-4-2-5.2c-0.9-1.2-1.9-2.1-3.3-2.5c-1-0.3-2.9-0.5-5.8-0.5H724.1z"/>
		</g>
		<g>
			<path class="st6" d="M134.8,991.5c0,4.5-1.9,7.8-5.7,10c-3.1,1.8-7,2.7-11.8,2.7s-8.7-0.9-11.7-2.7c-3.6-2.2-5.4-5.5-5.4-10
				v-13.2c0-3.1,0.8-5.8,2.4-7.9c1.6-2.1,3.9-3.2,6.9-3.2c2.6,0,4.8,0.9,6.5,2.8c1.8,1.9,2.7,4.2,2.7,7c0,2.7-0.9,5-2.7,6.9
				c-1.8,1.9-3.9,2.9-6.5,2.9c-0.7,0-1.3-0.1-1.8-0.3v4c0,4.5,3.3,6.7,9.8,6.7c6.6,0,9.9-2.3,9.9-6.8v-24.8c0-2.8-1.3-5-3.7-6.5
				c-2.1-1.2-4.7-1.8-7.7-1.8c-7.7,0-11.8,2.1-12.4,6.2h-7.3c1-8.8,7.4-13.2,19.1-13.3c5.4,0,9.8,1.1,13.3,3.3
				c4.2,2.8,6.3,6.9,6.3,12.5V991.5z M113.5,977c0-1.2-0.4-2.2-1.2-3.1c-0.8-0.9-1.8-1.3-2.9-1.3c-1.1,0-2.1,0.4-2.9,1.3
				c-0.8,0.9-1.2,1.9-1.2,3.1c0,1.2,0.4,2.2,1.2,3.1c0.8,0.9,1.8,1.3,2.9,1.3c1.1,0,2.1-0.4,2.9-1.3
				C113.1,979.3,113.5,978.2,113.5,977z"/>
			<path class="st6" d="M147,919.6c-2.1,14.4-9.3,21.6-21.8,21.6c-4.8,0-8.5-1.1-11.1-3.2c-2.6-2.1-3.9-4.8-3.9-8.1
				c0-2.5,0.8-4.6,2.4-6.4c1.6-1.7,3.6-2.6,5.9-2.6c2.5,0,4.5,0.9,6.1,2.7c1.6,1.8,2.4,3.9,2.4,6.3c0,2.3-0.6,4.1-1.8,5.2
				c8.4-0.3,13.3-5.5,14.6-15.5H147z M122.2,929.9c0-1.1-0.4-2.1-1.1-2.9c-0.7-0.8-1.6-1.2-2.7-1.2c-1,0-1.9,0.4-2.6,1.2
				c-0.7,0.8-1,1.7-1,2.9c0,1.1,0.3,2.1,1,2.8c0.7,0.7,1.6,1.1,2.6,1.1c1,0,1.9-0.4,2.7-1.1C121.9,932,122.2,931,122.2,929.9z"/>
			<path class="st6" d="M187.1,978.7c0,3.5-0.8,5.9-2.5,7.2c3.1,1.9,4.7,4.8,4.7,8.6c0,2.8-0.9,5.1-2.7,7c-1.8,1.9-3.9,2.8-6.4,2.8
				c-2.3,0-4.4-0.8-6-2.4s-2.7-3.6-3-6c-2.6,1.4-4.4,2.4-5.6,3.1c-1.9,1.3-3.5,2.7-4.6,4.3h-7.6v-33.4c-0.8,0.2-1.5,0.3-2.1,0.3
				c-2.6,0-4.8-1-6.5-2.9c-1.8-2-2.7-4.3-2.7-7.1c0-2.7,0.9-5,2.7-6.9c1.8-1.9,3.9-2.9,6.5-2.9c2.7,0,5,1,6.8,3
				c1.8,2,2.7,4.5,2.7,7.5v33c1.3-1,4.2-2.6,8.7-4.5c4-1.8,6.8-3.6,8.3-5.5c1.1-1.3,1.7-3.4,1.7-6.2v-26.3h7.5V978.7z M155.5,960.2
				c0-1.2-0.4-2.3-1.2-3.1c-0.8-0.9-1.8-1.3-2.9-1.3c-1.1,0-2.1,0.4-2.9,1.3c-0.8,0.9-1.2,1.9-1.2,3.1c0,1.2,0.4,2.3,1.2,3.1
				c0.8,0.9,1.8,1.3,2.9,1.3c1.1,0,2.1-0.4,2.9-1.3C155.1,962.5,155.5,961.4,155.5,960.2z M184.2,994.5c0-1.2-0.4-2.2-1.2-3.1
				c-0.8-0.9-1.8-1.3-2.9-1.3c-1.1,0-2.1,0.4-2.9,1.3c-0.8,0.9-1.2,1.9-1.2,3.1c0,1.2,0.4,2.2,1.2,3.1c0.8,0.9,1.8,1.3,2.9,1.3
				c1.1,0,2.1-0.4,2.9-1.3C183.8,996.7,184.2,995.7,184.2,994.5z"/>
			<path class="st6" d="M236.1,1003.2h-7.5v-34.1c0-5.5-1.4-9.5-4.2-12l-7.5,5.8l-7.4-5.8c-3.4,1.8-5.1,5.9-5.1,12.3
				c0,2.1,0.6,5.2,1.8,9.2c1.2,4.1,1.8,7.1,1.8,9.1c0,1.4-0.2,2.8-0.7,4.3c0.5-1.2,1.7-2.9,3.5-5.1c1.9-2.2,3.6-3.8,5.3-4.9
				c-2.2-0.2-3.9-1.1-5.1-2.7c-1.3-1.6-1.9-3.5-1.9-5.5c0-2.3,0.7-4.3,2.2-6c1.5-1.6,3.3-2.5,5.5-2.5s4,0.8,5.6,2.5
				c1.5,1.6,2.3,3.6,2.3,6c0,3.7-1.8,7.7-5.4,11.8c-4.8,5.5-7.7,9.1-8.5,10.8c-1.2,2.5-1.8,4.7-1.8,6.6h-7.5c0.2-3.3,0.2-6.6,0.2-10
				c0-3.5-0.5-6.7-1.5-9.6c-2.1-6.2-3.2-10.9-3.2-14c0-4.8,1.1-8.9,3.4-12.3c2.2-3.5,5.4-5.8,9.6-7l6.9,5.6l6.4-5.6
				c8.6,1.4,12.9,7.6,12.9,18.7V1003.2z M220.4,973.9c0-1.1-0.3-2.1-1-2.8c-0.7-0.7-1.6-1.1-2.6-1.1c-1,0-1.9,0.4-2.6,1.1
				c-0.7,0.7-1,1.7-1,2.8c0,1.1,0.3,2.1,1,2.8c0.7,0.7,1.5,1.1,2.6,1.1c1,0,1.9-0.4,2.6-1.1C220,975.9,220.4,975,220.4,973.9z"/>
			<path class="st6" d="M275,994.5c0,2.8-0.9,5.1-2.7,7s-4,2.8-6.6,2.8c-2.6,0-4.8-1-6.6-2.9s-2.7-4.2-2.7-7c0-2.8,0.9-5.1,2.7-7
				c1.8-1.9,4-2.9,6.6-2.9c1,0,1.6,0,1.8,0.1v-11.2c0-1.4-2.7-2.8-8-4.1c-5.4-1.3-10.2-2.4-14.6-3.2c0.2-4.8,1.3-8.6,3.5-11.5
				c2.2-2.9,5.3-4.4,9.4-4.4c1.7,0,4,0.4,6.9,1.2c2.9,0.8,5.1,1.2,6.3,1.2c1.4,0,2.1-1,2.3-2.9l5.9,1.7c-1.5,5.3-4.1,7.9-8,7.9
				c-1.5,0-3.5-0.4-6.2-1.1c-2.7-0.7-4.7-1.1-6.1-1.1c-3.5,0-5.6,1.4-6,4.3c6.2,1.4,11.4,2.9,15.7,4.4c4.2,1.6,6.3,4.2,6.3,8.1
				V994.5z M269.8,994.4c0-1.2-0.4-2.3-1.2-3.1c-0.8-0.9-1.8-1.3-2.9-1.3s-2.1,0.4-2.9,1.3c-0.8,0.9-1.2,1.9-1.2,3.1
				c0,1.2,0.4,2.3,1.2,3.1c0.8,0.9,1.8,1.3,2.9,1.3s2.1-0.4,2.9-1.3C269.4,996.7,269.8,995.6,269.8,994.4z"/>
			<path class="st6" d="M316.4,1003.2H309v-37.7c0-2.4-0.8-4.4-2.3-5.9c-1.5-1.5-3.6-2.3-6.3-2.3c-2.7,0-4.8,0.9-6.5,2.8
				c-1.7,1.9-2.6,4.3-2.7,7.2h-7.3c0.2-5.2,1.8-9.3,4.8-12.4c2.9-3.1,6.8-4.6,11.7-4.6c4.5,0,8.3,1.2,11.4,3.7
				c3.1,2.5,4.7,6.2,4.7,11.2V1003.2z"/>
			<path class="st6" d="M363.1,990.1c0,9.4-6,14.2-17.9,14.2c-11.8,0-17.8-4.7-17.8-14.2v-6c0-4.2,1.6-7.1,4.9-8.8
				c-3.6-2.7-5.5-6.6-5.5-11.8c0-3.8,1-7,3-9.4c2-2.5,4.7-3.7,8.2-3.7c2.4,0,4.5,0.8,6.2,2.4c1.7,1.6,2.5,3.7,2.5,6.3
				c0,2.3-0.8,4.4-2.3,6.1c-1.5,1.7-3.6,2.6-6.1,2.6c-1.3,0-2.4-0.2-3.4-0.6c0.6,3.3,2.1,4.9,4.4,4.9h8.6v6.4h-8.6
				c-1.3,0-2.3,0.6-3.1,1.8c-0.8,1.2-1.2,2.6-1.2,4.1v5.9c0,4.6,3.4,7,10.3,7c7,0,10.5-2.3,10.5-7v-38.9h7.5V990.1z M342.2,959.2
				c0-1.2-0.4-2.2-1.1-3c-0.7-0.8-1.7-1.2-2.8-1.2c-1.1,0-2.1,0.4-2.8,1.2c-0.7,0.8-1.1,1.8-1.1,3c0,1.2,0.4,2.2,1.1,3
				s1.7,1.2,2.8,1.2c1.1,0,2.1-0.4,2.8-1.2S342.2,960.4,342.2,959.2z"/>
			<path class="st6" d="M413.2,991c0,4.2-1.2,7.5-3.7,9.8c-2.5,2.3-5.7,3.4-9.7,3.4c-4,0-7.3-1.1-9.7-3.4c-2.5-2.3-3.7-5.6-3.7-9.8
				v-8.4c0-2.5,1.1-5.9,3.2-10c2.1-4.2,3.2-7.5,3.2-9.9c0-2-0.6-3.6-1.9-4.9c-1.3-1.3-2.8-1.9-4.5-1.9c-2.6,0-4.3,0.5-5.2,1.6
				c2.4,0.1,4.4,0.9,5.9,2.5c1.5,1.6,2.2,3.6,2.2,6c0,2.6-0.8,4.8-2.5,6.6c-1.7,1.8-3.7,2.7-6,2.7c-2.7,0-4.9-1.1-6.6-3.2
				c-1.7-2.1-2.5-4.7-2.5-7.7c0-4,1.5-7.3,4.4-9.9c2.9-2.6,6.3-3.9,10.2-3.9c4,0,7.3,1,9.8,3.1c2.5,2.1,3.8,5.1,3.8,9.1
				c0,2.6-1,6.2-3,10.9c-2,4.7-3,8-3,9.9v9.5c0,1.5,0.6,2.6,1.9,3.4c1.2,0.8,2.6,1.2,4,1.2c1.5,0,2.9-0.4,4.1-1.2
				c1.2-0.8,1.8-1.9,1.8-3.3v-21.4c0-3.2-1.2-5.2-3.5-6c0.3-1.6,0.4-3.1,0.1-4.5c4.1-1.6,6.2-5.8,6.2-12.4h7.5
				c-0.6,6.7-2.7,11.6-6.4,14.7c2.4,2.1,3.6,4.8,3.6,8.2V991z M384.5,966.1c0-1.1-0.4-2.1-1.1-2.9s-1.6-1.2-2.7-1.2
				c-1,0-1.9,0.4-2.7,1.2c-0.7,0.8-1.1,1.7-1.1,2.9c0,1.1,0.4,2.1,1.1,2.9c0.7,0.8,1.6,1.2,2.7,1.2c1,0,1.9-0.4,2.7-1.2
				C384.1,968.1,384.5,967.2,384.5,966.1z"/>
			<path class="st6" d="M465.6,978.7c0,3.5-0.8,5.9-2.5,7.2c3.1,1.9,4.7,4.8,4.7,8.6c0,2.8-0.9,5.1-2.7,7c-1.8,1.9-3.9,2.8-6.4,2.8
				c-2.3,0-4.4-0.8-6-2.4c-1.7-1.6-2.7-3.6-3-6c-2.6,1.4-4.4,2.4-5.6,3.1c-1.9,1.3-3.5,2.7-4.6,4.3h-7.6v-33.4
				c-0.8,0.2-1.5,0.3-2.1,0.3c-2.6,0-4.8-1-6.5-2.9c-1.8-2-2.7-4.3-2.7-7.1c0-2.7,0.9-5,2.7-6.9c1.8-1.9,3.9-2.9,6.5-2.9
				c2.7,0,5,1,6.8,3c1.8,2,2.7,4.5,2.7,7.5v33c1.3-1,4.2-2.6,8.7-4.5c4-1.8,6.8-3.6,8.3-5.5c1.1-1.3,1.7-3.4,1.7-6.2v-26.3h7.5
				V978.7z M433.9,960.2c0-1.2-0.4-2.3-1.2-3.1c-0.8-0.9-1.8-1.3-2.9-1.3c-1.1,0-2.1,0.4-2.9,1.3c-0.8,0.9-1.2,1.9-1.2,3.1
				c0,1.2,0.4,2.3,1.2,3.1c0.8,0.9,1.8,1.3,2.9,1.3c1.1,0,2.1-0.4,2.9-1.3C433.5,962.5,433.9,961.4,433.9,960.2z M462.7,994.5
				c0-1.2-0.4-2.2-1.2-3.1c-0.8-0.9-1.8-1.3-2.9-1.3c-1.1,0-2.1,0.4-2.9,1.3c-0.8,0.9-1.2,1.9-1.2,3.1c0,1.2,0.4,2.2,1.2,3.1
				c0.8,0.9,1.8,1.3,2.9,1.3c1.1,0,2.1-0.4,2.9-1.3C462.3,996.7,462.7,995.7,462.7,994.5z"/>
			<path class="st6" d="M465.8,944.7c-10-3.5-19.1-5.2-27.4-5.2c-3.8,0-7.6,0.3-11.5,0.8c1-11.6,6.8-17.4,17.6-17.4
				c6.2,0,11.1,2,14.7,6C462.9,933,465.1,938.2,465.8,944.7z M458.1,937.1c-0.5-2.2-1.9-4.2-4.4-6.1c-2.4-1.9-5.2-2.9-8.2-2.9
				c-2.9,0-5.4,0.6-7.5,1.9c-2.1,1.3-3.4,2.9-4,5c1.4-0.3,3.5-0.5,6.4-0.5C446.4,934.5,452.3,935.3,458.1,937.1z"/>
			<path class="st6" d="M514.5,1003.2H507v-34.7c0-3.3-1.1-6-3.4-8c-2.3-2.1-5-3.1-8.1-3.1c-3.4,0-6.3,1.2-8.8,3.7
				c-2.5,2.5-3.7,5.4-3.7,8.9c0,2.2,0.7,5.2,2,9.2c1.3,4,2,6.9,2,8.9c0,0.6-0.1,1.4-0.2,2.5c2.3-4.1,4.9-7.5,7.7-10.3
				c-2.3-0.2-4-1.1-5.3-2.9c-1.2-1.5-1.8-3.3-1.8-5.5c0-2.3,0.8-4.2,2.4-5.9c1.6-1.7,3.4-2.5,5.6-2.5c2.2,0,4,0.8,5.6,2.5
				c1.5,1.7,2.3,3.7,2.3,5.9c0,3.9-1.8,8.2-5.3,13c-4.9,6.5-7.6,10.4-8.3,11.7c-1.2,2.3-1.8,4.5-1.8,6.6h-7.6
				c0.1-3.2,0.1-6.2,0.1-8.8c0-4.7-0.5-8.3-1.5-10.8c-0.7-2.3-1.5-4.6-2.2-7c-0.7-2.4-1.1-4.5-1.1-6.3c0-5.9,1.9-10.7,5.7-14.4
				c3.8-3.7,8.5-5.6,14-5.6c5.6,0,10.1,1.6,13.7,4.7c3.8,3.4,5.7,8,5.7,13.9V1003.2z M498.9,971.9c0-1.1-0.3-2.1-1-2.8
				c-0.7-0.7-1.6-1.1-2.6-1.1c-1,0-1.9,0.4-2.6,1.1c-0.7,0.7-1,1.7-1,2.8c0,1.1,0.3,2.1,1,2.8c0.7,0.7,1.5,1.1,2.6,1.1
				c1,0,1.9-0.4,2.6-1.1C498.6,974,498.9,973,498.9,971.9z"/>
			<path class="st6" d="M568.3,991.5c0,8.5-5.8,12.7-17.5,12.7c-11.8,0-17.6-4.2-17.6-12.7v-21.7c-0.8,0.2-1.5,0.3-2.1,0.3
				c-2.6,0-4.8-1-6.5-2.9c-1.8-2-2.7-4.3-2.7-7.1c0-2.7,0.9-5,2.7-6.9c1.8-1.9,3.9-2.9,6.5-2.9c2.7,0,5,1,6.8,3
				c1.8,2,2.7,4.5,2.7,7.5v30.7c0,1.7,1.1,3.1,3.3,4.1c2.2,1,4.5,1.6,6.9,1.6c2.3,0,4.6-0.5,6.8-1.6c2.2-1,3.3-2.4,3.3-4.2v-61h7.5
				V991.5z M535.2,960.2c0-1.2-0.4-2.3-1.2-3.1c-0.8-0.9-1.8-1.3-2.9-1.3c-1.1,0-2.1,0.4-2.9,1.3c-0.8,0.9-1.2,1.9-1.2,3.1
				c0,1.2,0.4,2.3,1.2,3.1c0.8,0.9,1.8,1.3,2.9,1.3c1.1,0,2.1-0.4,2.9-1.3C534.8,962.5,535.2,961.4,535.2,960.2z"/>
			<path class="st6" d="M607.2,994.5c0,2.8-0.9,5.1-2.7,7s-4,2.8-6.6,2.8c-2.6,0-4.8-1-6.6-2.9s-2.7-4.2-2.7-7c0-2.8,0.9-5.1,2.7-7
				c1.8-1.9,4-2.9,6.6-2.9c1,0,1.6,0,1.8,0.1v-11.2c0-1.4-2.7-2.8-8-4.1c-5.4-1.3-10.2-2.4-14.6-3.2c0.2-4.8,1.3-8.6,3.5-11.5
				c2.2-2.9,5.3-4.4,9.4-4.4c1.7,0,4,0.4,6.9,1.2c2.9,0.8,5.1,1.2,6.3,1.2c1.4,0,2.1-1,2.3-2.9l5.9,1.7c-1.5,5.3-4.1,7.9-8,7.9
				c-1.5,0-3.5-0.4-6.2-1.1c-2.7-0.7-4.7-1.1-6.1-1.1c-3.5,0-5.6,1.4-6,4.3c6.2,1.4,11.4,2.9,15.6,4.4c4.2,1.6,6.3,4.2,6.3,8.1
				V994.5z M602,994.4c0-1.2-0.4-2.3-1.2-3.1c-0.8-0.9-1.8-1.3-2.9-1.3s-2.1,0.4-2.9,1.3c-0.8,0.9-1.2,1.9-1.2,3.1
				c0,1.2,0.4,2.3,1.2,3.1c0.8,0.9,1.8,1.3,2.9,1.3s2.1-0.4,2.9-1.3C601.6,996.7,602,995.6,602,994.4z"/>
			<path class="st6" d="M620.2,919.6c-2.1,14.4-9.3,21.6-21.8,21.6c-4.8,0-8.5-1.1-11.1-3.2c-2.6-2.1-3.9-4.8-3.9-8.1
				c0-2.5,0.8-4.6,2.4-6.4c1.6-1.7,3.6-2.6,5.9-2.6c2.5,0,4.5,0.9,6.1,2.7c1.6,1.8,2.4,3.9,2.4,6.3c0,2.3-0.6,4.1-1.8,5.2
				c8.4-0.3,13.3-5.5,14.6-15.5H620.2z M595.5,929.9c0-1.1-0.4-2.1-1.1-2.9c-0.7-0.8-1.6-1.2-2.7-1.2c-1,0-1.9,0.4-2.6,1.2
				c-0.7,0.8-1,1.7-1,2.9c0,1.1,0.3,2.1,1,2.8c0.7,0.7,1.6,1.1,2.6,1.1c1,0,1.9-0.4,2.7-1.1C595.1,932,595.5,931,595.5,929.9z"/>
			<path class="st6" d="M661.8,991.5c0,8.5-5.8,12.7-17.5,12.7c-11.8,0-17.6-4.2-17.6-12.7v-21.7c-0.8,0.2-1.5,0.3-2.1,0.3
				c-2.6,0-4.8-1-6.5-2.9c-1.8-2-2.7-4.3-2.7-7.1c0-2.7,0.9-5,2.7-6.9c1.8-1.9,3.9-2.9,6.5-2.9c2.7,0,5,1,6.8,3
				c1.8,2,2.7,4.5,2.7,7.5v30.7c0,1.7,1.1,3.1,3.3,4.1c2.2,1,4.5,1.6,6.9,1.6c2.3,0,4.6-0.5,6.8-1.6c2.2-1,3.3-2.4,3.3-4.1v-40.2
				h7.5V991.5z M628.7,960.2c0-1.2-0.4-2.3-1.2-3.1c-0.8-0.9-1.8-1.3-2.9-1.3c-1.1,0-2.1,0.4-2.9,1.3c-0.8,0.9-1.2,1.9-1.2,3.1
				c0,1.2,0.4,2.3,1.2,3.1c0.8,0.9,1.8,1.3,2.9,1.3c1.1,0,2.1-0.4,2.9-1.3C628.3,962.5,628.7,961.4,628.7,960.2z"/>
			<path class="st6" d="M697.9,994.4c0,2.8-0.9,5.1-2.7,7c-1.8,1.9-4,2.9-6.5,2.9c-2.7,0-5-1-6.9-3c-1.9-2-2.8-4.5-2.8-7.5v-64.2
				l-7.3,11.4l-4.8-1.6c-0.3-8.1-1.5-15.7-3.4-22.8h6.5c1,6.8,1.5,12,1.6,15.5l8.6-14.4c1.6,0.3,3.1,1.1,4.4,2.5
				c1.3,1.4,1.9,3,1.9,4.9v59.7c0.4-0.2,1.1-0.3,2.2-0.3c2.5,0,4.7,1,6.5,2.9C697,989.3,697.9,991.6,697.9,994.4z M692.9,994.4
				c0-1.2-0.4-2.3-1.2-3.1c-0.8-0.9-1.8-1.3-2.9-1.3c-1.1,0-2.1,0.4-2.9,1.3c-0.8,0.9-1.2,1.9-1.2,3.1c0,1.2,0.4,2.3,1.2,3.1
				c0.8,0.9,1.8,1.3,2.9,1.3c1.1,0,2.1-0.4,2.9-1.3C692.5,996.7,692.9,995.6,692.9,994.4z"/>
			<path class="st6" d="M741.2,1003.2h-7.5v-34.7c0-3.3-1.1-6-3.4-8c-2.3-2.1-5-3.1-8.1-3.1c-3.4,0-6.3,1.2-8.8,3.7
				c-2.5,2.5-3.7,5.4-3.7,8.9c0,2.2,0.7,5.2,2,9.2c1.3,4,2,6.9,2,8.9c0,0.6-0.1,1.4-0.2,2.5c2.3-4.1,4.9-7.5,7.7-10.3
				c-2.3-0.2-4-1.1-5.3-2.9c-1.2-1.5-1.8-3.3-1.8-5.5c0-2.3,0.8-4.2,2.4-5.9c1.6-1.7,3.4-2.5,5.6-2.5c2.2,0,4,0.8,5.6,2.5
				c1.5,1.7,2.3,3.7,2.3,5.9c0,3.9-1.8,8.2-5.3,13c-4.9,6.5-7.6,10.4-8.3,11.7c-1.2,2.3-1.8,4.5-1.8,6.6h-7.6
				c0.1-3.2,0.1-6.2,0.1-8.8c0-4.7-0.5-8.3-1.5-10.8c-0.7-2.3-1.5-4.6-2.2-7c-0.7-2.4-1.1-4.5-1.1-6.3c0-5.9,1.9-10.7,5.7-14.4
				c3.8-3.7,8.5-5.6,14-5.6c5.6,0,10.1,1.6,13.7,4.7c3.8,3.4,5.7,8,5.7,13.9V1003.2z M725.6,971.9c0-1.1-0.3-2.1-1-2.8
				c-0.7-0.7-1.6-1.1-2.6-1.1c-1,0-1.9,0.4-2.6,1.1c-0.7,0.7-1,1.7-1,2.8c0,1.1,0.3,2.1,1,2.8c0.7,0.7,1.5,1.1,2.6,1.1
				c1,0,1.9-0.4,2.6-1.1C725.3,974,725.6,973,725.6,971.9z"/>
			<path class="st6" d="M748.6,920.4c-0.8,4.6-1.9,8.4-3.4,11.6c-1.4,3.1-3.3,5.6-5.6,7.5c-2.3,1.9-4.9,3.2-7.9,4
				c-3,0.8-6.5,1.2-10.5,1.2h-4v-5.2c1.6-0.1,3-0.7,4-1.8c1.1-1.1,1.8-2.3,2.2-3.4c-2-0.3-3.6-1.3-4.8-2.9c-1.2-1.6-1.8-3.5-1.8-5.7
				c0-2.3,0.8-4.3,2.4-5.8s3.4-2.3,5.5-2.3c2.4,0,4.3,0.8,5.7,2.5c1.4,1.6,2.1,3.7,2.1,6.2c0,2.5-0.6,4.9-1.7,7.3
				c-1.1,2.3-2.3,4.2-3.5,5.5c4-0.8,7.3-2.9,9.8-6.3c2.5-3.4,3.9-7.5,4-12.2H748.6z M727.9,925.9c0-1-0.3-1.8-0.9-2.4
				c-0.6-0.7-1.3-1-2.2-1c-0.9,0-1.6,0.3-2.2,1c-0.6,0.6-0.8,1.5-0.8,2.4c0,1,0.3,1.8,0.8,2.4c0.6,0.7,1.3,1,2.2,1
				c0.9,0,1.6-0.3,2.2-1C727.6,927.6,727.9,926.8,727.9,925.9z"/>
		</g>
		<g>
			<path class="st6" d="M108.8,892.8h-7.5v-34.1c0-5.5-1.4-9.5-4.2-12l-7.5,5.8l-7.4-5.8c-3.4,1.8-5.1,5.9-5.1,12.3
				c0,2.1,0.6,5.2,1.8,9.2c1.2,4.1,1.8,7.1,1.8,9.1c0,1.4-0.2,2.8-0.7,4.3c0.5-1.2,1.7-2.9,3.5-5.1c1.9-2.2,3.6-3.8,5.3-4.9
				c-2.2-0.2-3.9-1.1-5.1-2.7c-1.3-1.6-1.9-3.5-1.9-5.5c0-2.3,0.7-4.3,2.2-6c1.5-1.6,3.3-2.5,5.5-2.5c2.2,0,4,0.8,5.6,2.5
				c1.5,1.6,2.3,3.6,2.3,6c0,3.7-1.8,7.7-5.4,11.8c-4.8,5.5-7.7,9.1-8.5,10.8c-1.2,2.5-1.8,4.7-1.8,6.6h-7.5c0.2-3.3,0.2-6.6,0.2-10
				c0-3.5-0.5-6.7-1.5-9.6c-2.1-6.2-3.2-10.9-3.2-14c0-4.8,1.1-8.9,3.4-12.3c2.2-3.5,5.4-5.8,9.6-7l6.9,5.6l6.4-5.6
				c8.6,1.4,12.9,7.6,12.9,18.7V892.8z M93.1,863.4c0-1.1-0.3-2.1-1-2.8c-0.7-0.7-1.6-1.1-2.6-1.1c-1,0-1.9,0.4-2.6,1.1
				c-0.7,0.7-1,1.7-1,2.8c0,1.1,0.3,2.1,1,2.8c0.7,0.7,1.6,1.1,2.6,1.1c1,0,1.9-0.4,2.6-1.1C92.8,865.4,93.1,864.5,93.1,863.4z"/>
			<path class="st6" d="M116.2,810c-0.8,4.6-1.9,8.4-3.4,11.6s-3.3,5.6-5.6,7.5c-2.3,1.9-4.9,3.2-7.9,4s-6.5,1.2-10.5,1.2h-4v-5.2
				c1.6-0.1,3-0.7,4-1.8c1.1-1.1,1.8-2.3,2.2-3.4c-2-0.3-3.6-1.3-4.8-2.9c-1.2-1.6-1.8-3.5-1.8-5.7c0-2.3,0.8-4.3,2.4-5.8
				c1.6-1.6,3.4-2.3,5.5-2.3c2.4,0,4.3,0.8,5.7,2.5c1.4,1.6,2.1,3.7,2.1,6.2c0,2.5-0.6,4.9-1.7,7.3c-1.1,2.3-2.3,4.2-3.5,5.5
				c4-0.8,7.3-2.9,9.8-6.3c2.5-3.4,3.9-7.5,4-12.2H116.2z M95.5,815.4c0-1-0.3-1.8-0.9-2.4c-0.6-0.7-1.3-1-2.2-1
				c-0.9,0-1.6,0.3-2.2,1c-0.6,0.6-0.8,1.5-0.8,2.4c0,1,0.3,1.8,0.8,2.4c0.6,0.7,1.3,1,2.2,1c0.9,0,1.6-0.3,2.2-1
				C95.2,817.2,95.5,816.4,95.5,815.4z"/>
			<path class="st6" d="M156.4,881.1c0,4.5-1.9,7.8-5.7,10c-3.1,1.8-7,2.7-11.8,2.7s-8.7-0.9-11.7-2.7c-3.6-2.2-5.4-5.5-5.4-10
				v-13.2c0-3.1,0.8-5.8,2.4-7.9c1.6-2.1,3.9-3.2,6.9-3.2c2.6,0,4.8,0.9,6.5,2.8c1.8,1.9,2.7,4.2,2.7,7c0,2.7-0.9,5-2.7,6.9
				c-1.8,1.9-3.9,2.9-6.5,2.9c-0.7,0-1.3-0.1-1.8-0.3v4c0,4.5,3.3,6.7,9.8,6.7c6.6,0,9.9-2.3,9.9-6.8v-24.8c0-2.8-1.3-5-3.7-6.5
				c-2.1-1.2-4.7-1.8-7.7-1.8c-7.7,0-11.8,2.1-12.4,6.2h-7.3c1-8.8,7.4-13.2,19.1-13.3c5.4,0,9.8,1.1,13.3,3.3
				c4.2,2.8,6.3,6.9,6.3,12.5V881.1z M135.2,866.6c0-1.2-0.4-2.2-1.2-3.1c-0.8-0.9-1.8-1.3-2.9-1.3c-1.1,0-2.1,0.4-2.9,1.3
				c-0.8,0.9-1.2,1.9-1.2,3.1c0,1.2,0.4,2.2,1.2,3.1c0.8,0.9,1.8,1.3,2.9,1.3c1.1,0,2.1-0.4,2.9-1.3
				C134.8,868.8,135.2,867.8,135.2,866.6z"/>
			<path class="st6" d="M194.9,892.8h-7.4l-22.6-27.4l4.5-5.6l18,21.8v-22.4c-0.2,0.1-1,0.1-2.3,0.1c-2.5,0-4.6-0.9-6.3-2.7
				c-1.7-1.8-2.6-4-2.6-6.8c0-2.8,0.9-5.1,2.7-7.1c1.8-1.9,3.9-2.9,6.3-2.9c2.8,0,5.2,1,7,2.9c1.9,2,2.8,4.5,2.8,7.6V892.8z
				 M189.2,849.6c0-1.2-0.4-2.2-1.2-3c-0.8-0.8-1.8-1.3-2.9-1.3c-1.1,0-2.1,0.4-2.9,1.3c-0.8,0.8-1.2,1.9-1.2,3c0,1.2,0.4,2.2,1.2,3
				c0.8,0.8,1.8,1.3,2.9,1.3c1.1,0,2.1-0.4,2.9-1.3C188.8,851.8,189.2,850.8,189.2,849.6z"/>
			<path class="st6" d="M243.1,892.8h-7.5v-22.5c0-2.6-1.4-4.6-4.1-6c-2.1-1-4.4-1.6-7-1.6c-2.5,0-4.6,0.7-6.4,2
				c-2.2,1.6-3.3,3.6-3.3,6.2v3.3c1.1-0.2,1.9-0.3,2.2-0.3c2.6,0,4.8,1,6.6,2.9c1.9,2,2.8,4.3,2.8,7c0,2.8-1,5.1-2.9,7
				c-1.9,1.9-4.2,2.9-6.6,2.9c-2.7,0-4.9-0.9-6.8-2.8c-1.9-1.9-2.8-4.2-2.8-7.1v-12c0-5.1,1.8-9.1,5.3-12c3.1-2.5,7-3.8,11.7-3.8
				c5,0,8.7,1.5,11.2,4.4v-5.8c0-2.7-1.5-4.7-4.4-6.2c-2.3-1.1-4.8-1.7-7.6-1.7c-3.1,0-5.8,0.8-8.1,2.3c-2.5,1.7-4,4-4.5,6.9h-7.3
				c0.5-5.3,2.6-9.4,6.4-12.2c3.5-2.7,8.1-4,13.7-4c3.6,0,6.9,0.7,9.8,2.1c1.7-1.6,2.5-3.7,2.5-6.2h8.5c-1,4.4-2.7,7.8-5.2,10.3
				c2.4,2.8,3.6,6,3.6,9.6V892.8z M221.1,883.8c0-1.2-0.4-2.3-1.2-3.1c-0.8-0.9-1.8-1.3-2.9-1.3c-1.1,0-2.1,0.4-2.9,1.3
				c-0.8,0.9-1.2,1.9-1.2,3.1c0,1.2,0.4,2.3,1.2,3.1c0.8,0.9,1.8,1.3,2.9,1.3c1.1,0,2.1-0.4,2.9-1.3
				C220.7,886.1,221.1,885,221.1,883.8z"/>
			<path class="st6" d="M288.9,883.3c0,3-0.9,5.5-2.8,7.5c-1.9,1.9-4.1,2.9-6.9,2.9c-2.6,0-4.8-1-6.5-2.9c-1.8-1.9-2.7-4.2-2.7-6.9
				c0-2.8,0.9-5.1,2.7-7.1c1.8-1.9,3.9-2.9,6.5-2.9c0.9,0,1.6,0,2.2,0.1v-18.9c0-5.5-3.7-8.2-11.1-8.2c-3.1,0-5.7,1-7.8,3
				c-2.1,2-3.2,4.7-3.2,8H252c0.2-5.7,2-10.2,5.3-13.3c3.3-3.2,7.6-4.7,13-4.7c5.3,0,9.6,1.1,12.8,3.4c3.9,2.7,5.8,6.8,5.8,12.4
				V883.3z M283.3,883.8c0-1.2-0.4-2.3-1.2-3.1c-0.8-0.9-1.8-1.3-2.9-1.3c-1.1,0-2.1,0.4-2.9,1.3c-0.8,0.9-1.2,1.9-1.2,3.1
				c0,1.2,0.4,2.3,1.2,3.1c0.8,0.9,1.8,1.3,2.9,1.3c1.1,0,2.1-0.4,2.9-1.3C282.9,886.1,283.3,885,283.3,883.8z"/>
			<path class="st6" d="M339.3,892.8h-7.5c-4.7-4.5-9.4-7.7-14.1-9.5v0.7c0,2.8-1,5.1-3,7c-2,1.9-4.2,2.9-6.7,2.9
				c-2.7,0-5-1-6.9-3.1s-2.9-4.5-2.9-7.4c0-2.9,1-5.3,2.9-7.3c1.9-2,4.2-3.1,6.9-3.1h0.8v-13.5c-0.8,0.2-1.5,0.3-2.1,0.3
				c-2.6,0-4.8-1-6.5-2.9c-1.8-2-2.7-4.3-2.7-7.1c0-2.7,0.9-5,2.7-6.9c1.8-1.9,3.9-2.9,6.5-2.9c2.7,0,5,1,6.8,3
				c1.8,2,2.7,4.5,2.7,7.5v24.7c6.4,2.3,11.5,5.4,15.5,9.2v-43.4h7.5V892.8z M310.9,849.7c0-1.2-0.4-2.3-1.2-3.1
				c-0.8-0.9-1.8-1.3-2.9-1.3c-1.1,0-2.1,0.4-2.9,1.3c-0.8,0.9-1.2,1.9-1.2,3.1c0,1.2,0.4,2.3,1.2,3.1c0.8,0.9,1.8,1.3,2.9,1.3
				c1.1,0,2.1-0.4,2.9-1.3C310.5,852,310.9,851,310.9,849.7z M312.1,883.3c0-1.2-0.4-2.3-1.2-3.1c-0.8-0.9-1.8-1.3-2.9-1.3
				c-1.1,0-2.1,0.4-2.9,1.3c-0.8,0.9-1.2,1.9-1.2,3.1c0,1.2,0.4,2.3,1.2,3.1c0.8,0.9,1.8,1.3,2.9,1.3c1.1,0,2.1-0.4,2.9-1.3
				C311.7,885.5,312.1,884.5,312.1,883.3z"/>
			<path class="st6" d="M388,892.8h-7.5v-35.4c0-3.1-1.3-5.7-3.7-7.8c-2.3-1.8-5-2.7-8.1-2.7c-3.6,0-6.5,1.3-8.7,3.9
				s-3.3,5.6-3.3,9.1c0,1,0.2,2.5,0.5,4.7c0.4,2.2,0.5,4.1,0.5,5.8v3.6c0-0.1,0.1-1,0.4-2.8c0.3-1.8,0.5-3.1,0.5-4.1
				c0.8-3.6,2.1-6.7,3.7-9.1c2.1-3.1,4.5-4.7,7.3-4.7c2.2,0,4.1,0.8,5.7,2.5c1.6,1.6,2.4,3.6,2.4,6c0,2.3-0.8,4.2-2.4,5.9
				c-1.6,1.7-3.5,2.5-5.7,2.5c-2,0-3.8-0.8-5.4-2.3c-2.4,7.9-3.6,16.2-3.6,24.8h-7.5v-8.3c0-4.1-0.7-8.5-2-13.3
				c-1.3-4.8-2-8.6-2-11.4c0-6,2-10.8,6-14.6c3.8-3.6,8.5-5.3,14-5.3c5.1,0,9.3,1.4,12.8,4.3c3.9,3.3,5.9,7.8,5.9,13.4V892.8z
				 M373.4,861.8c0-1.1-0.4-2.1-1.1-2.9s-1.6-1.2-2.7-1.2s-1.9,0.4-2.6,1.2c-0.7,0.8-1,1.7-1,2.9c0,1.1,0.3,2.1,1,2.8
				c0.7,0.7,1.6,1.1,2.6,1.1s1.9-0.4,2.7-1.1C373,863.9,373.4,863,373.4,861.8z"/>
			<path class="st6" d="M426.9,884.1c0,2.8-0.9,5.1-2.7,7c-1.8,1.9-4,2.8-6.6,2.8c-2.6,0-4.8-1-6.6-2.9s-2.7-4.2-2.7-7
				c0-2.8,0.9-5.1,2.7-7c1.8-1.9,4-2.9,6.6-2.9c1,0,1.6,0,1.8,0.1V863c0-1.4-2.7-2.8-8-4.1c-5.4-1.3-10.2-2.4-14.6-3.2
				c0.2-4.8,1.3-8.6,3.5-11.5c2.2-2.9,5.3-4.4,9.4-4.4c1.7,0,4,0.4,6.9,1.2c2.9,0.8,5.1,1.2,6.3,1.2c1.4,0,2.1-1,2.3-2.9l5.9,1.7
				c-1.5,5.3-4.1,7.9-8,7.9c-1.5,0-3.5-0.4-6.2-1.1c-2.7-0.7-4.7-1.1-6.1-1.1c-3.5,0-5.6,1.4-6,4.3c6.2,1.4,11.4,2.9,15.6,4.4
				c4.2,1.6,6.3,4.2,6.3,8.1V884.1z M421.7,883.9c0-1.2-0.4-2.3-1.2-3.1c-0.8-0.9-1.8-1.3-2.9-1.3c-1.1,0-2.1,0.4-2.9,1.3
				c-0.8,0.9-1.2,1.9-1.2,3.1c0,1.2,0.4,2.3,1.2,3.1c0.8,0.9,1.8,1.3,2.9,1.3c1.1,0,2.1-0.4,2.9-1.3
				C421.3,886.2,421.7,885.1,421.7,883.9z"/>
			<path class="st6" d="M475.4,881.1c0,4.5-1.9,7.8-5.7,10c-3.1,1.8-7,2.7-11.8,2.7c-4.8,0-8.7-0.9-11.7-2.7
				c-3.6-2.2-5.4-5.5-5.4-10v-13.2c0-3.1,0.8-5.8,2.4-7.9c1.6-2.1,3.9-3.2,6.9-3.2c2.6,0,4.8,0.9,6.5,2.8c1.8,1.9,2.7,4.2,2.7,7
				c0,2.7-0.9,5-2.7,6.9c-1.8,1.9-3.9,2.9-6.5,2.9c-0.7,0-1.3-0.1-1.8-0.3v4c0,4.5,3.3,6.7,9.8,6.7c6.6,0,9.9-2.3,9.9-6.8v-24.8
				c0-2.8-1.3-5-3.7-6.5c-2.1-1.2-4.7-1.8-7.7-1.8c-7.7,0-11.8,2.1-12.4,6.2h-7.3c1-8.8,7.4-13.2,19.1-13.3c5.4,0,9.8,1.1,13.3,3.3
				c4.2,2.8,6.3,6.9,6.3,12.5V881.1z M454.1,866.6c0-1.2-0.4-2.2-1.2-3.1c-0.8-0.9-1.8-1.3-2.9-1.3s-2.1,0.4-2.9,1.3
				c-0.8,0.9-1.2,1.9-1.2,3.1c0,1.2,0.4,2.2,1.2,3.1c0.8,0.9,1.8,1.3,2.9,1.3s2.1-0.4,2.9-1.3C453.7,868.8,454.1,867.8,454.1,866.6z
				"/>
			<path class="st6" d="M529.1,881.1c0,8.5-5.8,12.7-17.5,12.7c-11.8,0-17.6-4.2-17.6-12.7v-21.7c-0.8,0.2-1.5,0.3-2.1,0.3
				c-2.6,0-4.8-1-6.5-2.9c-1.8-2-2.7-4.3-2.7-7.1c0-2.7,0.9-5,2.7-6.9c1.8-1.9,3.9-2.9,6.5-2.9c2.7,0,5,1,6.8,3
				c1.8,2,2.7,4.5,2.7,7.5v30.7c0,1.7,1.1,3.1,3.3,4.1c2.2,1,4.5,1.6,6.9,1.6c2.3,0,4.6-0.5,6.8-1.6c2.2-1,3.3-2.4,3.3-4.1v-40.2
				h7.5V881.1z M496,849.7c0-1.2-0.4-2.3-1.2-3.1c-0.8-0.9-1.8-1.3-2.9-1.3c-1.1,0-2.1,0.4-2.9,1.3c-0.8,0.9-1.2,1.9-1.2,3.1
				c0,1.2,0.4,2.3,1.2,3.1c0.8,0.9,1.8,1.3,2.9,1.3c1.1,0,2.1-0.4,2.9-1.3C495.6,852,496,851,496,849.7z"/>
			<path class="st6" d="M582.9,881.1c0,8.5-5.8,12.7-17.5,12.7c-11.8,0-17.6-4.2-17.6-12.7v-21.7c-0.8,0.2-1.5,0.3-2.1,0.3
				c-2.6,0-4.8-1-6.5-2.9c-1.8-2-2.7-4.3-2.7-7.1c0-2.7,0.9-5,2.7-6.9c1.8-1.9,3.9-2.9,6.5-2.9c2.7,0,5,1,6.8,3
				c1.8,2,2.7,4.5,2.7,7.5v30.7c0,1.7,1.1,3.1,3.3,4.1c2.2,1,4.5,1.6,6.9,1.6c2.3,0,4.6-0.5,6.8-1.6c2.2-1,3.3-2.4,3.3-4.2v-61h7.5
				V881.1z M549.8,849.7c0-1.2-0.4-2.3-1.2-3.1c-0.8-0.9-1.8-1.3-2.9-1.3c-1.1,0-2.1,0.4-2.9,1.3c-0.8,0.9-1.2,1.9-1.2,3.1
				c0,1.2,0.4,2.3,1.2,3.1c0.8,0.9,1.8,1.3,2.9,1.3c1.1,0,2.1-0.4,2.9-1.3C549.4,852,549.8,851,549.8,849.7z"/>
			<path class="st6" d="M579.3,811.1c-0.3,4.2-1.2,7.8-2.5,10.7c-1.4,2.9-3.2,5.3-5.4,7.1c-2.3,1.8-4.9,3.1-8,4
				c-3.1,0.8-6.5,1.2-10.2,1.2h-3.6v-4.9c1.6-0.1,2.9-0.7,3.9-1.8c1-1.1,1.6-2.1,1.9-3.2c-1.8-0.4-3.2-1.4-4.4-2.9
				c-1.1-1.5-1.7-3.3-1.7-5.3c0-2.3,0.7-4.1,2.2-5.6c1.5-1.5,3.2-2.2,5.2-2.2c2.3,0,4.2,0.8,5.5,2.3c1.3,1.6,2,3.6,2,6
				c0,2.2-0.6,4.4-1.7,6.7c-1.1,2.3-2.3,4.1-3.4,5.4c3.9-0.9,7-2.9,9.4-6.2c2.4-3.3,3.6-7,3.8-11.4H579.3z M559.5,816.3
				c0-1-0.3-1.7-0.8-2.3c-0.6-0.6-1.3-0.9-2.2-0.9c-0.8,0-1.5,0.3-2.1,0.9c-0.6,0.6-0.8,1.4-0.8,2.3c0,0.9,0.3,1.6,0.8,2.2
				c0.6,0.6,1.3,0.9,2.1,0.9c0.9,0,1.6-0.3,2.2-0.9C559.2,817.9,559.5,817.2,559.5,816.3z"/>
			<path class="st6" d="M630.5,881.1c0,4.5-1.9,7.8-5.7,10c-3.1,1.8-7,2.7-11.8,2.7s-8.7-0.9-11.7-2.7c-3.6-2.2-5.4-5.5-5.4-10
				v-13.2c0-3.1,0.8-5.8,2.4-7.9c1.6-2.1,3.9-3.2,6.9-3.2c2.6,0,4.8,0.9,6.5,2.8c1.8,1.9,2.7,4.2,2.7,7c0,2.7-0.9,5-2.7,6.9
				c-1.8,1.9-3.9,2.9-6.5,2.9c-0.7,0-1.3-0.1-1.8-0.3v4c0,4.5,3.3,6.7,9.8,6.7c6.6,0,9.9-2.3,9.9-6.8v-24.8c0-2.8-1.3-5-3.7-6.5
				c-2.1-1.2-4.7-1.8-7.7-1.8c-7.7,0-11.8,2.1-12.4,6.2h-7.3c1-8.8,7.4-13.2,19.1-13.3c5.4,0,9.8,1.1,13.3,3.3
				c4.2,2.8,6.3,6.9,6.3,12.5V881.1z M609.2,866.6c0-1.2-0.4-2.2-1.2-3.1c-0.8-0.9-1.8-1.3-2.9-1.3c-1.1,0-2.1,0.4-2.9,1.3
				c-0.8,0.9-1.2,1.9-1.2,3.1c0,1.2,0.4,2.2,1.2,3.1c0.8,0.9,1.8,1.3,2.9,1.3c1.1,0,2.1-0.4,2.9-1.3
				C608.8,868.8,609.2,867.8,609.2,866.6z"/>
			<path class="st6" d="M668.9,892.8h-7.4L639,865.3l4.5-5.6l18,21.8v-22.4c-0.2,0.1-1,0.1-2.3,0.1c-2.5,0-4.6-0.9-6.3-2.7
				c-1.7-1.8-2.6-4-2.6-6.8c0-2.8,0.9-5.1,2.7-7.1c1.8-1.9,3.9-2.9,6.3-2.9c2.8,0,5.2,1,7,2.9c1.9,2,2.8,4.5,2.8,7.6V892.8z
				 M663.3,849.6c0-1.2-0.4-2.2-1.2-3c-0.8-0.8-1.8-1.3-2.9-1.3c-1.1,0-2.1,0.4-2.9,1.3c-0.8,0.8-1.2,1.9-1.2,3c0,1.2,0.4,2.2,1.2,3
				c0.8,0.8,1.8,1.3,2.9,1.3c1.1,0,2.1-0.4,2.9-1.3C662.9,851.8,663.3,850.8,663.3,849.6z"/>
			<path class="st6" d="M716.2,892.8h-7.5v-34.4c0-3.5-1-6.4-3-8.4c-2-2.1-4.7-3.1-8-3.1c-4.8,0-8.5,2.2-11,6.5
				c3.8,0.8,6.5,2.7,8.1,5.8c-4.1,2.6-6.2,5.7-6.2,9.4v24.2h-7.5v-24.7c0-3.6,1.6-6.5,5-8.6c-2-1.5-4.5-2-7.4-1.6
				c0.2-5.4,2.1-9.8,5.8-13.3c3.4-3.2,7.7-4.8,12.9-4.8c5.8,0,10.4,1.7,13.7,5c3.3,3.3,5,7.9,5,13.6V892.8z"/>
			<path class="st6" d="M728.4,809.2c-2.1,14.4-9.3,21.6-21.8,21.6c-4.8,0-8.5-1.1-11.1-3.2c-2.6-2.1-3.9-4.8-3.9-8.1
				c0-2.5,0.8-4.6,2.4-6.4c1.6-1.7,3.6-2.6,5.9-2.6c2.5,0,4.5,0.9,6.1,2.7c1.6,1.8,2.4,3.9,2.4,6.3c0,2.3-0.6,4.1-1.8,5.2
				c8.4-0.3,13.3-5.5,14.6-15.5H728.4z M703.6,819.4c0-1.1-0.4-2.1-1.1-2.9c-0.7-0.8-1.6-1.2-2.7-1.2c-1,0-1.9,0.4-2.6,1.2
				c-0.7,0.8-1,1.7-1,2.9c0,1.1,0.3,2.1,1,2.8c0.7,0.7,1.6,1.1,2.6,1.1c1,0,1.9-0.4,2.7-1.1C703.3,821.5,703.6,820.6,703.6,819.4z"
				/>
			<path class="st6" d="M768.5,868.2c0,3.5-0.8,5.9-2.5,7.2c3.1,1.9,4.7,4.8,4.7,8.6c0,2.8-0.9,5.1-2.7,7c-1.8,1.9-3.9,2.8-6.4,2.8
				c-2.3,0-4.4-0.8-6-2.4c-1.7-1.6-2.7-3.6-3-6c-2.6,1.4-4.4,2.4-5.6,3.1c-1.9,1.3-3.5,2.7-4.6,4.3h-7.6v-33.4
				c-0.8,0.2-1.5,0.3-2.1,0.3c-2.6,0-4.8-1-6.5-2.9c-1.8-2-2.7-4.3-2.7-7.1c0-2.7,0.9-5,2.7-6.9c1.8-1.9,3.9-2.9,6.5-2.9
				c2.7,0,5,1,6.8,3c1.8,2,2.7,4.5,2.7,7.5v33c1.3-1,4.2-2.6,8.7-4.5c4-1.8,6.8-3.6,8.3-5.5c1.1-1.3,1.7-3.4,1.7-6.2v-26.3h7.5
				V868.2z M736.9,849.7c0-1.2-0.4-2.3-1.2-3.1c-0.8-0.9-1.8-1.3-2.9-1.3c-1.1,0-2.1,0.4-2.9,1.3c-0.8,0.9-1.2,1.9-1.2,3.1
				c0,1.2,0.4,2.3,1.2,3.1c0.8,0.9,1.8,1.3,2.9,1.3c1.1,0,2.1-0.4,2.9-1.3C736.4,852,736.9,851,736.9,849.7z M765.6,884
				c0-1.2-0.4-2.2-1.2-3.1c-0.8-0.9-1.8-1.3-2.9-1.3c-1.1,0-2.1,0.4-2.9,1.3c-0.8,0.9-1.2,1.9-1.2,3.1c0,1.2,0.4,2.2,1.2,3.1
				c0.8,0.9,1.8,1.3,2.9,1.3c1.1,0,2.1-0.4,2.9-1.3C765.2,886.2,765.6,885.2,765.6,884z"/>
		</g>
	</g>
	<g>
		<path class="st3" d="M451.7,54.9c191,17,332.1,185.6,315.1,376.6c-17,191-185.6,332.1-376.6,315.1C199.2,729.6,58.1,561,75.1,370
			C92.1,179,260.7,37.9,451.7,54.9"/>
		<g>
			<path class="st2" d="M568.6,544.1c-8.9-27.9-46.9-30.4-46.9-30.4c0-13.9,16.5-36.7,16.5-36.7c-10.1-11.4-51.9-6.3-51.9-6.3
				c-10.1-10.1-3.8-36.8-3.8-36.8c-31.7-8.9-50.7,6.3-50.7,6.3c-10.1-5.1-11.4-35.5-11.4-35.5c-24.1-5.1-51.9,24.1-51.9,24.1
				c-16.5-5.1-20.3-30.4-20.3-30.4c-34.2,12.7-36.7,43.1-36.7,43.1c-6.7,4-17.6-0.8-26.4-6.2l221.5-168
				c-153.3-177.4-319.3-19-319.3-19C55.4,376.3,170.7,522,170.7,522l45.9-34.8c-5,19.1-2.8,48.1-2.8,48.1
				c-6.3,7.6-24.1-10.1-24.1-10.1c-6.3,26.6,12.7,51.9,12.7,51.9l348.4,1.3C543.2,555.5,568.6,544.1,568.6,544.1 M228.8,477.9
				l25.2-19.1c-2.3,13.5-2.3,25.8-2.3,25.8C248.2,493.5,235.8,484.2,228.8,477.9z"/>
			<path class="st2" d="M686.9,512.4H583v72.2H162v9h500.5v-9h0.3C662.8,583.3,686.9,512.4,686.9,512.4"/>
			<path class="st2" d="M488.3,306.4c0,0,38.4,41.7,42,81.1l-16.2,9.6l52.2,13.2l22.2-43.5l-15.6,4.8c0,0-20.4-64.9-51.6-97.3
				L488.3,306.4"/>
		</g>
	</g>
</g>
</svg>
