<?xml version="1.0" encoding="utf-8"?>
<!-- Generator: Adobe Illustrator 22.0.0, SVG Export Plug-In . SVG Version: 6.00 Build 0)  -->
<svg version="1.1" id="Layer_1" xmlns="http://www.w3.org/2000/svg" xmlns:xlink="http://www.w3.org/1999/xlink" x="0px" y="0px"
	 viewBox="0 0 841.9 1190.6" style="enable-background:new 0 0 841.9 1190.6;" xml:space="preserve">
<style type="text/css">
	.st0{fill:none;}
	.st1{fill:#010101;}
	.st2{fill:#FFFFFF;}
	.st3{fill:#154989;}
	.st4{fill:#EB2627;}
	.st5{fill:#2A3B8F;}
	.st6{fill:#FFFFFF;stroke:#FFFFFF;stroke-miterlimit:10;}
	.st7{fill-rule:evenodd;clip-rule:evenodd;fill:#FFFFFF;}
	.st8{fill-rule:evenodd;clip-rule:evenodd;fill:#154989;}
	.st9{fill:#2F3690;}
</style>
<g>
	<g>
		<rect x="0" y="0" class="st0" width="841.9" height="1190.6"/>
		<rect x="28.3" y="28.3" class="st1" width="785.2" height="1133.9"/>
		<rect x="34" y="34" class="st2" width="773.9" height="1122.5"/>
		<rect x="52.5" y="792.6" class="st3" width="737" height="348.7"/>
		<g id="stecon_7_">
			<path id="red_7_" class="st4" d="M52.8,53.5c42.5,0,85,0,127.6,0c0,22.6,0,45.1,0,67.7c-42.5,0-85,0-127.5,0c0-0.2,0-0.5,0-0.7
				c0-22.1,0-44.2,0-66.3C52.9,54,52.8,53.8,52.8,53.5z M55.8,87.4c0.2,0.1,0.4,0.2,0.5,0.3c3.6,1.8,7.1,3.7,10.7,5.5
				c16.4,8.4,32.7,16.8,49.1,25.2c0.4,0.2,0.7,0.2,1.1,0c13.8-7.1,27.6-14.2,41.4-21.3c6.1-3.2,12.3-6.3,18.4-9.5
				c0.1-0.1,0.3-0.2,0.5-0.3c-0.2-0.1-0.3-0.2-0.5-0.3c-3.8-1.9-7.6-3.9-11.4-5.8c-16.2-8.3-32.4-16.7-48.5-25
				c-0.3-0.2-0.5-0.2-0.9,0c-7,3.6-14.1,7.3-21.1,10.9c-12.6,6.5-25.2,12.9-37.7,19.4C56.9,86.8,56.4,87.1,55.8,87.4z"/>
			<g id="white_7_">
				<path class="st2" d="M55.8,87.4c0.6-0.3,1.1-0.6,1.6-0.8c12.6-6.5,25.2-12.9,37.7-19.4c7-3.6,14.1-7.2,21.1-10.9
					c0.3-0.2,0.6-0.1,0.9,0c16.2,8.3,32.4,16.7,48.5,25c3.8,1.9,7.6,3.9,11.4,5.8c0.1,0.1,0.3,0.1,0.5,0.3c-0.2,0.1-0.3,0.2-0.5,0.3
					c-6.1,3.2-12.3,6.3-18.4,9.5c-13.8,7.1-27.6,14.2-41.4,21.3c-0.4,0.2-0.7,0.2-1.1,0C99.7,110,83.4,101.6,67,93.1
					c-3.6-1.8-7.1-3.7-10.7-5.5C56.2,87.6,56,87.5,55.8,87.4z M59.7,87.4c0.2,0.1,0.3,0.2,0.4,0.2c1,0.5,1.9,1,2.9,1.5
					c17.7,9.1,35.5,18.2,53.2,27.3c0.3,0.1,0.5,0.2,0.8,0c12.9-6.6,25.7-13.2,38.6-19.8c5.8-3,11.6-6,17.5-9
					c0.1-0.1,0.3-0.2,0.5-0.3c-0.2-0.1-0.4-0.2-0.6-0.3c-15.9-8.2-31.9-16.4-47.8-24.5c-2.7-1.4-5.5-2.8-8.2-4.2
					c-0.2-0.1-0.4-0.1-0.7,0c-0.3,0.2-0.7,0.4-1.1,0.6C97,68.3,78.6,77.6,60.3,87C60.1,87.1,60,87.2,59.7,87.4z"/>
				<path class="st2" d="M147.4,79.5c1.4,0,2.7,0,4.1,0c0,5.2,0,10.3,0,15.4c-1.4,0-2.8,0-4.2,0c-0.9-2.6-1.8-5.3-2.7-7.9
					c0,0-0.1,0-0.1,0c0,2.6,0,5.2,0,7.9c-1.4,0-2.7,0-4,0c0,0,0,0,0,0c0,0,0,0,0,0c0-0.1,0-0.2,0-0.3c0-4.9,0-9.9,0-14.8
					c0,0,0-0.1,0-0.2c0.1,0,0.3,0,0.4,0c1.2,0,2.3,0,3.5,0c0.4,0,0.4,0,0.5,0.4c0.8,2.5,1.6,5,2.4,7.5c0,0.1,0.1,0.2,0.2,0.4
					C147.4,85,147.4,82.3,147.4,79.5z"/>
				<path class="st2" d="M138.8,87.3c0,1.5,0,3,0,4.5c0,0.8-0.3,1.4-0.8,1.9c-0.7,0.7-1.6,1.2-2.6,1.3c-1.5,0.3-3.1,0.3-4.6-0.1
					c-0.9-0.2-1.6-0.6-2.3-1.3c-0.5-0.5-0.8-1.1-0.8-1.9c0-3,0-6.1,0-9.1c0-0.7,0.2-1.3,0.7-1.8c0.6-0.7,1.4-1.2,2.3-1.4
					c1.7-0.4,3.5-0.4,5.2,0.1c0.7,0.2,1.4,0.6,2,1.2c0.6,0.5,0.9,1.2,0.8,2C138.8,84.3,138.8,85.8,138.8,87.3z M134.2,87.3
					c0-1.5,0-2.9,0-4.4c0-0.7-0.1-0.9-0.8-0.9c-0.1,0-0.2,0-0.2,0c-0.5,0.1-0.6,0.2-0.6,0.7c0,3,0,6,0,9c0,0.5,0.1,0.7,0.6,0.7
					c0.2,0,0.3,0,0.5,0c0.5-0.1,0.6-0.2,0.6-0.7C134.2,90.3,134.2,88.8,134.2,87.3z"/>
				<path class="st2" d="M126.7,88.9c0,0.2,0,0.3,0,0.5c0,0.8,0,1.6,0,2.4c0,0.8-0.3,1.5-0.9,2c-0.7,0.7-1.5,1.1-2.5,1.3
					c-1.5,0.3-3,0.3-4.5-0.1c-0.8-0.2-1.5-0.6-2.2-1.2c-0.6-0.6-0.9-1.2-0.9-2.1c0-3,0-5.9,0-8.9c0-0.9,0.3-1.6,0.9-2.1
					c0.7-0.7,1.6-1.1,2.5-1.2c1.4-0.2,2.9-0.2,4.3,0.1c0.9,0.2,1.6,0.6,2.3,1.2c0.6,0.6,0.9,1.2,0.9,2.1c0,0.8,0,1.7,0,2.5
					c0,0.2,0,0.3,0,0.5c-1.6,0-3.1,0-4.6,0c0-0.2,0-0.3,0-0.5c0-0.9,0-1.7,0-2.6c0-0.5-0.1-0.6-0.6-0.7c-0.1,0-0.2,0-0.3,0
					c-0.7,0.1-0.7,0.3-0.7,0.8c0,2.9,0,5.9,0,8.8c0,0.1,0,0.2,0,0.3c0,0.2,0.1,0.4,0.3,0.4c0.1,0,0.3,0.1,0.4,0.1
					c0.6,0.1,0.8-0.2,0.8-0.8c0-0.8,0-1.5,0-2.3c0-0.2,0-0.3,0-0.5C122.4,88.8,126,88.8,126.7,88.9z"/>
				<path class="st2" d="M105.5,94.9c0-5.1,0-10.2,0-15.3c0.4-0.1,8.7-0.1,9.1,0c0,0.8,0,1.6,0,2.5c-0.1,0-0.3,0-0.4,0
					c-1.1,0-2.2,0-3.3,0c-0.1,0-0.3,0-0.5,0c0,1.4,0,2.7,0,4.1c1,0,2.1,0,3.1,0c0,0.8,0,1.5,0,2.2c-0.4,0.1-0.7,0.1-1,0.1
					c-0.3,0-0.7,0-1,0c-0.3,0-0.7,0-1,0c-0.1,0.3-0.1,2.8,0,3.7c0.1,0,0.3,0,0.5,0c1.1,0,2.2,0,3.3,0c0.2,0,0.3,0,0.5,0
					c0,0.9,0,1.8,0,2.6C114.3,95,106,95,105.5,94.9z"/>
				<path class="st2" d="M101.1,94.9c-1.6,0-3.1,0-4.7,0c0-4.3,0-8.5,0-12.8c-1,0-2,0-3,0c-0.1-0.4-0.1-2.1,0-2.6
					c0.3-0.1,10.4-0.1,10.8,0c0.1,0.3,0.1,2.1,0,2.6c-1,0-2,0-3,0C101.1,86.4,101.1,90.6,101.1,94.9z"/>
				<path class="st2" d="M92.1,84.9c-1.6,0-3.1,0-4.6,0c0-0.2,0-0.3,0-0.5c0-0.6,0-1.2,0-1.8c0-0.4-0.1-0.6-0.5-0.6
					c-0.1,0-0.2,0-0.4,0c-0.3,0-0.5,0.2-0.5,0.5c0,0.6,0,1.1,0,1.7c0,0.4,0.2,0.6,0.5,0.8c0.4,0.2,0.7,0.4,1.1,0.7
					c1,0.6,2,1.1,2.9,1.7c0.1,0.1,0.3,0.2,0.4,0.3c0.7,0.5,1.1,1.2,1.1,2.1c0,0.7,0,1.3,0,2c0,0.7-0.2,1.3-0.7,1.7
					c-0.7,0.7-1.5,1.2-2.4,1.4c-1.5,0.4-3.1,0.4-4.7,0c-0.8-0.2-1.6-0.6-2.2-1.2c-0.6-0.5-0.9-1.2-0.9-2.1c0-0.8,0-1.5,0-2.3
					c0.3-0.1,3.9-0.1,4.5,0c0,0.1,0,0.3,0,0.4c0,0.7,0,1.3,0,2c0,0.4,0.1,0.6,0.5,0.6c0.2,0,0.5,0,0.7-0.1c0.2,0,0.3-0.2,0.3-0.4
					c0-0.6,0-1.2,0-1.8c0-0.3-0.2-0.6-0.4-0.7c-0.4-0.3-0.8-0.5-1.2-0.8c-1-0.6-2-1.2-2.9-1.8c-0.3-0.2-0.6-0.4-0.9-0.7
					c-0.4-0.4-0.6-0.9-0.6-1.5c0-0.7,0-1.3,0-2c0-0.8,0.3-1.4,0.8-1.9c0.7-0.7,1.6-1.2,2.6-1.4c1.4-0.3,2.8-0.3,4.2,0.1
					c0.9,0.2,1.7,0.7,2.3,1.3c0.5,0.5,0.8,1.1,0.8,1.9C92.1,83.5,92.1,84.2,92.1,84.9z"/>
			</g>
			<g id="blue_7_">
				<path class="st5" d="M59.7,87.4c0.3-0.1,0.5-0.2,0.7-0.3c18.3-9.4,36.6-18.8,54.9-28.1c0.4-0.2,0.7-0.4,1.1-0.6
					c0.2-0.1,0.4-0.1,0.7,0c2.7,1.4,5.4,2.8,8.2,4.2c15.9,8.2,31.9,16.4,47.8,24.5c0.2,0.1,0.3,0.2,0.6,0.3
					c-0.2,0.1-0.3,0.2-0.5,0.3c-5.8,3-11.6,6-17.5,9c-12.9,6.6-25.7,13.2-38.6,19.8c-0.3,0.1-0.5,0.1-0.8,0
					C98.5,107.3,80.8,98.2,63,89.1c-1-0.5-1.9-1-2.9-1.5C60,87.5,59.9,87.5,59.7,87.4z M147.4,79.5c0,2.8,0,5.5,0,8.3
					c-0.1-0.1-0.1-0.2-0.2-0.4c-0.8-2.5-1.6-5-2.4-7.5c-0.1-0.4-0.1-0.4-0.5-0.4c-1.2,0-2.3,0-3.5,0c-0.1,0-0.3,0-0.4,0
					c0,0.1,0,0.1,0,0.2c0,4.9,0,9.9,0,14.8c0,0.1,0,0.2,0,0.3c0,0,0,0,0,0c0,0,0,0,0,0c1.3,0,2.7,0,4,0c0-2.7,0-5.3,0-7.9
					c0,0,0.1,0,0.1,0c0.9,2.6,1.8,5.3,2.7,7.9c1.4,0,2.8,0,4.2,0c0-5.1,0-10.2,0-15.4C150.2,79.5,148.8,79.5,147.4,79.5z
					 M138.8,87.3c0-1.5,0-3,0-4.5c0-0.8-0.3-1.5-0.8-2c-0.6-0.6-1.2-1-2-1.2c-1.7-0.5-3.5-0.5-5.2-0.1c-0.9,0.2-1.7,0.7-2.3,1.4
					c-0.4,0.5-0.7,1.1-0.7,1.8c0,3,0,6.1,0,9.1c0,0.8,0.3,1.4,0.8,1.9c0.6,0.7,1.4,1.1,2.3,1.3c1.5,0.3,3.1,0.3,4.6,0.1
					c1-0.2,1.8-0.6,2.6-1.3c0.5-0.5,0.8-1.2,0.8-1.9C138.8,90.3,138.8,88.8,138.8,87.3z M126.7,88.9c-0.6-0.1-4.3-0.1-4.7,0
					c0,0.1,0,0.3,0,0.5c0,0.8,0,1.5,0,2.3c0,0.7-0.2,0.9-0.8,0.8c-0.1,0-0.3,0-0.4-0.1c-0.2-0.1-0.3-0.2-0.3-0.4c0-0.1,0-0.2,0-0.3
					c0-2.9,0-5.9,0-8.8c0-0.5,0-0.7,0.7-0.8c0.1,0,0.2,0,0.3,0c0.5,0.1,0.6,0.2,0.6,0.7c0,0.9,0,1.7,0,2.6c0,0.2,0,0.3,0,0.5
					c1.6,0,3.1,0,4.6,0c0-0.2,0-0.4,0-0.5c0-0.8,0-1.7,0-2.5c0-0.9-0.3-1.5-0.9-2.1c-0.7-0.6-1.4-1-2.3-1.2
					c-1.4-0.3-2.9-0.3-4.3-0.1c-0.9,0.2-1.8,0.6-2.5,1.2c-0.6,0.6-0.9,1.3-0.9,2.1c0,3,0,5.9,0,8.9c0,0.9,0.3,1.6,0.9,2.1
					c0.6,0.6,1.4,1,2.2,1.2c1.5,0.3,3,0.3,4.5,0.1c0.9-0.2,1.8-0.6,2.5-1.3c0.6-0.5,0.9-1.2,0.9-2c0-0.8,0-1.6,0-2.4
					C126.7,89.2,126.7,89.1,126.7,88.9z M92.1,84.9c0-0.7,0-1.4,0-2.1c0-0.8-0.3-1.4-0.8-1.9c-0.7-0.7-1.4-1.1-2.3-1.3
					c-1.4-0.3-2.8-0.3-4.2-0.1c-1,0.2-1.9,0.6-2.6,1.4c-0.5,0.5-0.8,1.1-0.8,1.9c0,0.7,0,1.3,0,2c0,0.6,0.2,1.1,0.6,1.5
					c0.3,0.2,0.6,0.5,0.9,0.7c1,0.6,2,1.2,2.9,1.8c0.4,0.2,0.8,0.5,1.2,0.8c0.2,0.2,0.4,0.4,0.4,0.7c0,0.6,0,1.2,0,1.8
					c0,0.2-0.1,0.4-0.3,0.4c-0.2,0-0.5,0.1-0.7,0.1c-0.4,0-0.5-0.2-0.5-0.6c0-0.7,0-1.3,0-2c0-0.1,0-0.3,0-0.4
					c-0.6-0.1-4.2-0.1-4.5,0c0,0.7,0,1.5,0,2.3c0,0.9,0.3,1.5,0.9,2.1c0.6,0.6,1.4,1,2.2,1.2c1.6,0.4,3.1,0.3,4.7,0
					c0.9-0.2,1.7-0.7,2.4-1.4c0.4-0.5,0.7-1.1,0.7-1.7c0-0.7,0-1.3,0-2c0-0.9-0.4-1.6-1.1-2.1c-0.1-0.1-0.3-0.2-0.4-0.3
					c-1-0.6-2-1.1-2.9-1.7c-0.4-0.2-0.7-0.4-1.1-0.7c-0.3-0.2-0.5-0.4-0.5-0.8c0-0.6,0-1.1,0-1.7c0-0.3,0.2-0.5,0.5-0.5
					c0.1,0,0.2,0,0.4,0c0.4,0,0.5,0.2,0.5,0.6c0,0.6,0,1.2,0,1.8c0,0.1,0,0.3,0,0.5C89.1,84.9,90.6,84.9,92.1,84.9z M105.5,94.9
					c0.5,0.1,8.8,0.1,9.1,0c0-0.9,0-1.7,0-2.6c-0.2,0-0.3,0-0.5,0c-1.1,0-2.2,0-3.3,0c-0.2,0-0.3,0-0.5,0c-0.1-0.8,0-3.3,0-3.7
					c0.3,0,0.7,0,1,0c0.3,0,0.7,0,1,0c0.3,0,0.7,0.1,1-0.1c0-0.7,0-1.5,0-2.2c-1.1,0-2.1,0-3.1,0c0-1.4,0-2.7,0-4.1
					c0.2,0,0.3,0,0.5,0c1.1,0,2.2,0,3.3,0c0.1,0,0.3,0,0.4,0c0-0.9,0-1.7,0-2.5c-0.4-0.1-8.7-0.1-9.1,0
					C105.5,84.7,105.5,89.8,105.5,94.9z M101.1,94.9c0-4.3,0-8.5,0-12.8c1,0,2,0,3,0c0.1-0.5,0.1-2.2,0-2.6
					c-0.4-0.1-10.5-0.1-10.8,0c-0.1,0.4-0.1,2.2,0,2.6c1,0,2,0,3,0c0,4.3,0,8.5,0,12.8C97.9,94.9,99.5,94.9,101.1,94.9z"/>
				<path class="st5" d="M134.2,87.3c0,1.5,0,3,0,4.5c0,0.5-0.1,0.6-0.6,0.7c-0.2,0-0.3,0-0.5,0c-0.5-0.1-0.6-0.2-0.6-0.7
					c0-3,0-6,0-9c0-0.5,0.1-0.6,0.6-0.7c0.1,0,0.2,0,0.2,0c0.7,0,0.8,0.1,0.8,0.9C134.2,84.4,134.2,85.9,134.2,87.3z"/>
			</g>
		</g>
	</g>
	<g>
		<path class="st6" d="M149.7,1051.3l-8.2-53.7h7.1l5.2,36.9l6.3-36.9h8.3l6.1,37.5l5.3-37.5h7l-8.4,53.7H171l-6.9-40.1l-6.9,40.1
			H149.7z"/>
		<path class="st6" d="M190.3,1051.3v-53.7h25.6v9.1h-18.6v11.9h17.3v9h-17.3v14.6h19.3v9H190.3z"/>
		<path class="st6" d="M253.7,1051.3h-7.6l-3-12.2h-13.8l-2.9,12.2H219l13.5-53.7h7.4L253.7,1051.3z M240.8,1030l-4.8-19.9
			l-4.7,19.9H240.8z"/>
		<path class="st6" d="M257.4,1051.3v-53.7h14.7c3.7,0,6.4,0.5,8,1.4c1.7,1,3,2.7,4,5.1c1,2.5,1.5,5.3,1.5,8.5c0,4-0.8,7.4-2.3,10
			c-1.5,2.6-3.8,4.3-6.8,5c1.5,1.4,2.8,2.9,3.7,4.5c1,1.6,2.3,4.5,4,8.7l4.2,10.5h-8.3l-5-11.7c-1.8-4.2-3-6.8-3.7-7.9
			c-0.7-1.1-1.4-1.8-2.1-2.2c-0.7-0.4-1.9-0.6-3.5-0.6h-1.4v22.4H257.4z M264.4,1020.3h5.2c3.3,0,5.4-0.2,6.3-0.7
			c0.8-0.4,1.5-1.2,2-2.3c0.5-1.1,0.7-2.4,0.7-4c0-1.8-0.3-3.3-0.9-4.4c-0.6-1.1-1.5-1.8-2.6-2.1c-0.6-0.1-2.3-0.2-5.1-0.2h-5.4
			V1020.3z"/>
		<path class="st6" d="M317.3,1033.8l6.8-1c0.4,3.5,1.2,6.1,2.5,7.8s2.9,2.5,5.1,2.5c2.2,0,3.9-0.7,5.1-2.2c1.1-1.5,1.7-3.2,1.7-5.2
			c0-1.3-0.2-2.3-0.7-3.2c-0.5-0.9-1.3-1.7-2.5-2.3c-0.8-0.4-2.7-1.2-5.6-2.3c-3.7-1.4-6.4-3.2-7.9-5.3c-2.1-3-3.2-6.6-3.2-10.8
			c0-2.7,0.5-5.3,1.5-7.7c1-2.4,2.4-4.2,4.3-5.4c1.9-1.2,4.1-1.9,6.8-1.9c4.3,0,7.6,1.5,9.8,4.4s3.3,6.9,3.5,11.8l-7,0.5
			c-0.3-2.8-0.9-4.7-1.9-6c-1-1.2-2.5-1.8-4.4-1.8c-2,0-3.6,0.6-4.8,1.9c-0.7,0.8-1.1,1.9-1.1,3.3c0,1.3,0.3,2.4,1,3.3
			c0.9,1.1,3,2.3,6.4,3.6c3.4,1.2,5.9,2.5,7.5,3.9s2.9,3.1,3.8,5.5c0.9,2.3,1.4,5.2,1.4,8.6c0,3.1-0.6,6-1.6,8.6
			c-1.1,2.7-2.7,4.7-4.7,6c-2,1.3-4.5,2-7.5,2c-4.4,0-7.7-1.6-10.1-4.7C319.1,1044.4,317.7,1039.8,317.3,1033.8z"/>
		<path class="st6" d="M382.4,1051.3h-7.6l-3-12.2H358l-2.9,12.2h-7.4l13.5-53.7h7.4L382.4,1051.3z M369.5,1030l-4.8-19.9l-4.7,19.9
			H369.5z"/>
		<path class="st6" d="M386.1,1051.3v-53.7h23.7v9.1h-16.7v12.7h14.4v9.1h-14.4v22.8H386.1z"/>
		<path class="st6" d="M415.6,1051.3v-53.7h25.6v9.1h-18.6v11.9h17.3v9h-17.3v14.6h19.3v9H415.6z"/>
		<path class="st6" d="M455.5,1051.3v-44.6h-10.3v-9.1h27.5v9.1h-10.2v44.6H455.5z"/>
		<path class="st6" d="M486.3,1051.3v-22.6l-12.7-31.1h8.2l8.1,21.2l8-21.2h8l-12.7,31.2v22.5H486.3z"/>
		<path class="st6" d="M533.6,1033.8l6.8-1c0.4,3.5,1.2,6.1,2.5,7.8s2.9,2.5,5.1,2.5c2.2,0,3.9-0.7,5.1-2.2c1.1-1.5,1.7-3.2,1.7-5.2
			c0-1.3-0.2-2.3-0.7-3.2c-0.5-0.9-1.3-1.7-2.5-2.3c-0.8-0.4-2.7-1.2-5.6-2.3c-3.7-1.4-6.4-3.2-7.9-5.3c-2.1-3-3.2-6.6-3.2-10.8
			c0-2.7,0.5-5.3,1.5-7.7c1-2.4,2.4-4.2,4.3-5.4c1.9-1.2,4.1-1.9,6.8-1.9c4.3,0,7.6,1.5,9.8,4.4s3.3,6.9,3.5,11.8l-7,0.5
			c-0.3-2.8-0.9-4.7-1.9-6c-1-1.2-2.5-1.8-4.4-1.8c-2,0-3.6,0.6-4.8,1.9c-0.7,0.8-1.1,1.9-1.1,3.3c0,1.3,0.3,2.4,1,3.3
			c0.9,1.1,3,2.3,6.4,3.6c3.4,1.2,5.9,2.5,7.5,3.9s2.9,3.1,3.8,5.5c0.9,2.3,1.4,5.2,1.4,8.6c0,3.1-0.6,6-1.6,8.6
			c-1.1,2.7-2.7,4.7-4.7,6c-2,1.3-4.5,2-7.5,2c-4.4,0-7.7-1.6-10.1-4.7C535.5,1044.4,534.1,1039.8,533.6,1033.8z"/>
		<path class="st6" d="M567.6,1051.3v-53.7h7v21.1h13.7v-21.1h7v53.7h-7v-23.5h-13.7v23.5H567.6z"/>
		<path class="st6" d="M601,1024.8c0-5.5,0.5-10.1,1.6-13.8c0.8-2.7,1.9-5.2,3.2-7.4c1.4-2.2,2.8-3.8,4.5-4.8
			c2.2-1.4,4.6-2.1,7.4-2.1c5.1,0,9.2,2.5,12.2,7.4c3.1,4.9,4.6,11.7,4.6,20.5c0,8.7-1.5,15.4-4.5,20.3c-3,4.9-7.1,7.3-12.2,7.3
			c-5.1,0-9.2-2.4-12.3-7.3C602.5,1040,601,1033.3,601,1024.8z M608.2,1024.4c0,6.1,0.9,10.7,2.7,13.8c1.8,3.1,4.1,4.7,6.9,4.7
			s5.1-1.6,6.8-4.7c1.8-3.1,2.7-7.8,2.7-14c0-6.2-0.9-10.7-2.6-13.8c-1.7-3-4-4.5-6.9-4.5s-5.2,1.5-7,4.6
			C609.1,1013.6,608.2,1018.2,608.2,1024.4z"/>
		<path class="st6" d="M640,1051.3v-53.7h25.6v9.1h-18.6v11.9h17.3v9h-17.3v14.6h19.3v9H640z"/>
		<path class="st6" d="M670.4,1033.8l6.8-1c0.4,3.5,1.2,6.1,2.5,7.8s2.9,2.5,5.1,2.5c2.2,0,3.9-0.7,5.1-2.2c1.1-1.5,1.7-3.2,1.7-5.2
			c0-1.3-0.2-2.3-0.7-3.2c-0.5-0.9-1.3-1.7-2.5-2.3c-0.8-0.4-2.7-1.2-5.6-2.3c-3.7-1.4-6.4-3.2-7.9-5.3c-2.1-3-3.2-6.6-3.2-10.8
			c0-2.7,0.5-5.3,1.5-7.7c1-2.4,2.4-4.2,4.3-5.4c1.9-1.2,4.1-1.9,6.8-1.9c4.3,0,7.6,1.5,9.8,4.4s3.3,6.9,3.5,11.8l-7,0.5
			c-0.3-2.8-0.9-4.7-1.9-6c-1-1.2-2.5-1.8-4.4-1.8c-2,0-3.6,0.6-4.8,1.9c-0.7,0.8-1.1,1.9-1.1,3.3c0,1.3,0.3,2.4,1,3.3
			c0.9,1.1,3,2.3,6.4,3.6c3.4,1.2,5.9,2.5,7.5,3.9s2.9,3.1,3.8,5.5c0.9,2.3,1.4,5.2,1.4,8.6c0,3.1-0.6,6-1.6,8.6
			c-1.1,2.7-2.7,4.7-4.7,6c-2,1.3-4.5,2-7.5,2c-4.4,0-7.7-1.6-10.1-4.7C672.2,1044.4,670.8,1039.8,670.4,1033.8z"/>
	</g>
	<g>
		<path class="st6" d="M173.6,934.1h-7.5v-22.5c0-2.6-1.4-4.6-4.1-6c-2.1-1-4.4-1.6-7-1.6c-2.5,0-4.6,0.7-6.4,2
			c-2.2,1.6-3.3,3.6-3.3,6.2v3.3c1.1-0.2,1.9-0.3,2.2-0.3c2.6,0,4.8,1,6.6,2.9c1.9,2,2.8,4.3,2.8,7c0,2.8-1,5.1-2.9,7
			c-1.9,1.9-4.2,2.9-6.6,2.9c-2.7,0-4.9-0.9-6.8-2.8c-1.9-1.9-2.8-4.2-2.8-7.1v-12c0-5.1,1.8-9.1,5.3-12c3.1-2.5,7-3.8,11.7-3.8
			c5,0,8.7,1.5,11.2,4.4v-5.8c0-2.7-1.5-4.7-4.4-6.2c-2.3-1.1-4.8-1.7-7.6-1.7c-3.1,0-5.8,0.8-8.1,2.3c-2.5,1.7-4,4-4.5,6.9h-7.3
			c0.5-5.3,2.6-9.4,6.4-12.2c3.5-2.7,8.1-4,13.7-4c3.6,0,6.9,0.7,9.8,2.1c1.7-1.6,2.5-3.7,2.5-6.2h8.5c-1,4.4-2.7,7.8-5.2,10.3
			c2.4,2.8,3.6,6,3.6,9.6V934.1z M151.6,925.1c0-1.2-0.4-2.3-1.2-3.1c-0.8-0.9-1.8-1.3-2.9-1.3c-1.1,0-2.1,0.4-2.9,1.3
			c-0.8,0.9-1.2,1.9-1.2,3.1c0,1.2,0.4,2.3,1.2,3.1c0.8,0.9,1.8,1.3,2.9,1.3c1.1,0,2.1-0.4,2.9-1.3
			C151.2,927.4,151.6,926.4,151.6,925.1z"/>
		<path class="st6" d="M219.4,924.6c0,3-0.9,5.5-2.8,7.5c-1.9,1.9-4.2,2.9-6.9,2.9c-2.6,0-4.8-1-6.5-2.9c-1.8-1.9-2.7-4.2-2.7-6.9
			c0-2.8,0.9-5.1,2.7-7.1c1.8-1.9,3.9-2.9,6.5-2.9c0.9,0,1.6,0,2.2,0.1v-18.9c0-5.5-3.7-8.2-11.1-8.2c-3.1,0-5.7,1-7.8,3
			c-2.1,2-3.2,4.7-3.2,8h-7.3c0.2-5.7,2-10.2,5.3-13.3c3.3-3.2,7.6-4.7,13-4.7c5.3,0,9.6,1.1,12.8,3.4c3.9,2.7,5.8,6.8,5.8,12.4
			V924.6z M213.9,925.1c0-1.2-0.4-2.3-1.2-3.1c-0.8-0.9-1.8-1.3-2.9-1.3c-1.1,0-2.1,0.4-2.9,1.3c-0.8,0.9-1.2,1.9-1.2,3.1
			c0,1.2,0.4,2.3,1.2,3.1c0.8,0.9,1.8,1.3,2.9,1.3c1.1,0,2.1-0.4,2.9-1.3C213.5,927.4,213.9,926.4,213.9,925.1z"/>
		<path class="st6" d="M269.8,934.1h-7.5c-4.7-4.5-9.4-7.7-14.1-9.5v0.7c0,2.8-1,5.1-3,7c-2,1.9-4.2,2.9-6.7,2.9c-2.7,0-5-1-6.9-3.1
			s-2.9-4.5-2.9-7.4c0-2.9,1-5.3,2.9-7.3c1.9-2,4.2-3.1,6.9-3.1h0.8v-13.5c-0.8,0.2-1.5,0.3-2.1,0.3c-2.6,0-4.8-1-6.5-2.9
			c-1.8-2-2.7-4.3-2.7-7.1c0-2.7,0.9-5,2.7-6.9c1.8-1.9,3.9-2.9,6.5-2.9c2.7,0,5,1,6.8,3c1.8,2,2.7,4.5,2.7,7.5v24.7
			c6.4,2.3,11.5,5.4,15.5,9.2v-43.4h7.5V934.1z M241.4,891.1c0-1.2-0.4-2.3-1.2-3.1c-0.8-0.9-1.8-1.3-2.9-1.3
			c-1.1,0-2.1,0.4-2.9,1.3c-0.8,0.9-1.2,1.9-1.2,3.1c0,1.2,0.4,2.3,1.2,3.1c0.8,0.9,1.8,1.3,2.9,1.3c1.1,0,2.1-0.4,2.9-1.3
			C241,893.3,241.4,892.3,241.4,891.1z M242.6,924.6c0-1.2-0.4-2.3-1.2-3.1c-0.8-0.9-1.8-1.3-2.9-1.3c-1.1,0-2.1,0.4-2.9,1.3
			c-0.8,0.9-1.2,1.9-1.2,3.1c0,1.2,0.4,2.3,1.2,3.1c0.8,0.9,1.8,1.3,2.9,1.3c1.1,0,2.1-0.4,2.9-1.3
			C242.2,926.9,242.6,925.8,242.6,924.6z"/>
		<path class="st6" d="M308.7,925.4c0,2.8-0.9,5.1-2.7,7s-4,2.8-6.6,2.8c-2.6,0-4.8-1-6.6-2.9c-1.8-1.9-2.7-4.2-2.7-7
			c0-2.8,0.9-5.1,2.7-7c1.8-1.9,4-2.9,6.6-2.9c1,0,1.6,0,1.8,0.1v-11.2c0-1.4-2.7-2.8-8-4.1c-5.4-1.3-10.2-2.4-14.6-3.2
			c0.2-4.8,1.3-8.6,3.5-11.5c2.2-2.9,5.3-4.4,9.4-4.4c1.7,0,4,0.4,6.9,1.2c2.9,0.8,5.1,1.2,6.3,1.2c1.4,0,2.1-1,2.3-2.9l5.9,1.7
			c-1.5,5.3-4.1,7.9-8,7.9c-1.5,0-3.5-0.4-6.2-1.1c-2.7-0.7-4.7-1.1-6.1-1.1c-3.5,0-5.6,1.4-6,4.3c6.2,1.4,11.4,2.9,15.6,4.4
			c4.2,1.6,6.3,4.2,6.3,8.1V925.4z M303.5,925.3c0-1.2-0.4-2.3-1.2-3.1c-0.8-0.9-1.8-1.3-2.9-1.3s-2.1,0.4-2.9,1.3
			c-0.8,0.9-1.2,1.9-1.2,3.1c0,1.2,0.4,2.3,1.2,3.1c0.8,0.9,1.8,1.3,2.9,1.3s2.1-0.4,2.9-1.3C303.1,927.5,303.5,926.5,303.5,925.3z"
			/>
		<path class="st6" d="M357.2,922.4c0,4.5-1.9,7.8-5.7,10c-3.1,1.8-7,2.7-11.8,2.7c-4.8,0-8.7-0.9-11.7-2.7c-3.6-2.2-5.4-5.5-5.4-10
			v-13.2c0-3.1,0.8-5.8,2.4-7.9c1.6-2.1,3.9-3.2,6.9-3.2c2.6,0,4.8,0.9,6.5,2.8c1.8,1.9,2.7,4.2,2.7,7c0,2.7-0.9,5-2.7,6.9
			c-1.8,1.9-3.9,2.9-6.5,2.9c-0.7,0-1.3-0.1-1.8-0.3v4c0,4.5,3.3,6.7,9.8,6.7c6.6,0,9.9-2.3,9.9-6.8v-24.8c0-2.8-1.3-5-3.7-6.5
			c-2.1-1.2-4.7-1.8-7.7-1.8c-7.7,0-11.8,2.1-12.4,6.2h-7.3c1-8.8,7.4-13.2,19.1-13.3c5.4,0,9.8,1.1,13.3,3.3
			c4.2,2.8,6.3,6.9,6.3,12.5V922.4z M335.9,907.9c0-1.2-0.4-2.2-1.2-3.1c-0.8-0.9-1.8-1.3-2.9-1.3c-1.1,0-2.1,0.4-2.9,1.3
			c-0.8,0.9-1.2,1.9-1.2,3.1c0,1.2,0.4,2.2,1.2,3.1c0.8,0.9,1.8,1.3,2.9,1.3c1.1,0,2.1-0.4,2.9-1.3
			C335.5,910.1,335.9,909.1,335.9,907.9z"/>
		<path class="st6" d="M395.6,934.1h-7.4l-22.6-27.4l4.5-5.6l18,21.8v-22.4c-0.2,0.1-1,0.1-2.3,0.1c-2.5,0-4.6-0.9-6.3-2.7
			c-1.7-1.8-2.6-4-2.6-6.8c0-2.8,0.9-5.1,2.7-7.1c1.8-1.9,3.9-2.9,6.3-2.9c2.8,0,5.2,1,7,2.9c1.9,2,2.8,4.5,2.8,7.6V934.1z
			 M389.9,891c0-1.2-0.4-2.2-1.2-3c-0.8-0.8-1.8-1.3-2.9-1.3c-1.1,0-2.1,0.4-2.9,1.3c-0.8,0.8-1.2,1.9-1.2,3c0,1.2,0.4,2.2,1.2,3
			c0.8,0.8,1.8,1.3,2.9,1.3c1.1,0,2.1-0.4,2.9-1.3C389.5,893.1,389.9,892.1,389.9,891z"/>
		<path class="st6" d="M426.4,925.3c0,2.8-0.9,5.1-2.7,7c-1.8,1.9-4,2.9-6.5,2.9c-2.7,0-5-1-6.9-3c-1.9-2-2.8-4.5-2.8-7.5v-42.4h7.5
			v33.4c0.4-0.2,1.1-0.3,2.2-0.3c2.5,0,4.7,1,6.5,2.9C425.5,920.2,426.4,922.5,426.4,925.3z M421.4,925.3c0-1.2-0.4-2.3-1.2-3.1
			c-0.8-0.9-1.8-1.3-2.9-1.3c-1.1,0-2.1,0.4-2.9,1.3c-0.8,0.9-1.2,1.9-1.2,3.1c0,1.2,0.4,2.3,1.2,3.1c0.8,0.9,1.8,1.3,2.9,1.3
			c1.1,0,2.1-0.4,2.9-1.3C420.9,927.5,421.4,926.5,421.4,925.3z"/>
		<path class="st6" d="M473.7,934.1h-7.5v-42c0-2.7-0.6-4-1.8-4c-1,0-1.8,0.6-2.2,1.9l-14.4,44.1h-8.5v-33.4
			c-0.8,0.2-1.5,0.3-2.1,0.3c-2.6,0-4.8-1-6.5-2.9c-1.8-2-2.7-4.3-2.7-7.1c0-2.7,0.9-5,2.7-6.9c1.8-1.9,3.9-2.9,6.5-2.9
			c2.7,0,5,1,6.8,3c1.8,2,2.7,4.5,2.7,7.5v19.4c0,2.9-0.5,7.5-1.4,13.8c0.9-3.8,2-8.1,3.4-12.7l6.8-23.1c1.5-5.3,4.6-7.9,9.1-7.8
			c6,0.1,9.1,3.8,9.1,11V934.1z M441.4,891.1c0-1.2-0.4-2.3-1.2-3.1c-0.8-0.9-1.8-1.3-2.9-1.3c-1.1,0-2.1,0.4-2.9,1.3
			c-0.8,0.9-1.2,1.9-1.2,3.1c0,1.2,0.4,2.3,1.2,3.1c0.8,0.9,1.8,1.3,2.9,1.3c1.1,0,2.1-0.4,2.9-1.3
			C441,893.3,441.4,892.3,441.4,891.1z"/>
		<path class="st6" d="M481,851.3c-0.8,4.6-1.9,8.4-3.4,11.6c-1.4,3.1-3.3,5.6-5.6,7.5c-2.3,1.9-4.9,3.2-7.9,4
			c-3,0.8-6.5,1.2-10.5,1.2h-4v-5.2c1.6-0.1,3-0.7,4-1.8c1.1-1.1,1.8-2.3,2.2-3.4c-2-0.3-3.6-1.3-4.8-2.9c-1.2-1.6-1.8-3.5-1.8-5.7
			c0-2.3,0.8-4.3,2.4-5.8c1.6-1.6,3.4-2.3,5.5-2.3c2.4,0,4.3,0.8,5.7,2.5c1.4,1.6,2.1,3.7,2.1,6.2c0,2.5-0.6,4.9-1.7,7.3
			c-1.1,2.3-2.3,4.2-3.5,5.5c4-0.8,7.3-2.9,9.8-6.3c2.5-3.4,3.9-7.5,4-12.2H481z M460.4,856.8c0-1-0.3-1.8-0.9-2.4
			c-0.6-0.7-1.3-1-2.2-1c-0.9,0-1.6,0.3-2.2,1c-0.6,0.6-0.8,1.5-0.8,2.4c0,1,0.3,1.8,0.8,2.4c0.6,0.7,1.3,1,2.2,1
			c0.9,0,1.6-0.3,2.2-1C460.1,858.5,460.4,857.7,460.4,856.8z"/>
		<path class="st6" d="M514.3,934.1h-7.5v-37.7c0-2.4-0.8-4.4-2.3-5.9c-1.5-1.5-3.6-2.3-6.3-2.3c-2.7,0-4.8,0.9-6.5,2.8
			c-1.7,1.9-2.6,4.3-2.7,7.2h-7.3c0.2-5.2,1.8-9.3,4.8-12.4c2.9-3.1,6.8-4.6,11.7-4.6c4.5,0,8.3,1.2,11.4,3.7
			c3.1,2.5,4.7,6.2,4.7,11.2V934.1z"/>
		<path class="st6" d="M566.6,909.5c0,3.5-0.8,5.9-2.5,7.2c3.1,1.9,4.7,4.8,4.7,8.6c0,2.8-0.9,5.1-2.7,7c-1.8,1.9-3.9,2.8-6.4,2.8
			c-2.3,0-4.4-0.8-6-2.4c-1.7-1.6-2.7-3.6-3-6c-2.6,1.4-4.4,2.4-5.6,3.1c-1.9,1.3-3.5,2.7-4.6,4.3h-7.6v-33.4
			c-0.8,0.2-1.5,0.3-2.1,0.3c-2.6,0-4.8-1-6.5-2.9c-1.8-2-2.7-4.3-2.7-7.1c0-2.7,0.9-5,2.7-6.9c1.8-1.9,3.9-2.9,6.5-2.9
			c2.7,0,5,1,6.8,3c1.8,2,2.7,4.5,2.7,7.5v33c1.3-1,4.2-2.6,8.7-4.5c4-1.8,6.8-3.6,8.3-5.5c1.1-1.3,1.7-3.4,1.7-6.2v-26.3h7.5V909.5
			z M534.9,891.1c0-1.2-0.4-2.3-1.2-3.1c-0.8-0.9-1.8-1.3-2.9-1.3c-1.1,0-2.1,0.4-2.9,1.3c-0.8,0.9-1.2,1.9-1.2,3.1
			c0,1.2,0.4,2.3,1.2,3.1c0.8,0.9,1.8,1.3,2.9,1.3c1.1,0,2.1-0.4,2.9-1.3C534.5,893.3,534.9,892.3,534.9,891.1z M563.7,925.3
			c0-1.2-0.4-2.2-1.2-3.1c-0.8-0.9-1.8-1.3-2.9-1.3c-1.1,0-2.1,0.4-2.9,1.3c-0.8,0.9-1.2,1.9-1.2,3.1c0,1.2,0.4,2.2,1.2,3.1
			c0.8,0.9,1.8,1.3,2.9,1.3c1.1,0,2.1-0.4,2.9-1.3C563.3,927.6,563.7,926.5,563.7,925.3z"/>
		<path class="st6" d="M566.8,875.6c-10-3.5-19.1-5.2-27.4-5.2c-3.8,0-7.6,0.3-11.5,0.8c1-11.6,6.8-17.4,17.6-17.4
			c6.2,0,11.1,2,14.7,6C563.9,863.9,566.1,869.1,566.8,875.6z M559.1,867.9c-0.5-2.2-1.9-4.2-4.4-6.1c-2.4-1.9-5.2-2.9-8.2-2.9
			c-2.9,0-5.4,0.6-7.5,1.9c-2.1,1.3-3.4,2.9-4,5c1.4-0.3,3.5-0.5,6.4-0.5C547.4,865.3,553.3,866.2,559.1,867.9z"/>
		<path class="st6" d="M605.5,925.4c0,2.8-0.9,5.1-2.7,7s-4,2.8-6.6,2.8c-2.6,0-4.8-1-6.6-2.9c-1.8-1.9-2.7-4.2-2.7-7
			c0-2.8,0.9-5.1,2.7-7c1.8-1.9,4-2.9,6.6-2.9c1,0,1.6,0,1.8,0.1v-11.2c0-1.4-2.7-2.8-8-4.1c-5.4-1.3-10.2-2.4-14.6-3.2
			c0.2-4.8,1.3-8.6,3.5-11.5c2.2-2.9,5.3-4.4,9.4-4.4c1.7,0,4,0.4,6.9,1.2c2.9,0.8,5.1,1.2,6.3,1.2c1.4,0,2.1-1,2.3-2.9l5.9,1.7
			c-1.5,5.3-4.1,7.9-8,7.9c-1.5,0-3.5-0.4-6.2-1.1c-2.7-0.7-4.7-1.1-6.1-1.1c-3.5,0-5.6,1.4-6,4.3c6.2,1.4,11.4,2.9,15.6,4.4
			c4.2,1.6,6.3,4.2,6.3,8.1V925.4z M600.3,925.3c0-1.2-0.4-2.3-1.2-3.1c-0.8-0.9-1.8-1.3-2.9-1.3s-2.1,0.4-2.9,1.3
			c-0.8,0.9-1.2,1.9-1.2,3.1c0,1.2,0.4,2.3,1.2,3.1c0.8,0.9,1.8,1.3,2.9,1.3s2.1-0.4,2.9-1.3C599.9,927.5,600.3,926.5,600.3,925.3z"
			/>
		<path class="st6" d="M657.7,934.1h-7.5v-34.4c0-3.5-1.1-6.2-3.2-8.4c-2.1-2.1-4.8-3.2-8-3.2c-4.9,0-8.5,2.2-10.8,6.5
			c3.9,0.9,6.6,2.8,8.1,5.8c-2.2,1.3-3.6,2.4-4.4,3.3c-1,1.4-1.6,3.3-1.6,5.6c0,1.9,0.2,4.7,0.6,8.3c0.4,3.6,0.6,6.1,0.6,7.6
			c0,2.8-0.9,5.1-2.6,7c-1.7,1.9-3.8,2.9-6.3,2.9c-2.6,0-4.8-1-6.5-2.9c-1.8-1.9-2.7-4.3-2.7-7.1c0-2.7,0.9-5,2.7-6.9
			c1.8-1.9,3.9-2.9,6.3-2.9c1,0,1.6,0.1,1.8,0.4l-0.7-8c0-3,1.4-5.3,4.1-7c-2.2-1.5-4.6-2-7.4-1.6c0.1-5.4,1.9-9.8,5.6-13.3
			c3.5-3.2,7.8-4.8,13.1-4.8c5.6,0,10.2,1.7,13.7,5.1c3.5,3.4,5.2,7.9,5.2,13.5V934.1z M626.8,925.3c0-1.2-0.4-2.3-1.2-3.1
			c-0.8-0.9-1.8-1.3-2.9-1.3c-1.1,0-2.1,0.4-2.9,1.3c-0.8,0.9-1.2,1.9-1.2,3.1c0,1.2,0.4,2.3,1.2,3.1c0.8,0.9,1.8,1.3,2.9,1.3
			c1.1,0,2.1-0.4,2.9-1.3C626.4,927.5,626.8,926.5,626.8,925.3z"/>
		<path class="st6" d="M669.9,850.5c-2.1,14.4-9.3,21.6-21.8,21.6c-4.8,0-8.5-1.1-11.1-3.2c-2.6-2.1-3.9-4.8-3.9-8.1
			c0-2.5,0.8-4.6,2.4-6.4c1.6-1.7,3.6-2.6,5.9-2.6c2.5,0,4.5,0.9,6.1,2.7c1.6,1.8,2.4,3.9,2.4,6.3c0,2.3-0.6,4.1-1.8,5.2
			c8.4-0.3,13.3-5.5,14.6-15.5H669.9z M645.1,860.8c0-1.1-0.4-2.1-1.1-2.9c-0.7-0.8-1.6-1.2-2.7-1.2c-1,0-1.9,0.4-2.6,1.2
			c-0.7,0.8-1,1.7-1,2.9c0,1.1,0.3,2.1,1,2.8c0.7,0.7,1.6,1.1,2.6,1.1c1,0,1.9-0.4,2.7-1.1C644.8,862.9,645.1,861.9,645.1,860.8z"/>
		<path class="st6" d="M704.4,921c0,9.4-6,14.2-17.9,14.2c-11.8,0-17.8-4.7-17.8-14.2v-6c0-4.2,1.6-7.1,4.9-8.8
			c-3.6-2.7-5.5-6.6-5.5-11.8c0-3.8,1-7,3-9.4c2-2.5,4.7-3.7,8.2-3.7c2.4,0,4.5,0.8,6.2,2.4c1.7,1.6,2.5,3.7,2.5,6.3
			c0,2.3-0.8,4.4-2.3,6.1c-1.5,1.7-3.6,2.6-6.1,2.6c-1.3,0-2.4-0.2-3.4-0.6c0.6,3.3,2.1,4.9,4.4,4.9h8.6v6.4h-8.6
			c-1.3,0-2.3,0.6-3.1,1.8c-0.8,1.2-1.2,2.6-1.2,4.1v5.9c0,4.6,3.4,7,10.3,7c7,0,10.5-2.3,10.5-7v-38.9h7.5V921z M683.5,890
			c0-1.2-0.4-2.2-1.1-3c-0.7-0.8-1.7-1.2-2.8-1.2c-1.1,0-2.1,0.4-2.8,1.2c-0.7,0.8-1.1,1.8-1.1,3c0,1.2,0.4,2.2,1.1,3
			s1.7,1.2,2.8,1.2c1.1,0,2.1-0.4,2.8-1.2S683.5,891.3,683.5,890z"/>
	</g>
	<g>
		<path class="st3" d="M451.7,54.9c191,17,332.1,185.6,315.1,376.6c-17,191-185.6,332.1-376.6,315.1C199.2,729.6,58.1,561,75.1,370
			C92.1,179,260.7,37.9,451.7,54.9"/>
		<g>
			<path class="st2" d="M378.7,503.1c8-10.5,17.4-19.9,28.1-27.8c8.5-6.5,16.8-13.2,25.1-19.9c10.1-8.3,16.7-20,18.8-32.9l0-0.3
				c-2.1-50.2-2.6-100.6-1.4-150.8c52.4,0.5,104.8,0,157.2-1.5l-0.3,124.3c-1.4,20.8-1.1,41.6,1.1,62.4c1.5,7.4,3.7,14.6,6.6,21.5
				c16,23.6,16.2,54.6,0.4,78.3c-2.3,3.7-3.3,8.2-2.8,12.6c-0.5,9.8-0.7,19.5-0.7,29.3c0,0.8,0,1.6,0,2.4c0,2.1-0.3,4.1-1,6
				c-1.4,2.7-3.9,4.7-6.8,5.4c-2.4,0.5-4.8,0.8-7.2,0.8l-81.5,0c-2,0-4.1-0.3-6.1-0.7c-2.8-1.2-5-3.7-5.8-6.7
				c-0.5-2.5-0.8-5-0.6-7.6l-0.8-18.9l-0.2-1.4c-0.4-0.9-1.4-1.4-2.3-1.3c-1.1,0-2.1,0.1-3.2,0.3c-2.6,0.8-5,1.8-7.4,3.1
				c-17.2,8.1-34.2,16.5-51.1,25.2c-4.1,2.1-8.6,3.5-13.2,4.3l-0.7,0l-155.2,0.5c-3-1.6-4.9-4.8-4.8-8.2c0-1.4,0.3-2.8,0.9-4.1
				c0.3-0.7,0.7-1.4,1.2-2c0.6-0.9,1.2-1.8,1.9-2.6c0.4-0.7,0.6-1.6,0.4-2.4c-1.3-8.4-0.4-16.9,2.4-24.9c1.3-3.8,3.2-7.3,5.5-10.5
				c12.5-12.5,28.2-21.3,45.3-25.5c6.9-2,13.9-3.5,21-4.4C355.7,521.3,368.6,513.7,378.7,503.1"/>
			<path class="st3" d="M463.5,566.6l-0.3,0.1L384.1,596l-94.4-0.5c-1.5-0.5-2.5-2-2.5-3.6c0-1.6,1-3.1,2.5-3.6l94.2,0l79.8-29.8
				h0.2l125.7-0.8c1.1,1,1.8,2.5,1.8,4c0,1.5-0.6,3-1.6,4.1L463.5,566.6"/>
			<path class="st2" d="M252.3,586.6l-38.5,8.8c-3.3-0.5-6.1-2.8-7.3-6c-0.4-1.4-0.4-2.8-0.1-4.2c0.1-0.8,0.4-1.5,0.7-2.2
				c0.3-1,0.7-2,1.2-3c0.3-0.8,0.2-1.7-0.2-2.4c-3.2-7.8-4.4-16.4-3.5-24.8c0.4-4,1.4-7.9,2.9-11.5c9.2-15.1,22.4-27.3,38-35.5
				c6.2-3.6,12.7-6.7,19.4-9.2c13-6.8,23.8-17.2,31.1-29.9c5.3-12.1,12.2-23.4,20.7-33.6c6.7-8.3,13.3-16.8,19.7-25.3
				c7.8-10.4,11.6-23.3,10.5-36.3l-0.1-0.3c-13.9-48.3-26.2-97.1-36.9-146.2c50.8-11.8,101.4-24.5,151.8-38.3l16,63.8
				c-0.1,3.2-2.3,5.9-5.3,6.6c-3.1,0.7-6.2-0.7-7.7-3.5L450,205.9c-39.7,10.1-79.6,19.7-119.7,28.6c10.4,49.2,22.5,98,36.1,146.5
				l0.1,0.3c1,13-2.8,25.9-10.7,36.3c-6.5,8.5-13.1,16.9-19.9,25.2c-8.5,10.1-15.6,21.4-20.9,33.5c-7.4,12.7-18.2,23-31.2,29.7
				c-6.7,2.5-13.2,5.6-19.4,9.1c-15.7,8-29,20.2-38.2,35.2c-1.5,3.7-2.5,7.6-3,11.5c-0.2,1.9-0.3,3.9-0.3,5.8
				c-0.4,3.8,0.4,7.6,2.3,10.9l14.5-3.1c0.9-0.1,1.9-0.2,2.8-0.2c3.7-0.8,7.6-0.8,11.3,0c2.4,1.1,3.7,3.7,3.3,6.2
				C256.8,584.1,254.8,586.2,252.3,586.6"/>
			<path class="st3" d="M282.4,565.3c7.9-14.8,23.8-23.6,40.6-22.3c1.6,0.3,3.1,1.3,3.7,2.9c0.7,1.5,0.5,3.3-0.4,4.7
				c-13,3.7-24.5,11.7-32.6,22.6c-2.3,2.6-6.3,3.1-9.2,1.1C281.7,572.3,280.8,568.4,282.4,565.3"/>
		</g>
	</g>
</g>
</svg>
