<?xml version="1.0" encoding="utf-8"?>
<!-- Generator: Adobe Illustrator 22.0.0, SVG Export Plug-In . SVG Version: 6.00 Build 0)  -->
<svg version="1.1" id="Layer_1" xmlns="http://www.w3.org/2000/svg" xmlns:xlink="http://www.w3.org/1999/xlink" x="0px" y="0px"
	 viewBox="0 0 841.9 1190.6" style="enable-background:new 0 0 841.9 1190.6;" xml:space="preserve">
<style type="text/css">
	.st0{fill:none;}
	.st1{fill:#010101;}
	.st2{fill:#FFFFFF;}
	.st3{fill:#154989;}
	.st4{fill:#EB2627;}
	.st5{fill:#2A3B8F;}
	.st6{fill:#FFFFFF;stroke:#FFFFFF;stroke-miterlimit:10;}
	.st7{fill-rule:evenodd;clip-rule:evenodd;fill:#FFFFFF;}
	.st8{fill-rule:evenodd;clip-rule:evenodd;fill:#154989;}
	.st9{fill:#2F3690;}
</style>
<g>
	<g>
		<rect x="0" y="0" class="st0" width="841.9" height="1190.6"/>
		<rect x="28.3" y="28.3" class="st1" width="785.2" height="1133.9"/>
		<rect x="34" y="34" class="st2" width="773.9" height="1122.5"/>
		<rect x="52.5" y="792.6" class="st3" width="737" height="348.7"/>
		<g id="stecon_13_">
			<path id="red_13_" class="st4" d="M52.8,53.5c42.5,0,85,0,127.6,0c0,22.6,0,45.1,0,67.7c-42.5,0-85,0-127.5,0c0-0.2,0-0.5,0-0.7
				c0-22.1,0-44.2,0-66.3C52.9,54,52.8,53.8,52.8,53.5z M55.8,87.4c0.2,0.1,0.4,0.2,0.5,0.3c3.6,1.8,7.1,3.7,10.7,5.5
				c16.4,8.4,32.7,16.8,49.1,25.2c0.4,0.2,0.7,0.2,1.1,0c13.8-7.1,27.6-14.2,41.4-21.3c6.1-3.2,12.3-6.3,18.4-9.5
				c0.1-0.1,0.3-0.2,0.5-0.3c-0.2-0.1-0.3-0.2-0.5-0.3c-3.8-1.9-7.6-3.9-11.4-5.8c-16.2-8.3-32.4-16.7-48.5-25
				c-0.3-0.2-0.5-0.2-0.9,0c-7,3.6-14.1,7.3-21.1,10.9c-12.6,6.5-25.2,12.9-37.7,19.4C56.9,86.8,56.4,87.1,55.8,87.4z"/>
			<g id="white_13_">
				<path class="st2" d="M55.8,87.4c0.6-0.3,1.1-0.6,1.6-0.8c12.6-6.5,25.2-12.9,37.7-19.4c7-3.6,14.1-7.2,21.1-10.9
					c0.3-0.2,0.6-0.1,0.9,0c16.2,8.3,32.4,16.7,48.5,25c3.8,1.9,7.6,3.9,11.4,5.8c0.1,0.1,0.3,0.1,0.5,0.3c-0.2,0.1-0.3,0.2-0.5,0.3
					c-6.1,3.2-12.3,6.3-18.4,9.5c-13.8,7.1-27.6,14.2-41.4,21.3c-0.4,0.2-0.7,0.2-1.1,0C99.7,110,83.4,101.6,67,93.1
					c-3.6-1.8-7.1-3.7-10.7-5.5C56.2,87.6,56,87.5,55.8,87.4z M59.7,87.4c0.2,0.1,0.3,0.2,0.4,0.2c1,0.5,1.9,1,2.9,1.5
					c17.7,9.1,35.5,18.2,53.2,27.3c0.3,0.1,0.5,0.2,0.8,0c12.9-6.6,25.7-13.2,38.6-19.8c5.8-3,11.6-6,17.5-9
					c0.1-0.1,0.3-0.2,0.5-0.3c-0.2-0.1-0.4-0.2-0.6-0.3c-15.9-8.2-31.9-16.4-47.8-24.5c-2.7-1.4-5.5-2.8-8.2-4.2
					c-0.2-0.1-0.4-0.1-0.7,0c-0.3,0.2-0.7,0.4-1.1,0.6C97,68.3,78.6,77.6,60.3,87C60.1,87.1,60,87.2,59.7,87.4z"/>
				<path class="st2" d="M147.4,79.5c1.4,0,2.7,0,4.1,0c0,5.2,0,10.3,0,15.4c-1.4,0-2.8,0-4.2,0c-0.9-2.6-1.8-5.3-2.7-7.9
					c0,0-0.1,0-0.1,0c0,2.6,0,5.2,0,7.9c-1.4,0-2.7,0-4,0c0,0,0,0,0,0c0,0,0,0,0,0c0-0.1,0-0.2,0-0.3c0-4.9,0-9.9,0-14.8
					c0,0,0-0.1,0-0.2c0.1,0,0.3,0,0.4,0c1.2,0,2.3,0,3.5,0c0.4,0,0.4,0,0.5,0.4c0.8,2.5,1.6,5,2.4,7.5c0,0.1,0.1,0.2,0.2,0.4
					C147.4,85,147.4,82.3,147.4,79.5z"/>
				<path class="st2" d="M138.8,87.3c0,1.5,0,3,0,4.5c0,0.8-0.3,1.4-0.8,1.9c-0.7,0.7-1.6,1.2-2.6,1.3c-1.5,0.3-3.1,0.3-4.6-0.1
					c-0.9-0.2-1.6-0.6-2.3-1.3c-0.5-0.5-0.8-1.1-0.8-1.9c0-3,0-6.1,0-9.1c0-0.7,0.2-1.3,0.7-1.8c0.6-0.7,1.4-1.2,2.3-1.4
					c1.7-0.4,3.5-0.4,5.2,0.1c0.7,0.2,1.4,0.6,2,1.2c0.6,0.5,0.9,1.2,0.8,2C138.8,84.3,138.8,85.8,138.8,87.3z M134.2,87.3
					c0-1.5,0-2.9,0-4.4c0-0.7-0.1-0.9-0.8-0.9c-0.1,0-0.2,0-0.2,0c-0.5,0.1-0.6,0.2-0.6,0.7c0,3,0,6,0,9c0,0.5,0.1,0.7,0.6,0.7
					c0.2,0,0.3,0,0.5,0c0.5-0.1,0.6-0.2,0.6-0.7C134.2,90.3,134.2,88.8,134.2,87.3z"/>
				<path class="st2" d="M126.7,88.9c0,0.2,0,0.3,0,0.5c0,0.8,0,1.6,0,2.4c0,0.8-0.3,1.5-0.9,2c-0.7,0.7-1.5,1.1-2.5,1.3
					c-1.5,0.3-3,0.3-4.5-0.1c-0.8-0.2-1.5-0.6-2.2-1.2c-0.6-0.6-0.9-1.2-0.9-2.1c0-3,0-5.9,0-8.9c0-0.9,0.3-1.6,0.9-2.1
					c0.7-0.7,1.6-1.1,2.5-1.2c1.4-0.2,2.9-0.2,4.3,0.1c0.9,0.2,1.6,0.6,2.3,1.2c0.6,0.6,0.9,1.2,0.9,2.1c0,0.8,0,1.7,0,2.5
					c0,0.2,0,0.3,0,0.5c-1.6,0-3.1,0-4.6,0c0-0.2,0-0.3,0-0.5c0-0.9,0-1.7,0-2.6c0-0.5-0.1-0.6-0.6-0.7c-0.1,0-0.2,0-0.3,0
					c-0.7,0.1-0.7,0.3-0.7,0.8c0,2.9,0,5.9,0,8.8c0,0.1,0,0.2,0,0.3c0,0.2,0.1,0.4,0.3,0.4c0.1,0,0.3,0.1,0.4,0.1
					c0.6,0.1,0.8-0.2,0.8-0.8c0-0.8,0-1.5,0-2.3c0-0.2,0-0.3,0-0.5C122.4,88.8,126,88.8,126.7,88.9z"/>
				<path class="st2" d="M105.5,94.9c0-5.1,0-10.2,0-15.3c0.4-0.1,8.7-0.1,9.1,0c0,0.8,0,1.6,0,2.5c-0.1,0-0.3,0-0.4,0
					c-1.1,0-2.2,0-3.3,0c-0.1,0-0.3,0-0.5,0c0,1.4,0,2.7,0,4.1c1,0,2.1,0,3.1,0c0,0.8,0,1.5,0,2.2c-0.4,0.1-0.7,0.1-1,0.1
					c-0.3,0-0.7,0-1,0c-0.3,0-0.7,0-1,0c-0.1,0.3-0.1,2.8,0,3.7c0.1,0,0.3,0,0.5,0c1.1,0,2.2,0,3.3,0c0.2,0,0.3,0,0.5,0
					c0,0.9,0,1.8,0,2.6C114.3,95,106,95,105.5,94.9z"/>
				<path class="st2" d="M101.1,94.9c-1.6,0-3.1,0-4.7,0c0-4.3,0-8.5,0-12.8c-1,0-2,0-3,0c-0.1-0.4-0.1-2.1,0-2.6
					c0.3-0.1,10.4-0.1,10.8,0c0.1,0.3,0.1,2.1,0,2.6c-1,0-2,0-3,0C101.1,86.4,101.1,90.6,101.1,94.9z"/>
				<path class="st2" d="M92.1,84.9c-1.6,0-3.1,0-4.6,0c0-0.2,0-0.3,0-0.5c0-0.6,0-1.2,0-1.8c0-0.4-0.1-0.6-0.5-0.6
					c-0.1,0-0.2,0-0.4,0c-0.3,0-0.5,0.2-0.5,0.5c0,0.6,0,1.1,0,1.7c0,0.4,0.2,0.6,0.5,0.8c0.4,0.2,0.7,0.4,1.1,0.7
					c1,0.6,2,1.1,2.9,1.7c0.1,0.1,0.3,0.2,0.4,0.3c0.7,0.5,1.1,1.2,1.1,2.1c0,0.7,0,1.3,0,2c0,0.7-0.2,1.3-0.7,1.7
					c-0.7,0.7-1.5,1.2-2.4,1.4c-1.5,0.4-3.1,0.4-4.7,0c-0.8-0.2-1.6-0.6-2.2-1.2c-0.6-0.5-0.9-1.2-0.9-2.1c0-0.8,0-1.5,0-2.3
					c0.3-0.1,3.9-0.1,4.5,0c0,0.1,0,0.3,0,0.4c0,0.7,0,1.3,0,2c0,0.4,0.1,0.6,0.5,0.6c0.2,0,0.5,0,0.7-0.1c0.2,0,0.3-0.2,0.3-0.4
					c0-0.6,0-1.2,0-1.8c0-0.3-0.2-0.6-0.4-0.7c-0.4-0.3-0.8-0.5-1.2-0.8c-1-0.6-2-1.2-2.9-1.8c-0.3-0.2-0.6-0.4-0.9-0.7
					c-0.4-0.4-0.6-0.9-0.6-1.5c0-0.7,0-1.3,0-2c0-0.8,0.3-1.4,0.8-1.9c0.7-0.7,1.6-1.2,2.6-1.4c1.4-0.3,2.8-0.3,4.2,0.1
					c0.9,0.2,1.7,0.7,2.3,1.3c0.5,0.5,0.8,1.1,0.8,1.9C92.1,83.5,92.1,84.2,92.1,84.9z"/>
			</g>
			<g id="blue_13_">
				<path class="st5" d="M59.7,87.4c0.3-0.1,0.5-0.2,0.7-0.3c18.3-9.4,36.6-18.8,54.9-28.1c0.4-0.2,0.7-0.4,1.1-0.6
					c0.2-0.1,0.4-0.1,0.7,0c2.7,1.4,5.4,2.8,8.2,4.2c15.9,8.2,31.9,16.4,47.8,24.5c0.2,0.1,0.3,0.2,0.6,0.3
					c-0.2,0.1-0.3,0.2-0.5,0.3c-5.8,3-11.6,6-17.5,9c-12.9,6.6-25.7,13.2-38.6,19.8c-0.3,0.1-0.5,0.1-0.8,0
					C98.5,107.3,80.8,98.2,63,89.1c-1-0.5-1.9-1-2.9-1.5C60,87.5,59.9,87.5,59.7,87.4z M147.4,79.5c0,2.8,0,5.5,0,8.3
					c-0.1-0.1-0.1-0.2-0.2-0.4c-0.8-2.5-1.6-5-2.4-7.5c-0.1-0.4-0.1-0.4-0.5-0.4c-1.2,0-2.3,0-3.5,0c-0.1,0-0.3,0-0.4,0
					c0,0.1,0,0.1,0,0.2c0,4.9,0,9.9,0,14.8c0,0.1,0,0.2,0,0.3c0,0,0,0,0,0c0,0,0,0,0,0c1.3,0,2.7,0,4,0c0-2.7,0-5.3,0-7.9
					c0,0,0.1,0,0.1,0c0.9,2.6,1.8,5.3,2.7,7.9c1.4,0,2.8,0,4.2,0c0-5.1,0-10.2,0-15.4C150.2,79.5,148.8,79.5,147.4,79.5z
					 M138.8,87.3c0-1.5,0-3,0-4.5c0-0.8-0.3-1.5-0.8-2c-0.6-0.6-1.2-1-2-1.2c-1.7-0.5-3.5-0.5-5.2-0.1c-0.9,0.2-1.7,0.7-2.3,1.4
					c-0.4,0.5-0.7,1.1-0.7,1.8c0,3,0,6.1,0,9.1c0,0.8,0.3,1.4,0.8,1.9c0.6,0.7,1.4,1.1,2.3,1.3c1.5,0.3,3.1,0.3,4.6,0.1
					c1-0.2,1.8-0.6,2.6-1.3c0.5-0.5,0.8-1.2,0.8-1.9C138.8,90.3,138.8,88.8,138.8,87.3z M126.7,88.9c-0.6-0.1-4.3-0.1-4.7,0
					c0,0.1,0,0.3,0,0.5c0,0.8,0,1.5,0,2.3c0,0.7-0.2,0.9-0.8,0.8c-0.1,0-0.3,0-0.4-0.1c-0.2-0.1-0.3-0.2-0.3-0.4c0-0.1,0-0.2,0-0.3
					c0-2.9,0-5.9,0-8.8c0-0.5,0-0.7,0.7-0.8c0.1,0,0.2,0,0.3,0c0.5,0.1,0.6,0.2,0.6,0.7c0,0.9,0,1.7,0,2.6c0,0.2,0,0.3,0,0.5
					c1.6,0,3.1,0,4.6,0c0-0.2,0-0.4,0-0.5c0-0.8,0-1.7,0-2.5c0-0.9-0.3-1.5-0.9-2.1c-0.7-0.6-1.4-1-2.3-1.2
					c-1.4-0.3-2.9-0.3-4.3-0.1c-0.9,0.2-1.8,0.6-2.5,1.2c-0.6,0.6-0.9,1.3-0.9,2.1c0,3,0,5.9,0,8.9c0,0.9,0.3,1.6,0.9,2.1
					c0.6,0.6,1.4,1,2.2,1.2c1.5,0.3,3,0.3,4.5,0.1c0.9-0.2,1.8-0.6,2.5-1.3c0.6-0.5,0.9-1.2,0.9-2c0-0.8,0-1.6,0-2.4
					C126.7,89.2,126.7,89.1,126.7,88.9z M92.1,84.9c0-0.7,0-1.4,0-2.1c0-0.8-0.3-1.4-0.8-1.9c-0.7-0.7-1.4-1.1-2.3-1.3
					c-1.4-0.3-2.8-0.3-4.2-0.1c-1,0.2-1.9,0.6-2.6,1.4c-0.5,0.5-0.8,1.1-0.8,1.9c0,0.7,0,1.3,0,2c0,0.6,0.2,1.1,0.6,1.5
					c0.3,0.2,0.6,0.5,0.9,0.7c1,0.6,2,1.2,2.9,1.8c0.4,0.2,0.8,0.5,1.2,0.8c0.2,0.2,0.4,0.4,0.4,0.7c0,0.6,0,1.2,0,1.8
					c0,0.2-0.1,0.4-0.3,0.4c-0.2,0-0.5,0.1-0.7,0.1c-0.4,0-0.5-0.2-0.5-0.6c0-0.7,0-1.3,0-2c0-0.1,0-0.3,0-0.4
					c-0.6-0.1-4.2-0.1-4.5,0c0,0.7,0,1.5,0,2.3c0,0.9,0.3,1.5,0.9,2.1c0.6,0.6,1.4,1,2.2,1.2c1.6,0.4,3.1,0.3,4.7,0
					c0.9-0.2,1.7-0.7,2.4-1.4c0.4-0.5,0.7-1.1,0.7-1.7c0-0.7,0-1.3,0-2c0-0.9-0.4-1.6-1.1-2.1c-0.1-0.1-0.3-0.2-0.4-0.3
					c-1-0.6-2-1.1-2.9-1.7c-0.4-0.2-0.7-0.4-1.1-0.7c-0.3-0.2-0.5-0.4-0.5-0.8c0-0.6,0-1.1,0-1.7c0-0.3,0.2-0.5,0.5-0.5
					c0.1,0,0.2,0,0.4,0c0.4,0,0.5,0.2,0.5,0.6c0,0.6,0,1.2,0,1.8c0,0.1,0,0.3,0,0.5C89.1,84.9,90.6,84.9,92.1,84.9z M105.5,94.9
					c0.5,0.1,8.8,0.1,9.1,0c0-0.9,0-1.7,0-2.6c-0.2,0-0.3,0-0.5,0c-1.1,0-2.2,0-3.3,0c-0.2,0-0.3,0-0.5,0c-0.1-0.8,0-3.3,0-3.7
					c0.3,0,0.7,0,1,0c0.3,0,0.7,0,1,0c0.3,0,0.7,0.1,1-0.1c0-0.7,0-1.5,0-2.2c-1.1,0-2.1,0-3.1,0c0-1.4,0-2.7,0-4.1
					c0.2,0,0.3,0,0.5,0c1.1,0,2.2,0,3.3,0c0.1,0,0.3,0,0.4,0c0-0.9,0-1.7,0-2.5c-0.4-0.1-8.7-0.1-9.1,0
					C105.5,84.7,105.5,89.8,105.5,94.9z M101.1,94.9c0-4.3,0-8.5,0-12.8c1,0,2,0,3,0c0.1-0.5,0.1-2.2,0-2.6
					c-0.4-0.1-10.5-0.1-10.8,0c-0.1,0.4-0.1,2.2,0,2.6c1,0,2,0,3,0c0,4.3,0,8.5,0,12.8C97.9,94.9,99.5,94.9,101.1,94.9z"/>
				<path class="st5" d="M134.2,87.3c0,1.5,0,3,0,4.5c0,0.5-0.1,0.6-0.6,0.7c-0.2,0-0.3,0-0.5,0c-0.5-0.1-0.6-0.2-0.6-0.7
					c0-3,0-6,0-9c0-0.5,0.1-0.6,0.6-0.7c0.1,0,0.2,0,0.2,0c0.7,0,0.8,0.1,0.8,0.9C134.2,84.4,134.2,85.9,134.2,87.3z"/>
			</g>
		</g>
	</g>
	<g>
		<path class="st6" d="M271.3,1051.3l-8.2-53.7h7.1l5.2,36.9l6.3-36.9h8.3l6.1,37.5l5.3-37.5h7l-8.4,53.7h-7.4l-6.9-40.1l-6.9,40.1
			H271.3z"/>
		<path class="st6" d="M311.9,1051.3v-53.7h25.6v9.1h-18.6v11.9h17.3v9h-17.3v14.6h19.3v9H311.9z"/>
		<path class="st6" d="M375.3,1051.3h-7.6l-3-12.2h-13.8l-2.9,12.2h-7.4l13.5-53.7h7.4L375.3,1051.3z M362.4,1030l-4.8-19.9
			L353,1030H362.4z"/>
		<path class="st6" d="M379,1051.3v-53.7h14.7c3.7,0,6.4,0.5,8,1.4c1.7,1,3,2.7,4,5.1c1,2.5,1.5,5.3,1.5,8.5c0,4-0.8,7.4-2.3,10
			c-1.5,2.6-3.8,4.3-6.8,5c1.5,1.4,2.8,2.9,3.7,4.5s2.3,4.5,4,8.7l4.2,10.5h-8.3l-5-11.7c-1.8-4.2-3-6.8-3.7-7.9
			c-0.7-1.1-1.4-1.8-2.1-2.2c-0.7-0.4-1.9-0.6-3.5-0.6H386v22.4H379z M386,1020.3h5.2c3.3,0,5.4-0.2,6.3-0.7s1.5-1.2,2-2.3
			c0.5-1.1,0.7-2.4,0.7-4c0-1.8-0.3-3.3-0.9-4.4c-0.6-1.1-1.5-1.8-2.6-2.1c-0.6-0.1-2.3-0.2-5.1-0.2H386V1020.3z"/>
		<path class="st6" d="M440.5,1051.3v-53.7H451l6.3,36.6l6.2-36.6h10.5v53.7h-6.5V1009l-6.9,42.3h-6.7L447,1009v42.3H440.5z"/>
		<path class="st6" d="M512,1051.3h-7.6l-3-12.2h-13.8l-2.9,12.2h-7.4l13.5-53.7h7.4L512,1051.3z M499.2,1030l-4.8-19.9l-4.7,19.9
			H499.2z"/>
		<path class="st6" d="M513.9,1033.8l6.8-1c0.4,3.5,1.2,6.1,2.5,7.8s2.9,2.5,5.1,2.5c2.2,0,3.9-0.7,5.1-2.2c1.1-1.5,1.7-3.2,1.7-5.2
			c0-1.3-0.2-2.3-0.7-3.2c-0.5-0.9-1.3-1.7-2.5-2.3c-0.8-0.4-2.7-1.2-5.6-2.3c-3.7-1.4-6.4-3.2-7.9-5.3c-2.1-3-3.2-6.6-3.2-10.8
			c0-2.7,0.5-5.3,1.5-7.7c1-2.4,2.4-4.2,4.3-5.4c1.9-1.2,4.1-1.9,6.8-1.9c4.3,0,7.6,1.5,9.8,4.4c2.2,3,3.3,6.9,3.5,11.8l-7,0.5
			c-0.3-2.8-0.9-4.7-1.9-6c-1-1.2-2.5-1.8-4.4-1.8c-2,0-3.6,0.6-4.8,1.9c-0.7,0.8-1.1,1.9-1.1,3.3c0,1.3,0.3,2.4,1,3.3
			c0.9,1.1,3,2.3,6.4,3.6c3.4,1.2,5.9,2.5,7.5,3.9s2.9,3.1,3.8,5.5c0.9,2.3,1.4,5.2,1.4,8.6c0,3.1-0.5,6-1.6,8.6
			c-1.1,2.7-2.7,4.7-4.7,6c-2,1.3-4.5,2-7.5,2c-4.4,0-7.7-1.6-10.1-4.7C515.8,1044.4,514.4,1039.8,513.9,1033.8z"/>
		<path class="st6" d="M548,1051.3v-53.7h7v23.8l14.1-23.8h9.4l-13,20.9l13.7,32.8h-9l-9.5-25.2l-5.7,9v16.2H548z"/>
	</g>
	<g>
		<path class="st6" d="M250.4,934.1h-7.5v-22.5c0-2.6-1.4-4.6-4.1-6c-2.1-1-4.4-1.6-7-1.6c-2.5,0-4.6,0.7-6.4,2
			c-2.2,1.6-3.3,3.6-3.3,6.2v3.3c1.1-0.2,1.9-0.3,2.2-0.3c2.6,0,4.8,1,6.6,2.9c1.9,2,2.8,4.3,2.8,7c0,2.8-1,5.1-2.9,7
			c-1.9,1.9-4.2,2.9-6.6,2.9c-2.7,0-4.9-0.9-6.8-2.8c-1.9-1.9-2.8-4.2-2.8-7.1v-12c0-5.1,1.8-9.1,5.3-12c3.1-2.5,7-3.8,11.7-3.8
			c5,0,8.7,1.5,11.2,4.4v-5.8c0-2.7-1.5-4.7-4.4-6.2c-2.3-1.1-4.8-1.7-7.6-1.7c-3.1,0-5.8,0.8-8.1,2.3c-2.5,1.7-4,4-4.5,6.9h-7.3
			c0.5-5.3,2.6-9.4,6.4-12.2c3.5-2.7,8.1-4,13.7-4c3.6,0,6.9,0.7,9.8,2.1c1.7-1.6,2.5-3.7,2.5-6.2h8.5c-1,4.4-2.7,7.8-5.2,10.3
			c2.4,2.8,3.6,6,3.6,9.6V934.1z M228.4,925.1c0-1.2-0.4-2.3-1.2-3.1c-0.8-0.9-1.8-1.3-2.9-1.3c-1.1,0-2.1,0.4-2.9,1.3
			c-0.8,0.9-1.2,1.9-1.2,3.1c0,1.2,0.4,2.3,1.2,3.1c0.8,0.9,1.8,1.3,2.9,1.3c1.1,0,2.1-0.4,2.9-1.3
			C228,927.4,228.4,926.4,228.4,925.1z"/>
		<path class="st6" d="M296.2,924.6c0,3-0.9,5.5-2.8,7.5c-1.9,1.9-4.1,2.9-6.9,2.9c-2.6,0-4.8-1-6.5-2.9c-1.8-1.9-2.7-4.2-2.7-6.9
			c0-2.8,0.9-5.1,2.7-7.1c1.8-1.9,3.9-2.9,6.5-2.9c0.9,0,1.6,0,2.2,0.1v-18.9c0-5.5-3.7-8.2-11.1-8.2c-3.1,0-5.7,1-7.8,3
			c-2.1,2-3.2,4.7-3.2,8h-7.3c0.2-5.7,2-10.2,5.3-13.3c3.3-3.2,7.6-4.7,13-4.7c5.3,0,9.6,1.1,12.8,3.4c3.9,2.7,5.8,6.8,5.8,12.4
			V924.6z M290.7,925.1c0-1.2-0.4-2.3-1.2-3.1c-0.8-0.9-1.8-1.3-2.9-1.3c-1.1,0-2.1,0.4-2.9,1.3c-0.8,0.9-1.2,1.9-1.2,3.1
			c0,1.2,0.4,2.3,1.2,3.1c0.8,0.9,1.8,1.3,2.9,1.3c1.1,0,2.1-0.4,2.9-1.3C290.3,927.4,290.7,926.4,290.7,925.1z"/>
		<path class="st6" d="M346.6,934.1h-7.5c-4.7-4.5-9.4-7.7-14.1-9.5v0.7c0,2.8-1,5.1-3,7c-2,1.9-4.2,2.9-6.7,2.9c-2.7,0-5-1-6.9-3.1
			s-2.9-4.5-2.9-7.4c0-2.9,1-5.3,2.9-7.3c1.9-2,4.2-3.1,6.9-3.1h0.8v-13.5c-0.8,0.2-1.5,0.3-2.1,0.3c-2.6,0-4.8-1-6.5-2.9
			c-1.8-2-2.7-4.3-2.7-7.1c0-2.7,0.9-5,2.7-6.9c1.8-1.9,3.9-2.9,6.5-2.9c2.7,0,5,1,6.8,3c1.8,2,2.7,4.5,2.7,7.5v24.7
			c6.4,2.3,11.5,5.4,15.5,9.2v-43.4h7.5V934.1z M318.2,891.1c0-1.2-0.4-2.3-1.2-3.1c-0.8-0.9-1.8-1.3-2.9-1.3
			c-1.1,0-2.1,0.4-2.9,1.3c-0.8,0.9-1.2,1.9-1.2,3.1c0,1.2,0.4,2.3,1.2,3.1c0.8,0.9,1.8,1.3,2.9,1.3c1.1,0,2.1-0.4,2.9-1.3
			C317.8,893.3,318.2,892.3,318.2,891.1z M319.4,924.6c0-1.2-0.4-2.3-1.2-3.1c-0.8-0.9-1.8-1.3-2.9-1.3c-1.1,0-2.1,0.4-2.9,1.3
			c-0.8,0.9-1.2,1.9-1.2,3.1c0,1.2,0.4,2.3,1.2,3.1c0.8,0.9,1.8,1.3,2.9,1.3c1.1,0,2.1-0.4,2.9-1.3
			C319,926.9,319.4,925.8,319.4,924.6z"/>
		<path class="st6" d="M399.5,934.1H392v-28.9c0-2.3-0.4-3.5-1.3-3.5c-0.6,0-1.6,1.1-2.8,3.3l-15.7,29.1h-7v-33.4
			c-0.8,0.2-1.5,0.3-2.1,0.3c-2.6,0-4.8-1-6.5-2.9c-1.8-2-2.7-4.3-2.7-7.1c0-2.7,0.9-5,2.7-6.9c1.8-1.9,3.9-2.9,6.5-2.9
			c2.7,0,5,1,6.8,3c1.8,2,2.7,4.5,2.7,7.5v19.4c0,2.3-0.5,6.8-1.4,13.8c0.8-3.7,2-7.1,3.6-10.3l6.6-12.3c1.4-2.6,2.7-4.1,3.9-4.4
			c-1.6-2.2-2.4-4.4-2.4-6.8c0-2.8,0.9-5.1,2.7-7c1.8-1.9,3.9-2.9,6.5-2.9c2.6,0,4.8,1,6.5,2.9c1.8,1.9,2.7,4.2,2.7,7
			c0,2.9-1.1,5.4-3.4,7.5c1,2.2,1.6,4.5,1.6,7V934.1z M367.3,891.1c0-1.2-0.4-2.3-1.2-3.1c-0.8-0.9-1.8-1.3-2.9-1.3
			c-1.1,0-2.1,0.4-2.9,1.3c-0.8,0.9-1.2,1.9-1.2,3.1c0,1.2,0.4,2.3,1.2,3.1c0.8,0.9,1.8,1.3,2.9,1.3c1.1,0,2.1-0.4,2.9-1.3
			C366.9,893.3,367.3,892.3,367.3,891.1z M396.3,891.1c0-1.2-0.4-2.3-1.2-3.1c-0.8-0.9-1.8-1.3-2.9-1.3c-1.1,0-2.1,0.4-2.9,1.3
			c-0.8,0.9-1.2,1.9-1.2,3.1c0,1.2,0.4,2.3,1.2,3.1c0.8,0.9,1.8,1.3,2.9,1.3c1.1,0,2.1-0.4,2.9-1.3
			C395.9,893.3,396.3,892.3,396.3,891.1z"/>
		<path class="st6" d="M451.9,909.5c0,3.5-0.8,5.9-2.5,7.2c3.1,1.9,4.7,4.8,4.7,8.6c0,2.8-0.9,5.1-2.7,7c-1.8,1.9-3.9,2.8-6.4,2.8
			c-2.3,0-4.4-0.8-6-2.4c-1.7-1.6-2.7-3.6-3-6c-2.6,1.4-4.4,2.4-5.6,3.1c-1.9,1.3-3.5,2.7-4.6,4.3h-7.6v-33.4
			c-0.8,0.2-1.5,0.3-2.1,0.3c-2.6,0-4.8-1-6.5-2.9c-1.8-2-2.7-4.3-2.7-7.1c0-2.7,0.9-5,2.7-6.9c1.8-1.9,3.9-2.9,6.5-2.9
			c2.7,0,5,1,6.8,3c1.8,2,2.7,4.5,2.7,7.5v33c1.3-1,4.2-2.6,8.7-4.5c4-1.8,6.8-3.6,8.3-5.5c1.1-1.3,1.7-3.4,1.7-6.2v-26.3h7.5V909.5
			z M420.2,891.1c0-1.2-0.4-2.3-1.2-3.1c-0.8-0.9-1.8-1.3-2.9-1.3c-1.1,0-2.1,0.4-2.9,1.3c-0.8,0.9-1.2,1.9-1.2,3.1
			c0,1.2,0.4,2.3,1.2,3.1c0.8,0.9,1.8,1.3,2.9,1.3c1.1,0,2.1-0.4,2.9-1.3C419.8,893.3,420.2,892.3,420.2,891.1z M449,925.3
			c0-1.2-0.4-2.2-1.2-3.1c-0.8-0.9-1.8-1.3-2.9-1.3c-1.1,0-2.1,0.4-2.9,1.3c-0.8,0.9-1.2,1.9-1.2,3.1c0,1.2,0.4,2.2,1.2,3.1
			c0.8,0.9,1.8,1.3,2.9,1.3c1.1,0,2.1-0.4,2.9-1.3C448.6,927.6,449,926.5,449,925.3z"/>
		<path class="st6" d="M459.2,851.3c-0.8,4.6-1.9,8.4-3.4,11.6s-3.3,5.6-5.6,7.5c-2.3,1.9-4.9,3.2-7.9,4c-3,0.8-6.5,1.2-10.5,1.2h-4
			v-5.2c1.6-0.1,3-0.7,4-1.8c1.1-1.1,1.8-2.3,2.2-3.4c-2-0.3-3.6-1.3-4.8-2.9c-1.2-1.6-1.8-3.5-1.8-5.7c0-2.3,0.8-4.3,2.4-5.8
			s3.4-2.3,5.5-2.3c2.4,0,4.3,0.8,5.7,2.5c1.4,1.6,2.1,3.7,2.1,6.2c0,2.5-0.6,4.9-1.7,7.3c-1.1,2.3-2.3,4.2-3.5,5.5
			c4-0.8,7.3-2.9,9.8-6.3c2.5-3.4,3.9-7.5,4-12.2H459.2z M438.6,856.8c0-1-0.3-1.8-0.9-2.4c-0.6-0.7-1.3-1-2.2-1
			c-0.9,0-1.6,0.3-2.2,1c-0.6,0.6-0.8,1.5-0.8,2.4c0,1,0.3,1.8,0.8,2.4c0.6,0.7,1.3,1,2.2,1c0.9,0,1.6-0.3,2.2-1
			C438.3,858.5,438.6,857.7,438.6,856.8z"/>
		<path class="st6" d="M492.5,934.1H485v-37.7c0-2.4-0.8-4.4-2.3-5.9c-1.5-1.5-3.6-2.3-6.3-2.3s-4.8,0.9-6.5,2.8
			c-1.7,1.9-2.6,4.3-2.7,7.2H460c0.2-5.2,1.8-9.3,4.8-12.4c2.9-3.1,6.8-4.6,11.7-4.6c4.5,0,8.3,1.2,11.4,3.7
			c3.1,2.5,4.7,6.2,4.7,11.2V934.1z"/>
		<path class="st6" d="M539.7,934.1h-7.5v-34.4c0-3.5-1-6.4-3-8.4c-2-2.1-4.7-3.1-8-3.1c-4.8,0-8.5,2.2-11,6.5
			c3.8,0.8,6.5,2.7,8.1,5.8c-4.1,2.6-6.2,5.7-6.2,9.4v24.2h-7.5v-24.7c0-3.6,1.6-6.5,5-8.6c-2-1.5-4.5-2-7.4-1.6
			c0.2-5.4,2.1-9.8,5.8-13.3c3.4-3.2,7.7-4.8,12.9-4.8c5.8,0,10.4,1.7,13.7,5c3.3,3.3,5,7.9,5,13.6V934.1z"/>
		<path class="st6" d="M580.3,934.1h-7.5v-37.7c0-2.4-0.8-4.4-2.3-5.9c-1.5-1.5-3.6-2.3-6.3-2.3s-4.8,0.9-6.5,2.8
			c-1.7,1.9-2.6,4.3-2.7,7.2h-7.3c0.2-5.2,1.8-9.3,4.8-12.4c2.9-3.1,6.8-4.6,11.7-4.6c4.5,0,8.3,1.2,11.4,3.7
			c3.1,2.5,4.7,6.2,4.7,11.2V934.1z"/>
		<path class="st6" d="M627.6,934.1h-7.5v-34.4c0-3.5-1-6.4-3-8.4c-2-2.1-4.7-3.1-8-3.1c-4.8,0-8.5,2.2-11,6.5
			c3.8,0.8,6.5,2.7,8.1,5.8c-4.1,2.6-6.2,5.7-6.2,9.4v24.2h-7.5v-24.7c0-3.6,1.6-6.5,5-8.6c-2-1.5-4.5-2-7.4-1.6
			c0.2-5.4,2.1-9.8,5.8-13.3c3.4-3.2,7.7-4.8,12.9-4.8c5.8,0,10.4,1.7,13.7,5c3.3,3.3,5,7.9,5,13.6V934.1z"/>
	</g>
	<g>
		<path class="st3" d="M451.7,54.9c191,17,332.1,185.6,315.1,376.6c-17,191-185.6,332.1-376.6,315.1C199.2,729.6,58.1,561,75.1,370
			C92.1,179,260.7,37.9,451.7,54.9"/>
		<g>
			<path class="st2" d="M616.6,419.5c0.5-5.4-0.4-10.8-2.4-15.9c0.1-2.5,1.6-4.7,4-5.8c2.3-1,5-0.7,6.9,0.9c5.7,5.1,8.2,13,6.3,20.4
				c-3.1,19.3-9.9,37.9-20.2,54.5c-8.8,15-20.7,28-34.9,38c-9.7,5.6-20.9,8-32.1,6.7c-1.8-0.3-3.3-1.3-4.3-2.8c-1-1.5-1.3-3.3-0.8-5
				c0.5-1.7,1.6-3.2,3.2-4c1.6-0.8,3.4-0.9,5.1-0.3c9.4-1.1,18.4-4.7,26.1-10.3C596.4,476.4,611.7,449.3,616.6,419.5"/>
			<path class="st7" d="M474,411l35.6,12.8c4,0.3,8-0.7,11.3-2.9l63.7-26.9c5.4-2.2,10.7-4.6,15.9-7.1c1-0.4,2.1-0.4,3.2,0
				c1.6,0.5,2.6,2.1,2.3,3.7c-0.2,1.4-1.1,2.6-2.4,3.2c-2.8,1.8-5.7,3.6-8.5,5.4c-16,9.7-30.1,22.3-41.5,37.1
				c-7.2,13.1-13.9,26.5-20.1,40.1l-2.5,5.5c-4.6,10.3-8.9,20.8-12.9,31.4c7.9,4.1,15.3,9.1,22.1,14.9c1.3,1.9,1.4,4.3,0.2,6.2
				c-1.2,1.9-3.4,3-5.6,2.7c-8.2-3.1-16.1-6.9-23.7-11.4c-5.8,14.1-13.2,27.5-22.2,39.8c-4.6,5-10.2,9-16.5,11.7
				c-35.2,6.2-71.2,6.1-106.4-0.1c-6.2-2.7-11.7-6.6-16.3-11.6c-9-12.3-16.5-25.7-22.2-39.8c-7.6,4.5-15.5,8.3-23.7,11.4
				c-2.2,0.3-4.4-0.7-5.6-2.7c-1.2-1.9-1.1-4.4,0.2-6.2c6.8-5.8,14.2-10.8,22.1-14.9c-4-10.6-8.3-21-12.9-31.4l-2.5-5.5
				c-6.2-13.6-12.9-27-20.1-40.1c-11.4-14.9-25.4-27.5-41.5-37.1c-2.8-1.8-5.6-3.6-8.5-5.4c-1.2-0.6-2.1-1.8-2.4-3.2
				c-0.3-1.6,0.7-3.3,2.3-3.7c1-0.3,2.2-0.3,3.2,0c5.3,2.5,10.6,4.8,15.9,7.1l63.7,26.9c3.3,2.2,7.3,3.2,11.3,2.9l31.3-11.3
				c18.6-9.3,38.9-15,59.7-16.6C438.9,397.4,457.2,402.5,474,411 M419.4,427.4c-19,1.6-37.7,6.3-55.1,13.9c-15.4,5-31,9.4-46.8,13.1
				l-0.8,0.2c10.2,25.3,21.5,50.2,33.8,74.6c3.5,6.9,7.8,13.4,12.8,19.3c36.7,8.4,74.7,8.5,111.4,0.2c5.6-4.9,9.9-11.1,12.7-18
				c12.6-24.9,24.1-50.3,34.6-76.2l-0.8-0.2c-15.8-3.7-31.4-8-46.8-13.1C457.1,433.7,438.4,429,419.4,427.4z"/>
			<path class="st7" d="M469.8,627.2c9.6-9,18.1-19.2,25.3-30.2c2.4-3.4,4.6-6.8,6.7-10.3c4.4-7.4,8.8-14.8,13.4-22.2
				c5.2-7.7,9.9-15.7,14.3-23.8c0.1-0.1,0.1-0.3,0.2-0.4c0.1-0.2,0.1-0.3,0.2-0.4c0.1-0.2,0.3-0.4,0.6-0.5c0.2-0.1,0.4-0.2,0.6-0.3
				c0.9-0.3,1.9-0.2,2.7,0.4c0.8,0.5,1.3,1.4,1.3,2.4c-2.3,10.1-5.3,19.9-9,29.6c-3.6,9.2-7.9,18.2-12.9,26.8
				c-9,16-20.6,30.5-34.1,42.9c-33.9,30.1-84.9,30.3-119,0.4c-13.8-12.5-25.5-27.1-34.6-43.3c-5-8.6-9.3-17.5-12.9-26.8
				c-3.7-9.6-6.7-19.5-9-29.6c0-1,0.5-1.9,1.3-2.4c0.8-0.6,1.8-0.7,2.7-0.4c0.2,0.1,0.4,0.2,0.6,0.3c0.2,0.1,0.4,0.3,0.6,0.5
				c0.1,0.1,0.2,0.3,0.2,0.4c0.1,0.1,0.1,0.3,0.2,0.4c4.3,8.2,9.1,16.1,14.3,23.8c4.6,7.3,9,14.7,13.4,22.2
				c2.2,3.5,4.4,6.9,6.8,10.3c7.3,11.1,15.9,21.3,25.6,30.5C397.3,654.7,442,654.6,469.8,627.2"/>
			<path class="st7" d="M411.3,133.1c36.9-0.9,73.8,3.6,109.5,13.2c18.9,5.3,36.9,13.4,53.3,24.1c18,12.2,32.8,28.6,43.1,47.9
				c5.5,9.9,9.5,20.5,11.8,31.6c5.8,27.7,5.1,56.5-2.3,83.8c-3.4,13-9.6,25.1-18.3,35.4c-2.5,3.9-7.6,5.1-11.5,2.7
				c-3.9-2.3-5.3-7.4-3.2-11.4c20.3-38.1,23.8-83,9.5-123.8c-5.8-12.9-13.9-24.6-23.9-34.6c-15.9-16-35.8-27.3-57.6-32.8
				c-33-8.8-67-13.4-101.2-13.6c-32.8-0.9-65.5,3.1-97.1,11.9c-21.7,4.5-41.8,14.6-58.3,29.4c-10.7,9.2-19.7,20.1-26.9,32.3
				c-17.4,42.5-15,90.6,6.7,131.2c2.2,4,0.8,9.1-3.2,11.4c-4,2.3-9,1.1-11.5-2.7c-8.7-10.3-15-22.4-18.3-35.4
				c-7.3-27.4-8.1-56.1-2.3-83.9c2.3-11.1,6.3-21.7,11.8-31.6c10.3-19.2,25.1-35.6,43.1-47.9c12-7.8,24.9-14.3,38.3-19.3
				C338,139.6,374.5,133.5,411.3,133.1"/>
			<path class="st7" d="M262.9,326.7c-2,4.8-3.7,9.7-5.1,14.7l0-0.3c-6-20.1,0.9-41.9,17.5-54.9c9.4-7.7,20.9-12.4,32.9-13.5
				c26.4-2.7,53.1,1.6,77.3,12.5l12.3,5.3c5.3,1.6,10.7,2.9,16.1,4.1c12.1,2.9,24.5,3.7,36.9,2.4c36.6-7.5,70.7-24.2,99-48.6
				l0.3,0.1c-1.6,9.2-1.9,18.6-0.9,27.9c1.1,12.2,2.6,24.4,4.4,36.5c1.4,8.8,3.9,17.4,7.5,25.5l0.4,1.1
				c-17.2-14.6-26.2-36.5-24.3-59c-19.1,10.6-39.1,19.4-59.8,26.2c-20,6.7-41.3,8.5-62.2,5.3c-13-2.7-25.8-6.3-38.3-10.9
				c-12.5-4.6-25.4-8.3-38.4-11.2c-3.6-0.3-7.3-0.4-10.9-0.4c-9.3,0-18.4,1.6-27.1,4.7c-6.9,2.4-13.5,5.8-19.4,10.2
				C272.6,309.6,266.2,317.4,262.9,326.7"/>
			<path class="st7" d="M222.2,419.5c4.9,29.8,20.2,56.9,43.2,76.5c7.7,5.6,16.6,9.1,26.1,10.3c1.7-0.6,3.5-0.5,5.1,0.3
				c1.6,0.8,2.8,2.3,3.2,4c0.5,1.7,0.2,3.6-0.8,5c-1,1.5-2.5,2.5-4.3,2.8c-11.1,1.2-22.4-1.1-32.1-6.7c-14.2-10-26.1-23-34.9-38
				c-10.3-16.7-17.2-35.2-20.2-54.5c-1.9-7.4,0.5-15.3,6.3-20.4c2-1.6,4.6-1.9,6.9-0.9c2.3,1,3.8,3.3,3.9,5.8
				C222.6,408.7,221.8,414.1,222.2,419.5"/>
		</g>
	</g>
</g>
</svg>
