<?xml version="1.0" encoding="utf-8"?>
<!-- Generator: Adobe Illustrator 22.0.0, SVG Export Plug-In . SVG Version: 6.00 Build 0)  -->
<svg version="1.1" id="Layer_1" xmlns="http://www.w3.org/2000/svg" xmlns:xlink="http://www.w3.org/1999/xlink" x="0px" y="0px"
	 viewBox="0 0 841.9 1190.6" style="enable-background:new 0 0 841.9 1190.6;" xml:space="preserve">
<style type="text/css">
	.st0{fill:none;}
	.st1{fill:#010101;}
	.st2{fill:#FFFFFF;}
	.st3{fill:#154989;}
	.st4{fill:#EB2627;}
	.st5{fill:#2A3B8F;}
	.st6{fill:#FFFFFF;stroke:#FFFFFF;stroke-miterlimit:10;}
	.st7{fill-rule:evenodd;clip-rule:evenodd;fill:#FFFFFF;}
	.st8{fill-rule:evenodd;clip-rule:evenodd;fill:#154989;}
	.st9{fill:#2F3690;}
</style>
<g>
	<g>
		<rect x="0" y="0" class="st0" width="841.9" height="1190.6"/>
		<rect x="28.3" y="28.3" class="st1" width="785.2" height="1133.9"/>
		<rect x="34" y="34" class="st2" width="773.9" height="1122.5"/>
		<rect x="52.5" y="792.6" class="st3" width="737" height="348.7"/>
		<g id="stecon_9_">
			<path id="red_9_" class="st4" d="M52.8,53.5c42.5,0,85,0,127.6,0c0,22.6,0,45.1,0,67.7c-42.5,0-85,0-127.5,0c0-0.2,0-0.5,0-0.7
				c0-22.1,0-44.2,0-66.3C52.9,54,52.8,53.8,52.8,53.5z M55.8,87.4c0.2,0.1,0.4,0.2,0.5,0.3c3.6,1.8,7.1,3.7,10.7,5.5
				c16.4,8.4,32.7,16.8,49.1,25.2c0.4,0.2,0.7,0.2,1.1,0c13.8-7.1,27.6-14.2,41.4-21.3c6.1-3.2,12.3-6.3,18.4-9.5
				c0.1-0.1,0.3-0.2,0.5-0.3c-0.2-0.1-0.3-0.2-0.5-0.3c-3.8-1.9-7.6-3.9-11.4-5.8c-16.2-8.3-32.4-16.7-48.5-25
				c-0.3-0.2-0.5-0.2-0.9,0c-7,3.6-14.1,7.3-21.1,10.9c-12.6,6.5-25.2,12.9-37.7,19.4C56.9,86.8,56.4,87.1,55.8,87.4z"/>
			<g id="white_9_">
				<path class="st2" d="M55.8,87.4c0.6-0.3,1.1-0.6,1.6-0.8c12.6-6.5,25.2-12.9,37.7-19.4c7-3.6,14.1-7.2,21.1-10.9
					c0.3-0.2,0.6-0.1,0.9,0c16.2,8.3,32.4,16.7,48.5,25c3.8,1.9,7.6,3.9,11.4,5.8c0.1,0.1,0.3,0.1,0.5,0.3c-0.2,0.1-0.3,0.2-0.5,0.3
					c-6.1,3.2-12.3,6.3-18.4,9.5c-13.8,7.1-27.6,14.2-41.4,21.3c-0.4,0.2-0.7,0.2-1.1,0C99.7,110,83.4,101.6,67,93.1
					c-3.6-1.8-7.1-3.7-10.7-5.5C56.2,87.6,56,87.5,55.8,87.4z M59.7,87.4c0.2,0.1,0.3,0.2,0.4,0.2c1,0.5,1.9,1,2.9,1.5
					c17.7,9.1,35.5,18.2,53.2,27.3c0.3,0.1,0.5,0.2,0.8,0c12.9-6.6,25.7-13.2,38.6-19.8c5.8-3,11.6-6,17.5-9
					c0.1-0.1,0.3-0.2,0.5-0.3c-0.2-0.1-0.4-0.2-0.6-0.3c-15.9-8.2-31.9-16.4-47.8-24.5c-2.7-1.4-5.5-2.8-8.2-4.2
					c-0.2-0.1-0.4-0.1-0.7,0c-0.3,0.2-0.7,0.4-1.1,0.6C97,68.3,78.6,77.6,60.3,87C60.1,87.1,60,87.2,59.7,87.4z"/>
				<path class="st2" d="M147.4,79.5c1.4,0,2.7,0,4.1,0c0,5.2,0,10.3,0,15.4c-1.4,0-2.8,0-4.2,0c-0.9-2.6-1.8-5.3-2.7-7.9
					c0,0-0.1,0-0.1,0c0,2.6,0,5.2,0,7.9c-1.4,0-2.7,0-4,0c0,0,0,0,0,0c0,0,0,0,0,0c0-0.1,0-0.2,0-0.3c0-4.9,0-9.9,0-14.8
					c0,0,0-0.1,0-0.2c0.1,0,0.3,0,0.4,0c1.2,0,2.3,0,3.5,0c0.4,0,0.4,0,0.5,0.4c0.8,2.5,1.6,5,2.4,7.5c0,0.1,0.1,0.2,0.2,0.4
					C147.4,85,147.4,82.3,147.4,79.5z"/>
				<path class="st2" d="M138.8,87.3c0,1.5,0,3,0,4.5c0,0.8-0.3,1.4-0.8,1.9c-0.7,0.7-1.6,1.2-2.6,1.3c-1.5,0.3-3.1,0.3-4.6-0.1
					c-0.9-0.2-1.6-0.6-2.3-1.3c-0.5-0.5-0.8-1.1-0.8-1.9c0-3,0-6.1,0-9.1c0-0.7,0.2-1.3,0.7-1.8c0.6-0.7,1.4-1.2,2.3-1.4
					c1.7-0.4,3.5-0.4,5.2,0.1c0.7,0.2,1.4,0.6,2,1.2c0.6,0.5,0.9,1.2,0.8,2C138.8,84.3,138.8,85.8,138.8,87.3z M134.2,87.3
					c0-1.5,0-2.9,0-4.4c0-0.7-0.1-0.9-0.8-0.9c-0.1,0-0.2,0-0.2,0c-0.5,0.1-0.6,0.2-0.6,0.7c0,3,0,6,0,9c0,0.5,0.1,0.7,0.6,0.7
					c0.2,0,0.3,0,0.5,0c0.5-0.1,0.6-0.2,0.6-0.7C134.2,90.3,134.2,88.8,134.2,87.3z"/>
				<path class="st2" d="M126.7,88.9c0,0.2,0,0.3,0,0.5c0,0.8,0,1.6,0,2.4c0,0.8-0.3,1.5-0.9,2c-0.7,0.7-1.5,1.1-2.5,1.3
					c-1.5,0.3-3,0.3-4.5-0.1c-0.8-0.2-1.5-0.6-2.2-1.2c-0.6-0.6-0.9-1.2-0.9-2.1c0-3,0-5.9,0-8.9c0-0.9,0.3-1.6,0.9-2.1
					c0.7-0.7,1.6-1.1,2.5-1.2c1.4-0.2,2.9-0.2,4.3,0.1c0.9,0.2,1.6,0.6,2.3,1.2c0.6,0.6,0.9,1.2,0.9,2.1c0,0.8,0,1.7,0,2.5
					c0,0.2,0,0.3,0,0.5c-1.6,0-3.1,0-4.6,0c0-0.2,0-0.3,0-0.5c0-0.9,0-1.7,0-2.6c0-0.5-0.1-0.6-0.6-0.7c-0.1,0-0.2,0-0.3,0
					c-0.7,0.1-0.7,0.3-0.7,0.8c0,2.9,0,5.9,0,8.8c0,0.1,0,0.2,0,0.3c0,0.2,0.1,0.4,0.3,0.4c0.1,0,0.3,0.1,0.4,0.1
					c0.6,0.1,0.8-0.2,0.8-0.8c0-0.8,0-1.5,0-2.3c0-0.2,0-0.3,0-0.5C122.4,88.8,126,88.8,126.7,88.9z"/>
				<path class="st2" d="M105.5,94.9c0-5.1,0-10.2,0-15.3c0.4-0.1,8.7-0.1,9.1,0c0,0.8,0,1.6,0,2.5c-0.1,0-0.3,0-0.4,0
					c-1.1,0-2.2,0-3.3,0c-0.1,0-0.3,0-0.5,0c0,1.4,0,2.7,0,4.1c1,0,2.1,0,3.1,0c0,0.8,0,1.5,0,2.2c-0.4,0.1-0.7,0.1-1,0.1
					c-0.3,0-0.7,0-1,0c-0.3,0-0.7,0-1,0c-0.1,0.3-0.1,2.8,0,3.7c0.1,0,0.3,0,0.5,0c1.1,0,2.2,0,3.3,0c0.2,0,0.3,0,0.5,0
					c0,0.9,0,1.8,0,2.6C114.3,95,106,95,105.5,94.9z"/>
				<path class="st2" d="M101.1,94.9c-1.6,0-3.1,0-4.7,0c0-4.3,0-8.5,0-12.8c-1,0-2,0-3,0c-0.1-0.4-0.1-2.1,0-2.6
					c0.3-0.1,10.4-0.1,10.8,0c0.1,0.3,0.1,2.1,0,2.6c-1,0-2,0-3,0C101.1,86.4,101.1,90.6,101.1,94.9z"/>
				<path class="st2" d="M92.1,84.9c-1.6,0-3.1,0-4.6,0c0-0.2,0-0.3,0-0.5c0-0.6,0-1.2,0-1.8c0-0.4-0.1-0.6-0.5-0.6
					c-0.1,0-0.2,0-0.4,0c-0.3,0-0.5,0.2-0.5,0.5c0,0.6,0,1.1,0,1.7c0,0.4,0.2,0.6,0.5,0.8c0.4,0.2,0.7,0.4,1.1,0.7
					c1,0.6,2,1.1,2.9,1.7c0.1,0.1,0.3,0.2,0.4,0.3c0.7,0.5,1.1,1.2,1.1,2.1c0,0.7,0,1.3,0,2c0,0.7-0.2,1.3-0.7,1.7
					c-0.7,0.7-1.5,1.2-2.4,1.4c-1.5,0.4-3.1,0.4-4.7,0c-0.8-0.2-1.6-0.6-2.2-1.2c-0.6-0.5-0.9-1.2-0.9-2.1c0-0.8,0-1.5,0-2.3
					c0.3-0.1,3.9-0.1,4.5,0c0,0.1,0,0.3,0,0.4c0,0.7,0,1.3,0,2c0,0.4,0.1,0.6,0.5,0.6c0.2,0,0.5,0,0.7-0.1c0.2,0,0.3-0.2,0.3-0.4
					c0-0.6,0-1.2,0-1.8c0-0.3-0.2-0.6-0.4-0.7c-0.4-0.3-0.8-0.5-1.2-0.8c-1-0.6-2-1.2-2.9-1.8c-0.3-0.2-0.6-0.4-0.9-0.7
					c-0.4-0.4-0.6-0.9-0.6-1.5c0-0.7,0-1.3,0-2c0-0.8,0.3-1.4,0.8-1.9c0.7-0.7,1.6-1.2,2.6-1.4c1.4-0.3,2.8-0.3,4.2,0.1
					c0.9,0.2,1.7,0.7,2.3,1.3c0.5,0.5,0.8,1.1,0.8,1.9C92.1,83.5,92.1,84.2,92.1,84.9z"/>
			</g>
			<g id="blue_9_">
				<path class="st5" d="M59.7,87.4c0.3-0.1,0.5-0.2,0.7-0.3c18.3-9.4,36.6-18.8,54.9-28.1c0.4-0.2,0.7-0.4,1.1-0.6
					c0.2-0.1,0.4-0.1,0.7,0c2.7,1.4,5.4,2.8,8.2,4.2c15.9,8.2,31.9,16.4,47.8,24.5c0.2,0.1,0.3,0.2,0.6,0.3
					c-0.2,0.1-0.3,0.2-0.5,0.3c-5.8,3-11.6,6-17.5,9c-12.9,6.6-25.7,13.2-38.6,19.8c-0.3,0.1-0.5,0.1-0.8,0
					C98.5,107.3,80.8,98.2,63,89.1c-1-0.5-1.9-1-2.9-1.5C60,87.5,59.9,87.5,59.7,87.4z M147.4,79.5c0,2.8,0,5.5,0,8.3
					c-0.1-0.1-0.1-0.2-0.2-0.4c-0.8-2.5-1.6-5-2.4-7.5c-0.1-0.4-0.1-0.4-0.5-0.4c-1.2,0-2.3,0-3.5,0c-0.1,0-0.3,0-0.4,0
					c0,0.1,0,0.1,0,0.2c0,4.9,0,9.9,0,14.8c0,0.1,0,0.2,0,0.3c0,0,0,0,0,0c0,0,0,0,0,0c1.3,0,2.7,0,4,0c0-2.7,0-5.3,0-7.9
					c0,0,0.1,0,0.1,0c0.9,2.6,1.8,5.3,2.7,7.9c1.4,0,2.8,0,4.2,0c0-5.1,0-10.2,0-15.4C150.2,79.5,148.8,79.5,147.4,79.5z
					 M138.8,87.3c0-1.5,0-3,0-4.5c0-0.8-0.3-1.5-0.8-2c-0.6-0.6-1.2-1-2-1.2c-1.7-0.5-3.5-0.5-5.2-0.1c-0.9,0.2-1.7,0.7-2.3,1.4
					c-0.4,0.5-0.7,1.1-0.7,1.8c0,3,0,6.1,0,9.1c0,0.8,0.3,1.4,0.8,1.9c0.6,0.7,1.4,1.1,2.3,1.3c1.5,0.3,3.1,0.3,4.6,0.1
					c1-0.2,1.8-0.6,2.6-1.3c0.5-0.5,0.8-1.2,0.8-1.9C138.8,90.3,138.8,88.8,138.8,87.3z M126.7,88.9c-0.6-0.1-4.3-0.1-4.7,0
					c0,0.1,0,0.3,0,0.5c0,0.8,0,1.5,0,2.3c0,0.7-0.2,0.9-0.8,0.8c-0.1,0-0.3,0-0.4-0.1c-0.2-0.1-0.3-0.2-0.3-0.4c0-0.1,0-0.2,0-0.3
					c0-2.9,0-5.9,0-8.8c0-0.5,0-0.7,0.7-0.8c0.1,0,0.2,0,0.3,0c0.5,0.1,0.6,0.2,0.6,0.7c0,0.9,0,1.7,0,2.6c0,0.2,0,0.3,0,0.5
					c1.6,0,3.1,0,4.6,0c0-0.2,0-0.4,0-0.5c0-0.8,0-1.7,0-2.5c0-0.9-0.3-1.5-0.9-2.1c-0.7-0.6-1.4-1-2.3-1.2
					c-1.4-0.3-2.9-0.3-4.3-0.1c-0.9,0.2-1.8,0.6-2.5,1.2c-0.6,0.6-0.9,1.3-0.9,2.1c0,3,0,5.9,0,8.9c0,0.9,0.3,1.6,0.9,2.1
					c0.6,0.6,1.4,1,2.2,1.2c1.5,0.3,3,0.3,4.5,0.1c0.9-0.2,1.8-0.6,2.5-1.3c0.6-0.5,0.9-1.2,0.9-2c0-0.8,0-1.6,0-2.4
					C126.7,89.2,126.7,89.1,126.7,88.9z M92.1,84.9c0-0.7,0-1.4,0-2.1c0-0.8-0.3-1.4-0.8-1.9c-0.7-0.7-1.4-1.1-2.3-1.3
					c-1.4-0.3-2.8-0.3-4.2-0.1c-1,0.2-1.9,0.6-2.6,1.4c-0.5,0.5-0.8,1.1-0.8,1.9c0,0.7,0,1.3,0,2c0,0.6,0.2,1.1,0.6,1.5
					c0.3,0.2,0.6,0.5,0.9,0.7c1,0.6,2,1.2,2.9,1.8c0.4,0.2,0.8,0.5,1.2,0.8c0.2,0.2,0.4,0.4,0.4,0.7c0,0.6,0,1.2,0,1.8
					c0,0.2-0.1,0.4-0.3,0.4c-0.2,0-0.5,0.1-0.7,0.1c-0.4,0-0.5-0.2-0.5-0.6c0-0.7,0-1.3,0-2c0-0.1,0-0.3,0-0.4
					c-0.6-0.1-4.2-0.1-4.5,0c0,0.7,0,1.5,0,2.3c0,0.9,0.3,1.5,0.9,2.1c0.6,0.6,1.4,1,2.2,1.2c1.6,0.4,3.1,0.3,4.7,0
					c0.9-0.2,1.7-0.7,2.4-1.4c0.4-0.5,0.7-1.1,0.7-1.7c0-0.7,0-1.3,0-2c0-0.9-0.4-1.6-1.1-2.1c-0.1-0.1-0.3-0.2-0.4-0.3
					c-1-0.6-2-1.1-2.9-1.7c-0.4-0.2-0.7-0.4-1.1-0.7c-0.3-0.2-0.5-0.4-0.5-0.8c0-0.6,0-1.1,0-1.7c0-0.3,0.2-0.5,0.5-0.5
					c0.1,0,0.2,0,0.4,0c0.4,0,0.5,0.2,0.5,0.6c0,0.6,0,1.2,0,1.8c0,0.1,0,0.3,0,0.5C89.1,84.9,90.6,84.9,92.1,84.9z M105.5,94.9
					c0.5,0.1,8.8,0.1,9.1,0c0-0.9,0-1.7,0-2.6c-0.2,0-0.3,0-0.5,0c-1.1,0-2.2,0-3.3,0c-0.2,0-0.3,0-0.5,0c-0.1-0.8,0-3.3,0-3.7
					c0.3,0,0.7,0,1,0c0.3,0,0.7,0,1,0c0.3,0,0.7,0.1,1-0.1c0-0.7,0-1.5,0-2.2c-1.1,0-2.1,0-3.1,0c0-1.4,0-2.7,0-4.1
					c0.2,0,0.3,0,0.5,0c1.1,0,2.2,0,3.3,0c0.1,0,0.3,0,0.4,0c0-0.9,0-1.7,0-2.5c-0.4-0.1-8.7-0.1-9.1,0
					C105.5,84.7,105.5,89.8,105.5,94.9z M101.1,94.9c0-4.3,0-8.5,0-12.8c1,0,2,0,3,0c0.1-0.5,0.1-2.2,0-2.6
					c-0.4-0.1-10.5-0.1-10.8,0c-0.1,0.4-0.1,2.2,0,2.6c1,0,2,0,3,0c0,4.3,0,8.5,0,12.8C97.9,94.9,99.5,94.9,101.1,94.9z"/>
				<path class="st5" d="M134.2,87.3c0,1.5,0,3,0,4.5c0,0.5-0.1,0.6-0.6,0.7c-0.2,0-0.3,0-0.5,0c-0.5-0.1-0.6-0.2-0.6-0.7
					c0-3,0-6,0-9c0-0.5,0.1-0.6,0.6-0.7c0.1,0,0.2,0,0.2,0c0.7,0,0.8,0.1,0.8,0.9C134.2,84.4,134.2,85.9,134.2,87.3z"/>
			</g>
		</g>
	</g>
	<g>
		<path class="st6" d="M224.4,1051.3l-8.2-53.7h7.1l5.2,36.9l6.3-36.9h8.3l6.1,37.5l5.3-37.5h7l-8.4,53.7h-7.4l-6.9-40.1l-6.9,40.1
			H224.4z"/>
		<path class="st6" d="M265,1051.3v-53.7h25.6v9.1H272v11.9h17.3v9H272v14.6h19.3v9H265z"/>
		<path class="st6" d="M328.4,1051.3h-7.6l-3-12.2h-13.8l-2.9,12.2h-7.4l13.5-53.7h7.4L328.4,1051.3z M315.5,1030l-4.8-19.9
			l-4.7,19.9H315.5z"/>
		<path class="st6" d="M332.1,1051.3v-53.7h14.7c3.7,0,6.4,0.5,8,1.4c1.7,1,3,2.7,4,5.1c1,2.5,1.5,5.3,1.5,8.5c0,4-0.8,7.4-2.3,10
			c-1.5,2.6-3.8,4.3-6.8,5c1.5,1.4,2.8,2.9,3.7,4.5c1,1.6,2.3,4.5,4,8.7l4.2,10.5h-8.3l-5-11.7c-1.8-4.2-3-6.8-3.7-7.9
			c-0.7-1.1-1.4-1.8-2.1-2.2c-0.7-0.4-1.9-0.6-3.5-0.6h-1.4v22.4H332.1z M339.1,1020.3h5.2c3.3,0,5.4-0.2,6.3-0.7
			c0.8-0.4,1.5-1.2,2-2.3c0.5-1.1,0.7-2.4,0.7-4c0-1.8-0.3-3.3-0.9-4.4c-0.6-1.1-1.5-1.8-2.6-2.1c-0.6-0.1-2.3-0.2-5.1-0.2h-5.4
			V1020.3z"/>
		<path class="st6" d="M393.7,1051.3v-53.7h25.6v9.1h-18.6v11.9h17.3v9h-17.3v14.6H420v9H393.7z"/>
		<path class="st6" d="M457.1,1051.3h-7.6l-3-12.2h-13.8l-2.9,12.2h-7.4l13.5-53.7h7.4L457.1,1051.3z M444.2,1030l-4.8-19.9
			l-4.7,19.9H444.2z"/>
		<path class="st6" d="M460.8,1051.3v-53.7h14.7c3.7,0,6.4,0.5,8,1.4c1.7,1,3,2.7,4,5.1c1,2.5,1.5,5.3,1.5,8.5c0,4-0.8,7.4-2.3,10
			c-1.5,2.6-3.8,4.3-6.8,5c1.5,1.4,2.8,2.9,3.7,4.5c1,1.6,2.3,4.5,4,8.7l4.2,10.5h-8.3l-5-11.7c-1.8-4.2-3-6.8-3.7-7.9
			c-0.7-1.1-1.4-1.8-2.1-2.2c-0.7-0.4-1.9-0.6-3.5-0.6h-1.4v22.4H460.8z M467.8,1020.3h5.2c3.3,0,5.4-0.2,6.3-0.7
			c0.8-0.4,1.5-1.2,2-2.3c0.5-1.1,0.7-2.4,0.7-4c0-1.8-0.3-3.3-0.9-4.4c-0.6-1.1-1.5-1.8-2.6-2.1c-0.6-0.1-2.3-0.2-5.1-0.2h-5.4
			V1020.3z"/>
		<path class="st6" d="M495.5,1051.3v-53.7H506l6.3,36.6l6.2-36.6h10.5v53.7h-6.5V1009l-6.9,42.3h-6.7L502,1009v42.3H495.5z"/>
		<path class="st6" d="M535.8,997.6h7v29.1c0,4.6,0.1,7.6,0.3,9c0.3,2.2,1,4,2.1,5.3c1.1,1.3,2.7,2,4.6,2c2,0,3.5-0.6,4.5-1.9
			c1-1.3,1.6-2.8,1.8-4.6c0.2-1.8,0.3-4.9,0.3-9.1v-29.7h7v28.2c0,6.4-0.2,11-0.6,13.7c-0.4,2.7-1.1,4.9-2.1,6.7
			c-1,1.8-2.4,3.3-4.1,4.4s-3.9,1.6-6.6,1.6c-3.3,0-5.8-0.6-7.5-1.8c-1.7-1.2-3.1-2.7-4-4.6s-1.6-3.9-2-6c-0.5-3.1-0.7-7.6-0.7-13.6
			V997.6z"/>
		<path class="st6" d="M570.7,1051.3v-53.7h23.7v9.1h-16.7v12.7h14.4v9.1h-14.4v22.8H570.7z"/>
		<path class="st6" d="M600.2,1051.3v-53.7h23.7v9.1h-16.7v12.7h14.4v9.1h-14.4v22.8H600.2z"/>
	</g>
	<g>
		<path class="st6" d="M115.3,934.1h-7.5v-22.5c0-2.6-1.4-4.6-4.1-6c-2.1-1-4.4-1.6-7-1.6c-2.5,0-4.6,0.7-6.4,2
			c-2.2,1.6-3.3,3.6-3.3,6.2v3.3c1.1-0.2,1.9-0.3,2.2-0.3c2.6,0,4.8,1,6.6,2.9c1.9,2,2.8,4.3,2.8,7c0,2.8-1,5.1-2.9,7
			c-1.9,1.9-4.2,2.9-6.6,2.9c-2.7,0-4.9-0.9-6.8-2.8c-1.9-1.9-2.8-4.2-2.8-7.1v-12c0-5.1,1.8-9.1,5.3-12c3.1-2.5,7-3.8,11.7-3.8
			c5,0,8.7,1.5,11.2,4.4v-5.8c0-2.7-1.5-4.7-4.4-6.2c-2.3-1.1-4.8-1.7-7.6-1.7c-3.1,0-5.8,0.8-8.1,2.3c-2.5,1.7-4,4-4.5,6.9H76
			c0.5-5.3,2.6-9.4,6.4-12.2c3.5-2.7,8.1-4,13.7-4c3.6,0,6.9,0.7,9.8,2.1c1.7-1.6,2.5-3.7,2.5-6.2h8.5c-1,4.4-2.7,7.8-5.2,10.3
			c2.4,2.8,3.6,6,3.6,9.6V934.1z M93.3,925.1c0-1.2-0.4-2.3-1.2-3.1c-0.8-0.9-1.8-1.3-2.9-1.3c-1.1,0-2.1,0.4-2.9,1.3
			c-0.8,0.9-1.2,1.9-1.2,3.1c0,1.2,0.4,2.3,1.2,3.1c0.8,0.9,1.8,1.3,2.9,1.3c1.1,0,2.1-0.4,2.9-1.3
			C92.9,927.4,93.3,926.4,93.3,925.1z"/>
		<path class="st6" d="M161.1,924.6c0,3-0.9,5.5-2.8,7.5c-1.9,1.9-4.2,2.9-6.9,2.9c-2.6,0-4.8-1-6.5-2.9c-1.8-1.9-2.7-4.2-2.7-6.9
			c0-2.8,0.9-5.1,2.7-7.1c1.8-1.9,3.9-2.9,6.5-2.9c0.9,0,1.6,0,2.2,0.1v-18.9c0-5.5-3.7-8.2-11.1-8.2c-3.1,0-5.7,1-7.8,3
			c-2.1,2-3.2,4.7-3.2,8h-7.3c0.2-5.7,2-10.2,5.3-13.3c3.3-3.2,7.6-4.7,13-4.7c5.3,0,9.6,1.1,12.8,3.4c3.9,2.7,5.8,6.8,5.8,12.4
			V924.6z M155.5,925.1c0-1.2-0.4-2.3-1.2-3.1c-0.8-0.9-1.8-1.3-2.9-1.3c-1.1,0-2.1,0.4-2.9,1.3c-0.8,0.9-1.2,1.9-1.2,3.1
			c0,1.2,0.4,2.3,1.2,3.1c0.8,0.9,1.8,1.3,2.9,1.3c1.1,0,2.1-0.4,2.9-1.3C155.1,927.4,155.5,926.4,155.5,925.1z"/>
		<path class="st6" d="M211.4,934.1H204c-4.7-4.5-9.4-7.7-14.1-9.5v0.7c0,2.8-1,5.1-3,7c-2,1.9-4.2,2.9-6.7,2.9c-2.7,0-5-1-6.9-3.1
			s-2.9-4.5-2.9-7.4c0-2.9,1-5.3,2.9-7.3c1.9-2,4.2-3.1,6.9-3.1h0.8v-13.5c-0.8,0.2-1.5,0.3-2.1,0.3c-2.6,0-4.8-1-6.5-2.9
			c-1.8-2-2.7-4.3-2.7-7.1c0-2.7,0.9-5,2.7-6.9c1.8-1.9,3.9-2.9,6.5-2.9c2.7,0,5,1,6.8,3c1.8,2,2.7,4.5,2.7,7.5v24.7
			c6.4,2.3,11.5,5.4,15.5,9.2v-43.4h7.5V934.1z M183.1,891.1c0-1.2-0.4-2.3-1.2-3.1c-0.8-0.9-1.8-1.3-2.9-1.3
			c-1.1,0-2.1,0.4-2.9,1.3c-0.8,0.9-1.2,1.9-1.2,3.1c0,1.2,0.4,2.3,1.2,3.1c0.8,0.9,1.8,1.3,2.9,1.3c1.1,0,2.1-0.4,2.9-1.3
			C182.6,893.3,183.1,892.3,183.1,891.1z M184.3,924.6c0-1.2-0.4-2.3-1.2-3.1c-0.8-0.9-1.8-1.3-2.9-1.3c-1.1,0-2.1,0.4-2.9,1.3
			c-0.8,0.9-1.2,1.9-1.2,3.1c0,1.2,0.4,2.3,1.2,3.1c0.8,0.9,1.8,1.3,2.9,1.3c1.1,0,2.1-0.4,2.9-1.3
			C183.9,926.9,184.3,925.8,184.3,924.6z"/>
		<path class="st6" d="M264.4,934.1h-7.5v-42c0-2.7-0.6-4-1.8-4c-1,0-1.8,0.6-2.2,1.9l-14.4,44.1h-8.5v-33.4
			c-0.8,0.2-1.5,0.3-2.1,0.3c-2.6,0-4.8-1-6.5-2.9c-1.8-2-2.7-4.3-2.7-7.1c0-2.7,0.9-5,2.7-6.9c1.8-1.9,3.9-2.9,6.5-2.9
			c2.7,0,5,1,6.8,3c1.8,2,2.7,4.5,2.7,7.5v19.4c0,2.9-0.5,7.5-1.4,13.8c0.9-3.8,2-8.1,3.4-12.7l6.8-23.1c1.5-5.3,4.6-7.9,9.1-7.8
			c6,0.1,9.1,3.8,9.1,11V934.1z M232.1,891.1c0-1.2-0.4-2.3-1.2-3.1c-0.8-0.9-1.8-1.3-2.9-1.3c-1.1,0-2.1,0.4-2.9,1.3
			c-0.8,0.9-1.2,1.9-1.2,3.1c0,1.2,0.4,2.3,1.2,3.1c0.8,0.9,1.8,1.3,2.9,1.3c1.1,0,2.1-0.4,2.9-1.3
			C231.7,893.3,232.1,892.3,232.1,891.1z"/>
		<path class="st6" d="M264.6,875.6c-10-3.5-19.1-5.2-27.4-5.2c-3.8,0-7.6,0.3-11.5,0.8c1-11.6,6.8-17.4,17.6-17.4
			c5.7,0,10.3,1.7,13.8,5.1v-9h7.3v23.9C264.5,874.4,264.5,875,264.6,875.6z M256.9,867.9c-0.5-2.2-1.9-4.2-4.4-6.1
			c-2.4-1.9-5.2-2.9-8.2-2.9c-2.9,0-5.4,0.6-7.5,1.9c-2.1,1.3-3.4,2.9-4,5c1.4-0.3,3.5-0.5,6.4-0.5
			C245.2,865.3,251.1,866.2,256.9,867.9z"/>
		<path class="st6" d="M264.4,846.1h-7.3v-14.8h7.3V846.1z"/>
		<path class="st6" d="M313.1,934.1h-7.5v-35.4c0-3.1-1.2-5.7-3.7-7.8c-2.3-1.8-5-2.7-8.1-2.7c-3.6,0-6.5,1.3-8.7,3.9
			c-2.2,2.6-3.3,5.6-3.3,9.1c0,1,0.2,2.5,0.5,4.7c0.4,2.2,0.5,4.1,0.5,5.8v3.6c0-0.1,0.1-1,0.4-2.8c0.3-1.8,0.5-3.1,0.5-4.1
			c0.8-3.6,2.1-6.7,3.7-9.1c2.1-3.1,4.5-4.7,7.3-4.7c2.2,0,4.1,0.8,5.7,2.5c1.6,1.6,2.4,3.6,2.4,6c0,2.3-0.8,4.2-2.4,5.9
			c-1.6,1.7-3.5,2.5-5.7,2.5c-2,0-3.8-0.8-5.4-2.3c-2.4,7.9-3.6,16.2-3.6,24.8h-7.5v-8.3c0-4.1-0.7-8.5-2-13.3
			c-1.3-4.8-2-8.6-2-11.4c0-6,2-10.8,6-14.6c3.8-3.6,8.5-5.3,14-5.3c5.1,0,9.3,1.4,12.8,4.3c3.9,3.3,5.9,7.8,5.9,13.4V934.1z
			 M298.5,903.2c0-1.1-0.4-2.1-1.1-2.9s-1.6-1.2-2.7-1.2c-1,0-1.9,0.4-2.6,1.2c-0.7,0.8-1,1.7-1,2.9c0,1.1,0.3,2.1,1,2.8
			c0.7,0.7,1.6,1.1,2.6,1.1c1,0,1.9-0.4,2.7-1.1C298.1,905.2,298.5,904.3,298.5,903.2z"/>
		<path class="st6" d="M352,925.4c0,2.8-0.9,5.1-2.7,7s-4,2.8-6.6,2.8c-2.6,0-4.8-1-6.6-2.9c-1.8-1.9-2.7-4.2-2.7-7
			c0-2.8,0.9-5.1,2.7-7c1.8-1.9,4-2.9,6.6-2.9c1,0,1.6,0,1.8,0.1v-11.2c0-1.4-2.7-2.8-8-4.1c-5.4-1.3-10.2-2.4-14.6-3.2
			c0.2-4.8,1.3-8.6,3.5-11.5c2.2-2.9,5.3-4.4,9.4-4.4c1.7,0,4,0.4,6.9,1.2c2.9,0.8,5.1,1.2,6.3,1.2c1.4,0,2.1-1,2.3-2.9l5.9,1.7
			c-1.5,5.3-4.1,7.9-8,7.9c-1.5,0-3.5-0.4-6.2-1.1c-2.7-0.7-4.7-1.1-6.1-1.1c-3.5,0-5.6,1.4-6,4.3c6.2,1.4,11.4,2.9,15.6,4.4
			c4.2,1.6,6.3,4.2,6.3,8.1V925.4z M346.8,925.3c0-1.2-0.4-2.3-1.2-3.1c-0.8-0.9-1.8-1.3-2.9-1.3s-2.1,0.4-2.9,1.3
			c-0.8,0.9-1.2,1.9-1.2,3.1c0,1.2,0.4,2.3,1.2,3.1c0.8,0.9,1.8,1.3,2.9,1.3s2.1-0.4,2.9-1.3C346.4,927.5,346.8,926.5,346.8,925.3z"
			/>
		<path class="st6" d="M400.4,922.4c0,4.5-1.9,7.8-5.7,10c-3.1,1.8-7,2.7-11.8,2.7c-4.8,0-8.7-0.9-11.7-2.7c-3.6-2.2-5.4-5.5-5.4-10
			v-13.2c0-3.1,0.8-5.8,2.4-7.9c1.6-2.1,3.9-3.2,6.9-3.2c2.6,0,4.8,0.9,6.5,2.8c1.8,1.9,2.7,4.2,2.7,7c0,2.7-0.9,5-2.7,6.9
			c-1.8,1.9-3.9,2.9-6.5,2.9c-0.7,0-1.3-0.1-1.8-0.3v4c0,4.5,3.3,6.7,9.8,6.7c6.6,0,9.9-2.3,9.9-6.8v-24.8c0-2.8-1.3-5-3.7-6.5
			c-2.1-1.2-4.7-1.8-7.7-1.8c-7.7,0-11.8,2.1-12.4,6.2h-7.3c1-8.8,7.4-13.2,19.1-13.3c5.4,0,9.8,1.1,13.3,3.3
			c4.2,2.8,6.3,6.9,6.3,12.5V922.4z M379.2,907.9c0-1.2-0.4-2.2-1.2-3.1c-0.8-0.9-1.8-1.3-2.9-1.3c-1.1,0-2.1,0.4-2.9,1.3
			c-0.8,0.9-1.2,1.9-1.2,3.1c0,1.2,0.4,2.2,1.2,3.1c0.8,0.9,1.8,1.3,2.9,1.3c1.1,0,2.1-0.4,2.9-1.3
			C378.8,910.1,379.2,909.1,379.2,907.9z"/>
		<path class="st6" d="M454.2,922.4c0,8.5-5.8,12.7-17.5,12.7c-11.8,0-17.6-4.2-17.6-12.7v-21.7c-0.8,0.2-1.5,0.3-2.1,0.3
			c-2.6,0-4.8-1-6.5-2.9c-1.8-2-2.7-4.3-2.7-7.1c0-2.7,0.9-5,2.7-6.9c1.8-1.9,3.9-2.9,6.5-2.9c2.7,0,5,1,6.8,3
			c1.8,2,2.7,4.5,2.7,7.5v30.7c0,1.7,1.1,3.1,3.3,4.1c2.2,1,4.5,1.6,6.9,1.6c2.3,0,4.6-0.5,6.8-1.6c2.2-1,3.3-2.4,3.3-4.1v-40.2h7.5
			V922.4z M421.1,891.1c0-1.2-0.4-2.3-1.2-3.1c-0.8-0.9-1.8-1.3-2.9-1.3c-1.1,0-2.1,0.4-2.9,1.3c-0.8,0.9-1.2,1.9-1.2,3.1
			c0,1.2,0.4,2.3,1.2,3.1c0.8,0.9,1.8,1.3,2.9,1.3c1.1,0,2.1-0.4,2.9-1.3C420.7,893.3,421.1,892.3,421.1,891.1z"/>
		<path class="st6" d="M507.1,934.1h-7.5v-28.9c0-2.3-0.4-3.5-1.3-3.5c-0.6,0-1.6,1.1-2.8,3.3l-15.7,29.1h-7v-33.4
			c-0.8,0.2-1.5,0.3-2.1,0.3c-2.6,0-4.8-1-6.5-2.9c-1.8-2-2.7-4.3-2.7-7.1c0-2.7,0.9-5,2.7-6.9c1.8-1.9,3.9-2.9,6.5-2.9
			c2.7,0,5,1,6.8,3c1.8,2,2.7,4.5,2.7,7.5v19.4c0,2.3-0.5,6.8-1.4,13.8c0.8-3.7,2-7.1,3.6-10.3l6.6-12.3c1.4-2.6,2.7-4.1,3.9-4.4
			c-1.6-2.2-2.4-4.4-2.4-6.8c0-2.8,0.9-5.1,2.7-7c1.8-1.9,3.9-2.9,6.5-2.9c2.6,0,4.8,1,6.5,2.9c1.8,1.9,2.7,4.2,2.7,7
			c0,2.9-1.1,5.4-3.4,7.5c1,2.2,1.6,4.5,1.6,7V934.1z M474.9,891.1c0-1.2-0.4-2.3-1.2-3.1c-0.8-0.9-1.8-1.3-2.9-1.3
			c-1.1,0-2.1,0.4-2.9,1.3c-0.8,0.9-1.2,1.9-1.2,3.1c0,1.2,0.4,2.3,1.2,3.1c0.8,0.9,1.8,1.3,2.9,1.3c1.1,0,2.1-0.4,2.9-1.3
			C474.5,893.3,474.9,892.3,474.9,891.1z M503.9,891.1c0-1.2-0.4-2.3-1.2-3.1c-0.8-0.9-1.8-1.3-2.9-1.3c-1.1,0-2.1,0.4-2.9,1.3
			c-0.8,0.9-1.2,1.9-1.2,3.1c0,1.2,0.4,2.3,1.2,3.1c0.8,0.9,1.8,1.3,2.9,1.3c1.1,0,2.1-0.4,2.9-1.3
			C503.5,893.3,503.9,892.3,503.9,891.1z"/>
		<path class="st6" d="M507.1,957.8c0,2.9-1.1,5-3.4,6.5c-1.9,1.3-4.5,2-7.6,2c-2.7,0-5.1-0.6-7.1-1.8c-2.3-1.4-3.4-3.3-3.4-5.7
			v-3.9h-0.7c-2,0-3.7-0.8-5.1-2.3c-1.4-1.5-2.1-3.3-2.1-5.4c0-2.2,0.7-4,2.1-5.6c1.4-1.6,3.2-2.3,5.3-2.3c2,0,3.8,0.7,5.3,2.1
			c1.5,1.4,2.3,3.3,2.3,5.8v11.8c0,1.3,1.2,2,3.6,2c2.6,0,3.9-0.7,3.9-2v-18.4h7V957.8z M488.4,946.7c0-1-0.3-1.8-1-2.5
			c-0.6-0.7-1.4-1-2.3-1c-0.9,0-1.7,0.3-2.4,1c-0.7,0.7-1,1.5-1,2.5c0,1,0.3,1.8,1,2.5c0.7,0.7,1.5,1.1,2.4,1.1
			c0.9,0,1.7-0.4,2.3-1.1C488.1,948.5,488.4,947.7,488.4,946.7z"/>
		<path class="st6" d="M555.4,934.1h-7.5v-22.5c0-2.6-1.4-4.6-4.1-6c-2.1-1-4.4-1.6-7-1.6c-2.5,0-4.6,0.7-6.4,2
			c-2.2,1.6-3.3,3.6-3.3,6.2v3.3c0.6-0.2,1.4-0.3,2.2-0.3c2.6,0,4.8,1,6.6,2.9c1.9,2,2.8,4.3,2.8,7c0,2.8-1,5.1-2.9,7
			c-1.9,1.9-4.2,2.9-6.6,2.9c-2.7,0-4.9-0.9-6.8-2.8c-1.9-1.9-2.8-4.2-2.8-7.1v-12c0-5.1,1.8-9.1,5.3-12c3.1-2.5,7-3.8,11.7-3.8
			c5,0,8.7,1.5,11.2,4.4v-5.8c0-2.7-1.5-4.7-4.4-6.2c-2.3-1.1-4.8-1.7-7.6-1.7c-3.1,0-5.8,0.8-8.1,2.3c-2.5,1.7-4,4-4.5,6.9h-7.3
			c0.5-5.3,2.6-9.4,6.4-12.2c3.5-2.7,8.1-4,13.7-4c5,0,9.3,1.3,12.9,3.8c4.2,2.9,6.3,6.8,6.3,12V934.1z M533.4,925.1
			c0-1.2-0.4-2.3-1.2-3.1c-0.8-0.9-1.8-1.3-2.9-1.3c-1.1,0-2.1,0.4-2.9,1.3c-0.8,0.9-1.2,1.9-1.2,3.1c0,1.2,0.4,2.3,1.2,3.1
			c0.8,0.9,1.8,1.3,2.9,1.3c1.1,0,2.1-0.4,2.9-1.3C533,927.4,533.4,926.4,533.4,925.1z"/>
		<path class="st6" d="M604.3,934.1h-7.5v-34.7c0-3.3-1.1-6-3.4-8c-2.3-2.1-5-3.1-8.1-3.1c-3.4,0-6.3,1.2-8.8,3.7
			c-2.5,2.5-3.7,5.4-3.7,8.9c0,2.2,0.7,5.2,2,9.2c1.3,4,2,6.9,2,8.9c0,0.6-0.1,1.4-0.2,2.5c2.3-4.1,4.9-7.5,7.7-10.3
			c-2.3-0.2-4-1.1-5.3-2.9c-1.2-1.5-1.8-3.3-1.8-5.5c0-2.3,0.8-4.2,2.4-5.9c1.6-1.7,3.4-2.5,5.6-2.5c2.2,0,4,0.8,5.6,2.5
			c1.5,1.7,2.3,3.7,2.3,5.9c0,3.9-1.8,8.2-5.3,13c-4.9,6.5-7.6,10.4-8.3,11.7c-1.2,2.3-1.8,4.5-1.8,6.6H570c0.1-3.2,0.1-6.2,0.1-8.8
			c0-4.7-0.5-8.3-1.5-10.8c-0.7-2.3-1.5-4.6-2.2-7c-0.7-2.4-1.1-4.5-1.1-6.3c0-5.9,1.9-10.7,5.7-14.4c3.8-3.7,8.5-5.6,14-5.6
			c5.6,0,10.1,1.6,13.7,4.7c3.8,3.4,5.7,8,5.7,13.9V934.1z M588.7,902.8c0-1.1-0.3-2.1-1-2.8c-0.7-0.7-1.6-1.1-2.6-1.1
			c-1,0-1.9,0.4-2.6,1.1c-0.7,0.7-1,1.7-1,2.8c0,1.1,0.3,2.1,1,2.8c0.7,0.7,1.6,1.1,2.6,1.1c1,0,1.9-0.4,2.6-1.1
			C588.4,904.8,588.7,903.9,588.7,902.8z"/>
		<path class="st6" d="M635.1,925.3c0,2.8-0.9,5.1-2.7,7c-1.8,1.9-4,2.9-6.5,2.9c-2.7,0-5-1-6.9-3c-1.9-2-2.8-4.5-2.8-7.5v-42.4h7.5
			v33.4c0.4-0.2,1.1-0.3,2.2-0.3c2.5,0,4.7,1,6.5,2.9C634.2,920.2,635.1,922.5,635.1,925.3z M630,925.3c0-1.2-0.4-2.3-1.2-3.1
			c-0.8-0.9-1.8-1.3-2.9-1.3c-1.1,0-2.1,0.4-2.9,1.3c-0.8,0.9-1.2,1.9-1.2,3.1c0,1.2,0.4,2.3,1.2,3.1c0.8,0.9,1.8,1.3,2.9,1.3
			c1.1,0,2.1-0.4,2.9-1.3C629.6,927.5,630,926.5,630,925.3z"/>
		<path class="st6" d="M677.7,934.1h-7.5v-22.5c0-2.6-1.4-4.6-4.1-6c-2.1-1-4.4-1.6-7-1.6c-2.5,0-4.6,0.7-6.4,2
			c-2.2,1.6-3.3,3.6-3.3,6.2v3.3c1.1-0.2,1.9-0.3,2.2-0.3c2.6,0,4.8,1,6.6,2.9c1.9,2,2.8,4.3,2.8,7c0,2.8-1,5.1-2.9,7
			c-1.9,1.9-4.2,2.9-6.6,2.9c-2.7,0-4.9-0.9-6.8-2.8c-1.9-1.9-2.8-4.2-2.8-7.1v-12c0-5.1,1.8-9.1,5.3-12c3.1-2.5,7-3.8,11.7-3.8
			c5,0,8.7,1.5,11.2,4.4v-5.8c0-2.7-1.5-4.7-4.4-6.2c-2.3-1.1-4.8-1.7-7.6-1.7c-3.1,0-5.8,0.8-8.1,2.3c-2.5,1.7-4,4-4.5,6.9h-7.3
			c0.5-5.3,2.6-9.4,6.4-12.2c3.5-2.7,8.1-4,13.7-4c3.6,0,6.9,0.7,9.8,2.1c1.7-1.6,2.5-3.7,2.5-6.2h8.5c-1,4.4-2.7,7.8-5.2,10.3
			c2.4,2.8,3.6,6,3.6,9.6V934.1z M655.7,925.1c0-1.2-0.4-2.3-1.2-3.1c-0.8-0.9-1.8-1.3-2.9-1.3c-1.1,0-2.1,0.4-2.9,1.3
			c-0.8,0.9-1.2,1.9-1.2,3.1c0,1.2,0.4,2.3,1.2,3.1c0.8,0.9,1.8,1.3,2.9,1.3c1.1,0,2.1-0.4,2.9-1.3
			C655.3,927.4,655.7,926.4,655.7,925.1z"/>
		<path class="st6" d="M677.9,875.6c-10-3.5-19.1-5.2-27.4-5.2c-3.8,0-7.6,0.3-11.5,0.8c1-11.6,6.8-17.4,17.6-17.4
			c5.7,0,10.3,1.7,13.8,5.1v-9h7.3v23.9C677.7,874.4,677.8,875,677.9,875.6z M670.2,867.9c-0.5-2.2-1.9-4.2-4.4-6.1
			c-2.4-1.9-5.2-2.9-8.2-2.9c-2.9,0-5.4,0.6-7.5,1.9c-2.1,1.3-3.4,2.9-4,5c1.4-0.3,3.5-0.5,6.4-0.5
			C658.5,865.3,664.4,866.2,670.2,867.9z"/>
		<path class="st6" d="M724.3,921c0,9.4-6,14.2-17.9,14.2c-11.8,0-17.8-4.7-17.8-14.2v-6c0-4.2,1.6-7.1,4.9-8.8
			c-3.6-2.7-5.5-6.6-5.5-11.8c0-3.8,1-7,3-9.4c2-2.5,4.7-3.7,8.2-3.7c2.4,0,4.5,0.8,6.2,2.4c1.7,1.6,2.5,3.7,2.5,6.3
			c0,2.3-0.8,4.4-2.3,6.1c-1.5,1.7-3.6,2.6-6.1,2.6c-1.3,0-2.4-0.2-3.4-0.6c0.6,3.3,2.1,4.9,4.4,4.9h8.6v6.4h-8.6
			c-1.3,0-2.3,0.6-3.1,1.8c-0.8,1.2-1.2,2.6-1.2,4.1v5.9c0,4.6,3.4,7,10.3,7c7,0,10.5-2.3,10.5-7v-38.9h7.5V921z M703.4,890
			c0-1.2-0.4-2.2-1.1-3c-0.7-0.8-1.7-1.2-2.8-1.2c-1.1,0-2.1,0.4-2.8,1.2c-0.7,0.8-1.1,1.8-1.1,3c0,1.2,0.4,2.2,1.1,3
			s1.7,1.2,2.8,1.2c1.1,0,2.1-0.4,2.8-1.2S703.4,891.3,703.4,890z"/>
		<path class="st6" d="M762.7,934.1h-7.4l-22.6-27.4l4.5-5.6l18,21.8v-22.4c-0.2,0.1-1,0.1-2.3,0.1c-2.5,0-4.6-0.9-6.3-2.7
			c-1.7-1.8-2.6-4-2.6-6.8c0-2.8,0.9-5.1,2.7-7.1c1.8-1.9,3.9-2.9,6.3-2.9c2.8,0,5.2,1,7,2.9c1.9,2,2.8,4.5,2.8,7.6V934.1z M757,891
			c0-1.2-0.4-2.2-1.2-3c-0.8-0.8-1.8-1.3-2.9-1.3c-1.1,0-2.1,0.4-2.9,1.3c-0.8,0.8-1.2,1.9-1.2,3c0,1.2,0.4,2.2,1.2,3
			c0.8,0.8,1.8,1.3,2.9,1.3c1.1,0,2.1-0.4,2.9-1.3C756.6,893.1,757,892.1,757,891z"/>
	</g>
	<g>
		<path class="st3" d="M451.7,54.9c191,17,332.1,185.6,315.1,376.6c-17,191-185.6,332.1-376.6,315.1C199.2,729.6,58.1,561,75.1,370
			C92.1,179,260.7,37.9,451.7,54.9"/>
		<g>
			<path class="st7" d="M578.6,166.8c12.1,10.9,22.5,23.7,30.7,37.7c3,4.8,5.5,9.8,7.4,15.1c2.8,9.3,3.1,19.1,1,28.6l-1.7,8.6
				c-4.1,14.2-5.7,29-4.8,43.8c0.1,1.1,0.2,2.1,0.4,3.2c0.5,5.4,4.1,10,9.2,11.9c7.4,4.5,14.9,8.7,22.7,12.7
				c2.1,1.9,3.9,4.1,5.2,6.7c31,64.1,28.2,139.4-7.5,200.9c-5.7,8.4-13.1,15.6-21.6,21.2c-7.5,4.6-15.7,8.2-24.1,10.5
				c-4.1,0.9-8.1,1.6-12.2,2.2c-4.9,0.7-9.7,1.2-14.6,1.5c-6,0.5-11.9,0.5-17.9,0c-2.3-8.2-3.5-16.6-3.7-25.1
				c-0.8-10.7-1.3-21.5-1.6-32.3c-1.2-62.5,3.5-124.9,14-186.5c-0.1-5.5,1.6-10.8,5-15.2c0.7-1,1.4-1.9,2.1-2.9
				c3.5-4.4,6.8-8.9,9.9-13.6c3.3-17.7,3.9-35.9,1.7-53.8c-0.1-5.1-0.9-10.1-2.5-15c-14.8-31.4-43.8-53.8-78-60
				c-52.8-13.4-108.2-12.4-160.5,2.8c-28.6,8.1-52.6,27.7-66.2,54.2c-2.3,5.7-3.6,11.8-3.7,18c-2.1,17.9-1.6,36,1.7,53.8
				c3.1,4.7,6.4,9.3,9.9,13.6c0.8,0.9,1.5,1.9,2.1,2.9c3.3,4.1,5,9.2,4.9,14.5c10.6,61.8,15.3,124.5,14.2,187.2
				c-0.3,10.8-0.9,21.5-1.6,32.3c-0.1,8.5-1.3,16.9-3.6,25.1c-6,0.6-11.9,0.6-17.9,0c-4.9-0.3-9.8-0.8-14.6-1.5
				c-4.1-0.6-8.2-1.3-12.2-2.2c-8.5-2.4-16.6-5.9-24.1-10.5c-8.5-5.6-15.8-12.8-21.6-21.2c-35.8-61.6-38.6-136.8-7.5-200.9
				c1.3-2.5,3.1-4.8,5.2-6.7c8.3-4.2,16.4-8.8,24.3-13.7c6-3.7,9.2-10.6,8.1-17.5c0.5-13.6-1.2-27.2-4.9-40.4l-1.7-8.6
				c-2.1-9.4-1.8-19.3,1-28.6c2-5.3,4.5-10.3,7.4-15.1c8-13.8,18.1-26.2,29.9-37c17.2-13.9,36.6-24.8,57.4-32.2
				c59-16.4,121.1-18.2,181-5.4C531.7,136.2,557.1,148.9,578.6,166.8"/>
			<path class="st7" d="M282.7,299.8c-2.6-3.2-4.1-7.2-4-11.3c0-8.2,5.4-15.4,13.3-17.6c38.4-11.2,78.2-16.5,118.2-15.8
				c10,0,20-1.7,29.4-5.2c-0.5,8.8-4.7,16.9-11.6,22.3c40.7-5.6,79.3-21.2,112.6-45.3c-1.8,26.8,5,53.5,19.4,76.2l-7.3,10.2
				c-14.1-18.2-22-40.4-22.5-63.4c-43.7,22.9-91.7,36.5-141,40c10.2-5.1,18.9-12.7,25.3-22.2l-0.4,0.1c-32.9,1.1-65.7,5-97.9,11.8
				c-6.9,1.5-13.7,3.3-20.4,5.3c-3.2,0.7-6,2.4-8.1,4.8C284.7,292.3,283,295.9,282.7,299.8"/>
			<path class="st7" d="M402.6,677c-7-0.7-13.9-1.6-20.8-2.7c-12.8-1.6-24.9-6.8-34.9-14.9c-21.3-17.6-38.1-40.2-48.9-65.7
				c-0.2-0.6-0.3-1.3-0.4-1.9c0.2-2.6,2-4.8,4.4-5.6c2.4-0.9,5.2-0.2,7,1.6l1.1,1.6c10,23,25.3,43.4,44.7,59.4
				c9.5,8,21.1,13,33.4,14.6c5,0.6,10.1,1.1,15.1,1.6c12.4,1.1,24.9,1.1,37.2-0.1c4.3-0.4,8.7-0.9,13-1.5
				c12.3-1.5,23.9-6.6,33.4-14.6c19.3-16,34.6-36.4,44.7-59.4l1.1-1.6c1.8-1.8,4.5-2.5,7-1.6c2.4,0.9,4.2,3.1,4.4,5.6
				c-0.1,0.6-0.2,1.3-0.4,1.9c-10.8,25.5-27.5,48.1-48.9,65.7c-10,8.2-22.1,13.3-34.9,14.9c-6,0.8-12.1,1.5-18.1,2
				C428.8,678.2,415.7,678.4,402.6,677"/>
		</g>
	</g>
</g>
</svg>
