<?xml version="1.0" encoding="utf-8"?>
<!-- Generator: Adobe Illustrator 22.0.0, SVG Export Plug-In . SVG Version: 6.00 Build 0)  -->
<svg version="1.1" id="Layer_1" xmlns="http://www.w3.org/2000/svg" xmlns:xlink="http://www.w3.org/1999/xlink" x="0px" y="0px"
	 viewBox="0 0 841.9 1190.6" style="enable-background:new 0 0 841.9 1190.6;" xml:space="preserve">
<style type="text/css">
	.st0{fill:none;}
	.st1{fill:#010101;}
	.st2{fill:#FFFFFF;}
	.st3{fill:#154989;}
	.st4{fill:#EB2627;}
	.st5{fill:#2A3B8F;}
	.st6{fill:#FFFFFF;stroke:#FFFFFF;stroke-miterlimit:10;}
	.st7{fill-rule:evenodd;clip-rule:evenodd;fill:#FFFFFF;}
	.st8{fill-rule:evenodd;clip-rule:evenodd;fill:#154989;}
	.st9{fill:#2F3690;}
</style>
<g>
	<g>
		<rect x="0" y="0" class="st0" width="841.9" height="1190.6"/>
		<rect x="28.3" y="28.3" class="st1" width="785.2" height="1133.9"/>
		<rect x="34" y="34" class="st2" width="773.9" height="1122.5"/>
		<rect x="52.5" y="792.6" class="st3" width="737" height="348.7"/>
		<g id="stecon_24_">
			<path id="red_24_" class="st4" d="M52.8,53.5c42.5,0,85,0,127.6,0c0,22.6,0,45.1,0,67.7c-42.5,0-85,0-127.5,0c0-0.2,0-0.5,0-0.7
				c0-22.1,0-44.2,0-66.3C52.9,54,52.8,53.8,52.8,53.5z M55.8,87.4c0.2,0.1,0.4,0.2,0.5,0.3c3.6,1.8,7.1,3.7,10.7,5.5
				c16.4,8.4,32.7,16.8,49.1,25.2c0.4,0.2,0.7,0.2,1.1,0c13.8-7.1,27.6-14.2,41.4-21.3c6.1-3.2,12.3-6.3,18.4-9.5
				c0.1-0.1,0.3-0.2,0.5-0.3c-0.2-0.1-0.3-0.2-0.5-0.3c-3.8-1.9-7.6-3.9-11.4-5.8c-16.2-8.3-32.4-16.7-48.5-25
				c-0.3-0.2-0.5-0.2-0.9,0c-7,3.6-14.1,7.3-21.1,10.9c-12.6,6.5-25.2,12.9-37.7,19.4C56.9,86.8,56.4,87.1,55.8,87.4z"/>
			<g id="white_24_">
				<path class="st2" d="M55.8,87.4c0.6-0.3,1.1-0.6,1.6-0.8c12.6-6.5,25.2-12.9,37.7-19.4c7-3.6,14.1-7.2,21.1-10.9
					c0.3-0.2,0.6-0.1,0.9,0c16.2,8.3,32.4,16.7,48.5,25c3.8,1.9,7.6,3.9,11.4,5.8c0.1,0.1,0.3,0.1,0.5,0.3c-0.2,0.1-0.3,0.2-0.5,0.3
					c-6.1,3.2-12.3,6.3-18.4,9.5c-13.8,7.1-27.6,14.2-41.4,21.3c-0.4,0.2-0.7,0.2-1.1,0C99.7,110,83.4,101.6,67,93.1
					c-3.6-1.8-7.1-3.7-10.7-5.5C56.2,87.6,56,87.5,55.8,87.4z M59.7,87.4c0.2,0.1,0.3,0.2,0.4,0.2c1,0.5,1.9,1,2.9,1.5
					c17.7,9.1,35.5,18.2,53.2,27.3c0.3,0.1,0.5,0.2,0.8,0c12.9-6.6,25.7-13.2,38.6-19.8c5.8-3,11.6-6,17.5-9
					c0.1-0.1,0.3-0.2,0.5-0.3c-0.2-0.1-0.4-0.2-0.6-0.3c-15.9-8.2-31.9-16.4-47.8-24.5c-2.7-1.4-5.5-2.8-8.2-4.2
					c-0.2-0.1-0.4-0.1-0.7,0c-0.3,0.2-0.7,0.4-1.1,0.6C97,68.3,78.6,77.6,60.3,87C60.1,87.1,60,87.2,59.7,87.4z"/>
				<path class="st2" d="M147.4,79.5c1.4,0,2.7,0,4.1,0c0,5.2,0,10.3,0,15.4c-1.4,0-2.8,0-4.2,0c-0.9-2.6-1.8-5.3-2.7-7.9
					c0,0-0.1,0-0.1,0c0,2.6,0,5.2,0,7.9c-1.4,0-2.7,0-4,0c0,0,0,0,0,0c0,0,0,0,0,0c0-0.1,0-0.2,0-0.3c0-4.9,0-9.9,0-14.8
					c0,0,0-0.1,0-0.2c0.1,0,0.3,0,0.4,0c1.2,0,2.3,0,3.5,0c0.4,0,0.4,0,0.5,0.4c0.8,2.5,1.6,5,2.4,7.5c0,0.1,0.1,0.2,0.2,0.4
					C147.4,85,147.4,82.3,147.4,79.5z"/>
				<path class="st2" d="M138.8,87.3c0,1.5,0,3,0,4.5c0,0.8-0.3,1.4-0.8,1.9c-0.7,0.7-1.6,1.2-2.6,1.3c-1.5,0.3-3.1,0.3-4.6-0.1
					c-0.9-0.2-1.6-0.6-2.3-1.3c-0.5-0.5-0.8-1.1-0.8-1.9c0-3,0-6.1,0-9.1c0-0.7,0.2-1.3,0.7-1.8c0.6-0.7,1.4-1.2,2.3-1.4
					c1.7-0.4,3.5-0.4,5.2,0.1c0.7,0.2,1.4,0.6,2,1.2c0.6,0.5,0.9,1.2,0.8,2C138.8,84.3,138.8,85.8,138.8,87.3z M134.2,87.3
					c0-1.5,0-2.9,0-4.4c0-0.7-0.1-0.9-0.8-0.9c-0.1,0-0.2,0-0.2,0c-0.5,0.1-0.6,0.2-0.6,0.7c0,3,0,6,0,9c0,0.5,0.1,0.7,0.6,0.7
					c0.2,0,0.3,0,0.5,0c0.5-0.1,0.6-0.2,0.6-0.7C134.2,90.3,134.2,88.8,134.2,87.3z"/>
				<path class="st2" d="M126.7,88.9c0,0.2,0,0.3,0,0.5c0,0.8,0,1.6,0,2.4c0,0.8-0.3,1.5-0.9,2c-0.7,0.7-1.5,1.1-2.5,1.3
					c-1.5,0.3-3,0.3-4.5-0.1c-0.8-0.2-1.5-0.6-2.2-1.2c-0.6-0.6-0.9-1.2-0.9-2.1c0-3,0-5.9,0-8.9c0-0.9,0.3-1.6,0.9-2.1
					c0.7-0.7,1.6-1.1,2.5-1.2c1.4-0.2,2.9-0.2,4.3,0.1c0.9,0.2,1.6,0.6,2.3,1.2c0.6,0.6,0.9,1.2,0.9,2.1c0,0.8,0,1.7,0,2.5
					c0,0.2,0,0.3,0,0.5c-1.6,0-3.1,0-4.6,0c0-0.2,0-0.3,0-0.5c0-0.9,0-1.7,0-2.6c0-0.5-0.1-0.6-0.6-0.7c-0.1,0-0.2,0-0.3,0
					c-0.7,0.1-0.7,0.3-0.7,0.8c0,2.9,0,5.9,0,8.8c0,0.1,0,0.2,0,0.3c0,0.2,0.1,0.4,0.3,0.4c0.1,0,0.3,0.1,0.4,0.1
					c0.6,0.1,0.8-0.2,0.8-0.8c0-0.8,0-1.5,0-2.3c0-0.2,0-0.3,0-0.5C122.4,88.8,126,88.8,126.7,88.9z"/>
				<path class="st2" d="M105.5,94.9c0-5.1,0-10.2,0-15.3c0.4-0.1,8.7-0.1,9.1,0c0,0.8,0,1.6,0,2.5c-0.1,0-0.3,0-0.4,0
					c-1.1,0-2.2,0-3.3,0c-0.1,0-0.3,0-0.5,0c0,1.4,0,2.7,0,4.1c1,0,2.1,0,3.1,0c0,0.8,0,1.5,0,2.2c-0.4,0.1-0.7,0.1-1,0.1
					c-0.3,0-0.7,0-1,0c-0.3,0-0.7,0-1,0c-0.1,0.3-0.1,2.8,0,3.7c0.1,0,0.3,0,0.5,0c1.1,0,2.2,0,3.3,0c0.2,0,0.3,0,0.5,0
					c0,0.9,0,1.8,0,2.6C114.3,95,106,95,105.5,94.9z"/>
				<path class="st2" d="M101.1,94.9c-1.6,0-3.1,0-4.7,0c0-4.3,0-8.5,0-12.8c-1,0-2,0-3,0c-0.1-0.4-0.1-2.1,0-2.6
					c0.3-0.1,10.4-0.1,10.8,0c0.1,0.3,0.1,2.1,0,2.6c-1,0-2,0-3,0C101.1,86.4,101.1,90.6,101.1,94.9z"/>
				<path class="st2" d="M92.1,84.9c-1.6,0-3.1,0-4.6,0c0-0.2,0-0.3,0-0.5c0-0.6,0-1.2,0-1.8c0-0.4-0.1-0.6-0.5-0.6
					c-0.1,0-0.2,0-0.4,0c-0.3,0-0.5,0.2-0.5,0.5c0,0.6,0,1.1,0,1.7c0,0.4,0.2,0.6,0.5,0.8c0.4,0.2,0.7,0.4,1.1,0.7
					c1,0.6,2,1.1,2.9,1.7c0.1,0.1,0.3,0.2,0.4,0.3c0.7,0.5,1.1,1.2,1.1,2.1c0,0.7,0,1.3,0,2c0,0.7-0.2,1.3-0.7,1.7
					c-0.7,0.7-1.5,1.2-2.4,1.4c-1.5,0.4-3.1,0.4-4.7,0c-0.8-0.2-1.6-0.6-2.2-1.2c-0.6-0.5-0.9-1.2-0.9-2.1c0-0.8,0-1.5,0-2.3
					c0.3-0.1,3.9-0.1,4.5,0c0,0.1,0,0.3,0,0.4c0,0.7,0,1.3,0,2c0,0.4,0.1,0.6,0.5,0.6c0.2,0,0.5,0,0.7-0.1c0.2,0,0.3-0.2,0.3-0.4
					c0-0.6,0-1.2,0-1.8c0-0.3-0.2-0.6-0.4-0.7c-0.4-0.3-0.8-0.5-1.2-0.8c-1-0.6-2-1.2-2.9-1.8c-0.3-0.2-0.6-0.4-0.9-0.7
					c-0.4-0.4-0.6-0.9-0.6-1.5c0-0.7,0-1.3,0-2c0-0.8,0.3-1.4,0.8-1.9c0.7-0.7,1.6-1.2,2.6-1.4c1.4-0.3,2.8-0.3,4.2,0.1
					c0.9,0.2,1.7,0.7,2.3,1.3c0.5,0.5,0.8,1.1,0.8,1.9C92.1,83.5,92.1,84.2,92.1,84.9z"/>
			</g>
			<g id="blue_24_">
				<path class="st5" d="M59.7,87.4c0.3-0.1,0.5-0.2,0.7-0.3c18.3-9.4,36.6-18.8,54.9-28.1c0.4-0.2,0.7-0.4,1.1-0.6
					c0.2-0.1,0.4-0.1,0.7,0c2.7,1.4,5.4,2.8,8.2,4.2c15.9,8.2,31.9,16.4,47.8,24.5c0.2,0.1,0.3,0.2,0.6,0.3
					c-0.2,0.1-0.3,0.2-0.5,0.3c-5.8,3-11.6,6-17.5,9c-12.9,6.6-25.7,13.2-38.6,19.8c-0.3,0.1-0.5,0.1-0.8,0
					C98.5,107.3,80.8,98.2,63,89.1c-1-0.5-1.9-1-2.9-1.5C60,87.5,59.9,87.5,59.7,87.4z M147.4,79.5c0,2.8,0,5.5,0,8.3
					c-0.1-0.1-0.1-0.2-0.2-0.4c-0.8-2.5-1.6-5-2.4-7.5c-0.1-0.4-0.1-0.4-0.5-0.4c-1.2,0-2.3,0-3.5,0c-0.1,0-0.3,0-0.4,0
					c0,0.1,0,0.1,0,0.2c0,4.9,0,9.9,0,14.8c0,0.1,0,0.2,0,0.3c0,0,0,0,0,0c0,0,0,0,0,0c1.3,0,2.7,0,4,0c0-2.7,0-5.3,0-7.9
					c0,0,0.1,0,0.1,0c0.9,2.6,1.8,5.3,2.7,7.9c1.4,0,2.8,0,4.2,0c0-5.1,0-10.2,0-15.4C150.2,79.5,148.8,79.5,147.4,79.5z
					 M138.8,87.3c0-1.5,0-3,0-4.5c0-0.8-0.3-1.5-0.8-2c-0.6-0.6-1.2-1-2-1.2c-1.7-0.5-3.5-0.5-5.2-0.1c-0.9,0.2-1.7,0.7-2.3,1.4
					c-0.4,0.5-0.7,1.1-0.7,1.8c0,3,0,6.1,0,9.1c0,0.8,0.3,1.4,0.8,1.9c0.6,0.7,1.4,1.1,2.3,1.3c1.5,0.3,3.1,0.3,4.6,0.1
					c1-0.2,1.8-0.6,2.6-1.3c0.5-0.5,0.8-1.2,0.8-1.9C138.8,90.3,138.8,88.8,138.8,87.3z M126.7,88.9c-0.6-0.1-4.3-0.1-4.7,0
					c0,0.1,0,0.3,0,0.5c0,0.8,0,1.5,0,2.3c0,0.7-0.2,0.9-0.8,0.8c-0.1,0-0.3,0-0.4-0.1c-0.2-0.1-0.3-0.2-0.3-0.4c0-0.1,0-0.2,0-0.3
					c0-2.9,0-5.9,0-8.8c0-0.5,0-0.7,0.7-0.8c0.1,0,0.2,0,0.3,0c0.5,0.1,0.6,0.2,0.6,0.7c0,0.9,0,1.7,0,2.6c0,0.2,0,0.3,0,0.5
					c1.6,0,3.1,0,4.6,0c0-0.2,0-0.4,0-0.5c0-0.8,0-1.7,0-2.5c0-0.9-0.3-1.5-0.9-2.1c-0.7-0.6-1.4-1-2.3-1.2
					c-1.4-0.3-2.9-0.3-4.3-0.1c-0.9,0.2-1.8,0.6-2.5,1.2c-0.6,0.6-0.9,1.3-0.9,2.1c0,3,0,5.9,0,8.9c0,0.9,0.3,1.6,0.9,2.1
					c0.6,0.6,1.4,1,2.2,1.2c1.5,0.3,3,0.3,4.5,0.1c0.9-0.2,1.8-0.6,2.5-1.3c0.6-0.5,0.9-1.2,0.9-2c0-0.8,0-1.6,0-2.4
					C126.7,89.2,126.7,89.1,126.7,88.9z M92.1,84.9c0-0.7,0-1.4,0-2.1c0-0.8-0.3-1.4-0.8-1.9c-0.7-0.7-1.4-1.1-2.3-1.3
					c-1.4-0.3-2.8-0.3-4.2-0.1c-1,0.2-1.9,0.6-2.6,1.4c-0.5,0.5-0.8,1.1-0.8,1.9c0,0.7,0,1.3,0,2c0,0.6,0.2,1.1,0.6,1.5
					c0.3,0.2,0.6,0.5,0.9,0.7c1,0.6,2,1.2,2.9,1.8c0.4,0.2,0.8,0.5,1.2,0.8c0.2,0.2,0.4,0.4,0.4,0.7c0,0.6,0,1.2,0,1.8
					c0,0.2-0.1,0.4-0.3,0.4c-0.2,0-0.5,0.1-0.7,0.1c-0.4,0-0.5-0.2-0.5-0.6c0-0.7,0-1.3,0-2c0-0.1,0-0.3,0-0.4
					c-0.6-0.1-4.2-0.1-4.5,0c0,0.7,0,1.5,0,2.3c0,0.9,0.3,1.5,0.9,2.1c0.6,0.6,1.4,1,2.2,1.2c1.6,0.4,3.1,0.3,4.7,0
					c0.9-0.2,1.7-0.7,2.4-1.4c0.4-0.5,0.7-1.1,0.7-1.7c0-0.7,0-1.3,0-2c0-0.9-0.4-1.6-1.1-2.1c-0.1-0.1-0.3-0.2-0.4-0.3
					c-1-0.6-2-1.1-2.9-1.7c-0.4-0.2-0.7-0.4-1.1-0.7c-0.3-0.2-0.5-0.4-0.5-0.8c0-0.6,0-1.1,0-1.7c0-0.3,0.2-0.5,0.5-0.5
					c0.1,0,0.2,0,0.4,0c0.4,0,0.5,0.2,0.5,0.6c0,0.6,0,1.2,0,1.8c0,0.1,0,0.3,0,0.5C89.1,84.9,90.6,84.9,92.1,84.9z M105.5,94.9
					c0.5,0.1,8.8,0.1,9.1,0c0-0.9,0-1.7,0-2.6c-0.2,0-0.3,0-0.5,0c-1.1,0-2.2,0-3.3,0c-0.2,0-0.3,0-0.5,0c-0.1-0.8,0-3.3,0-3.7
					c0.3,0,0.7,0,1,0c0.3,0,0.7,0,1,0c0.3,0,0.7,0.1,1-0.1c0-0.7,0-1.5,0-2.2c-1.1,0-2.1,0-3.1,0c0-1.4,0-2.7,0-4.1
					c0.2,0,0.3,0,0.5,0c1.1,0,2.2,0,3.3,0c0.1,0,0.3,0,0.4,0c0-0.9,0-1.7,0-2.5c-0.4-0.1-8.7-0.1-9.1,0
					C105.5,84.7,105.5,89.8,105.5,94.9z M101.1,94.9c0-4.3,0-8.5,0-12.8c1,0,2,0,3,0c0.1-0.5,0.1-2.2,0-2.6
					c-0.4-0.1-10.5-0.1-10.8,0c-0.1,0.4-0.1,2.2,0,2.6c1,0,2,0,3,0c0,4.3,0,8.5,0,12.8C97.9,94.9,99.5,94.9,101.1,94.9z"/>
				<path class="st5" d="M134.2,87.3c0,1.5,0,3,0,4.5c0,0.5-0.1,0.6-0.6,0.7c-0.2,0-0.3,0-0.5,0c-0.5-0.1-0.6-0.2-0.6-0.7
					c0-3,0-6,0-9c0-0.5,0.1-0.6,0.6-0.7c0.1,0,0.2,0,0.2,0c0.7,0,0.8,0.1,0.8,0.9C134.2,84.4,134.2,85.9,134.2,87.3z"/>
			</g>
		</g>
	</g>
	<g>
		<path class="st6" d="M172.9,1051.3l-8.2-53.7h7.1l5.2,36.9l6.3-36.9h8.3l6.1,37.5l5.3-37.5h7l-8.4,53.7h-7.4l-6.9-40.1l-6.9,40.1
			H172.9z"/>
		<path class="st6" d="M213.6,1051.3v-53.7h25.6v9.1h-18.6v11.9h17.3v9h-17.3v14.6h19.3v9H213.6z"/>
		<path class="st6" d="M276.9,1051.3h-7.6l-3-12.2h-13.8l-2.9,12.2h-7.4l13.5-53.7h7.4L276.9,1051.3z M264.1,1030l-4.8-19.9
			l-4.7,19.9H264.1z"/>
		<path class="st6" d="M280.7,1051.3v-53.7h14.7c3.7,0,6.4,0.5,8,1.4c1.7,1,3,2.7,4,5.1c1,2.5,1.5,5.3,1.5,8.5c0,4-0.8,7.4-2.3,10
			c-1.5,2.6-3.8,4.3-6.8,5c1.5,1.4,2.8,2.9,3.7,4.5c1,1.6,2.3,4.5,4,8.7l4.2,10.5h-8.3l-5-11.7c-1.8-4.2-3-6.8-3.7-7.9
			c-0.7-1.1-1.4-1.8-2.1-2.2c-0.7-0.4-1.9-0.6-3.5-0.6h-1.4v22.4H280.7z M287.6,1020.3h5.2c3.3,0,5.4-0.2,6.3-0.7
			c0.8-0.4,1.5-1.2,2-2.3s0.7-2.4,0.7-4c0-1.8-0.3-3.3-0.9-4.4c-0.6-1.1-1.5-1.8-2.6-2.1c-0.6-0.1-2.3-0.2-5.1-0.2h-5.4V1020.3z"/>
		<path class="st6" d="M340.5,1033.8l6.8-1c0.4,3.5,1.2,6.1,2.5,7.8s2.9,2.5,5.1,2.5c2.2,0,3.9-0.7,5.1-2.2c1.1-1.5,1.7-3.2,1.7-5.2
			c0-1.3-0.2-2.3-0.7-3.2c-0.5-0.9-1.3-1.7-2.5-2.3c-0.8-0.4-2.7-1.2-5.6-2.3c-3.7-1.4-6.4-3.2-7.9-5.3c-2.1-3-3.2-6.6-3.2-10.8
			c0-2.7,0.5-5.3,1.5-7.7c1-2.4,2.4-4.2,4.3-5.4c1.9-1.2,4.1-1.9,6.8-1.9c4.3,0,7.6,1.5,9.8,4.4c2.2,3,3.3,6.9,3.5,11.8l-7,0.5
			c-0.3-2.8-0.9-4.7-1.9-6c-1-1.2-2.5-1.8-4.4-1.8c-2,0-3.6,0.6-4.8,1.9c-0.7,0.8-1.1,1.9-1.1,3.3c0,1.3,0.3,2.4,1,3.3
			c0.9,1.1,3,2.3,6.4,3.6c3.4,1.2,5.9,2.5,7.5,3.9s2.9,3.1,3.8,5.5c0.9,2.3,1.4,5.2,1.4,8.6c0,3.1-0.5,6-1.6,8.6s-2.7,4.7-4.7,6
			c-2,1.3-4.5,2-7.5,2c-4.4,0-7.7-1.6-10.1-4.7C342.4,1044.4,341,1039.8,340.5,1033.8z"/>
		<path class="st6" d="M405.7,1051.3h-7.6l-3-12.2h-13.8l-2.9,12.2H371l13.5-53.7h7.4L405.7,1051.3z M392.8,1030l-4.8-19.9
			l-4.7,19.9H392.8z"/>
		<path class="st6" d="M409.4,1051.3v-53.7h23.7v9.1h-16.7v12.7h14.4v9.1h-14.4v22.8H409.4z"/>
		<path class="st6" d="M438.8,1051.3v-53.7h25.6v9.1h-18.6v11.9h17.3v9h-17.3v14.6h19.3v9H438.8z"/>
		<path class="st6" d="M478.8,1051.3v-44.6h-10.3v-9.1H496v9.1h-10.2v44.6H478.8z"/>
		<path class="st6" d="M509.6,1051.3v-22.6l-12.7-31.1h8.2l8.1,21.2l8-21.2h8l-12.7,31.2v22.5H509.6z"/>
		<path class="st6" d="M558.7,997.6h13.8c2.7,0,4.8,0.2,6.1,0.5c1.3,0.4,2.5,1.1,3.6,2.2s1.9,2.6,2.7,4.5c0.7,1.9,1.1,4,1.1,6.3
			c0,2.5-0.4,4.8-1.3,6.9s-2.1,3.7-3.5,4.7c2.1,1,3.7,2.6,4.9,4.9c1.1,2.3,1.7,5,1.7,8.1c0,2.4-0.4,4.8-1.1,7.1
			c-0.7,2.3-1.7,4.2-3,5.5s-2.8,2.2-4.7,2.5c-1.2,0.2-4,0.3-8.4,0.4h-11.8V997.6z M565.6,1006.5v12.4h4.6c2.7,0,4.4-0.1,5.1-0.2
			c1.2-0.2,2.1-0.9,2.8-1.9c0.7-1.1,1-2.5,1-4.2c0-1.7-0.3-3-0.9-4c-0.6-1-1.5-1.7-2.6-1.9c-0.7-0.1-2.7-0.2-6-0.2H565.6z
			 M565.6,1027.9v14.4h6.5c2.5,0,4.1-0.1,4.8-0.3c1-0.3,1.9-1,2.5-2.1c0.7-1.1,1-2.7,1-4.6c0-1.6-0.3-3-0.8-4.1s-1.2-1.9-2.2-2.5
			s-3-0.8-6.2-0.8H565.6z"/>
		<path class="st6" d="M593.5,1051.3v-53.7h25.6v9.1h-18.6v11.9h17.3v9h-17.3v14.6h19.3v9H593.5z"/>
		<path class="st6" d="M625.9,1051.3V998h7v44.2h17.3v9H625.9z"/>
		<path class="st6" d="M659.4,1051.3v-44.6h-10.3v-9.1h27.5v9.1h-10.2v44.6H659.4z"/>
	</g>
	<g>
		<path class="st6" d="M185.3,934.1h-7.5v-22.5c0-2.6-1.4-4.6-4.1-6c-2.1-1-4.4-1.6-7-1.6c-2.5,0-4.6,0.7-6.4,2
			c-2.2,1.6-3.3,3.6-3.3,6.2v3.3c1.1-0.2,1.9-0.3,2.2-0.3c2.6,0,4.8,1,6.6,2.9c1.9,2,2.8,4.3,2.8,7c0,2.8-1,5.1-2.9,7
			c-1.9,1.9-4.2,2.9-6.6,2.9c-2.7,0-4.9-0.9-6.8-2.8c-1.9-1.9-2.8-4.2-2.8-7.1v-12c0-5.1,1.8-9.1,5.3-12c3.1-2.5,7-3.8,11.7-3.8
			c5,0,8.7,1.5,11.2,4.4v-5.8c0-2.7-1.5-4.7-4.4-6.2c-2.3-1.1-4.8-1.7-7.6-1.7c-3.1,0-5.8,0.8-8.1,2.3c-2.5,1.7-4,4-4.5,6.9H146
			c0.5-5.3,2.6-9.4,6.4-12.2c3.5-2.7,8.1-4,13.7-4c3.6,0,6.9,0.7,9.8,2.1c1.7-1.6,2.5-3.7,2.5-6.2h8.5c-1,4.4-2.7,7.8-5.2,10.3
			c2.4,2.8,3.6,6,3.6,9.6V934.1z M163.3,925.1c0-1.2-0.4-2.3-1.2-3.1c-0.8-0.9-1.8-1.3-2.9-1.3c-1.1,0-2.1,0.4-2.9,1.3
			c-0.8,0.9-1.2,1.9-1.2,3.1c0,1.2,0.4,2.3,1.2,3.1c0.8,0.9,1.8,1.3,2.9,1.3c1.1,0,2.1-0.4,2.9-1.3
			C162.9,927.4,163.3,926.4,163.3,925.1z"/>
		<path class="st6" d="M231.1,924.6c0,3-0.9,5.5-2.8,7.5c-1.9,1.9-4.1,2.9-6.9,2.9c-2.6,0-4.8-1-6.5-2.9c-1.8-1.9-2.7-4.2-2.7-6.9
			c0-2.8,0.9-5.1,2.7-7.1c1.8-1.9,3.9-2.9,6.5-2.9c0.9,0,1.6,0,2.2,0.1v-18.9c0-5.5-3.7-8.2-11.1-8.2c-3.1,0-5.7,1-7.8,3
			c-2.1,2-3.2,4.7-3.2,8h-7.3c0.2-5.7,2-10.2,5.3-13.3c3.3-3.2,7.6-4.7,13-4.7c5.3,0,9.6,1.1,12.8,3.4c3.9,2.7,5.8,6.8,5.8,12.4
			V924.6z M225.5,925.1c0-1.2-0.4-2.3-1.2-3.1c-0.8-0.9-1.8-1.3-2.9-1.3c-1.1,0-2.1,0.4-2.9,1.3c-0.8,0.9-1.2,1.9-1.2,3.1
			c0,1.2,0.4,2.3,1.2,3.1c0.8,0.9,1.8,1.3,2.9,1.3c1.1,0,2.1-0.4,2.9-1.3C225.1,927.4,225.5,926.4,225.5,925.1z"/>
		<path class="st6" d="M281.5,934.1H274c-4.7-4.5-9.4-7.7-14.1-9.5v0.7c0,2.8-1,5.1-3,7c-2,1.9-4.2,2.9-6.7,2.9c-2.7,0-5-1-6.9-3.1
			s-2.9-4.5-2.9-7.4c0-2.9,1-5.3,2.9-7.3c1.9-2,4.2-3.1,6.9-3.1h0.8v-13.5c-0.8,0.2-1.5,0.3-2.1,0.3c-2.6,0-4.8-1-6.5-2.9
			c-1.8-2-2.7-4.3-2.7-7.1c0-2.7,0.9-5,2.7-6.9c1.8-1.9,3.9-2.9,6.5-2.9c2.7,0,5,1,6.8,3c1.8,2,2.7,4.5,2.7,7.5v24.7
			c6.4,2.3,11.5,5.4,15.5,9.2v-43.4h7.5V934.1z M253.1,891.1c0-1.2-0.4-2.3-1.2-3.1c-0.8-0.9-1.8-1.3-2.9-1.3
			c-1.1,0-2.1,0.4-2.9,1.3c-0.8,0.9-1.2,1.9-1.2,3.1c0,1.2,0.4,2.3,1.2,3.1c0.8,0.9,1.8,1.3,2.9,1.3c1.1,0,2.1-0.4,2.9-1.3
			C252.7,893.3,253.1,892.3,253.1,891.1z M254.3,924.6c0-1.2-0.4-2.3-1.2-3.1c-0.8-0.9-1.8-1.3-2.9-1.3c-1.1,0-2.1,0.4-2.9,1.3
			c-0.8,0.9-1.2,1.9-1.2,3.1c0,1.2,0.4,2.3,1.2,3.1c0.8,0.9,1.8,1.3,2.9,1.3c1.1,0,2.1-0.4,2.9-1.3
			C253.9,926.9,254.3,925.8,254.3,924.6z"/>
		<path class="st6" d="M312.3,925.3c0,2.8-0.9,5.1-2.7,7s-4,2.9-6.5,2.9c-2.7,0-5-1-6.9-3c-1.9-2-2.8-4.5-2.8-7.5v-42.4h7.5v33.4
			c0.4-0.2,1.1-0.3,2.2-0.3c2.5,0,4.7,1,6.5,2.9C311.4,920.2,312.3,922.5,312.3,925.3z M307.2,925.3c0-1.2-0.4-2.3-1.2-3.1
			c-0.8-0.9-1.8-1.3-2.9-1.3c-1.1,0-2.1,0.4-2.9,1.3c-0.8,0.9-1.2,1.9-1.2,3.1c0,1.2,0.4,2.3,1.2,3.1c0.8,0.9,1.8,1.3,2.9,1.3
			c1.1,0,2.1-0.4,2.9-1.3C306.8,927.5,307.2,926.5,307.2,925.3z"/>
		<path class="st6" d="M353.1,921.9c0,4.2-1.2,7.5-3.7,9.8c-2.5,2.3-5.7,3.4-9.7,3.4c-4,0-7.3-1.1-9.7-3.4c-2.5-2.3-3.7-5.6-3.7-9.8
			v-8.4c0-2.5,1.1-5.9,3.2-10c2.1-4.2,3.2-7.5,3.2-9.9c0-2-0.6-3.6-1.9-4.9c-1.3-1.3-2.8-1.9-4.5-1.9c-2.6,0-4.3,0.5-5.2,1.6
			c2.4,0.1,4.4,0.9,5.9,2.5c1.5,1.6,2.2,3.6,2.2,6c0,2.6-0.8,4.8-2.5,6.6c-1.7,1.8-3.7,2.7-6,2.7c-2.7,0-4.9-1.1-6.6-3.2
			c-1.7-2.1-2.5-4.7-2.5-7.7c0-4,1.5-7.3,4.4-9.9c2.9-2.6,6.3-3.9,10.2-3.9c4,0,7.3,1,9.8,3.1c2.5,2.1,3.8,5.1,3.8,9.1
			c0,2.6-1,6.2-3,10.9c-2,4.7-3,8-3,9.9v9.5c0,1.5,0.6,2.6,1.9,3.4c1.2,0.8,2.6,1.2,4,1.2c1.5,0,2.9-0.4,4.1-1.2s1.8-1.9,1.8-3.3
			v-41.4h7.5V921.9z M324.4,896.9c0-1.1-0.4-2.1-1.1-2.9c-0.7-0.8-1.6-1.2-2.7-1.2c-1,0-1.9,0.4-2.7,1.2c-0.7,0.8-1.1,1.7-1.1,2.9
			c0,1.1,0.4,2.1,1.1,2.9c0.7,0.8,1.6,1.2,2.7,1.2c1,0,1.9-0.4,2.7-1.2C324,899,324.4,898.1,324.4,896.9z"/>
		<path class="st6" d="M351.7,866.4c0,1.8-0.6,3.4-1.8,4.7c-1.2,1.3-2.7,2-4.5,2c-3.9,0-8.5-1.8-13.5-5.5c-1,0.3-2.2,1.2-3.4,2.5
			c-1.2,1.3-2,2.5-2.1,3.6c-4.3-3-6.4-6.7-6.4-11c0-3.4,1.3-6,3.7-7.9c2.2-1.7,5-2.6,8.5-2.6h8.2c3.9,0,5.9-1.9,5.9-5.7v-3h5.8v2.9
			c0,3.6-1.1,6.3-3.3,8.2c-2.2,1.9-5,2.9-8.3,2.9h-8.8c-1.3,0-2.5,0.5-3.5,1.4c-1,0.9-1.6,2.1-1.6,3.6c0,1.4,0.2,2.5,0.7,3.4
			c1.2-2,3-3.1,5.4-3.3c1.9,1.3,4.1,2.4,6.6,3.4c0-1.7,0.6-3.2,1.9-4.4c1.3-1.2,2.6-1.8,4.2-1.8c1.8,0,3.3,0.7,4.5,2
			C351.1,863,351.7,864.6,351.7,866.4z M348.1,866.4c0-0.8-0.3-1.5-0.8-2c-0.5-0.6-1.1-0.8-1.9-0.8c-0.7,0-1.3,0.3-1.9,0.8
			c-0.5,0.6-0.8,1.2-0.8,2c0,0.8,0.3,1.5,0.8,2c0.5,0.6,1.1,0.8,1.9,0.8c0.7,0,1.3-0.3,1.9-0.8C347.8,867.8,348.1,867.2,348.1,866.4
			z"/>
		<path class="st6" d="M403.5,934.1H396c-4.7-4.5-9.4-7.7-14.1-9.5v0.7c0,2.8-1,5.1-3,7c-2,1.9-4.2,2.9-6.7,2.9c-2.7,0-5-1-6.9-3.1
			s-2.9-4.5-2.9-7.4c0-2.9,1-5.3,2.9-7.3c1.9-2,4.2-3.1,6.9-3.1h0.8v-13.5c-0.8,0.2-1.5,0.3-2.1,0.3c-2.6,0-4.8-1-6.5-2.9
			c-1.8-2-2.7-4.3-2.7-7.1c0-2.7,0.9-5,2.7-6.9c1.8-1.9,3.9-2.9,6.5-2.9c2.7,0,5,1,6.8,3c1.8,2,2.7,4.5,2.7,7.5v24.7
			c6.4,2.3,11.5,5.4,15.5,9.2v-43.4h7.5V934.1z M375.1,891.1c0-1.2-0.4-2.3-1.2-3.1c-0.8-0.9-1.8-1.3-2.9-1.3
			c-1.1,0-2.1,0.4-2.9,1.3c-0.8,0.9-1.2,1.9-1.2,3.1c0,1.2,0.4,2.3,1.2,3.1c0.8,0.9,1.8,1.3,2.9,1.3c1.1,0,2.1-0.4,2.9-1.3
			C374.7,893.3,375.1,892.3,375.1,891.1z M376.3,924.6c0-1.2-0.4-2.3-1.2-3.1c-0.8-0.9-1.8-1.3-2.9-1.3c-1.1,0-2.1,0.4-2.9,1.3
			c-0.8,0.9-1.2,1.9-1.2,3.1c0,1.2,0.4,2.3,1.2,3.1c0.8,0.9,1.8,1.3,2.9,1.3c1.1,0,2.1-0.4,2.9-1.3
			C375.9,926.9,376.3,925.8,376.3,924.6z"/>
		<path class="st6" d="M453.7,921.9c0,4.2-1.2,7.5-3.7,9.8c-2.5,2.3-5.7,3.4-9.7,3.4c-4,0-7.3-1.1-9.7-3.4c-2.5-2.3-3.7-5.6-3.7-9.8
			v-8.4c0-2.5,1.1-5.9,3.2-10c2.1-4.2,3.2-7.5,3.2-9.9c0-2-0.6-3.6-1.9-4.9c-1.3-1.3-2.8-1.9-4.5-1.9c-2.6,0-4.3,0.5-5.2,1.6
			c2.4,0.1,4.4,0.9,5.9,2.5c1.5,1.6,2.2,3.6,2.2,6c0,2.6-0.8,4.8-2.5,6.6c-1.7,1.8-3.7,2.7-6,2.7c-2.7,0-4.9-1.1-6.6-3.2
			c-1.7-2.1-2.5-4.7-2.5-7.7c0-4,1.5-7.3,4.4-9.9c2.9-2.6,6.3-3.9,10.2-3.9c4,0,7.3,1,9.8,3.1c2.5,2.1,3.8,5.1,3.8,9.1
			c0,2.6-1,6.2-3,10.9c-2,4.7-3,8-3,9.9v9.5c0,1.5,0.6,2.6,1.9,3.4c1.2,0.8,2.6,1.2,4,1.2c1.5,0,2.9-0.4,4.1-1.2
			c1.2-0.8,1.8-1.9,1.8-3.3v-41.4h7.5V921.9z M424.9,896.9c0-1.1-0.4-2.1-1.1-2.9c-0.7-0.8-1.6-1.2-2.7-1.2c-1,0-1.9,0.4-2.7,1.2
			s-1.1,1.7-1.1,2.9c0,1.1,0.4,2.1,1.1,2.9c0.7,0.8,1.6,1.2,2.7,1.2c1,0,1.9-0.4,2.7-1.2C424.6,899,424.9,898.1,424.9,896.9z"/>
		<path class="st6" d="M465.9,850.5c-2.1,14.4-9.3,21.6-21.8,21.6c-4.8,0-8.5-1.1-11.1-3.2c-2.6-2.1-3.9-4.8-3.9-8.1
			c0-2.5,0.8-4.6,2.4-6.4c1.6-1.7,3.6-2.6,5.9-2.6c2.5,0,4.5,0.9,6.1,2.7c1.6,1.8,2.4,3.9,2.4,6.3c0,2.3-0.6,4.1-1.8,5.2
			c8.4-0.3,13.3-5.5,14.6-15.5H465.9z M441.1,860.8c0-1.1-0.4-2.1-1.1-2.9c-0.7-0.8-1.6-1.2-2.7-1.2c-1,0-1.9,0.4-2.6,1.2
			c-0.7,0.8-1,1.7-1,2.9c0,1.1,0.3,2.1,1,2.8c0.7,0.7,1.6,1.1,2.6,1.1c1,0,1.9-0.4,2.7-1.1C440.7,862.9,441.1,861.9,441.1,860.8z"/>
		<path class="st6" d="M502.6,934.1h-7.5v-34.7c0-3.3-1.1-6-3.4-8c-2.3-2.1-5-3.1-8.1-3.1c-3.4,0-6.3,1.2-8.8,3.7
			c-2.5,2.5-3.7,5.4-3.7,8.9c0,2.2,0.7,5.2,2,9.2c1.3,4,2,6.9,2,8.9c0,0.6-0.1,1.4-0.2,2.5c2.3-4.1,4.9-7.5,7.7-10.3
			c-2.3-0.2-4-1.1-5.3-2.9c-1.2-1.5-1.8-3.3-1.8-5.5c0-2.3,0.8-4.2,2.4-5.9c1.6-1.7,3.4-2.5,5.6-2.5s4,0.8,5.6,2.5
			c1.5,1.7,2.3,3.7,2.3,5.9c0,3.9-1.8,8.2-5.3,13c-4.9,6.5-7.6,10.4-8.3,11.7c-1.2,2.3-1.8,4.5-1.8,6.6h-7.6
			c0.1-3.2,0.1-6.2,0.1-8.8c0-4.7-0.5-8.3-1.5-10.8c-0.7-2.3-1.5-4.6-2.2-7c-0.7-2.4-1.1-4.5-1.1-6.3c0-5.9,1.9-10.7,5.7-14.4
			c3.8-3.7,8.5-5.6,14-5.6c5.6,0,10.1,1.6,13.7,4.7c3.8,3.4,5.7,8,5.7,13.9V934.1z M487,902.8c0-1.1-0.3-2.1-1-2.8
			c-0.7-0.7-1.6-1.1-2.6-1.1c-1,0-1.9,0.4-2.6,1.1c-0.7,0.7-1,1.7-1,2.8c0,1.1,0.3,2.1,1,2.8c0.7,0.7,1.6,1.1,2.6,1.1
			c1,0,1.9-0.4,2.6-1.1C486.7,904.8,487,903.9,487,902.8z"/>
		<path class="st6" d="M554.9,909.5c0,3.5-0.8,5.9-2.5,7.2c3.1,1.9,4.7,4.8,4.7,8.6c0,2.8-0.9,5.1-2.7,7c-1.8,1.9-3.9,2.8-6.4,2.8
			c-2.3,0-4.4-0.8-6-2.4c-1.7-1.6-2.7-3.6-3-6c-2.6,1.4-4.4,2.4-5.6,3.1c-1.9,1.3-3.5,2.7-4.6,4.3h-7.6v-33.4
			c-0.8,0.2-1.5,0.3-2.1,0.3c-2.6,0-4.8-1-6.5-2.9c-1.8-2-2.7-4.3-2.7-7.1c0-2.7,0.9-5,2.7-6.9c1.8-1.9,3.9-2.9,6.5-2.9
			c2.7,0,5,1,6.8,3c1.8,2,2.7,4.5,2.7,7.5v33c1.3-1,4.2-2.6,8.7-4.5c4-1.8,6.8-3.6,8.3-5.5c1.1-1.3,1.7-3.4,1.7-6.2v-26.3h7.5V909.5
			z M523.3,891.1c0-1.2-0.4-2.3-1.2-3.1c-0.8-0.9-1.8-1.3-2.9-1.3c-1.1,0-2.1,0.4-2.9,1.3c-0.8,0.9-1.2,1.9-1.2,3.1
			c0,1.2,0.4,2.3,1.2,3.1c0.8,0.9,1.8,1.3,2.9,1.3c1.1,0,2.1-0.4,2.9-1.3C522.9,893.3,523.3,892.3,523.3,891.1z M552,925.3
			c0-1.2-0.4-2.2-1.2-3.1c-0.8-0.9-1.8-1.3-2.9-1.3c-1.1,0-2.1,0.4-2.9,1.3c-0.8,0.9-1.2,1.9-1.2,3.1c0,1.2,0.4,2.2,1.2,3.1
			c0.8,0.9,1.8,1.3,2.9,1.3c1.1,0,2.1-0.4,2.9-1.3C551.6,927.6,552,926.5,552,925.3z"/>
		<path class="st6" d="M555.2,875.6c-10-3.5-19.1-5.2-27.4-5.2c-3.8,0-7.6,0.3-11.5,0.8c1-11.6,6.8-17.4,17.6-17.4
			c6.2,0,11.1,2,14.7,6C552.3,863.9,554.5,869.1,555.2,875.6z M547.4,867.9c-0.5-2.2-1.9-4.2-4.4-6.1c-2.4-1.9-5.2-2.9-8.2-2.9
			c-2.9,0-5.4,0.6-7.5,1.9c-2.1,1.3-3.4,2.9-4,5c1.4-0.3,3.5-0.5,6.4-0.5C535.8,865.3,541.6,866.2,547.4,867.9z"/>
		<path class="st6" d="M593.9,925.4c0,2.8-0.9,5.1-2.7,7c-1.8,1.9-4,2.8-6.6,2.8c-2.6,0-4.8-1-6.6-2.9c-1.8-1.9-2.7-4.2-2.7-7
			c0-2.8,0.9-5.1,2.7-7c1.8-1.9,4-2.9,6.6-2.9c1,0,1.6,0,1.8,0.1v-11.2c0-1.4-2.7-2.8-8-4.1c-5.4-1.3-10.2-2.4-14.6-3.2
			c0.2-4.8,1.3-8.6,3.5-11.5c2.2-2.9,5.3-4.4,9.4-4.4c1.7,0,4,0.4,6.9,1.2c2.9,0.8,5.1,1.2,6.3,1.2c1.4,0,2.1-1,2.3-2.9l5.9,1.7
			c-1.5,5.3-4.1,7.9-8,7.9c-1.5,0-3.5-0.4-6.2-1.1c-2.7-0.7-4.7-1.1-6.1-1.1c-3.5,0-5.6,1.4-6,4.3c6.2,1.4,11.4,2.9,15.6,4.4
			c4.2,1.6,6.3,4.2,6.3,8.1V925.4z M588.7,925.3c0-1.2-0.4-2.3-1.2-3.1c-0.8-0.9-1.8-1.3-2.9-1.3c-1.1,0-2.1,0.4-2.9,1.3
			c-0.8,0.9-1.2,1.9-1.2,3.1c0,1.2,0.4,2.3,1.2,3.1c0.8,0.9,1.8,1.3,2.9,1.3c1.1,0,2.1-0.4,2.9-1.3
			C588.2,927.5,588.7,926.5,588.7,925.3z"/>
		<path class="st6" d="M646.1,934.1h-7.5v-34.4c0-3.5-1.1-6.2-3.2-8.4c-2.1-2.1-4.8-3.2-8-3.2c-4.9,0-8.5,2.2-10.8,6.5
			c3.9,0.9,6.6,2.8,8.1,5.8c-2.2,1.3-3.6,2.4-4.4,3.3c-1,1.4-1.6,3.3-1.6,5.6c0,1.9,0.2,4.7,0.6,8.3c0.4,3.6,0.6,6.1,0.6,7.6
			c0,2.8-0.9,5.1-2.6,7s-3.8,2.9-6.3,2.9c-2.6,0-4.8-1-6.5-2.9c-1.8-1.9-2.7-4.3-2.7-7.1c0-2.7,0.9-5,2.7-6.9
			c1.8-1.9,3.9-2.9,6.3-2.9c1,0,1.6,0.1,1.8,0.4l-0.7-8c0-3,1.4-5.3,4.1-7c-2.2-1.5-4.6-2-7.4-1.6c0.1-5.4,1.9-9.8,5.6-13.3
			c3.5-3.2,7.8-4.8,13.1-4.8c5.6,0,10.2,1.7,13.7,5.1c3.5,3.4,5.2,7.9,5.2,13.5V934.1z M615.1,925.3c0-1.2-0.4-2.3-1.2-3.1
			c-0.8-0.9-1.8-1.3-2.9-1.3c-1.1,0-2.1,0.4-2.9,1.3c-0.8,0.9-1.2,1.9-1.2,3.1c0,1.2,0.4,2.3,1.2,3.1c0.8,0.9,1.8,1.3,2.9,1.3
			c1.1,0,2.1-0.4,2.9-1.3C614.7,927.5,615.1,926.5,615.1,925.3z"/>
		<path class="st6" d="M658.3,850.5c-2.1,14.4-9.3,21.6-21.8,21.6c-4.8,0-8.5-1.1-11.1-3.2c-2.6-2.1-3.9-4.8-3.9-8.1
			c0-2.5,0.8-4.6,2.4-6.4c1.6-1.7,3.6-2.6,5.9-2.6c2.5,0,4.5,0.9,6.1,2.7c1.6,1.8,2.4,3.9,2.4,6.3c0,2.3-0.6,4.1-1.8,5.2
			c8.4-0.3,13.3-5.5,14.6-15.5H658.3z M633.5,860.8c0-1.1-0.4-2.1-1.1-2.9c-0.7-0.8-1.6-1.2-2.7-1.2c-1,0-1.9,0.4-2.6,1.2
			c-0.7,0.8-1,1.7-1,2.9c0,1.1,0.3,2.1,1,2.8c0.7,0.7,1.6,1.1,2.6,1.1c1,0,1.9-0.4,2.7-1.1C633.1,862.9,633.5,861.9,633.5,860.8z"/>
		<path class="st6" d="M692.7,921c0,9.4-6,14.2-17.9,14.2c-11.8,0-17.8-4.7-17.8-14.2v-6c0-4.2,1.6-7.1,4.9-8.8
			c-3.6-2.7-5.5-6.6-5.5-11.8c0-3.8,1-7,3-9.4c2-2.5,4.7-3.7,8.2-3.7c2.4,0,4.5,0.8,6.2,2.4c1.7,1.6,2.5,3.7,2.5,6.3
			c0,2.3-0.8,4.4-2.3,6.1c-1.5,1.7-3.6,2.6-6.1,2.6c-1.3,0-2.4-0.2-3.4-0.6c0.6,3.3,2.1,4.9,4.3,4.9h8.6v6.4h-8.6
			c-1.3,0-2.3,0.6-3.1,1.8c-0.8,1.2-1.2,2.6-1.2,4.1v5.9c0,4.6,3.4,7,10.3,7c7,0,10.5-2.3,10.5-7v-38.9h7.5V921z M671.8,890
			c0-1.2-0.4-2.2-1.1-3c-0.7-0.8-1.7-1.2-2.8-1.2c-1.1,0-2.1,0.4-2.8,1.2c-0.7,0.8-1.1,1.8-1.1,3c0,1.2,0.4,2.2,1.1,3
			s1.7,1.2,2.8,1.2c1.1,0,2.1-0.4,2.8-1.2S671.8,891.3,671.8,890z"/>
	</g>
	<g>
		<path class="st3" d="M451.7,54.9c191,17,332.1,185.6,315.1,376.6c-17,191-185.6,332.1-376.6,315.1C199.2,729.6,58.1,561,75.1,370
			C92.1,179,260.7,37.9,451.7,54.9"/>
		<g>
			<path class="st2" d="M598.1,362.4c2.2,0.9,4.4,1.4,6.3,2.5c3.8,2.1,7.5,4.5,11.1,6.8c6.8,4.4,10.6,11.2,13.6,18.3
				c2.1,4.9,2.8,10.5,3.7,15.9c0.6,3.4,0.7,6.9,0.6,10.4c-0.1,5.1-0.7,10.2-1,15.4c-0.5,6.9-1,13.9-1.4,20.8
				c-0.4,5.8-0.7,11.6-1,17.4c-0.4,7.3-0.9,14.6-1.3,21.8c-0.2,4.3-0.3,8.7-0.6,13c-0.5,8.3-1.2,16.7-1.8,25
				c-0.3,4.3-0.5,8.6-0.6,12.9c-0.2,5.2-0.3,10.3-0.5,15.5c-0.1,2.4-2.6,4.3-4.9,4.3c-6.6,0-13.1,0.2-19.7,0.3
				c-4.8,0.1-9.5,0.1-14.3,0.2c-0.2,0-0.4,0-0.7,0c-1.6,0.3-3.3,1.1-4.7,0.7c-1-0.3-1.6-2.2-1.7-3.1c0.4-2.7,0.9-5.4,1.1-8.1
				c0.5-8.2,0.9-16.3,1.2-24.5c0.2-5.5,0.1-11,0.4-16.5c0.6-10.8,1.4-21.6,2-32.5c0.4-7.4,0.5-14.9,0.7-22.4
				c0.2-4.8,0.3-9.7,0.5-14.5c0-1.6,0-3.3-2.3-3c-1.9,0.2-4.1,0.1-4.2,3c-0.4,7.1-0.9,14.1-1.4,21.2c-0.6,9-1.2,18-1.7,27.1
				c-0.4,7.4-0.5,14.9-0.8,22.3c-0.1,3.4-0.1,6.9-0.9,10.2c-0.3,1.3-2.6,2.6-4.2,2.9c-2.4,0.4-4.9-0.1-7.4,0
				c-7.7,0.1-15.4,0.5-23.1,0.5c-4.1,0-7.6-1.8-10.8-4.2c-1.2-0.9-2.8-1.5-4.2-1.5c-6.7,0.1-13.5,0.3-20.2,0.6
				c-9.1,0.3-18.1,0.9-27.2,1.1c-3.8,0.1-5.9,2.7-8.4,4.8c-0.6,0.5-1.2,1.3-1.9,1.3c-9.6,0.2-19.3,0.3-28.9,0.6
				c-5.8,0.1-11.6,0.6-17.4,0.8c-2.4,0.1-4.8,0.1-7.1-0.4c-1-0.3-2.4-2-2.4-3.1c0.1-9.2,0.5-18.3,0.7-27.5c0.2-6,0.2-12.1,0.3-18.1
				c0.2-7.2,0.7-14.4,0.5-21.6c-0.1-2.3,0.6-5.8-2.4-7.1c-3.1-1.3-5.9-0.4-8.6,1.7c-3.8,2.9-7.9,5.4-12,7.9
				c-6.3,3.8-12.7,7.6-19.2,11.2c-7.8,4.4-15.5,9.2-24.2,11.6c-8.8,2.4-17.6,2.8-26.4-0.6c-3.7-1.4-7.6-2.1-11.1-3.8
				c-6.4-3.1-12.5-6.8-18.8-10.1c-3.2-1.6-5.8-4.1-9.2-5.7c-7.8-3.7-14.8-9-22.3-13.5c-4.4-2.7-9.1-5.1-13.6-7.6
				c-3.4-1.9-4.3-5.7-2.1-9.2c4.3-7,8.4-14.1,12.9-21c3.3-5.2,7.1-10,10.6-15.1c1.7-2.4,3.1-5.1,4.5-7.7c1-1.8,4.5-2.9,7.3-1.5
				c5,2.5,9.8,5.4,14.7,8.1c3,1.7,6.1,3.3,9.2,5c1.9,1.1,3.8,2.1,5.7,3.2c6.8,4,13.3,8.7,20.5,11.6c4.2,1.8,9.5,2.4,14.3-0.7
				c5.8-3.8,12.1-6.7,17.9-10.4c4.5-2.9,8.6-6.4,13.1-9.5c4.1-2.8,8.5-5.2,12.6-8c2.2-1.5,4.2-3.4,6.4-5c2.2-1.6,4.5-3,6.9-4.4
				c6.2-3.4,12.3-7.3,18.8-9.9c7.4-2.9,15-5.6,22.8-6.7c7.9-1.1,16.1-0.3,24.1-0.3c5.7,0,11.4,0,17,0.1c5.7,0.1,11.3,0.2,17,0.3
				c1.9,0,3.8-0.2,5.7-0.3c6.7-0.2,13.3-0.5,20-0.5c6.4,0,12.7,0.3,19.1,0.5c5,0.1,9.9,0.2,14.9,0.2c10.3-0.1,20.5-0.3,30.8-0.4
				c1.8,0,3.5,0.7,5.3,0.9C595.5,362.5,596.8,362.4,598.1,362.4z"/>
			<path class="st2" d="M620.4,235.6c-4.2-0.4-8.3-0.8-12.5-1c-1-0.1-2.1,0.3-3.2,0.4c-0.8,0.1-1.7,0.4-2.5,0.4
				c-6.3-0.3-12.5-0.7-18.8-1c-5.5-0.2-11-0.3-16.6-0.3c-8.2,0-16.4,0.1-24.6,0c-8.3-0.1-16.5-0.1-24.8-0.4
				c-8.5-0.3-17.1-0.9-25.6-1.2c-3.2-0.1-6.4,0.5-9.5,0.5c-9-0.1-17.9-0.2-26.9-0.4c-9.8-0.2-19.6-0.5-29.4-0.9
				c-9.6-0.4-19.1-0.8-28.7-1.5c-2.2-0.2-4.5-1.3-6.3-2.5c-0.6-0.4-0.4-3.1,0.3-4.2c1.1-1.5,2.8-2.7,4.6-3.4
				c3.2-1.3,4.3-3.8,5.2-6.7c2.5-7.4,4.4-15,7.9-21.9c3.4-6.8,6.1-14.1,11.6-19.9c4.7-4.9,8.3-10.8,12.4-16.2
				c1.1-1.4,2.7-2.5,3.9-3.9c1.4-1.7,2.4-3.5,3.7-5.3c0.4-0.6,0.9-1.2,1.5-1.6c3.8-2.5,8.2-4.3,11.3-7.4c4.1-4,9.3-5,14-7.4
				c3.6-1.9,7.1-4.3,11-5.5c7-2.2,14.5-3.2,21.4-5.5c3.9-1.3,7.5-0.6,11.2-0.5c6.1,0.1,12.2-0.2,18.2,0.5c4.8,0.5,9.5,2.1,14.2,3.5
				c5,1.5,10.1,2.9,14.7,5.2c6.6,3.3,13.2,6.8,19.1,11.3c8.3,6.3,16.5,12.9,22.1,21.8c3.1,5,5.8,10.4,8.7,15.5
				c1,1.8,2.3,3.6,3.2,5.5c2.4,5.3,4.9,10.5,6.9,15.9c1.4,3.7,1.9,7.7,2.7,11.6c0.8,4.1,1.2,8.3,2.4,12.3c0.5,1.6,2.2,3,3.5,4.3
				c0.8,0.8,2.3,1,2.9,1.9c0.9,1.3,2,3.3,1.5,4.3c-0.6,1.3-2.5,2.5-4,2.9c-2.1,0.6-4.3,0.4-6.5,0.5
				C620.4,235.2,620.4,235.4,620.4,235.6z"/>
			<path class="st2" d="M450.7,240.4c7.6,0.2,14.4,0.4,21.2,0.5c3,0,6-0.5,9-0.4c7.7,0.3,15.5,0.9,23.2,1.1
				c3.8,0.1,7.9-1.1,11.5-0.2c6.7,1.5,13.2-0.5,19.8-0.1c5.4,0.4,10.7,1.1,16,1.5c3.4,0.2,6.9,0.1,10.4,0.2c3.2,0,6.5-0.1,9.7,0.2
				c2.2,0.2,3.7,1.1,4.9,3.5c3.6,7.7,7.8,15.2,11.4,22.9c2.8,5.9,5.2,12.1,7.6,18.2c0.3,0.8,0.2,1.8-0.1,2.7
				c-1.8,5.7-4,11.1-7.4,16.2c-1.8,2.7-2.5,6.3-4.1,9.2c-1.5,2.7-3.5,5.1-5.5,7.4c-2.3,2.6-4.8,5.1-7.4,7.4
				c-2.9,2.5-6.1,4.7-9.2,6.9c-1.9,1.4-3.8,2.9-6,3.9c-4.5,2.1-9.1,4-13.6,5.9c-0.8,0.3-1.5,0.8-2.3,1.2c-3.7,2.2-7.8,2.6-11.9,2.7
				c-1.7,0.1-3.4,0.7-5.1,0.9c-4.9,0.4-9.9,0.8-14.9,0.9c-4.9,0.1-9.7-0.1-14.6-0.5c-4-0.4-8.1-0.8-11.8-2.1
				c-4-1.3-7.8-3.6-11.5-5.6c-4.4-2.3-8.7-4.7-12.9-7.3c-1.9-1.1-3.5-2.7-5.2-4c-7.6-5.7-13.5-12.9-18.2-21.1
				c-2.5-4.3-4.2-9-6.2-13.6c-1.7-4-3.5-7.9-4.9-12c-0.9-2.5-1-5.2,0.8-7.7c4-5.6,7.9-11.3,11.5-17.1c2.6-4.2,4.8-8.7,7.3-13
				c1.4-2.4,2.5-5,4.4-7C447.5,240.9,449.7,240.7,450.7,240.4z M512.8,268.3c-0.2,0.1-0.6,0.2-0.7,0.4c-2.2,4.1-4.4,8.2-6.4,12.3
				c-1.4,2.9-0.5,4.2,2.7,4.3c2.4,0.1,4.8-0.2,7.2-0.4c3-0.3,4.2-2.7,2.8-5.4C516.5,276,514.7,272.3,512.8,268.3z"/>
			<path class="st2" d="M492.7,633c-1.2,2.7-2.5,5.5-3.6,8.3c-1.8,4.7-3.3,9.5-5,14.3c-1.2,3.3-2.5,6.5-3.6,9.8
				c-1,3-6.9,7.3-10.2,7.9c-3.7,0.7-7.3,2-11,2.9c-2,0.5-4.1,0.5-6.2,0.7c-8.1,0.7-16.3,1.4-24.4,2c-5.8,0.4-11.7,0.8-17.5,1
				c-3.5,0.1-4.9-1.5-4.9-5c0-2.3-0.4-4.6-0.2-6.9c0.6-6.2,0.4-12.3,0.1-18.4c-0.3-6.3-1.2-12.7-0.2-18.8c1.2-7.5-0.5-14.7-0.1-22
				c0.5-7.9,1.6-15.7,2.4-23.5c0.2-1.8,0.6-3.7,0.4-5.4c-0.2-2.2,1-3.2,2.7-3.4c3.3-0.4,6.6-0.7,9.9-0.6c6.8,0.1,13.5,0.6,20.3,0.7
				c2.4,0,4.9-0.5,7.3-1.2c4.1-1.1,8.1-0.7,12.1,0.2c0.4,0.1,0.8,0.6,1,1c2.9,4.6,7.7,5.6,12.8,2.9c0.7-0.4,1.8-0.6,2.5-0.3
				c4.7,2,9.6,1.2,14.5,1.1c11-0.4,22-0.8,32.9-1.2c4.5-0.2,8.4-1.1,11.5-5c1.4-1.7,5.1-2,7.8-2.1c7.9-0.5,15.8-0.8,23.7-0.8
				c3.5,0,5.1,2.6,4.9,6.1c-0.4,8.7-0.7,17.4-1.1,26.1c-0.3,5.6-0.7,11.2-0.9,16.7c-0.1,4.4,0.5,8.8-0.2,13.1
				c-0.5,2.8-2.4,5.9-4.6,7.6c-3.4,2.4-7.6,3.7-11.4,5.4c-5.3,2.3-10.7,4.7-16.1,6.9c-5,2-10.7,2.8-15,5.7c-4.3,3-9.2,2.3-13.4,4.7
				c-2,1.1-5.7-1.2-6.7-3.7c-2.4-6.5-5-13-7.4-19.5c-0.8-2.2-1.3-4.6-1.9-6.9C493.5,633.1,493.1,633.1,492.7,633z"/>
			<path class="st2" d="M231.3,364c6.7,4,13.1,7.4,19,11.6c4.5,3.2,7.9,7.7,10.7,12.6c1.9,3.3,0.5,5.5-0.8,7.8
				c-1.4,2.5-3.3,4.7-4.9,7.2c-2.6,4-5,8.2-7.5,12.2c-1.3,2.1-2.7,4-3.9,6.1c-2.5,4.4-6.4,6.8-11.1,7.9c-1.9,0.4-2.7,0.8-2.6,3.1
				c0.2,7.3-0.2,14.6-0.3,21.9c-0.1,9.6-0.2,19.3-0.2,28.9c0,7,0.3,14.1,0.4,21.1c0.1,5.7,0.3,11.5,0.3,17.2c0,4.9,1.1,9.8,3.6,13.8
				c2.3,3.6,5.9,6.9,9.6,8.9c8.4,4.4,17.5,6.2,27.1,5.3c5.5-0.5,11.1,0,16.6,0c1.2,0,2.5-0.6,3.7-0.6c11.3-0.3,22.6-0.5,33.9-0.8
				c7.2-0.2,14.4-0.7,21.7-0.9c7.4-0.3,14.8-0.4,22.1-0.7c4.2-0.1,7.2-1.4,9.4-5.6c3.3-6.1,8.5-10.3,16.1-11.1
				c4.5-0.4,6.9,1.9,9,4.6c2.7,3.4,6.2,4.2,9.9,4.1c6.9-0.1,13.8-0.7,20.8-1c8.5-0.4,16.9-0.5,25.4-0.9c2.6-0.1,3.4,1.6,3.5,3.6
				c0.2,2.9-0.1,5.8-0.1,8.7c0,3.3,0.4,6.6,0.1,9.8c-0.2,2.5-1,5.1-2.2,7.2c-0.7,1.2-2.5,2.9-4.4,0.6c-0.4-0.5-1.5-0.8-2.3-0.7
				c-3.4,0.3-6.7,0.8-10.1,1c-1.9,0.1-3.9-0.3-5.8-0.3c-3.3,0.1-6.6,0.4-10,0.5c-4.9,0.2-9.8,0.4-14.7,0.3
				c-4.9-0.1-9.6,0.3-13.2,4.1c-4,4.2-8.5,2.9-12.7,0.7c-3.8-2-7.3-4.5-9.2-8.9c-1.1-2.6-3.9-4-7-3.9c-13.2,0.5-26.3,1.1-39.5,1.6
				c-4.8,0.2-9.6,0.1-14.4,0.2c-2.2,0.1-4.4,0.3-6.6,0.4c-11.4,0.6-22.9,1.4-34.3,1.8c-5.5,0.2-11.2,0.6-16.5-0.4
				c-8.7-1.5-17.5-3.1-25.3-7.7c-12.3-7.2-17.6-18.1-17.4-32c0-2-0.1-4-0.2-5.9c-0.3-12.7-0.7-25.3-0.8-38
				c-0.1-7.2,0.6-14.4,0.6-21.6c0-7.3-0.3-14.6-0.6-21.9c-0.1-2.7-0.6-5.3-1.1-8c-0.1-0.8-0.7-1.5-1.3-2.1
				c-3.6-3.1-7.3-6.2-10.9-9.2c-0.2-0.2-0.5-0.4-0.7-0.7c-1.1-2.2-2.5-4.3-3.1-6.6c-0.8-3.4-1.3-6.8-1.5-10.3
				c-0.3-7.3,2.2-13.5,7.5-18.8c3.2-3.2,6-6.9,8.7-10.7c2.5-3.6,1.3-6.8-2.6-9c-1.7-1-3.1-2.5-4.6-3.8c-0.4-0.3-0.7-0.8-0.8-1.3
				c-1.8-6.7,5.1-20.2,11.5-22.8c4-1.6,8.7-1.6,11.7,0.7c3,2.3,5.9,5.5,6.8,9.9c0.5,2.2,1.4,4.4,2.5,6.4c2.2,4.2-1,9.1-4.3,11.6
				C233.1,362,232.3,362.9,231.3,364z M397.4,544.2c-0.1-3.1-3.5-5.8-5.4-3.8c-2,2.2-4.6,4.1-5.5,7.5c-0.9,3.6-0.1,6.7,0.8,9.9
				c0.9,3.3,3.7,5.4,7.1,5.3c0.8,0,2.3-1.2,2.4-1.9C397.1,555.6,397.2,550,397.4,544.2z M227.1,349.5c-0.2-3.9-1.9-5.9-4.9-5.8
				c-2.5,0.1-5.1,3.5-5,6.4c0.1,3.1,2.4,5.5,5.1,5.4C225.4,355.5,227.2,353,227.1,349.5z"/>
			<path class="st2" d="M240.3,305.5c3.8-1.2,7.5-7.5,5.6-12c-4.1-9.8-9.7-18.8-19.4-24.3c-5.5-3.1-14.2,1.7-14.1,8.8
				c0.1,3.9-1.2,4.9-5.3,4.4c-2.3-0.3-4.6-0.2-7-0.4c-2.8-0.3-3.9-1.8-3.5-4.7c0.4-2.4,0.1-4.9,0.3-7.4c0.5-7.1,5.4-10.8,11.1-13.8
				c2.3-1.2,4.2-2.6,7.4-2.8c7.9-0.5,15.4-0.7,22.2,3.9c3,2,5.8,4.5,8,7.4c4.2,5.3,8.4,10.7,11.6,16.6c3,5.5,5.6,11.8,4.3,18.2
				c-0.9,4.3-3.3,8.3-5.6,12.2c-2.8,4.8-6.3,9.1-9.1,13.9c-1.4,2.4-1.6,5.5-2.9,8.1c-2.3,4.6-6.3,4.9-9.8,1.1
				c-2.3-2.5-4.7-4.8-7-7.3c-1-1.1-2.8-3-2.5-3.7c0.9-1.9,2.5-3.7,4.2-5.1c1.4-1.2,3.3-2,5-2.8C238.3,313.9,238.8,309.7,240.3,305.5
				z"/>
			<path class="st2" d="M573.9,560.5c-2.9,1.1-5.3,3.1-9,3c-7.6-0.3-15.3,0.3-23,0.5c-3.8,0.1-4.2-0.9-5.3-4.5
				c-1.1-3.6-1.5-6.7,0.3-10.2c0.6-1.2-0.2-3-0.1-4.5c0.2-2.8,0.6-5.6,1.1-8.3c0.1-0.6,1.1-1.4,1.8-1.5c2.7-0.3,5.4-0.5,8.1-0.6
				c4.6-0.1,9.3-0.1,13.9-0.1c3.3,0,6.7,0.2,10,0.1c2.7-0.1,3,1.1,2.8,3.4c-0.5,6.8-0.7,13.7-1,20.6
				C573.4,559,573.7,559.6,573.9,560.5z"/>
			<path class="st2" d="M475.7,564.1c0.3-8.8,0.5-17.7,0.9-26.5c0.1-3.1,1.9-4.5,5.3-4.6c5.4-0.1,10.7-0.2,16.1-0.3
				c7.8-0.2,15.6-0.5,23.4-0.4c0.9,0,2.5,1.7,2.7,2.7c0.5,3.7,0.8,7.5,0.7,11.2c-0.3,6-0.9,12-1.5,18c-0.3,2.6-2.5,2.6-4.5,2.7
				c-4.5,0.3-8.9,0.5-13.4,0.7c-8.6,0.3-17.1,0.7-25.7,0.8C477.4,568.3,475.5,567,475.7,564.1z M485.9,539.4c-2.3,0.2-3.7,2-3.7,5.8
				c0,4.5-0.3,9.1-0.1,13.6c0,0.9,1.3,2.4,2.1,2.5c2.4,0.4,5,0.4,7.4,0.3c7-0.1,14-0.3,21-0.6c2.3-0.1,4.3-1,4.4-3.8
				c0.2-4.8,0-9.5,0.6-14.2c0.4-3.3-1-4.2-3.6-4.1C504.9,539,495.9,539.2,485.9,539.4z"/>
			<path class="st2" d="M405.7,291.9c0.4,1,1,1.8,1.1,2.7c0.2,1.3,0.3,2.4-1.9,2.4c-7.3-0.1-14.5,0.2-21.8,0.2
				c-6.1,0-12.3-0.2-18.4-0.2c-12.4,0-24.7,0.2-37.1,0.1c-7.9,0-15.8-0.4-23.7-0.6c-9.3-0.2-18.5-0.2-27.8-0.4
				c-1.8,0-4.2-0.2-4.1-2.4c0.1-1.2,2.1-2.5,3.5-3.3c0.9-0.5,2.3-0.1,3.4-0.1c11.3,0,22.6,0.1,34,0.1c13.3,0,26.6,0,39.9,0
				c7.6,0.1,15.3,0.3,22.9,0.5c8.9,0.3,17.8,0.8,26.6,1.1C403.4,292.1,404.5,292,405.7,291.9z"/>
			<path class="st2" d="M180.1,288.5c1.3-0.4,2.1-0.8,2.9-0.8c5.8,0.3,11.6,1,17.4,1.2c6,0.2,12,0,17.9,0c5.3,0,10.7,0.6,16,0.1
				c3.1-0.3,3.3,2.6,5.2,3.4c0.4,0.2,0.7,0.8,1,1.2c-4.2,3.6-9.1,1.8-13.7,2c-5.2,0.2-10.3,0.2-15.5,0.2
				c-10.8-0.2-21.6-0.5-32.3-0.7c-4.5-0.1-9,0.1-13.5,0.1c-11.6-0.2-23.1-0.4-34.7-0.6c-3.8-0.1-7.6,0.1-11.3-0.1
				c-1.5-0.1-3.7-0.4-3-2.7c0.5-1.7,0.6-3.7,4-3.5c6.4,0.5,12.9-0.2,19.3-0.2c4.9,0,9.9,0.4,14.8,0.4c4.3,0,8.6-0.3,12.9-0.5
				c3.9-0.2,7.7-0.4,11.6-0.5C179.5,287.5,179.9,288.3,180.1,288.5z"/>
			<path class="st2" d="M605.1,298.6c2.7-6.2,8-3.7,12.2-4.1c3.8-0.4,7.7,0.3,11.6,0.5c5.4,0.2,10.8,0.3,16.1,0.3
				c4.8,0,9.6,0.1,14.3-0.2c3-0.1,6-0.9,9-1.1c3.5-0.3,7-0.5,10.5-0.4c7.8,0.2,15.6,0.8,23.5,0.9c5.3,0.1,10.6-0.2,16-0.2
				c2.6,0,5.2-0.2,7.7,0.3c1.2,0.3,2.2,1.9,3.3,3c-2.7,3-5.9,2.1-8.8,2.3c-1.3,0.1-2.6-0.3-3.8-0.3c-9.7,0.1-19.5,0.4-29.2,0.3
				c-6.4,0-12.9-0.6-19.3-0.8c-2.9-0.1-5.9,0.4-8.8,0.4c-4.8,0.1-9.6,0.2-14.4,0.2c-8.9-0.1-17.9-0.3-26.8-0.4
				c-3.3,0-6.5,0.3-9.8,0.3C607.2,299.8,606.2,299,605.1,298.6z"/>
			<path class="st2" d="M584.2,244.8c5.4-3.1,11.2,0.2,16.6-1.8c2.4,4.6,1.9,9.5,1.9,14.2c0,5-0.5,10.1-1,15.1
				c-0.2,1.6-1.1,3.2-1.9,5.6c-2.2-3.3-4.4-5.2-4.2-8.8c0.1-2-1.7-4.1-2.8-6.1c-1.4-2.6-3.1-5-4.3-7.7
				C586.8,252,585.6,248.5,584.2,244.8z"/>
			<path class="st2" d="M438.6,240.9c-1.5,2.4-3.1,4.7-4.5,7.2c-1.8,2.9-3.5,5.9-5.2,8.8c-2.1,3.6-4,7.3-6.1,10.9
				c-0.3,0.6-1.4,1.1-2,1c-0.5-0.1-1-1.2-1-1.9c0.1-6.7,0.4-13.3,0.6-20c0-0.9,0.1-1.7,0-2.6c-0.4-2.7,1.4-4.6,3.3-4.9
				c4.6-0.5,9.3-0.2,14-0.3C438,239.7,438.3,240.3,438.6,240.9z"/>
			<path class="st2" d="M201.1,343c-6.2,0.4-8-2.7-7-9.7c0.8-5.5,5.6-5.5,9-7.1c2.2-1,5-0.7,7.3-1.7c2.7-1.1,3.5,0.7,4.5,2.2
				c1.3,2.1-0.9,2.5-2,3.1c-3.7,2-5.2,5.6-6.7,9.1C205,341.5,204,344.1,201.1,343z"/>
		</g>
	</g>
</g>
</svg>
