<?xml version="1.0" encoding="utf-8"?>
<!-- Generator: Adobe Illustrator 22.0.0, SVG Export Plug-In . SVG Version: 6.00 Build 0)  -->
<svg version="1.1" id="Layer_1" xmlns="http://www.w3.org/2000/svg" xmlns:xlink="http://www.w3.org/1999/xlink" x="0px" y="0px"
	 viewBox="0 0 841.9 1190.6" style="enable-background:new 0 0 841.9 1190.6;" xml:space="preserve">
<style type="text/css">
	.st0{fill:none;}
	.st1{fill:#010101;}
	.st2{fill:#FFFFFF;}
	.st3{fill:#154989;}
	.st4{fill:#EB2627;}
	.st5{fill:#2A3B8F;}
	.st6{fill:#FFFFFF;stroke:#FFFFFF;stroke-miterlimit:10;}
	.st7{fill-rule:evenodd;clip-rule:evenodd;fill:#FFFFFF;}
	.st8{fill-rule:evenodd;clip-rule:evenodd;fill:#154989;}
	.st9{fill:#2F3690;}
</style>
<g>
	<g>
		<rect x="0" y="0" class="st0" width="841.9" height="1190.6"/>
		<rect x="28.3" y="28.3" class="st1" width="785.2" height="1133.9"/>
		<rect x="34" y="34" class="st2" width="773.9" height="1122.5"/>
		<rect x="52.5" y="792.6" class="st3" width="737" height="348.7"/>
		<g id="stecon_12_">
			<path id="red_12_" class="st4" d="M52.8,53.5c42.5,0,85,0,127.6,0c0,22.6,0,45.1,0,67.7c-42.5,0-85,0-127.5,0c0-0.2,0-0.5,0-0.7
				c0-22.1,0-44.2,0-66.3C52.9,54,52.8,53.8,52.8,53.5z M55.8,87.4c0.2,0.1,0.4,0.2,0.5,0.3c3.6,1.8,7.1,3.7,10.7,5.5
				c16.4,8.4,32.7,16.8,49.1,25.2c0.4,0.2,0.7,0.2,1.1,0c13.8-7.1,27.6-14.2,41.4-21.3c6.1-3.2,12.3-6.3,18.4-9.5
				c0.1-0.1,0.3-0.2,0.5-0.3c-0.2-0.1-0.3-0.2-0.5-0.3c-3.8-1.9-7.6-3.9-11.4-5.8c-16.2-8.3-32.4-16.7-48.5-25
				c-0.3-0.2-0.5-0.2-0.9,0c-7,3.6-14.1,7.3-21.1,10.9c-12.6,6.5-25.2,12.9-37.7,19.4C56.9,86.8,56.4,87.1,55.8,87.4z"/>
			<g id="white_12_">
				<path class="st2" d="M55.8,87.4c0.6-0.3,1.1-0.6,1.6-0.8c12.6-6.5,25.2-12.9,37.7-19.4c7-3.6,14.1-7.2,21.1-10.9
					c0.3-0.2,0.6-0.1,0.9,0c16.2,8.3,32.4,16.7,48.5,25c3.8,1.9,7.6,3.9,11.4,5.8c0.1,0.1,0.3,0.1,0.5,0.3c-0.2,0.1-0.3,0.2-0.5,0.3
					c-6.1,3.2-12.3,6.3-18.4,9.5c-13.8,7.1-27.6,14.2-41.4,21.3c-0.4,0.2-0.7,0.2-1.1,0C99.7,110,83.4,101.6,67,93.1
					c-3.6-1.8-7.1-3.7-10.7-5.5C56.2,87.6,56,87.5,55.8,87.4z M59.7,87.4c0.2,0.1,0.3,0.2,0.4,0.2c1,0.5,1.9,1,2.9,1.5
					c17.7,9.1,35.5,18.2,53.2,27.3c0.3,0.1,0.5,0.2,0.8,0c12.9-6.6,25.7-13.2,38.6-19.8c5.8-3,11.6-6,17.5-9
					c0.1-0.1,0.3-0.2,0.5-0.3c-0.2-0.1-0.4-0.2-0.6-0.3c-15.9-8.2-31.9-16.4-47.8-24.5c-2.7-1.4-5.5-2.8-8.2-4.2
					c-0.2-0.1-0.4-0.1-0.7,0c-0.3,0.2-0.7,0.4-1.1,0.6C97,68.3,78.6,77.6,60.3,87C60.1,87.1,60,87.2,59.7,87.4z"/>
				<path class="st2" d="M147.4,79.5c1.4,0,2.7,0,4.1,0c0,5.2,0,10.3,0,15.4c-1.4,0-2.8,0-4.2,0c-0.9-2.6-1.8-5.3-2.7-7.9
					c0,0-0.1,0-0.1,0c0,2.6,0,5.2,0,7.9c-1.4,0-2.7,0-4,0c0,0,0,0,0,0c0,0,0,0,0,0c0-0.1,0-0.2,0-0.3c0-4.9,0-9.9,0-14.8
					c0,0,0-0.1,0-0.2c0.1,0,0.3,0,0.4,0c1.2,0,2.3,0,3.5,0c0.4,0,0.4,0,0.5,0.4c0.8,2.5,1.6,5,2.4,7.5c0,0.1,0.1,0.2,0.2,0.4
					C147.4,85,147.4,82.3,147.4,79.5z"/>
				<path class="st2" d="M138.8,87.3c0,1.5,0,3,0,4.5c0,0.8-0.3,1.4-0.8,1.9c-0.7,0.7-1.6,1.2-2.6,1.3c-1.5,0.3-3.1,0.3-4.6-0.1
					c-0.9-0.2-1.6-0.6-2.3-1.3c-0.5-0.5-0.8-1.1-0.8-1.9c0-3,0-6.1,0-9.1c0-0.7,0.2-1.3,0.7-1.8c0.6-0.7,1.4-1.2,2.3-1.4
					c1.7-0.4,3.5-0.4,5.2,0.1c0.7,0.2,1.4,0.6,2,1.2c0.6,0.5,0.9,1.2,0.8,2C138.8,84.3,138.8,85.8,138.8,87.3z M134.2,87.3
					c0-1.5,0-2.9,0-4.4c0-0.7-0.1-0.9-0.8-0.9c-0.1,0-0.2,0-0.2,0c-0.5,0.1-0.6,0.2-0.6,0.7c0,3,0,6,0,9c0,0.5,0.1,0.7,0.6,0.7
					c0.2,0,0.3,0,0.5,0c0.5-0.1,0.6-0.2,0.6-0.7C134.2,90.3,134.2,88.8,134.2,87.3z"/>
				<path class="st2" d="M126.7,88.9c0,0.2,0,0.3,0,0.5c0,0.8,0,1.6,0,2.4c0,0.8-0.3,1.5-0.9,2c-0.7,0.7-1.5,1.1-2.5,1.3
					c-1.5,0.3-3,0.3-4.5-0.1c-0.8-0.2-1.5-0.6-2.2-1.2c-0.6-0.6-0.9-1.2-0.9-2.1c0-3,0-5.9,0-8.9c0-0.9,0.3-1.6,0.9-2.1
					c0.7-0.7,1.6-1.1,2.5-1.2c1.4-0.2,2.9-0.2,4.3,0.1c0.9,0.2,1.6,0.6,2.3,1.2c0.6,0.6,0.9,1.2,0.9,2.1c0,0.8,0,1.7,0,2.5
					c0,0.2,0,0.3,0,0.5c-1.6,0-3.1,0-4.6,0c0-0.2,0-0.3,0-0.5c0-0.9,0-1.7,0-2.6c0-0.5-0.1-0.6-0.6-0.7c-0.1,0-0.2,0-0.3,0
					c-0.7,0.1-0.7,0.3-0.7,0.8c0,2.9,0,5.9,0,8.8c0,0.1,0,0.2,0,0.3c0,0.2,0.1,0.4,0.3,0.4c0.1,0,0.3,0.1,0.4,0.1
					c0.6,0.1,0.8-0.2,0.8-0.8c0-0.8,0-1.5,0-2.3c0-0.2,0-0.3,0-0.5C122.4,88.8,126,88.8,126.7,88.9z"/>
				<path class="st2" d="M105.5,94.9c0-5.1,0-10.2,0-15.3c0.4-0.1,8.7-0.1,9.1,0c0,0.8,0,1.6,0,2.5c-0.1,0-0.3,0-0.4,0
					c-1.1,0-2.2,0-3.3,0c-0.1,0-0.3,0-0.5,0c0,1.4,0,2.7,0,4.1c1,0,2.1,0,3.1,0c0,0.8,0,1.5,0,2.2c-0.4,0.1-0.7,0.1-1,0.1
					c-0.3,0-0.7,0-1,0c-0.3,0-0.7,0-1,0c-0.1,0.3-0.1,2.8,0,3.7c0.1,0,0.3,0,0.5,0c1.1,0,2.2,0,3.3,0c0.2,0,0.3,0,0.5,0
					c0,0.9,0,1.8,0,2.6C114.3,95,106,95,105.5,94.9z"/>
				<path class="st2" d="M101.1,94.9c-1.6,0-3.1,0-4.7,0c0-4.3,0-8.5,0-12.8c-1,0-2,0-3,0c-0.1-0.4-0.1-2.1,0-2.6
					c0.3-0.1,10.4-0.1,10.8,0c0.1,0.3,0.1,2.1,0,2.6c-1,0-2,0-3,0C101.1,86.4,101.1,90.6,101.1,94.9z"/>
				<path class="st2" d="M92.1,84.9c-1.6,0-3.1,0-4.6,0c0-0.2,0-0.3,0-0.5c0-0.6,0-1.2,0-1.8c0-0.4-0.1-0.6-0.5-0.6
					c-0.1,0-0.2,0-0.4,0c-0.3,0-0.5,0.2-0.5,0.5c0,0.6,0,1.1,0,1.7c0,0.4,0.2,0.6,0.5,0.8c0.4,0.2,0.7,0.4,1.1,0.7
					c1,0.6,2,1.1,2.9,1.7c0.1,0.1,0.3,0.2,0.4,0.3c0.7,0.5,1.1,1.2,1.1,2.1c0,0.7,0,1.3,0,2c0,0.7-0.2,1.3-0.7,1.7
					c-0.7,0.7-1.5,1.2-2.4,1.4c-1.5,0.4-3.1,0.4-4.7,0c-0.8-0.2-1.6-0.6-2.2-1.2c-0.6-0.5-0.9-1.2-0.9-2.1c0-0.8,0-1.5,0-2.3
					c0.3-0.1,3.9-0.1,4.5,0c0,0.1,0,0.3,0,0.4c0,0.7,0,1.3,0,2c0,0.4,0.1,0.6,0.5,0.6c0.2,0,0.5,0,0.7-0.1c0.2,0,0.3-0.2,0.3-0.4
					c0-0.6,0-1.2,0-1.8c0-0.3-0.2-0.6-0.4-0.7c-0.4-0.3-0.8-0.5-1.2-0.8c-1-0.6-2-1.2-2.9-1.8c-0.3-0.2-0.6-0.4-0.9-0.7
					c-0.4-0.4-0.6-0.9-0.6-1.5c0-0.7,0-1.3,0-2c0-0.8,0.3-1.4,0.8-1.9c0.7-0.7,1.6-1.2,2.6-1.4c1.4-0.3,2.8-0.3,4.2,0.1
					c0.9,0.2,1.7,0.7,2.3,1.3c0.5,0.5,0.8,1.1,0.8,1.9C92.1,83.5,92.1,84.2,92.1,84.9z"/>
			</g>
			<g id="blue_12_">
				<path class="st5" d="M59.7,87.4c0.3-0.1,0.5-0.2,0.7-0.3c18.3-9.4,36.6-18.8,54.9-28.1c0.4-0.2,0.7-0.4,1.1-0.6
					c0.2-0.1,0.4-0.1,0.7,0c2.7,1.4,5.4,2.8,8.2,4.2c15.9,8.2,31.9,16.4,47.8,24.5c0.2,0.1,0.3,0.2,0.6,0.3
					c-0.2,0.1-0.3,0.2-0.5,0.3c-5.8,3-11.6,6-17.5,9c-12.9,6.6-25.7,13.2-38.6,19.8c-0.3,0.1-0.5,0.1-0.8,0
					C98.5,107.3,80.8,98.2,63,89.1c-1-0.5-1.9-1-2.9-1.5C60,87.5,59.9,87.5,59.7,87.4z M147.4,79.5c0,2.8,0,5.5,0,8.3
					c-0.1-0.1-0.1-0.2-0.2-0.4c-0.8-2.5-1.6-5-2.4-7.5c-0.1-0.4-0.1-0.4-0.5-0.4c-1.2,0-2.3,0-3.5,0c-0.1,0-0.3,0-0.4,0
					c0,0.1,0,0.1,0,0.2c0,4.9,0,9.9,0,14.8c0,0.1,0,0.2,0,0.3c0,0,0,0,0,0c0,0,0,0,0,0c1.3,0,2.7,0,4,0c0-2.7,0-5.3,0-7.9
					c0,0,0.1,0,0.1,0c0.9,2.6,1.8,5.3,2.7,7.9c1.4,0,2.8,0,4.2,0c0-5.1,0-10.2,0-15.4C150.2,79.5,148.8,79.5,147.4,79.5z
					 M138.8,87.3c0-1.5,0-3,0-4.5c0-0.8-0.3-1.5-0.8-2c-0.6-0.6-1.2-1-2-1.2c-1.7-0.5-3.5-0.5-5.2-0.1c-0.9,0.2-1.7,0.7-2.3,1.4
					c-0.4,0.5-0.7,1.1-0.7,1.8c0,3,0,6.1,0,9.1c0,0.8,0.3,1.4,0.8,1.9c0.6,0.7,1.4,1.1,2.3,1.3c1.5,0.3,3.1,0.3,4.6,0.1
					c1-0.2,1.8-0.6,2.6-1.3c0.5-0.5,0.8-1.2,0.8-1.9C138.8,90.3,138.8,88.8,138.8,87.3z M126.7,88.9c-0.6-0.1-4.3-0.1-4.7,0
					c0,0.1,0,0.3,0,0.5c0,0.8,0,1.5,0,2.3c0,0.7-0.2,0.9-0.8,0.8c-0.1,0-0.3,0-0.4-0.1c-0.2-0.1-0.3-0.2-0.3-0.4c0-0.1,0-0.2,0-0.3
					c0-2.9,0-5.9,0-8.8c0-0.5,0-0.7,0.7-0.8c0.1,0,0.2,0,0.3,0c0.5,0.1,0.6,0.2,0.6,0.7c0,0.9,0,1.7,0,2.6c0,0.2,0,0.3,0,0.5
					c1.6,0,3.1,0,4.6,0c0-0.2,0-0.4,0-0.5c0-0.8,0-1.7,0-2.5c0-0.9-0.3-1.5-0.9-2.1c-0.7-0.6-1.4-1-2.3-1.2
					c-1.4-0.3-2.9-0.3-4.3-0.1c-0.9,0.2-1.8,0.6-2.5,1.2c-0.6,0.6-0.9,1.3-0.9,2.1c0,3,0,5.9,0,8.9c0,0.9,0.3,1.6,0.9,2.1
					c0.6,0.6,1.4,1,2.2,1.2c1.5,0.3,3,0.3,4.5,0.1c0.9-0.2,1.8-0.6,2.5-1.3c0.6-0.5,0.9-1.2,0.9-2c0-0.8,0-1.6,0-2.4
					C126.7,89.2,126.7,89.1,126.7,88.9z M92.1,84.9c0-0.7,0-1.4,0-2.1c0-0.8-0.3-1.4-0.8-1.9c-0.7-0.7-1.4-1.1-2.3-1.3
					c-1.4-0.3-2.8-0.3-4.2-0.1c-1,0.2-1.9,0.6-2.6,1.4c-0.5,0.5-0.8,1.1-0.8,1.9c0,0.7,0,1.3,0,2c0,0.6,0.2,1.1,0.6,1.5
					c0.3,0.2,0.6,0.5,0.9,0.7c1,0.6,2,1.2,2.9,1.8c0.4,0.2,0.8,0.5,1.2,0.8c0.2,0.2,0.4,0.4,0.4,0.7c0,0.6,0,1.2,0,1.8
					c0,0.2-0.1,0.4-0.3,0.4c-0.2,0-0.5,0.1-0.7,0.1c-0.4,0-0.5-0.2-0.5-0.6c0-0.7,0-1.3,0-2c0-0.1,0-0.3,0-0.4
					c-0.6-0.1-4.2-0.1-4.5,0c0,0.7,0,1.5,0,2.3c0,0.9,0.3,1.5,0.9,2.1c0.6,0.6,1.4,1,2.2,1.2c1.6,0.4,3.1,0.3,4.7,0
					c0.9-0.2,1.7-0.7,2.4-1.4c0.4-0.5,0.7-1.1,0.7-1.7c0-0.7,0-1.3,0-2c0-0.9-0.4-1.6-1.1-2.1c-0.1-0.1-0.3-0.2-0.4-0.3
					c-1-0.6-2-1.1-2.9-1.7c-0.4-0.2-0.7-0.4-1.1-0.7c-0.3-0.2-0.5-0.4-0.5-0.8c0-0.6,0-1.1,0-1.7c0-0.3,0.2-0.5,0.5-0.5
					c0.1,0,0.2,0,0.4,0c0.4,0,0.5,0.2,0.5,0.6c0,0.6,0,1.2,0,1.8c0,0.1,0,0.3,0,0.5C89.1,84.9,90.6,84.9,92.1,84.9z M105.5,94.9
					c0.5,0.1,8.8,0.1,9.1,0c0-0.9,0-1.7,0-2.6c-0.2,0-0.3,0-0.5,0c-1.1,0-2.2,0-3.3,0c-0.2,0-0.3,0-0.5,0c-0.1-0.8,0-3.3,0-3.7
					c0.3,0,0.7,0,1,0c0.3,0,0.7,0,1,0c0.3,0,0.7,0.1,1-0.1c0-0.7,0-1.5,0-2.2c-1.1,0-2.1,0-3.1,0c0-1.4,0-2.7,0-4.1
					c0.2,0,0.3,0,0.5,0c1.1,0,2.2,0,3.3,0c0.1,0,0.3,0,0.4,0c0-0.9,0-1.7,0-2.5c-0.4-0.1-8.7-0.1-9.1,0
					C105.5,84.7,105.5,89.8,105.5,94.9z M101.1,94.9c0-4.3,0-8.5,0-12.8c1,0,2,0,3,0c0.1-0.5,0.1-2.2,0-2.6
					c-0.4-0.1-10.5-0.1-10.8,0c-0.1,0.4-0.1,2.2,0,2.6c1,0,2,0,3,0c0,4.3,0,8.5,0,12.8C97.9,94.9,99.5,94.9,101.1,94.9z"/>
				<path class="st5" d="M134.2,87.3c0,1.5,0,3,0,4.5c0,0.5-0.1,0.6-0.6,0.7c-0.2,0-0.3,0-0.5,0c-0.5-0.1-0.6-0.2-0.6-0.7
					c0-3,0-6,0-9c0-0.5,0.1-0.6,0.6-0.7c0.1,0,0.2,0,0.2,0c0.7,0,0.8,0.1,0.8,0.9C134.2,84.4,134.2,85.9,134.2,87.3z"/>
			</g>
		</g>
	</g>
	<g>
		<path class="st6" d="M176.1,1051.3l-8.2-53.7h7.1l5.2,36.9l6.3-36.9h8.3l6.1,37.5l5.3-37.5h7l-8.4,53.7h-7.4l-6.9-40.1l-6.9,40.1
			H176.1z"/>
		<path class="st6" d="M216.7,1051.3v-53.7h25.6v9.1h-18.6v11.9H241v9h-17.3v14.6H243v9H216.7z"/>
		<path class="st6" d="M280.1,1051.3h-7.6l-3-12.2h-13.8l-2.9,12.2h-7.4l13.5-53.7h7.4L280.1,1051.3z M267.2,1030l-4.8-19.9
			l-4.7,19.9H267.2z"/>
		<path class="st6" d="M283.8,1051.3v-53.7h14.7c3.7,0,6.4,0.5,8,1.4c1.7,1,3,2.7,4,5.1s1.5,5.3,1.5,8.5c0,4-0.8,7.4-2.3,10
			c-1.5,2.6-3.8,4.3-6.8,5c1.5,1.4,2.8,2.9,3.7,4.5c1,1.6,2.3,4.5,4,8.7l4.2,10.5h-8.3l-5-11.7c-1.8-4.2-3-6.8-3.7-7.9
			c-0.7-1.1-1.4-1.8-2.1-2.2c-0.7-0.4-1.9-0.6-3.5-0.6h-1.4v22.4H283.8z M290.8,1020.3h5.2c3.3,0,5.4-0.2,6.3-0.7
			c0.8-0.4,1.5-1.2,2-2.3c0.5-1.1,0.7-2.4,0.7-4c0-1.8-0.3-3.3-0.9-4.4s-1.5-1.8-2.6-2.1c-0.6-0.1-2.3-0.2-5.1-0.2h-5.4V1020.3z"/>
		<path class="st6" d="M345.5,1051.3v-53.7h23.7v9.1h-16.7v12.7h14.4v9.1h-14.4v22.8H345.5z"/>
		<path class="st6" d="M403.4,1051.3h-7.6l-3-12.2H379l-2.9,12.2h-7.4l13.5-53.7h7.4L403.4,1051.3z M390.6,1030l-4.8-19.9l-4.7,19.9
			H390.6z"/>
		<path class="st6" d="M429.2,1031.5l6.8,3.3c-1,5.9-2.8,10.2-5.2,13.1c-2.4,2.8-5.5,4.3-9.2,4.3c-4.6,0-8.4-2.4-11.3-7.3
			c-3-4.9-4.4-11.5-4.4-20c0-8.9,1.5-15.9,4.5-20.8c3-4.9,6.9-7.4,11.7-7.4c4.2,0,7.7,1.9,10.3,5.8c1.6,2.3,2.7,5.6,3.5,9.9
			l-6.9,2.6c-0.4-2.8-1.3-5-2.6-6.6c-1.3-1.6-2.9-2.4-4.7-2.4c-2.6,0-4.6,1.4-6.2,4.3c-1.6,2.9-2.4,7.5-2.4,13.9
			c0,6.8,0.8,11.6,2.4,14.5c1.6,2.9,3.6,4.3,6.1,4.3c1.9,0,3.4-0.9,4.8-2.7C427.7,1038.3,428.6,1035.5,429.2,1031.5z"/>
		<path class="st6" d="M442,1051.3v-53.7h25.6v9.1h-18.6v11.9h17.3v9h-17.3v14.6h19.3v9H442z"/>
		<path class="st6" d="M499.2,1033.8l6.8-1c0.4,3.5,1.2,6.1,2.5,7.8s2.9,2.5,5.1,2.5c2.2,0,3.9-0.7,5.1-2.2c1.1-1.5,1.7-3.2,1.7-5.2
			c0-1.3-0.2-2.3-0.7-3.2c-0.5-0.9-1.3-1.7-2.5-2.3c-0.8-0.4-2.7-1.2-5.6-2.3c-3.7-1.4-6.4-3.2-7.9-5.3c-2.1-3-3.2-6.6-3.2-10.8
			c0-2.7,0.5-5.3,1.5-7.7c1-2.4,2.4-4.2,4.3-5.4c1.9-1.2,4.1-1.9,6.8-1.9c4.3,0,7.6,1.5,9.8,4.4c2.2,3,3.3,6.9,3.5,11.8l-7,0.5
			c-0.3-2.8-0.9-4.7-1.9-6c-1-1.2-2.5-1.8-4.4-1.8c-2,0-3.6,0.6-4.8,1.9c-0.7,0.8-1.1,1.9-1.1,3.3c0,1.3,0.3,2.4,1,3.3
			c0.9,1.1,3,2.3,6.4,3.6c3.4,1.2,5.9,2.5,7.5,3.9s2.9,3.1,3.8,5.5c0.9,2.3,1.4,5.2,1.4,8.6c0,3.1-0.5,6-1.6,8.6
			c-1.1,2.7-2.7,4.7-4.7,6c-2,1.3-4.5,2-7.5,2c-4.4,0-7.7-1.6-10.1-4.7C501.1,1044.4,499.7,1039.8,499.2,1033.8z"/>
		<path class="st6" d="M533.2,1051.3v-53.7h7v21.1h13.7v-21.1h7v53.7h-7v-23.5h-13.7v23.5H533.2z"/>
		<path class="st6" d="M567.8,1051.3v-53.7h7v53.7H567.8z"/>
		<path class="st6" d="M581.4,1051.3v-53.7H607v9.1h-18.6v11.9h17.3v9h-17.3v14.6h19.3v9H581.4z"/>
		<path class="st6" d="M613.8,1051.3V998h7v44.2h17.3v9H613.8z"/>
		<path class="st6" d="M643.1,997.6h12.8c2.9,0,5.1,0.3,6.6,1c2,0.9,3.8,2.6,5.2,4.9c1.4,2.4,2.5,5.3,3.3,8.7
			c0.8,3.4,1.1,7.7,1.1,12.7c0,4.4-0.4,8.2-1.1,11.4c-0.9,3.9-2.1,7.1-3.7,9.5c-1.2,1.8-2.8,3.3-4.9,4.3c-1.5,0.8-3.6,1.1-6.2,1.1
			h-13.1V997.6z M650.1,1006.7v35.6h5.2c1.9,0,3.4-0.2,4.2-0.5c1.1-0.4,2.1-1.2,2.8-2.2s1.4-2.8,1.8-5.2c0.5-2.4,0.7-5.7,0.7-9.8
			c0-4.2-0.2-7.3-0.7-9.6c-0.5-2.2-1.1-4-2-5.2c-0.8-1.2-1.9-2.1-3.2-2.5c-1-0.3-2.9-0.5-5.7-0.5H650.1z"/>
	</g>
	<g>
		<path class="st6" d="M207.8,934.1h-7.5v-22.5c0-2.6-1.4-4.6-4.1-6c-2.1-1-4.4-1.6-7-1.6c-2.5,0-4.6,0.7-6.4,2
			c-2.2,1.6-3.3,3.6-3.3,6.2v3.3c1.1-0.2,1.9-0.3,2.2-0.3c2.6,0,4.8,1,6.6,2.9c1.9,2,2.8,4.3,2.8,7c0,2.8-1,5.1-2.9,7
			c-1.9,1.9-4.2,2.9-6.6,2.9c-2.7,0-4.9-0.9-6.8-2.8c-1.9-1.9-2.8-4.2-2.8-7.1v-12c0-5.1,1.8-9.1,5.3-12c3.1-2.5,7-3.8,11.7-3.8
			c5,0,8.7,1.5,11.2,4.4v-5.8c0-2.7-1.5-4.7-4.4-6.2c-2.3-1.1-4.8-1.7-7.6-1.7c-3.1,0-5.8,0.8-8.1,2.3c-2.5,1.7-4,4-4.5,6.9h-7.3
			c0.5-5.3,2.6-9.4,6.4-12.2c3.5-2.7,8.1-4,13.7-4c3.6,0,6.9,0.7,9.8,2.1c1.7-1.6,2.5-3.7,2.5-6.2h8.5c-1,4.4-2.7,7.8-5.2,10.3
			c2.4,2.8,3.6,6,3.6,9.6V934.1z M185.8,925.1c0-1.2-0.4-2.3-1.2-3.1c-0.8-0.9-1.8-1.3-2.9-1.3c-1.1,0-2.1,0.4-2.9,1.3
			c-0.8,0.9-1.2,1.9-1.2,3.1c0,1.2,0.4,2.3,1.2,3.1c0.8,0.9,1.8,1.3,2.9,1.3c1.1,0,2.1-0.4,2.9-1.3
			C185.4,927.4,185.8,926.4,185.8,925.1z"/>
		<path class="st6" d="M253.6,924.6c0,3-0.9,5.5-2.8,7.5c-1.9,1.9-4.1,2.9-6.9,2.9c-2.6,0-4.8-1-6.5-2.9c-1.8-1.9-2.7-4.2-2.7-6.9
			c0-2.8,0.9-5.1,2.7-7.1c1.8-1.9,3.9-2.9,6.5-2.9c0.9,0,1.6,0,2.2,0.1v-18.9c0-5.5-3.7-8.2-11.1-8.2c-3.1,0-5.7,1-7.8,3
			c-2.1,2-3.2,4.7-3.2,8h-7.3c0.2-5.7,2-10.2,5.3-13.3c3.3-3.2,7.6-4.7,13-4.7c5.3,0,9.6,1.1,12.8,3.4c3.9,2.7,5.8,6.8,5.8,12.4
			V924.6z M248.1,925.1c0-1.2-0.4-2.3-1.2-3.1c-0.8-0.9-1.8-1.3-2.9-1.3c-1.1,0-2.1,0.4-2.9,1.3c-0.8,0.9-1.2,1.9-1.2,3.1
			c0,1.2,0.4,2.3,1.2,3.1c0.8,0.9,1.8,1.3,2.9,1.3c1.1,0,2.1-0.4,2.9-1.3C247.7,927.4,248.1,926.4,248.1,925.1z"/>
		<path class="st6" d="M304,934.1h-7.5c-4.7-4.5-9.4-7.7-14.1-9.5v0.7c0,2.8-1,5.1-3,7c-2,1.9-4.2,2.9-6.7,2.9c-2.7,0-5-1-6.9-3.1
			s-2.9-4.5-2.9-7.4c0-2.9,1-5.3,2.9-7.3c1.9-2,4.2-3.1,6.9-3.1h0.8v-13.5c-0.8,0.2-1.5,0.3-2.1,0.3c-2.6,0-4.8-1-6.5-2.9
			c-1.8-2-2.7-4.3-2.7-7.1c0-2.7,0.9-5,2.7-6.9c1.8-1.9,3.9-2.9,6.5-2.9c2.7,0,5,1,6.8,3c1.8,2,2.7,4.5,2.7,7.5v24.7
			c6.4,2.3,11.5,5.4,15.5,9.2v-43.4h7.5V934.1z M275.6,891.1c0-1.2-0.4-2.3-1.2-3.1c-0.8-0.9-1.8-1.3-2.9-1.3
			c-1.1,0-2.1,0.4-2.9,1.3c-0.8,0.9-1.2,1.9-1.2,3.1c0,1.2,0.4,2.3,1.2,3.1c0.8,0.9,1.8,1.3,2.9,1.3c1.1,0,2.1-0.4,2.9-1.3
			C275.2,893.3,275.6,892.3,275.6,891.1z M276.8,924.6c0-1.2-0.4-2.3-1.2-3.1c-0.8-0.9-1.8-1.3-2.9-1.3c-1.1,0-2.1,0.4-2.9,1.3
			c-0.8,0.9-1.2,1.9-1.2,3.1c0,1.2,0.4,2.3,1.2,3.1c0.8,0.9,1.8,1.3,2.9,1.3c1.1,0,2.1-0.4,2.9-1.3
			C276.4,926.9,276.8,925.8,276.8,924.6z"/>
		<path class="st6" d="M351.3,934.1h-7.5v-34.4c0-3.5-1-6.4-3-8.4c-2-2.1-4.7-3.1-8-3.1c-4.8,0-8.5,2.2-11,6.5
			c3.8,0.8,6.5,2.7,8.1,5.8c-4.1,2.6-6.2,5.7-6.2,9.4v24.2h-7.5v-24.7c0-3.6,1.7-6.5,5-8.6c-2-1.5-4.5-2-7.4-1.6
			c0.2-5.4,2.1-9.8,5.8-13.3c3.4-3.2,7.7-4.8,12.9-4.8c5.8,0,10.4,1.7,13.7,5c3.3,3.3,5,7.9,5,13.6V934.1z"/>
		<path class="st6" d="M390.2,925.4c0,2.8-0.9,5.1-2.7,7c-1.8,1.9-4,2.8-6.6,2.8c-2.6,0-4.8-1-6.6-2.9s-2.7-4.2-2.7-7
			c0-2.8,0.9-5.1,2.7-7c1.8-1.9,4-2.9,6.6-2.9c1,0,1.6,0,1.8,0.1v-11.2c0-1.4-2.7-2.8-8-4.1c-5.4-1.3-10.2-2.4-14.6-3.2
			c0.2-4.8,1.3-8.6,3.5-11.5c2.2-2.9,5.3-4.4,9.4-4.4c1.7,0,4,0.4,6.9,1.2c2.9,0.8,5.1,1.2,6.3,1.2c1.4,0,2.1-1,2.3-2.9l5.9,1.7
			c-1.5,5.3-4.1,7.9-8,7.9c-1.5,0-3.5-0.4-6.2-1.1c-2.7-0.7-4.7-1.1-6.1-1.1c-3.5,0-5.6,1.4-6,4.3c6.2,1.4,11.4,2.9,15.6,4.4
			c4.2,1.6,6.3,4.2,6.3,8.1V925.4z M385,925.3c0-1.2-0.4-2.3-1.2-3.1c-0.8-0.9-1.8-1.3-2.9-1.3c-1.1,0-2.1,0.4-2.9,1.3
			c-0.8,0.9-1.2,1.9-1.2,3.1c0,1.2,0.4,2.3,1.2,3.1c0.8,0.9,1.8,1.3,2.9,1.3c1.1,0,2.1-0.4,2.9-1.3C384.6,927.5,385,926.5,385,925.3
			z"/>
		<path class="st6" d="M433.7,882.5c-0.4,13.8-6.4,20.7-18,20.7c-4.8,0-8.5-1.1-11.1-3.2c-2.6-2.1-3.9-4.8-3.9-8.1
			c0-2.5,0.8-4.6,2.4-6.4c1.6-1.7,3.6-2.6,5.9-2.6c2.5,0,4.5,0.9,6.1,2.7c1.6,1.8,2.4,3.9,2.4,6.3c0,2.3-0.6,4.1-1.8,5.2
			c7.5-0.3,11.2-5.2,11.2-14.6H433.7z M433.7,912c-0.4,13.8-6.4,20.7-18,20.7c-4.8,0-8.5-1.1-11.1-3.2c-2.6-2.1-3.9-4.8-3.9-8.1
			c0-2.5,0.8-4.6,2.4-6.4c1.6-1.7,3.6-2.6,5.9-2.6c2.5,0,4.5,0.9,6.1,2.7c1.6,1.8,2.4,3.9,2.4,6.3c0,2.3-0.6,4.1-1.8,5.2
			c7.5-0.3,11.2-5.2,11.2-14.6H433.7z M412.6,891.9c0-1.1-0.4-2.1-1.1-2.9c-0.7-0.8-1.6-1.2-2.7-1.2c-1,0-1.9,0.4-2.6,1.2
			c-0.7,0.8-1,1.7-1,2.9c0,1.1,0.3,2.1,1,2.8c0.7,0.7,1.5,1.1,2.6,1.1c1,0,1.9-0.4,2.7-1.1C412.3,893.9,412.6,893,412.6,891.9z
			 M412.6,921.4c0-1.1-0.4-2.1-1.1-2.9c-0.7-0.8-1.6-1.2-2.7-1.2c-1,0-1.9,0.4-2.6,1.2c-0.7,0.8-1,1.7-1,2.9c0,1.1,0.3,2.1,1,2.8
			c0.7,0.7,1.5,1.1,2.6,1.1c1,0,1.9-0.4,2.7-1.1C412.3,923.4,412.6,922.5,412.6,921.4z"/>
		<path class="st6" d="M485.9,922.4c0,8.5-5.8,12.7-17.5,12.7c-11.8,0-17.6-4.2-17.6-12.7v-21.7c-0.8,0.2-1.5,0.3-2.1,0.3
			c-2.6,0-4.8-1-6.5-2.9c-1.8-2-2.7-4.3-2.7-7.1c0-2.7,0.9-5,2.7-6.9c1.8-1.9,3.9-2.9,6.5-2.9c2.7,0,5,1,6.8,3
			c1.8,2,2.7,4.5,2.7,7.5v30.7c0,1.7,1.1,3.1,3.3,4.1c2.2,1,4.5,1.6,6.9,1.6c2.3,0,4.6-0.5,6.8-1.6c2.2-1,3.3-2.4,3.3-4.1v-40.2h7.5
			V922.4z M452.8,891.1c0-1.2-0.4-2.3-1.2-3.1c-0.8-0.9-1.8-1.3-2.9-1.3c-1.1,0-2.1,0.4-2.9,1.3c-0.8,0.9-1.2,1.9-1.2,3.1
			c0,1.2,0.4,2.3,1.2,3.1c0.8,0.9,1.8,1.3,2.9,1.3c1.1,0,2.1-0.4,2.9-1.3C452.4,893.3,452.8,892.3,452.8,891.1z"/>
		<path class="st6" d="M498.1,850.5c-2.1,14.4-9.3,21.6-21.8,21.6c-4.8,0-8.5-1.1-11.1-3.2c-2.6-2.1-3.9-4.8-3.9-8.1
			c0-2.5,0.8-4.6,2.4-6.4c1.6-1.7,3.6-2.6,5.9-2.6c2.5,0,4.5,0.9,6.1,2.7c1.6,1.8,2.4,3.9,2.4,6.3c0,2.3-0.6,4.1-1.8,5.2
			c8.4-0.3,13.3-5.5,14.6-15.5H498.1z M473.3,860.8c0-1.1-0.4-2.1-1.1-2.9c-0.7-0.8-1.6-1.2-2.7-1.2c-1,0-1.9,0.4-2.6,1.2
			c-0.7,0.8-1,1.7-1,2.9c0,1.1,0.3,2.1,1,2.8c0.7,0.7,1.6,1.1,2.6,1.1c1,0,1.9-0.4,2.7-1.1C472.9,862.9,473.3,861.9,473.3,860.8z"/>
		<path class="st6" d="M524.3,934.1h-7.4l-22.6-27.4l4.5-5.6l18,21.8v-22.4c-0.2,0.1-1,0.1-2.3,0.1c-2.5,0-4.6-0.9-6.3-2.7
			c-1.7-1.8-2.6-4-2.6-6.8c0-2.8,0.9-5.1,2.7-7.1c1.8-1.9,3.9-2.9,6.3-2.9c2.8,0,5.2,1,7,2.9c1.9,2,2.8,4.5,2.8,7.6V934.1z
			 M518.6,891c0-1.2-0.4-2.2-1.2-3c-0.8-0.8-1.8-1.3-2.9-1.3c-1.1,0-2.1,0.4-2.9,1.3c-0.8,0.8-1.2,1.9-1.2,3c0,1.2,0.4,2.2,1.2,3
			c0.8,0.8,1.8,1.3,2.9,1.3c1.1,0,2.1-0.4,2.9-1.3C518.2,893.1,518.6,892.1,518.6,891z"/>
		<path class="st6" d="M577.2,934.1h-7.5v-28.9c0-2.3-0.4-3.5-1.3-3.5c-0.6,0-1.6,1.1-2.8,3.3l-15.7,29.1h-7v-33.4
			c-0.8,0.2-1.5,0.3-2.1,0.3c-2.6,0-4.8-1-6.5-2.9c-1.8-2-2.7-4.3-2.7-7.1c0-2.7,0.9-5,2.7-6.9c1.8-1.9,3.9-2.9,6.5-2.9
			c2.7,0,5,1,6.8,3c1.8,2,2.7,4.5,2.7,7.5v19.4c0,2.3-0.5,6.8-1.4,13.8c0.8-3.7,2-7.1,3.6-10.3l6.6-12.3c1.5-2.6,2.7-4.1,3.9-4.4
			c-1.6-2.2-2.4-4.4-2.4-6.8c0-2.8,0.9-5.1,2.7-7c1.8-1.9,3.9-2.9,6.5-2.9c2.6,0,4.8,1,6.5,2.9c1.8,1.9,2.7,4.2,2.7,7
			c0,2.9-1.1,5.4-3.4,7.5c1,2.2,1.6,4.5,1.6,7V934.1z M545,891.1c0-1.2-0.4-2.3-1.2-3.1c-0.8-0.9-1.8-1.3-2.9-1.3
			c-1.1,0-2.1,0.4-2.9,1.3c-0.8,0.9-1.2,1.9-1.2,3.1c0,1.2,0.4,2.3,1.2,3.1c0.8,0.9,1.8,1.3,2.9,1.3c1.1,0,2.1-0.4,2.9-1.3
			C544.6,893.3,545,892.3,545,891.1z M574,891.1c0-1.2-0.4-2.3-1.2-3.1c-0.8-0.9-1.8-1.3-2.9-1.3c-1.1,0-2.1,0.4-2.9,1.3
			c-0.8,0.9-1.2,1.9-1.2,3.1c0,1.2,0.4,2.3,1.2,3.1c0.8,0.9,1.8,1.3,2.9,1.3c1.1,0,2.1-0.4,2.9-1.3C573.6,893.3,574,892.3,574,891.1
			z"/>
		<path class="st6" d="M629.6,909.5c0,3.5-0.8,5.9-2.5,7.2c3.1,1.9,4.7,4.8,4.7,8.6c0,2.8-0.9,5.1-2.7,7c-1.8,1.9-3.9,2.8-6.4,2.8
			c-2.3,0-4.4-0.8-6-2.4c-1.7-1.6-2.7-3.6-3-6c-2.6,1.4-4.4,2.4-5.6,3.1c-1.9,1.3-3.5,2.7-4.6,4.3h-7.6v-33.4
			c-0.8,0.2-1.5,0.3-2.1,0.3c-2.6,0-4.8-1-6.5-2.9c-1.8-2-2.7-4.3-2.7-7.1c0-2.7,0.9-5,2.7-6.9c1.8-1.9,3.9-2.9,6.5-2.9
			c2.7,0,5,1,6.8,3c1.8,2,2.7,4.5,2.7,7.5v33c1.3-1,4.2-2.6,8.7-4.5c4-1.8,6.8-3.6,8.3-5.5c1.1-1.3,1.7-3.4,1.7-6.2v-26.3h7.5V909.5
			z M597.9,891.1c0-1.2-0.4-2.3-1.2-3.1c-0.8-0.9-1.8-1.3-2.9-1.3c-1.1,0-2.1,0.4-2.9,1.3c-0.8,0.9-1.2,1.9-1.2,3.1
			c0,1.2,0.4,2.3,1.2,3.1c0.8,0.9,1.8,1.3,2.9,1.3c1.1,0,2.1-0.4,2.9-1.3C597.5,893.3,597.9,892.3,597.9,891.1z M626.7,925.3
			c0-1.2-0.4-2.2-1.2-3.1c-0.8-0.9-1.8-1.3-2.9-1.3c-1.1,0-2.1,0.4-2.9,1.3c-0.8,0.9-1.2,1.9-1.2,3.1c0,1.2,0.4,2.2,1.2,3.1
			c0.8,0.9,1.8,1.3,2.9,1.3c1.1,0,2.1-0.4,2.9-1.3C626.3,927.6,626.7,926.5,626.7,925.3z"/>
		<path class="st6" d="M636.9,851.3c-0.8,4.6-1.9,8.4-3.4,11.6s-3.3,5.6-5.6,7.5c-2.3,1.9-4.9,3.2-7.9,4s-6.5,1.2-10.5,1.2h-4v-5.2
			c1.6-0.1,3-0.7,4-1.8c1.1-1.1,1.8-2.3,2.2-3.4c-2-0.3-3.6-1.3-4.8-2.9c-1.2-1.6-1.8-3.5-1.8-5.7c0-2.3,0.8-4.3,2.4-5.8
			c1.6-1.6,3.4-2.3,5.5-2.3c2.4,0,4.3,0.8,5.7,2.5c1.4,1.6,2.1,3.7,2.1,6.2c0,2.5-0.6,4.9-1.7,7.3c-1.1,2.3-2.3,4.2-3.5,5.5
			c4-0.8,7.3-2.9,9.8-6.3c2.5-3.4,3.9-7.5,4-12.2H636.9z M616.3,856.8c0-1-0.3-1.8-0.9-2.4c-0.6-0.7-1.3-1-2.2-1
			c-0.9,0-1.6,0.3-2.2,1c-0.6,0.6-0.8,1.5-0.8,2.4c0,1,0.3,1.8,0.8,2.4c0.6,0.7,1.3,1,2.2,1c0.9,0,1.6-0.3,2.2-1
			C616,858.5,616.3,857.7,616.3,856.8z"/>
		<path class="st6" d="M670.2,934.1h-7.5v-37.7c0-2.4-0.8-4.4-2.3-5.9c-1.5-1.5-3.6-2.3-6.3-2.3c-2.7,0-4.8,0.9-6.5,2.8
			c-1.7,1.9-2.6,4.3-2.7,7.2h-7.3c0.2-5.2,1.8-9.3,4.8-12.4c2.9-3.1,6.8-4.6,11.7-4.6c4.5,0,8.3,1.2,11.4,3.7
			c3.1,2.5,4.7,6.2,4.7,11.2V934.1z"/>
	</g>
	<g>
		<path class="st3" d="M451.7,54.9c191,17,332.1,185.6,315.1,376.6c-17,191-185.6,332.1-376.6,315.1C199.2,729.6,58.1,561,75.1,370
			C92.1,179,260.7,37.9,451.7,54.9"/>
		<g>
			<path class="st7" d="M620.6,355.3c-2,3.7-5.9,5.9-10,5.6c-1.4,0.1-2.8,0.1-4.2,0l-2.9-0.1l-127.7,4.3l-15.6,162.6
				c-0.3,12.2-1.7,24.3-4,36.2c-0.5,2.8-1.2,5.5-2,8.2c-2.9,10.7-8.9,20.3-17.2,27.6c-5,3.5-10.2,6.6-15.7,9.3
				c-9.8,4.3-20.1,7.4-30.7,9.3c-8.5,1.8-16.9,3.5-25.5,4.9c-26.1,5.1-52.3,8.9-78.8,11.6l-13.1,1.8c-4.4,0.6-8.7,0.9-13.1,0.7
				c-4-0.1-7.9-1.1-11.4-3c-3.7-2.2-6.8-5.4-8.8-9.3c-3-5.7-5.1-11.9-6.3-18.2c-24-100-26.7-203.9-8.1-305c0.5-4.1,1.4-8.1,2.7-12
				c1.3-3.8,3.6-7,6.8-9.4c2-1.4,4.2-2.5,6.6-3.1c2.9-0.8,5.9-1.3,8.9-1.5l5.5-0.2c64.6-0.1,129.3,3,193.6,9.4
				c13.7,1.2,25.1,10.9,28.6,24.1l136,1.2c2.3-0.5,4.7-0.2,6.8,0.7c1.7,0.9,2.9,2.5,3.3,4.3C625.2,328.9,623.9,342.3,620.6,355.3"/>
			<path class="st8" d="M427.2,590.8c-5.8,4-12.3,7.2-19,9.3c-12.7,3.6-25.5,6.7-38.5,9.4c-34.5,6.3-69.2,11.5-104,15.6
				c-1.7,0.2-3.3,0.3-5,0.4c-1.2,0-2.5-0.1-3.7-0.4c-1.8-0.4-3.3-1.4-4.5-2.8c-2-2.3-3.5-5-4.5-7.9c-1.7-5.3-3.2-10.7-4.5-16.1
				c-18.8-94-21.8-190.4-9.1-285.4c0.5-4,1.3-8,2.3-11.9l1.8-5c1-2.2,2.5-4.1,4.4-5.6c1.9-1.5,4.1-2.5,6.4-3
				c1.4-0.2,2.9-0.4,4.3-0.6c65.7,0.4,131.5,3.5,196.9,9.5c7.2,1.3,12.8,6.9,14.1,14.1l0.4,4.7c-0.1,4.1-0.5,8.2-1,12.3l-0.6,6.9
				l-16.2,208c-0.7,6.4-1.7,12.7-3,19c-1.1,5.2-2.9,10.1-5.4,14.8C436,581.7,432,586.7,427.2,590.8 M258,464.4
				c0.4,1.5,0.7,3,0.8,4.5l-0.9,8.9c0.1,4,1.3,7.9,3.4,11.4l2.4,4c1,1.7,1.6,3.6,1.8,5.6c0.2,2.7,0.1,5.3-0.5,7.9
				c-1,3.9-2.1,7.7-3.2,11.5l-1.4,6.2l-0.3,0.9c-2.6,6.7-2.8,14.1-0.7,20.9c3.4,7.9,10.2,13.9,18.5,16.2c3.5,0.7,7,1.2,10.6,1.6
				c18.5,0.1,36.9-2.8,54.6-8.4l18.2-5.5c1-0.3,2-0.5,3.1-0.7c1.8-0.3,3.6-0.5,5.4-0.5c3.9-0.3,7.8,0.3,11.5,1.7
				c7.1,2.9,13.4,7.5,18.4,13.4c3.5,4.1,6.8,8.4,9.9,12.8l3.4,4.4l2.8,2.9c1.8-3,3.5-6.1,4.9-9.3L407.6,558
				c-5.8-8.4-14.2-14.8-23.8-18.3c-4.1-1.4-8.4-2-12.7-1.9c-5.1,0-10.3,0.7-15.2,2.2c-3.8,0.9-7.5,2.2-11.1,3.7
				c-3.8,1.5-7.6,2.8-11.5,3.9c-9.8,3-19.9,4.8-30.2,5.5c-4.9,0.3-9.8,0.4-14.7,0.2c-2.5-0.3-5-0.8-7.5-1.5
				c-9.3-3.4-14.6-13.2-12.4-22.8c0.3-1.3,0.6-2.6,0.9-3.8c0.6-4.7,1.5-9.4,2.7-14c0.7-3.3,1.4-6.6,2-9.9c0.3-1.4,0.4-2.9,0.5-4.4
				c0.1-1.8-0.1-3.7-0.8-5.4c-1-2.5-2.3-4.9-3.9-7.1c-1.6-2.1-2.6-4.7-2.9-7.4c-0.4-4.8-0.1-9.6,0.9-14.3c0.3-1.4,0.1-2.9-0.4-4.3
				c-0.9-1.9-2.4-3.4-4.2-4.4c-0.8-0.5-1.7-0.9-2.6-1.3c-0.9-0.4-1.8-0.8-2.7-1.2c-0.9-0.4-1.8-1-2.6-1.6c-1.1-0.8-2-1.9-2.7-3
				c-0.8-1.4-1.1-3.1-0.8-4.7c0.5-2.2,1.6-4.3,3-6.1l2.6-2.8c4.8-6.3,9.6-12.7,14.2-19.2c2.5-3.4,5.1-6.8,7.8-10
				c1.3-1.6,2.6-3.3,3.7-5c0.6-0.9,1.1-1.8,1.6-2.8c0.7-1.5,1.1-3,1.3-4.7c0.1-0.8,0.1-1.6,0.1-2.4c0.4-9.2,0.4-18.5,0-27.7
				c0.7-9.5,1.8-19,3.3-28.4c0.6-2.6,1.2-5.1,1.9-7.7c1.6-4,4.8-7,8.9-8.4c3-1.5,6.3-2.2,9.6-2.3c4.4-0.2,8.7,0.8,12.6,2.8l4.2,1.8
				c4.1,2.1,8.4,3.7,12.9,4.8c8.5,2.1,17.3,2,25.7-0.5c7.1-2,14.1-4.1,21.1-6.3c5.5-1.4,11.2-2,16.9-1.9c1.5-0.1,2.9,0.8,3.5,2.3
				c0.3,2.5,0.1,5.1-0.4,7.6c-0.3,2.6-0.7,5.2-1.3,7.8l-2.7,9.6c-1,2.5-1.7,5.1-2.2,7.8c-0.8,4.8-0.8,9.7-0.1,14.5
				c0.2,2.1,0.4,4.2,0.7,6.2c0.6,6,0.7,12.1,0.3,18.1c0,2.4,0.2,4.8,0.8,7.1c1.9,4.9,6.1,8.6,11.3,9.8c5.1,1.2,10.6-0.1,14.5-3.7
				c2.3-2,4.4-4.4,6.1-7c2.9-5,7.1-9.2,12.1-12c1.5-0.9,3-1.7,4.6-2.3c1.2-0.1,2.2-0.9,2.7-2c0.5-1.1,0.4-2.4-0.2-3.4
				c-2.1-1.7-4.8-2.4-7.5-1.8c-4.8,0.9-9.2,3.5-12.4,7.2c-3,4.3-6.2,8.5-9.7,12.4c-1.1,1.4-2.6,2.5-4.2,3.3l-1.7,0.6
				c-1.1,0.3-2.2,0.2-3.2-0.2c-1-0.5-1.9-1.3-2.4-2.4c-0.6-1.3-0.9-2.7-0.8-4.2c-0.1-1-0.1-2-0.1-3c0.1-9.1-0.5-18.2-1.7-27.2
				c-0.2-2.4-0.1-4.8,0.1-7.2c0.3-3.2,1.2-6.3,2.6-9.2c2.4-7.1,4-14.4,4.7-21.8c0.4-4.4,0.4-8.8,0.1-13.2c-0.3-1.7-1.7-3-3.4-3
				c-1.6-0.2-3.2-0.2-4.8-0.1c-6.4,0.4-12.8,1.2-19.1,2.4l-28.3,7.4c-8,1.6-16.3,0.7-23.8-2.6l-12.2-4.4
				c-11.7-3.5-23.7-5.7-35.8-6.7c-2.4,0.2-4.8-0.7-6.4-2.4c-1.4-1.9-2.9-3.8-4.4-5.5c-1.5-1.5-3.8-1.9-5.7-1.1
				c-2,0.8-3.3,2.6-3.4,4.7c-0.1,3.2,1.6,6.2,4.4,7.7c1.7,1.2,3.4,2.6,4.9,4.1c2.5,1.6,3.8,4.5,3.3,7.4c-0.5,3-1,6-1.6,8.9
				c-0.6,2.7-1.2,5.3-1.7,8c-0.9,5.5-1.6,11.1-2.2,16.6c-0.7,11.4-1.1,22.8-1.1,34.2c-0.6,2.9-1.6,5.6-3.1,8.1
				c-1.7,3-3.6,5.8-5.7,8.6l-3.3,4.7c-5.1,7.2-10.4,14.2-15.9,21c-1.5,2.1-3,4.2-4.3,6.4c-1.5,2.4-2.5,5-3.2,7.7
				c-0.6,2.5-0.2,5.2,1.1,7.5c0.9,1.6,2,3,3.3,4.3l2.5,2.1c1,0.7,2,1.3,3.1,1.8c2.1,1,4.1,2.3,5.8,3.9
				C256.9,462,257.6,463.1,258,464.4z"/>
			<path class="st7" d="M612.6,303.9l-0.1-0.5l-5.3-34.7c-1.1-6.1-2.5-12.2-4.4-18.1c-1.7-5.8-4.5-11.2-8-16
				c-3.7-4.7-8.4-8.6-13.7-11.3l-7.9-3.3c-8.9-2.8-17.2-7.3-24.5-13.1c-5.9-4.5-12.3-8.3-19.2-11.3c-6-4-12.6-7.1-19.5-9.2
				c-33.4-9.8-68.6-11.4-102.6-4.6c-37.3,5.9-71.6,23.7-97.9,50.8c-7.4,8.7-13.5,18.3-18.3,28.6c-1.2,2.3-3.9,3.3-6.3,2.3
				c-2.4-0.9-3.7-3.5-3.1-6c4.3-11.8,10.5-22.9,18.2-32.9c24.5-27.4,57.6-45.8,93.9-52.2c43.9-10.2,89.8-7.6,132.2,7.5
				c8.9,3.5,17.2,8.2,24.7,14.1l11.2,8.1c1.9,1.5,4,2.8,6.3,3.8c5,2.2,10,4.2,15.1,6c2,0.7,4,1.6,5.9,2.6
				c7.4,5.2,13.8,11.6,19.2,18.8c3.3,4.8,5.7,10.3,7.1,16c1.1,5,2.1,10,3,15c2.7,13.2,4.3,26.7,4.8,40.2L612.6,303.9"/>
			<path class="st7" d="M610.4,369c-3.8,15.2-8.6,30.1-14.3,44.7c-5.1,12.7-10.7,25.1-16.9,37.3l-1.7,3.8
				c-5.4,14.2-8.1,29.2-8.1,44.4c0,8.2,2.3,16.2,6.6,23.1c1.4,1.6,2.5,3.4,3.3,5.4c0.8,1.7,1.2,3.6,1.1,5.5c0,1.7-0.6,3.3-1.7,4.6
				c-1.1,1.3-2.5,2.5-4,3.3c-1.5,0.9-3.1,1.6-4.7,2.3c-22.7,11.5-45.7,22.1-69.2,31.9c-7,3.2-14,6.2-21.1,9.1
				c-0.2-4.3,1.7-8.4,5.1-11.1c2.7-1.6,5.5-3,8.4-4.2c10.7-4.2,21.2-8.8,31.6-13.7c6.1-1.9,11.6-5.4,16-10.1c3.3-2.6,7-4.6,11-5.8
				c4.6-1.5,9.1-3.1,13.6-5c0.6-0.4,1.2-0.8,1.6-1.4c0.4-0.6,0.7-1.3,0.6-2l-0.3-1.6c-0.8-2.4-2-4.8-3.5-6.9
				c-1.6-3.4-3.8-6.5-6.4-9.2c-6.1-2.3-12.2-5-18-7.9c-8.5-4.6-16.9-9.3-25.2-14.2l-11.7-8.1c-9-6.2-16.3-14.6-21.3-24.3
				c-1.5-4.4-2.6-8.9-3.1-13.5c-0.5-5.5,0-11,1.4-16.4l2-7.1c3.6-11,4.6-22.6,2.9-34.1l-2.4-12.6c0-1.5,0.7-3,2-3.9
				c1.3-0.5,2.9-0.3,4,0.6l2.3,2.1c2.6,3,4.7,6.5,5.9,10.2c2,12.6,1.4,25.5-1.8,37.8c-0.8,2-1.5,4-2.1,6.1
				c-3.3,8.2-3.1,17.4,0.4,25.5c2.2,4.6,5,8.8,8.4,12.6c5.4,4.3,11.1,8.4,16.9,12.3c12.3,8,25.1,15.1,38.4,21.3
				c-0.6-15.7,1.7-31.5,6.7-46.4c4-9.5,8.5-18.8,13.4-27.9c2.4-4.6,4.6-9.3,6.6-14.1c6.2-14.2,11.8-28.7,16.8-43.3l10,0.4
				C610.2,368.9,610.3,368.9,610.4,369"/>
		</g>
	</g>
</g>
</svg>
