<?xml version="1.0" encoding="utf-8"?>
<!-- Generator: Adobe Illustrator 22.0.0, SVG Export Plug-In . SVG Version: 6.00 Build 0)  -->
<svg version="1.1" id="Layer_1" xmlns="http://www.w3.org/2000/svg" xmlns:xlink="http://www.w3.org/1999/xlink" x="0px" y="0px"
	 viewBox="0 0 841.9 1190.6" style="enable-background:new 0 0 841.9 1190.6;" xml:space="preserve">
<style type="text/css">
	.st0{fill:none;}
	.st1{fill:#010101;}
	.st2{fill:#FFFFFF;}
	.st3{fill:#154989;}
	.st4{fill:#EB2627;}
	.st5{fill:#2A3B8F;}
	.st6{fill:#FFFFFF;stroke:#FFFFFF;stroke-miterlimit:10;}
	.st7{fill-rule:evenodd;clip-rule:evenodd;fill:#FFFFFF;}
	.st8{fill-rule:evenodd;clip-rule:evenodd;fill:#154989;}
	.st9{fill:#2F3690;}
</style>
<g>
	<g>
		<rect x="0" y="0" class="st0" width="841.9" height="1190.6"/>
		<rect x="28.3" y="28.3" class="st1" width="785.2" height="1133.9"/>
		<rect x="34" y="34" class="st2" width="773.9" height="1122.5"/>
		<rect x="52.5" y="792.6" class="st3" width="737" height="348.7"/>
		<g id="stecon_23_">
			<path id="red_23_" class="st4" d="M52.8,53.5c42.5,0,85,0,127.6,0c0,22.6,0,45.1,0,67.7c-42.5,0-85,0-127.5,0c0-0.2,0-0.5,0-0.7
				c0-22.1,0-44.2,0-66.3C52.9,54,52.8,53.8,52.8,53.5z M55.8,87.4c0.2,0.1,0.4,0.2,0.5,0.3c3.6,1.8,7.1,3.7,10.7,5.5
				c16.4,8.4,32.7,16.8,49.1,25.2c0.4,0.2,0.7,0.2,1.1,0c13.8-7.1,27.6-14.2,41.4-21.3c6.1-3.2,12.3-6.3,18.4-9.5
				c0.1-0.1,0.3-0.2,0.5-0.3c-0.2-0.1-0.3-0.2-0.5-0.3c-3.8-1.9-7.6-3.9-11.4-5.8c-16.2-8.3-32.4-16.7-48.5-25
				c-0.3-0.2-0.5-0.2-0.9,0c-7,3.6-14.1,7.3-21.1,10.9c-12.6,6.5-25.2,12.9-37.7,19.4C56.9,86.8,56.4,87.1,55.8,87.4z"/>
			<g id="white_23_">
				<path class="st2" d="M55.8,87.4c0.6-0.3,1.1-0.6,1.6-0.8c12.6-6.5,25.2-12.9,37.7-19.4c7-3.6,14.1-7.2,21.1-10.9
					c0.3-0.2,0.6-0.1,0.9,0c16.2,8.3,32.4,16.7,48.5,25c3.8,1.9,7.6,3.9,11.4,5.8c0.1,0.1,0.3,0.1,0.5,0.3c-0.2,0.1-0.3,0.2-0.5,0.3
					c-6.1,3.2-12.3,6.3-18.4,9.5c-13.8,7.1-27.6,14.2-41.4,21.3c-0.4,0.2-0.7,0.2-1.1,0C99.7,110,83.4,101.6,67,93.1
					c-3.6-1.8-7.1-3.7-10.7-5.5C56.2,87.6,56,87.5,55.8,87.4z M59.7,87.4c0.2,0.1,0.3,0.2,0.4,0.2c1,0.5,1.9,1,2.9,1.5
					c17.7,9.1,35.5,18.2,53.2,27.3c0.3,0.1,0.5,0.2,0.8,0c12.9-6.6,25.7-13.2,38.6-19.8c5.8-3,11.6-6,17.5-9
					c0.1-0.1,0.3-0.2,0.5-0.3c-0.2-0.1-0.4-0.2-0.6-0.3c-15.9-8.2-31.9-16.4-47.8-24.5c-2.7-1.4-5.5-2.8-8.2-4.2
					c-0.2-0.1-0.4-0.1-0.7,0c-0.3,0.2-0.7,0.4-1.1,0.6C97,68.3,78.6,77.6,60.3,87C60.1,87.1,60,87.2,59.7,87.4z"/>
				<path class="st2" d="M147.4,79.5c1.4,0,2.7,0,4.1,0c0,5.2,0,10.3,0,15.4c-1.4,0-2.8,0-4.2,0c-0.9-2.6-1.8-5.3-2.7-7.9
					c0,0-0.1,0-0.1,0c0,2.6,0,5.2,0,7.9c-1.4,0-2.7,0-4,0c0,0,0,0,0,0c0,0,0,0,0,0c0-0.1,0-0.2,0-0.3c0-4.9,0-9.9,0-14.8
					c0,0,0-0.1,0-0.2c0.1,0,0.3,0,0.4,0c1.2,0,2.3,0,3.5,0c0.4,0,0.4,0,0.5,0.4c0.8,2.5,1.6,5,2.4,7.5c0,0.1,0.1,0.2,0.2,0.4
					C147.4,85,147.4,82.3,147.4,79.5z"/>
				<path class="st2" d="M138.8,87.3c0,1.5,0,3,0,4.5c0,0.8-0.3,1.4-0.8,1.9c-0.7,0.7-1.6,1.2-2.6,1.3c-1.5,0.3-3.1,0.3-4.6-0.1
					c-0.9-0.2-1.6-0.6-2.3-1.3c-0.5-0.5-0.8-1.1-0.8-1.9c0-3,0-6.1,0-9.1c0-0.7,0.2-1.3,0.7-1.8c0.6-0.7,1.4-1.2,2.3-1.4
					c1.7-0.4,3.5-0.4,5.2,0.1c0.7,0.2,1.4,0.6,2,1.2c0.6,0.5,0.9,1.2,0.8,2C138.8,84.3,138.8,85.8,138.8,87.3z M134.2,87.3
					c0-1.5,0-2.9,0-4.4c0-0.7-0.1-0.9-0.8-0.9c-0.1,0-0.2,0-0.2,0c-0.5,0.1-0.6,0.2-0.6,0.7c0,3,0,6,0,9c0,0.5,0.1,0.7,0.6,0.7
					c0.2,0,0.3,0,0.5,0c0.5-0.1,0.6-0.2,0.6-0.7C134.2,90.3,134.2,88.8,134.2,87.3z"/>
				<path class="st2" d="M126.7,88.9c0,0.2,0,0.3,0,0.5c0,0.8,0,1.6,0,2.4c0,0.8-0.3,1.5-0.9,2c-0.7,0.7-1.5,1.1-2.5,1.3
					c-1.5,0.3-3,0.3-4.5-0.1c-0.8-0.2-1.5-0.6-2.2-1.2c-0.6-0.6-0.9-1.2-0.9-2.1c0-3,0-5.9,0-8.9c0-0.9,0.3-1.6,0.9-2.1
					c0.7-0.7,1.6-1.1,2.5-1.2c1.4-0.2,2.9-0.2,4.3,0.1c0.9,0.2,1.6,0.6,2.3,1.2c0.6,0.6,0.9,1.2,0.9,2.1c0,0.8,0,1.7,0,2.5
					c0,0.2,0,0.3,0,0.5c-1.6,0-3.1,0-4.6,0c0-0.2,0-0.3,0-0.5c0-0.9,0-1.7,0-2.6c0-0.5-0.1-0.6-0.6-0.7c-0.1,0-0.2,0-0.3,0
					c-0.7,0.1-0.7,0.3-0.7,0.8c0,2.9,0,5.9,0,8.8c0,0.1,0,0.2,0,0.3c0,0.2,0.1,0.4,0.3,0.4c0.1,0,0.3,0.1,0.4,0.1
					c0.6,0.1,0.8-0.2,0.8-0.8c0-0.8,0-1.5,0-2.3c0-0.2,0-0.3,0-0.5C122.4,88.8,126,88.8,126.7,88.9z"/>
				<path class="st2" d="M105.5,94.9c0-5.1,0-10.2,0-15.3c0.4-0.1,8.7-0.1,9.1,0c0,0.8,0,1.6,0,2.5c-0.1,0-0.3,0-0.4,0
					c-1.1,0-2.2,0-3.3,0c-0.1,0-0.3,0-0.5,0c0,1.4,0,2.7,0,4.1c1,0,2.1,0,3.1,0c0,0.8,0,1.5,0,2.2c-0.4,0.1-0.7,0.1-1,0.1
					c-0.3,0-0.7,0-1,0c-0.3,0-0.7,0-1,0c-0.1,0.3-0.1,2.8,0,3.7c0.1,0,0.3,0,0.5,0c1.1,0,2.2,0,3.3,0c0.2,0,0.3,0,0.5,0
					c0,0.9,0,1.8,0,2.6C114.3,95,106,95,105.5,94.9z"/>
				<path class="st2" d="M101.1,94.9c-1.6,0-3.1,0-4.7,0c0-4.3,0-8.5,0-12.8c-1,0-2,0-3,0c-0.1-0.4-0.1-2.1,0-2.6
					c0.3-0.1,10.4-0.1,10.8,0c0.1,0.3,0.1,2.1,0,2.6c-1,0-2,0-3,0C101.1,86.4,101.1,90.6,101.1,94.9z"/>
				<path class="st2" d="M92.1,84.9c-1.6,0-3.1,0-4.6,0c0-0.2,0-0.3,0-0.5c0-0.6,0-1.2,0-1.8c0-0.4-0.1-0.6-0.5-0.6
					c-0.1,0-0.2,0-0.4,0c-0.3,0-0.5,0.2-0.5,0.5c0,0.6,0,1.1,0,1.7c0,0.4,0.2,0.6,0.5,0.8c0.4,0.2,0.7,0.4,1.1,0.7
					c1,0.6,2,1.1,2.9,1.7c0.1,0.1,0.3,0.2,0.4,0.3c0.7,0.5,1.1,1.2,1.1,2.1c0,0.7,0,1.3,0,2c0,0.7-0.2,1.3-0.7,1.7
					c-0.7,0.7-1.5,1.2-2.4,1.4c-1.5,0.4-3.1,0.4-4.7,0c-0.8-0.2-1.6-0.6-2.2-1.2c-0.6-0.5-0.9-1.2-0.9-2.1c0-0.8,0-1.5,0-2.3
					c0.3-0.1,3.9-0.1,4.5,0c0,0.1,0,0.3,0,0.4c0,0.7,0,1.3,0,2c0,0.4,0.1,0.6,0.5,0.6c0.2,0,0.5,0,0.7-0.1c0.2,0,0.3-0.2,0.3-0.4
					c0-0.6,0-1.2,0-1.8c0-0.3-0.2-0.6-0.4-0.7c-0.4-0.3-0.8-0.5-1.2-0.8c-1-0.6-2-1.2-2.9-1.8c-0.3-0.2-0.6-0.4-0.9-0.7
					c-0.4-0.4-0.6-0.9-0.6-1.5c0-0.7,0-1.3,0-2c0-0.8,0.3-1.4,0.8-1.9c0.7-0.7,1.6-1.2,2.6-1.4c1.4-0.3,2.8-0.3,4.2,0.1
					c0.9,0.2,1.7,0.7,2.3,1.3c0.5,0.5,0.8,1.1,0.8,1.9C92.1,83.5,92.1,84.2,92.1,84.9z"/>
			</g>
			<g id="blue_23_">
				<path class="st5" d="M59.7,87.4c0.3-0.1,0.5-0.2,0.7-0.3c18.3-9.4,36.6-18.8,54.9-28.1c0.4-0.2,0.7-0.4,1.1-0.6
					c0.2-0.1,0.4-0.1,0.7,0c2.7,1.4,5.4,2.8,8.2,4.2c15.9,8.2,31.9,16.4,47.8,24.5c0.2,0.1,0.3,0.2,0.6,0.3
					c-0.2,0.1-0.3,0.2-0.5,0.3c-5.8,3-11.6,6-17.5,9c-12.9,6.6-25.7,13.2-38.6,19.8c-0.3,0.1-0.5,0.1-0.8,0
					C98.5,107.3,80.8,98.2,63,89.1c-1-0.5-1.9-1-2.9-1.5C60,87.5,59.9,87.5,59.7,87.4z M147.4,79.5c0,2.8,0,5.5,0,8.3
					c-0.1-0.1-0.1-0.2-0.2-0.4c-0.8-2.5-1.6-5-2.4-7.5c-0.1-0.4-0.1-0.4-0.5-0.4c-1.2,0-2.3,0-3.5,0c-0.1,0-0.3,0-0.4,0
					c0,0.1,0,0.1,0,0.2c0,4.9,0,9.9,0,14.8c0,0.1,0,0.2,0,0.3c0,0,0,0,0,0c0,0,0,0,0,0c1.3,0,2.7,0,4,0c0-2.7,0-5.3,0-7.9
					c0,0,0.1,0,0.1,0c0.9,2.6,1.8,5.3,2.7,7.9c1.4,0,2.8,0,4.2,0c0-5.1,0-10.2,0-15.4C150.2,79.5,148.8,79.5,147.4,79.5z
					 M138.8,87.3c0-1.5,0-3,0-4.5c0-0.8-0.3-1.5-0.8-2c-0.6-0.6-1.2-1-2-1.2c-1.7-0.5-3.5-0.5-5.2-0.1c-0.9,0.2-1.7,0.7-2.3,1.4
					c-0.4,0.5-0.7,1.1-0.7,1.8c0,3,0,6.1,0,9.1c0,0.8,0.3,1.4,0.8,1.9c0.6,0.7,1.4,1.1,2.3,1.3c1.5,0.3,3.1,0.3,4.6,0.1
					c1-0.2,1.8-0.6,2.6-1.3c0.5-0.5,0.8-1.2,0.8-1.9C138.8,90.3,138.8,88.8,138.8,87.3z M126.7,88.9c-0.6-0.1-4.3-0.1-4.7,0
					c0,0.1,0,0.3,0,0.5c0,0.8,0,1.5,0,2.3c0,0.7-0.2,0.9-0.8,0.8c-0.1,0-0.3,0-0.4-0.1c-0.2-0.1-0.3-0.2-0.3-0.4c0-0.1,0-0.2,0-0.3
					c0-2.9,0-5.9,0-8.8c0-0.5,0-0.7,0.7-0.8c0.1,0,0.2,0,0.3,0c0.5,0.1,0.6,0.2,0.6,0.7c0,0.9,0,1.7,0,2.6c0,0.2,0,0.3,0,0.5
					c1.6,0,3.1,0,4.6,0c0-0.2,0-0.4,0-0.5c0-0.8,0-1.7,0-2.5c0-0.9-0.3-1.5-0.9-2.1c-0.7-0.6-1.4-1-2.3-1.2
					c-1.4-0.3-2.9-0.3-4.3-0.1c-0.9,0.2-1.8,0.6-2.5,1.2c-0.6,0.6-0.9,1.3-0.9,2.1c0,3,0,5.9,0,8.9c0,0.9,0.3,1.6,0.9,2.1
					c0.6,0.6,1.4,1,2.2,1.2c1.5,0.3,3,0.3,4.5,0.1c0.9-0.2,1.8-0.6,2.5-1.3c0.6-0.5,0.9-1.2,0.9-2c0-0.8,0-1.6,0-2.4
					C126.7,89.2,126.7,89.1,126.7,88.9z M92.1,84.9c0-0.7,0-1.4,0-2.1c0-0.8-0.3-1.4-0.8-1.9c-0.7-0.7-1.4-1.1-2.3-1.3
					c-1.4-0.3-2.8-0.3-4.2-0.1c-1,0.2-1.9,0.6-2.6,1.4c-0.5,0.5-0.8,1.1-0.8,1.9c0,0.7,0,1.3,0,2c0,0.6,0.2,1.1,0.6,1.5
					c0.3,0.2,0.6,0.5,0.9,0.7c1,0.6,2,1.2,2.9,1.8c0.4,0.2,0.8,0.5,1.2,0.8c0.2,0.2,0.4,0.4,0.4,0.7c0,0.6,0,1.2,0,1.8
					c0,0.2-0.1,0.4-0.3,0.4c-0.2,0-0.5,0.1-0.7,0.1c-0.4,0-0.5-0.2-0.5-0.6c0-0.7,0-1.3,0-2c0-0.1,0-0.3,0-0.4
					c-0.6-0.1-4.2-0.1-4.5,0c0,0.7,0,1.5,0,2.3c0,0.9,0.3,1.5,0.9,2.1c0.6,0.6,1.4,1,2.2,1.2c1.6,0.4,3.1,0.3,4.7,0
					c0.9-0.2,1.7-0.7,2.4-1.4c0.4-0.5,0.7-1.1,0.7-1.7c0-0.7,0-1.3,0-2c0-0.9-0.4-1.6-1.1-2.1c-0.1-0.1-0.3-0.2-0.4-0.3
					c-1-0.6-2-1.1-2.9-1.7c-0.4-0.2-0.7-0.4-1.1-0.7c-0.3-0.2-0.5-0.4-0.5-0.8c0-0.6,0-1.1,0-1.7c0-0.3,0.2-0.5,0.5-0.5
					c0.1,0,0.2,0,0.4,0c0.4,0,0.5,0.2,0.5,0.6c0,0.6,0,1.2,0,1.8c0,0.1,0,0.3,0,0.5C89.1,84.9,90.6,84.9,92.1,84.9z M105.5,94.9
					c0.5,0.1,8.8,0.1,9.1,0c0-0.9,0-1.7,0-2.6c-0.2,0-0.3,0-0.5,0c-1.1,0-2.2,0-3.3,0c-0.2,0-0.3,0-0.5,0c-0.1-0.8,0-3.3,0-3.7
					c0.3,0,0.7,0,1,0c0.3,0,0.7,0,1,0c0.3,0,0.7,0.1,1-0.1c0-0.7,0-1.5,0-2.2c-1.1,0-2.1,0-3.1,0c0-1.4,0-2.7,0-4.1
					c0.2,0,0.3,0,0.5,0c1.1,0,2.2,0,3.3,0c0.1,0,0.3,0,0.4,0c0-0.9,0-1.7,0-2.5c-0.4-0.1-8.7-0.1-9.1,0
					C105.5,84.7,105.5,89.8,105.5,94.9z M101.1,94.9c0-4.3,0-8.5,0-12.8c1,0,2,0,3,0c0.1-0.5,0.1-2.2,0-2.6
					c-0.4-0.1-10.5-0.1-10.8,0c-0.1,0.4-0.1,2.2,0,2.6c1,0,2,0,3,0c0,4.3,0,8.5,0,12.8C97.9,94.9,99.5,94.9,101.1,94.9z"/>
				<path class="st5" d="M134.2,87.3c0,1.5,0,3,0,4.5c0,0.5-0.1,0.6-0.6,0.7c-0.2,0-0.3,0-0.5,0c-0.5-0.1-0.6-0.2-0.6-0.7
					c0-3,0-6,0-9c0-0.5,0.1-0.6,0.6-0.7c0.1,0,0.2,0,0.2,0c0.7,0,0.8,0.1,0.8,0.9C134.2,84.4,134.2,85.9,134.2,87.3z"/>
			</g>
		</g>
	</g>
	<g>
		<path class="st6" d="M73.5,1047l-7.7-50.1h6.7l4.9,34.4l5.9-34.4H91l5.7,35l4.9-35h6.6l-7.8,50.1h-6.9l-6.4-37.5l-6.4,37.5H73.5z"
			/>
		<path class="st6" d="M111.5,1047v-50.1h23.9v8.5H118v11.1h16.2v8.4H118v13.6h18v8.4H111.5z"/>
		<path class="st6" d="M170.6,1047h-7.1l-2.8-11.4h-12.9l-2.7,11.4h-6.9l12.6-50.1h6.9L170.6,1047z M158.6,1027.2l-4.4-18.6
			l-4.4,18.6H158.6z"/>
		<path class="st6" d="M174.1,1047v-50.1h13.7c3.4,0,6,0.5,7.5,1.3c1.6,0.9,2.8,2.5,3.8,4.8c0.9,2.3,1.4,4.9,1.4,7.9
			c0,3.8-0.7,6.9-2.1,9.3c-1.4,2.5-3.5,4-6.4,4.6c1.4,1.3,2.6,2.7,3.5,4.2c0.9,1.5,2.2,4.2,3.7,8.1l3.9,9.8h-7.8l-4.7-10.9
			c-1.7-3.9-2.8-6.4-3.4-7.4c-0.6-1-1.3-1.7-2-2.1c-0.7-0.4-1.8-0.6-3.3-0.6h-1.3v20.9H174.1z M180.6,1018.1h4.8
			c3.1,0,5.1-0.2,5.9-0.6c0.8-0.4,1.4-1.1,1.8-2.1c0.4-1,0.7-2.3,0.7-3.8c0-1.7-0.3-3-0.9-4.1s-1.4-1.7-2.5-2
			c-0.5-0.1-2.1-0.2-4.8-0.2h-5.1V1018.1z"/>
		<path class="st6" d="M231.6,1047v-50.1h10.4c4,0,6.5,0.3,7.7,0.8c1.8,0.8,3.4,2.4,4.6,4.9c1.2,2.5,1.9,5.8,1.9,9.8
			c0,3.1-0.4,5.7-1.1,7.8c-0.7,2.1-1.6,3.7-2.7,4.9c-1.1,1.2-2.2,2-3.4,2.4c-1.6,0.5-3.8,0.7-6.8,0.7h-4.2v18.9H231.6z
			 M238.1,1005.4v14.2h3.6c2.6,0,4.3-0.3,5.1-0.8c0.9-0.5,1.5-1.3,2-2.5c0.5-1.1,0.7-2.4,0.7-3.9c0-1.8-0.3-3.3-1-4.5
			c-0.7-1.2-1.6-1.9-2.6-2.2c-0.8-0.2-2.3-0.3-4.7-0.3H238.1z"/>
		<path class="st6" d="M261.7,1047v-50.1h13.7c3.4,0,6,0.5,7.5,1.3c1.6,0.9,2.8,2.5,3.8,4.8c0.9,2.3,1.4,4.9,1.4,7.9
			c0,3.8-0.7,6.9-2.1,9.3c-1.4,2.5-3.5,4-6.4,4.6c1.4,1.3,2.6,2.7,3.5,4.2c0.9,1.5,2.2,4.2,3.7,8.1l3.9,9.8h-7.8l-4.7-10.9
			c-1.7-3.9-2.8-6.4-3.4-7.4c-0.6-1-1.3-1.7-2-2.1c-0.7-0.4-1.8-0.6-3.3-0.6h-1.3v20.9H261.7z M268.2,1018.1h4.8
			c3.1,0,5.1-0.2,5.9-0.6c0.8-0.4,1.4-1.1,1.8-2.1c0.4-1,0.7-2.3,0.7-3.8c0-1.7-0.3-3-0.9-4.1s-1.4-1.7-2.5-2
			c-0.5-0.1-2.1-0.2-4.8-0.2h-5.1V1018.1z"/>
		<path class="st6" d="M292.9,1022.2c0-5.1,0.5-9.4,1.5-12.9c0.7-2.6,1.7-4.8,3-6.9c1.3-2,2.7-3.5,4.2-4.5c2-1.3,4.3-2,7-2
			c4.8,0,8.6,2.3,11.4,6.9c2.9,4.6,4.3,10.9,4.3,19.1c0,8.1-1.4,14.4-4.2,19s-6.6,6.9-11.3,6.9c-4.8,0-8.6-2.3-11.4-6.8
			C294.3,1036.5,292.9,1030.2,292.9,1022.2z M299.6,1021.9c0,5.7,0.8,10,2.5,12.9c1.7,2.9,3.8,4.4,6.4,4.4c2.6,0,4.7-1.5,6.4-4.4
			c1.7-2.9,2.5-7.3,2.5-13.1c0-5.7-0.8-10-2.4-12.9c-1.6-2.8-3.8-4.2-6.5-4.2c-2.7,0-4.8,1.4-6.5,4.3
			C300.4,1011.8,299.6,1016.1,299.6,1021.9z"/>
		<path class="st6" d="M336.5,1047v-41.6h-9.6v-8.5h25.6v8.5H343v41.6H336.5z"/>
		<path class="st6" d="M356.7,1047v-50.1h23.9v8.5h-17.4v11.1h16.2v8.4h-16.2v13.6h18v8.4H356.7z"/>
		<path class="st6" d="M407.4,1028.6l6.3,3.1c-1,5.5-2.6,9.5-4.8,12.2s-5.1,4-8.6,4c-4.3,0-7.8-2.3-10.6-6.8
			c-2.8-4.5-4.1-10.8-4.1-18.6c0-8.3,1.4-14.8,4.2-19.4c2.8-4.6,6.4-6.9,10.9-6.9c3.9,0,7.1,1.8,9.6,5.4c1.5,2.1,2.6,5.2,3.3,9.2
			l-6.4,2.4c-0.4-2.6-1.2-4.6-2.4-6.2s-2.7-2.3-4.4-2.3c-2.4,0-4.3,1.3-5.8,4c-1.5,2.7-2.2,7-2.2,13c0,6.3,0.7,10.8,2.2,13.5
			c1.5,2.7,3.4,4,5.7,4c1.7,0,3.2-0.9,4.5-2.6S406.9,1032.2,407.4,1028.6z"/>
		<path class="st6" d="M426.6,1047v-41.6H417v-8.5h25.6v8.5h-9.5v41.6H426.6z"/>
		<path class="st6" d="M446.6,1047v-50.1h6.5v50.1H446.6z"/>
		<path class="st6" d="M467.6,1047l-11.5-50.1h7.1l8.2,37.1l7.9-37.1h6.9l-11.5,50.1H467.6z"/>
		<path class="st6" d="M489.4,1047v-50.1h23.9v8.5h-17.4v11.1h16.2v8.4h-16.2v13.6h18v8.4H489.4z"/>
		<path class="st6" d="M565.1,1028.6l6.3,3.1c-1,5.5-2.6,9.5-4.8,12.2s-5.1,4-8.6,4c-4.3,0-7.8-2.3-10.6-6.8
			c-2.8-4.5-4.1-10.8-4.1-18.6c0-8.3,1.4-14.8,4.2-19.4c2.8-4.6,6.4-6.9,10.9-6.9c3.9,0,7.1,1.8,9.6,5.4c1.5,2.1,2.6,5.2,3.3,9.2
			l-6.4,2.4c-0.4-2.6-1.2-4.6-2.4-6.2s-2.7-2.3-4.4-2.3c-2.4,0-4.3,1.3-5.8,4s-2.2,7-2.2,13c0,6.3,0.7,10.8,2.2,13.5
			c1.5,2.7,3.4,4,5.7,4c1.7,0,3.2-0.9,4.5-2.6S564.6,1032.2,565.1,1028.6z"/>
		<path class="st6" d="M577.2,1047v-49.7h6.5v41.3h16.2v8.4H577.2z"/>
		<path class="st6" d="M603.2,1022.2c0-5.1,0.5-9.4,1.5-12.9c0.7-2.6,1.7-4.8,3-6.9c1.3-2,2.7-3.5,4.2-4.5c2-1.3,4.3-2,7-2
			c4.8,0,8.6,2.3,11.4,6.9c2.9,4.6,4.3,10.9,4.3,19.1c0,8.1-1.4,14.4-4.2,19s-6.6,6.9-11.3,6.9c-4.8,0-8.6-2.3-11.4-6.8
			C604.6,1036.5,603.2,1030.2,603.2,1022.2z M609.9,1021.9c0,5.7,0.8,10,2.5,12.9c1.7,2.9,3.8,4.4,6.4,4.4c2.6,0,4.7-1.5,6.4-4.4
			c1.7-2.9,2.5-7.3,2.5-13.1c0-5.7-0.8-10-2.4-12.9c-1.6-2.8-3.8-4.2-6.5-4.2c-2.7,0-4.8,1.4-6.5,4.3
			C610.7,1011.8,609.9,1016.1,609.9,1021.9z"/>
		<path class="st6" d="M646.8,1047v-41.6h-9.6v-8.5h25.6v8.5h-9.5v41.6H646.8z"/>
		<path class="st6" d="M667.1,1047v-50.1h6.5v19.7h12.8v-19.7h6.5v50.1h-6.5v-21.9h-12.8v21.9H667.1z"/>
		<path class="st6" d="M699.4,1047v-50.1h6.5v50.1H699.4z"/>
		<path class="st6" d="M712.2,1047v-50.1h6.3l13.2,33.5v-33.5h6v50.1h-6.5l-13-32.7v32.7H712.2z"/>
		<path class="st6" d="M759.7,1028.6v-8.4h14v20c-1.4,2.1-3.3,3.9-5.9,5.4c-2.6,1.6-5.2,2.3-7.9,2.3c-3.4,0-6.3-1.1-8.8-3.3
			c-2.5-2.2-4.4-5.3-5.7-9.4s-1.9-8.5-1.9-13.3c0-5.2,0.7-9.9,2.1-13.9c1.4-4.1,3.5-7.2,6.2-9.3c2.1-1.7,4.6-2.5,7.7-2.5
			c4,0,7.1,1.3,9.4,3.9c2.3,2.6,3.7,6.2,4.3,10.8l-6.5,1.9c-0.5-2.5-1.3-4.4-2.6-5.8s-2.8-2.1-4.7-2.1c-2.8,0-5.1,1.4-6.8,4.2
			c-1.7,2.8-2.5,7-2.5,12.5c0,5.9,0.8,10.4,2.6,13.4c1.7,3,3.9,4.5,6.7,4.5c1.4,0,2.7-0.4,4.1-1.2c1.4-0.8,2.5-1.8,3.5-3v-6.4H759.7
			z"/>
	</g>
	<g>
		<path class="st6" d="M120.3,926.7h-6.9V906c0-2.4-1.3-4.2-3.8-5.5c-1.9-1-4.1-1.4-6.5-1.4c-2.3,0-4.3,0.6-5.9,1.8
			c-2,1.4-3,3.4-3,5.8v3c1-0.2,1.7-0.2,2-0.2c2.4,0,4.4,0.9,6.1,2.7c1.7,1.8,2.6,3.9,2.6,6.4c0,2.6-0.9,4.7-2.7,6.5
			c-1.8,1.8-3.8,2.6-6.1,2.6c-2.5,0-4.5-0.9-6.2-2.6c-1.7-1.7-2.6-3.9-2.6-6.5v-11c0-4.7,1.6-8.4,4.9-11c2.9-2.3,6.5-3.5,10.8-3.5
			c4.6,0,8.1,1.4,10.4,4.1v-5.3c0-2.5-1.3-4.4-4-5.7c-2.1-1-4.4-1.5-7-1.5c-2.9,0-5.4,0.7-7.5,2.1c-2.3,1.6-3.7,3.7-4.1,6.4h-6.7
			c0.4-4.9,2.4-8.6,5.9-11.3c3.3-2.5,7.5-3.7,12.6-3.7c3.3,0,6.4,0.6,9,1.9c1.6-1.5,2.3-3.4,2.3-5.8h7.8c-0.9,4.1-2.5,7.2-4.8,9.5
			c2.2,2.6,3.3,5.5,3.3,8.9V926.7z M100,918.5c0-1.1-0.4-2.1-1.1-2.9c-0.7-0.8-1.6-1.2-2.7-1.2c-1,0-1.9,0.4-2.7,1.2
			c-0.7,0.8-1.1,1.8-1.1,2.9c0,1.1,0.4,2.1,1.1,2.9c0.7,0.8,1.6,1.2,2.7,1.2c1,0,1.9-0.4,2.7-1.2C99.6,920.5,100,919.6,100,918.5z"
			/>
		<path class="st6" d="M162.6,918c0,2.8-0.9,5.1-2.6,6.9c-1.7,1.8-3.8,2.7-6.4,2.7c-2.4,0-4.4-0.9-6-2.7c-1.6-1.8-2.5-3.9-2.5-6.4
			c0-2.6,0.8-4.8,2.5-6.5c1.6-1.8,3.6-2.7,6-2.7c0.8,0,1.5,0,2,0.1V892c0-5.1-3.4-7.6-10.3-7.6c-2.8,0-5.2,0.9-7.2,2.8
			c-2,1.9-3,4.3-3,7.4h-6.7c0.2-5.3,1.8-9.4,4.9-12.3c3-2.9,7-4.4,12-4.4c4.9,0,8.8,1,11.8,3.1c3.6,2.5,5.4,6.3,5.4,11.4V918z
			 M157.5,918.5c0-1.1-0.4-2.1-1.1-2.9c-0.7-0.8-1.6-1.2-2.7-1.2c-1,0-1.9,0.4-2.7,1.2c-0.7,0.8-1.1,1.8-1.1,2.9
			c0,1.1,0.4,2.1,1.1,2.9c0.7,0.8,1.6,1.2,2.7,1.2c1,0,1.9-0.4,2.7-1.2C157.1,920.5,157.5,919.6,157.5,918.5z"/>
		<path class="st6" d="M209.1,926.7h-6.9c-4.3-4.2-8.7-7.1-13.1-8.8v0.6c0,2.6-0.9,4.7-2.7,6.5c-1.8,1.8-3.9,2.6-6.2,2.6
			c-2.5,0-4.6-1-6.4-2.9c-1.8-1.9-2.7-4.2-2.7-6.8c0-2.6,0.9-4.9,2.7-6.8c1.8-1.9,3.9-2.8,6.4-2.8h0.8v-12.5
			c-0.7,0.2-1.4,0.2-1.9,0.2c-2.4,0-4.4-0.9-6-2.7c-1.6-1.8-2.5-4-2.5-6.5c0-2.5,0.8-4.6,2.5-6.4c1.6-1.8,3.6-2.6,6-2.6
			c2.5,0,4.6,0.9,6.3,2.8c1.7,1.8,2.5,4.2,2.5,7v22.8c5.9,2.2,10.6,5,14.3,8.5v-40.1h6.9V926.7z M182.9,887c0-1.1-0.4-2.1-1.1-2.9
			c-0.7-0.8-1.6-1.2-2.7-1.2c-1,0-1.9,0.4-2.7,1.2c-0.7,0.8-1.1,1.8-1.1,2.9c0,1.1,0.4,2.1,1.1,2.9c0.7,0.8,1.6,1.2,2.7,1.2
			c1,0,1.9-0.4,2.7-1.2C182.5,889.1,182.9,888.1,182.9,887z M184,918c0-1.1-0.4-2.1-1.1-2.9c-0.7-0.8-1.6-1.2-2.7-1.2
			c-1,0-1.9,0.4-2.7,1.2c-0.7,0.8-1.1,1.8-1.1,2.9c0,1.1,0.4,2.1,1.1,2.9c0.7,0.8,1.6,1.2,2.7,1.2c1,0,1.9-0.4,2.7-1.2
			C183.6,920.1,184,919.1,184,918z"/>
		<path class="st6" d="M255.4,915.5c0,3.9-1.1,6.9-3.4,9.1c-2.3,2.1-5.3,3.2-9,3.2c-3.7,0-6.7-1.1-9-3.2c-2.3-2.1-3.4-5.1-3.4-9
			v-7.8c0-2.3,1-5.4,3-9.3c2-3.9,3-6.9,3-9.2c0-1.8-0.6-3.4-1.8-4.5c-1.2-1.2-2.6-1.8-4.1-1.8c-2.4,0-4,0.5-4.8,1.4
			c2.2,0.1,4,0.8,5.4,2.3c1.4,1.4,2.1,3.3,2.1,5.5c0,2.4-0.8,4.4-2.3,6.1c-1.6,1.6-3.4,2.5-5.6,2.5c-2.5,0-4.6-1-6.1-2.9
			c-1.5-2-2.3-4.3-2.3-7.1c0-3.7,1.4-6.7,4.1-9.1c2.7-2.4,5.9-3.6,9.4-3.6c3.7,0,6.7,1,9.1,2.9c2.3,1.9,3.5,4.7,3.5,8.4
			c0,2.4-0.9,5.7-2.8,10.1c-1.9,4.3-2.8,7.3-2.8,9.1v8.7c0,1.4,0.6,2.4,1.7,3.1c1.2,0.7,2.4,1.1,3.7,1.1c1.4,0,2.7-0.4,3.8-1.1
			c1.1-0.8,1.7-1.8,1.7-3.1v-19.7c0-3-1.1-4.8-3.2-5.5c0.3-1.4,0.3-2.8,0.1-4.2c3.8-1.5,5.7-5.3,5.7-11.5h6.9
			c-0.5,6.2-2.5,10.7-5.9,13.6c2.2,1.9,3.3,4.4,3.3,7.6V915.5z M228.9,892.4c0-1-0.3-1.9-1-2.6s-1.5-1.1-2.5-1.1
			c-1,0-1.8,0.4-2.5,1.1s-1,1.6-1,2.6c0,1,0.3,1.9,1,2.6c0.7,0.7,1.5,1.1,2.5,1.1c1,0,1.8-0.4,2.5-1.1
			C228.5,894.3,228.9,893.5,228.9,892.4z"/>
		<path class="st6" d="M255.4,954.9h-6.7v-9.1h-0.4c-1.9,0-3.4-0.7-4.7-2.1c-1.3-1.4-2-3.1-2-5c0-2,0.7-3.7,2-5.2
			c1.3-1.4,2.9-2.2,4.9-2.2c1.9,0,3.5,0.6,4.9,1.9c1.4,1.3,2.1,3,2.1,5.3V954.9z M251.5,938.4c0-0.9-0.3-1.6-0.9-2.3
			c-0.6-0.6-1.3-1-2.1-1c-0.8,0-1.5,0.3-2.2,1c-0.6,0.6-0.9,1.4-0.9,2.3c0,0.9,0.3,1.7,0.9,2.3c0.6,0.7,1.4,1,2.2,1
			c0.8,0,1.5-0.3,2.1-1C251.2,940,251.5,939.3,251.5,938.4z"/>
		<path class="st6" d="M300.6,926.7h-6.9v-32.1c0-3-1.1-5.5-3.2-7.4c-2.1-1.9-4.6-2.9-7.5-2.9c-3.1,0-5.8,1.1-8.1,3.4
			c-2.3,2.3-3.4,5-3.4,8.2c0,2,0.6,4.8,1.8,8.5c1.2,3.7,1.8,6.4,1.8,8.2c0,0.6-0.1,1.3-0.2,2.3c2.1-3.8,4.5-6.9,7.1-9.5
			c-2.1-0.2-3.7-1-4.9-2.6c-1.1-1.4-1.7-3-1.7-5c0-2.1,0.7-3.9,2.2-5.5c1.5-1.6,3.2-2.3,5.2-2.3s3.7,0.8,5.1,2.3
			c1.4,1.6,2.1,3.4,2.1,5.5c0,3.6-1.6,7.6-4.9,12c-4.5,6-7,9.6-7.6,10.8c-1.1,2.1-1.7,4.1-1.7,6.1h-7c0.1-3,0.1-5.7,0.1-8.2
			c0-4.3-0.5-7.6-1.4-10c-0.7-2.1-1.4-4.2-2.1-6.4c-0.7-2.2-1-4.1-1-5.8c0-5.4,1.8-9.9,5.3-13.3c3.5-3.4,7.8-5.2,12.9-5.2
			c5.1,0,9.3,1.4,12.6,4.3c3.5,3.1,5.2,7.4,5.2,12.8V926.7z M286.2,897.8c0-1-0.3-1.9-0.9-2.6c-0.6-0.7-1.4-1-2.4-1
			c-1,0-1.8,0.3-2.4,1c-0.6,0.7-0.9,1.5-0.9,2.6c0,1,0.3,1.9,0.9,2.6c0.6,0.7,1.4,1,2.4,1c1,0,1.8-0.3,2.4-1
			C285.9,899.7,286.2,898.9,286.2,897.8z"/>
		<path class="st6" d="M350.2,915.9c0,7.8-5.4,11.8-16.2,11.8c-10.9,0-16.3-3.9-16.3-11.8v-20c-0.7,0.2-1.4,0.2-1.9,0.2
			c-2.4,0-4.4-0.9-6-2.7c-1.6-1.8-2.5-4-2.5-6.5c0-2.5,0.8-4.6,2.5-6.4c1.6-1.8,3.6-2.6,6-2.6c2.5,0,4.6,0.9,6.3,2.8
			c1.7,1.8,2.5,4.1,2.5,6.9V916c0,1.6,1,2.9,3,3.8c2,1,4.1,1.4,6.4,1.4c2.2,0,4.2-0.5,6.2-1.4s3-2.2,3-3.8v-56.3h6.9V915.9z
			 M319.7,887c0-1.1-0.4-2.1-1.1-2.9c-0.7-0.8-1.6-1.2-2.7-1.2c-1,0-1.9,0.4-2.7,1.2c-0.7,0.8-1.1,1.8-1.1,2.9
			c0,1.1,0.4,2.1,1.1,2.9c0.7,0.8,1.6,1.2,2.7,1.2c1,0,1.9-0.4,2.7-1.2C319.3,889.1,319.7,888.1,319.7,887z"/>
		<path class="st6" d="M346.9,851.4c-0.3,3.9-1.1,7.2-2.3,9.9c-1.3,2.7-2.9,4.9-5,6.5c-2.1,1.7-4.6,2.9-7.4,3.7
			c-2.9,0.8-6,1.1-9.4,1.1h-3.3v-4.6c1.5-0.1,2.7-0.6,3.6-1.6c0.9-1,1.5-2,1.7-2.9c-1.6-0.4-3-1.3-4-2.7c-1-1.4-1.6-3-1.6-4.9
			c0-2.1,0.7-3.8,2-5.2c1.3-1.4,2.9-2,4.8-2c2.2,0,3.8,0.7,5.1,2.2c1.2,1.4,1.8,3.3,1.8,5.5c0,2-0.5,4.1-1.6,6.2
			c-1,2.1-2.1,3.8-3.1,5c3.6-0.8,6.5-2.7,8.6-5.7c2.2-3,3.4-6.5,3.5-10.5H346.9z M328.6,856.2c0-0.9-0.3-1.6-0.8-2.2
			c-0.5-0.6-1.2-0.8-2-0.8c-0.7,0-1.4,0.3-1.9,0.8c-0.5,0.6-0.8,1.3-0.8,2.2c0,0.8,0.3,1.5,0.8,2c0.5,0.6,1.2,0.8,1.9,0.8
			c0.8,0,1.5-0.3,2-0.8C328.3,857.7,328.6,857,328.6,856.2z"/>
		<path class="st6" d="M394.2,915.9c0,4.2-1.7,7.2-5.2,9.2c-2.8,1.7-6.5,2.5-10.9,2.5s-8.1-0.8-10.8-2.5c-3.3-2-5-5.1-5-9.3v-12.2
			c0-2.9,0.7-5.3,2.2-7.3c1.5-2,3.6-3,6.4-3c2.4,0,4.4,0.9,6,2.6c1.6,1.7,2.5,3.9,2.5,6.5c0,2.5-0.8,4.6-2.5,6.4
			c-1.6,1.8-3.6,2.7-6,2.7c-0.7,0-1.2-0.1-1.7-0.2v3.7c0,4.1,3,6.2,9,6.2c6.1,0,9.1-2.1,9.1-6.3V892c0-2.6-1.2-4.6-3.5-6
			c-1.9-1.1-4.3-1.7-7.1-1.7c-7.1,0-10.9,1.9-11.5,5.8h-6.7c1-8.1,6.8-12.2,17.6-12.2c5,0,9.1,1,12.3,3c3.9,2.6,5.8,6.4,5.8,11.5
			V915.9z M374.5,902.6c0-1.1-0.4-2-1.1-2.8c-0.8-0.8-1.7-1.2-2.7-1.2c-1.1,0-2,0.4-2.7,1.2c-0.8,0.8-1.1,1.7-1.1,2.8
			c0,1.1,0.4,2.1,1.1,2.8c0.8,0.8,1.7,1.2,2.7,1.2c1.1,0,2-0.4,2.7-1.2C374.2,904.6,374.5,903.7,374.5,902.6z"/>
		<path class="st6" d="M429.6,926.7h-6.8L402,901.4l4.1-5.2l16.6,20.2v-20.6c-0.2,0.1-0.9,0.1-2.1,0.1c-2.3,0-4.3-0.8-5.9-2.5
			c-1.6-1.6-2.4-3.7-2.4-6.3c0-2.6,0.8-4.7,2.5-6.5c1.6-1.8,3.6-2.7,5.8-2.7c2.6,0,4.8,0.9,6.5,2.7c1.7,1.8,2.6,4.1,2.6,7V926.7z
			 M424.4,886.9c0-1.1-0.4-2-1.1-2.8c-0.7-0.8-1.6-1.2-2.7-1.2c-1,0-1.9,0.4-2.7,1.2c-0.7,0.8-1.1,1.7-1.1,2.8c0,1.1,0.4,2,1.1,2.8
			c0.7,0.8,1.6,1.2,2.7,1.2c1,0,1.9-0.4,2.7-1.2C424,888.9,424.4,888,424.4,886.9z"/>
		<path class="st6" d="M473.3,926.7h-6.9V895c0-3.3-0.9-5.9-2.8-7.8c-1.9-1.9-4.3-2.9-7.4-2.9c-4.5,0-7.8,2-10.2,6
			c3.5,0.7,6,2.5,7.5,5.4c-3.8,2.4-5.7,5.3-5.7,8.6v22.3h-6.9v-22.8c0-3.4,1.5-6,4.6-7.9c-1.9-1.4-4.1-1.8-6.8-1.4
			c0.1-5,1.9-9,5.4-12.2c3.1-3,7.1-4.4,11.9-4.4c5.4,0,9.6,1.5,12.7,4.6c3.1,3.1,4.6,7.3,4.6,12.5V926.7z"/>
		<path class="st6" d="M484.5,849.6c-1.9,13.3-8.6,19.9-20.1,19.9c-4.5,0-7.9-1-10.3-2.9c-2.4-2-3.6-4.5-3.6-7.5
			c0-2.3,0.7-4.3,2.2-5.9c1.5-1.6,3.3-2.4,5.5-2.4c2.3,0,4.2,0.8,5.6,2.5c1.4,1.6,2.2,3.6,2.2,5.8c0,2.2-0.6,3.8-1.7,4.8
			c7.7-0.3,12.2-5.1,13.5-14.3H484.5z M461.6,859.1c0-1-0.3-1.9-1-2.6c-0.7-0.7-1.5-1.1-2.5-1.1c-1,0-1.8,0.4-2.4,1.1
			c-0.6,0.7-0.9,1.6-0.9,2.6c0,1,0.3,1.9,0.9,2.6c0.6,0.7,1.4,1,2.4,1c1,0,1.8-0.3,2.5-1C461.3,861,461.6,860.1,461.6,859.1z"/>
		<path class="st6" d="M521.6,904.1c0,3.2-0.8,5.4-2.3,6.6c2.9,1.7,4.4,4.4,4.4,8c0,2.6-0.8,4.7-2.5,6.5c-1.6,1.7-3.6,2.6-5.9,2.6
			c-2.2,0-4-0.7-5.6-2.2s-2.5-3.3-2.8-5.6c-2.4,1.3-4.1,2.2-5.1,2.9c-1.8,1.2-3.2,2.5-4.2,4h-7v-30.8c-0.7,0.2-1.4,0.2-1.9,0.2
			c-2.4,0-4.4-0.9-6-2.7c-1.6-1.8-2.5-4-2.5-6.5c0-2.5,0.8-4.6,2.5-6.4c1.6-1.8,3.6-2.6,6-2.6c2.5,0,4.6,0.9,6.3,2.8
			c1.7,1.8,2.5,4.2,2.5,7v30.5c1.2-1,3.9-2.4,8-4.2c3.7-1.7,6.3-3.4,7.7-5c1-1.2,1.6-3.1,1.6-5.8v-24.2h6.9V904.1z M492.3,887
			c0-1.1-0.4-2.1-1.1-2.9c-0.7-0.8-1.6-1.2-2.7-1.2c-1,0-1.9,0.4-2.7,1.2c-0.7,0.8-1.1,1.8-1.1,2.9c0,1.1,0.4,2.1,1.1,2.9
			c0.7,0.8,1.6,1.2,2.7,1.2c1,0,1.9-0.4,2.7-1.2C492,889.1,492.3,888.1,492.3,887z M518.9,918.6c0-1.1-0.4-2-1.1-2.8
			c-0.7-0.8-1.6-1.2-2.7-1.2c-1,0-1.9,0.4-2.7,1.2c-0.7,0.8-1.1,1.7-1.1,2.8c0,1.1,0.4,2.1,1.1,2.8c0.7,0.8,1.6,1.2,2.7,1.2
			c1,0,1.9-0.4,2.7-1.2C518.5,920.7,518.9,919.7,518.9,918.6z"/>
		<path class="st6" d="M566.1,926.7h-6.9V906c0-2.4-1.3-4.2-3.8-5.5c-1.9-1-4.1-1.4-6.5-1.4c-2.3,0-4.3,0.6-5.9,1.8
			c-2,1.4-3,3.4-3,5.8v3c1-0.2,1.7-0.2,2-0.2c2.4,0,4.4,0.9,6.1,2.7c1.7,1.8,2.6,3.9,2.6,6.4c0,2.6-0.9,4.7-2.7,6.5
			c-1.8,1.8-3.8,2.6-6.1,2.6c-2.5,0-4.5-0.9-6.2-2.6c-1.7-1.7-2.6-3.9-2.6-6.5v-11c0-4.7,1.6-8.4,4.9-11c2.9-2.3,6.5-3.5,10.8-3.5
			c4.6,0,8.1,1.4,10.4,4.1v-5.3c0-2.5-1.3-4.4-4-5.7c-2.1-1-4.4-1.5-7-1.5c-2.9,0-5.4,0.7-7.5,2.1c-2.3,1.6-3.7,3.7-4.1,6.4h-6.7
			c0.4-4.9,2.4-8.6,5.9-11.3c3.3-2.5,7.5-3.7,12.6-3.7c3.3,0,6.4,0.6,9,1.9c1.6-1.5,2.3-3.4,2.3-5.8h7.8c-0.9,4.1-2.5,7.2-4.8,9.5
			c2.2,2.6,3.3,5.5,3.3,8.9V926.7z M545.8,918.5c0-1.1-0.4-2.1-1.1-2.9c-0.7-0.8-1.6-1.2-2.7-1.2c-1,0-1.9,0.4-2.7,1.2
			c-0.7,0.8-1.1,1.8-1.1,2.9c0,1.1,0.4,2.1,1.1,2.9c0.7,0.8,1.6,1.2,2.7,1.2c1,0,1.9-0.4,2.7-1.2
			C545.4,920.5,545.8,919.6,545.8,918.5z"/>
		<path class="st6" d="M603.5,926.7h-6.9v-34.8c0-2.2-0.7-4-2.1-5.4c-1.4-1.4-3.3-2.1-5.8-2.1s-4.5,0.9-6,2.6
			c-1.6,1.7-2.4,3.9-2.5,6.6h-6.7c0.2-4.8,1.7-8.6,4.4-11.5c2.7-2.8,6.3-4.3,10.8-4.3c4.2,0,7.7,1.1,10.5,3.4
			c2.9,2.3,4.3,5.7,4.3,10.4V926.7z"/>
		<path class="st6" d="M639.5,918.7c0,2.6-0.8,4.7-2.5,6.4c-1.7,1.7-3.7,2.6-6.1,2.6c-2.4,0-4.4-0.9-6.1-2.6s-2.5-3.9-2.5-6.5
			c0-2.6,0.8-4.7,2.5-6.5c1.7-1.8,3.7-2.6,6.1-2.6c0.9,0,1.5,0,1.7,0.1v-10.3c0-1.3-2.5-2.5-7.4-3.8c-4.9-1.2-9.4-2.2-13.4-2.9
			c0.1-4.4,1.2-7.9,3.2-10.6c2-2.7,4.9-4,8.7-4c1.6,0,3.7,0.4,6.4,1.1c2.7,0.8,4.7,1.1,5.9,1.1c1.3,0,2-0.9,2.1-2.6l5.5,1.6
			c-1.3,4.9-3.8,7.3-7.4,7.3c-1.3,0-3.3-0.3-5.7-1c-2.5-0.7-4.4-1-5.6-1c-3.3,0-5.1,1.3-5.6,4c5.7,1.3,10.5,2.6,14.4,4.1
			c3.9,1.4,5.9,3.9,5.9,7.4V918.7z M634.7,918.6c0-1.1-0.4-2.1-1.1-2.9c-0.8-0.8-1.7-1.2-2.7-1.2c-1.1,0-2,0.4-2.7,1.2
			c-0.8,0.8-1.1,1.8-1.1,2.9c0,1.1,0.4,2.1,1.1,2.9c0.8,0.8,1.7,1.2,2.7,1.2c1.1,0,2-0.4,2.7-1.2
			C634.3,920.7,634.7,919.7,634.7,918.6z"/>
		<path class="st6" d="M668.7,918.6c0,2.6-0.8,4.7-2.5,6.5c-1.7,1.8-3.7,2.6-6,2.6c-2.5,0-4.6-0.9-6.4-2.8c-1.7-1.8-2.6-4.2-2.6-7
			v-39.1h6.9v30.8c0.4-0.2,1-0.2,2-0.2c2.3,0,4.3,0.9,6,2.6C667.8,913.9,668.7,916,668.7,918.6z M664,918.6c0-1.1-0.4-2.1-1.1-2.9
			c-0.7-0.8-1.6-1.2-2.7-1.2c-1,0-1.9,0.4-2.7,1.2c-0.7,0.8-1.1,1.8-1.1,2.9c0,1.1,0.4,2.1,1.1,2.9c0.7,0.8,1.6,1.2,2.7,1.2
			c1,0,1.9-0.4,2.7-1.2C663.6,920.7,664,919.7,664,918.6z"/>
		<path class="st6" d="M708.4,926.7h-6.9v-32.7c0-2.9-1.2-5.3-3.5-7.2c-2.2-1.7-4.6-2.5-7.5-2.5c-3.3,0-6,1.2-8,3.6s-3,5.2-3,8.4
			c0,0.9,0.2,2.3,0.5,4.4c0.3,2,0.5,3.8,0.5,5.3v3.4c0-0.1,0.1-0.9,0.4-2.6c0.3-1.6,0.4-2.9,0.5-3.8c0.7-3.4,1.9-6.2,3.5-8.4
			c1.9-2.9,4.2-4.3,6.7-4.3c2,0,3.8,0.8,5.2,2.3c1.5,1.5,2.2,3.4,2.2,5.5c0,2.1-0.7,3.9-2.2,5.5c-1.5,1.6-3.2,2.3-5.2,2.3
			c-1.9,0-3.5-0.7-5-2.2c-2.2,7.3-3.3,14.9-3.3,22.9h-6.9v-7.7c0-3.8-0.6-7.9-1.8-12.3c-1.2-4.4-1.8-7.9-1.8-10.5
			c0-5.5,1.9-10,5.6-13.4c3.5-3.3,7.8-4.9,12.9-4.9c4.7,0,8.6,1.3,11.8,4c3.6,3,5.5,7.2,5.5,12.4V926.7z M694.9,898.2
			c0-1-0.3-1.9-1-2.6c-0.7-0.7-1.5-1.1-2.5-1.1c-1,0-1.8,0.4-2.4,1.1c-0.6,0.7-0.9,1.6-0.9,2.6c0,1,0.3,1.9,0.9,2.6
			c0.6,0.7,1.4,1,2.4,1c1,0,1.8-0.3,2.5-1C694.6,900.1,694.9,899.2,694.9,898.2z"/>
		<path class="st6" d="M754.9,926.7H748c-4.3-4.2-8.7-7.1-13.1-8.8v0.6c0,2.6-0.9,4.7-2.7,6.5c-1.8,1.8-3.9,2.6-6.2,2.6
			c-2.5,0-4.6-1-6.4-2.9c-1.8-1.9-2.7-4.2-2.7-6.8c0-2.6,0.9-4.9,2.7-6.8c1.8-1.9,3.9-2.8,6.4-2.8h0.8v-12.5
			c-0.7,0.2-1.4,0.2-1.9,0.2c-2.4,0-4.4-0.9-6-2.7c-1.6-1.8-2.5-4-2.5-6.5c0-2.5,0.8-4.6,2.5-6.4c1.6-1.8,3.6-2.6,6-2.6
			c2.5,0,4.6,0.9,6.3,2.8c1.7,1.8,2.5,4.2,2.5,7v22.8c5.9,2.2,10.6,5,14.3,8.5v-40.1h6.9V926.7z M728.7,887c0-1.1-0.4-2.1-1.1-2.9
			c-0.7-0.8-1.6-1.2-2.7-1.2c-1,0-1.9,0.4-2.7,1.2c-0.7,0.8-1.1,1.8-1.1,2.9c0,1.1,0.4,2.1,1.1,2.9c0.7,0.8,1.6,1.2,2.7,1.2
			c1,0,1.9-0.4,2.7-1.2C728.3,889.1,728.7,888.1,728.7,887z M729.8,918c0-1.1-0.4-2.1-1.1-2.9c-0.7-0.8-1.6-1.2-2.7-1.2
			c-1,0-1.9,0.4-2.7,1.2c-0.7,0.8-1.1,1.8-1.1,2.9c0,1.1,0.4,2.1,1.1,2.9c0.7,0.8,1.6,1.2,2.7,1.2c1,0,1.9-0.4,2.7-1.2
			C729.4,920.1,729.8,919.1,729.8,918z"/>
		<path class="st6" d="M755.1,872.7c-9.2-3.2-17.7-4.8-25.3-4.8c-3.5,0-7,0.2-10.6,0.7c0.9-10.7,6.3-16.1,16.3-16.1
			c5.3,0,9.5,1.6,12.7,4.7V849h6.7v22.1C755,871.6,755.1,872.2,755.1,872.7z M748,865.7c-0.4-2-1.8-3.9-4-5.6
			c-2.2-1.8-4.8-2.6-7.6-2.6c-2.7,0-5,0.6-6.9,1.7c-1.9,1.2-3.2,2.7-3.7,4.6c1.3-0.3,3.2-0.5,5.9-0.5
			C737.2,863.3,742.6,864.1,748,865.7z"/>
	</g>
	<g>
		<path class="st3" d="M451.7,54.9c191,17,332.1,185.6,315.1,376.6c-17,191-185.6,332.1-376.6,315.1C199.2,729.6,58.1,561,75.1,370
			C92.1,179,260.7,37.9,451.7,54.9"/>
		<g>
			<polyline class="st7" points="389,123.4 314.8,123.4 199.9,380.7 237.4,398.5 325.7,209.9 356.9,297.2 256.6,676.8 316,676.8 
				414.1,400.3 414.1,89.7 385.5,89.7 389,123.4 			"/>
			<polyline class="st7" points="452.2,123.4 526.5,123.4 641.4,380.7 603.8,398.5 515.5,209.9 484.4,297.2 584.7,676.8 
				525.2,676.8 427.2,400.3 427.2,89.7 455.8,89.7 452.2,123.4 			"/>
			<polyline class="st8" points="494.7,242.3 494.7,193.1 440.4,193.1 440.4,242.3 494.7,242.3 			"/>
			<polyline class="st7" points="447.8,201.2 447.8,234.2 487.3,234.2 487.3,201.2 447.8,201.2 			"/>
		</g>
	</g>
</g>
</svg>
