<?xml version="1.0" encoding="utf-8"?>
<!-- Generator: Adobe Illustrator 22.0.0, SVG Export Plug-In . SVG Version: 6.00 Build 0)  -->
<svg version="1.1" id="Layer_1" xmlns="http://www.w3.org/2000/svg" xmlns:xlink="http://www.w3.org/1999/xlink" x="0px" y="0px"
	 viewBox="0 0 841.9 1190.6" style="enable-background:new 0 0 841.9 1190.6;" xml:space="preserve">
<style type="text/css">
	.st0{fill:none;}
	.st1{fill:#010101;}
	.st2{fill:#FFFFFF;}
	.st3{fill:#154989;}
	.st4{fill:#EB2627;}
	.st5{fill:#2A3B8F;}
	.st6{fill:#FFFFFF;stroke:#FFFFFF;stroke-miterlimit:10;}
	.st7{fill-rule:evenodd;clip-rule:evenodd;fill:#FFFFFF;}
	.st8{fill-rule:evenodd;clip-rule:evenodd;fill:#154989;}
	.st9{fill:#2F3690;}
</style>
<g>
	<g>
		<rect x="0" y="0" class="st0" width="841.9" height="1190.6"/>
		<rect x="28.3" y="28.3" class="st1" width="785.2" height="1133.9"/>
		<rect x="34" y="34" class="st2" width="773.9" height="1122.5"/>
		<rect x="52.5" y="792.6" class="st3" width="737" height="348.7"/>
		<g id="stecon_71_">
			<path id="red_71_" class="st4" d="M52.8,53.5c42.5,0,85,0,127.6,0c0,22.6,0,45.1,0,67.7c-42.5,0-85,0-127.5,0c0-0.2,0-0.5,0-0.7
				c0-22.1,0-44.2,0-66.3C52.9,54,52.8,53.8,52.8,53.5z M55.8,87.4c0.2,0.1,0.4,0.2,0.5,0.3c3.6,1.8,7.1,3.7,10.7,5.5
				c16.4,8.4,32.7,16.8,49.1,25.2c0.4,0.2,0.7,0.2,1.1,0c13.8-7.1,27.6-14.2,41.4-21.3c6.1-3.2,12.3-6.3,18.4-9.5
				c0.1-0.1,0.3-0.2,0.5-0.3c-0.2-0.1-0.3-0.2-0.5-0.3c-3.8-1.9-7.6-3.9-11.4-5.8c-16.2-8.3-32.4-16.7-48.5-25
				c-0.3-0.2-0.5-0.2-0.9,0c-7,3.6-14.1,7.3-21.1,10.9c-12.6,6.5-25.2,12.9-37.7,19.4C56.9,86.8,56.4,87.1,55.8,87.4z"/>
			<g id="white_71_">
				<path class="st2" d="M55.8,87.4c0.6-0.3,1.1-0.6,1.6-0.8c12.6-6.5,25.2-12.9,37.7-19.4c7-3.6,14.1-7.2,21.1-10.9
					c0.3-0.2,0.6-0.1,0.9,0c16.2,8.3,32.4,16.7,48.5,25c3.8,1.9,7.6,3.9,11.4,5.8c0.1,0.1,0.3,0.1,0.5,0.3c-0.2,0.1-0.3,0.2-0.5,0.3
					c-6.1,3.2-12.3,6.3-18.4,9.5c-13.8,7.1-27.6,14.2-41.4,21.3c-0.4,0.2-0.7,0.2-1.1,0C99.7,110,83.4,101.6,67,93.1
					c-3.6-1.8-7.1-3.7-10.7-5.5C56.2,87.6,56,87.5,55.8,87.4z M59.7,87.4c0.2,0.1,0.3,0.2,0.4,0.2c1,0.5,1.9,1,2.9,1.5
					c17.7,9.1,35.5,18.2,53.2,27.3c0.3,0.1,0.5,0.2,0.8,0c12.9-6.6,25.7-13.2,38.6-19.8c5.8-3,11.6-6,17.5-9
					c0.1-0.1,0.3-0.2,0.5-0.3c-0.2-0.1-0.4-0.2-0.6-0.3c-15.9-8.2-31.9-16.4-47.8-24.5c-2.7-1.4-5.5-2.8-8.2-4.2
					c-0.2-0.1-0.4-0.1-0.7,0c-0.3,0.2-0.7,0.4-1.1,0.6C97,68.3,78.6,77.6,60.3,87C60.1,87.1,60,87.2,59.7,87.4z"/>
				<path class="st2" d="M147.4,79.5c1.4,0,2.7,0,4.1,0c0,5.2,0,10.3,0,15.4c-1.4,0-2.8,0-4.2,0c-0.9-2.6-1.8-5.3-2.7-7.9
					c0,0-0.1,0-0.1,0c0,2.6,0,5.2,0,7.9c-1.4,0-2.7,0-4,0c0,0,0,0,0,0c0,0,0,0,0,0c0-0.1,0-0.2,0-0.3c0-4.9,0-9.9,0-14.8
					c0,0,0-0.1,0-0.2c0.1,0,0.3,0,0.4,0c1.2,0,2.3,0,3.5,0c0.4,0,0.4,0,0.5,0.4c0.8,2.5,1.6,5,2.4,7.5c0,0.1,0.1,0.2,0.2,0.4
					C147.4,85,147.4,82.3,147.4,79.5z"/>
				<path class="st2" d="M138.8,87.3c0,1.5,0,3,0,4.5c0,0.8-0.3,1.4-0.8,1.9c-0.7,0.7-1.6,1.2-2.6,1.3c-1.5,0.3-3.1,0.3-4.6-0.1
					c-0.9-0.2-1.6-0.6-2.3-1.3c-0.5-0.5-0.8-1.1-0.8-1.9c0-3,0-6.1,0-9.1c0-0.7,0.2-1.3,0.7-1.8c0.6-0.7,1.4-1.2,2.3-1.4
					c1.7-0.4,3.5-0.4,5.2,0.1c0.7,0.2,1.4,0.6,2,1.2c0.6,0.5,0.9,1.2,0.8,2C138.8,84.3,138.8,85.8,138.8,87.3z M134.2,87.3
					c0-1.5,0-2.9,0-4.4c0-0.7-0.1-0.9-0.8-0.9c-0.1,0-0.2,0-0.2,0c-0.5,0.1-0.6,0.2-0.6,0.7c0,3,0,6,0,9c0,0.5,0.1,0.7,0.6,0.7
					c0.2,0,0.3,0,0.5,0c0.5-0.1,0.6-0.2,0.6-0.7C134.2,90.3,134.2,88.8,134.2,87.3z"/>
				<path class="st2" d="M126.7,88.9c0,0.2,0,0.3,0,0.5c0,0.8,0,1.6,0,2.4c0,0.8-0.3,1.5-0.9,2c-0.7,0.7-1.5,1.1-2.5,1.3
					c-1.5,0.3-3,0.3-4.5-0.1c-0.8-0.2-1.5-0.6-2.2-1.2c-0.6-0.6-0.9-1.2-0.9-2.1c0-3,0-5.9,0-8.9c0-0.9,0.3-1.6,0.9-2.1
					c0.7-0.7,1.6-1.1,2.5-1.2c1.4-0.2,2.9-0.2,4.3,0.1c0.9,0.2,1.6,0.6,2.3,1.2c0.6,0.6,0.9,1.2,0.9,2.1c0,0.8,0,1.7,0,2.5
					c0,0.2,0,0.3,0,0.5c-1.6,0-3.1,0-4.6,0c0-0.2,0-0.3,0-0.5c0-0.9,0-1.7,0-2.6c0-0.5-0.1-0.6-0.6-0.7c-0.1,0-0.2,0-0.3,0
					c-0.7,0.1-0.7,0.3-0.7,0.8c0,2.9,0,5.9,0,8.8c0,0.1,0,0.2,0,0.3c0,0.2,0.1,0.4,0.3,0.4c0.1,0,0.3,0.1,0.4,0.1
					c0.6,0.1,0.8-0.2,0.8-0.8c0-0.8,0-1.5,0-2.3c0-0.2,0-0.3,0-0.5C122.4,88.8,126,88.8,126.7,88.9z"/>
				<path class="st2" d="M105.5,94.9c0-5.1,0-10.2,0-15.3c0.4-0.1,8.7-0.1,9.1,0c0,0.8,0,1.6,0,2.5c-0.1,0-0.3,0-0.4,0
					c-1.1,0-2.2,0-3.3,0c-0.1,0-0.3,0-0.5,0c0,1.4,0,2.7,0,4.1c1,0,2.1,0,3.1,0c0,0.8,0,1.5,0,2.2c-0.4,0.1-0.7,0.1-1,0.1
					c-0.3,0-0.7,0-1,0c-0.3,0-0.7,0-1,0c-0.1,0.3-0.1,2.8,0,3.7c0.1,0,0.3,0,0.5,0c1.1,0,2.2,0,3.3,0c0.2,0,0.3,0,0.5,0
					c0,0.9,0,1.8,0,2.6C114.3,95,106,95,105.5,94.9z"/>
				<path class="st2" d="M101.1,94.9c-1.6,0-3.1,0-4.7,0c0-4.3,0-8.5,0-12.8c-1,0-2,0-3,0c-0.1-0.4-0.1-2.1,0-2.6
					c0.3-0.1,10.4-0.1,10.8,0c0.1,0.3,0.1,2.1,0,2.6c-1,0-2,0-3,0C101.1,86.4,101.1,90.6,101.1,94.9z"/>
				<path class="st2" d="M92.1,84.9c-1.6,0-3.1,0-4.6,0c0-0.2,0-0.3,0-0.5c0-0.6,0-1.2,0-1.8c0-0.4-0.1-0.6-0.5-0.6
					c-0.1,0-0.2,0-0.4,0c-0.3,0-0.5,0.2-0.5,0.5c0,0.6,0,1.1,0,1.7c0,0.4,0.2,0.6,0.5,0.8c0.4,0.2,0.7,0.4,1.1,0.7
					c1,0.6,2,1.1,2.9,1.7c0.1,0.1,0.3,0.2,0.4,0.3c0.7,0.5,1.1,1.2,1.1,2.1c0,0.7,0,1.3,0,2c0,0.7-0.2,1.3-0.7,1.7
					c-0.7,0.7-1.5,1.2-2.4,1.4c-1.5,0.4-3.1,0.4-4.7,0c-0.8-0.2-1.6-0.6-2.2-1.2c-0.6-0.5-0.9-1.2-0.9-2.1c0-0.8,0-1.5,0-2.3
					c0.3-0.1,3.9-0.1,4.5,0c0,0.1,0,0.3,0,0.4c0,0.7,0,1.3,0,2c0,0.4,0.1,0.6,0.5,0.6c0.2,0,0.5,0,0.7-0.1c0.2,0,0.3-0.2,0.3-0.4
					c0-0.6,0-1.2,0-1.8c0-0.3-0.2-0.6-0.4-0.7c-0.4-0.3-0.8-0.5-1.2-0.8c-1-0.6-2-1.2-2.9-1.8c-0.3-0.2-0.6-0.4-0.9-0.7
					c-0.4-0.4-0.6-0.9-0.6-1.5c0-0.7,0-1.3,0-2c0-0.8,0.3-1.4,0.8-1.9c0.7-0.7,1.6-1.2,2.6-1.4c1.4-0.3,2.8-0.3,4.2,0.1
					c0.9,0.2,1.7,0.7,2.3,1.3c0.5,0.5,0.8,1.1,0.8,1.9C92.1,83.5,92.1,84.2,92.1,84.9z"/>
			</g>
			<g id="blue_71_">
				<path class="st5" d="M59.7,87.4c0.3-0.1,0.5-0.2,0.7-0.3c18.3-9.4,36.6-18.8,54.9-28.1c0.4-0.2,0.7-0.4,1.1-0.6
					c0.2-0.1,0.4-0.1,0.7,0c2.7,1.4,5.4,2.8,8.2,4.2c15.9,8.2,31.9,16.4,47.8,24.5c0.2,0.1,0.3,0.2,0.6,0.3
					c-0.2,0.1-0.3,0.2-0.5,0.3c-5.8,3-11.6,6-17.5,9c-12.9,6.6-25.7,13.2-38.6,19.8c-0.3,0.1-0.5,0.1-0.8,0
					C98.5,107.3,80.8,98.2,63,89.1c-1-0.5-1.9-1-2.9-1.5C60,87.5,59.9,87.5,59.7,87.4z M147.4,79.5c0,2.8,0,5.5,0,8.3
					c-0.1-0.1-0.1-0.2-0.2-0.4c-0.8-2.5-1.6-5-2.4-7.5c-0.1-0.4-0.1-0.4-0.5-0.4c-1.2,0-2.3,0-3.5,0c-0.1,0-0.3,0-0.4,0
					c0,0.1,0,0.1,0,0.2c0,4.9,0,9.9,0,14.8c0,0.1,0,0.2,0,0.3c0,0,0,0,0,0c0,0,0,0,0,0c1.3,0,2.7,0,4,0c0-2.7,0-5.3,0-7.9
					c0,0,0.1,0,0.1,0c0.9,2.6,1.8,5.3,2.7,7.9c1.4,0,2.8,0,4.2,0c0-5.1,0-10.2,0-15.4C150.2,79.5,148.8,79.5,147.4,79.5z
					 M138.8,87.3c0-1.5,0-3,0-4.5c0-0.8-0.3-1.5-0.8-2c-0.6-0.6-1.2-1-2-1.2c-1.7-0.5-3.5-0.5-5.2-0.1c-0.9,0.2-1.7,0.7-2.3,1.4
					c-0.4,0.5-0.7,1.1-0.7,1.8c0,3,0,6.1,0,9.1c0,0.8,0.3,1.4,0.8,1.9c0.6,0.7,1.4,1.1,2.3,1.3c1.5,0.3,3.1,0.3,4.6,0.1
					c1-0.2,1.8-0.6,2.6-1.3c0.5-0.5,0.8-1.2,0.8-1.9C138.8,90.3,138.8,88.8,138.8,87.3z M126.7,88.9c-0.6-0.1-4.3-0.1-4.7,0
					c0,0.1,0,0.3,0,0.5c0,0.8,0,1.5,0,2.3c0,0.7-0.2,0.9-0.8,0.8c-0.1,0-0.3,0-0.4-0.1c-0.2-0.1-0.3-0.2-0.3-0.4c0-0.1,0-0.2,0-0.3
					c0-2.9,0-5.9,0-8.8c0-0.5,0-0.7,0.7-0.8c0.1,0,0.2,0,0.3,0c0.5,0.1,0.6,0.2,0.6,0.7c0,0.9,0,1.7,0,2.6c0,0.2,0,0.3,0,0.5
					c1.6,0,3.1,0,4.6,0c0-0.2,0-0.4,0-0.5c0-0.8,0-1.7,0-2.5c0-0.9-0.3-1.5-0.9-2.1c-0.7-0.6-1.4-1-2.3-1.2
					c-1.4-0.3-2.9-0.3-4.3-0.1c-0.9,0.2-1.8,0.6-2.5,1.2c-0.6,0.6-0.9,1.3-0.9,2.1c0,3,0,5.9,0,8.9c0,0.9,0.3,1.6,0.9,2.1
					c0.6,0.6,1.4,1,2.2,1.2c1.5,0.3,3,0.3,4.5,0.1c0.9-0.2,1.8-0.6,2.5-1.3c0.6-0.5,0.9-1.2,0.9-2c0-0.8,0-1.6,0-2.4
					C126.7,89.2,126.7,89.1,126.7,88.9z M92.1,84.9c0-0.7,0-1.4,0-2.1c0-0.8-0.3-1.4-0.8-1.9c-0.7-0.7-1.4-1.1-2.3-1.3
					c-1.4-0.3-2.8-0.3-4.2-0.1c-1,0.2-1.9,0.6-2.6,1.4c-0.5,0.5-0.8,1.1-0.8,1.9c0,0.7,0,1.3,0,2c0,0.6,0.2,1.1,0.6,1.5
					c0.3,0.2,0.6,0.5,0.9,0.7c1,0.6,2,1.2,2.9,1.8c0.4,0.2,0.8,0.5,1.2,0.8c0.2,0.2,0.4,0.4,0.4,0.7c0,0.6,0,1.2,0,1.8
					c0,0.2-0.1,0.4-0.3,0.4c-0.2,0-0.5,0.1-0.7,0.1c-0.4,0-0.5-0.2-0.5-0.6c0-0.7,0-1.3,0-2c0-0.1,0-0.3,0-0.4
					c-0.6-0.1-4.2-0.1-4.5,0c0,0.7,0,1.5,0,2.3c0,0.9,0.3,1.5,0.9,2.1c0.6,0.6,1.4,1,2.2,1.2c1.6,0.4,3.1,0.3,4.7,0
					c0.9-0.2,1.7-0.7,2.4-1.4c0.4-0.5,0.7-1.1,0.7-1.7c0-0.7,0-1.3,0-2c0-0.9-0.4-1.6-1.1-2.1c-0.1-0.1-0.3-0.2-0.4-0.3
					c-1-0.6-2-1.1-2.9-1.7c-0.4-0.2-0.7-0.4-1.1-0.7c-0.3-0.2-0.5-0.4-0.5-0.8c0-0.6,0-1.1,0-1.7c0-0.3,0.2-0.5,0.5-0.5
					c0.1,0,0.2,0,0.4,0c0.4,0,0.5,0.2,0.5,0.6c0,0.6,0,1.2,0,1.8c0,0.1,0,0.3,0,0.5C89.1,84.9,90.6,84.9,92.1,84.9z M105.5,94.9
					c0.5,0.1,8.8,0.1,9.1,0c0-0.9,0-1.7,0-2.6c-0.2,0-0.3,0-0.5,0c-1.1,0-2.2,0-3.3,0c-0.2,0-0.3,0-0.5,0c-0.1-0.8,0-3.3,0-3.7
					c0.3,0,0.7,0,1,0c0.3,0,0.7,0,1,0c0.3,0,0.7,0.1,1-0.1c0-0.7,0-1.5,0-2.2c-1.1,0-2.1,0-3.1,0c0-1.4,0-2.7,0-4.1
					c0.2,0,0.3,0,0.5,0c1.1,0,2.2,0,3.3,0c0.1,0,0.3,0,0.4,0c0-0.9,0-1.7,0-2.5c-0.4-0.1-8.7-0.1-9.1,0
					C105.5,84.7,105.5,89.8,105.5,94.9z M101.1,94.9c0-4.3,0-8.5,0-12.8c1,0,2,0,3,0c0.1-0.5,0.1-2.2,0-2.6
					c-0.4-0.1-10.5-0.1-10.8,0c-0.1,0.4-0.1,2.2,0,2.6c1,0,2,0,3,0c0,4.3,0,8.5,0,12.8C97.9,94.9,99.5,94.9,101.1,94.9z"/>
				<path class="st5" d="M134.2,87.3c0,1.5,0,3,0,4.5c0,0.5-0.1,0.6-0.6,0.7c-0.2,0-0.3,0-0.5,0c-0.5-0.1-0.6-0.2-0.6-0.7
					c0-3,0-6,0-9c0-0.5,0.1-0.6,0.6-0.7c0.1,0,0.2,0,0.2,0c0.7,0,0.8,0.1,0.8,0.9C134.2,84.4,134.2,85.9,134.2,87.3z"/>
			</g>
		</g>
	</g>
	<g>
		<path class="st6" d="M81.3,1051.3l-8.2-53.7h7.1l5.2,36.9l6.3-36.9h8.3l6.1,37.5l5.3-37.5h7l-8.4,53.7h-7.4l-6.9-40.1l-6.9,40.1
			H81.3z"/>
		<path class="st6" d="M122,1051.3v-53.7h25.6v9.1H129v11.9h17.3v9H129v14.6h19.3v9H122z"/>
		<path class="st6" d="M185.3,1051.3h-7.6l-3-12.2h-13.8l-2.9,12.2h-7.4l13.5-53.7h7.4L185.3,1051.3z M172.5,1030l-4.8-19.9
			l-4.7,19.9H172.5z"/>
		<path class="st6" d="M189,1051.3v-53.7h14.7c3.7,0,6.4,0.5,8,1.4c1.7,1,3,2.7,4,5.1c1,2.5,1.5,5.3,1.5,8.5c0,4-0.8,7.4-2.3,10
			c-1.5,2.6-3.8,4.3-6.8,5c1.5,1.4,2.8,2.9,3.7,4.5c1,1.6,2.3,4.5,4,8.7l4.2,10.5h-8.3l-5-11.7c-1.8-4.2-3-6.8-3.7-7.9
			c-0.7-1.1-1.4-1.8-2.1-2.2c-0.7-0.4-1.9-0.6-3.5-0.6H196v22.4H189z M196,1020.3h5.2c3.3,0,5.4-0.2,6.3-0.7c0.8-0.4,1.5-1.2,2-2.3
			c0.5-1.1,0.7-2.4,0.7-4c0-1.8-0.3-3.3-0.9-4.4c-0.6-1.1-1.5-1.8-2.6-2.1c-0.6-0.1-2.3-0.2-5.1-0.2H196V1020.3z"/>
		<path class="st6" d="M259.5,1051.3l-12.3-53.7h7.6l8.7,39.7l8.5-39.7h7.4l-12.4,53.7H259.5z"/>
		<path class="st6" d="M282.7,1051.3v-53.7h7v53.7H282.7z"/>
		<path class="st6" d="M294.5,1033.8l6.8-1c0.4,3.5,1.2,6.1,2.5,7.8s2.9,2.5,5.1,2.5c2.2,0,3.9-0.7,5.1-2.2c1.1-1.5,1.7-3.2,1.7-5.2
			c0-1.3-0.2-2.3-0.7-3.2c-0.5-0.9-1.3-1.7-2.5-2.3c-0.8-0.4-2.7-1.2-5.6-2.3c-3.7-1.4-6.4-3.2-7.9-5.3c-2.1-3-3.2-6.6-3.2-10.8
			c0-2.7,0.5-5.3,1.5-7.7c1-2.4,2.4-4.2,4.3-5.4c1.9-1.2,4.1-1.9,6.8-1.9c4.3,0,7.6,1.5,9.8,4.4s3.3,6.9,3.5,11.8l-7,0.5
			c-0.3-2.8-0.9-4.7-1.9-6c-1-1.2-2.5-1.8-4.4-1.8c-2,0-3.6,0.6-4.8,1.9c-0.7,0.8-1.1,1.9-1.1,3.3c0,1.3,0.3,2.4,1,3.3
			c0.9,1.1,3,2.3,6.4,3.6c3.4,1.2,5.9,2.5,7.5,3.9s2.9,3.1,3.8,5.5c0.9,2.3,1.4,5.2,1.4,8.6c0,3.1-0.6,6-1.6,8.6
			c-1.1,2.7-2.7,4.7-4.7,6c-2,1.3-4.5,2-7.5,2c-4.4,0-7.7-1.6-10.1-4.7C296.4,1044.4,295,1039.8,294.5,1033.8z"/>
		<path class="st6" d="M328.3,1051.3v-53.7h7v53.7H328.3z"/>
		<path class="st6" d="M341.9,997.6h13.8c2.7,0,4.8,0.2,6.1,0.5s2.5,1.1,3.6,2.2c1.1,1.1,1.9,2.6,2.7,4.5c0.7,1.9,1.1,4,1.1,6.3
			c0,2.5-0.4,4.8-1.3,6.9c-0.9,2.1-2.1,3.7-3.5,4.7c2.1,1,3.7,2.6,4.9,4.9c1.1,2.3,1.7,5,1.7,8.1c0,2.4-0.4,4.8-1.1,7.1
			c-0.7,2.3-1.7,4.2-3,5.5c-1.3,1.4-2.8,2.2-4.7,2.5c-1.2,0.2-4,0.3-8.4,0.4h-11.8V997.6z M348.9,1006.5v12.4h4.6
			c2.7,0,4.4-0.1,5.1-0.2c1.2-0.2,2.1-0.9,2.8-1.9c0.7-1.1,1-2.5,1-4.2c0-1.7-0.3-3-0.9-4s-1.5-1.7-2.6-1.9c-0.7-0.1-2.7-0.2-6-0.2
			H348.9z M348.9,1027.9v14.4h6.5c2.5,0,4.1-0.1,4.8-0.3c1-0.3,1.9-1,2.5-2.1c0.7-1.1,1-2.7,1-4.6c0-1.6-0.3-3-0.8-4.1
			c-0.5-1.1-1.2-1.9-2.2-2.5c-1-0.5-3-0.8-6.2-0.8H348.9z"/>
		<path class="st6" d="M376.5,1051.3v-53.7h7v53.7H376.5z"/>
		<path class="st6" d="M390.4,1051.3V998h7v44.2h17.3v9H390.4z"/>
		<path class="st6" d="M419.4,1051.3v-53.7h7v53.7H419.4z"/>
		<path class="st6" d="M440.8,1051.3v-44.6h-10.3v-9.1H458v9.1h-10.2v44.6H440.8z"/>
		<path class="st6" d="M471.6,1051.3v-22.6L459,997.6h8.2l8.1,21.2l8-21.2h8l-12.7,31.2v22.5H471.6z"/>
		<path class="st6" d="M542.8,1031.5l6.8,3.3c-1,5.9-2.8,10.2-5.2,13.1c-2.4,2.8-5.5,4.3-9.2,4.3c-4.6,0-8.4-2.4-11.3-7.3
			c-3-4.9-4.4-11.5-4.4-20c0-8.9,1.5-15.9,4.5-20.8c3-4.9,6.9-7.4,11.7-7.4c4.2,0,7.7,1.9,10.3,5.8c1.6,2.3,2.7,5.6,3.5,9.9
			l-6.9,2.6c-0.4-2.8-1.3-5-2.6-6.6s-2.9-2.4-4.7-2.4c-2.6,0-4.6,1.4-6.2,4.3c-1.6,2.9-2.4,7.5-2.4,13.9c0,6.8,0.8,11.6,2.4,14.5
			c1.6,2.9,3.6,4.3,6.1,4.3c1.9,0,3.4-0.9,4.8-2.7C541.2,1038.3,542.2,1035.5,542.8,1031.5z"/>
		<path class="st6" d="M555.7,1051.3V998h7v44.2H580v9H555.7z"/>
		<path class="st6" d="M583.6,1024.8c0-5.5,0.5-10.1,1.6-13.8c0.8-2.7,1.9-5.2,3.2-7.4c1.4-2.2,2.8-3.8,4.5-4.8
			c2.2-1.4,4.6-2.1,7.4-2.1c5.1,0,9.2,2.5,12.2,7.4c3.1,4.9,4.6,11.7,4.6,20.5c0,8.7-1.5,15.4-4.5,20.3c-3,4.9-7.1,7.3-12.2,7.3
			c-5.1,0-9.2-2.4-12.3-7.3C585.1,1040,583.6,1033.3,583.6,1024.8z M590.8,1024.4c0,6.1,0.9,10.7,2.7,13.8c1.8,3.1,4.1,4.7,6.9,4.7
			s5.1-1.6,6.8-4.7c1.8-3.1,2.7-7.8,2.7-14c0-6.2-0.9-10.7-2.6-13.8c-1.7-3-4-4.5-6.9-4.5s-5.2,1.5-7,4.6
			C591.7,1013.6,590.8,1018.2,590.8,1024.4z"/>
		<path class="st6" d="M630.3,1051.3v-44.6h-10.3v-9.1h27.5v9.1h-10.2v44.6H630.3z"/>
		<path class="st6" d="M652.1,1051.3v-53.7h7v21.1h13.7v-21.1h7v53.7h-7v-23.5H659v23.5H652.1z"/>
		<path class="st6" d="M686.7,1051.3v-53.7h7v53.7H686.7z"/>
		<path class="st6" d="M700.4,1051.3v-53.7h6.8l14.1,35.9v-35.9h6.5v53.7h-7l-13.9-35v35H700.4z"/>
		<path class="st6" d="M751.2,1031.5v-9h15v21.4c-1.5,2.2-3.6,4.1-6.4,5.8c-2.8,1.7-5.6,2.5-8.4,2.5c-3.6,0-6.8-1.2-9.5-3.5
			s-4.7-5.7-6.1-10.1c-1.4-4.4-2-9.1-2-14.3c0-5.6,0.8-10.6,2.3-14.9c1.5-4.3,3.7-7.7,6.6-10c2.2-1.8,5-2.7,8.3-2.7
			c4.3,0,7.6,1.4,10.1,4.2c2.4,2.8,4,6.7,4.7,11.6l-6.9,2c-0.5-2.6-1.4-4.7-2.7-6.2s-3-2.3-5-2.3c-3,0-5.5,1.5-7.3,4.5
			c-1.8,3-2.7,7.5-2.7,13.4c0,6.4,0.9,11.2,2.7,14.3c1.8,3.2,4.2,4.8,7.2,4.8c1.5,0,2.9-0.4,4.4-1.3c1.5-0.9,2.7-2,3.8-3.2v-6.8
			H751.2z"/>
	</g>
	<g>
		<path class="st6" d="M142.1,934.1h-7.5v-22.5c0-2.6-1.4-4.6-4.1-6c-2.1-1-4.4-1.6-7-1.6c-2.5,0-4.6,0.7-6.4,2
			c-2.2,1.6-3.3,3.6-3.3,6.2v3.3c1.1-0.2,1.9-0.3,2.2-0.3c2.6,0,4.8,1,6.6,2.9c1.9,2,2.8,4.3,2.8,7c0,2.8-1,5.1-2.9,7
			c-1.9,1.9-4.2,2.9-6.6,2.9c-2.7,0-4.9-0.9-6.8-2.8c-1.9-1.9-2.8-4.2-2.8-7.1v-12c0-5.1,1.8-9.1,5.3-12c3.1-2.5,7-3.8,11.7-3.8
			c5,0,8.7,1.5,11.2,4.4v-5.8c0-2.7-1.5-4.7-4.4-6.2c-2.3-1.1-4.8-1.7-7.6-1.7c-3.1,0-5.8,0.8-8.1,2.3c-2.5,1.7-4,4-4.5,6.9h-7.3
			c0.5-5.3,2.6-9.4,6.4-12.2c3.5-2.7,8.1-4,13.7-4c3.6,0,6.9,0.7,9.8,2.1c1.7-1.6,2.5-3.7,2.5-6.2h8.5c-1,4.4-2.7,7.8-5.2,10.3
			c2.4,2.8,3.6,6,3.6,9.6V934.1z M120.2,925.1c0-1.2-0.4-2.3-1.2-3.1c-0.8-0.9-1.8-1.3-2.9-1.3c-1.1,0-2.1,0.4-2.9,1.3
			c-0.8,0.9-1.2,1.9-1.2,3.1c0,1.2,0.4,2.3,1.2,3.1c0.8,0.9,1.8,1.3,2.9,1.3c1.1,0,2.1-0.4,2.9-1.3
			C119.7,927.4,120.2,926.4,120.2,925.1z"/>
		<path class="st6" d="M187.9,924.6c0,3-0.9,5.5-2.8,7.5c-1.9,1.9-4.2,2.9-6.9,2.9c-2.6,0-4.8-1-6.5-2.9c-1.8-1.9-2.7-4.2-2.7-6.9
			c0-2.8,0.9-5.1,2.7-7.1c1.8-1.9,3.9-2.9,6.5-2.9c0.9,0,1.6,0,2.2,0.1v-18.9c0-5.5-3.7-8.2-11.1-8.2c-3.1,0-5.7,1-7.8,3
			c-2.1,2-3.2,4.7-3.2,8h-7.3c0.2-5.7,2-10.2,5.3-13.3c3.3-3.2,7.6-4.7,13-4.7c5.3,0,9.6,1.1,12.8,3.4c3.9,2.7,5.8,6.8,5.8,12.4
			V924.6z M182.4,925.1c0-1.2-0.4-2.3-1.2-3.1c-0.8-0.9-1.8-1.3-2.9-1.3c-1.1,0-2.1,0.4-2.9,1.3c-0.8,0.9-1.2,1.9-1.2,3.1
			c0,1.2,0.4,2.3,1.2,3.1c0.8,0.9,1.8,1.3,2.9,1.3c1.1,0,2.1-0.4,2.9-1.3C182,927.4,182.4,926.4,182.4,925.1z"/>
		<path class="st6" d="M238.3,934.1h-7.5c-4.7-4.5-9.4-7.7-14.1-9.5v0.7c0,2.8-1,5.1-3,7c-2,1.9-4.2,2.9-6.7,2.9c-2.7,0-5-1-6.9-3.1
			s-2.9-4.5-2.9-7.4c0-2.9,1-5.3,2.9-7.3c1.9-2,4.2-3.1,6.9-3.1h0.8v-13.5c-0.8,0.2-1.5,0.3-2.1,0.3c-2.6,0-4.8-1-6.5-2.9
			c-1.8-2-2.7-4.3-2.7-7.1c0-2.7,0.9-5,2.7-6.9c1.8-1.9,3.9-2.9,6.5-2.9c2.7,0,5,1,6.8,3c1.8,2,2.7,4.5,2.7,7.5v24.7
			c6.4,2.3,11.5,5.4,15.5,9.2v-43.4h7.5V934.1z M209.9,891.1c0-1.2-0.4-2.3-1.2-3.1c-0.8-0.9-1.8-1.3-2.9-1.3
			c-1.1,0-2.1,0.4-2.9,1.3c-0.8,0.9-1.2,1.9-1.2,3.1c0,1.2,0.4,2.3,1.2,3.1c0.8,0.9,1.8,1.3,2.9,1.3c1.1,0,2.1-0.4,2.9-1.3
			C209.5,893.3,209.9,892.3,209.9,891.1z M211.1,924.6c0-1.2-0.4-2.3-1.2-3.1c-0.8-0.9-1.8-1.3-2.9-1.3c-1.1,0-2.1,0.4-2.9,1.3
			c-0.8,0.9-1.2,1.9-1.2,3.1c0,1.2,0.4,2.3,1.2,3.1c0.8,0.9,1.8,1.3,2.9,1.3c1.1,0,2.1-0.4,2.9-1.3
			C210.7,926.9,211.1,925.8,211.1,924.6z"/>
		<path class="st6" d="M269.2,925.3c0,2.8-0.9,5.1-2.7,7c-1.8,1.9-4,2.9-6.5,2.9c-2.7,0-5-1-6.9-3c-1.9-2-2.8-4.5-2.8-7.5v-42.4h7.5
			v33.4c0.4-0.2,1.1-0.3,2.2-0.3c2.5,0,4.7,1,6.5,2.9C268.2,920.2,269.2,922.5,269.2,925.3z M264.1,925.3c0-1.2-0.4-2.3-1.2-3.1
			c-0.8-0.9-1.8-1.3-2.9-1.3c-1.1,0-2.1,0.4-2.9,1.3c-0.8,0.9-1.2,1.9-1.2,3.1c0,1.2,0.4,2.3,1.2,3.1c0.8,0.9,1.8,1.3,2.9,1.3
			c1.1,0,2.1-0.4,2.9-1.3C263.7,927.5,264.1,926.5,264.1,925.3z"/>
		<path class="st6" d="M311.7,934.1h-7.5v-22.5c0-2.6-1.4-4.6-4.1-6c-2.1-1-4.4-1.6-7-1.6c-2.5,0-4.6,0.7-6.4,2
			c-2.2,1.6-3.3,3.6-3.3,6.2v3.3c1.1-0.2,1.9-0.3,2.2-0.3c2.6,0,4.8,1,6.6,2.9c1.9,2,2.8,4.3,2.8,7c0,2.8-1,5.1-2.9,7
			c-1.9,1.9-4.2,2.9-6.6,2.9c-2.7,0-4.9-0.9-6.8-2.8c-1.9-1.9-2.8-4.2-2.8-7.1v-12c0-5.1,1.8-9.1,5.3-12c3.1-2.5,7-3.8,11.7-3.8
			c5,0,8.7,1.5,11.2,4.4v-5.8c0-2.7-1.5-4.7-4.4-6.2c-2.3-1.1-4.8-1.7-7.6-1.7c-3.1,0-5.8,0.8-8.1,2.3c-2.5,1.7-4,4-4.5,6.9h-7.3
			c0.5-5.3,2.6-9.4,6.4-12.2c3.5-2.7,8.1-4,13.7-4c3.6,0,6.9,0.7,9.8,2.1c1.7-1.6,2.5-3.7,2.5-6.2h8.5c-1,4.4-2.7,7.8-5.2,10.3
			c2.4,2.8,3.6,6,3.6,9.6V934.1z M289.7,925.1c0-1.2-0.4-2.3-1.2-3.1c-0.8-0.9-1.8-1.3-2.9-1.3c-1.1,0-2.1,0.4-2.9,1.3
			c-0.8,0.9-1.2,1.9-1.2,3.1c0,1.2,0.4,2.3,1.2,3.1c0.8,0.9,1.8,1.3,2.9,1.3c1.1,0,2.1-0.4,2.9-1.3
			C289.3,927.4,289.7,926.4,289.7,925.1z"/>
		<path class="st6" d="M311.9,875.6c-10-3.5-19.1-5.2-27.4-5.2c-3.8,0-7.6,0.3-11.5,0.8c1-11.6,6.8-17.4,17.6-17.4
			c1.2,0,2.3,0.1,3.4,0.3v-4.2h5.4v5.5c1.8,0.8,3.4,2,5,3.5v-9h7.3v23.9L311.9,875.6z M304.2,867.9c-0.5-2.2-1.9-4.2-4.4-6.1
			c-2.4-1.9-5.2-2.9-8.2-2.9c-2.9,0-5.4,0.6-7.5,1.9c-2.1,1.3-3.4,2.9-4,5c1.4-0.3,3.5-0.5,6.4-0.5
			C292.5,865.3,298.4,866.2,304.2,867.9z"/>
		<path class="st6" d="M320.5,825.6c-1.5,8.2-4.1,13.9-8,17.1c-3.9,3.2-9.6,4.7-17.1,4.7H292v-4.3c3.2-0.3,5.2-1.5,5.9-3.8
			c-4.1-1.1-6.2-3.7-6.2-7.7c0-2.1,0.7-3.8,2.1-5.2c1.4-1.4,3-2.1,5-2.1c2.2,0,3.9,0.7,5.1,2.1c1.3,1.4,1.9,3.3,1.9,5.5
			c0,3.4-1.8,7-5.3,10.8c3.9-0.9,7.2-2.9,9.7-6c2.5-3.2,3.9-6.9,4.1-11.2H320.5z M301.8,831.9c0-1-0.3-1.8-0.9-2.4s-1.3-1-2.2-1
			c-0.9,0-1.6,0.3-2.2,1c-0.6,0.7-0.9,1.5-0.9,2.4c0,1,0.3,1.8,0.9,2.4c0.6,0.7,1.3,1,2.2,1c0.9,0,1.6-0.3,2.2-1
			C301.5,833.7,301.8,832.9,301.8,831.9z"/>
		<path class="st6" d="M359.3,922.4c0,4.5-1.9,7.8-5.7,10c-3.1,1.8-7,2.7-11.8,2.7c-4.8,0-8.7-0.9-11.7-2.7c-3.6-2.2-5.4-5.5-5.4-10
			v-13.2c0-3.1,0.8-5.8,2.4-7.9c1.6-2.1,3.9-3.2,6.9-3.2c2.6,0,4.8,0.9,6.5,2.8c1.8,1.9,2.7,4.2,2.7,7c0,2.7-0.9,5-2.7,6.9
			c-1.8,1.9-3.9,2.9-6.5,2.9c-0.7,0-1.3-0.1-1.8-0.3v4c0,4.5,3.3,6.7,9.8,6.7c6.6,0,9.9-2.3,9.9-6.8v-24.8c0-2.8-1.3-5-3.7-6.5
			c-2.1-1.2-4.7-1.8-7.7-1.8c-7.7,0-11.8,2.1-12.4,6.2h-7.3c1-8.8,7.4-13.2,19.1-13.3c5.4,0,9.8,1.1,13.3,3.3
			c4.2,2.8,6.3,6.9,6.3,12.5V922.4z M338,907.9c0-1.2-0.4-2.2-1.2-3.1c-0.8-0.9-1.8-1.3-2.9-1.3c-1.1,0-2.1,0.4-2.9,1.3
			c-0.8,0.9-1.2,1.9-1.2,3.1c0,1.2,0.4,2.2,1.2,3.1c0.8,0.9,1.8,1.3,2.9,1.3c1.1,0,2.1-0.4,2.9-1.3C337.6,910.1,338,909.1,338,907.9
			z"/>
		<path class="st6" d="M407.5,934.1H400v-22.5c0-2.6-1.4-4.6-4.1-6c-2.1-1-4.4-1.6-7-1.6c-2.5,0-4.6,0.7-6.4,2
			c-2.2,1.6-3.3,3.6-3.3,6.2v3.3c1.1-0.2,1.9-0.3,2.2-0.3c2.6,0,4.8,1,6.6,2.9c1.9,2,2.8,4.3,2.8,7c0,2.8-1,5.1-2.9,7
			c-1.9,1.9-4.2,2.9-6.6,2.9c-2.7,0-4.9-0.9-6.8-2.8c-1.9-1.9-2.8-4.2-2.8-7.1v-12c0-5.1,1.8-9.1,5.3-12c3.1-2.5,7-3.8,11.7-3.8
			c5,0,8.7,1.5,11.2,4.4v-5.8c0-2.7-1.5-4.7-4.4-6.2c-2.3-1.1-4.8-1.7-7.6-1.7c-3.1,0-5.8,0.8-8.1,2.3c-2.5,1.7-4,4-4.5,6.9h-7.3
			c0.5-5.3,2.6-9.4,6.4-12.2c3.5-2.7,8.1-4,13.7-4c3.6,0,6.9,0.7,9.8,2.1c1.7-1.6,2.5-3.7,2.5-6.2h8.5c-1,4.4-2.7,7.8-5.2,10.3
			c2.4,2.8,3.6,6,3.6,9.6V934.1z M385.5,925.1c0-1.2-0.4-2.3-1.2-3.1c-0.8-0.9-1.8-1.3-2.9-1.3c-1.1,0-2.1,0.4-2.9,1.3
			c-0.8,0.9-1.2,1.9-1.2,3.1c0,1.2,0.4,2.3,1.2,3.1c0.8,0.9,1.8,1.3,2.9,1.3c1.1,0,2.1-0.4,2.9-1.3
			C385.1,927.4,385.5,926.4,385.5,925.1z"/>
		<path class="st6" d="M450.2,882.5c-0.4,13.8-6.4,20.7-18,20.7c-4.8,0-8.5-1.1-11.1-3.2c-2.6-2.1-3.9-4.8-3.9-8.1
			c0-2.5,0.8-4.6,2.4-6.4c1.6-1.7,3.6-2.6,5.9-2.6c2.5,0,4.5,0.9,6.1,2.7c1.6,1.8,2.4,3.9,2.4,6.3c0,2.3-0.6,4.1-1.8,5.2
			c7.5-0.3,11.2-5.2,11.2-14.6H450.2z M450.2,912c-0.4,13.8-6.4,20.7-18,20.7c-4.8,0-8.5-1.1-11.1-3.2c-2.6-2.1-3.9-4.8-3.9-8.1
			c0-2.5,0.8-4.6,2.4-6.4c1.6-1.7,3.6-2.6,5.9-2.6c2.5,0,4.5,0.9,6.1,2.7c1.6,1.8,2.4,3.9,2.4,6.3c0,2.3-0.6,4.1-1.8,5.2
			c7.5-0.3,11.2-5.2,11.2-14.6H450.2z M429.1,891.9c0-1.1-0.4-2.1-1.1-2.9c-0.7-0.8-1.6-1.2-2.7-1.2c-1,0-1.9,0.4-2.6,1.2
			c-0.7,0.8-1,1.7-1,2.9c0,1.1,0.3,2.1,1,2.8c0.7,0.7,1.6,1.1,2.6,1.1c1,0,1.9-0.4,2.7-1.1C428.8,893.9,429.1,893,429.1,891.9z
			 M429.1,921.4c0-1.1-0.4-2.1-1.1-2.9c-0.7-0.8-1.6-1.2-2.7-1.2c-1,0-1.9,0.4-2.6,1.2c-0.7,0.8-1,1.7-1,2.9c0,1.1,0.3,2.1,1,2.8
			c0.7,0.7,1.6,1.1,2.6,1.1c1,0,1.9-0.4,2.7-1.1C428.8,923.4,429.1,922.5,429.1,921.4z"/>
		<path class="st6" d="M501.5,934.1H494v-42c0-2.7-0.6-4-1.8-4c-1,0-1.8,0.6-2.2,1.9l-14.4,44.1h-8.5v-33.4
			c-0.8,0.2-1.5,0.3-2.1,0.3c-2.6,0-4.8-1-6.5-2.9c-1.8-2-2.7-4.3-2.7-7.1c0-2.7,0.9-5,2.7-6.9c1.8-1.9,3.9-2.9,6.5-2.9
			c2.7,0,5,1,6.8,3c1.8,2,2.7,4.5,2.7,7.5v19.4c0,2.9-0.5,7.5-1.4,13.8c0.9-3.8,2-8.1,3.4-12.7l6.8-23.1c1.5-5.3,4.6-7.9,9.1-7.8
			c6,0.1,9.1,3.8,9.1,11V934.1z M469.3,891.1c0-1.2-0.4-2.3-1.2-3.1c-0.8-0.9-1.8-1.3-2.9-1.3c-1.1,0-2.1,0.4-2.9,1.3
			c-0.8,0.9-1.2,1.9-1.2,3.1c0,1.2,0.4,2.3,1.2,3.1c0.8,0.9,1.8,1.3,2.9,1.3c1.1,0,2.1-0.4,2.9-1.3
			C468.9,893.3,469.3,892.3,469.3,891.1z"/>
		<path class="st6" d="M508.9,851.3c-0.8,4.6-1.9,8.4-3.4,11.6c-1.4,3.1-3.3,5.6-5.6,7.5c-2.3,1.9-4.9,3.2-7.9,4
			c-3,0.8-6.5,1.2-10.5,1.2h-4v-5.2c1.6-0.1,3-0.7,4-1.8c1.1-1.1,1.8-2.3,2.2-3.4c-2-0.3-3.6-1.3-4.8-2.9c-1.2-1.6-1.8-3.5-1.8-5.7
			c0-2.3,0.8-4.3,2.4-5.8c1.6-1.6,3.4-2.3,5.5-2.3c2.4,0,4.3,0.8,5.7,2.5c1.4,1.6,2.1,3.7,2.1,6.2c0,2.5-0.6,4.9-1.7,7.3
			c-1.1,2.3-2.3,4.2-3.5,5.5c4-0.8,7.3-2.9,9.8-6.3c2.5-3.4,3.9-7.5,4-12.2H508.9z M488.2,856.8c0-1-0.3-1.8-0.9-2.4
			c-0.6-0.7-1.3-1-2.2-1c-0.9,0-1.6,0.3-2.2,1c-0.6,0.6-0.8,1.5-0.8,2.4c0,1,0.3,1.8,0.8,2.4c0.6,0.7,1.3,1,2.2,1
			c0.9,0,1.6-0.3,2.2-1C487.9,858.5,488.2,857.7,488.2,856.8z"/>
		<path class="st6" d="M549.1,922.4c0,4.5-1.9,7.8-5.7,10c-3.1,1.8-7,2.7-11.8,2.7c-4.8,0-8.7-0.9-11.7-2.7c-3.6-2.2-5.4-5.5-5.4-10
			v-13.2c0-3.1,0.8-5.8,2.4-7.9c1.6-2.1,3.9-3.2,6.9-3.2c2.6,0,4.8,0.9,6.5,2.8c1.8,1.9,2.7,4.2,2.7,7c0,2.7-0.9,5-2.7,6.9
			c-1.8,1.9-3.9,2.9-6.5,2.9c-0.7,0-1.3-0.1-1.8-0.3v4c0,4.5,3.3,6.7,9.8,6.7c6.6,0,9.9-2.3,9.9-6.8v-24.8c0-2.8-1.3-5-3.7-6.5
			c-2.1-1.2-4.7-1.8-7.7-1.8c-7.7,0-11.8,2.1-12.4,6.2h-7.3c1-8.8,7.4-13.2,19.1-13.3c5.4,0,9.8,1.1,13.3,3.3
			c4.2,2.8,6.3,6.9,6.3,12.5V922.4z M527.9,907.9c0-1.2-0.4-2.2-1.2-3.1c-0.8-0.9-1.8-1.3-2.9-1.3c-1.1,0-2.1,0.4-2.9,1.3
			c-0.8,0.9-1.2,1.9-1.2,3.1c0,1.2,0.4,2.2,1.2,3.1c0.8,0.9,1.8,1.3,2.9,1.3c1.1,0,2.1-0.4,2.9-1.3
			C527.5,910.1,527.9,909.1,527.9,907.9z"/>
		<path class="st6" d="M601.5,909.5c0,3.5-0.8,5.9-2.5,7.2c3.1,1.9,4.7,4.8,4.7,8.6c0,2.8-0.9,5.1-2.7,7c-1.8,1.9-3.9,2.8-6.4,2.8
			c-2.3,0-4.4-0.8-6-2.4c-1.7-1.6-2.7-3.6-3-6c-2.6,1.4-4.4,2.4-5.6,3.1c-1.9,1.3-3.5,2.7-4.6,4.3h-7.6v-33.4
			c-0.8,0.2-1.5,0.3-2.1,0.3c-2.6,0-4.8-1-6.5-2.9c-1.8-2-2.7-4.3-2.7-7.1c0-2.7,0.9-5,2.7-6.9c1.8-1.9,3.9-2.9,6.5-2.9
			c2.7,0,5,1,6.8,3c1.8,2,2.7,4.5,2.7,7.5v33c1.3-1,4.2-2.6,8.7-4.5c4-1.8,6.8-3.6,8.3-5.5c1.1-1.3,1.7-3.4,1.7-6.2v-26.3h7.5V909.5
			z M569.8,891.1c0-1.2-0.4-2.3-1.2-3.1c-0.8-0.9-1.8-1.3-2.9-1.3c-1.1,0-2.1,0.4-2.9,1.3c-0.8,0.9-1.2,1.9-1.2,3.1
			c0,1.2,0.4,2.3,1.2,3.1c0.8,0.9,1.8,1.3,2.9,1.3c1.1,0,2.1-0.4,2.9-1.3C569.4,893.3,569.8,892.3,569.8,891.1z M598.6,925.3
			c0-1.2-0.4-2.2-1.2-3.1c-0.8-0.9-1.8-1.3-2.9-1.3c-1.1,0-2.1,0.4-2.9,1.3c-0.8,0.9-1.2,1.9-1.2,3.1c0,1.2,0.4,2.2,1.2,3.1
			c0.8,0.9,1.8,1.3,2.9,1.3c1.1,0,2.1-0.4,2.9-1.3C598.2,927.6,598.6,926.5,598.6,925.3z"/>
		<path class="st6" d="M632.3,925.3c0,2.8-0.9,5.1-2.7,7c-1.8,1.9-4,2.9-6.5,2.9c-2.7,0-5-1-6.9-3c-1.9-2-2.8-4.5-2.8-7.5v-42.4h7.5
			v33.4c0.4-0.2,1.1-0.3,2.2-0.3c2.5,0,4.7,1,6.5,2.9C631.4,920.2,632.3,922.5,632.3,925.3z M627.2,925.3c0-1.2-0.4-2.3-1.2-3.1
			c-0.8-0.9-1.8-1.3-2.9-1.3c-1.1,0-2.1,0.4-2.9,1.3c-0.8,0.9-1.2,1.9-1.2,3.1c0,1.2,0.4,2.3,1.2,3.1c0.8,0.9,1.8,1.3,2.9,1.3
			c1.1,0,2.1-0.4,2.9-1.3C626.8,927.5,627.2,926.5,627.2,925.3z M654.9,925.3c0,2.8-0.9,5.1-2.7,7c-1.8,1.9-4,2.9-6.5,2.9
			c-2.7,0-5-1-6.9-3c-1.9-2-2.8-4.5-2.8-7.5v-42.4h7.5v33.4c0.4-0.2,1.1-0.3,2.2-0.3c2.5,0,4.7,1,6.5,2.9
			C654,920.2,654.9,922.5,654.9,925.3z M649.8,925.3c0-1.2-0.4-2.3-1.2-3.1c-0.8-0.9-1.8-1.3-2.9-1.3c-1.1,0-2.1,0.4-2.9,1.3
			c-0.8,0.9-1.2,1.9-1.2,3.1c0,1.2,0.4,2.3,1.2,3.1c0.8,0.9,1.8,1.3,2.9,1.3c1.1,0,2.1-0.4,2.9-1.3
			C649.4,927.5,649.8,926.5,649.8,925.3z"/>
		<path class="st6" d="M697.4,934.1h-7.5v-22.5c0-2.6-1.4-4.6-4.1-6c-2.1-1-4.4-1.6-7-1.6c-2.5,0-4.6,0.7-6.4,2
			c-2.2,1.6-3.3,3.6-3.3,6.2v3.3c1.1-0.2,1.9-0.3,2.2-0.3c2.6,0,4.8,1,6.6,2.9c1.9,2,2.8,4.3,2.8,7c0,2.8-1,5.1-2.9,7
			c-1.9,1.9-4.2,2.9-6.6,2.9c-2.7,0-4.9-0.9-6.8-2.8c-1.9-1.9-2.8-4.2-2.8-7.1v-12c0-5.1,1.8-9.1,5.3-12c3.1-2.5,7-3.8,11.7-3.8
			c5,0,8.7,1.5,11.2,4.4v-5.8c0-2.7-1.5-4.7-4.4-6.2c-2.3-1.1-4.8-1.7-7.6-1.7c-3.1,0-5.8,0.8-8.1,2.3c-2.5,1.7-4,4-4.5,6.9h-7.3
			c0.5-5.3,2.6-9.4,6.4-12.2c3.5-2.7,8.1-4,13.7-4c3.6,0,6.9,0.7,9.8,2.1c1.7-1.6,2.5-3.7,2.5-6.2h8.5c-1,4.4-2.7,7.8-5.2,10.3
			c2.4,2.8,3.6,6,3.6,9.6V934.1z M675.4,925.1c0-1.2-0.4-2.3-1.2-3.1c-0.8-0.9-1.8-1.3-2.9-1.3c-1.1,0-2.1,0.4-2.9,1.3
			c-0.8,0.9-1.2,1.9-1.2,3.1c0,1.2,0.4,2.3,1.2,3.1c0.8,0.9,1.8,1.3,2.9,1.3c1.1,0,2.1-0.4,2.9-1.3
			C675,927.4,675.4,926.4,675.4,925.1z"/>
		<path class="st6" d="M735.8,934.1h-7.4l-22.6-27.4l4.5-5.6l18,21.8v-22.4c-0.2,0.1-1,0.1-2.3,0.1c-2.5,0-4.6-0.9-6.3-2.7
			c-1.7-1.8-2.6-4-2.6-6.8c0-2.8,0.9-5.1,2.7-7.1c1.8-1.9,3.9-2.9,6.3-2.9c2.8,0,5.2,1,7,2.9c1.9,2,2.8,4.5,2.8,7.6V934.1z
			 M730.2,891c0-1.2-0.4-2.2-1.2-3c-0.8-0.8-1.8-1.3-2.9-1.3c-1.1,0-2.1,0.4-2.9,1.3c-0.8,0.8-1.2,1.9-1.2,3c0,1.2,0.4,2.2,1.2,3
			c0.8,0.8,1.8,1.3,2.9,1.3c1.1,0,2.1-0.4,2.9-1.3C729.8,893.1,730.2,892.1,730.2,891z"/>
	</g>
	<g>
		<path class="st3" d="M451.7,54.9c191,17,332.1,185.6,315.1,376.6c-17,191-185.6,332.1-376.6,315.1C199.2,729.6,58.1,561,75.1,370
			C92.1,179,260.7,37.9,451.7,54.9"/>
		<g>
			<path class="st2" d="M237.6,171.3c0,0,64.6-26.4,96.6-28c0,0,100.3,56.4,164-1.3c0,0,65.9,8.9,93.9,21.1c0.5,0.2,0,1.4,0,1.4
				s-11.6,95-4.5,175.1l46.2-2c0,0,4.7,23,4.6,42.8c0,0-25.8,1.4-46.1,4.7c0,0-4,51.2,5.3,91.1c11,26.2,21.2,49.8,22.7,56.5
				c4.2,3.3,19.1,0.8,19.1,0.8l3.9,41.4c0,0-11.5,3.7-17.2,17.5c-5.7,13.8-37.9,56.2-195.8,56c-157.9-0.3-169.3-15.6-185.4-32.1
				c-16.1-16.6-14.9-20-34.7-22.1c0,0-2.5-40.8-1.9-43.5c0,0,12.9-0.4,19-0.5c0,0,11.8-17.4,15.5-52.9c3.7-35.5,5.3-98.9,5.3-98.9
				l2.3-16.4l-48.5-6.1l2.4-34.1c0,0,35.9-4.4,46.2-2C250.6,339.7,247,211.8,237.6,171.3"/>
			<path class="st3" d="M217.3,557.9c0,0,64.1-4.8,99.4-0.7c0,0,4.5,6,0.7,30.2c0,0-97.1,1.4-98.8,1.3L217.3,557.9"/>
			<path class="st3" d="M630,539.9c0,0-64.1,4-98.5,12.9c0,0-3.6,6.5,3.4,30.1c0,0,96.4-11.9,98.1-12.2L630,539.9"/>
			<path class="st3" d="M249.9,178.1c0,0,66.8-21.8,77.5-21.4c0,0-0.4,12.6-0.4,16c0,0-69.5,17.6-75.2,20.6L249.9,178.1"/>
			<path class="st3" d="M255.3,209.8c0,0,54.6-16.4,69.9-16c0,0-0.4,9.5,0.4,16.4c0,0-60.3,12.6-68,16.4c0,0-1.1-7.3-2.3-16"/>
			<path class="st3" d="M583.8,178.1c0,0-66.8-21.8-77.5-21.4c0,0,0.4,12.6,0.4,16c0,0,69.5,17.6,75.2,20.6L583.8,178.1"/>
			<path class="st3" d="M578.5,209.8c0,0-54.6-16.4-69.9-16c0,0-1,12-2.9,18.5c0,0,62.9,10.5,70.5,14.3c0,0,1.2-7.3,2.3-16"/>
			<path class="st3" d="M214.2,347.9l-1.9,21.2c0,0,53.7,1.9,79.2,8.7l1.2-28.7C292.8,349.1,246,344.2,214.2,347.9"/>
			<path class="st3" d="M622,349.3l3.8,20.5c0,0-52.5,5.5-77.4,11.2l-4-30C544.5,350.9,605.4,349.3,622,349.3"/>
			<path class="st3" d="M273.1,406.5c0,0,204.8,18.2,298.1-3.6c0,0,2.4,61.8,8.5,78.8c0,0-75.1,24.2-315.1,3.6L273.1,406.5"/>
			<path class="st3" d="M489.8,164.2c4.6,30.5,0.5,125.2-84.9,123.3c-93-2.1-67.6-119.5-67.6-119.5S426.3,219.6,489.8,164.2"/>
		</g>
	</g>
</g>
</svg>
