<?xml version="1.0" encoding="utf-8"?>
<!-- Generator: Adobe Illustrator 22.0.0, SVG Export Plug-In . SVG Version: 6.00 Build 0)  -->
<svg version="1.1" id="Layer_1" xmlns="http://www.w3.org/2000/svg" xmlns:xlink="http://www.w3.org/1999/xlink" x="0px" y="0px"
	 viewBox="0 0 841.9 1190.6" style="enable-background:new 0 0 841.9 1190.6;" xml:space="preserve">
<style type="text/css">
	.st0{fill:none;}
	.st1{fill:#010101;}
	.st2{fill:#FFFFFF;}
	.st3{fill:#154989;}
	.st4{fill:#EB2627;}
	.st5{fill:#2A3B8F;}
	.st6{fill:#FFFFFF;stroke:#FFFFFF;stroke-miterlimit:10;}
	.st7{fill-rule:evenodd;clip-rule:evenodd;fill:#FFFFFF;}
	.st8{fill-rule:evenodd;clip-rule:evenodd;fill:#154989;}
	.st9{fill:#2F3690;}
</style>
<g>
	<g>
		<rect x="0" y="0" class="st0" width="841.9" height="1190.6"/>
		<rect x="28.3" y="28.3" class="st1" width="785.2" height="1133.9"/>
		<rect x="34" y="34" class="st2" width="773.9" height="1122.5"/>
		<rect x="52.5" y="792.6" class="st3" width="737" height="348.7"/>
		<g id="stecon_14_">
			<path id="red_14_" class="st4" d="M52.8,53.5c42.5,0,85,0,127.6,0c0,22.6,0,45.1,0,67.7c-42.5,0-85,0-127.5,0c0-0.2,0-0.5,0-0.7
				c0-22.1,0-44.2,0-66.3C52.9,54,52.8,53.8,52.8,53.5z M55.8,87.4c0.2,0.1,0.4,0.2,0.5,0.3c3.6,1.8,7.1,3.7,10.7,5.5
				c16.4,8.4,32.7,16.8,49.1,25.2c0.4,0.2,0.7,0.2,1.1,0c13.8-7.1,27.6-14.2,41.4-21.3c6.1-3.2,12.3-6.3,18.4-9.5
				c0.1-0.1,0.3-0.2,0.5-0.3c-0.2-0.1-0.3-0.2-0.5-0.3c-3.8-1.9-7.6-3.9-11.4-5.8c-16.2-8.3-32.4-16.7-48.5-25
				c-0.3-0.2-0.5-0.2-0.9,0c-7,3.6-14.1,7.3-21.1,10.9c-12.6,6.5-25.2,12.9-37.7,19.4C56.9,86.8,56.4,87.1,55.8,87.4z"/>
			<g id="white_14_">
				<path class="st2" d="M55.8,87.4c0.6-0.3,1.1-0.6,1.6-0.8c12.6-6.5,25.2-12.9,37.7-19.4c7-3.6,14.1-7.2,21.1-10.9
					c0.3-0.2,0.6-0.1,0.9,0c16.2,8.3,32.4,16.7,48.5,25c3.8,1.9,7.6,3.9,11.4,5.8c0.1,0.1,0.3,0.1,0.5,0.3c-0.2,0.1-0.3,0.2-0.5,0.3
					c-6.1,3.2-12.3,6.3-18.4,9.5c-13.8,7.1-27.6,14.2-41.4,21.3c-0.4,0.2-0.7,0.2-1.1,0C99.7,110,83.4,101.6,67,93.1
					c-3.6-1.8-7.1-3.7-10.7-5.5C56.2,87.6,56,87.5,55.8,87.4z M59.7,87.4c0.2,0.1,0.3,0.2,0.4,0.2c1,0.5,1.9,1,2.9,1.5
					c17.7,9.1,35.5,18.2,53.2,27.3c0.3,0.1,0.5,0.2,0.8,0c12.9-6.6,25.7-13.2,38.6-19.8c5.8-3,11.6-6,17.5-9
					c0.1-0.1,0.3-0.2,0.5-0.3c-0.2-0.1-0.4-0.2-0.6-0.3c-15.9-8.2-31.9-16.4-47.8-24.5c-2.7-1.4-5.5-2.8-8.2-4.2
					c-0.2-0.1-0.4-0.1-0.7,0c-0.3,0.2-0.7,0.4-1.1,0.6C97,68.3,78.6,77.6,60.3,87C60.1,87.1,60,87.2,59.7,87.4z"/>
				<path class="st2" d="M147.4,79.5c1.4,0,2.7,0,4.1,0c0,5.2,0,10.3,0,15.4c-1.4,0-2.8,0-4.2,0c-0.9-2.6-1.8-5.3-2.7-7.9
					c0,0-0.1,0-0.1,0c0,2.6,0,5.2,0,7.9c-1.4,0-2.7,0-4,0c0,0,0,0,0,0c0,0,0,0,0,0c0-0.1,0-0.2,0-0.3c0-4.9,0-9.9,0-14.8
					c0,0,0-0.1,0-0.2c0.1,0,0.3,0,0.4,0c1.2,0,2.3,0,3.5,0c0.4,0,0.4,0,0.5,0.4c0.8,2.5,1.6,5,2.4,7.5c0,0.1,0.1,0.2,0.2,0.4
					C147.4,85,147.4,82.3,147.4,79.5z"/>
				<path class="st2" d="M138.8,87.3c0,1.5,0,3,0,4.5c0,0.8-0.3,1.4-0.8,1.9c-0.7,0.7-1.6,1.2-2.6,1.3c-1.5,0.3-3.1,0.3-4.6-0.1
					c-0.9-0.2-1.6-0.6-2.3-1.3c-0.5-0.5-0.8-1.1-0.8-1.9c0-3,0-6.1,0-9.1c0-0.7,0.2-1.3,0.7-1.8c0.6-0.7,1.4-1.2,2.3-1.4
					c1.7-0.4,3.5-0.4,5.2,0.1c0.7,0.2,1.4,0.6,2,1.2c0.6,0.5,0.9,1.2,0.8,2C138.8,84.3,138.8,85.8,138.8,87.3z M134.2,87.3
					c0-1.5,0-2.9,0-4.4c0-0.7-0.1-0.9-0.8-0.9c-0.1,0-0.2,0-0.2,0c-0.5,0.1-0.6,0.2-0.6,0.7c0,3,0,6,0,9c0,0.5,0.1,0.7,0.6,0.7
					c0.2,0,0.3,0,0.5,0c0.5-0.1,0.6-0.2,0.6-0.7C134.2,90.3,134.2,88.8,134.2,87.3z"/>
				<path class="st2" d="M126.7,88.9c0,0.2,0,0.3,0,0.5c0,0.8,0,1.6,0,2.4c0,0.8-0.3,1.5-0.9,2c-0.7,0.7-1.5,1.1-2.5,1.3
					c-1.5,0.3-3,0.3-4.5-0.1c-0.8-0.2-1.5-0.6-2.2-1.2c-0.6-0.6-0.9-1.2-0.9-2.1c0-3,0-5.9,0-8.9c0-0.9,0.3-1.6,0.9-2.1
					c0.7-0.7,1.6-1.1,2.5-1.2c1.4-0.2,2.9-0.2,4.3,0.1c0.9,0.2,1.6,0.6,2.3,1.2c0.6,0.6,0.9,1.2,0.9,2.1c0,0.8,0,1.7,0,2.5
					c0,0.2,0,0.3,0,0.5c-1.6,0-3.1,0-4.6,0c0-0.2,0-0.3,0-0.5c0-0.9,0-1.7,0-2.6c0-0.5-0.1-0.6-0.6-0.7c-0.1,0-0.2,0-0.3,0
					c-0.7,0.1-0.7,0.3-0.7,0.8c0,2.9,0,5.9,0,8.8c0,0.1,0,0.2,0,0.3c0,0.2,0.1,0.4,0.3,0.4c0.1,0,0.3,0.1,0.4,0.1
					c0.6,0.1,0.8-0.2,0.8-0.8c0-0.8,0-1.5,0-2.3c0-0.2,0-0.3,0-0.5C122.4,88.8,126,88.8,126.7,88.9z"/>
				<path class="st2" d="M105.5,94.9c0-5.1,0-10.2,0-15.3c0.4-0.1,8.7-0.1,9.1,0c0,0.8,0,1.6,0,2.5c-0.1,0-0.3,0-0.4,0
					c-1.1,0-2.2,0-3.3,0c-0.1,0-0.3,0-0.5,0c0,1.4,0,2.7,0,4.1c1,0,2.1,0,3.1,0c0,0.8,0,1.5,0,2.2c-0.4,0.1-0.7,0.1-1,0.1
					c-0.3,0-0.7,0-1,0c-0.3,0-0.7,0-1,0c-0.1,0.3-0.1,2.8,0,3.7c0.1,0,0.3,0,0.5,0c1.1,0,2.2,0,3.3,0c0.2,0,0.3,0,0.5,0
					c0,0.9,0,1.8,0,2.6C114.3,95,106,95,105.5,94.9z"/>
				<path class="st2" d="M101.1,94.9c-1.6,0-3.1,0-4.7,0c0-4.3,0-8.5,0-12.8c-1,0-2,0-3,0c-0.1-0.4-0.1-2.1,0-2.6
					c0.3-0.1,10.4-0.1,10.8,0c0.1,0.3,0.1,2.1,0,2.6c-1,0-2,0-3,0C101.1,86.4,101.1,90.6,101.1,94.9z"/>
				<path class="st2" d="M92.1,84.9c-1.6,0-3.1,0-4.6,0c0-0.2,0-0.3,0-0.5c0-0.6,0-1.2,0-1.8c0-0.4-0.1-0.6-0.5-0.6
					c-0.1,0-0.2,0-0.4,0c-0.3,0-0.5,0.2-0.5,0.5c0,0.6,0,1.1,0,1.7c0,0.4,0.2,0.6,0.5,0.8c0.4,0.2,0.7,0.4,1.1,0.7
					c1,0.6,2,1.1,2.9,1.7c0.1,0.1,0.3,0.2,0.4,0.3c0.7,0.5,1.1,1.2,1.1,2.1c0,0.7,0,1.3,0,2c0,0.7-0.2,1.3-0.7,1.7
					c-0.7,0.7-1.5,1.2-2.4,1.4c-1.5,0.4-3.1,0.4-4.7,0c-0.8-0.2-1.6-0.6-2.2-1.2c-0.6-0.5-0.9-1.2-0.9-2.1c0-0.8,0-1.5,0-2.3
					c0.3-0.1,3.9-0.1,4.5,0c0,0.1,0,0.3,0,0.4c0,0.7,0,1.3,0,2c0,0.4,0.1,0.6,0.5,0.6c0.2,0,0.5,0,0.7-0.1c0.2,0,0.3-0.2,0.3-0.4
					c0-0.6,0-1.2,0-1.8c0-0.3-0.2-0.6-0.4-0.7c-0.4-0.3-0.8-0.5-1.2-0.8c-1-0.6-2-1.2-2.9-1.8c-0.3-0.2-0.6-0.4-0.9-0.7
					c-0.4-0.4-0.6-0.9-0.6-1.5c0-0.7,0-1.3,0-2c0-0.8,0.3-1.4,0.8-1.9c0.7-0.7,1.6-1.2,2.6-1.4c1.4-0.3,2.8-0.3,4.2,0.1
					c0.9,0.2,1.7,0.7,2.3,1.3c0.5,0.5,0.8,1.1,0.8,1.9C92.1,83.5,92.1,84.2,92.1,84.9z"/>
			</g>
			<g id="blue_14_">
				<path class="st5" d="M59.7,87.4c0.3-0.1,0.5-0.2,0.7-0.3c18.3-9.4,36.6-18.8,54.9-28.1c0.4-0.2,0.7-0.4,1.1-0.6
					c0.2-0.1,0.4-0.1,0.7,0c2.7,1.4,5.4,2.8,8.2,4.2c15.9,8.2,31.9,16.4,47.8,24.5c0.2,0.1,0.3,0.2,0.6,0.3
					c-0.2,0.1-0.3,0.2-0.5,0.3c-5.8,3-11.6,6-17.5,9c-12.9,6.6-25.7,13.2-38.6,19.8c-0.3,0.1-0.5,0.1-0.8,0
					C98.5,107.3,80.8,98.2,63,89.1c-1-0.5-1.9-1-2.9-1.5C60,87.5,59.9,87.5,59.7,87.4z M147.4,79.5c0,2.8,0,5.5,0,8.3
					c-0.1-0.1-0.1-0.2-0.2-0.4c-0.8-2.5-1.6-5-2.4-7.5c-0.1-0.4-0.1-0.4-0.5-0.4c-1.2,0-2.3,0-3.5,0c-0.1,0-0.3,0-0.4,0
					c0,0.1,0,0.1,0,0.2c0,4.9,0,9.9,0,14.8c0,0.1,0,0.2,0,0.3c0,0,0,0,0,0c0,0,0,0,0,0c1.3,0,2.7,0,4,0c0-2.7,0-5.3,0-7.9
					c0,0,0.1,0,0.1,0c0.9,2.6,1.8,5.3,2.7,7.9c1.4,0,2.8,0,4.2,0c0-5.1,0-10.2,0-15.4C150.2,79.5,148.8,79.5,147.4,79.5z
					 M138.8,87.3c0-1.5,0-3,0-4.5c0-0.8-0.3-1.5-0.8-2c-0.6-0.6-1.2-1-2-1.2c-1.7-0.5-3.5-0.5-5.2-0.1c-0.9,0.2-1.7,0.7-2.3,1.4
					c-0.4,0.5-0.7,1.1-0.7,1.8c0,3,0,6.1,0,9.1c0,0.8,0.3,1.4,0.8,1.9c0.6,0.7,1.4,1.1,2.3,1.3c1.5,0.3,3.1,0.3,4.6,0.1
					c1-0.2,1.8-0.6,2.6-1.3c0.5-0.5,0.8-1.2,0.8-1.9C138.8,90.3,138.8,88.8,138.8,87.3z M126.7,88.9c-0.6-0.1-4.3-0.1-4.7,0
					c0,0.1,0,0.3,0,0.5c0,0.8,0,1.5,0,2.3c0,0.7-0.2,0.9-0.8,0.8c-0.1,0-0.3,0-0.4-0.1c-0.2-0.1-0.3-0.2-0.3-0.4c0-0.1,0-0.2,0-0.3
					c0-2.9,0-5.9,0-8.8c0-0.5,0-0.7,0.7-0.8c0.1,0,0.2,0,0.3,0c0.5,0.1,0.6,0.2,0.6,0.7c0,0.9,0,1.7,0,2.6c0,0.2,0,0.3,0,0.5
					c1.6,0,3.1,0,4.6,0c0-0.2,0-0.4,0-0.5c0-0.8,0-1.7,0-2.5c0-0.9-0.3-1.5-0.9-2.1c-0.7-0.6-1.4-1-2.3-1.2
					c-1.4-0.3-2.9-0.3-4.3-0.1c-0.9,0.2-1.8,0.6-2.5,1.2c-0.6,0.6-0.9,1.3-0.9,2.1c0,3,0,5.9,0,8.9c0,0.9,0.3,1.6,0.9,2.1
					c0.6,0.6,1.4,1,2.2,1.2c1.5,0.3,3,0.3,4.5,0.1c0.9-0.2,1.8-0.6,2.5-1.3c0.6-0.5,0.9-1.2,0.9-2c0-0.8,0-1.6,0-2.4
					C126.7,89.2,126.7,89.1,126.7,88.9z M92.1,84.9c0-0.7,0-1.4,0-2.1c0-0.8-0.3-1.4-0.8-1.9c-0.7-0.7-1.4-1.1-2.3-1.3
					c-1.4-0.3-2.8-0.3-4.2-0.1c-1,0.2-1.9,0.6-2.6,1.4c-0.5,0.5-0.8,1.1-0.8,1.9c0,0.7,0,1.3,0,2c0,0.6,0.2,1.1,0.6,1.5
					c0.3,0.2,0.6,0.5,0.9,0.7c1,0.6,2,1.2,2.9,1.8c0.4,0.2,0.8,0.5,1.2,0.8c0.2,0.2,0.4,0.4,0.4,0.7c0,0.6,0,1.2,0,1.8
					c0,0.2-0.1,0.4-0.3,0.4c-0.2,0-0.5,0.1-0.7,0.1c-0.4,0-0.5-0.2-0.5-0.6c0-0.7,0-1.3,0-2c0-0.1,0-0.3,0-0.4
					c-0.6-0.1-4.2-0.1-4.5,0c0,0.7,0,1.5,0,2.3c0,0.9,0.3,1.5,0.9,2.1c0.6,0.6,1.4,1,2.2,1.2c1.6,0.4,3.1,0.3,4.7,0
					c0.9-0.2,1.7-0.7,2.4-1.4c0.4-0.5,0.7-1.1,0.7-1.7c0-0.7,0-1.3,0-2c0-0.9-0.4-1.6-1.1-2.1c-0.1-0.1-0.3-0.2-0.4-0.3
					c-1-0.6-2-1.1-2.9-1.7c-0.4-0.2-0.7-0.4-1.1-0.7c-0.3-0.2-0.5-0.4-0.5-0.8c0-0.6,0-1.1,0-1.7c0-0.3,0.2-0.5,0.5-0.5
					c0.1,0,0.2,0,0.4,0c0.4,0,0.5,0.2,0.5,0.6c0,0.6,0,1.2,0,1.8c0,0.1,0,0.3,0,0.5C89.1,84.9,90.6,84.9,92.1,84.9z M105.5,94.9
					c0.5,0.1,8.8,0.1,9.1,0c0-0.9,0-1.7,0-2.6c-0.2,0-0.3,0-0.5,0c-1.1,0-2.2,0-3.3,0c-0.2,0-0.3,0-0.5,0c-0.1-0.8,0-3.3,0-3.7
					c0.3,0,0.7,0,1,0c0.3,0,0.7,0,1,0c0.3,0,0.7,0.1,1-0.1c0-0.7,0-1.5,0-2.2c-1.1,0-2.1,0-3.1,0c0-1.4,0-2.7,0-4.1
					c0.2,0,0.3,0,0.5,0c1.1,0,2.2,0,3.3,0c0.1,0,0.3,0,0.4,0c0-0.9,0-1.7,0-2.5c-0.4-0.1-8.7-0.1-9.1,0
					C105.5,84.7,105.5,89.8,105.5,94.9z M101.1,94.9c0-4.3,0-8.5,0-12.8c1,0,2,0,3,0c0.1-0.5,0.1-2.2,0-2.6
					c-0.4-0.1-10.5-0.1-10.8,0c-0.1,0.4-0.1,2.2,0,2.6c1,0,2,0,3,0c0,4.3,0,8.5,0,12.8C97.9,94.9,99.5,94.9,101.1,94.9z"/>
				<path class="st5" d="M134.2,87.3c0,1.5,0,3,0,4.5c0,0.5-0.1,0.6-0.6,0.7c-0.2,0-0.3,0-0.5,0c-0.5-0.1-0.6-0.2-0.6-0.7
					c0-3,0-6,0-9c0-0.5,0.1-0.6,0.6-0.7c0.1,0,0.2,0,0.2,0c0.7,0,0.8,0.1,0.8,0.9C134.2,84.4,134.2,85.9,134.2,87.3z"/>
			</g>
		</g>
	</g>
	<g>
		<path class="st6" d="M186.3,1051.3l-8.2-53.7h7.1l5.2,36.9l6.3-36.9h8.3l6.1,37.5l5.3-37.5h7l-8.4,53.7h-7.4l-6.9-40.1l-6.9,40.1
			H186.3z"/>
		<path class="st6" d="M227,1051.3v-53.7h25.6v9.1H234v11.9h17.3v9H234v14.6h19.3v9H227z"/>
		<path class="st6" d="M290.3,1051.3h-7.6l-3-12.2h-13.8l-2.9,12.2h-7.4l13.5-53.7h7.4L290.3,1051.3z M277.5,1030l-4.8-19.9
			l-4.7,19.9H277.5z"/>
		<path class="st6" d="M294.1,1051.3v-53.7h14.7c3.7,0,6.4,0.5,8,1.4c1.7,1,3,2.7,4,5.1c1,2.5,1.5,5.3,1.5,8.5c0,4-0.8,7.4-2.3,10
			c-1.5,2.6-3.8,4.3-6.8,5c1.5,1.4,2.8,2.9,3.7,4.5s2.3,4.5,4,8.7l4.2,10.5h-8.3l-5-11.7c-1.8-4.2-3-6.8-3.7-7.9
			c-0.7-1.1-1.4-1.8-2.1-2.2c-0.7-0.4-1.9-0.6-3.5-0.6H301v22.4H294.1z M301,1020.3h5.2c3.3,0,5.4-0.2,6.3-0.7
			c0.8-0.4,1.5-1.2,2-2.3c0.5-1.1,0.7-2.4,0.7-4c0-1.8-0.3-3.3-0.9-4.4c-0.6-1.1-1.5-1.8-2.6-2.1c-0.6-0.1-2.3-0.2-5.1-0.2H301
			V1020.3z"/>
		<path class="st6" d="M355.7,1051.3v-53.7h14.7c3.7,0,6.4,0.5,8,1.4c1.7,1,3,2.7,4,5.1c1,2.5,1.5,5.3,1.5,8.5c0,4-0.8,7.4-2.3,10
			c-1.5,2.6-3.8,4.3-6.8,5c1.5,1.4,2.8,2.9,3.7,4.5c1,1.6,2.3,4.5,4,8.7l4.2,10.5h-8.3l-5-11.7c-1.8-4.2-3-6.8-3.7-7.9
			c-0.7-1.1-1.4-1.8-2.1-2.2c-0.7-0.4-1.9-0.6-3.5-0.6h-1.4v22.4H355.7z M362.7,1020.3h5.2c3.3,0,5.4-0.2,6.3-0.7
			c0.8-0.4,1.5-1.2,2-2.3s0.7-2.4,0.7-4c0-1.8-0.3-3.3-0.9-4.4c-0.6-1.1-1.5-1.8-2.6-2.1c-0.6-0.1-2.3-0.2-5.1-0.2h-5.4V1020.3z"/>
		<path class="st6" d="M390.6,1051.3v-53.7h25.6v9.1h-18.6v11.9h17.3v9h-17.3v14.6h19.3v9H390.6z"/>
		<path class="st6" d="M421,1033.8l6.8-1c0.4,3.5,1.2,6.1,2.5,7.8s2.9,2.5,5.1,2.5c2.2,0,3.9-0.7,5.1-2.2c1.1-1.5,1.7-3.2,1.7-5.2
			c0-1.3-0.2-2.3-0.7-3.2c-0.5-0.9-1.3-1.7-2.5-2.3c-0.8-0.4-2.7-1.2-5.6-2.3c-3.7-1.4-6.4-3.2-7.9-5.3c-2.1-3-3.2-6.6-3.2-10.8
			c0-2.7,0.5-5.3,1.5-7.7c1-2.4,2.4-4.2,4.3-5.4s4.1-1.9,6.8-1.9c4.3,0,7.6,1.5,9.8,4.4s3.3,6.9,3.5,11.8l-7,0.5
			c-0.3-2.8-0.9-4.7-1.9-6c-1-1.2-2.5-1.8-4.4-1.8c-2,0-3.6,0.6-4.8,1.9c-0.7,0.8-1.1,1.9-1.1,3.3c0,1.3,0.3,2.4,1,3.3
			c0.9,1.1,3,2.3,6.4,3.6c3.4,1.2,5.9,2.5,7.5,3.9s2.9,3.1,3.8,5.5c0.9,2.3,1.4,5.2,1.4,8.6c0,3.1-0.5,6-1.6,8.6s-2.7,4.7-4.7,6
			c-2,1.3-4.5,2-7.5,2c-4.4,0-7.7-1.6-10.1-4.7C422.8,1044.4,421.4,1039.8,421,1033.8z"/>
		<path class="st6" d="M454.9,1051.3v-53.7h11.2c4.2,0,7,0.3,8.3,0.8c2,0.8,3.6,2.6,5,5.3c1.3,2.7,2,6.2,2,10.5
			c0,3.3-0.4,6.1-1.2,8.3c-0.8,2.2-1.7,4-2.9,5.3c-1.2,1.3-2.4,2.1-3.6,2.5c-1.7,0.5-4.1,0.8-7.2,0.8h-4.5v20.3H454.9z
			 M461.9,1006.7v15.2h3.8c2.7,0,4.6-0.3,5.5-0.8c0.9-0.6,1.7-1.4,2.2-2.6c0.5-1.2,0.8-2.6,0.8-4.2c0-2-0.4-3.6-1.1-4.8
			c-0.7-1.3-1.7-2.1-2.8-2.4c-0.8-0.2-2.5-0.4-5-0.4H461.9z"/>
		<path class="st6" d="M486.9,1051.3v-53.7h7v53.7H486.9z"/>
		<path class="st6" d="M500.6,1051.3v-53.7h14.7c3.7,0,6.4,0.5,8,1.4c1.7,1,3,2.7,4,5.1c1,2.5,1.5,5.3,1.5,8.5c0,4-0.8,7.4-2.3,10
			c-1.5,2.6-3.8,4.3-6.8,5c1.5,1.4,2.8,2.9,3.7,4.5c1,1.6,2.3,4.5,4,8.7l4.2,10.5h-8.3l-5-11.7c-1.8-4.2-3-6.8-3.7-7.9
			c-0.7-1.1-1.4-1.8-2.1-2.2c-0.7-0.4-1.9-0.6-3.5-0.6h-1.4v22.4H500.6z M507.5,1020.3h5.2c3.3,0,5.4-0.2,6.3-0.7
			c0.8-0.4,1.5-1.2,2-2.3s0.7-2.4,0.7-4c0-1.8-0.3-3.3-0.9-4.4c-0.6-1.1-1.5-1.8-2.6-2.1c-0.6-0.1-2.3-0.2-5.1-0.2h-5.4V1020.3z"/>
		<path class="st6" d="M566.6,1051.3H559l-3-12.2h-13.8l-2.9,12.2h-7.4l13.5-53.7h7.4L566.6,1051.3z M553.7,1030l-4.8-19.9
			l-4.7,19.9H553.7z"/>
		<path class="st6" d="M574.5,1051.3v-44.6h-10.3v-9.1h27.5v9.1h-10.2v44.6H574.5z"/>
		<path class="st6" d="M593.9,1024.8c0-5.5,0.5-10.1,1.6-13.8c0.8-2.7,1.9-5.2,3.2-7.4c1.4-2.2,2.8-3.8,4.5-4.8
			c2.2-1.4,4.6-2.1,7.4-2.1c5.1,0,9.2,2.5,12.2,7.4s4.6,11.7,4.6,20.5c0,8.7-1.5,15.4-4.5,20.3c-3,4.9-7.1,7.3-12.2,7.3
			c-5.1,0-9.2-2.4-12.3-7.3C595.4,1040,593.9,1033.3,593.9,1024.8z M601.1,1024.4c0,6.1,0.9,10.7,2.7,13.8c1.8,3.1,4.1,4.7,6.9,4.7
			c2.8,0,5.1-1.6,6.8-4.7c1.8-3.1,2.7-7.8,2.7-14c0-6.2-0.9-10.7-2.6-13.8c-1.7-3-4-4.5-6.9-4.5s-5.2,1.5-7,4.6
			C601.9,1013.6,601.1,1018.2,601.1,1024.4z"/>
		<path class="st6" d="M632.8,1051.3v-53.7h14.7c3.7,0,6.4,0.5,8,1.4c1.7,1,3,2.7,4,5.1c1,2.5,1.5,5.3,1.5,8.5c0,4-0.8,7.4-2.3,10
			c-1.5,2.6-3.8,4.3-6.8,5c1.5,1.4,2.8,2.9,3.7,4.5c1,1.6,2.3,4.5,4,8.7l4.2,10.5h-8.3l-5-11.7c-1.8-4.2-3-6.8-3.7-7.9
			c-0.7-1.1-1.4-1.8-2.1-2.2c-0.7-0.4-1.9-0.6-3.5-0.6h-1.4v22.4H632.8z M639.8,1020.3h5.2c3.3,0,5.4-0.2,6.3-0.7
			c0.8-0.4,1.5-1.2,2-2.3s0.7-2.4,0.7-4c0-1.8-0.3-3.3-0.9-4.4c-0.6-1.1-1.5-1.8-2.6-2.1c-0.6-0.1-2.3-0.2-5.1-0.2h-5.4V1020.3z"/>
	</g>
	<g>
		<path class="st6" d="M100.9,926.7H94V906c0-2.4-1.3-4.2-3.8-5.5c-1.9-1-4.1-1.4-6.5-1.4c-2.3,0-4.3,0.6-5.9,1.8
			c-2,1.4-3,3.4-3,5.8v3c1-0.2,1.7-0.2,2-0.2c2.4,0,4.4,0.9,6.1,2.7c1.7,1.8,2.6,3.9,2.6,6.4c0,2.6-0.9,4.7-2.7,6.5
			c-1.8,1.8-3.8,2.6-6.1,2.6c-2.5,0-4.5-0.9-6.2-2.6c-1.7-1.7-2.6-3.9-2.6-6.5v-11c0-4.7,1.6-8.4,4.9-11c2.9-2.3,6.5-3.5,10.8-3.5
			c4.6,0,8.1,1.4,10.4,4.1v-5.3c0-2.5-1.3-4.4-4-5.7c-2.1-1-4.4-1.5-7-1.5c-2.9,0-5.4,0.7-7.5,2.1c-2.3,1.6-3.7,3.7-4.1,6.4h-6.7
			c0.4-4.9,2.4-8.6,5.9-11.3c3.3-2.5,7.5-3.7,12.6-3.7c3.3,0,6.4,0.6,9,1.9c1.6-1.5,2.3-3.4,2.3-5.8h7.8c-0.9,4.1-2.5,7.2-4.8,9.5
			c2.2,2.6,3.3,5.5,3.3,8.9V926.7z M80.6,918.5c0-1.1-0.4-2.1-1.1-2.9c-0.7-0.8-1.6-1.2-2.7-1.2c-1,0-1.9,0.4-2.7,1.2
			c-0.7,0.8-1.1,1.8-1.1,2.9c0,1.1,0.4,2.1,1.1,2.9c0.7,0.8,1.6,1.2,2.7,1.2c1,0,1.9-0.4,2.7-1.2C80.2,920.5,80.6,919.6,80.6,918.5z
			"/>
		<path class="st6" d="M143.2,918c0,2.8-0.9,5.1-2.6,6.9c-1.7,1.8-3.8,2.7-6.4,2.7c-2.4,0-4.4-0.9-6-2.7c-1.6-1.8-2.5-3.9-2.5-6.4
			c0-2.6,0.8-4.8,2.5-6.5c1.6-1.8,3.6-2.7,6-2.7c0.8,0,1.5,0,2,0.1V892c0-5.1-3.4-7.6-10.3-7.6c-2.8,0-5.2,0.9-7.2,2.8
			c-2,1.9-3,4.3-3,7.4h-6.7c0.2-5.3,1.8-9.4,4.9-12.3c3-2.9,7-4.4,12-4.4c4.9,0,8.8,1,11.8,3.1c3.6,2.5,5.4,6.3,5.4,11.4V918z
			 M138.1,918.5c0-1.1-0.4-2.1-1.1-2.9c-0.7-0.8-1.6-1.2-2.7-1.2c-1,0-1.9,0.4-2.7,1.2c-0.7,0.8-1.1,1.8-1.1,2.9
			c0,1.1,0.4,2.1,1.1,2.9c0.7,0.8,1.6,1.2,2.7,1.2c1,0,1.9-0.4,2.7-1.2C137.7,920.5,138.1,919.6,138.1,918.5z"/>
		<path class="st6" d="M189.7,926.7h-6.9c-4.3-4.2-8.7-7.1-13.1-8.8v0.6c0,2.6-0.9,4.7-2.7,6.5c-1.8,1.8-3.9,2.6-6.2,2.6
			c-2.5,0-4.6-1-6.4-2.9s-2.7-4.2-2.7-6.8c0-2.6,0.9-4.9,2.7-6.8c1.8-1.9,3.9-2.8,6.4-2.8h0.8v-12.5c-0.7,0.2-1.4,0.2-1.9,0.2
			c-2.4,0-4.4-0.9-6-2.7c-1.6-1.8-2.5-4-2.5-6.5c0-2.5,0.8-4.6,2.5-6.4c1.6-1.8,3.6-2.6,6-2.6c2.5,0,4.6,0.9,6.3,2.8
			c1.7,1.8,2.5,4.2,2.5,7v22.8c5.9,2.2,10.6,5,14.3,8.5v-40.1h6.9V926.7z M163.5,887c0-1.1-0.4-2.1-1.1-2.9
			c-0.7-0.8-1.6-1.2-2.7-1.2c-1,0-1.9,0.4-2.7,1.2c-0.7,0.8-1.1,1.8-1.1,2.9c0,1.1,0.4,2.1,1.1,2.9c0.7,0.8,1.6,1.2,2.7,1.2
			c1,0,1.9-0.4,2.7-1.2C163.1,889.1,163.5,888.1,163.5,887z M164.6,918c0-1.1-0.4-2.1-1.1-2.9c-0.7-0.8-1.6-1.2-2.7-1.2
			c-1,0-1.9,0.4-2.7,1.2c-0.7,0.8-1.1,1.8-1.1,2.9c0,1.1,0.4,2.1,1.1,2.9c0.7,0.8,1.6,1.2,2.7,1.2c1,0,1.9-0.4,2.7-1.2
			C164.2,920.1,164.6,919.1,164.6,918z"/>
		<path class="st6" d="M238.6,926.7h-6.9v-26.6c0-2.2-0.4-3.2-1.2-3.2c-0.6,0-1.4,1-2.6,3l-14.5,26.9h-6.5v-30.8
			c-0.7,0.2-1.4,0.2-1.9,0.2c-2.4,0-4.4-0.9-6-2.7c-1.6-1.8-2.5-4-2.5-6.5c0-2.5,0.8-4.6,2.5-6.4c1.6-1.8,3.6-2.6,6-2.6
			c2.5,0,4.6,0.9,6.3,2.8c1.7,1.8,2.5,4.2,2.5,7v17.9c0,2.1-0.4,6.3-1.3,12.7c0.7-3.4,1.9-6.6,3.3-9.5l6.1-11.4
			c1.3-2.4,2.5-3.8,3.6-4.1c-1.5-2-2.2-4.1-2.2-6.2c0-2.6,0.8-4.7,2.5-6.5c1.6-1.8,3.6-2.6,6-2.6c2.4,0,4.4,0.9,6,2.6
			c1.6,1.8,2.5,3.9,2.5,6.5c0,2.6-1,5-3.1,7c1,2,1.5,4.2,1.5,6.5V926.7z M208.8,887c0-1.1-0.4-2.1-1.1-2.9c-0.7-0.8-1.6-1.2-2.7-1.2
			c-1,0-1.9,0.4-2.7,1.2c-0.7,0.8-1.1,1.8-1.1,2.9c0,1.1,0.4,2.1,1.1,2.9c0.7,0.8,1.6,1.2,2.7,1.2c1,0,1.9-0.4,2.7-1.2
			C208.4,889.1,208.8,888.1,208.8,887z M235.5,887c0-1.1-0.4-2.1-1.1-2.9c-0.7-0.8-1.6-1.2-2.7-1.2c-1,0-1.9,0.4-2.7,1.2
			c-0.7,0.8-1.1,1.8-1.1,2.9c0,1.1,0.4,2.1,1.1,2.9c0.7,0.8,1.6,1.2,2.7,1.2c1,0,1.9-0.4,2.7-1.2C235.2,889.1,235.5,888.1,235.5,887
			z"/>
		<path class="st6" d="M286.9,904.1c0,3.2-0.8,5.4-2.3,6.6c2.9,1.7,4.4,4.4,4.4,8c0,2.6-0.8,4.7-2.5,6.5c-1.6,1.7-3.6,2.6-5.9,2.6
			c-2.2,0-4-0.7-5.6-2.2s-2.5-3.3-2.8-5.6c-2.4,1.3-4.1,2.2-5.1,2.9c-1.8,1.2-3.2,2.5-4.2,4h-7v-30.8c-0.7,0.2-1.4,0.2-1.9,0.2
			c-2.4,0-4.4-0.9-6-2.7c-1.6-1.8-2.5-4-2.5-6.5c0-2.5,0.8-4.6,2.5-6.4c1.6-1.8,3.6-2.6,6-2.6c2.5,0,4.6,0.9,6.3,2.8
			c1.7,1.8,2.5,4.2,2.5,7v30.5c1.2-1,3.9-2.4,8-4.2c3.7-1.7,6.3-3.4,7.7-5c1-1.2,1.6-3.1,1.6-5.8v-24.2h6.9V904.1z M257.6,887
			c0-1.1-0.4-2.1-1.1-2.9c-0.7-0.8-1.6-1.2-2.7-1.2c-1,0-1.9,0.4-2.7,1.2c-0.7,0.8-1.1,1.8-1.1,2.9c0,1.1,0.4,2.1,1.1,2.9
			c0.7,0.8,1.6,1.2,2.7,1.2c1,0,1.9-0.4,2.7-1.2C257.3,889.1,257.6,888.1,257.6,887z M284.2,918.6c0-1.1-0.4-2-1.1-2.8
			c-0.7-0.8-1.6-1.2-2.7-1.2c-1,0-1.9,0.4-2.7,1.2c-0.7,0.8-1.1,1.7-1.1,2.8c0,1.1,0.4,2.1,1.1,2.8c0.7,0.8,1.6,1.2,2.7,1.2
			c1,0,1.9-0.4,2.7-1.2C283.8,920.7,284.2,919.7,284.2,918.6z"/>
		<path class="st6" d="M293.7,850.3c-0.7,4.2-1.8,7.8-3.1,10.7s-3,5.2-5.1,6.9c-2.1,1.7-4.5,2.9-7.3,3.7c-2.8,0.7-6,1.1-9.6,1.1
			h-3.7v-4.8c1.5-0.1,2.7-0.6,3.7-1.7c1-1,1.7-2.1,2.1-3.1c-1.9-0.3-3.3-1.2-4.4-2.6c-1.1-1.4-1.6-3.2-1.6-5.3c0-2.2,0.7-4,2.2-5.4
			s3.1-2.2,5.1-2.2c2.2,0,4,0.8,5.2,2.3c1.3,1.5,1.9,3.4,1.9,5.8c0,2.3-0.5,4.6-1.6,6.7c-1,2.2-2.1,3.8-3.2,5
			c3.7-0.7,6.7-2.7,9.1-5.8c2.3-3.2,3.6-6.9,3.7-11.2H293.7z M274.6,855.3c0-0.9-0.3-1.6-0.8-2.2c-0.6-0.6-1.2-0.9-2.1-0.9
			c-0.8,0-1.5,0.3-2,0.9c-0.5,0.6-0.8,1.3-0.8,2.2c0,0.9,0.3,1.6,0.8,2.2c0.5,0.6,1.2,0.9,2,0.9c0.8,0,1.5-0.3,2.1-0.9
			C274.3,857,274.6,856.2,274.6,855.3z"/>
		<path class="st6" d="M324.3,926.7h-6.9v-34.8c0-2.2-0.7-4-2.1-5.4c-1.4-1.4-3.3-2.1-5.8-2.1s-4.5,0.9-6,2.6
			c-1.6,1.7-2.4,3.9-2.5,6.6h-6.7c0.2-4.8,1.7-8.6,4.4-11.5c2.7-2.8,6.3-4.3,10.8-4.3c4.2,0,7.7,1.1,10.5,3.4
			c2.9,2.3,4.3,5.7,4.3,10.4V926.7z"/>
		<path class="st6" d="M368,926.7H361V895c0-3.3-0.9-5.9-2.8-7.8c-1.9-1.9-4.3-2.9-7.4-2.9c-4.5,0-7.8,2-10.2,6
			c3.5,0.7,6,2.5,7.5,5.4c-3.8,2.4-5.7,5.3-5.7,8.6v22.3h-6.9v-22.8c0-3.4,1.5-6,4.6-7.9c-1.9-1.4-4.1-1.8-6.8-1.4
			c0.1-5,1.9-9,5.4-12.2c3.1-3,7.1-4.4,11.9-4.4c5.4,0,9.6,1.5,12.7,4.6c3.1,3.1,4.6,7.3,4.6,12.5V926.7z"/>
		<path class="st6" d="M405.4,926.7h-6.9v-34.8c0-2.2-0.7-4-2.1-5.4c-1.4-1.4-3.3-2.1-5.8-2.1s-4.5,0.9-6,2.6
			c-1.6,1.7-2.4,3.9-2.5,6.6h-6.7c0.2-4.8,1.7-8.6,4.4-11.5c2.7-2.8,6.3-4.3,10.8-4.3c4.2,0,7.7,1.1,10.5,3.4
			c2.9,2.3,4.3,5.7,4.3,10.4V926.7z"/>
		<path class="st6" d="M449,926.7h-6.9V895c0-3.3-0.9-5.9-2.8-7.8c-1.9-1.9-4.3-2.9-7.4-2.9c-4.5,0-7.8,2-10.2,6
			c3.5,0.7,6,2.5,7.5,5.4c-3.8,2.4-5.7,5.3-5.7,8.6v22.3h-6.9v-22.8c0-3.4,1.5-6,4.6-7.9c-1.9-1.4-4.1-1.8-6.8-1.4
			c0.1-5,1.9-9,5.4-12.2c3.1-3,7.1-4.4,11.9-4.4c5.4,0,9.6,1.5,12.7,4.6c3.1,3.1,4.6,7.3,4.6,12.5V926.7z"/>
		<path class="st6" d="M492.7,926.7h-6.9V895c0-3.3-0.9-5.9-2.8-7.8c-1.9-1.9-4.3-2.9-7.4-2.9c-4.5,0-7.8,2-10.2,6
			c3.5,0.7,6,2.5,7.5,5.4c-3.8,2.4-5.7,5.3-5.7,8.6v22.3h-6.9v-22.8c0-3.4,1.5-6,4.6-7.9c-1.9-1.4-4.1-1.8-6.8-1.4
			c0.1-5,1.9-9,5.4-12.2c3.1-3,7.1-4.4,11.9-4.4c5.4,0,9.6,1.5,12.7,4.6c3.1,3.1,4.6,7.3,4.6,12.5V926.7z"/>
		<path class="st6" d="M503.9,849.6c-1.9,13.3-8.6,19.9-20.1,19.9c-4.5,0-7.9-1-10.3-2.9c-2.4-2-3.6-4.5-3.6-7.5
			c0-2.3,0.7-4.3,2.2-5.9c1.5-1.6,3.3-2.4,5.5-2.4c2.3,0,4.2,0.8,5.6,2.5c1.5,1.6,2.2,3.6,2.2,5.8c0,2.2-0.6,3.8-1.7,4.8
			c7.7-0.3,12.2-5.1,13.5-14.3H503.9z M481.1,859.1c0-1-0.3-1.9-1-2.6c-0.7-0.7-1.5-1.1-2.5-1.1c-1,0-1.8,0.4-2.4,1.1
			c-0.6,0.7-0.9,1.6-0.9,2.6c0,1,0.3,1.9,0.9,2.6c0.6,0.7,1.4,1,2.4,1c1,0,1.8-0.3,2.5-1C480.7,861,481.1,860.1,481.1,859.1z"/>
		<path class="st6" d="M541,904.1c0,3.2-0.8,5.4-2.3,6.6c2.9,1.7,4.4,4.4,4.4,8c0,2.6-0.8,4.7-2.5,6.5c-1.6,1.7-3.6,2.6-5.9,2.6
			c-2.2,0-4-0.7-5.6-2.2c-1.6-1.5-2.5-3.3-2.8-5.6c-2.4,1.3-4.1,2.2-5.1,2.9c-1.8,1.2-3.2,2.5-4.2,4h-7v-30.8
			c-0.7,0.2-1.4,0.2-1.9,0.2c-2.4,0-4.4-0.9-6-2.7c-1.6-1.8-2.5-4-2.5-6.5c0-2.5,0.8-4.6,2.5-6.4c1.6-1.8,3.6-2.6,6-2.6
			c2.5,0,4.6,0.9,6.3,2.8c1.7,1.8,2.5,4.2,2.5,7v30.5c1.2-1,3.9-2.4,8-4.2c3.7-1.7,6.3-3.4,7.7-5c1-1.2,1.6-3.1,1.6-5.8v-24.2h6.9
			V904.1z M511.7,887c0-1.1-0.4-2.1-1.1-2.9c-0.7-0.8-1.6-1.2-2.7-1.2c-1,0-1.9,0.4-2.7,1.2c-0.7,0.8-1.1,1.8-1.1,2.9
			c0,1.1,0.4,2.1,1.1,2.9c0.7,0.8,1.6,1.2,2.7,1.2c1,0,1.9-0.4,2.7-1.2C511.4,889.1,511.7,888.1,511.7,887z M538.3,918.6
			c0-1.1-0.4-2-1.1-2.8c-0.7-0.8-1.6-1.2-2.7-1.2c-1,0-1.9,0.4-2.7,1.2c-0.7,0.8-1.1,1.7-1.1,2.8c0,1.1,0.4,2.1,1.1,2.8
			c0.7,0.8,1.6,1.2,2.7,1.2c1,0,1.9-0.4,2.7-1.2C537.9,920.7,538.3,919.7,538.3,918.6z"/>
		<path class="st6" d="M585.5,926.7h-6.9V906c0-2.4-1.3-4.2-3.8-5.5c-1.9-1-4.1-1.4-6.5-1.4c-2.3,0-4.3,0.6-5.9,1.8
			c-2,1.4-3,3.4-3,5.8v3c1-0.2,1.7-0.2,2-0.2c2.4,0,4.4,0.9,6.1,2.7c1.7,1.8,2.6,3.9,2.6,6.4c0,2.6-0.9,4.7-2.7,6.5
			c-1.8,1.8-3.8,2.6-6.1,2.6c-2.5,0-4.5-0.9-6.2-2.6c-1.7-1.7-2.6-3.9-2.6-6.5v-11c0-4.7,1.6-8.4,4.9-11c2.9-2.3,6.5-3.5,10.8-3.5
			c4.6,0,8.1,1.4,10.4,4.1v-5.3c0-2.5-1.3-4.4-4-5.7c-2.1-1-4.4-1.5-7-1.5c-2.9,0-5.4,0.7-7.5,2.1c-2.3,1.6-3.7,3.7-4.1,6.4h-6.7
			c0.4-4.9,2.4-8.6,5.9-11.3c3.3-2.5,7.5-3.7,12.6-3.7c3.3,0,6.4,0.6,9,1.9c1.6-1.5,2.3-3.4,2.3-5.8h7.8c-0.9,4.1-2.5,7.2-4.8,9.5
			c2.2,2.6,3.3,5.5,3.3,8.9V926.7z M565.2,918.5c0-1.1-0.4-2.1-1.1-2.9c-0.7-0.8-1.6-1.2-2.7-1.2c-1,0-1.9,0.4-2.7,1.2
			c-0.7,0.8-1.1,1.8-1.1,2.9c0,1.1,0.4,2.1,1.1,2.9c0.7,0.8,1.6,1.2,2.7,1.2c1,0,1.9-0.4,2.7-1.2
			C564.8,920.5,565.2,919.6,565.2,918.5z"/>
		<path class="st6" d="M622.9,926.7H616v-34.8c0-2.2-0.7-4-2.1-5.4c-1.4-1.4-3.3-2.1-5.8-2.1s-4.5,0.9-6,2.6
			c-1.6,1.7-2.4,3.9-2.5,6.6h-6.7c0.2-4.8,1.7-8.6,4.4-11.5c2.7-2.8,6.3-4.3,10.8-4.3c4.2,0,7.7,1.1,10.5,3.4
			c2.9,2.3,4.3,5.7,4.3,10.4V926.7z"/>
		<path class="st6" d="M658.9,918.7c0,2.6-0.8,4.7-2.5,6.4c-1.7,1.7-3.7,2.6-6.1,2.6c-2.4,0-4.4-0.9-6.1-2.6
			c-1.7-1.8-2.5-3.9-2.5-6.5c0-2.6,0.8-4.7,2.5-6.5c1.7-1.8,3.7-2.6,6.1-2.6c0.9,0,1.5,0,1.7,0.1v-10.3c0-1.3-2.5-2.5-7.4-3.8
			c-4.9-1.2-9.4-2.2-13.4-2.9c0.1-4.4,1.2-7.9,3.2-10.6c2-2.7,4.9-4,8.7-4c1.6,0,3.7,0.4,6.4,1.1c2.7,0.8,4.7,1.1,5.9,1.1
			c1.3,0,2-0.9,2.1-2.6l5.5,1.6c-1.3,4.9-3.8,7.3-7.4,7.3c-1.3,0-3.3-0.3-5.7-1c-2.5-0.7-4.4-1-5.6-1c-3.3,0-5.1,1.3-5.6,4
			c5.7,1.3,10.5,2.6,14.4,4.1c3.9,1.4,5.9,3.9,5.9,7.4V918.7z M654.1,918.6c0-1.1-0.4-2.1-1.1-2.9c-0.8-0.8-1.7-1.2-2.7-1.2
			s-2,0.4-2.7,1.2c-0.8,0.8-1.1,1.8-1.1,2.9c0,1.1,0.4,2.1,1.1,2.9c0.8,0.8,1.7,1.2,2.7,1.2s2-0.4,2.7-1.2
			C653.7,920.7,654.1,919.7,654.1,918.6z"/>
		<path class="st6" d="M688.1,918.6c0,2.6-0.8,4.7-2.5,6.5c-1.7,1.8-3.7,2.6-6,2.6c-2.5,0-4.6-0.9-6.4-2.8c-1.7-1.8-2.6-4.2-2.6-7
			v-39.1h6.9v30.8c0.4-0.2,1-0.2,2-0.2c2.3,0,4.3,0.9,6,2.6C687.3,913.9,688.1,916,688.1,918.6z M683.4,918.6c0-1.1-0.4-2.1-1.1-2.9
			c-0.7-0.8-1.6-1.2-2.7-1.2c-1,0-1.9,0.4-2.7,1.2c-0.7,0.8-1.1,1.8-1.1,2.9c0,1.1,0.4,2.1,1.1,2.9c0.7,0.8,1.6,1.2,2.7,1.2
			c1,0,1.9-0.4,2.7-1.2C683,920.7,683.4,919.7,683.4,918.6z"/>
		<path class="st6" d="M727.8,926.7h-6.9v-32.7c0-2.9-1.2-5.3-3.5-7.2c-2.2-1.7-4.6-2.5-7.5-2.5c-3.3,0-6,1.2-8,3.6
			c-2,2.4-3,5.2-3,8.4c0,0.9,0.2,2.3,0.5,4.4c0.3,2,0.5,3.8,0.5,5.3v3.4c0-0.1,0.1-0.9,0.4-2.6c0.3-1.6,0.4-2.9,0.5-3.8
			c0.7-3.4,1.9-6.2,3.5-8.4c1.9-2.9,4.2-4.3,6.7-4.3c2,0,3.8,0.8,5.2,2.3c1.5,1.5,2.2,3.4,2.2,5.5c0,2.1-0.7,3.9-2.2,5.5
			c-1.5,1.6-3.2,2.3-5.2,2.3c-1.9,0-3.5-0.7-5-2.2c-2.2,7.3-3.3,14.9-3.3,22.9h-6.9v-7.7c0-3.8-0.6-7.9-1.8-12.3
			c-1.2-4.4-1.8-7.9-1.8-10.5c0-5.5,1.9-10,5.6-13.4c3.5-3.3,7.8-4.9,12.9-4.9c4.7,0,8.6,1.3,11.8,4c3.6,3,5.5,7.2,5.5,12.4V926.7z
			 M714.3,898.2c0-1-0.3-1.9-1-2.6c-0.7-0.7-1.5-1.1-2.5-1.1c-1,0-1.8,0.4-2.4,1.1c-0.6,0.7-0.9,1.6-0.9,2.6c0,1,0.3,1.9,0.9,2.6
			c0.6,0.7,1.4,1,2.4,1c1,0,1.8-0.3,2.5-1C714,900.1,714.3,899.2,714.3,898.2z"/>
		<path class="st6" d="M774.3,926.7h-6.9c-4.3-4.2-8.7-7.1-13.1-8.8v0.6c0,2.6-0.9,4.7-2.7,6.5c-1.8,1.8-3.9,2.6-6.2,2.6
			c-2.5,0-4.6-1-6.4-2.9c-1.8-1.9-2.7-4.2-2.7-6.8c0-2.6,0.9-4.9,2.7-6.8c1.8-1.9,3.9-2.8,6.4-2.8h0.8v-12.5
			c-0.7,0.2-1.4,0.2-1.9,0.2c-2.4,0-4.4-0.9-6-2.7c-1.6-1.8-2.5-4-2.5-6.5c0-2.5,0.8-4.6,2.5-6.4c1.6-1.8,3.6-2.6,6-2.6
			c2.5,0,4.6,0.9,6.3,2.8c1.7,1.8,2.5,4.2,2.5,7v22.8c5.9,2.2,10.6,5,14.3,8.5v-40.1h6.9V926.7z M748.1,887c0-1.1-0.4-2.1-1.1-2.9
			c-0.7-0.8-1.6-1.2-2.7-1.2c-1,0-1.9,0.4-2.7,1.2c-0.7,0.8-1.1,1.8-1.1,2.9c0,1.1,0.4,2.1,1.1,2.9c0.7,0.8,1.6,1.2,2.7,1.2
			c1,0,1.9-0.4,2.7-1.2C747.7,889.1,748.1,888.1,748.1,887z M749.2,918c0-1.1-0.4-2.1-1.1-2.9c-0.7-0.8-1.6-1.2-2.7-1.2
			c-1,0-1.9,0.4-2.7,1.2c-0.7,0.8-1.1,1.8-1.1,2.9c0,1.1,0.4,2.1,1.1,2.9c0.7,0.8,1.6,1.2,2.7,1.2c1,0,1.9-0.4,2.7-1.2
			C748.8,920.1,749.2,919.1,749.2,918z"/>
		<path class="st6" d="M774.5,872.7c-9.2-3.2-17.7-4.8-25.3-4.8c-3.5,0-7,0.2-10.6,0.7c0.9-10.7,6.3-16.1,16.3-16.1
			c5.3,0,9.5,1.6,12.7,4.7V849h6.7v22.1C774.4,871.6,774.5,872.2,774.5,872.7z M767.4,865.7c-0.4-2-1.8-3.9-4-5.6
			c-2.2-1.8-4.8-2.6-7.6-2.6c-2.7,0-5,0.6-6.9,1.7c-1.9,1.2-3.2,2.7-3.7,4.6c1.3-0.3,3.2-0.5,5.9-0.5
			C756.6,863.3,762,864.1,767.4,865.7z"/>
	</g>
	<g>
		<path class="st3" d="M451.7,54.9c191,17,332.1,185.6,315.1,376.6c-17,191-185.6,332.1-376.6,315.1C199.2,729.6,58.1,561,75.1,370
			C92.1,179,260.7,37.9,451.7,54.9"/>
		<g>
			<path class="st7" d="M536.9,638.3c-7.3,13.9-15.8,27.2-25.5,39.6L410.1,677l-9.9-13.9c-0.3-0.1-0.6-0.2-1-0.2c-0.2,0-0.4,0-0.6,0
				c-27.9,7.2-57.6,2.5-81.9-12.9c-24.8-17.9-41.6-44.9-46.8-75.1c-0.3-0.6-0.7-1.2-1.1-1.7c-2.6-3.4-5.5-6.6-8.7-9.5
				c-10.2-9.9-16.3-23.2-17.3-37.3c-0.5-16.5-0.8-33-0.7-49.4c0-2.2-0.4-4.4-1-6.5c-0.4-1.4-1.1-2.8-2-4
				c-5.5-6.6-10.9-13.4-16.1-20.3c-19.4-23.1-30.9-51.9-32.6-82c-0.1-5.1,0.5-10.3,2-15.2c1.7-8.6,7.3-16,15.1-20
				c0.2,0,0.4-0.1,0.7-0.2l-0.9-15.5c0.3-8.9,1.4-17.8,3.5-26.5c3-10.5,6.5-20.9,10.3-31.1c26.5-51.1,73.6-88.3,129.4-102.2
				c38.4-8.2,78.5-2.8,113.4,15.3c29.8,17.8,55.2,42.1,74.5,71c2.9,5.5,5.7,11.1,8.3,16.8c11.5,28.5,20,58.1,25,88.5
				c3.6,18,4.9,36.3,4,54.6c8.4,6.1,15.4,13.9,20.3,23c3.7,8.1,4.6,17.1,2.8,25.7c17.5,3.1,32.4,14.7,39.8,30.8
				c8.1,16.9,11.6,35.7,10.3,54.4c0,34.8-10.7,68.7-30.9,97.1c-12,19.6-35.9,28.6-57.9,21.8C551.7,649.6,543.6,644.7,536.9,638.3"/>
			<path class="st8" d="M399.4,430.5c-42.4-21.5-81-49.6-114.5-83.2c0-0.1,0-0.2,0.1-0.3c8.5-16.2,14.2-33.8,16.8-51.9
				c26.9,3.8,54.4,2.7,80.9-3.4c-8.2,9.1-19.2,15.1-31.3,17.2c58.1,11.5,118.4,2.4,170.6-25.7l1.5-0.6c7.7,8.3,13.8,18,17.9,28.6
				c12.3,27,18.6,56.4,18.3,86c-8.2,2.6-15.9,6.4-23.1,11.2c-6.7-14-18.5-24.9-33-30.4c-20.4-6.5-42.7-3-60.2,9.5
				C425.9,398.7,410.9,413.3,399.4,430.5"/>
			<path class="st8" d="M574.9,414.3c10.3,8.6,15.5,21.8,14.1,35.1c0.1,0.1,0.1,0.1,0.2,0.2l-10.6,3c-2.7-10.2-9.1-19.1-18-24.9
				C565.8,423.6,570.6,419.1,574.9,414.3"/>
			<path class="st8" d="M379.9,450.1c-59.9-33.7-113.5-77.6-158.4-129.6c-0.9-5,0-10.2,2.4-14.6c47.8,53.9,103.9,99.8,166.2,135.9
				C387.4,445.3,383.9,448.1,379.9,450.1"/>
			<path class="st8" d="M527.4,436.9c1.5,14.2-0.4,28.5-5.5,41.8l-14.8,50.6c-9.6-5.1-21.4-4.3-30.2,2.2
				c-14.3-34.6-36.5-65.3-64.7-89.9c7.2-11.9,16.5-22.5,27.4-31.2c4.1-3.6,8.4-6.7,13-9.5c12.2-9.4,28-12.4,42.8-8.3
				C514.9,398.3,528.1,416.5,527.4,436.9"/>
			<path class="st8" d="M570,457.5c-28.1,28.6-43.9,67-44.1,107.1c-1-8.7-3.6-17.1-7.6-24.9c3-21.6,8.4-42.8,16.2-63.1
				c6.6-12.6,9.2-26.9,7.5-41.1c-0.4-2.9-0.9-5.8-1.6-8.6C554,432.9,564.6,443.9,570,457.5"/>
			<path class="st8" d="M276.1,515.1c-4.6,11-7.7,22.5-9.2,34.4c-0.1,0-0.3-0.1-0.4-0.2l-3-3.4c-3.1-4.7-5.2-10-6.1-15.5l-0.7-8.6
				c-0.7-16.5-0.8-33.1-0.2-49.6c-0.1-2.2-0.4-4.3-1.1-6.4c-0.5-1.5-1.2-3-2.2-4.3c-2-2.6-4-5.1-6.2-7.5
				c-8.2-8.3-15.4-17.5-21.5-27.3c-10-14.5-16.5-31.1-19.1-48.6c-1.2-4.3-1.7-8.7-1.4-13.1c0.2-7.2,2.6-14.1,6.9-19.9
				c2.5-2.5,6.3-3.3,9.7-2.1c2.1,0.9,3.7,2.5,4.8,4.4c6.2,6.2,10.9,13.7,13.6,22c1.5,4.4,2.4,9,2.7,13.7c0.7,3.3,1.3,6.6,1.6,9.9
				c2,2.2,4.8,3.7,7.8,4.2c1.2-8.8,1.7-17.6,1.6-26.5c3.3,4.3,7,8.3,11.1,11.8c-1.2,10-2.8,20-4.7,29.9c3.1,2.8,6.3,5.5,9.6,8
				c1.1-9.8,3.5-19.5,7.2-28.7c15.4,14.8,32,28.4,49.5,40.7c13.9,10,28.2,19.4,42.9,28.2l-18.7,2.8C319,467.9,291.3,487,276.1,515.1
				"/>
			<path class="st8" d="M527.4,622c-26.7,1.4-53.4,1.7-80.1,1c4.6-19.6,11.1-38.7,19.5-57c1.6-8.6,7.7-15.8,16-18.7
				c9.1-3.5,19.4-0.2,24.8,7.9c3.8,5.5,6.2,11.9,7.1,18.5C519.2,589.8,523.4,605.9,527.4,622"/>
			<path class="st8" d="M339,502.7c15,7.1,27,19.1,34.1,34c5.3,11.2,8.8,23.1,10.4,35.4c3.7,19.6-0.6,39.8-11.9,56.1
				c-8.6,12.5-24.5,17.6-38.8,12.5c-4.1-1.8-8-3.9-11.6-6.5c-22.8-18.7-36.3-46.4-37-75.9c-1.8-20.6,6.8-40.7,22.8-53.7l6.7-2.8
				C322.1,499.6,330.9,499.9,339,502.7"/>
			<path class="st8" d="M413.7,609.1c-0.8,6.1-2.9,12-6.1,17.3c0.1,0.1,0.2,0.1,0.3,0.2c6.9-0.8,13.8-1.2,20.7-1.2
				c-4.9,6.1-9.7,12.2-14.3,18.5c-14.4,5.1-29.4,8-44.6,8.7c8.3-7.4,15-16.3,19.8-26.2c11.9-27.9,11.9-59.5-0.2-87.3
				c-8.4-22.9-25.6-41.6-47.8-51.8c-2.2-0.9-4.5-1.5-6.8-1.7c12.1-7.7,26.1-12.1,40.4-12.6c1.9,1.6,3.9,3.1,6,4.5
				c-4.6,2.1-9.3,4.1-14,5.8c2.9,2.2,5.6,4.7,7.9,7.5l-0.1,0.3l13.7-6.1c3.1,1.8,5.9,4,8.3,6.6l-13.7,6.4c3.3,3.6,6.5,7.3,9.5,11
				c4.3-3.3,9.1-5.8,14.2-7.6c3.1,2.3,5.7,5.1,7.9,8.2l-15,8.9c3.7,4.3,6.9,9,9.8,13.9l17.2-6.5c3.6,3.9,5.9,8.8,6.6,14.1l-18.6,5.5
				c2.4,5.8,3.9,11.9,4.4,18.1c7.3-0.7,14.5-2.2,21.5-4.6c1.1,5,1.2,10.2,0.3,15.2c-6.7,2.7-13.9,3.8-21,3.4
				c0,5.2-0.5,10.5-1.5,15.6c6.9,0.7,13.8,0.3,20.6-1.4c-0.5,5.5-1.9,10.9-4.1,15.9C427.8,608.8,420.8,609.3,413.7,609.1"/>
			<path class="st8" d="M517.3,639.5L505,663.1c-0.1,0.1-0.3,0.1-0.4,0.1l-82.8-0.2l-4.1-7.8l18.5-15.3L517.3,639.5"/>
			<path class="st8" d="M274.9,337.9c-0.3-0.2-0.6-0.4-0.9-0.6c-17.1-14.5-33-30.3-47.4-47.5c2.4-16.6,8.8-32.3,18.6-45.9
				c24.4-36.4,61-63,103.2-74.9c37.5-9.3,77.2-4.7,111.6,13c14.7,8.7,28.2,19.3,40.1,31.6c23.2,24,40.1,53.4,49,85.5
				c-4-14.3-12.7-26.9-24.7-35.7c-39.3,25.6-85.4,38.8-132.4,38c8.1-7.3,13.2-17.4,14.3-28.2c-37.6,12.8-78,14.9-116.8,6.2
				c-0.7,12.5-2.8,24.9-6.4,36.9C281.2,323.8,278.4,331,274.9,337.9"/>
			<path class="st8" d="M456.4,560c-10.1-40.4-32.6-76.6-64.3-103.6l9.9-6.8c28,24.6,50.1,55.3,64.6,89.7
				C460.6,544.6,457,552,456.4,560"/>
			<path class="st7" d="M325.1,603.2c-10.8-8.9-17.1-22-17.4-35.9c-0.3-4.8,0.6-9.6,2.6-14c1.8-5.4,6.1-9.6,11.5-11.3
				c5.4-1.7,11.4-0.6,15.9,2.9c13.7,10.5,20.6,27.6,17.9,44.6c-0.5,7-4.8,13.1-11.2,15.9C338.1,608.3,330.7,607.5,325.1,603.2"/>
			<path class="st7" d="M608.1,596.5c-0.9-0.6-1.6-1.5-2-2.4c-0.4-0.8-0.7-1.6-0.9-2.5c-0.9-3.3-1.2-6.8-1-10.2
				c0.4-14.4,4.4-28.4,11.7-40.8c1.4-2.2,3.2-4.1,5.3-5.6c0.7-0.5,1.5-0.7,2.4-0.8c0.3,0,0.7,0,1,0.1c0.5,0.1,1,0.4,1.5,0.7
				c0.6,0.5,1,1.1,1.4,1.7c0.4,0.8,0.8,1.6,1,2.4c1,3.4,1.4,7,1.2,10.5c-0.3,13.5-3.8,26.6-10.1,38.5c-1,1.8-2.1,3.5-3.4,5.1
				c-0.9,1-1.8,1.9-2.9,2.7c-0.6,0.5-1.3,0.8-2.1,1c-0.5,0.1-1,0.1-1.5,0.1c-0.1,0-0.2,0-0.3,0C608.9,596.9,608.5,596.7,608.1,596.5
				"/>
			<path class="st8" d="M545.4,415.4l15.7-10.3c3.6,0.4,6.8,2.4,8.8,5.5c-4.8,3.9-9.8,7.5-14.9,11
				C551.6,419.7,548.4,417.6,545.4,415.4"/>
			<path class="st8" d="M557.4,600.1c0.6,6.1,2.2,12,4.6,17.3c-0.1,0.1-0.2,0.1-0.3,0.2c-5.2-0.8-10.4-1.2-15.6-1.2
				c3.7,6.1,7.3,12.2,10.8,18.5c10.8,5.1,22.1,8,33.6,8.7c-6.2-7.4-11.3-16.3-14.9-26.2c-9-27.9-8.9-59.5,0.2-87.3
				c6.3-22.9,19.3-41.6,36-51.8c1.6-0.9,3.4-1.5,5.1-1.7c-9.1-7.7-19.6-12.1-30.4-12.6c-1.4,1.6-2.9,3.1-4.5,4.5
				c3.5,2.1,7,4.1,10.6,5.8c-2.2,2.2-4.2,4.7-5.9,7.5l0.1,0.3l-10.3-6.1c-2.3,1.8-4.4,4-6.3,6.6l10.3,6.4c-2.5,3.6-4.9,7.3-7.2,11
				c-3.2-3.3-6.8-5.8-10.7-7.6c-2.3,2.3-4.3,5.1-6,8.2l11.3,8.9c-2.8,4.3-5.2,9-7.4,13.9l-12.9-6.5c-2.7,3.9-4.5,8.8-4.9,14.1
				l14,5.5c-1.8,5.8-2.9,11.9-3.3,18.1c-5.5-0.7-10.9-2.2-16.2-4.6c-0.8,5-0.9,10.2-0.2,15.2c5,2.7,10.4,3.8,15.8,3.4
				c0,5.2,0.4,10.5,1.1,15.6c-5.2,0.7-10.4,0.3-15.5-1.4c0.4,5.5,1.4,10.9,3.1,15.9C546.8,599.8,552.1,600.3,557.4,600.1"/>
			<path class="st8" d="M599.1,631.6c0,0-35.2-87.3,28-144.1C627.2,487.5,653.6,573.2,599.1,631.6"/>
			<path class="st7" d="M604.3,592.3c-0.9-0.6-1.6-1.4-2.2-2.3c-0.4-0.8-0.8-1.6-1.1-2.5c-1.1-3.3-1.6-6.7-1.6-10.2
				c-0.5-14.4,2.6-28.6,9-41.5c1.2-2.3,2.9-4.3,4.9-5.9c0.7-0.5,1.5-0.8,2.3-0.9c0.3,0,0.7,0,1,0c0.5,0.1,1.1,0.3,1.5,0.6
				c0.6,0.4,1.1,1,1.5,1.6c0.5,0.7,0.9,1.5,1.2,2.3c1.2,3.3,1.8,6.9,1.8,10.4c0.5,13.4-2,26.8-7.6,39.1c-0.8,1.9-1.9,3.7-3.1,5.3
				c-0.8,1.1-1.7,2-2.7,2.9c-0.6,0.5-1.3,0.9-2,1.1c-0.5,0.1-1,0.2-1.5,0.2c-0.1,0-0.2,0-0.3,0C605.1,592.6,604.7,592.5,604.3,592.3
				"/>
		</g>
	</g>
</g>
</svg>
