<?xml version="1.0" encoding="utf-8"?>
<!-- Generator: Adobe Illustrator 22.0.0, SVG Export Plug-In . SVG Version: 6.00 Build 0)  -->
<svg version="1.1" id="Layer_1" xmlns="http://www.w3.org/2000/svg" xmlns:xlink="http://www.w3.org/1999/xlink" x="0px" y="0px"
	 viewBox="0 0 841.9 1190.6" style="enable-background:new 0 0 841.9 1190.6;" xml:space="preserve">
<style type="text/css">
	.st0{fill:none;}
	.st1{fill:#010101;}
	.st2{fill:#FFFFFF;}
	.st3{fill:#EB2227;}
	.st4{fill:#EB2627;}
	.st5{fill:#2A3B8F;}
	.st6{fill:#FFFFFF;stroke:#FFFFFF;stroke-miterlimit:10;}
	.st7{fill-rule:evenodd;clip-rule:evenodd;}
	.st8{fill:#EC2727;}
</style>
<g>
	<g>
		<rect x="-0.3" y="0.5" class="st0" width="841.9" height="1190.6"/>
		<rect x="28" y="28.8" class="st1" width="785.2" height="1133.9"/>
		<rect x="33.7" y="34.5" class="st2" width="773.9" height="1122.5"/>
		<rect x="52.2" y="793.1" class="st3" width="737" height="348.7"/>
		<g id="stecon_40_">
			<path id="red_40_" class="st4" d="M52.5,54c42.5,0,85,0,127.6,0c0,22.6,0,45.1,0,67.7c-42.5,0-85,0-127.5,0c0-0.2,0-0.5,0-0.7
				c0-22.1,0-44.2,0-66.3C52.5,54.5,52.5,54.2,52.5,54z M55.4,87.8c0.2,0.1,0.4,0.2,0.5,0.3c3.6,1.8,7.1,3.7,10.7,5.5
				c16.4,8.4,32.7,16.8,49.1,25.2c0.4,0.2,0.7,0.2,1.1,0c13.8-7.1,27.6-14.2,41.4-21.3c6.1-3.2,12.3-6.3,18.4-9.5
				c0.1-0.1,0.3-0.2,0.5-0.3c-0.2-0.1-0.3-0.2-0.5-0.3c-3.8-1.9-7.6-3.9-11.4-5.8c-16.2-8.3-32.4-16.7-48.5-25
				c-0.3-0.2-0.5-0.2-0.9,0c-7,3.6-14.1,7.3-21.1,10.9C82.2,74.1,69.6,80.5,57,87C56.5,87.3,56,87.5,55.4,87.8z"/>
			<g id="white_40_">
				<path class="st2" d="M55.4,87.8c0.6-0.3,1.1-0.6,1.6-0.8c12.6-6.5,25.2-12.9,37.7-19.4c7-3.6,14.1-7.2,21.1-10.9
					c0.3-0.2,0.6-0.1,0.9,0c16.2,8.3,32.4,16.7,48.5,25c3.8,1.9,7.6,3.9,11.4,5.8c0.1,0.1,0.3,0.1,0.5,0.3c-0.2,0.1-0.3,0.2-0.5,0.3
					c-6.1,3.2-12.3,6.3-18.4,9.5c-13.8,7.1-27.6,14.2-41.4,21.3c-0.4,0.2-0.7,0.2-1.1,0C99.4,110.4,83,102,66.7,93.6
					c-3.6-1.8-7.1-3.7-10.7-5.5C55.8,88,55.7,88,55.4,87.8z M59.4,87.8c0.2,0.1,0.3,0.2,0.4,0.2c1,0.5,1.9,1,2.9,1.5
					c17.7,9.1,35.5,18.2,53.2,27.3c0.3,0.1,0.5,0.2,0.8,0c12.9-6.6,25.7-13.2,38.6-19.8c5.8-3,11.6-6,17.5-9
					c0.1-0.1,0.3-0.2,0.5-0.3c-0.2-0.1-0.4-0.2-0.6-0.3c-15.9-8.2-31.9-16.4-47.8-24.5c-2.7-1.4-5.5-2.8-8.2-4.2
					c-0.2-0.1-0.4-0.1-0.7,0c-0.3,0.2-0.7,0.4-1.1,0.6C96.6,68.7,78.3,78.1,60,87.5C59.8,87.6,59.6,87.7,59.4,87.8z"/>
				<path class="st2" d="M147.1,80c1.4,0,2.7,0,4.1,0c0,5.2,0,10.3,0,15.4c-1.4,0-2.8,0-4.2,0c-0.9-2.6-1.8-5.3-2.7-7.9
					c0,0-0.1,0-0.1,0c0,2.6,0,5.2,0,7.9c-1.4,0-2.7,0-4,0c0,0,0,0,0,0c0,0,0,0,0,0c0-0.1,0-0.2,0-0.3c0-4.9,0-9.9,0-14.8
					c0,0,0-0.1,0-0.2c0.1,0,0.3,0,0.4,0c1.2,0,2.3,0,3.5,0c0.4,0,0.4,0,0.5,0.4c0.8,2.5,1.6,5,2.4,7.5c0,0.1,0.1,0.2,0.2,0.4
					C147.1,85.5,147.1,82.8,147.1,80z"/>
				<path class="st2" d="M138.5,87.8c0,1.5,0,3,0,4.5c0,0.8-0.3,1.4-0.8,1.9c-0.7,0.7-1.6,1.2-2.6,1.3c-1.5,0.3-3.1,0.3-4.6-0.1
					c-0.9-0.2-1.6-0.6-2.3-1.3c-0.5-0.5-0.8-1.1-0.8-1.9c0-3,0-6.1,0-9.1c0-0.7,0.2-1.3,0.7-1.8c0.6-0.7,1.4-1.2,2.3-1.4
					c1.7-0.4,3.5-0.4,5.2,0.1c0.7,0.2,1.4,0.6,2,1.2c0.6,0.5,0.9,1.2,0.8,2C138.5,84.8,138.5,86.3,138.5,87.8z M133.8,87.8
					c0-1.5,0-2.9,0-4.4c0-0.7-0.1-0.9-0.8-0.9c-0.1,0-0.2,0-0.2,0c-0.5,0.1-0.6,0.2-0.6,0.7c0,3,0,6,0,9c0,0.5,0.1,0.7,0.6,0.7
					c0.2,0,0.3,0,0.5,0c0.5-0.1,0.6-0.2,0.6-0.7C133.8,90.8,133.8,89.3,133.8,87.8z"/>
				<path class="st2" d="M126.4,89.4c0,0.2,0,0.3,0,0.5c0,0.8,0,1.6,0,2.4c0,0.8-0.3,1.5-0.9,2c-0.7,0.7-1.5,1.1-2.5,1.3
					c-1.5,0.3-3,0.3-4.5-0.1c-0.8-0.2-1.5-0.6-2.2-1.2c-0.6-0.6-0.9-1.2-0.9-2.1c0-3,0-5.9,0-8.9c0-0.9,0.3-1.6,0.9-2.1
					c0.7-0.7,1.6-1.1,2.5-1.2c1.4-0.2,2.9-0.2,4.3,0.1c0.9,0.2,1.6,0.6,2.3,1.2c0.6,0.6,0.9,1.2,0.9,2.1c0,0.8,0,1.7,0,2.5
					c0,0.2,0,0.3,0,0.5c-1.6,0-3.1,0-4.6,0c0-0.2,0-0.3,0-0.5c0-0.9,0-1.7,0-2.6c0-0.5-0.1-0.6-0.6-0.7c-0.1,0-0.2,0-0.3,0
					c-0.7,0.1-0.7,0.3-0.7,0.8c0,2.9,0,5.9,0,8.8c0,0.1,0,0.2,0,0.3c0,0.2,0.1,0.4,0.3,0.4c0.1,0,0.3,0.1,0.4,0.1
					c0.6,0.1,0.8-0.2,0.8-0.8c0-0.8,0-1.5,0-2.3c0-0.2,0-0.3,0-0.5C122,89.3,125.7,89.3,126.4,89.4z"/>
				<path class="st2" d="M105.2,95.4c0-5.1,0-10.2,0-15.3c0.4-0.1,8.7-0.1,9.1,0c0,0.8,0,1.6,0,2.5c-0.1,0-0.3,0-0.4,0
					c-1.1,0-2.2,0-3.3,0c-0.1,0-0.3,0-0.5,0c0,1.4,0,2.7,0,4.1c1,0,2.1,0,3.1,0c0,0.8,0,1.5,0,2.2c-0.4,0.1-0.7,0.1-1,0.1
					c-0.3,0-0.7,0-1,0c-0.3,0-0.7,0-1,0c-0.1,0.3-0.1,2.8,0,3.7c0.1,0,0.3,0,0.5,0c1.1,0,2.2,0,3.3,0c0.2,0,0.3,0,0.5,0
					c0,0.9,0,1.8,0,2.6C113.9,95.4,105.7,95.5,105.2,95.4z"/>
				<path class="st2" d="M100.7,95.4c-1.6,0-3.1,0-4.7,0c0-4.3,0-8.5,0-12.8c-1,0-2,0-3,0c-0.1-0.4-0.1-2.1,0-2.6
					c0.3-0.1,10.4-0.1,10.8,0c0.1,0.3,0.1,2.1,0,2.6c-1,0-2,0-3,0C100.7,86.9,100.7,91.1,100.7,95.4z"/>
				<path class="st2" d="M91.8,85.4c-1.6,0-3.1,0-4.6,0c0-0.2,0-0.3,0-0.5c0-0.6,0-1.2,0-1.8c0-0.4-0.1-0.6-0.5-0.6
					c-0.1,0-0.2,0-0.4,0c-0.3,0-0.5,0.2-0.5,0.5c0,0.6,0,1.1,0,1.7c0,0.4,0.2,0.6,0.5,0.8c0.4,0.2,0.7,0.4,1.1,0.7
					c1,0.6,2,1.1,2.9,1.7c0.1,0.1,0.3,0.2,0.4,0.3c0.7,0.5,1.1,1.2,1.1,2.1c0,0.7,0,1.3,0,2c0,0.7-0.2,1.3-0.7,1.7
					c-0.7,0.7-1.5,1.2-2.4,1.4c-1.5,0.4-3.1,0.4-4.7,0c-0.8-0.2-1.6-0.6-2.2-1.2c-0.6-0.5-0.9-1.2-0.9-2.1c0-0.8,0-1.5,0-2.3
					c0.3-0.1,3.9-0.1,4.5,0c0,0.1,0,0.3,0,0.4c0,0.7,0,1.3,0,2c0,0.4,0.1,0.6,0.5,0.6c0.2,0,0.5,0,0.7-0.1c0.2,0,0.3-0.2,0.3-0.4
					c0-0.6,0-1.2,0-1.8c0-0.3-0.2-0.6-0.4-0.7c-0.4-0.3-0.8-0.5-1.2-0.8c-1-0.6-2-1.2-2.9-1.8c-0.3-0.2-0.6-0.4-0.9-0.7
					c-0.4-0.4-0.6-0.9-0.6-1.5c0-0.7,0-1.3,0-2c0-0.8,0.3-1.4,0.8-1.9c0.7-0.7,1.6-1.2,2.6-1.4c1.4-0.3,2.8-0.3,4.2,0.1
					c0.9,0.2,1.7,0.7,2.3,1.3c0.5,0.5,0.8,1.1,0.8,1.9C91.8,84,91.8,84.7,91.8,85.4z"/>
			</g>
			<g id="blue_40_">
				<path class="st5" d="M59.4,87.8c0.3-0.1,0.5-0.2,0.7-0.3c18.3-9.4,36.6-18.8,54.9-28.1c0.4-0.2,0.7-0.4,1.1-0.6
					c0.2-0.1,0.4-0.1,0.7,0c2.7,1.4,5.4,2.8,8.2,4.2c15.9,8.2,31.9,16.4,47.8,24.5c0.2,0.1,0.3,0.2,0.6,0.3
					c-0.2,0.1-0.3,0.2-0.5,0.3c-5.8,3-11.6,6-17.5,9c-12.9,6.6-25.7,13.2-38.6,19.8c-0.3,0.1-0.5,0.1-0.8,0
					c-17.7-9.1-35.5-18.2-53.2-27.3c-1-0.5-1.9-1-2.9-1.5C59.7,88,59.5,87.9,59.4,87.8z M147.1,80c0,2.8,0,5.5,0,8.3
					c-0.1-0.1-0.1-0.2-0.2-0.4c-0.8-2.5-1.6-5-2.4-7.5c-0.1-0.4-0.1-0.4-0.5-0.4c-1.2,0-2.3,0-3.5,0c-0.1,0-0.3,0-0.4,0
					c0,0.1,0,0.1,0,0.2c0,4.9,0,9.9,0,14.8c0,0.1,0,0.2,0,0.3c0,0,0,0,0,0c0,0,0,0,0,0c1.3,0,2.7,0,4,0c0-2.7,0-5.3,0-7.9
					c0,0,0.1,0,0.1,0c0.9,2.6,1.8,5.3,2.7,7.9c1.4,0,2.8,0,4.2,0c0-5.1,0-10.2,0-15.4C149.8,80,148.5,80,147.1,80z M138.5,87.8
					c0-1.5,0-3,0-4.5c0-0.8-0.3-1.5-0.8-2c-0.6-0.6-1.2-1-2-1.2c-1.7-0.5-3.5-0.5-5.2-0.1c-0.9,0.2-1.7,0.7-2.3,1.4
					c-0.4,0.5-0.7,1.1-0.7,1.8c0,3,0,6.1,0,9.1c0,0.8,0.3,1.4,0.8,1.9c0.6,0.7,1.4,1.1,2.3,1.3c1.5,0.3,3.1,0.3,4.6,0.1
					c1-0.2,1.8-0.6,2.6-1.3c0.5-0.5,0.8-1.2,0.8-1.9C138.5,90.8,138.5,89.3,138.5,87.8z M126.4,89.4c-0.6-0.1-4.3-0.1-4.7,0
					c0,0.1,0,0.3,0,0.5c0,0.8,0,1.5,0,2.3c0,0.7-0.2,0.9-0.8,0.8c-0.1,0-0.3,0-0.4-0.1c-0.2-0.1-0.3-0.2-0.3-0.4c0-0.1,0-0.2,0-0.3
					c0-2.9,0-5.9,0-8.8c0-0.5,0-0.7,0.7-0.8c0.1,0,0.2,0,0.3,0c0.5,0.1,0.6,0.2,0.6,0.7c0,0.9,0,1.7,0,2.6c0,0.2,0,0.3,0,0.5
					c1.6,0,3.1,0,4.6,0c0-0.2,0-0.4,0-0.5c0-0.8,0-1.7,0-2.5c0-0.9-0.3-1.5-0.9-2.1c-0.7-0.6-1.4-1-2.3-1.2
					c-1.4-0.3-2.9-0.3-4.3-0.1c-0.9,0.2-1.8,0.6-2.5,1.2c-0.6,0.6-0.9,1.3-0.9,2.1c0,3,0,5.9,0,8.9c0,0.9,0.3,1.6,0.9,2.1
					c0.6,0.6,1.4,1,2.2,1.2c1.5,0.3,3,0.3,4.5,0.1c0.9-0.2,1.8-0.6,2.5-1.3c0.6-0.5,0.9-1.2,0.9-2c0-0.8,0-1.6,0-2.4
					C126.4,89.7,126.4,89.5,126.4,89.4z M91.8,85.4c0-0.7,0-1.4,0-2.1c0-0.8-0.3-1.4-0.8-1.9c-0.7-0.7-1.4-1.1-2.3-1.3
					c-1.4-0.3-2.8-0.3-4.2-0.1c-1,0.2-1.9,0.6-2.6,1.4c-0.5,0.5-0.8,1.1-0.8,1.9c0,0.7,0,1.3,0,2c0,0.6,0.2,1.1,0.6,1.5
					c0.3,0.2,0.6,0.5,0.9,0.7c1,0.6,2,1.2,2.9,1.8c0.4,0.2,0.8,0.5,1.2,0.8c0.2,0.2,0.4,0.4,0.4,0.7c0,0.6,0,1.2,0,1.8
					c0,0.2-0.1,0.4-0.3,0.4c-0.2,0-0.5,0.1-0.7,0.1c-0.4,0-0.5-0.2-0.5-0.6c0-0.7,0-1.3,0-2c0-0.1,0-0.3,0-0.4
					c-0.6-0.1-4.2-0.1-4.5,0c0,0.7,0,1.5,0,2.3c0,0.9,0.3,1.5,0.9,2.1c0.6,0.6,1.4,1,2.2,1.2c1.6,0.4,3.1,0.3,4.7,0
					c0.9-0.2,1.7-0.7,2.4-1.4c0.4-0.5,0.7-1.1,0.7-1.7c0-0.7,0-1.3,0-2c0-0.9-0.4-1.6-1.1-2.1c-0.1-0.1-0.3-0.2-0.4-0.3
					c-1-0.6-2-1.1-2.9-1.7c-0.4-0.2-0.7-0.4-1.1-0.7c-0.3-0.2-0.5-0.4-0.5-0.8c0-0.6,0-1.1,0-1.7c0-0.3,0.2-0.5,0.5-0.5
					c0.1,0,0.2,0,0.4,0c0.4,0,0.5,0.2,0.5,0.6c0,0.6,0,1.2,0,1.8c0,0.1,0,0.3,0,0.5C88.7,85.4,90.2,85.4,91.8,85.4z M105.2,95.4
					c0.5,0.1,8.8,0.1,9.1,0c0-0.9,0-1.7,0-2.6c-0.2,0-0.3,0-0.5,0c-1.1,0-2.2,0-3.3,0c-0.2,0-0.3,0-0.5,0c-0.1-0.8,0-3.3,0-3.7
					c0.3,0,0.7,0,1,0c0.3,0,0.7,0,1,0c0.3,0,0.7,0.1,1-0.1c0-0.7,0-1.5,0-2.2c-1.1,0-2.1,0-3.1,0c0-1.4,0-2.7,0-4.1
					c0.2,0,0.3,0,0.5,0c1.1,0,2.2,0,3.3,0c0.1,0,0.3,0,0.4,0c0-0.9,0-1.7,0-2.5c-0.4-0.1-8.7-0.1-9.1,0
					C105.2,85.1,105.2,90.2,105.2,95.4z M100.7,95.4c0-4.3,0-8.5,0-12.8c1,0,2,0,3,0c0.1-0.5,0.1-2.2,0-2.6
					c-0.4-0.1-10.5-0.1-10.8,0c-0.1,0.4-0.1,2.2,0,2.6c1,0,2,0,3,0c0,4.3,0,8.5,0,12.8C97.6,95.4,99.1,95.4,100.7,95.4z"/>
				<path class="st5" d="M133.8,87.8c0,1.5,0,3,0,4.5c0,0.5-0.1,0.6-0.6,0.7c-0.2,0-0.3,0-0.5,0c-0.5-0.1-0.6-0.2-0.6-0.7
					c0-3,0-6,0-9c0-0.5,0.1-0.6,0.6-0.7c0.1,0,0.2,0,0.2,0c0.7,0,0.8,0.1,0.8,0.9C133.8,84.9,133.8,86.4,133.8,87.8z"/>
			</g>
		</g>
	</g>
	<g>
		<path class="st6" d="M95.6,1047.5h-7.1l-2.8-11.4H72.8l-2.7,11.4h-6.9l12.6-50.1h6.9L95.6,1047.5z M83.6,1027.6l-4.4-18.6
			l-4.4,18.6H83.6z"/>
		<path class="st6" d="M99,997.4h6.5v27.1c0,4.3,0.1,7.1,0.2,8.4c0.3,2.1,0.9,3.7,2,4.9c1,1.2,2.5,1.9,4.3,1.9
			c1.8,0,3.2-0.6,4.2-1.8c0.9-1.2,1.5-2.6,1.7-4.3s0.3-4.5,0.3-8.5v-27.7h6.5v26.3c0,6-0.2,10.3-0.5,12.7c-0.4,2.5-1,4.6-1.9,6.3
			s-2.2,3.1-3.8,4.1c-1.6,1-3.7,1.5-6.2,1.5c-3.1,0-5.4-0.6-7-1.7c-1.6-1.1-2.8-2.5-3.8-4.3s-1.5-3.6-1.8-5.6
			c-0.4-2.9-0.6-7.1-0.6-12.7V997.4z"/>
		<path class="st6" d="M138.8,1047.5v-41.6h-9.6v-8.5h25.6v8.5h-9.5v41.6H138.8z"/>
		<path class="st6" d="M159.1,1047.5v-50.1h6.5v19.7h12.8v-19.7h6.5v50.1h-6.5v-21.9h-12.8v21.9H159.1z"/>
		<path class="st6" d="M190.3,1022.7c0-5.1,0.5-9.4,1.5-12.9c0.7-2.6,1.7-4.8,3-6.9c1.3-2,2.7-3.5,4.2-4.5c2-1.3,4.3-2,7-2
			c4.8,0,8.6,2.3,11.4,6.9c2.9,4.6,4.3,10.9,4.3,19.1c0,8.1-1.4,14.4-4.2,19c-2.8,4.6-6.6,6.9-11.3,6.9c-4.8,0-8.6-2.3-11.4-6.8
			C191.7,1036.9,190.3,1030.7,190.3,1022.7z M197,1022.4c0,5.7,0.8,10,2.5,12.9c1.7,2.9,3.8,4.4,6.4,4.4c2.6,0,4.7-1.5,6.4-4.4
			c1.7-2.9,2.5-7.3,2.5-13.1c0-5.7-0.8-10-2.4-12.9c-1.6-2.8-3.8-4.2-6.5-4.2c-2.7,0-4.8,1.4-6.5,4.3
			C197.8,1012.3,197,1016.6,197,1022.4z"/>
		<path class="st6" d="M226.7,1047.5v-50.1h13.7c3.4,0,6,0.5,7.5,1.3c1.6,0.9,2.8,2.5,3.8,4.8c0.9,2.3,1.4,4.9,1.4,7.9
			c0,3.8-0.7,6.9-2.1,9.3c-1.4,2.5-3.5,4-6.4,4.6c1.4,1.3,2.6,2.7,3.5,4.2c0.9,1.5,2.2,4.2,3.7,8.1l3.9,9.8h-7.8l-4.7-10.9
			c-1.7-3.9-2.8-6.4-3.4-7.4c-0.6-1-1.3-1.7-2-2.1c-0.7-0.4-1.8-0.6-3.3-0.6h-1.3v20.9H226.7z M233.2,1018.5h4.8
			c3.1,0,5.1-0.2,5.9-0.6c0.8-0.4,1.4-1.1,1.8-2.1c0.4-1,0.7-2.3,0.7-3.8c0-1.7-0.3-3-0.9-4.1s-1.4-1.7-2.5-2
			c-0.5-0.1-2.1-0.2-4.8-0.2h-5.1V1018.5z"/>
		<path class="st6" d="M259,1047.5v-50.1h6.5v50.1H259z"/>
		<path class="st6" d="M268.9,1047.5v-9.1l16.9-32.5h-15v-8.5h23.6v7.9l-17.7,33.8h18.3v8.4H268.9z"/>
		<path class="st6" d="M299.2,1047.5v-50.1h23.9v8.5h-17.4v11.1h16.2v8.4h-16.2v13.6h18v8.4H299.2z"/>
		<path class="st6" d="M329.2,997.4h11.9c2.7,0,4.7,0.3,6.1,1c1.9,0.9,3.5,2.4,4.9,4.6c1.3,2.2,2.4,4.9,3.1,8.1
			c0.7,3.2,1.1,7.1,1.1,11.8c0,4.1-0.3,7.7-1,10.7c-0.8,3.6-2,6.6-3.5,8.9c-1.1,1.7-2.7,3-4.6,4c-1.4,0.7-3.4,1.1-5.8,1.1h-12.3
			V997.4z M335.7,1005.8v33.2h4.9c1.8,0,3.1-0.2,3.9-0.5c1.1-0.4,1.9-1.1,2.6-2.1c0.7-1,1.3-2.6,1.7-4.8c0.4-2.2,0.7-5.3,0.7-9.2
			c0-3.9-0.2-6.8-0.7-8.9c-0.4-2.1-1.1-3.7-1.8-4.9s-1.8-1.9-3-2.4c-0.9-0.3-2.7-0.5-5.3-0.5H335.7z"/>
		<path class="st6" d="M386.8,1047.5v-50.1h10.4c4,0,6.5,0.3,7.7,0.8c1.8,0.8,3.4,2.4,4.6,4.9c1.2,2.5,1.9,5.8,1.9,9.8
			c0,3.1-0.4,5.7-1.1,7.8c-0.7,2.1-1.6,3.7-2.7,4.9c-1.1,1.2-2.2,2-3.4,2.4c-1.6,0.5-3.8,0.7-6.8,0.7h-4.2v18.9H386.8z
			 M393.3,1005.8v14.2h3.6c2.6,0,4.3-0.3,5.1-0.8c0.9-0.5,1.5-1.3,2-2.5c0.5-1.1,0.7-2.4,0.7-3.9c0-1.8-0.3-3.3-1-4.5
			c-0.7-1.2-1.6-1.9-2.6-2.2c-0.8-0.2-2.3-0.3-4.7-0.3H393.3z"/>
		<path class="st6" d="M416.9,1047.5v-50.1h23.9v8.5h-17.4v11.1h16.2v8.4h-16.2v13.6h18v8.4H416.9z"/>
		<path class="st6" d="M446.9,1047.5v-50.1h13.7c3.4,0,5.9,0.5,7.5,1.3c1.6,0.9,2.8,2.5,3.8,4.8c0.9,2.3,1.4,4.9,1.4,7.9
			c0,3.8-0.7,6.9-2.1,9.3c-1.4,2.5-3.5,4-6.4,4.6c1.4,1.3,2.6,2.7,3.5,4.2c0.9,1.5,2.2,4.2,3.7,8.1l3.9,9.8h-7.8l-4.7-10.9
			c-1.7-3.9-2.8-6.4-3.4-7.4c-0.6-1-1.3-1.7-2-2.1c-0.7-0.4-1.8-0.6-3.3-0.6h-1.3v20.9H446.9z M453.4,1018.5h4.8
			c3.1,0,5.1-0.2,5.9-0.6s1.4-1.1,1.8-2.1c0.4-1,0.7-2.3,0.7-3.8c0-1.7-0.3-3-0.9-4.1c-0.6-1-1.4-1.7-2.5-2
			c-0.5-0.1-2.1-0.2-4.8-0.2h-5.1V1018.5z"/>
		<path class="st6" d="M477.8,1031.2l6.3-1c0.4,3.3,1.2,5.7,2.3,7.3c1.2,1.5,2.7,2.3,4.7,2.3c2.1,0,3.7-0.7,4.7-2.1
			c1.1-1.4,1.6-3,1.6-4.8c0-1.2-0.2-2.2-0.7-3c-0.4-0.8-1.2-1.6-2.3-2.2c-0.8-0.4-2.5-1.1-5.2-2.2c-3.5-1.3-5.9-3-7.3-5
			c-2-2.8-3-6.1-3-10.1c0-2.6,0.5-4.9,1.4-7.2c0.9-2.2,2.3-3.9,4-5.1c1.8-1.2,3.9-1.7,6.3-1.7c4,0,7.1,1.4,9.1,4.1
			c2,2.8,3.1,6.4,3.2,11l-6.5,0.4c-0.3-2.6-0.9-4.4-1.8-5.6c-0.9-1.1-2.3-1.7-4.1-1.7c-1.9,0-3.4,0.6-4.4,1.8c-0.7,0.8-1,1.8-1,3.1
			c0,1.2,0.3,2.2,1,3c0.8,1.1,2.8,2.2,6,3.3s5.5,2.4,7,3.6s2.7,2.9,3.6,5.1c0.9,2.2,1.3,4.8,1.3,8c0,2.9-0.5,5.6-1.5,8.1
			c-1,2.5-2.5,4.4-4.4,5.6c-1.9,1.2-4.2,1.8-7,1.8c-4.1,0-7.2-1.5-9.4-4.4C479.5,1041,478.2,1036.8,477.8,1031.2z"/>
		<path class="st6" d="M508.2,1022.7c0-5.1,0.5-9.4,1.5-12.9c0.7-2.6,1.7-4.8,3-6.9c1.3-2,2.7-3.5,4.2-4.5c2-1.3,4.3-2,7-2
			c4.8,0,8.6,2.3,11.4,6.9c2.9,4.6,4.3,10.9,4.3,19.1c0,8.1-1.4,14.4-4.2,19s-6.6,6.9-11.3,6.9c-4.8,0-8.6-2.3-11.4-6.8
			C509.6,1036.9,508.2,1030.7,508.2,1022.7z M514.9,1022.4c0,5.7,0.8,10,2.5,12.9c1.7,2.9,3.8,4.4,6.4,4.4c2.6,0,4.7-1.5,6.4-4.4
			c1.7-2.9,2.5-7.3,2.5-13.1c0-5.7-0.8-10-2.4-12.9c-1.6-2.8-3.8-4.2-6.5-4.2s-4.8,1.4-6.5,4.3
			C515.7,1012.3,514.9,1016.6,514.9,1022.4z"/>
		<path class="st6" d="M544.6,1047.5v-50.1h6.3l13.2,33.5v-33.5h6v50.1h-6.5l-13-32.7v32.7H544.6z"/>
		<path class="st6" d="M606.1,1047.5H599l-2.8-11.4h-12.9l-2.7,11.4h-6.9l12.6-50.1h6.9L606.1,1047.5z M594.1,1027.6l-4.4-18.6
			l-4.4,18.6H594.1z"/>
		<path class="st6" d="M609.8,1047.5v-49.7h6.5v41.3h16.2v8.4H609.8z"/>
		<path class="st6" d="M660,1022.7c0-5.1,0.5-9.4,1.5-12.9c0.7-2.6,1.7-4.8,3-6.9c1.3-2,2.7-3.5,4.2-4.5c2-1.3,4.3-2,7-2
			c4.8,0,8.6,2.3,11.4,6.9c2.9,4.6,4.3,10.9,4.3,19.1c0,8.1-1.4,14.4-4.2,19s-6.6,6.9-11.3,6.9c-4.8,0-8.6-2.3-11.4-6.8
			C661.4,1036.9,660,1030.7,660,1022.7z M666.7,1022.4c0,5.7,0.8,10,2.5,12.9c1.7,2.9,3.8,4.4,6.4,4.4c2.6,0,4.7-1.5,6.4-4.4
			c1.7-2.9,2.5-7.3,2.5-13.1c0-5.7-0.8-10-2.4-12.9c-1.6-2.8-3.8-4.2-6.5-4.2c-2.7,0-4.8,1.4-6.5,4.3
			C667.5,1012.3,666.7,1016.6,666.7,1022.4z"/>
		<path class="st6" d="M696.4,1047.5v-50.1h6.3l13.2,33.5v-33.5h6v50.1h-6.5l-13-32.7v32.7H696.4z"/>
		<path class="st6" d="M729.1,1047.5v-49.7h6.5v41.3h16.2v8.4H729.1z"/>
		<path class="st6" d="M760.7,1047.5v-21.1l-11.8-29h7.6l7.6,19.8l7.4-19.8h7.5l-11.9,29.1v21H760.7z"/>
	</g>
	<g>
		<path class="st6" d="M107.4,919.8h-6.3v-24.4c0-2-0.4-3-1.1-3c-0.5,0-1.3,0.9-2.4,2.8l-13.3,24.6h-5.9v-28.3
			c-0.7,0.1-1.3,0.2-1.7,0.2c-2.2,0-4-0.8-5.5-2.5c-1.5-1.6-2.2-3.6-2.2-6c0-2.3,0.7-4.2,2.2-5.8c1.5-1.6,3.3-2.4,5.5-2.4
			c2.3,0,4.2,0.8,5.8,2.5c1.5,1.7,2.3,3.8,2.3,6.4v16.4c0,1.9-0.4,5.8-1.2,11.7c0.7-3.2,1.7-6.1,3.1-8.7l5.6-10.5
			c1.2-2.2,2.3-3.4,3.3-3.7c-1.4-1.8-2-3.7-2-5.7c0-2.3,0.7-4.3,2.2-5.9c1.5-1.6,3.3-2.4,5.5-2.4c2.2,0,4,0.8,5.5,2.4
			c1.5,1.6,2.2,3.6,2.2,5.9c0,2.4-1,4.5-2.9,6.4c0.9,1.8,1.3,3.8,1.3,5.9V919.8z M80.1,883.4c0-1-0.3-1.9-1-2.6
			c-0.7-0.7-1.5-1.1-2.5-1.1c-1,0-1.8,0.4-2.5,1.1c-0.7,0.7-1,1.6-1,2.6c0,1,0.3,1.9,1,2.6c0.7,0.7,1.5,1.1,2.5,1.1
			c1,0,1.8-0.4,2.5-1.1C79.8,885.3,80.1,884.4,80.1,883.4z M104.7,883.4c0-1-0.3-1.9-1-2.6c-0.7-0.7-1.5-1.1-2.5-1.1
			c-1,0-1.8,0.4-2.5,1.1c-0.7,0.7-1,1.6-1,2.6c0,1,0.3,1.9,1,2.6c0.7,0.7,1.5,1.1,2.5,1.1c1,0,1.8-0.4,2.5-1.1
			C104.3,885.3,104.7,884.4,104.7,883.4z"/>
		<path class="st6" d="M113.7,849.8c-0.7,3.9-1.6,7.2-2.9,9.8c-1.2,2.6-2.8,4.7-4.7,6.3c-1.9,1.6-4.1,2.7-6.7,3.4
			c-2.6,0.7-5.5,1-8.8,1h-3.4v-4.4c1.4-0.1,2.5-0.6,3.4-1.5c0.9-1,1.6-1.9,1.9-2.9c-1.7-0.3-3-1.1-4-2.4c-1-1.3-1.5-2.9-1.5-4.8
			c0-2,0.7-3.6,2-5c1.3-1.3,2.9-2,4.7-2c2,0,3.6,0.7,4.8,2.1c1.2,1.4,1.7,3.2,1.7,5.3c0,2.1-0.5,4.2-1.4,6.2c-1,2-1.9,3.5-3,4.6
			c3.4-0.7,6.2-2.4,8.3-5.3c2.1-2.9,3.3-6.3,3.4-10.3H113.7z M96.2,854.4c0-0.8-0.3-1.5-0.8-2c-0.5-0.5-1.1-0.8-1.9-0.8
			c-0.7,0-1.4,0.3-1.8,0.8c-0.5,0.6-0.7,1.2-0.7,2c0,0.8,0.2,1.5,0.7,2c0.5,0.5,1.1,0.8,1.8,0.8c0.8,0,1.4-0.3,1.9-0.8
			C95.9,855.9,96.2,855.2,96.2,854.4z"/>
		<path class="st6" d="M141.8,919.8h-6.3v-31.9c0-2-0.6-3.7-1.9-5c-1.3-1.3-3.1-1.9-5.3-1.9c-2.3,0-4.1,0.8-5.5,2.4
			c-1.4,1.6-2.2,3.6-2.2,6.1h-6.1c0.2-4.4,1.5-7.9,4-10.5c2.5-2.6,5.8-3.9,9.9-3.9c3.8,0,7,1,9.7,3.1c2.6,2.1,3.9,5.3,3.9,9.5V919.8
			z"/>
		<path class="st6" d="M184.4,919.8h-6.3c-4-3.8-7.9-6.5-12-8v0.5c0,2.3-0.8,4.3-2.5,5.9c-1.7,1.6-3.6,2.4-5.7,2.4
			c-2.2,0-4.2-0.9-5.8-2.6c-1.6-1.8-2.5-3.9-2.5-6.3s0.8-4.5,2.5-6.2c1.6-1.7,3.6-2.6,5.8-2.6h0.7v-11.4c-0.7,0.1-1.3,0.2-1.7,0.2
			c-2.2,0-4-0.8-5.5-2.5c-1.5-1.6-2.3-3.6-2.3-6c0-2.3,0.8-4.2,2.3-5.8c1.5-1.6,3.3-2.4,5.5-2.4c2.3,0,4.2,0.8,5.8,2.5
			c1.5,1.7,2.3,3.8,2.3,6.4v20.9c5.4,2,9.7,4.6,13.1,7.8v-36.7h6.3V919.8z M160.4,883.4c0-1-0.3-1.9-1-2.6c-0.7-0.7-1.5-1.1-2.5-1.1
			c-1,0-1.8,0.4-2.5,1.1c-0.7,0.7-1,1.6-1,2.6c0,1,0.3,1.9,1,2.6c0.7,0.7,1.5,1.1,2.5,1.1c1,0,1.8-0.4,2.5-1.1
			C160,885.3,160.4,884.4,160.4,883.4z M161.4,911.8c0-1-0.3-1.9-1-2.6c-0.7-0.7-1.5-1.1-2.5-1.1c-1,0-1.8,0.4-2.5,1.1
			c-0.7,0.7-1,1.6-1,2.6c0,1,0.3,1.9,1,2.6c0.7,0.7,1.5,1.1,2.5,1.1c1,0,1.8-0.4,2.5-1.1C161.1,913.7,161.4,912.8,161.4,911.8z"/>
		<path class="st6" d="M210.5,912.4c0,2.3-0.8,4.3-2.3,5.9c-1.5,1.6-3.4,2.4-5.5,2.4c-2.3,0-4.3-0.8-5.8-2.5
			c-1.6-1.7-2.4-3.8-2.4-6.4v-35.9h6.3v28.3c0.3-0.1,1-0.2,1.8-0.2c2.1,0,3.9,0.8,5.5,2.4C209.7,908,210.5,910,210.5,912.4z
			 M206.2,912.4c0-1-0.3-1.9-1-2.6c-0.7-0.7-1.5-1.1-2.5-1.1c-1,0-1.8,0.4-2.5,1.1c-0.7,0.7-1,1.6-1,2.6c0,1,0.3,1.9,1,2.6
			c0.7,0.7,1.5,1.1,2.5,1.1c1,0,1.8-0.4,2.5-1.1C205.9,914.3,206.2,913.4,206.2,912.4z"/>
		<path class="st6" d="M245,909.5c0,3.6-1,6.4-3.1,8.3c-2.1,1.9-4.8,2.9-8.2,2.9c-3.4,0-6.2-1-8.2-2.9c-2.1-1.9-3.1-4.7-3.1-8.3
			v-7.1c0-2.1,0.9-5,2.7-8.5c1.8-3.5,2.7-6.3,2.7-8.4c0-1.7-0.5-3.1-1.6-4.2c-1.1-1.1-2.4-1.6-3.8-1.6c-2.2,0-3.6,0.4-4.4,1.3
			c2,0.1,3.7,0.8,5,2.1c1.3,1.3,1.9,3,1.9,5.1c0,2.2-0.7,4.1-2.1,5.6c-1.4,1.5-3.1,2.3-5.1,2.3c-2.3,0-4.2-0.9-5.6-2.7
			c-1.4-1.8-2.1-4-2.1-6.5c0-3.4,1.2-6.2,3.7-8.4c2.5-2.2,5.4-3.3,8.6-3.3c3.4,0,6.2,0.9,8.3,2.6c2.1,1.8,3.2,4.3,3.2,7.7
			c0,2.2-0.9,5.3-2.6,9.2c-1.7,3.9-2.6,6.7-2.6,8.3v8c0,1.2,0.5,2.2,1.6,2.9c1.1,0.7,2.2,1,3.4,1c1.3,0,2.5-0.3,3.5-1
			c1-0.7,1.5-1.6,1.5-2.8v-35h6.3V909.5z M220.7,888.4c0-1-0.3-1.8-0.9-2.4s-1.4-1-2.2-1c-0.9,0-1.6,0.3-2.3,1
			c-0.6,0.7-0.9,1.5-0.9,2.4c0,1,0.3,1.8,0.9,2.4c0.6,0.7,1.4,1,2.3,1c0.9,0,1.6-0.3,2.2-1S220.7,889.3,220.7,888.4z"/>
		<path class="st6" d="M251.3,849.8c-0.7,3.9-1.6,7.2-2.9,9.8c-1.2,2.6-2.8,4.7-4.7,6.3c-1.9,1.6-4.1,2.7-6.7,3.4
			c-2.6,0.7-5.5,1-8.8,1h-3.4v-4.4c1.4-0.1,2.5-0.6,3.4-1.5c0.9-1,1.6-1.9,1.9-2.9c-1.7-0.3-3-1.1-4-2.4c-1-1.3-1.5-2.9-1.5-4.8
			c0-2,0.7-3.6,2-5c1.3-1.3,2.9-2,4.7-2c2,0,3.6,0.7,4.8,2.1c1.2,1.4,1.7,3.2,1.7,5.3c0,2.1-0.5,4.2-1.4,6.2c-1,2-1.9,3.5-3,4.6
			c3.4-0.7,6.2-2.4,8.3-5.3c2.1-2.9,3.3-6.3,3.4-10.3H251.3z M233.8,854.4c0-0.8-0.3-1.5-0.8-2c-0.5-0.5-1.1-0.8-1.9-0.8
			c-0.7,0-1.4,0.3-1.8,0.8c-0.5,0.6-0.7,1.2-0.7,2c0,0.8,0.2,1.5,0.7,2c0.5,0.5,1.1,0.8,1.8,0.8c0.8,0,1.4-0.3,1.9-0.8
			C233.5,855.9,233.8,855.2,233.8,854.4z"/>
		<path class="st6" d="M279.4,919.8h-6.3v-31.9c0-2-0.6-3.7-1.9-5c-1.3-1.3-3.1-1.9-5.3-1.9c-2.3,0-4.1,0.8-5.5,2.4
			c-1.4,1.6-2.2,3.6-2.2,6.1h-6.1c0.2-4.4,1.5-7.9,4-10.5c2.5-2.6,5.8-3.9,9.9-3.9c3.8,0,7,1,9.7,3.1c2.6,2.1,3.9,5.3,3.9,9.5V919.8
			z"/>
		<path class="st6" d="M319.4,919.8H313v-29.1c0-3-0.9-5.4-2.6-7.1c-1.7-1.8-4-2.6-6.7-2.6c-4.1,0-7.2,1.8-9.3,5.5
			c3.2,0.7,5.5,2.3,6.9,5c-3.5,2.2-5.2,4.8-5.2,7.9v20.5h-6.3v-20.9c0-3.1,1.4-5.5,4.2-7.3c-1.7-1.2-3.8-1.7-6.2-1.3
			c0.1-4.5,1.8-8.3,4.9-11.2c2.9-2.7,6.5-4.1,10.9-4.1c4.9,0,8.8,1.4,11.6,4.2c2.8,2.8,4.2,6.7,4.2,11.5V919.8z"/>
		<path class="st6" d="M319.4,868.8H313v-15.5h6.3V868.8z"/>
		<path class="st6" d="M359.7,909.9c0,3.8-1.6,6.6-4.8,8.5c-2.6,1.5-5.9,2.3-10,2.3s-7.4-0.8-9.9-2.3c-3.1-1.8-4.6-4.7-4.6-8.5
			v-11.1c0-2.6,0.7-4.9,2-6.7c1.4-1.8,3.3-2.7,5.8-2.7c2.2,0,4,0.8,5.5,2.4c1.5,1.6,2.3,3.6,2.3,5.9c0,2.3-0.8,4.2-2.3,5.9
			c-1.5,1.6-3.3,2.4-5.5,2.4c-0.6,0-1.1-0.1-1.5-0.2v3.4c0,3.8,2.8,5.7,8.3,5.7c5.6,0,8.4-1.9,8.4-5.8v-21c0-2.4-1.1-4.2-3.2-5.5
			c-1.8-1-4-1.5-6.5-1.5c-6.5,0-10,1.8-10.5,5.3H327c0.9-7.4,6.3-11.1,16.2-11.2c4.6,0,8.3,0.9,11.2,2.8c3.5,2.3,5.3,5.9,5.3,10.6
			V909.9z M341.7,897.7c0-1-0.3-1.9-1-2.6s-1.5-1.1-2.5-1.1c-1,0-1.8,0.4-2.5,1.1c-0.7,0.7-1,1.6-1,2.6c0,1,0.3,1.9,1,2.6
			c0.7,0.7,1.5,1.1,2.5,1.1c1,0,1.8-0.4,2.5-1.1C341.3,899.5,341.7,898.7,341.7,897.7z"/>
		<path class="st6" d="M403.9,899c0,2.9-0.7,5-2.1,6c2.7,1.6,4,4,4,7.3c0,2.4-0.8,4.3-2.2,5.9c-1.5,1.6-3.3,2.4-5.4,2.4
			c-2,0-3.7-0.7-5.1-2c-1.4-1.4-2.3-3.1-2.6-5.1c-2.2,1.2-3.8,2.1-4.7,2.6c-1.6,1.1-2.9,2.3-3.9,3.6h-6.4v-28.3
			c-0.7,0.1-1.3,0.2-1.7,0.2c-2.2,0-4-0.8-5.5-2.5c-1.5-1.6-2.3-3.6-2.3-6c0-2.3,0.7-4.2,2.3-5.8c1.5-1.6,3.3-2.4,5.5-2.4
			c2.3,0,4.2,0.8,5.8,2.5c1.5,1.7,2.3,3.8,2.3,6.4v27.9c1.1-0.9,3.5-2.2,7.4-3.8c3.4-1.5,5.8-3.1,7.1-4.6c1-1.1,1.4-2.9,1.4-5.3
			v-22.2h6.3V899z M377.2,883.4c0-1-0.3-1.9-1-2.6c-0.7-0.7-1.5-1.1-2.5-1.1c-1,0-1.8,0.4-2.5,1.1c-0.7,0.7-1,1.6-1,2.6
			c0,1,0.3,1.9,1,2.6c0.7,0.7,1.5,1.1,2.5,1.1c1,0,1.8-0.4,2.5-1.1C376.8,885.3,377.2,884.4,377.2,883.4z M401.5,912.4
			c0-1-0.3-1.9-1-2.6c-0.7-0.7-1.5-1.1-2.5-1.1c-1,0-1.8,0.4-2.5,1.1c-0.7,0.7-1,1.6-1,2.6c0,1,0.3,1.9,1,2.6
			c0.7,0.7,1.5,1.1,2.5,1.1c1,0,1.8-0.4,2.5-1.1C401.2,914.3,401.5,913.4,401.5,912.4z"/>
		<path class="st6" d="M434.5,912.4c0,2.3-0.8,4.3-2.3,5.9c-1.5,1.6-3.4,2.4-5.5,2.4c-2.3,0-4.3-0.8-5.8-2.5
			c-1.6-1.7-2.4-3.8-2.4-6.4v-54.3l-6.1,9.7l-4.1-1.3c-0.3-6.9-1.2-13.3-2.9-19.3h5.5c0.8,5.8,1.3,10.2,1.3,13.1l7.3-12.2
			c1.4,0.2,2.6,0.9,3.7,2.1c1.1,1.2,1.6,2.6,1.6,4.2v50.5c0.3-0.1,1-0.2,1.8-0.2c2.1,0,3.9,0.8,5.5,2.4
			C433.8,908,434.5,910,434.5,912.4z M430.2,912.4c0-1-0.3-1.9-1-2.6c-0.7-0.7-1.5-1.1-2.5-1.1c-1,0-1.8,0.4-2.5,1.1
			c-0.7,0.7-1,1.6-1,2.6c0,1,0.3,1.9,1,2.6c0.7,0.7,1.5,1.1,2.5,1.1c1,0,1.8-0.4,2.5-1.1C429.9,914.3,430.2,913.4,430.2,912.4z"/>
		<path class="st6" d="M471.1,919.8h-6.3v-29.4c0-2.8-1-5-2.9-6.8c-1.9-1.8-4.2-2.6-6.9-2.6c-2.9,0-5.3,1-7.4,3.1
			c-2.1,2.1-3.2,4.6-3.2,7.5c0,1.8,0.6,4.4,1.7,7.8c1.1,3.4,1.7,5.9,1.7,7.6c0,0.5-0.1,1.2-0.2,2.1c1.9-3.4,4.1-6.3,6.5-8.7
			c-1.9-0.1-3.4-1-4.5-2.4c-1-1.2-1.5-2.8-1.5-4.6c0-1.9,0.7-3.6,2-5c1.3-1.4,2.9-2.1,4.8-2.1s3.4,0.7,4.7,2.1
			c1.3,1.4,1.9,3.1,1.9,5c0,3.3-1.5,7-4.5,11c-4.1,5.5-6.5,8.8-7,9.9c-1,1.9-1.5,3.8-1.5,5.6h-6.4c0.1-2.7,0.1-5.2,0.1-7.5
			c0-4-0.4-7-1.3-9.1c-0.6-1.9-1.3-3.9-1.9-5.9c-0.6-2-0.9-3.8-0.9-5.3c0-5,1.6-9.1,4.9-12.2c3.2-3.2,7.2-4.7,11.8-4.7
			c4.7,0,8.6,1.3,11.6,4c3.2,2.9,4.8,6.8,4.8,11.8V919.8z M457.9,893.3c0-1-0.3-1.7-0.9-2.4c-0.6-0.6-1.3-0.9-2.2-0.9
			c-0.9,0-1.6,0.3-2.2,0.9c-0.6,0.6-0.9,1.4-0.9,2.4c0,1,0.3,1.7,0.9,2.4c0.6,0.6,1.3,0.9,2.2,0.9c0.9,0,1.6-0.3,2.2-0.9
			S457.9,894.3,457.9,893.3z"/>
		<path class="st6" d="M477.4,849.8c-0.7,3.9-1.6,7.2-2.9,9.8c-1.2,2.6-2.8,4.7-4.7,6.3c-1.9,1.6-4.1,2.7-6.7,3.4
			c-2.6,0.7-5.5,1-8.8,1h-3.4v-4.4c1.4-0.1,2.5-0.6,3.4-1.5c0.9-1,1.6-1.9,1.9-2.9c-1.7-0.3-3-1.1-4-2.4c-1-1.3-1.5-2.9-1.5-4.8
			c0-2,0.7-3.6,2-5s2.9-2,4.7-2c2,0,3.6,0.7,4.8,2.1c1.2,1.4,1.7,3.2,1.7,5.3c0,2.1-0.5,4.2-1.4,6.2c-1,2-1.9,3.5-3,4.6
			c3.4-0.7,6.2-2.4,8.3-5.3c2.1-2.9,3.3-6.3,3.4-10.3H477.4z M459.9,854.4c0-0.8-0.3-1.5-0.8-2c-0.5-0.5-1.1-0.8-1.9-0.8
			c-0.7,0-1.4,0.3-1.8,0.8c-0.5,0.6-0.7,1.2-0.7,2c0,0.8,0.2,1.5,0.7,2c0.5,0.5,1.1,0.8,1.8,0.8c0.8,0,1.4-0.3,1.9-0.8
			C459.6,855.9,459.9,855.2,459.9,854.4z"/>
		<path class="st6" d="M504.1,912.5c0,2.3-0.8,4.3-2.3,5.9c-1.5,1.6-3.4,2.4-5.6,2.4c-2.2,0-4-0.8-5.6-2.4s-2.3-3.6-2.3-5.9
			c0-2.3,0.8-4.3,2.3-5.9c1.5-1.6,3.4-2.4,5.6-2.4c0.8,0,1.3,0,1.5,0.1v-9.5c0-1.2-2.3-2.3-6.8-3.5c-4.5-1.1-8.6-2-12.3-2.7
			c0.1-4,1.1-7.3,3-9.7c1.8-2.5,4.5-3.7,8-3.7c1.4,0,3.4,0.3,5.9,1c2.5,0.7,4.3,1,5.4,1c1.2,0,1.8-0.8,1.9-2.4l5,1.4
			c-1.2,4.5-3.5,6.7-6.7,6.7c-1.2,0-3-0.3-5.3-0.9c-2.3-0.6-4-0.9-5.2-0.9c-3,0-4.7,1.2-5.1,3.6c5.2,1.2,9.7,2.4,13.2,3.7
			s5.4,3.6,5.4,6.8V912.5z M499.7,912.4c0-1-0.3-1.9-1-2.6c-0.7-0.7-1.5-1.1-2.5-1.1s-1.8,0.4-2.5,1.1c-0.7,0.7-1,1.6-1,2.6
			c0,1,0.3,1.9,1,2.6c0.7,0.7,1.5,1.1,2.5,1.1s1.8-0.4,2.5-1.1C499.3,914.3,499.7,913.4,499.7,912.4z"/>
		<path class="st6" d="M515.1,849.1c-1.8,12.2-7.9,18.3-18.4,18.3c-4.1,0-7.2-0.9-9.4-2.7c-2.2-1.8-3.3-4.1-3.3-6.9
			c0-2.1,0.7-3.9,2-5.4c1.4-1.5,3-2.2,5-2.2c2.1,0,3.8,0.8,5.2,2.3c1.3,1.5,2,3.3,2,5.3c0,2-0.5,3.4-1.5,4.4
			c7.1-0.3,11.2-4.7,12.4-13.1H515.1z M494.1,857.8c0-1-0.3-1.8-0.9-2.4s-1.4-1-2.2-1c-0.9,0-1.6,0.3-2.2,1
			c-0.6,0.7-0.9,1.5-0.9,2.4c0,1,0.3,1.7,0.9,2.4c0.6,0.6,1.3,0.9,2.2,0.9c0.9,0,1.6-0.3,2.2-0.9
			C493.8,859.5,494.1,858.7,494.1,857.8z"/>
		<path class="st6" d="M550.3,909.9c0,7.2-4.9,10.8-14.8,10.8c-10,0-14.9-3.6-14.9-10.8v-18.4c-0.7,0.1-1.3,0.2-1.7,0.2
			c-2.2,0-4-0.8-5.5-2.5c-1.5-1.6-2.3-3.6-2.3-6c0-2.3,0.7-4.2,2.3-5.8c1.5-1.6,3.3-2.4,5.5-2.4c2.3,0,4.2,0.8,5.8,2.5
			c1.5,1.7,2.3,3.8,2.3,6.4v26c0,1.5,0.9,2.6,2.8,3.5c1.8,0.9,3.8,1.3,5.8,1.3c2,0,3.9-0.4,5.7-1.3c1.8-0.9,2.8-2,2.8-3.5v-34h6.3
			V909.9z M522.3,883.4c0-1-0.3-1.9-1-2.6c-0.7-0.7-1.5-1.1-2.5-1.1c-1,0-1.8,0.4-2.5,1.1c-0.7,0.7-1,1.6-1,2.6c0,1,0.3,1.9,1,2.6
			c0.7,0.7,1.5,1.1,2.5,1.1c1,0,1.8-0.4,2.5-1.1C521.9,885.3,522.3,884.4,522.3,883.4z"/>
		<path class="st6" d="M590.6,909.9c0,3.8-1.6,6.6-4.8,8.5c-2.6,1.5-5.9,2.3-10,2.3s-7.4-0.8-9.9-2.3c-3.1-1.8-4.6-4.7-4.6-8.5
			v-11.1c0-2.6,0.7-4.9,2-6.7c1.4-1.8,3.3-2.7,5.8-2.7c2.2,0,4,0.8,5.5,2.4c1.5,1.6,2.3,3.6,2.3,5.9c0,2.3-0.8,4.2-2.3,5.9
			c-1.5,1.6-3.3,2.4-5.5,2.4c-0.6,0-1.1-0.1-1.5-0.2v3.4c0,3.8,2.8,5.7,8.3,5.7c5.6,0,8.4-1.9,8.4-5.8v-21c0-2.4-1.1-4.2-3.2-5.5
			c-1.8-1-4-1.5-6.5-1.5c-6.5,0-10,1.8-10.5,5.3h-6.1c0.9-7.4,6.3-11.1,16.2-11.2c4.6,0,8.3,0.9,11.2,2.8c3.5,2.3,5.3,5.9,5.3,10.6
			V909.9z M572.6,897.7c0-1-0.3-1.9-1-2.6c-0.7-0.7-1.5-1.1-2.5-1.1c-1,0-1.8,0.4-2.5,1.1c-0.7,0.7-1,1.6-1,2.6c0,1,0.3,1.9,1,2.6
			c0.7,0.7,1.5,1.1,2.5,1.1c1,0,1.8-0.4,2.5-1.1C572.2,899.5,572.6,898.7,572.6,897.7z"/>
		<path class="st6" d="M634.8,899c0,2.9-0.7,5-2.1,6c2.7,1.6,4,4,4,7.3c0,2.4-0.8,4.3-2.2,5.9c-1.5,1.6-3.3,2.4-5.4,2.4
			c-2,0-3.7-0.7-5.1-2c-1.4-1.4-2.3-3.1-2.6-5.1c-2.2,1.2-3.8,2.1-4.7,2.6c-1.6,1.1-2.9,2.3-3.9,3.6h-6.4v-28.3
			c-0.7,0.1-1.3,0.2-1.7,0.2c-2.2,0-4-0.8-5.5-2.5c-1.5-1.6-2.3-3.6-2.3-6c0-2.3,0.7-4.2,2.3-5.8c1.5-1.6,3.3-2.4,5.5-2.4
			c2.3,0,4.2,0.8,5.8,2.5c1.5,1.7,2.3,3.8,2.3,6.4v27.9c1.1-0.9,3.5-2.2,7.4-3.8c3.4-1.5,5.8-3.1,7.1-4.6c1-1.1,1.4-2.9,1.4-5.3
			v-22.2h6.3V899z M608,883.4c0-1-0.3-1.9-1-2.6c-0.7-0.7-1.5-1.1-2.5-1.1c-1,0-1.8,0.4-2.5,1.1c-0.7,0.7-1,1.6-1,2.6
			c0,1,0.3,1.9,1,2.6c0.7,0.7,1.5,1.1,2.5,1.1c1,0,1.8-0.4,2.5-1.1C607.7,885.3,608,884.4,608,883.4z M632.4,912.4
			c0-1-0.3-1.9-1-2.6c-0.7-0.7-1.5-1.1-2.5-1.1c-1,0-1.8,0.4-2.5,1.1c-0.7,0.7-1,1.6-1,2.6c0,1,0.3,1.9,1,2.6
			c0.7,0.7,1.5,1.1,2.5,1.1c1,0,1.8-0.4,2.5-1.1C632,914.3,632.4,913.4,632.4,912.4z"/>
		<path class="st6" d="M634.8,945.7h-6.1v-8.4h-0.4c-1.7,0-3.2-0.6-4.3-1.9c-1.2-1.3-1.8-2.8-1.8-4.6c0-1.8,0.6-3.4,1.8-4.7
			c1.2-1.3,2.7-2,4.4-2c1.7,0,3.2,0.6,4.5,1.8c1.3,1.2,1.9,2.8,1.9,4.8V945.7z M631.3,930.5c0-0.8-0.3-1.5-0.8-2.1
			c-0.5-0.6-1.2-0.9-1.9-0.9c-0.7,0-1.4,0.3-2,0.9c-0.6,0.6-0.9,1.3-0.9,2.1c0,0.8,0.3,1.5,0.9,2.1c0.6,0.6,1.2,0.9,2,0.9
			c0.8,0,1.4-0.3,1.9-0.9C631,932,631.3,931.3,631.3,930.5z"/>
		<path class="st6" d="M692.6,909.5c0,3.7-1.3,6.5-4,8.6c-2.3,1.8-5.2,2.6-8.7,2.6c-3.5,0-6.4-0.9-8.6-2.6c-2.5-2-3.8-4.8-3.8-8.6
			v-18.8c0-2.9-0.8-5.2-2.5-7c-1.7-1.8-3.7-2.7-6.2-2.7c-4.2,0-7.1,1.8-8.9,5.5c2.9,0.6,5.2,2.2,6.7,5c-3.5,2.1-5.2,4.7-5.2,7.9v5.2
			c0.5-0.3,1.1-0.4,1.9-0.4c2.1,0,3.9,0.8,5.4,2.4c1.5,1.6,2.2,3.5,2.2,5.9c0,2.3-0.8,4.3-2.2,5.9c-1.5,1.6-3.3,2.4-5.5,2.4
			c-2.3,0-4.2-0.8-5.7-2.5c-1.6-1.7-2.4-3.8-2.4-6.4v-12.9c0-3.1,1.4-5.5,4.2-7.3c-1.7-1.2-3.8-1.7-6.2-1.3
			c0.1-4.5,1.7-8.3,4.7-11.2c2.8-2.7,6.4-4.1,10.7-4.1c4.6,0,8.3,1.4,11.1,4.2c2.8,2.8,4.2,6.6,4.2,11.5v19.6c0,1.5,0.6,2.7,1.8,3.3
			s2.7,1,4.3,1c1.6,0,3-0.3,4.3-1s1.9-1.8,1.9-3.3v-34.4h6.3V909.5z M656.9,912.4c0-1-0.3-1.9-1-2.6c-0.7-0.7-1.5-1.1-2.5-1.1
			c-1,0-1.8,0.4-2.5,1.1c-0.7,0.7-1,1.6-1,2.6c0,1,0.3,1.9,1,2.6c0.7,0.7,1.5,1.1,2.5,1.1c1,0,1.8-0.4,2.5-1.1
			C656.6,914.3,656.9,913.4,656.9,912.4z M693.2,924.2c0,5.4-1.1,9.8-3.4,13c-2.5,3.6-6.4,5.4-11.6,5.4c-3.3,0-6.2-0.9-8.6-2.8
			c-2.7-2.1-4.1-4.9-4.1-8.4c0-2.2,0.7-4.1,2.1-5.6c1.4-1.5,3.1-2.3,5.2-2.3c2,0,3.6,0.8,5,2.3c1.3,1.5,2,3.4,2,5.6
			c0,2.9-1.1,4.7-3.2,5.5c1,0.1,1.6,0.2,1.9,0.2c5.7,0,8.8-4.4,9.1-13.1H693.2z M676,931.4c0-1-0.3-1.8-0.9-2.4
			c-0.6-0.7-1.4-1-2.4-1c-1,0-1.7,0.3-2.3,1s-0.9,1.5-0.9,2.4c0,1,0.3,1.8,0.9,2.5c0.6,0.7,1.3,1,2.3,1c1,0,1.7-0.3,2.4-1
			C675.7,933.2,676,932.3,676,931.4z"/>
		<path class="st6" d="M727,919.8h-6.3v-31.9c0-2-0.6-3.7-1.9-5c-1.3-1.3-3.1-1.9-5.3-1.9c-2.3,0-4.1,0.8-5.5,2.4
			c-1.4,1.6-2.2,3.6-2.3,6.1h-6.1c0.2-4.4,1.5-7.9,4-10.5c2.5-2.6,5.8-3.9,9.9-3.9c3.8,0,7,1,9.7,3.1c2.6,2.1,3.9,5.3,3.9,9.5V919.8
			z"/>
		<path class="st6" d="M768.4,919.8H762V891c0-4.7-1.2-8.1-3.6-10.1l-6.3,4.9l-6.2-4.9c-2.9,1.5-4.3,5-4.3,10.5
			c0,1.8,0.5,4.4,1.5,7.8c1,3.4,1.5,6,1.5,7.7c0,1.2-0.2,2.4-0.6,3.6c0.4-1,1.4-2.5,3-4.3c1.6-1.8,3.1-3.2,4.5-4.2
			c-1.8-0.1-3.3-0.9-4.3-2.3c-1.1-1.4-1.6-2.9-1.6-4.6c0-2,0.6-3.7,1.9-5.1c1.3-1.4,2.8-2.1,4.7-2.1c1.8,0,3.4,0.7,4.7,2.1
			c1.3,1.4,1.9,3.1,1.9,5.1c0,3.2-1.5,6.5-4.6,10c-4.1,4.7-6.5,7.7-7.2,9.1c-1,2.1-1.5,4-1.5,5.6H739c0.1-2.8,0.2-5.6,0.2-8.5
			c0-2.9-0.4-5.6-1.3-8.1c-1.8-5.3-2.7-9.2-2.7-11.9c0-4,0.9-7.5,2.8-10.5c1.9-2.9,4.6-4.9,8.1-5.9l5.8,4.7l5.4-4.7
			c7.3,1.2,10.9,6.5,10.9,15.8V919.8z M755.1,895c0-1-0.3-1.7-0.9-2.4c-0.6-0.6-1.3-0.9-2.2-0.9c-0.9,0-1.6,0.3-2.2,0.9
			c-0.6,0.6-0.9,1.4-0.9,2.4c0,1,0.3,1.7,0.9,2.4c0.6,0.6,1.3,0.9,2.2,0.9c0.9,0,1.6-0.3,2.2-0.9C754.8,896.7,755.1,895.9,755.1,895
			z"/>
	</g>
	<g>
		<g>
			<path class="st7" d="M477,407c-0.1-0.4-0.3-0.9-0.4-1.2c2.9-1.2,7.8-4.1,7.8-4.1c-0.8-3.7-13.9-47.8-17.6-53.5
				c-3.7-5.7-7.8-32.3-5.3-44.9c3.4,3.4,19.2,10.8,23.3,43.3c2.6,21.1,2,23,6.1,40.4c3.3,0.4,9,2,9,2c-0.4,2.4,0.3,18.7,8.6,25.3
				c2,1.6,7.8,2,11,1.6c3.3-0.4,15.1-4.5,16.3-9c1.2-4.5-1.2-10.2-1.6-11.4c-0.4-1.2-0.8-2.9-3.3-2.9c-2.4,0-5.3,1.6-6.5-2.5
				c-1.2-4.1-4.5-7.4-5.3-21.2c-3.1-53.3-8.7-69.5-24.1-90.7c-6.1-8.4-19.6-28.5-22.1-36c-2-6.1-3.7-9.4-9-13.9
				c-5.3-4.5-34.3-20-35.5-20.4c-0.4-2-1.6-4.5,1.2-7.8c5-5.8,17.6-18.3,17.6-31.5c0-6.3-0.7-30.4-28.4-30.4
				c-22.2,0-28.6,5.1-31.3,7.4c-2.1,1.8-4.1,9.2-4.5,12.9c-0.3,3.1-2.8,5.7-3.3,6.1c-1.6,1.6-5.3,6.1-5.3,6.1s-2.5,3.7-0.8,4.9
				c1.6,1.2,2.7,0.8,2.5,9c-0.2,8.2-2.9,12.9-0.4,14.7c2.5,1.8,9,4.1,9.6,4.3c1.7,0.6,2.7,0.9,2.4,6.3c-0.1,3-2.7,4.5-4.3,5.5
				c0,0-18.8,6.3-25.7,29.6c-3.3,11-7,22.8-10.1,32.4L477,407"/>
			<path class="st7" d="M269.9,363c4.1-1.2,15.3-4.7,15.3-4.7s3.9-1.4,5.7,1.8c1.8,3.3,9.2,3.7,14.5,1.8c1.8-0.6,8.4-4.2,16.4-8.6
				l-25.1-25.1c-8.4,4.3-15,7.6-15,7.6s-14.3,2-17.2,2c-2.9,0-6.1,1-8.2,3.9c-2,2.9-11,22.3,4.9,28c2.5,0.9,5.9-1,5.9-1
				C267.6,367.5,265.8,364.3,269.9,363"/>
			<path class="st7" d="M439.6,471.2c4,13,8.1,25.8,10,30.1c4.1,9,18,80.1,14.7,111.9c-0.4,4.3-10.1,11.1-18.4,13.5
				c-5.7,1.6-16.8,2.5-14.3,18c2.9,1.2,30.6,11.4,57.6-9.8c0.4,1.2,2.9,5.3,2.9,5.3c0,0,18.4-2.5,23.3-5.3c-0.8-2.5-2-20.4-2.9-22.9
				c3.7-0.8,10.6-3.3,11.8-5.3c-2.6-15.7-7-38.3-12.2-62.9L439.6,471.2"/>
			<path class="st7" d="M355,386.6l-1.8,17.9c0,0,11-1.2,8.2,6.9c-2.9,8.2-32.3,67.4-32.3,67.4c0,0-3.3,5.7-3.7,14.3
				c-0.4,8.6-3.3,84.2-14.3,99.7c-8.2,11.6-20.5,7.8-24.1,6.9c-5.3-1.2-14.7-4.9-20.8,6.5c2.5,2.9,24.5,14.7,24.5,14.7
				s15.9,5.7,31.9,4.1c-0.4,2.4,0.4,3.7-0.4,5.3c2.9,1.2,22.9,8.6,22.9,8.6s13.9-18.4,15.9-30.2c1.6-0.4,7.8-2,8.6-3.7
				c-0.8-3.7-1.2-97.2,0-101.7c1.2-4.5,3.3-9.8,9-15.9c4.2-4.5,22.6-27.2,37.2-40.1L355,386.6"/>
		</g>
		<path class="st8" d="M432.1,748.5c-7.2,0-14.3,0-21.5,0c-0.9-0.1-1.8-0.3-2.7-0.4c-5.4-0.4-10.8-0.6-16.2-1
			c-16.7-1.3-33.2-3.9-49.5-7.7c-66.7-15.8-124-48.2-171.5-97.7c-43.7-45.5-72.8-99.1-87.5-160.4c-3.9-16.2-6.6-32.6-7.9-49.2
			c-0.6-7.9-1-15.8-1.5-23.7c0-0.7-0.3-1.4-0.4-2.2c0-3,0-6,0-9c0.2-0.6,0.4-1.3,0.4-1.9c0.3-5.8,0.6-11.6,1-17.4
			c0.9-15.1,3-30.1,6-45c7.1-35.7,19.5-69.5,37.4-101.1c35.8-63.1,86.3-110.7,151.4-142.6c46.5-22.8,95.8-34.2,147.7-34.8
			c0.8,0,1.6-0.2,2.4-0.4c0.7,0,1.3,0,2,0c0.8,0.1,1.6,0.4,2.4,0.4c14.9,0.1,29.8,1.2,44.5,3.3c22.4,3.1,44.3,8.3,65.7,15.6
			c95,32.7,171.8,105.9,209.1,199.5c14.6,36.7,23.1,74.8,24.2,114.4c0,0.7,0.3,1.4,0.4,2.1c0,7.8,0,15.7,0,23.5
			c-0.1,0.8-0.4,1.6-0.4,2.4c-0.1,10.6-1.2,21.1-2.5,31.6c-2.8,21.6-7.6,42.7-14.4,63.4c-17.7,53.5-46.7,99.9-87,139.3
			c-37.7,36.9-81.7,63.8-131.7,80.8c-20,6.8-40.4,11.6-61.3,14.6c-12,1.7-24,2.9-36,3.2C433.7,748.1,432.9,748.3,432.1,748.5z
			 M201.5,231.6c-82.6,104.5-81,267,28.2,370.8c108.6,103.2,265.5,95,360.9,18.4C461,491.1,331.3,361.4,201.5,231.6z M251.3,181.8
			C381,311.6,510.7,441.3,640.4,571.1c80.7-101.5,82.5-262.9-25.9-368.5C507.4,98.2,349.3,103.6,251.3,181.8z"/>
	</g>
</g>
</svg>
