<?xml version="1.0" encoding="utf-8"?>
<!-- Generator: Adobe Illustrator 22.0.0, SVG Export Plug-In . SVG Version: 6.00 Build 0)  -->
<svg version="1.1" id="Layer_1" xmlns="http://www.w3.org/2000/svg" xmlns:xlink="http://www.w3.org/1999/xlink" x="0px" y="0px"
	 viewBox="0 0 841.9 1190.6" style="enable-background:new 0 0 841.9 1190.6;" xml:space="preserve">
<style type="text/css">
	.st0{fill:none;}
	.st1{fill:#010101;}
	.st2{fill:#FFFFFF;}
	.st3{fill:#EB2227;}
	.st4{fill:#EB2627;}
	.st5{fill:#2A3B8F;}
	.st6{fill:#FFFFFF;stroke:#FFFFFF;stroke-miterlimit:10;}
	.st7{fill-rule:evenodd;clip-rule:evenodd;}
	.st8{fill:#EC2727;}
	.st9{fill-rule:evenodd;clip-rule:evenodd;fill:#FFFFFF;}
	.st10{fill-rule:evenodd;clip-rule:evenodd;fill:#EC2C2C;}
	.st11{fill-rule:evenodd;clip-rule:evenodd;fill:#010101;}
	.st12{fill-rule:evenodd;clip-rule:evenodd;fill:#AFAFB0;}
	.st13{fill-rule:evenodd;clip-rule:evenodd;fill:#302F2F;}
	.st14{fill:#040505;}
</style>
<g>
	<g>
		<rect x="0" y="0" class="st0" width="841.9" height="1190.6"/>
		<rect x="28.3" y="28.3" class="st1" width="785.2" height="1133.9"/>
		<rect x="34" y="34" class="st2" width="773.9" height="1122.5"/>
		<rect x="52.5" y="792.6" class="st3" width="737" height="348.7"/>
		<g id="stecon_41_">
			<path id="red_41_" class="st4" d="M52.8,53.5c42.5,0,85,0,127.6,0c0,22.6,0,45.1,0,67.7c-42.5,0-85,0-127.5,0c0-0.2,0-0.5,0-0.7
				c0-22.1,0-44.2,0-66.3C52.9,54,52.8,53.8,52.8,53.5z M55.8,87.4c0.2,0.1,0.4,0.2,0.5,0.3c3.6,1.8,7.1,3.7,10.7,5.5
				c16.4,8.4,32.7,16.8,49.1,25.2c0.4,0.2,0.7,0.2,1.1,0c13.8-7.1,27.6-14.2,41.4-21.3c6.1-3.2,12.3-6.3,18.4-9.5
				c0.1-0.1,0.3-0.2,0.5-0.3c-0.2-0.1-0.3-0.2-0.5-0.3c-3.8-1.9-7.6-3.9-11.4-5.8c-16.2-8.3-32.4-16.7-48.5-25
				c-0.3-0.2-0.5-0.2-0.9,0c-7,3.6-14.1,7.3-21.1,10.9c-12.6,6.5-25.2,12.9-37.7,19.4C56.9,86.8,56.4,87.1,55.8,87.4z"/>
			<g id="white_41_">
				<path class="st2" d="M55.8,87.4c0.6-0.3,1.1-0.6,1.6-0.8c12.6-6.5,25.2-12.9,37.7-19.4c7-3.6,14.1-7.2,21.1-10.9
					c0.3-0.2,0.6-0.1,0.9,0c16.2,8.3,32.4,16.7,48.5,25c3.8,1.9,7.6,3.9,11.4,5.8c0.1,0.1,0.3,0.1,0.5,0.3c-0.2,0.1-0.3,0.2-0.5,0.3
					c-6.1,3.2-12.3,6.3-18.4,9.5c-13.8,7.1-27.6,14.2-41.4,21.3c-0.4,0.2-0.7,0.2-1.1,0C99.7,110,83.4,101.6,67,93.1
					c-3.6-1.8-7.1-3.7-10.7-5.5C56.2,87.6,56,87.5,55.8,87.4z M59.7,87.4c0.2,0.1,0.3,0.2,0.4,0.2c1,0.5,1.9,1,2.9,1.5
					c17.7,9.1,35.5,18.2,53.2,27.3c0.3,0.1,0.5,0.2,0.8,0c12.9-6.6,25.7-13.2,38.6-19.8c5.8-3,11.6-6,17.5-9
					c0.1-0.1,0.3-0.2,0.5-0.3c-0.2-0.1-0.4-0.2-0.6-0.3c-15.9-8.2-31.9-16.4-47.8-24.5c-2.7-1.4-5.5-2.8-8.2-4.2
					c-0.2-0.1-0.4-0.1-0.7,0c-0.3,0.2-0.7,0.4-1.1,0.6C97,68.3,78.6,77.6,60.3,87C60.1,87.1,60,87.2,59.7,87.4z"/>
				<path class="st2" d="M147.4,79.5c1.4,0,2.7,0,4.1,0c0,5.2,0,10.3,0,15.4c-1.4,0-2.8,0-4.2,0c-0.9-2.6-1.8-5.3-2.7-7.9
					c0,0-0.1,0-0.1,0c0,2.6,0,5.2,0,7.9c-1.4,0-2.7,0-4,0c0,0,0,0,0,0c0,0,0,0,0,0c0-0.1,0-0.2,0-0.3c0-4.9,0-9.9,0-14.8
					c0,0,0-0.1,0-0.2c0.1,0,0.3,0,0.4,0c1.2,0,2.3,0,3.5,0c0.4,0,0.4,0,0.5,0.4c0.8,2.5,1.6,5,2.4,7.5c0,0.1,0.1,0.2,0.2,0.4
					C147.4,85,147.4,82.3,147.4,79.5z"/>
				<path class="st2" d="M138.8,87.3c0,1.5,0,3,0,4.5c0,0.8-0.3,1.4-0.8,1.9c-0.7,0.7-1.6,1.2-2.6,1.3c-1.5,0.3-3.1,0.3-4.6-0.1
					c-0.9-0.2-1.6-0.6-2.3-1.3c-0.5-0.5-0.8-1.1-0.8-1.9c0-3,0-6.1,0-9.1c0-0.7,0.2-1.3,0.7-1.8c0.6-0.7,1.4-1.2,2.3-1.4
					c1.7-0.4,3.5-0.4,5.2,0.1c0.7,0.2,1.4,0.6,2,1.2c0.6,0.5,0.9,1.2,0.8,2C138.8,84.3,138.8,85.8,138.8,87.3z M134.2,87.3
					c0-1.5,0-2.9,0-4.4c0-0.7-0.1-0.9-0.8-0.9c-0.1,0-0.2,0-0.2,0c-0.5,0.1-0.6,0.2-0.6,0.7c0,3,0,6,0,9c0,0.5,0.1,0.7,0.6,0.7
					c0.2,0,0.3,0,0.5,0c0.5-0.1,0.6-0.2,0.6-0.7C134.2,90.3,134.2,88.8,134.2,87.3z"/>
				<path class="st2" d="M126.7,88.9c0,0.2,0,0.3,0,0.5c0,0.8,0,1.6,0,2.4c0,0.8-0.3,1.5-0.9,2c-0.7,0.7-1.5,1.1-2.5,1.3
					c-1.5,0.3-3,0.3-4.5-0.1c-0.8-0.2-1.5-0.6-2.2-1.2c-0.6-0.6-0.9-1.2-0.9-2.1c0-3,0-5.9,0-8.9c0-0.9,0.3-1.6,0.9-2.1
					c0.7-0.7,1.6-1.1,2.5-1.2c1.4-0.2,2.9-0.2,4.3,0.1c0.9,0.2,1.6,0.6,2.3,1.2c0.6,0.6,0.9,1.2,0.9,2.1c0,0.8,0,1.7,0,2.5
					c0,0.2,0,0.3,0,0.5c-1.6,0-3.1,0-4.6,0c0-0.2,0-0.3,0-0.5c0-0.9,0-1.7,0-2.6c0-0.5-0.1-0.6-0.6-0.7c-0.1,0-0.2,0-0.3,0
					c-0.7,0.1-0.7,0.3-0.7,0.8c0,2.9,0,5.9,0,8.8c0,0.1,0,0.2,0,0.3c0,0.2,0.1,0.4,0.3,0.4c0.1,0,0.3,0.1,0.4,0.1
					c0.6,0.1,0.8-0.2,0.8-0.8c0-0.8,0-1.5,0-2.3c0-0.2,0-0.3,0-0.5C122.4,88.8,126,88.8,126.7,88.9z"/>
				<path class="st2" d="M105.5,94.9c0-5.1,0-10.2,0-15.3c0.4-0.1,8.7-0.1,9.1,0c0,0.8,0,1.6,0,2.5c-0.1,0-0.3,0-0.4,0
					c-1.1,0-2.2,0-3.3,0c-0.1,0-0.3,0-0.5,0c0,1.4,0,2.7,0,4.1c1,0,2.1,0,3.1,0c0,0.8,0,1.5,0,2.2c-0.4,0.1-0.7,0.1-1,0.1
					c-0.3,0-0.7,0-1,0c-0.3,0-0.7,0-1,0c-0.1,0.3-0.1,2.8,0,3.7c0.1,0,0.3,0,0.5,0c1.1,0,2.2,0,3.3,0c0.2,0,0.3,0,0.5,0
					c0,0.9,0,1.8,0,2.6C114.3,95,106,95,105.5,94.9z"/>
				<path class="st2" d="M101.1,94.9c-1.6,0-3.1,0-4.7,0c0-4.3,0-8.5,0-12.8c-1,0-2,0-3,0c-0.1-0.4-0.1-2.1,0-2.6
					c0.3-0.1,10.4-0.1,10.8,0c0.1,0.3,0.1,2.1,0,2.6c-1,0-2,0-3,0C101.1,86.4,101.1,90.6,101.1,94.9z"/>
				<path class="st2" d="M92.1,84.9c-1.6,0-3.1,0-4.6,0c0-0.2,0-0.3,0-0.5c0-0.6,0-1.2,0-1.8c0-0.4-0.1-0.6-0.5-0.6
					c-0.1,0-0.2,0-0.4,0c-0.3,0-0.5,0.2-0.5,0.5c0,0.6,0,1.1,0,1.7c0,0.4,0.2,0.6,0.5,0.8c0.4,0.2,0.7,0.4,1.1,0.7
					c1,0.6,2,1.1,2.9,1.7c0.1,0.1,0.3,0.2,0.4,0.3c0.7,0.5,1.1,1.2,1.1,2.1c0,0.7,0,1.3,0,2c0,0.7-0.2,1.3-0.7,1.7
					c-0.7,0.7-1.5,1.2-2.4,1.4c-1.5,0.4-3.1,0.4-4.7,0c-0.8-0.2-1.6-0.6-2.2-1.2c-0.6-0.5-0.9-1.2-0.9-2.1c0-0.8,0-1.5,0-2.3
					c0.3-0.1,3.9-0.1,4.5,0c0,0.1,0,0.3,0,0.4c0,0.7,0,1.3,0,2c0,0.4,0.1,0.6,0.5,0.6c0.2,0,0.5,0,0.7-0.1c0.2,0,0.3-0.2,0.3-0.4
					c0-0.6,0-1.2,0-1.8c0-0.3-0.2-0.6-0.4-0.7c-0.4-0.3-0.8-0.5-1.2-0.8c-1-0.6-2-1.2-2.9-1.8c-0.3-0.2-0.6-0.4-0.9-0.7
					c-0.4-0.4-0.6-0.9-0.6-1.5c0-0.7,0-1.3,0-2c0-0.8,0.3-1.4,0.8-1.9c0.7-0.7,1.6-1.2,2.6-1.4c1.4-0.3,2.8-0.3,4.2,0.1
					c0.9,0.2,1.7,0.7,2.3,1.3c0.5,0.5,0.8,1.1,0.8,1.9C92.1,83.5,92.1,84.2,92.1,84.9z"/>
			</g>
			<g id="blue_41_">
				<path class="st5" d="M59.7,87.4c0.3-0.1,0.5-0.2,0.7-0.3c18.3-9.4,36.6-18.8,54.9-28.1c0.4-0.2,0.7-0.4,1.1-0.6
					c0.2-0.1,0.4-0.1,0.7,0c2.7,1.4,5.4,2.8,8.2,4.2c15.9,8.2,31.9,16.4,47.8,24.5c0.2,0.1,0.3,0.2,0.6,0.3
					c-0.2,0.1-0.3,0.2-0.5,0.3c-5.8,3-11.6,6-17.5,9c-12.9,6.6-25.7,13.2-38.6,19.8c-0.3,0.1-0.5,0.1-0.8,0
					C98.5,107.3,80.8,98.2,63,89.1c-1-0.5-1.9-1-2.9-1.5C60,87.5,59.9,87.5,59.7,87.4z M147.4,79.5c0,2.8,0,5.5,0,8.3
					c-0.1-0.1-0.1-0.2-0.2-0.4c-0.8-2.5-1.6-5-2.4-7.5c-0.1-0.4-0.1-0.4-0.5-0.4c-1.2,0-2.3,0-3.5,0c-0.1,0-0.3,0-0.4,0
					c0,0.1,0,0.1,0,0.2c0,4.9,0,9.9,0,14.8c0,0.1,0,0.2,0,0.3c0,0,0,0,0,0c0,0,0,0,0,0c1.3,0,2.7,0,4,0c0-2.7,0-5.3,0-7.9
					c0,0,0.1,0,0.1,0c0.9,2.6,1.8,5.3,2.7,7.9c1.4,0,2.8,0,4.2,0c0-5.1,0-10.2,0-15.4C150.2,79.5,148.8,79.5,147.4,79.5z
					 M138.8,87.3c0-1.5,0-3,0-4.5c0-0.8-0.3-1.5-0.8-2c-0.6-0.6-1.2-1-2-1.2c-1.7-0.5-3.5-0.5-5.2-0.1c-0.9,0.2-1.7,0.7-2.3,1.4
					c-0.4,0.5-0.7,1.1-0.7,1.8c0,3,0,6.1,0,9.1c0,0.8,0.3,1.4,0.8,1.9c0.6,0.7,1.4,1.1,2.3,1.3c1.5,0.3,3.1,0.3,4.6,0.1
					c1-0.2,1.8-0.6,2.6-1.3c0.5-0.5,0.8-1.2,0.8-1.9C138.8,90.3,138.8,88.8,138.8,87.3z M126.7,88.9c-0.6-0.1-4.3-0.1-4.7,0
					c0,0.1,0,0.3,0,0.5c0,0.8,0,1.5,0,2.3c0,0.7-0.2,0.9-0.8,0.8c-0.1,0-0.3,0-0.4-0.1c-0.2-0.1-0.3-0.2-0.3-0.4c0-0.1,0-0.2,0-0.3
					c0-2.9,0-5.9,0-8.8c0-0.5,0-0.7,0.7-0.8c0.1,0,0.2,0,0.3,0c0.5,0.1,0.6,0.2,0.6,0.7c0,0.9,0,1.7,0,2.6c0,0.2,0,0.3,0,0.5
					c1.6,0,3.1,0,4.6,0c0-0.2,0-0.4,0-0.5c0-0.8,0-1.7,0-2.5c0-0.9-0.3-1.5-0.9-2.1c-0.7-0.6-1.4-1-2.3-1.2
					c-1.4-0.3-2.9-0.3-4.3-0.1c-0.9,0.2-1.8,0.6-2.5,1.2c-0.6,0.6-0.9,1.3-0.9,2.1c0,3,0,5.9,0,8.9c0,0.9,0.3,1.6,0.9,2.1
					c0.6,0.6,1.4,1,2.2,1.2c1.5,0.3,3,0.3,4.5,0.1c0.9-0.2,1.8-0.6,2.5-1.3c0.6-0.5,0.9-1.2,0.9-2c0-0.8,0-1.6,0-2.4
					C126.7,89.2,126.7,89.1,126.7,88.9z M92.1,84.9c0-0.7,0-1.4,0-2.1c0-0.8-0.3-1.4-0.8-1.9c-0.7-0.7-1.4-1.1-2.3-1.3
					c-1.4-0.3-2.8-0.3-4.2-0.1c-1,0.2-1.9,0.6-2.6,1.4c-0.5,0.5-0.8,1.1-0.8,1.9c0,0.7,0,1.3,0,2c0,0.6,0.2,1.1,0.6,1.5
					c0.3,0.2,0.6,0.5,0.9,0.7c1,0.6,2,1.2,2.9,1.8c0.4,0.2,0.8,0.5,1.2,0.8c0.2,0.2,0.4,0.4,0.4,0.7c0,0.6,0,1.2,0,1.8
					c0,0.2-0.1,0.4-0.3,0.4c-0.2,0-0.5,0.1-0.7,0.1c-0.4,0-0.5-0.2-0.5-0.6c0-0.7,0-1.3,0-2c0-0.1,0-0.3,0-0.4
					c-0.6-0.1-4.2-0.1-4.5,0c0,0.7,0,1.5,0,2.3c0,0.9,0.3,1.5,0.9,2.1c0.6,0.6,1.4,1,2.2,1.2c1.6,0.4,3.1,0.3,4.7,0
					c0.9-0.2,1.7-0.7,2.4-1.4c0.4-0.5,0.7-1.1,0.7-1.7c0-0.7,0-1.3,0-2c0-0.9-0.4-1.6-1.1-2.1c-0.1-0.1-0.3-0.2-0.4-0.3
					c-1-0.6-2-1.1-2.9-1.7c-0.4-0.2-0.7-0.4-1.1-0.7c-0.3-0.2-0.5-0.4-0.5-0.8c0-0.6,0-1.1,0-1.7c0-0.3,0.2-0.5,0.5-0.5
					c0.1,0,0.2,0,0.4,0c0.4,0,0.5,0.2,0.5,0.6c0,0.6,0,1.2,0,1.8c0,0.1,0,0.3,0,0.5C89.1,84.9,90.6,84.9,92.1,84.9z M105.5,94.9
					c0.5,0.1,8.8,0.1,9.1,0c0-0.9,0-1.7,0-2.6c-0.2,0-0.3,0-0.5,0c-1.1,0-2.2,0-3.3,0c-0.2,0-0.3,0-0.5,0c-0.1-0.8,0-3.3,0-3.7
					c0.3,0,0.7,0,1,0c0.3,0,0.7,0,1,0c0.3,0,0.7,0.1,1-0.1c0-0.7,0-1.5,0-2.2c-1.1,0-2.1,0-3.1,0c0-1.4,0-2.7,0-4.1
					c0.2,0,0.3,0,0.5,0c1.1,0,2.2,0,3.3,0c0.1,0,0.3,0,0.4,0c0-0.9,0-1.7,0-2.5c-0.4-0.1-8.7-0.1-9.1,0
					C105.5,84.7,105.5,89.8,105.5,94.9z M101.1,94.9c0-4.3,0-8.5,0-12.8c1,0,2,0,3,0c0.1-0.5,0.1-2.2,0-2.6
					c-0.4-0.1-10.5-0.1-10.8,0c-0.1,0.4-0.1,2.2,0,2.6c1,0,2,0,3,0c0,4.3,0,8.5,0,12.8C97.9,94.9,99.5,94.9,101.1,94.9z"/>
				<path class="st5" d="M134.2,87.3c0,1.5,0,3,0,4.5c0,0.5-0.1,0.6-0.6,0.7c-0.2,0-0.3,0-0.5,0c-0.5-0.1-0.6-0.2-0.6-0.7
					c0-3,0-6,0-9c0-0.5,0.1-0.6,0.6-0.7c0.1,0,0.2,0,0.2,0c0.7,0,0.8,0.1,0.8,0.9C134.2,84.4,134.2,85.9,134.2,87.3z"/>
			</g>
		</g>
	</g>
	<g>
		<g>
			<path class="st6" d="M100.7,1105.4v-50.1h6.5v50.1H100.7z"/>
			<path class="st6" d="M113.5,1105.4v-50.1h6.3l13.2,33.5v-33.5h6v50.1h-6.5l-13-32.7v32.7H113.5z"/>
			<path class="st6" d="M166.6,1087l6.3,3.1c-1,5.5-2.6,9.5-4.8,12.2s-5.1,4-8.6,4c-4.3,0-7.8-2.3-10.6-6.8
				c-2.8-4.5-4.1-10.8-4.1-18.6c0-8.3,1.4-14.8,4.2-19.4c2.8-4.6,6.4-6.9,10.9-6.9c3.9,0,7.1,1.8,9.6,5.4c1.5,2.1,2.6,5.2,3.3,9.2
				l-6.4,2.4c-0.4-2.6-1.2-4.6-2.4-6.2s-2.7-2.3-4.4-2.3c-2.4,0-4.3,1.3-5.8,4c-1.5,2.7-2.2,7-2.2,13c0,6.3,0.7,10.8,2.2,13.5
				c1.5,2.7,3.4,4,5.7,4c1.7,0,3.2-0.9,4.5-2.6S166,1090.7,166.6,1087z"/>
			<path class="st6" d="M177.2,1080.7c0-5.1,0.5-9.4,1.5-12.9c0.7-2.6,1.7-4.8,3-6.9c1.3-2,2.7-3.5,4.2-4.5c2-1.3,4.3-2,7-2
				c4.8,0,8.6,2.3,11.4,6.9c2.9,4.6,4.3,10.9,4.3,19.1c0,8.1-1.4,14.4-4.2,19s-6.6,6.9-11.3,6.9c-4.8,0-8.6-2.3-11.4-6.8
				C178.6,1094.9,177.2,1088.7,177.2,1080.7z M183.9,1080.4c0,5.7,0.8,10,2.5,12.9c1.7,2.9,3.8,4.4,6.4,4.4s4.7-1.5,6.4-4.4
				c1.7-2.9,2.5-7.3,2.5-13.1c0-5.7-0.8-10-2.4-12.9c-1.6-2.8-3.8-4.2-6.5-4.2s-4.8,1.4-6.5,4.3
				C184.7,1070.3,183.9,1074.6,183.9,1080.4z"/>
			<path class="st6" d="M213.4,1105.4v-50.1h9.7l5.9,34.2l5.8-34.2h9.8v50.1h-6V1066l-6.4,39.4h-6.3l-6.4-39.4v39.4H213.4z"/>
			<path class="st6" d="M251,1105.4v-50.1h10.4c4,0,6.5,0.3,7.7,0.8c1.8,0.8,3.4,2.4,4.6,4.9c1.2,2.5,1.9,5.8,1.9,9.8
				c0,3.1-0.4,5.7-1.1,7.8c-0.7,2.1-1.6,3.7-2.7,4.9c-1.1,1.2-2.2,2-3.4,2.4c-1.6,0.5-3.8,0.7-6.8,0.7h-4.2v18.9H251z M257.5,1063.8
				v14.2h3.6c2.6,0,4.3-0.3,5.1-0.8c0.9-0.5,1.5-1.3,2-2.5c0.5-1.1,0.7-2.4,0.7-3.9c0-1.8-0.3-3.3-1-4.5c-0.7-1.2-1.6-1.9-2.6-2.2
				c-0.8-0.2-2.3-0.3-4.7-0.3H257.5z"/>
			<path class="st6" d="M281.3,1105.4v-49.7h6.5v41.3H304v8.4H281.3z"/>
			<path class="st6" d="M308.6,1105.4v-50.1h23.9v8.5h-17.4v11.1h16.2v8.4h-16.2v13.6h18v8.4H308.6z"/>
			<path class="st6" d="M345.9,1105.4v-41.6h-9.6v-8.5H362v8.5h-9.5v41.6H345.9z"/>
			<path class="st6" d="M366.2,1105.4v-50.1h23.9v8.5h-17.4v11.1h16.2v8.4h-16.2v13.6h18v8.4H366.2z"/>
			<path class="st6" d="M419.6,1089.1l6.3-1c0.4,3.3,1.2,5.7,2.3,7.3c1.2,1.5,2.7,2.3,4.7,2.3c2.1,0,3.7-0.7,4.7-2.1
				c1.1-1.4,1.6-3,1.6-4.8c0-1.2-0.2-2.2-0.7-3c-0.4-0.8-1.2-1.6-2.3-2.2c-0.8-0.4-2.5-1.1-5.2-2.2c-3.5-1.3-5.9-3-7.3-5
				c-2-2.8-3-6.1-3-10.1c0-2.6,0.5-4.9,1.4-7.2c0.9-2.2,2.3-3.9,4-5.1s3.9-1.7,6.3-1.7c4,0,7.1,1.4,9.1,4.1c2,2.8,3.1,6.4,3.2,11
				l-6.5,0.4c-0.3-2.6-0.9-4.4-1.8-5.6c-0.9-1.1-2.3-1.7-4.1-1.7c-1.9,0-3.4,0.6-4.4,1.8c-0.7,0.8-1,1.8-1,3.1c0,1.2,0.3,2.2,1,3
				c0.8,1.1,2.8,2.2,6,3.3c3.2,1.2,5.5,2.4,7,3.6s2.7,2.9,3.6,5.1c0.9,2.2,1.3,4.8,1.3,8c0,2.9-0.5,5.6-1.5,8.1
				c-1,2.5-2.5,4.4-4.4,5.6c-1.9,1.2-4.2,1.8-7,1.8c-4.1,0-7.2-1.5-9.4-4.4C421.3,1099,420,1094.7,419.6,1089.1z"/>
			<path class="st6" d="M471.9,1087l6.3,3.1c-1,5.5-2.6,9.5-4.8,12.2s-5.1,4-8.6,4c-4.3,0-7.8-2.3-10.6-6.8
				c-2.8-4.5-4.1-10.8-4.1-18.6c0-8.3,1.4-14.8,4.2-19.4c2.8-4.6,6.4-6.9,10.9-6.9c3.9,0,7.1,1.8,9.6,5.4c1.5,2.1,2.6,5.2,3.3,9.2
				l-6.4,2.4c-0.4-2.6-1.2-4.6-2.4-6.2s-2.7-2.3-4.4-2.3c-2.4,0-4.3,1.3-5.8,4c-1.5,2.7-2.2,7-2.2,13c0,6.3,0.7,10.8,2.2,13.5
				c1.5,2.7,3.4,4,5.7,4c1.7,0,3.2-0.9,4.5-2.6S471.4,1090.7,471.9,1087z"/>
			<path class="st6" d="M512.9,1105.4h-7.1l-2.8-11.4h-12.9l-2.7,11.4h-6.9l12.6-50.1h6.9L512.9,1105.4z M500.9,1085.6l-4.4-18.6
				l-4.4,18.6H500.9z"/>
			<path class="st6" d="M516.4,1105.4v-50.1h22.1v8.5h-15.6v11.9h13.5v8.5h-13.5v21.3H516.4z"/>
			<path class="st6" d="M543.9,1105.4v-50.1H566v8.5h-15.6v11.9h13.5v8.5h-13.5v21.3H543.9z"/>
			<path class="st6" d="M570.1,1080.7c0-5.1,0.5-9.4,1.5-12.9c0.7-2.6,1.7-4.8,3-6.9c1.3-2,2.7-3.5,4.2-4.5c2-1.3,4.3-2,7-2
				c4.8,0,8.6,2.3,11.4,6.9c2.9,4.6,4.3,10.9,4.3,19.1c0,8.1-1.4,14.4-4.2,19s-6.6,6.9-11.3,6.9c-4.8,0-8.6-2.3-11.4-6.8
				C571.5,1094.9,570.1,1088.7,570.1,1080.7z M576.8,1080.4c0,5.7,0.8,10,2.5,12.9c1.7,2.9,3.8,4.4,6.4,4.4s4.7-1.5,6.4-4.4
				c1.7-2.9,2.5-7.3,2.5-13.1c0-5.7-0.8-10-2.4-12.9c-1.6-2.8-3.8-4.2-6.5-4.2s-4.8,1.4-6.5,4.3
				C577.6,1070.3,576.8,1074.6,576.8,1080.4z"/>
			<path class="st6" d="M606.6,1105.4v-49.7h6.5v41.3h16.2v8.4H606.6z"/>
			<path class="st6" d="M633.9,1055.3h11.9c2.7,0,4.7,0.3,6.1,1c1.9,0.9,3.5,2.4,4.9,4.6c1.3,2.2,2.4,4.9,3.1,8.1s1.1,7.1,1.1,11.8
				c0,4.1-0.3,7.7-1,10.7c-0.8,3.6-2,6.6-3.5,8.9c-1.1,1.7-2.7,3-4.6,4c-1.4,0.7-3.4,1.1-5.8,1.1h-12.3V1055.3z M640.4,1063.8v33.2
				h4.9c1.8,0,3.1-0.2,3.9-0.5c1.1-0.4,1.9-1.1,2.6-2.1c0.7-1,1.3-2.6,1.7-4.8c0.4-2.2,0.7-5.3,0.7-9.2c0-3.9-0.2-6.8-0.7-8.9
				c-0.4-2.1-1.1-3.7-1.8-4.9c-0.8-1.2-1.8-1.9-3-2.4c-0.9-0.3-2.7-0.5-5.3-0.5H640.4z"/>
			<path class="st6" d="M666.3,1105.4v-50.1h6.5v50.1H666.3z"/>
			<path class="st6" d="M679,1105.4v-50.1h6.3l13.2,33.5v-33.5h6v50.1h-6.5l-13-32.7v32.7H679z"/>
			<path class="st6" d="M726.5,1087v-8.4h14v20c-1.4,2.1-3.3,3.9-5.9,5.4c-2.6,1.6-5.2,2.3-7.9,2.3c-3.4,0-6.3-1.1-8.8-3.3
				c-2.5-2.2-4.4-5.3-5.7-9.4c-1.3-4.1-1.9-8.5-1.9-13.3c0-5.2,0.7-9.9,2.1-13.9c1.4-4.1,3.5-7.2,6.2-9.3c2.1-1.7,4.6-2.5,7.7-2.5
				c4,0,7.1,1.3,9.4,3.9c2.3,2.6,3.7,6.2,4.3,10.8l-6.5,1.9c-0.5-2.5-1.3-4.4-2.6-5.8s-2.8-2.1-4.7-2.1c-2.8,0-5.1,1.4-6.8,4.2
				c-1.7,2.8-2.5,7-2.5,12.5c0,5.9,0.9,10.4,2.6,13.4c1.7,3,3.9,4.5,6.7,4.5c1.4,0,2.7-0.4,4.1-1.2c1.4-0.8,2.5-1.8,3.5-3v-6.4
				H726.5z"/>
		</g>
		<g>
			<path class="st6" d="M243.2,976.3h11.9c2.7,0,4.7,0.3,6.1,1c1.9,0.9,3.5,2.4,4.9,4.6c1.3,2.2,2.4,4.9,3.1,8.1
				c0.7,3.2,1.1,7.1,1.1,11.8c0,4.1-0.3,7.7-1,10.7c-0.8,3.6-2,6.6-3.5,8.9c-1.1,1.7-2.7,3-4.6,4c-1.4,0.7-3.4,1.1-5.8,1.1h-12.3
				V976.3z M249.8,984.8v33.2h4.9c1.8,0,3.1-0.2,3.9-0.5c1.1-0.4,1.9-1.1,2.6-2.1c0.7-1,1.3-2.6,1.7-4.8s0.7-5.3,0.7-9.2
				c0-3.9-0.2-6.8-0.7-8.9c-0.4-2.1-1.1-3.7-1.8-4.9s-1.8-1.9-3-2.4c-0.9-0.3-2.7-0.5-5.3-0.5H249.8z"/>
			<path class="st6" d="M274.5,1001.7c0-5.1,0.5-9.4,1.5-12.9c0.7-2.6,1.7-4.8,3-6.9c1.3-2,2.7-3.5,4.2-4.5c2-1.3,4.3-2,7-2
				c4.8,0,8.6,2.3,11.4,6.9c2.9,4.6,4.3,10.9,4.3,19.1c0,8.1-1.4,14.4-4.2,19c-2.8,4.6-6.6,6.9-11.3,6.9c-4.8,0-8.6-2.3-11.4-6.8
				C275.9,1015.9,274.5,1009.7,274.5,1001.7z M281.2,1001.4c0,5.7,0.8,10,2.5,12.9c1.7,2.9,3.8,4.4,6.4,4.4s4.7-1.5,6.4-4.4
				c1.7-2.9,2.5-7.3,2.5-13.1c0-5.7-0.8-10-2.4-12.9c-1.6-2.8-3.8-4.2-6.5-4.2s-4.8,1.4-6.5,4.3C282,991.3,281.2,995.6,281.2,1001.4
				z"/>
			<path class="st6" d="M335.9,1026.4v-50.1h6.3l13.2,33.5v-33.5h6v50.1H355l-13-32.7v32.7H335.9z"/>
			<path class="st6" d="M367.1,1001.7c0-5.1,0.5-9.4,1.5-12.9c0.7-2.6,1.7-4.8,3-6.9c1.3-2,2.7-3.5,4.2-4.5c2-1.3,4.3-2,7-2
				c4.8,0,8.6,2.3,11.4,6.9c2.9,4.6,4.3,10.9,4.3,19.1c0,8.1-1.4,14.4-4.2,19c-2.8,4.6-6.6,6.9-11.3,6.9c-4.8,0-8.6-2.3-11.4-6.8
				C368.5,1015.9,367.1,1009.7,367.1,1001.7z M373.8,1001.4c0,5.7,0.8,10,2.5,12.9c1.7,2.9,3.8,4.4,6.4,4.4c2.6,0,4.7-1.5,6.4-4.4
				c1.7-2.9,2.5-7.3,2.5-13.1c0-5.7-0.8-10-2.4-12.9c-1.6-2.8-3.8-4.2-6.5-4.2s-4.8,1.4-6.5,4.3
				C374.6,991.3,373.8,995.6,373.8,1001.4z"/>
			<path class="st6" d="M410.7,1026.4v-41.6h-9.6v-8.5h25.6v8.5h-9.5v41.6H410.7z"/>
			<path class="st6" d="M456,1026.4v-50.1h23.9v8.5h-17.4v11.1h16.2v8.4h-16.2v13.6h18v8.4H456z"/>
			<path class="st6" d="M486.1,1026.4v-50.1h6.3l13.2,33.5v-33.5h6v50.1h-6.5l-13-32.7v32.7H486.1z"/>
			<path class="st6" d="M525.8,1026.4v-41.6h-9.6v-8.5h25.6v8.5h-9.5v41.6H525.8z"/>
			<path class="st6" d="M546.1,1026.4v-50.1h13.7c3.4,0,5.9,0.5,7.5,1.3c1.6,0.9,2.8,2.5,3.8,4.8c0.9,2.3,1.4,4.9,1.4,7.9
				c0,3.8-0.7,6.9-2.1,9.3c-1.4,2.5-3.5,4-6.4,4.6c1.4,1.3,2.6,2.7,3.5,4.2c0.9,1.5,2.2,4.2,3.7,8.1l3.9,9.8h-7.8l-4.7-10.9
				c-1.7-3.9-2.8-6.4-3.4-7.4c-0.6-1-1.3-1.7-2-2.1c-0.7-0.4-1.8-0.6-3.3-0.6h-1.3v20.9H546.1z M552.6,997.5h4.8
				c3.1,0,5.1-0.2,5.9-0.6s1.4-1.1,1.8-2.1c0.4-1,0.7-2.3,0.7-3.8c0-1.7-0.3-3-0.9-4.1s-1.4-1.7-2.5-2c-0.5-0.1-2.1-0.2-4.8-0.2
				h-5.1V997.5z"/>
			<path class="st6" d="M585.4,1026.4v-21.1l-11.8-29h7.6l7.6,19.8l7.4-19.8h7.5l-11.9,29.1v21H585.4z"/>
		</g>
		<g>
			<path class="st6" d="M109.7,931.6h-7.5v-28.9c0-2.3-0.4-3.5-1.3-3.5c-0.6,0-1.6,1.1-2.8,3.3l-15.7,29.1h-7v-33.4
				c-0.8,0.2-1.5,0.3-2.1,0.3c-2.6,0-4.8-1-6.5-2.9c-1.8-2-2.7-4.3-2.7-7.1c0-2.7,0.9-5,2.7-6.9c1.8-1.9,3.9-2.9,6.5-2.9
				c2.7,0,5,1,6.8,3c1.8,2,2.7,4.5,2.7,7.5v19.4c0,2.3-0.5,6.8-1.5,13.8c0.8-3.7,2-7.1,3.6-10.3l6.6-12.3c1.4-2.6,2.7-4.1,3.9-4.4
				c-1.6-2.2-2.4-4.4-2.4-6.8c0-2.8,0.9-5.1,2.7-7c1.8-1.9,3.9-2.9,6.5-2.9c2.6,0,4.8,1,6.5,2.9c1.8,1.9,2.7,4.2,2.7,7
				c0,2.9-1.1,5.4-3.4,7.5c1,2.2,1.6,4.5,1.6,7V931.6z M77.4,888.5c0-1.2-0.4-2.3-1.2-3.1c-0.8-0.9-1.8-1.3-2.9-1.3
				c-1.1,0-2.1,0.4-2.9,1.3c-0.8,0.9-1.2,1.9-1.2,3.1c0,1.2,0.4,2.3,1.2,3.1c0.8,0.9,1.8,1.3,2.9,1.3c1.1,0,2.1-0.4,2.9-1.3
				C77,890.8,77.4,889.8,77.4,888.5z M106.4,888.5c0-1.2-0.4-2.3-1.2-3.1c-0.8-0.9-1.8-1.3-2.9-1.3c-1.1,0-2.1,0.4-2.9,1.3
				c-0.8,0.9-1.2,1.9-1.2,3.1c0,1.2,0.4,2.3,1.2,3.1c0.8,0.9,1.8,1.3,2.9,1.3c1.1,0,2.1-0.4,2.9-1.3
				C106,890.8,106.4,889.8,106.4,888.5z"/>
			<path class="st6" d="M117,848.8c-0.8,4.6-1.9,8.4-3.4,11.6s-3.3,5.6-5.6,7.5c-2.3,1.9-4.9,3.2-7.9,4s-6.5,1.2-10.5,1.2h-4v-5.2
				c1.6-0.1,3-0.7,4-1.8c1.1-1.1,1.8-2.3,2.2-3.4c-2-0.3-3.6-1.3-4.8-2.9c-1.2-1.6-1.8-3.5-1.8-5.7c0-2.3,0.8-4.3,2.4-5.8
				c1.6-1.6,3.4-2.3,5.5-2.3c2.4,0,4.3,0.8,5.7,2.5c1.4,1.6,2.1,3.7,2.1,6.2c0,2.5-0.6,4.9-1.7,7.3c-1.1,2.3-2.3,4.2-3.5,5.5
				c4-0.8,7.3-2.9,9.8-6.3c2.5-3.4,3.9-7.5,4-12.2H117z M96.4,854.2c0-1-0.3-1.8-0.9-2.4c-0.6-0.7-1.3-1-2.2-1c-0.9,0-1.6,0.3-2.2,1
				c-0.6,0.6-0.8,1.5-0.8,2.4c0,1,0.3,1.8,0.8,2.4c0.6,0.7,1.3,1,2.2,1c0.9,0,1.6-0.3,2.2-1C96.1,856,96.4,855.2,96.4,854.2z"/>
			<path class="st6" d="M150.3,931.6h-7.5v-37.7c0-2.4-0.8-4.4-2.3-5.9c-1.5-1.5-3.6-2.3-6.3-2.3s-4.8,0.9-6.5,2.8
				c-1.7,1.9-2.6,4.3-2.7,7.2h-7.3c0.2-5.2,1.8-9.3,4.8-12.4c2.9-3.1,6.8-4.6,11.7-4.6c4.5,0,8.3,1.2,11.4,3.7
				c3.1,2.5,4.7,6.2,4.7,11.2V931.6z"/>
			<path class="st6" d="M200.7,931.6h-7.5c-4.7-4.5-9.4-7.7-14.1-9.5v0.7c0,2.8-1,5.1-3,7c-2,1.9-4.2,2.9-6.7,2.9
				c-2.7,0-5-1-6.9-3.1s-2.9-4.5-2.9-7.4c0-2.9,1-5.3,2.9-7.3c1.9-2,4.2-3.1,6.9-3.1h0.8v-13.5c-0.8,0.2-1.5,0.3-2.1,0.3
				c-2.6,0-4.8-1-6.5-2.9c-1.8-2-2.7-4.3-2.7-7.1c0-2.7,0.9-5,2.7-6.9c1.8-1.9,3.9-2.9,6.5-2.9c2.7,0,5,1,6.8,3
				c1.8,2,2.7,4.5,2.7,7.5v24.7c6.4,2.3,11.5,5.4,15.5,9.2v-43.4h7.5V931.6z M172.3,888.5c0-1.2-0.4-2.3-1.2-3.1
				c-0.8-0.9-1.8-1.3-2.9-1.3c-1.1,0-2.1,0.4-2.9,1.3c-0.8,0.9-1.2,1.9-1.2,3.1c0,1.2,0.4,2.3,1.2,3.1c0.8,0.9,1.8,1.3,2.9,1.3
				c1.1,0,2.1-0.4,2.9-1.3C171.9,890.8,172.3,889.8,172.3,888.5z M173.5,922.1c0-1.2-0.4-2.3-1.2-3.1c-0.8-0.9-1.8-1.3-2.9-1.3
				c-1.1,0-2.1,0.4-2.9,1.3c-0.8,0.9-1.2,1.9-1.2,3.1c0,1.2,0.4,2.3,1.2,3.1c0.8,0.9,1.8,1.3,2.9,1.3c1.1,0,2.1-0.4,2.9-1.3
				C173.1,924.3,173.5,923.3,173.5,922.1z"/>
			<path class="st6" d="M250.7,931.6h-7.5l-12.1-20.8L219,931.6h-7.4v-42.4c0-3,0.9-5.5,2.8-7.5c1.9-2,4.2-3,6.8-3
				c2.6,0,4.8,1,6.5,2.9c1.8,2,2.7,4.3,2.7,7c0,2.8-0.9,5.1-2.7,7c-1.8,1.9-3.9,2.9-6.5,2.9c-1.1,0-1.9,0-2.2-0.1v22.2l9.5-16h4.8
				l9.7,16.1v-41h7.5V931.6z M225.4,888.5c0-1.2-0.4-2.3-1.2-3.1c-0.8-0.9-1.8-1.3-2.9-1.3c-1.1,0-2.1,0.4-2.9,1.3
				c-0.8,0.9-1.2,1.9-1.2,3.1c0,1.2,0.4,2.3,1.2,3.1c0.8,0.9,1.8,1.3,2.9,1.3c1.1,0,2.1-0.4,2.9-1.3
				C225,890.8,225.4,889.8,225.4,888.5z"/>
			<path class="st6" d="M250.7,871.3h-7.5v-18.3h7.5V871.3z"/>
			<path class="st6" d="M291.3,931.6h-7.5v-37.7c0-2.4-0.8-4.4-2.3-5.9c-1.5-1.5-3.6-2.3-6.3-2.3c-2.7,0-4.8,0.9-6.5,2.8
				c-1.7,1.9-2.6,4.3-2.7,7.2h-7.3c0.2-5.2,1.8-9.3,4.8-12.4c2.9-3.1,6.8-4.6,11.7-4.6c4.5,0,8.3,1.2,11.4,3.7
				c3.1,2.5,4.7,6.2,4.7,11.2V931.6z"/>
			<path class="st6" d="M343.6,907c0,3.5-0.8,5.9-2.5,7.2c3.1,1.9,4.7,4.8,4.7,8.6c0,2.8-0.9,5.1-2.7,7c-1.8,1.9-3.9,2.8-6.4,2.8
				c-2.3,0-4.4-0.8-6-2.4c-1.7-1.6-2.7-3.6-3-6c-2.6,1.4-4.4,2.4-5.6,3.1c-1.9,1.3-3.5,2.7-4.6,4.3h-7.6v-33.4
				c-0.8,0.2-1.5,0.3-2.1,0.3c-2.6,0-4.8-1-6.5-2.9c-1.8-2-2.7-4.3-2.7-7.1c0-2.7,0.9-5,2.7-6.9c1.8-1.9,3.9-2.9,6.5-2.9
				c2.7,0,5,1,6.8,3c1.8,2,2.7,4.5,2.7,7.5v33c1.3-1,4.2-2.6,8.7-4.5c4-1.8,6.8-3.6,8.3-5.5c1.1-1.3,1.7-3.4,1.7-6.2v-26.3h7.5V907z
				 M312,888.5c0-1.2-0.4-2.3-1.2-3.1c-0.8-0.9-1.8-1.3-2.9-1.3c-1.1,0-2.1,0.4-2.9,1.3c-0.8,0.9-1.2,1.9-1.2,3.1
				c0,1.2,0.4,2.3,1.2,3.1c0.8,0.9,1.8,1.3,2.9,1.3c1.1,0,2.1-0.4,2.9-1.3C311.6,890.8,312,889.8,312,888.5z M340.7,922.8
				c0-1.2-0.4-2.2-1.2-3.1c-0.8-0.9-1.8-1.3-2.9-1.3c-1.1,0-2.1,0.4-2.9,1.3c-0.8,0.9-1.2,1.9-1.2,3.1c0,1.2,0.4,2.2,1.2,3.1
				c0.8,0.9,1.8,1.3,2.9,1.3c1.1,0,2.1-0.4,2.9-1.3C340.3,925,340.7,924,340.7,922.8z"/>
			<path class="st6" d="M423.3,907c0,3.5-0.8,5.9-2.5,7.2c3.1,1.9,4.7,4.8,4.7,8.6c0,2.8-0.9,5.1-2.7,7c-1.8,1.9-3.9,2.8-6.4,2.8
				c-2.3,0-4.4-0.8-6-2.4c-1.7-1.6-2.7-3.6-3-6c-2.6,1.4-4.4,2.4-5.6,3.1c-1.9,1.3-3.5,2.7-4.6,4.3h-7.6v-33.4
				c-0.8,0.2-1.5,0.3-2.1,0.3c-2.6,0-4.8-1-6.5-2.9c-1.8-2-2.7-4.3-2.7-7.1c0-2.7,0.9-5,2.7-6.9c1.8-1.9,3.9-2.9,6.5-2.9
				c2.7,0,5,1,6.8,3c1.8,2,2.7,4.5,2.7,7.5v33c1.3-1,4.2-2.6,8.7-4.5c4-1.8,6.8-3.6,8.3-5.5c1.1-1.3,1.7-3.4,1.7-6.2v-26.3h7.5V907z
				 M391.6,888.5c0-1.2-0.4-2.3-1.2-3.1c-0.8-0.9-1.8-1.3-2.9-1.3c-1.1,0-2.1,0.4-2.9,1.3c-0.8,0.9-1.2,1.9-1.2,3.1
				c0,1.2,0.4,2.3,1.2,3.1c0.8,0.9,1.8,1.3,2.9,1.3c1.1,0,2.1-0.4,2.9-1.3C391.2,890.8,391.6,889.8,391.6,888.5z M420.4,922.8
				c0-1.2-0.4-2.2-1.2-3.1c-0.8-0.9-1.8-1.3-2.9-1.3c-1.1,0-2.1,0.4-2.9,1.3c-0.8,0.9-1.2,1.9-1.2,3.1c0,1.2,0.4,2.2,1.2,3.1
				c0.8,0.9,1.8,1.3,2.9,1.3c1.1,0,2.1-0.4,2.9-1.3C420,925,420.4,924,420.4,922.8z"/>
			<path class="st6" d="M435.5,848c-2.1,14.4-9.3,21.6-21.8,21.6c-4.8,0-8.5-1.1-11.1-3.2c-2.6-2.1-3.9-4.8-3.9-8.1
				c0-2.5,0.8-4.6,2.4-6.4c1.6-1.7,3.6-2.6,5.9-2.6c2.5,0,4.5,0.9,6.1,2.7c1.6,1.8,2.4,3.9,2.4,6.3c0,2.3-0.6,4.1-1.8,5.2
				c8.4-0.3,13.3-5.5,14.6-15.5H435.5z M410.7,858.3c0-1.1-0.4-2.1-1.1-2.9c-0.7-0.8-1.6-1.2-2.7-1.2c-1,0-1.9,0.4-2.6,1.2
				c-0.7,0.8-1,1.7-1,2.9c0,1.1,0.3,2.1,1,2.8c0.7,0.7,1.6,1.1,2.6,1.1c1,0,1.9-0.4,2.7-1.1C410.3,860.3,410.7,859.4,410.7,858.3z"
				/>
			<path class="st6" d="M423.3,843.6H416v-14.8h7.3V843.6z"/>
			<path class="st6" d="M461.7,931.6h-7.4l-22.6-27.4l4.5-5.6l18,21.8V898c-0.2,0.1-1,0.1-2.3,0.1c-2.5,0-4.6-0.9-6.3-2.7
				c-1.7-1.8-2.6-4-2.6-6.8c0-2.8,0.9-5.1,2.7-7.1c1.8-1.9,3.9-2.9,6.3-2.9c2.8,0,5.2,1,7,2.9c1.9,2,2.8,4.5,2.8,7.6V931.6z
				 M456,888.4c0-1.2-0.4-2.2-1.2-3c-0.8-0.8-1.8-1.3-2.9-1.3c-1.1,0-2.1,0.4-2.9,1.3c-0.8,0.8-1.2,1.9-1.2,3c0,1.2,0.4,2.2,1.2,3
				c0.8,0.8,1.8,1.3,2.9,1.3c1.1,0,2.1-0.4,2.9-1.3C455.6,890.6,456,889.6,456,888.4z"/>
			<path class="st6" d="M500.6,922.9c0,2.8-0.9,5.1-2.7,7c-1.8,1.9-4,2.8-6.6,2.8c-2.6,0-4.8-1-6.6-2.9s-2.7-4.2-2.7-7
				c0-2.8,0.9-5.1,2.7-7c1.8-1.9,4-2.9,6.6-2.9c1,0,1.6,0,1.8,0.1v-11.2c0-1.4-2.7-2.8-8-4.1c-5.4-1.3-10.2-2.4-14.6-3.2
				c0.2-4.8,1.3-8.6,3.5-11.5c2.2-2.9,5.3-4.4,9.4-4.4c1.7,0,4,0.4,6.9,1.2c2.9,0.8,5.1,1.2,6.3,1.2c1.4,0,2.1-1,2.3-2.9l5.9,1.7
				c-1.5,5.3-4.1,7.9-8,7.9c-1.4,0-3.5-0.4-6.2-1.1c-2.7-0.7-4.7-1.1-6.1-1.1c-3.5,0-5.6,1.4-6,4.3c6.2,1.4,11.4,2.9,15.6,4.4
				c4.2,1.6,6.3,4.2,6.3,8.1V922.9z M495.4,922.7c0-1.2-0.4-2.3-1.2-3.1c-0.8-0.9-1.8-1.3-2.9-1.3c-1.1,0-2.1,0.4-2.9,1.3
				c-0.8,0.9-1.2,1.9-1.2,3.1c0,1.2,0.4,2.3,1.2,3.1c0.8,0.9,1.8,1.3,2.9,1.3c1.1,0,2.1-0.4,2.9-1.3
				C495,925,495.4,923.9,495.4,922.7z"/>
			<path class="st6" d="M508.8,848.8c-0.8,4.6-1.9,8.4-3.4,11.6s-3.3,5.6-5.6,7.5c-2.3,1.9-4.9,3.2-7.9,4c-3,0.8-6.5,1.2-10.5,1.2
				h-4v-5.2c1.6-0.1,3-0.7,4-1.8c1.1-1.1,1.8-2.3,2.2-3.4c-2-0.3-3.6-1.3-4.8-2.9c-1.2-1.6-1.8-3.5-1.8-5.7c0-2.3,0.8-4.3,2.4-5.8
				c1.6-1.6,3.4-2.3,5.5-2.3c2.4,0,4.3,0.8,5.7,2.5c1.4,1.6,2.1,3.7,2.1,6.2c0,2.5-0.6,4.9-1.7,7.3c-1.1,2.3-2.3,4.2-3.5,5.5
				c4-0.8,7.3-2.9,9.8-6.3c2.5-3.4,3.9-7.5,4-12.2H508.8z M488.1,854.2c0-1-0.3-1.8-0.9-2.4c-0.6-0.7-1.3-1-2.2-1
				c-0.9,0-1.6,0.3-2.2,1c-0.6,0.6-0.8,1.5-0.8,2.4c0,1,0.3,1.8,0.8,2.4c0.6,0.7,1.3,1,2.2,1c0.9,0,1.6-0.3,2.2-1
				C487.8,856,488.1,855.2,488.1,854.2z"/>
			<path class="st6" d="M542,931.6h-7.5v-37.7c0-2.4-0.8-4.4-2.3-5.9c-1.5-1.5-3.6-2.3-6.3-2.3c-2.7,0-4.8,0.9-6.5,2.8
				c-1.7,1.9-2.6,4.3-2.7,7.2h-7.3c0.2-5.2,1.8-9.3,4.8-12.4c2.9-3.1,6.8-4.6,11.7-4.6c4.5,0,8.3,1.2,11.4,3.7
				c3.1,2.5,4.7,6.2,4.7,11.2V931.6z"/>
			<path class="st6" d="M594.4,907c0,3.5-0.8,5.9-2.5,7.2c3.1,1.9,4.7,4.8,4.7,8.6c0,2.8-0.9,5.1-2.7,7c-1.8,1.9-3.9,2.8-6.4,2.8
				c-2.3,0-4.4-0.8-6-2.4c-1.7-1.6-2.7-3.6-3-6c-2.6,1.4-4.4,2.4-5.6,3.1c-1.9,1.3-3.5,2.7-4.6,4.3h-7.6v-33.4
				c-0.8,0.2-1.5,0.3-2.1,0.3c-2.6,0-4.8-1-6.5-2.9c-1.8-2-2.7-4.3-2.7-7.1c0-2.7,0.9-5,2.7-6.9c1.8-1.9,3.9-2.9,6.5-2.9
				c2.7,0,5,1,6.8,3c1.8,2,2.7,4.5,2.7,7.5v33c1.3-1,4.2-2.6,8.7-4.5c4-1.8,6.8-3.6,8.3-5.5c1.1-1.3,1.7-3.4,1.7-6.2v-26.3h7.5V907z
				 M562.7,888.5c0-1.2-0.4-2.3-1.2-3.1c-0.8-0.9-1.8-1.3-2.9-1.3c-1.1,0-2.1,0.4-2.9,1.3c-0.8,0.9-1.2,1.9-1.2,3.1
				c0,1.2,0.4,2.3,1.2,3.1c0.8,0.9,1.8,1.3,2.9,1.3c1.1,0,2.1-0.4,2.9-1.3C562.3,890.8,562.7,889.8,562.7,888.5z M591.5,922.8
				c0-1.2-0.4-2.2-1.2-3.1c-0.8-0.9-1.8-1.3-2.9-1.3c-1.1,0-2.1,0.4-2.9,1.3c-0.8,0.9-1.2,1.9-1.2,3.1c0,1.2,0.4,2.2,1.2,3.1
				c0.8,0.9,1.8,1.3,2.9,1.3c1.1,0,2.1-0.4,2.9-1.3C591.1,925,591.5,924,591.5,922.8z"/>
			<path class="st6" d="M644.5,919.4c0,4.2-1.2,7.5-3.7,9.8c-2.5,2.3-5.7,3.4-9.7,3.4c-4,0-7.3-1.1-9.7-3.4
				c-2.5-2.3-3.7-5.6-3.7-9.8V911c0-2.5,1.1-5.9,3.2-10c2.1-4.2,3.2-7.5,3.2-9.9c0-2-0.6-3.6-1.9-4.9c-1.3-1.3-2.8-1.9-4.5-1.9
				c-2.6,0-4.3,0.5-5.2,1.6c2.4,0.1,4.4,0.9,5.9,2.5c1.5,1.6,2.2,3.6,2.2,6c0,2.6-0.8,4.8-2.5,6.6c-1.7,1.8-3.7,2.7-6,2.7
				c-2.7,0-4.9-1.1-6.6-3.2c-1.7-2.1-2.5-4.7-2.5-7.7c0-4,1.5-7.3,4.4-9.9c2.9-2.6,6.3-3.9,10.2-3.9c4,0,7.3,1,9.8,3.1
				c2.5,2.1,3.8,5.1,3.8,9.1c0,2.6-1,6.2-3,10.9c-2,4.7-3,8-3,9.9v9.5c0,1.5,0.6,2.6,1.9,3.4c1.2,0.8,2.6,1.2,4,1.2
				c1.5,0,2.9-0.4,4.1-1.2s1.8-1.9,1.8-3.3v-21.4c0-3.2-1.2-5.2-3.5-6c0.3-1.6,0.4-3.1,0.1-4.5c4.1-1.6,6.2-5.8,6.2-12.4h7.5
				c-0.6,6.7-2.7,11.6-6.4,14.7c2.4,2.1,3.6,4.8,3.6,8.2V919.4z M615.8,894.4c0-1.1-0.4-2.1-1.1-2.9c-0.7-0.8-1.6-1.2-2.7-1.2
				c-1,0-1.9,0.4-2.7,1.2c-0.7,0.8-1.1,1.7-1.1,2.9c0,1.1,0.4,2.1,1.1,2.9c0.7,0.8,1.6,1.2,2.7,1.2c1,0,1.9-0.4,2.7-1.2
				C615.4,896.5,615.8,895.5,615.8,894.4z"/>
			<path class="st6" d="M649.4,860.2c0,3-1,5.6-3,7.7c-2,2.1-4.4,3.2-7.2,3.2c-2.9,0-5.3-1.1-7.3-3.2c-2-2.1-3-4.7-3-7.7
				c0-3,1-5.6,3-7.8c2-2.2,4.4-3.3,7.3-3.3c2.8,0,5.2,1.1,7.2,3.2C648.4,854.5,649.4,857.1,649.4,860.2z M644,860.2
				c0-1.5-0.5-2.7-1.4-3.8c-0.9-1-2.1-1.6-3.4-1.6c-1.4,0-2.5,0.5-3.5,1.6s-1.5,2.3-1.5,3.8c0,1.5,0.5,2.7,1.5,3.7
				c1,1,2.1,1.5,3.5,1.5c1.4,0,2.5-0.5,3.4-1.5C643.6,862.9,644,861.7,644,860.2z M685.1,931.6h-7.5v-37.7c0-2.4-0.8-4.4-2.3-5.9
				c-1.5-1.5-3.6-2.3-6.3-2.3c-2.7,0-4.8,0.9-6.5,2.8c-1.7,1.9-2.6,4.3-2.7,7.2h-7.3c0.2-5.2,1.8-9.3,4.8-12.4
				c2.9-3.1,6.8-4.6,11.7-4.6c4.5,0,8.3,1.2,11.4,3.7c3.1,2.5,4.7,6.2,4.7,11.2V931.6z"/>
			<path class="st6" d="M724,922.9c0,2.8-0.9,5.1-2.7,7s-4,2.8-6.6,2.8c-2.6,0-4.8-1-6.6-2.9s-2.7-4.2-2.7-7c0-2.8,0.9-5.1,2.7-7
				c1.8-1.9,4-2.9,6.6-2.9c1,0,1.6,0,1.8,0.1v-11.2c0-1.4-2.7-2.8-8-4.1c-5.4-1.3-10.2-2.4-14.6-3.2c0.2-4.8,1.3-8.6,3.5-11.5
				c2.2-2.9,5.3-4.4,9.4-4.4c1.7,0,4,0.4,6.9,1.2c2.9,0.8,5.1,1.2,6.3,1.2c1.4,0,2.1-1,2.3-2.9l5.9,1.7c-1.5,5.3-4.1,7.9-8,7.9
				c-1.5,0-3.5-0.4-6.2-1.1c-2.7-0.7-4.7-1.1-6.1-1.1c-3.5,0-5.6,1.4-6,4.3c6.2,1.4,11.4,2.9,15.6,4.4c4.2,1.6,6.3,4.2,6.3,8.1
				V922.9z M718.8,922.7c0-1.2-0.4-2.3-1.2-3.1c-0.8-0.9-1.8-1.3-2.9-1.3s-2.1,0.4-2.9,1.3c-0.8,0.9-1.2,1.9-1.2,3.1
				c0,1.2,0.4,2.3,1.2,3.1c0.8,0.9,1.8,1.3,2.9,1.3s2.1-0.4,2.9-1.3C718.4,925,718.8,923.9,718.8,922.7z"/>
			<path class="st6" d="M724.9,962.1h-7.3v-9.9h-0.5c-2,0-3.7-0.8-5.1-2.3c-1.4-1.5-2.1-3.3-2.1-5.4c0-2.2,0.7-4,2.1-5.6
				c1.4-1.6,3.2-2.3,5.3-2.3c2,0,3.8,0.7,5.3,2.1c1.5,1.4,2.3,3.3,2.3,5.7V962.1z M720.7,944.2c0-1-0.3-1.8-1-2.5
				c-0.6-0.7-1.4-1-2.3-1c-0.9,0-1.7,0.3-2.4,1c-0.7,0.7-1,1.5-1,2.5c0,1,0.3,1.8,1,2.5c0.7,0.7,1.5,1.1,2.4,1.1
				c0.9,0,1.7-0.4,2.3-1.1C720.3,946,720.7,945.1,720.7,944.2z"/>
			<path class="st6" d="M773.8,931.6h-7.5v-34.7c0-3.3-1.1-6-3.4-8c-2.3-2.1-5-3.1-8.1-3.1c-3.4,0-6.3,1.2-8.8,3.7
				c-2.5,2.5-3.7,5.4-3.7,8.9c0,2.2,0.7,5.2,2,9.2c1.3,4,2,6.9,2,8.9c0,0.6-0.1,1.4-0.2,2.5c2.3-4.1,4.9-7.5,7.7-10.3
				c-2.3-0.2-4-1.1-5.3-2.9c-1.2-1.5-1.8-3.3-1.8-5.5c0-2.3,0.8-4.2,2.4-5.9c1.6-1.7,3.4-2.5,5.6-2.5s4,0.8,5.6,2.5
				c1.5,1.7,2.3,3.7,2.3,5.9c0,3.9-1.8,8.2-5.3,13c-4.9,6.5-7.6,10.4-8.3,11.7c-1.2,2.3-1.8,4.5-1.8,6.6h-7.6
				c0.1-3.2,0.1-6.2,0.1-8.8c0-4.7-0.5-8.3-1.5-10.8c-0.7-2.3-1.5-4.6-2.2-7c-0.7-2.4-1.1-4.5-1.1-6.3c0-5.9,1.9-10.7,5.7-14.4
				c3.8-3.7,8.5-5.6,14-5.6c5.6,0,10.1,1.6,13.7,4.7c3.8,3.4,5.7,8,5.7,13.9V931.6z M758.2,900.2c0-1.1-0.3-2.1-1-2.8
				c-0.7-0.7-1.6-1.1-2.6-1.1c-1,0-1.9,0.4-2.6,1.1c-0.7,0.7-1,1.7-1,2.8c0,1.1,0.3,2.1,1,2.8c0.7,0.7,1.6,1.1,2.6,1.1
				c1,0,1.9-0.4,2.6-1.1C757.9,902.3,758.2,901.4,758.2,900.2z"/>
		</g>
	</g>
	<g>
		<g>
			<path class="st1" d="M623.3,496V331.3h-0.2v-1.7h-6V496h-84.6v-35.7h74.1V450h-74.1v-22.2h1v-4.9h6.1v-1.5h37.7v-6h-37.7v-1.1
				h-6.1v-8.7h-1v-89.4c0.5,1,0.8,2,0.9,3.1c0.9,3.2,3.2,5.6,6.1,6.4c2.2,0.4,4.4,0.6,6.6,0.5c2.1-0.4,4.2-1.1,6.1-2.1
				c1.9-1.2,3.1-3.3,3.2-5.7c0.2-0.3,0.3-0.7,0.3-1c-0.1-0.4-0.3-0.7-0.6-0.8c-0.3-0.1-0.7-0.1-1,0.1c-0.3,0.2-0.5,0.5-0.5,0.9
				c-0.8-0.2-1.5-0.4-2.2-0.7c-0.5-0.6-0.9-1.2-1.2-1.9c-0.5-0.4-1-0.8-1.5-1.4c-0.7-0.2-1.3-0.5-2-0.8c-1.3-0.5-2.5-1.2-3.5-2.2
				c-0.7-0.7-1.1-1.7-1-2.8c0.3-1.3,0.5-2.7,0.7-4c-1.6-6.4-3.6-12.7-6.2-18.8c-0.8-5.2-2.2-10.1-4.3-14.8v-84l16.3-5.4l-1.1-3.9
				l-15.2,5v-4.4h-6v6.3l-15.7,5.2l1.1,3.9l14.6-4.8v71.3c-3.4-6.4-6.7-12.9-9.8-19.4c-0.6-2.8-1.6-5.6-3-8
				c-1.1-3.1-3.1-5.6-5.8-7.3c-2.9-2.4-6.2-4.1-9.7-5.1c-0.6-0.3-1.3-0.7-1.9-1c-3.6-2.1-6.6-5.2-8.7-9l-0.1-0.2
				c-1.1-3-1.9-6.2-2.2-9.4c0.1-2.2,0.9-4.3,2.3-5.9c3.2-2.5,5.9-5.8,7.8-9.5c1-3.5,1.2-7.2,0.6-10.8c-0.9-3.1-2.1-6-3.5-8.8
				c-3.7-6.2-10.5-9.5-17.3-8.3c-4.3-0.7-8.7,0.3-12.4,2.9c-1.4,0.9-2.7,2.1-3.8,3.5c-0.4,0.6-0.9,1.2-1.3,1.9
				c-0.1,0.7-0.1,1.5,0.1,2.2l-0.8,1.9c-0.2,1.2-0.5,2.5-0.8,3.7c0.5,0.7,1,1.5,1.5,2.2c-0.4,0.6-0.8,1.1-1.3,1.6
				c-1.2,1.1-2.3,2.1-3.4,3.2c-0.7,0.6-1.3,1.2-1.9,1.9c-0.6,0.9-0.9,2-0.9,3.1c0.1,0.6,0.5,1.1,1,1.3c0.4,0,0.8,0,1.2,0.1
				c0.3-0.1,0.6-0.2,0.9-0.2c0.3-0.1,0.5-0.1,0.8-0.1c0.2,0.1,0.3,0.2,0.5,0.4c0.6,0.7,0.5,1.8-0.1,2.4c-0.2,0.5-0.4,0.9-0.8,1.2
				l0.4,1.2c0.2,0.5,0.7,0.7,1.2,0.6c0,0.1,0,0.2,0,0.3c0,0.1-0.1,0.1-0.2,0.1c-0.2,0.2-0.4,0.3-0.6,0.5c-0.1,0.3-0.1,0.5-0.2,0.8
				c0.1,0.3,0.1,0.6,0.2,0.9l1.1,0.6c0.8,0,1.5,0.7,1.6,1.5c-0.1,0.3-0.2,0.7-0.3,1c-0.2,0.2-0.3,0.5-0.4,0.8
				c-0.3,0.6-0.4,1.3-0.1,1.9c0.2,0.3,0.3,0.6,0.6,0.9c0.3,0.2,0.6,0.3,0.9,0.4c0.3,0.1,0.7,0.2,1,0.2c0.3,0.1,0.7,0.1,1,0
				c0.4-0.1,0.7-0.1,1.1-0.1c0.1,0,0.1,0,0.2,0c0.2,0,0.5,0,0.7,0c0.1,0,0.2,0,0.3,0c0,0,0.1,0,0.2,0c0.4,0,0.8,0.2,1.1,0.5
				c0.3,0.3,0.6,0.7,0.7,1.1c0.4,0.6,0.6,1.4,0.6,2.1c-0.1,0.7-0.5,1.3-1,1.8c-0.2,0.4-0.4,0.7-0.6,1.1c-2.2,2.4-4.9,4.1-7.9,5.1
				c-2.4,0.9-4.3,2.7-5.7,4.9v-42.1h-6V245c-0.1,0.5-0.2,1-0.4,1.5l-3.3,18.9l-22.6,10.9c-4.3,1.8-8.5,4.2-12.2,7.2
				c-0.4,0.5-0.9,0.9-1.5,1.1c-3,1.7-6.2,3-9.5,3.8c-1.3,0.9-2.4,2.1-3.4,3.4c-0.8,1.6-1.4,3.3-1.9,5c-0.2,1.3-0.6,2.5-1.2,3.7
				c0.1,1.2,0.4,2.3,0.9,3.3c0.5,0.8,1.4,1.1,2.2,0.6c1.8-0.3,3.5-1.4,4.6-2.9c2-0.3,4.1-0.4,6.2-0.3c2.8-0.6,5.4-1.7,7.9-3.3
				c1.3-0.2,2.5-0.3,3.8-0.1l2.9-0.6c5-1.4,9.8-3.8,14.2-6.8l13.3-7.7v34.6l-2.5,7.4c-1,2.3-1.9,4.7-2.5,7.1
				c-1.6,5.2-3.3,10.3-5.2,15.3c-1,2.4-1.8,4.9-2.4,7.4c-0.8,1.8-1.1,3.9-0.9,5.9c2.3,15.1,2.8,30.5,1.6,45.9c0.2,3,0,5.9-0.5,8.9
				H336v-1.1h-6.1v-8.7h-1.5v-132h-0.2v-0.2h-4.7v0.2h-1.1v132h-1.1v8.7h-6.8v1.1h-4.7V298.9h-0.6v-1.1h-4.7v1.1h-0.6v116.4h-64.7
				v1.3h-0.4v3.5h0.4v1.1h64.7V450h-97v10.3h97V496H177.6v15.1h126.3v35.2h6v-35.2h12.6v35.2h6v-35.2h17.4v-2.6l0.7-0.2l-0.7-3.3v-9
				h-2l-7.8-35.7h2.2V450h-9.9v-22.2h1.5v-4.9h6.1v-1.5h94c-0.9,3-2.7,5.6-5.3,7.2c-4.2,2.6-9,3.7-13.8,3.1
				c-1.1-0.2-2.2,0.5-2.6,1.7c0,0.9,0.4,1.8,1.2,2.3l6.1,2.2c3.9,1.8,8.2,2.5,12.4,2.2l5.9,0.3l0.2,0l2.4,0.2l0.5,3.3l6.6,0.1v6.2
				h-7.8v2.3l-0.2,0l0.2,1.2v6.8h1.1l5.7,35.7h-0.5v15.1h1.5v35.2h6v-35.2h76.8v35.2h6v-35.2h84.6v35.2h6v-2.1h0.2v-33.1h18.2V496
				H623.3 M471.7,335.2l3.8-8.4l10.4,23.8c2.4,5.5,4.4,11.2,5.9,17.1c3.2,15.3,5.1,30.8,5.8,46.5c0,0.4,0,0.8,0.1,1.2h-41.7
				c0-0.7-0.1-1.3-0.1-2c-0.4-3.1-0.6-6.1-0.7-9.2c-1.5-8.6-2.1-17.4-2-26.2c0-3.3,0-6.6,0-9.9c0.6-2.9,1.5-5.6,2.6-8.3
				c0.9-1.2,1.9-2.4,2.8-3.5C463.8,349.9,468.2,342.8,471.7,335.2z M449.7,279.3l0.8-0.5l7.7-4.5l-8.5,25.3V279.3z M526.5,405.5
				h-1.6v8.7h-5.6c-0.2-5.6,0.3-11.3,1.4-16.8c-0.1-3.2-0.3-6.5-0.6-9.7l-7.3-66.4l-0.5-2.1c-1.2-6.6-3.1-13.1-5.7-19.3
				c-1.4-6.1-2.6-12.3-3.6-18.5c-0.1-6.8-0.6-13.5-1.4-20.2c3.2,2.6,5.6,6,7.2,10l0.2,0.3c3.6,7,6.9,14.2,9.9,21.6
				c2.6,6.1,4.9,12.2,6.9,18.6c0.2,0.2,0.5,0.4,0.7,0.6V405.5z"/>
		</g>
		<path class="st8" d="M432.4,748c-7.2,0-14.3,0-21.5,0c-0.9-0.1-1.8-0.3-2.7-0.4c-5.4-0.4-10.8-0.6-16.2-1
			c-16.7-1.3-33.2-3.9-49.5-7.7c-66.7-15.8-124-48.2-171.5-97.7c-43.7-45.5-72.8-99.1-87.5-160.4c-3.9-16.2-6.6-32.6-7.9-49.2
			c-0.6-7.9-1-15.8-1.5-23.7c0-0.7-0.3-1.4-0.4-2.2c0-3,0-6,0-9c0.2-0.6,0.4-1.3,0.4-1.9c0.3-5.8,0.6-11.6,1-17.4
			c0.9-15.1,3-30.1,6-45c7.1-35.7,19.5-69.5,37.4-101.1c35.8-63.1,86.3-110.7,151.4-142.6c46.5-22.8,95.8-34.2,147.7-34.8
			c0.8,0,1.6-0.2,2.4-0.4c0.7,0,1.3,0,2,0c0.8,0.1,1.6,0.4,2.4,0.4c14.9,0.1,29.8,1.2,44.5,3.3c22.4,3.1,44.3,8.3,65.7,15.6
			c95,32.7,171.8,105.9,209.1,199.5c14.6,36.7,23.1,74.8,24.2,114.4c0,0.7,0.3,1.4,0.4,2.1c0,7.8,0,15.7,0,23.5
			c-0.1,0.8-0.4,1.6-0.4,2.4c-0.1,10.6-1.2,21.1-2.5,31.6c-2.8,21.6-7.6,42.7-14.4,63.4c-17.7,53.5-46.7,99.9-87,139.3
			c-37.7,36.9-81.7,63.8-131.7,80.8c-20,6.8-40.4,11.6-61.3,14.6c-12,1.7-24,2.9-36,3.2C434,747.6,433.2,747.9,432.4,748z
			 M201.8,231.1c-82.6,104.5-81,267,28.2,370.8c108.6,103.2,265.5,95,360.9,18.4C461.3,490.6,331.6,360.9,201.8,231.1z M251.6,181.4
			c129.7,129.7,259.4,259.5,389.1,389.2c80.7-101.5,82.5-262.9-25.9-368.5C507.8,97.8,349.6,103.1,251.6,181.4z"/>
	</g>
</g>
</svg>
