<?xml version="1.0" encoding="utf-8"?>
<!-- Generator: Adobe Illustrator 22.0.0, SVG Export Plug-In . SVG Version: 6.00 Build 0)  -->
<svg version="1.1" id="Layer_1" xmlns="http://www.w3.org/2000/svg" xmlns:xlink="http://www.w3.org/1999/xlink" x="0px" y="0px"
	 viewBox="0 0 841.9 1190.6" style="enable-background:new 0 0 841.9 1190.6;" xml:space="preserve">
<style type="text/css">
	.st0{fill:none;}
	.st1{fill:#010101;}
	.st2{fill:#FFFFFF;}
	.st3{fill:#EB2227;}
	.st4{fill:#EB2627;}
	.st5{fill:#2A3B8F;}
	.st6{fill:#FFFFFF;stroke:#FFFFFF;stroke-miterlimit:10;}
	.st7{fill-rule:evenodd;clip-rule:evenodd;}
	.st8{fill:#EC2727;}
	.st9{fill-rule:evenodd;clip-rule:evenodd;fill:#FFFFFF;}
	.st10{fill-rule:evenodd;clip-rule:evenodd;fill:#EC2C2C;}
	.st11{fill-rule:evenodd;clip-rule:evenodd;fill:#010101;}
	.st12{fill-rule:evenodd;clip-rule:evenodd;fill:#AFAFB0;}
	.st13{fill-rule:evenodd;clip-rule:evenodd;fill:#302F2F;}
	.st14{fill:#040505;}
</style>
<g>
	<g>
		<rect x="0" y="0" class="st0" width="841.9" height="1190.6"/>
		<rect x="28.3" y="28.3" class="st1" width="785.2" height="1133.9"/>
		<rect x="34" y="34" class="st2" width="773.9" height="1122.5"/>
		<rect x="52.5" y="792.6" class="st3" width="737" height="348.7"/>
		<g id="stecon_48_">
			<path id="red_48_" class="st4" d="M52.8,53.5c42.5,0,85,0,127.6,0c0,22.6,0,45.1,0,67.7c-42.5,0-85,0-127.5,0c0-0.2,0-0.5,0-0.7
				c0-22.1,0-44.2,0-66.3C52.9,54,52.8,53.8,52.8,53.5z M55.8,87.4c0.2,0.1,0.4,0.2,0.5,0.3c3.6,1.8,7.1,3.7,10.7,5.5
				c16.4,8.4,32.7,16.8,49.1,25.2c0.4,0.2,0.7,0.2,1.1,0c13.8-7.1,27.6-14.2,41.4-21.3c6.1-3.2,12.3-6.3,18.4-9.5
				c0.1-0.1,0.3-0.2,0.5-0.3c-0.2-0.1-0.3-0.2-0.5-0.3c-3.8-1.9-7.6-3.9-11.4-5.8c-16.2-8.3-32.4-16.7-48.5-25
				c-0.3-0.2-0.5-0.2-0.9,0c-7,3.6-14.1,7.3-21.1,10.9c-12.6,6.5-25.2,12.9-37.7,19.4C56.9,86.8,56.4,87.1,55.8,87.4z"/>
			<g id="white_48_">
				<path class="st2" d="M55.8,87.4c0.6-0.3,1.1-0.6,1.6-0.8c12.6-6.5,25.2-12.9,37.7-19.4c7-3.6,14.1-7.2,21.1-10.9
					c0.3-0.2,0.6-0.1,0.9,0c16.2,8.3,32.4,16.7,48.5,25c3.8,1.9,7.6,3.9,11.4,5.8c0.1,0.1,0.3,0.1,0.5,0.3c-0.2,0.1-0.3,0.2-0.5,0.3
					c-6.1,3.2-12.3,6.3-18.4,9.5c-13.8,7.1-27.6,14.2-41.4,21.3c-0.4,0.2-0.7,0.2-1.1,0C99.7,110,83.4,101.6,67,93.1
					c-3.6-1.8-7.1-3.7-10.7-5.5C56.2,87.6,56,87.5,55.8,87.4z M59.7,87.4c0.2,0.1,0.3,0.2,0.4,0.2c1,0.5,1.9,1,2.9,1.5
					c17.7,9.1,35.5,18.2,53.2,27.3c0.3,0.1,0.5,0.2,0.8,0c12.9-6.6,25.7-13.2,38.6-19.8c5.8-3,11.6-6,17.5-9
					c0.1-0.1,0.3-0.2,0.5-0.3c-0.2-0.1-0.4-0.2-0.6-0.3c-15.9-8.2-31.9-16.4-47.8-24.5c-2.7-1.4-5.5-2.8-8.2-4.2
					c-0.2-0.1-0.4-0.1-0.7,0c-0.3,0.2-0.7,0.4-1.1,0.6C97,68.3,78.6,77.6,60.3,87C60.1,87.1,60,87.2,59.7,87.4z"/>
				<path class="st2" d="M147.4,79.5c1.4,0,2.7,0,4.1,0c0,5.2,0,10.3,0,15.4c-1.4,0-2.8,0-4.2,0c-0.9-2.6-1.8-5.3-2.7-7.9
					c0,0-0.1,0-0.1,0c0,2.6,0,5.2,0,7.9c-1.4,0-2.7,0-4,0c0,0,0,0,0,0c0,0,0,0,0,0c0-0.1,0-0.2,0-0.3c0-4.9,0-9.9,0-14.8
					c0,0,0-0.1,0-0.2c0.1,0,0.3,0,0.4,0c1.2,0,2.3,0,3.5,0c0.4,0,0.4,0,0.5,0.4c0.8,2.5,1.6,5,2.4,7.5c0,0.1,0.1,0.2,0.2,0.4
					C147.4,85,147.4,82.3,147.4,79.5z"/>
				<path class="st2" d="M138.8,87.3c0,1.5,0,3,0,4.5c0,0.8-0.3,1.4-0.8,1.9c-0.7,0.7-1.6,1.2-2.6,1.3c-1.5,0.3-3.1,0.3-4.6-0.1
					c-0.9-0.2-1.6-0.6-2.3-1.3c-0.5-0.5-0.8-1.1-0.8-1.9c0-3,0-6.1,0-9.1c0-0.7,0.2-1.3,0.7-1.8c0.6-0.7,1.4-1.2,2.3-1.4
					c1.7-0.4,3.5-0.4,5.2,0.1c0.7,0.2,1.4,0.6,2,1.2c0.6,0.5,0.9,1.2,0.8,2C138.8,84.3,138.8,85.8,138.8,87.3z M134.2,87.3
					c0-1.5,0-2.9,0-4.4c0-0.7-0.1-0.9-0.8-0.9c-0.1,0-0.2,0-0.2,0c-0.5,0.1-0.6,0.2-0.6,0.7c0,3,0,6,0,9c0,0.5,0.1,0.7,0.6,0.7
					c0.2,0,0.3,0,0.5,0c0.5-0.1,0.6-0.2,0.6-0.7C134.2,90.3,134.2,88.8,134.2,87.3z"/>
				<path class="st2" d="M126.7,88.9c0,0.2,0,0.3,0,0.5c0,0.8,0,1.6,0,2.4c0,0.8-0.3,1.5-0.9,2c-0.7,0.7-1.5,1.1-2.5,1.3
					c-1.5,0.3-3,0.3-4.5-0.1c-0.8-0.2-1.5-0.6-2.2-1.2c-0.6-0.6-0.9-1.2-0.9-2.1c0-3,0-5.9,0-8.9c0-0.9,0.3-1.6,0.9-2.1
					c0.7-0.7,1.6-1.1,2.5-1.2c1.4-0.2,2.9-0.2,4.3,0.1c0.9,0.2,1.6,0.6,2.3,1.2c0.6,0.6,0.9,1.2,0.9,2.1c0,0.8,0,1.7,0,2.5
					c0,0.2,0,0.3,0,0.5c-1.6,0-3.1,0-4.6,0c0-0.2,0-0.3,0-0.5c0-0.9,0-1.7,0-2.6c0-0.5-0.1-0.6-0.6-0.7c-0.1,0-0.2,0-0.3,0
					c-0.7,0.1-0.7,0.3-0.7,0.8c0,2.9,0,5.9,0,8.8c0,0.1,0,0.2,0,0.3c0,0.2,0.1,0.4,0.3,0.4c0.1,0,0.3,0.1,0.4,0.1
					c0.6,0.1,0.8-0.2,0.8-0.8c0-0.8,0-1.5,0-2.3c0-0.2,0-0.3,0-0.5C122.4,88.8,126,88.8,126.7,88.9z"/>
				<path class="st2" d="M105.5,94.9c0-5.1,0-10.2,0-15.3c0.4-0.1,8.7-0.1,9.1,0c0,0.8,0,1.6,0,2.5c-0.1,0-0.3,0-0.4,0
					c-1.1,0-2.2,0-3.3,0c-0.1,0-0.3,0-0.5,0c0,1.4,0,2.7,0,4.1c1,0,2.1,0,3.1,0c0,0.8,0,1.5,0,2.2c-0.4,0.1-0.7,0.1-1,0.1
					c-0.3,0-0.7,0-1,0c-0.3,0-0.7,0-1,0c-0.1,0.3-0.1,2.8,0,3.7c0.1,0,0.3,0,0.5,0c1.1,0,2.2,0,3.3,0c0.2,0,0.3,0,0.5,0
					c0,0.9,0,1.8,0,2.6C114.3,95,106,95,105.5,94.9z"/>
				<path class="st2" d="M101.1,94.9c-1.6,0-3.1,0-4.7,0c0-4.3,0-8.5,0-12.8c-1,0-2,0-3,0c-0.1-0.4-0.1-2.1,0-2.6
					c0.3-0.1,10.4-0.1,10.8,0c0.1,0.3,0.1,2.1,0,2.6c-1,0-2,0-3,0C101.1,86.4,101.1,90.6,101.1,94.9z"/>
				<path class="st2" d="M92.1,84.9c-1.6,0-3.1,0-4.6,0c0-0.2,0-0.3,0-0.5c0-0.6,0-1.2,0-1.8c0-0.4-0.1-0.6-0.5-0.6
					c-0.1,0-0.2,0-0.4,0c-0.3,0-0.5,0.2-0.5,0.5c0,0.6,0,1.1,0,1.7c0,0.4,0.2,0.6,0.5,0.8c0.4,0.2,0.7,0.4,1.1,0.7
					c1,0.6,2,1.1,2.9,1.7c0.1,0.1,0.3,0.2,0.4,0.3c0.7,0.5,1.1,1.2,1.1,2.1c0,0.7,0,1.3,0,2c0,0.7-0.2,1.3-0.7,1.7
					c-0.7,0.7-1.5,1.2-2.4,1.4c-1.5,0.4-3.1,0.4-4.7,0c-0.8-0.2-1.6-0.6-2.2-1.2c-0.6-0.5-0.9-1.2-0.9-2.1c0-0.8,0-1.5,0-2.3
					c0.3-0.1,3.9-0.1,4.5,0c0,0.1,0,0.3,0,0.4c0,0.7,0,1.3,0,2c0,0.4,0.1,0.6,0.5,0.6c0.2,0,0.5,0,0.7-0.1c0.2,0,0.3-0.2,0.3-0.4
					c0-0.6,0-1.2,0-1.8c0-0.3-0.2-0.6-0.4-0.7c-0.4-0.3-0.8-0.5-1.2-0.8c-1-0.6-2-1.2-2.9-1.8c-0.3-0.2-0.6-0.4-0.9-0.7
					c-0.4-0.4-0.6-0.9-0.6-1.5c0-0.7,0-1.3,0-2c0-0.8,0.3-1.4,0.8-1.9c0.7-0.7,1.6-1.2,2.6-1.4c1.4-0.3,2.8-0.3,4.2,0.1
					c0.9,0.2,1.7,0.7,2.3,1.3c0.5,0.5,0.8,1.1,0.8,1.9C92.1,83.5,92.1,84.2,92.1,84.9z"/>
			</g>
			<g id="blue_48_">
				<path class="st5" d="M59.7,87.4c0.3-0.1,0.5-0.2,0.7-0.3c18.3-9.4,36.6-18.8,54.9-28.1c0.4-0.2,0.7-0.4,1.1-0.6
					c0.2-0.1,0.4-0.1,0.7,0c2.7,1.4,5.4,2.8,8.2,4.2c15.9,8.2,31.9,16.4,47.8,24.5c0.2,0.1,0.3,0.2,0.6,0.3
					c-0.2,0.1-0.3,0.2-0.5,0.3c-5.8,3-11.6,6-17.5,9c-12.9,6.6-25.7,13.2-38.6,19.8c-0.3,0.1-0.5,0.1-0.8,0
					C98.5,107.3,80.8,98.2,63,89.1c-1-0.5-1.9-1-2.9-1.5C60,87.5,59.9,87.5,59.7,87.4z M147.4,79.5c0,2.8,0,5.5,0,8.3
					c-0.1-0.1-0.1-0.2-0.2-0.4c-0.8-2.5-1.6-5-2.4-7.5c-0.1-0.4-0.1-0.4-0.5-0.4c-1.2,0-2.3,0-3.5,0c-0.1,0-0.3,0-0.4,0
					c0,0.1,0,0.1,0,0.2c0,4.9,0,9.9,0,14.8c0,0.1,0,0.2,0,0.3c0,0,0,0,0,0c0,0,0,0,0,0c1.3,0,2.7,0,4,0c0-2.7,0-5.3,0-7.9
					c0,0,0.1,0,0.1,0c0.9,2.6,1.8,5.3,2.7,7.9c1.4,0,2.8,0,4.2,0c0-5.1,0-10.2,0-15.4C150.2,79.5,148.8,79.5,147.4,79.5z
					 M138.8,87.3c0-1.5,0-3,0-4.5c0-0.8-0.3-1.5-0.8-2c-0.6-0.6-1.2-1-2-1.2c-1.7-0.5-3.5-0.5-5.2-0.1c-0.9,0.2-1.7,0.7-2.3,1.4
					c-0.4,0.5-0.7,1.1-0.7,1.8c0,3,0,6.1,0,9.1c0,0.8,0.3,1.4,0.8,1.9c0.6,0.7,1.4,1.1,2.3,1.3c1.5,0.3,3.1,0.3,4.6,0.1
					c1-0.2,1.8-0.6,2.6-1.3c0.5-0.5,0.8-1.2,0.8-1.9C138.8,90.3,138.8,88.8,138.8,87.3z M126.7,88.9c-0.6-0.1-4.3-0.1-4.7,0
					c0,0.1,0,0.3,0,0.5c0,0.8,0,1.5,0,2.3c0,0.7-0.2,0.9-0.8,0.8c-0.1,0-0.3,0-0.4-0.1c-0.2-0.1-0.3-0.2-0.3-0.4c0-0.1,0-0.2,0-0.3
					c0-2.9,0-5.9,0-8.8c0-0.5,0-0.7,0.7-0.8c0.1,0,0.2,0,0.3,0c0.5,0.1,0.6,0.2,0.6,0.7c0,0.9,0,1.7,0,2.6c0,0.2,0,0.3,0,0.5
					c1.6,0,3.1,0,4.6,0c0-0.2,0-0.4,0-0.5c0-0.8,0-1.7,0-2.5c0-0.9-0.3-1.5-0.9-2.1c-0.7-0.6-1.4-1-2.3-1.2
					c-1.4-0.3-2.9-0.3-4.3-0.1c-0.9,0.2-1.8,0.6-2.5,1.2c-0.6,0.6-0.9,1.3-0.9,2.1c0,3,0,5.9,0,8.9c0,0.9,0.3,1.6,0.9,2.1
					c0.6,0.6,1.4,1,2.2,1.2c1.5,0.3,3,0.3,4.5,0.1c0.9-0.2,1.8-0.6,2.5-1.3c0.6-0.5,0.9-1.2,0.9-2c0-0.8,0-1.6,0-2.4
					C126.7,89.2,126.7,89.1,126.7,88.9z M92.1,84.9c0-0.7,0-1.4,0-2.1c0-0.8-0.3-1.4-0.8-1.9c-0.7-0.7-1.4-1.1-2.3-1.3
					c-1.4-0.3-2.8-0.3-4.2-0.1c-1,0.2-1.9,0.6-2.6,1.4c-0.5,0.5-0.8,1.1-0.8,1.9c0,0.7,0,1.3,0,2c0,0.6,0.2,1.1,0.6,1.5
					c0.3,0.2,0.6,0.5,0.9,0.7c1,0.6,2,1.2,2.9,1.8c0.4,0.2,0.8,0.5,1.2,0.8c0.2,0.2,0.4,0.4,0.4,0.7c0,0.6,0,1.2,0,1.8
					c0,0.2-0.1,0.4-0.3,0.4c-0.2,0-0.5,0.1-0.7,0.1c-0.4,0-0.5-0.2-0.5-0.6c0-0.7,0-1.3,0-2c0-0.1,0-0.3,0-0.4
					c-0.6-0.1-4.2-0.1-4.5,0c0,0.7,0,1.5,0,2.3c0,0.9,0.3,1.5,0.9,2.1c0.6,0.6,1.4,1,2.2,1.2c1.6,0.4,3.1,0.3,4.7,0
					c0.9-0.2,1.7-0.7,2.4-1.4c0.4-0.5,0.7-1.1,0.7-1.7c0-0.7,0-1.3,0-2c0-0.9-0.4-1.6-1.1-2.1c-0.1-0.1-0.3-0.2-0.4-0.3
					c-1-0.6-2-1.1-2.9-1.7c-0.4-0.2-0.7-0.4-1.1-0.7c-0.3-0.2-0.5-0.4-0.5-0.8c0-0.6,0-1.1,0-1.7c0-0.3,0.2-0.5,0.5-0.5
					c0.1,0,0.2,0,0.4,0c0.4,0,0.5,0.2,0.5,0.6c0,0.6,0,1.2,0,1.8c0,0.1,0,0.3,0,0.5C89.1,84.9,90.6,84.9,92.1,84.9z M105.5,94.9
					c0.5,0.1,8.8,0.1,9.1,0c0-0.9,0-1.7,0-2.6c-0.2,0-0.3,0-0.5,0c-1.1,0-2.2,0-3.3,0c-0.2,0-0.3,0-0.5,0c-0.1-0.8,0-3.3,0-3.7
					c0.3,0,0.7,0,1,0c0.3,0,0.7,0,1,0c0.3,0,0.7,0.1,1-0.1c0-0.7,0-1.5,0-2.2c-1.1,0-2.1,0-3.1,0c0-1.4,0-2.7,0-4.1
					c0.2,0,0.3,0,0.5,0c1.1,0,2.2,0,3.3,0c0.1,0,0.3,0,0.4,0c0-0.9,0-1.7,0-2.5c-0.4-0.1-8.7-0.1-9.1,0
					C105.5,84.7,105.5,89.8,105.5,94.9z M101.1,94.9c0-4.3,0-8.5,0-12.8c1,0,2,0,3,0c0.1-0.5,0.1-2.2,0-2.6
					c-0.4-0.1-10.5-0.1-10.8,0c-0.1,0.4-0.1,2.2,0,2.6c1,0,2,0,3,0c0,4.3,0,8.5,0,12.8C97.9,94.9,99.5,94.9,101.1,94.9z"/>
				<path class="st5" d="M134.2,87.3c0,1.5,0,3,0,4.5c0,0.5-0.1,0.6-0.6,0.7c-0.2,0-0.3,0-0.5,0c-0.5-0.1-0.6-0.2-0.6-0.7
					c0-3,0-6,0-9c0-0.5,0.1-0.6,0.6-0.7c0.1,0,0.2,0,0.2,0c0.7,0,0.8,0.1,0.8,0.9C134.2,84.4,134.2,85.9,134.2,87.3z"/>
			</g>
		</g>
	</g>
	<g>
		<path class="st6" d="M170.8,1051.3v-53.7h6.8l14.1,35.9v-35.9h6.5v53.7h-7l-13.9-35v35H170.8z"/>
		<path class="st6" d="M204.2,1024.8c0-5.5,0.5-10.1,1.6-13.8c0.8-2.7,1.9-5.2,3.2-7.4c1.4-2.2,2.8-3.8,4.5-4.8
			c2.2-1.4,4.6-2.1,7.4-2.1c5.1,0,9.2,2.5,12.2,7.4s4.6,11.7,4.6,20.5c0,8.7-1.5,15.4-4.5,20.3c-3,4.9-7.1,7.3-12.2,7.3
			c-5.1,0-9.2-2.4-12.3-7.3C205.7,1040,204.2,1033.3,204.2,1024.8z M211.4,1024.4c0,6.1,0.9,10.7,2.7,13.8c1.8,3.1,4.1,4.7,6.9,4.7
			c2.8,0,5.1-1.6,6.8-4.7c1.8-3.1,2.7-7.8,2.7-14c0-6.2-0.9-10.7-2.6-13.8c-1.7-3-4-4.5-6.9-4.5s-5.2,1.5-7,4.6
			C212.3,1013.6,211.4,1018.2,211.4,1024.4z"/>
		<path class="st6" d="M270,1051.3v-53.7h23.7v9.1H277v12.7h14.4v9.1H277v22.8H270z"/>
		<path class="st6" d="M298,1024.8c0-5.5,0.5-10.1,1.6-13.8c0.8-2.7,1.9-5.2,3.2-7.4c1.4-2.2,2.8-3.8,4.5-4.8
			c2.2-1.4,4.6-2.1,7.4-2.1c5.1,0,9.2,2.5,12.2,7.4c3.1,4.9,4.6,11.7,4.6,20.5c0,8.7-1.5,15.4-4.5,20.3s-7.1,7.3-12.2,7.3
			c-5.1,0-9.2-2.4-12.3-7.3C299.5,1040,298,1033.3,298,1024.8z M305.2,1024.4c0,6.1,0.9,10.7,2.7,13.8c1.8,3.1,4.1,4.7,6.9,4.7
			c2.8,0,5.1-1.6,6.8-4.7c1.8-3.1,2.7-7.8,2.7-14c0-6.2-0.9-10.7-2.6-13.8s-4-4.5-6.9-4.5s-5.2,1.5-7,4.6
			C306.1,1013.6,305.2,1018.2,305.2,1024.4z"/>
		<path class="st6" d="M335.6,1024.8c0-5.5,0.5-10.1,1.6-13.8c0.8-2.7,1.9-5.2,3.2-7.4c1.4-2.2,2.8-3.8,4.5-4.8
			c2.2-1.4,4.6-2.1,7.4-2.1c5.1,0,9.2,2.5,12.2,7.4s4.6,11.7,4.6,20.5c0,8.7-1.5,15.4-4.5,20.3s-7.1,7.3-12.2,7.3
			c-5.1,0-9.2-2.4-12.3-7.3C337.1,1040,335.6,1033.3,335.6,1024.8z M342.8,1024.4c0,6.1,0.9,10.7,2.7,13.8c1.8,3.1,4.1,4.7,6.9,4.7
			s5.1-1.6,6.8-4.7c1.8-3.1,2.7-7.8,2.7-14c0-6.2-0.9-10.7-2.6-13.8c-1.7-3-4-4.5-6.9-4.5s-5.2,1.5-7,4.6
			C343.6,1013.6,342.8,1018.2,342.8,1024.4z"/>
		<path class="st6" d="M374.5,997.6h12.7c2.9,0,5.1,0.3,6.6,1c2,0.9,3.8,2.6,5.2,4.9c1.4,2.4,2.5,5.3,3.3,8.7s1.1,7.7,1.1,12.7
			c0,4.4-0.4,8.2-1.1,11.4c-0.9,3.9-2.1,7.1-3.7,9.5c-1.2,1.8-2.8,3.3-4.9,4.3c-1.5,0.8-3.6,1.1-6.2,1.1h-13.1V997.6z M381.5,1006.7
			v35.6h5.2c1.9,0,3.4-0.2,4.2-0.5c1.1-0.4,2.1-1.2,2.8-2.2c0.7-1,1.4-2.8,1.8-5.2c0.5-2.4,0.7-5.7,0.7-9.8s-0.2-7.3-0.7-9.6
			c-0.5-2.2-1.1-4-2-5.2c-0.8-1.2-1.9-2.1-3.2-2.5c-1-0.3-2.9-0.5-5.7-0.5H381.5z"/>
		<path class="st6" d="M465.6,1051.3H458l-3-12.2h-13.8l-2.9,12.2h-7.4l13.5-53.7h7.4L465.6,1051.3z M452.7,1030l-4.8-19.9
			l-4.7,19.9H452.7z"/>
		<path class="st6" d="M469.5,1051.3V998h7v44.2h17.3v9H469.5z"/>
		<path class="st6" d="M498.9,1051.3V998h7v44.2h17.3v9H498.9z"/>
		<path class="st6" d="M526.8,1024.8c0-5.5,0.5-10.1,1.6-13.8c0.8-2.7,1.9-5.2,3.2-7.4c1.4-2.2,2.8-3.8,4.5-4.8
			c2.2-1.4,4.6-2.1,7.4-2.1c5.1,0,9.2,2.5,12.2,7.4c3.1,4.9,4.6,11.7,4.6,20.5c0,8.7-1.5,15.4-4.5,20.3s-7.1,7.3-12.2,7.3
			c-5.1,0-9.2-2.4-12.3-7.3C528.3,1040,526.8,1033.3,526.8,1024.8z M534,1024.4c0,6.1,0.9,10.7,2.7,13.8c1.8,3.1,4.1,4.7,6.9,4.7
			c2.8,0,5.1-1.6,6.8-4.7c1.8-3.1,2.7-7.8,2.7-14c0-6.2-0.9-10.7-2.6-13.8s-4-4.5-6.9-4.5s-5.2,1.5-7,4.6
			C534.9,1013.6,534,1018.2,534,1024.4z"/>
		<path class="st6" d="M570.7,1051.3l-8.2-53.7h7.1l5.2,36.9l6.3-36.9h8.3l6.1,37.5l5.3-37.5h7l-8.4,53.7H592l-6.9-40.1l-6.9,40.1
			H570.7z"/>
		<path class="st6" d="M611.3,1051.3v-53.7h25.6v9.1h-18.6v11.9h17.3v9h-17.3v14.6h19.3v9H611.3z"/>
		<path class="st6" d="M643.5,997.6h12.8c2.9,0,5.1,0.3,6.6,1c2,0.9,3.8,2.6,5.2,4.9c1.4,2.4,2.5,5.3,3.3,8.7
			c0.8,3.4,1.1,7.7,1.1,12.7c0,4.4-0.4,8.2-1.1,11.4c-0.9,3.9-2.1,7.1-3.7,9.5c-1.2,1.8-2.8,3.3-4.9,4.3c-1.5,0.8-3.6,1.1-6.2,1.1
			h-13.1V997.6z M650.5,1006.7v35.6h5.2c1.9,0,3.4-0.2,4.2-0.5c1.1-0.4,2.1-1.2,2.8-2.2s1.4-2.8,1.8-5.2c0.5-2.4,0.7-5.7,0.7-9.8
			s-0.2-7.3-0.7-9.6c-0.5-2.2-1.1-4-2-5.2c-0.8-1.2-1.9-2.1-3.2-2.5c-1-0.3-2.9-0.5-5.7-0.5H650.5z"/>
	</g>
	<g>
		<path class="st6" d="M122.9,926.7H116v-26.6c0-2.2-0.4-3.2-1.2-3.2c-0.6,0-1.5,1-2.6,3l-14.5,26.9h-6.5v-30.8
			c-0.7,0.2-1.4,0.2-1.9,0.2c-2.4,0-4.4-0.9-6-2.7c-1.6-1.8-2.5-4-2.5-6.5c0-2.5,0.8-4.6,2.5-6.4c1.6-1.8,3.6-2.6,6-2.6
			c2.5,0,4.6,0.9,6.3,2.8c1.7,1.8,2.5,4.2,2.5,7v17.9c0,2.1-0.4,6.3-1.3,12.7c0.7-3.4,1.9-6.6,3.3-9.5l6.1-11.4
			c1.3-2.4,2.5-3.8,3.6-4.1c-1.5-2-2.2-4.1-2.2-6.2c0-2.6,0.8-4.7,2.5-6.5c1.6-1.8,3.6-2.6,6-2.6c2.4,0,4.4,0.9,6,2.6
			c1.6,1.8,2.5,3.9,2.5,6.5c0,2.6-1,5-3.1,7c1,2,1.5,4.2,1.5,6.5V926.7z M93.2,887c0-1.1-0.4-2.1-1.1-2.9c-0.7-0.8-1.6-1.2-2.7-1.2
			c-1,0-1.9,0.4-2.7,1.2c-0.7,0.8-1.1,1.8-1.1,2.9c0,1.1,0.4,2.1,1.1,2.9c0.7,0.8,1.6,1.2,2.7,1.2c1,0,1.9-0.4,2.7-1.2
			C92.8,889.1,93.2,888.1,93.2,887z M119.9,887c0-1.1-0.4-2.1-1.1-2.9c-0.7-0.8-1.6-1.2-2.7-1.2c-1,0-1.9,0.4-2.7,1.2
			c-0.7,0.8-1.1,1.8-1.1,2.9c0,1.1,0.4,2.1,1.1,2.9c0.7,0.8,1.6,1.2,2.7,1.2c1,0,1.9-0.4,2.7-1.2C119.6,889.1,119.9,888.1,119.9,887
			z"/>
		<path class="st6" d="M129.7,850.3c-0.7,4.2-1.8,7.8-3.1,10.7s-3,5.2-5.1,6.9c-2.1,1.7-4.5,2.9-7.3,3.7c-2.8,0.7-6,1.1-9.6,1.1
			h-3.7v-4.8c1.5-0.1,2.7-0.6,3.7-1.7c1-1,1.7-2.1,2.1-3.1c-1.9-0.3-3.3-1.2-4.4-2.6c-1.1-1.4-1.6-3.2-1.6-5.3c0-2.2,0.7-4,2.2-5.4
			s3.1-2.2,5.1-2.2c2.2,0,4,0.8,5.2,2.3c1.3,1.5,1.9,3.4,1.9,5.8c0,2.3-0.5,4.6-1.6,6.7c-1,2.2-2.1,3.8-3.2,5
			c3.7-0.7,6.7-2.7,9.1-5.8c2.3-3.2,3.6-6.9,3.7-11.2H129.7z M110.7,855.3c0-0.9-0.3-1.6-0.8-2.2c-0.6-0.6-1.2-0.9-2.1-0.9
			c-0.8,0-1.5,0.3-2,0.9c-0.5,0.6-0.8,1.3-0.8,2.2c0,0.9,0.3,1.6,0.8,2.2c0.5,0.6,1.2,0.9,2,0.9c0.8,0,1.5-0.3,2.1-0.9
			C110.4,857,110.7,856.2,110.7,855.3z"/>
		<path class="st6" d="M160.4,926.7h-6.9v-34.8c0-2.2-0.7-4-2.1-5.4c-1.4-1.4-3.3-2.1-5.8-2.1s-4.5,0.9-6,2.6
			c-1.6,1.7-2.4,3.9-2.5,6.6h-6.7c0.2-4.8,1.7-8.6,4.4-11.5c2.7-2.8,6.3-4.3,10.8-4.3c4.2,0,7.7,1.1,10.5,3.4
			c2.9,2.3,4.3,5.7,4.3,10.4V926.7z"/>
		<path class="st6" d="M206.9,926.7H200c-4.3-4.2-8.7-7.1-13.1-8.8v0.6c0,2.6-0.9,4.7-2.7,6.5c-1.8,1.8-3.9,2.6-6.2,2.6
			c-2.5,0-4.6-1-6.4-2.9c-1.8-1.9-2.7-4.2-2.7-6.8c0-2.6,0.9-4.9,2.7-6.8c1.8-1.9,3.9-2.8,6.4-2.8h0.8v-12.5
			c-0.7,0.2-1.4,0.2-1.9,0.2c-2.4,0-4.4-0.9-6-2.7c-1.6-1.8-2.5-4-2.5-6.5c0-2.5,0.8-4.6,2.5-6.4c1.6-1.8,3.6-2.6,6-2.6
			c2.5,0,4.6,0.9,6.3,2.8c1.7,1.8,2.5,4.2,2.5,7v22.8c5.9,2.2,10.6,5,14.3,8.5v-40.1h6.9V926.7z M180.7,887c0-1.1-0.4-2.1-1.1-2.9
			c-0.7-0.8-1.6-1.2-2.7-1.2c-1,0-1.9,0.4-2.7,1.2c-0.7,0.8-1.1,1.8-1.1,2.9c0,1.1,0.4,2.1,1.1,2.9c0.7,0.8,1.6,1.2,2.7,1.2
			c1,0,1.9-0.4,2.7-1.2C180.3,889.1,180.7,888.1,180.7,887z M181.8,918c0-1.1-0.4-2.1-1.1-2.9c-0.7-0.8-1.6-1.2-2.7-1.2
			c-1,0-1.9,0.4-2.7,1.2c-0.7,0.8-1.1,1.8-1.1,2.9c0,1.1,0.4,2.1,1.1,2.9c0.7,0.8,1.6,1.2,2.7,1.2c1,0,1.9-0.4,2.7-1.2
			C181.5,920.1,181.8,919.1,181.8,918z"/>
		<path class="st6" d="M242.9,918.7c0,2.6-0.8,4.7-2.5,6.4c-1.7,1.7-3.7,2.6-6.1,2.6c-2.4,0-4.4-0.9-6.1-2.6
			c-1.7-1.8-2.5-3.9-2.5-6.5c0-2.6,0.8-4.7,2.5-6.5c1.7-1.8,3.7-2.6,6.1-2.6c0.9,0,1.5,0,1.7,0.1v-10.3c0-1.3-2.5-2.5-7.4-3.8
			c-4.9-1.2-9.4-2.2-13.4-2.9c0.1-4.4,1.2-7.9,3.2-10.6c2-2.7,4.9-4,8.7-4c1.6,0,3.7,0.4,6.4,1.1c2.7,0.8,4.7,1.1,5.9,1.1
			c1.3,0,2-0.9,2.1-2.6l5.5,1.6c-1.3,4.9-3.8,7.3-7.4,7.3c-1.3,0-3.3-0.3-5.7-1c-2.5-0.7-4.4-1-5.6-1c-3.3,0-5.1,1.3-5.6,4
			c5.7,1.3,10.5,2.6,14.4,4.1c3.9,1.4,5.9,3.9,5.9,7.4V918.7z M238.1,918.6c0-1.1-0.4-2.1-1.1-2.9c-0.8-0.8-1.7-1.2-2.7-1.2
			c-1.1,0-2,0.4-2.7,1.2c-0.8,0.8-1.1,1.8-1.1,2.9c0,1.1,0.4,2.1,1.1,2.9c0.8,0.8,1.7,1.2,2.7,1.2c1.1,0,2-0.4,2.7-1.2
			C237.7,920.7,238.1,919.7,238.1,918.6z"/>
		<path class="st6" d="M254.9,849.6c-1.9,13.3-8.6,19.9-20.1,19.9c-4.5,0-7.9-1-10.3-2.9c-2.4-2-3.6-4.5-3.6-7.5
			c0-2.3,0.7-4.3,2.2-5.9c1.5-1.6,3.3-2.4,5.5-2.4c2.3,0,4.2,0.8,5.6,2.5c1.4,1.6,2.2,3.6,2.2,5.8c0,2.2-0.6,3.8-1.7,4.8
			c7.7-0.3,12.2-5.1,13.5-14.3H254.9z M232,859.1c0-1-0.3-1.9-1-2.6c-0.7-0.7-1.5-1.1-2.5-1.1c-1,0-1.8,0.4-2.4,1.1
			c-0.6,0.7-0.9,1.6-0.9,2.6c0,1,0.3,1.9,0.9,2.6c0.6,0.7,1.4,1,2.4,1c1,0,1.8-0.3,2.5-1C231.7,861,232,860.1,232,859.1z"/>
		<path class="st6" d="M293.3,915.9c0,7.8-5.4,11.8-16.2,11.8c-10.9,0-16.3-3.9-16.3-11.8v-20c-0.7,0.2-1.4,0.2-1.9,0.2
			c-2.4,0-4.4-0.9-6-2.7c-1.6-1.8-2.5-4-2.5-6.5c0-2.5,0.8-4.6,2.5-6.4c1.6-1.8,3.6-2.6,6-2.6c2.5,0,4.6,0.9,6.3,2.8
			c1.7,1.8,2.5,4.1,2.5,6.9V916c0,1.6,1,2.9,3,3.8c2,1,4.1,1.4,6.4,1.4c2.2,0,4.2-0.5,6.2-1.4c2-1,3-2.2,3-3.8v-37.1h6.9V915.9z
			 M262.7,887c0-1.1-0.4-2.1-1.1-2.9c-0.7-0.8-1.6-1.2-2.7-1.2c-1,0-1.9,0.4-2.7,1.2c-0.7,0.8-1.1,1.8-1.1,2.9
			c0,1.1,0.4,2.1,1.1,2.9c0.7,0.8,1.6,1.2,2.7,1.2c1,0,1.9-0.4,2.7-1.2C262.3,889.1,262.7,888.1,262.7,887z"/>
		<path class="st6" d="M342.9,915.9c0,7.8-5.4,11.8-16.2,11.8c-10.9,0-16.3-3.9-16.3-11.8v-20c-0.7,0.2-1.4,0.2-1.9,0.2
			c-2.4,0-4.4-0.9-6-2.7c-1.6-1.8-2.5-4-2.5-6.5c0-2.5,0.8-4.6,2.5-6.4c1.6-1.8,3.6-2.6,6-2.6c2.5,0,4.6,0.9,6.3,2.8
			c1.7,1.8,2.5,4.1,2.5,6.9V916c0,1.6,1,2.9,3,3.8c2,1,4.1,1.4,6.4,1.4c2.2,0,4.2-0.5,6.2-1.4s3-2.2,3-3.8v-56.3h6.9V915.9z
			 M312.3,887c0-1.1-0.4-2.1-1.1-2.9c-0.7-0.8-1.6-1.2-2.7-1.2c-1,0-1.9,0.4-2.7,1.2c-0.7,0.8-1.1,1.8-1.1,2.9
			c0,1.1,0.4,2.1,1.1,2.9c0.7,0.8,1.6,1.2,2.7,1.2c1,0,1.9-0.4,2.7-1.2C312,889.1,312.3,888.1,312.3,887z"/>
		<path class="st6" d="M378.8,918.7c0,2.6-0.8,4.7-2.5,6.4c-1.7,1.7-3.7,2.6-6.1,2.6c-2.4,0-4.4-0.9-6.1-2.6
			c-1.7-1.8-2.5-3.9-2.5-6.5c0-2.6,0.8-4.7,2.5-6.5c1.7-1.8,3.7-2.6,6.1-2.6c0.9,0,1.5,0,1.7,0.1v-10.3c0-1.3-2.5-2.5-7.4-3.8
			c-4.9-1.2-9.4-2.2-13.4-2.9c0.1-4.4,1.2-7.9,3.2-10.6c2-2.7,4.9-4,8.7-4c1.6,0,3.7,0.4,6.4,1.1c2.7,0.8,4.7,1.1,5.9,1.1
			c1.3,0,2-0.9,2.1-2.6l5.5,1.6c-1.3,4.9-3.8,7.3-7.4,7.3c-1.3,0-3.3-0.3-5.7-1c-2.5-0.7-4.4-1-5.6-1c-3.3,0-5.1,1.3-5.6,4
			c5.7,1.3,10.5,2.6,14.4,4.1c3.9,1.4,5.9,3.9,5.9,7.4V918.7z M374,918.6c0-1.1-0.4-2.1-1.1-2.9c-0.8-0.8-1.7-1.2-2.7-1.2
			s-2,0.4-2.7,1.2c-0.8,0.8-1.1,1.8-1.1,2.9c0,1.1,0.4,2.1,1.1,2.9c0.8,0.8,1.7,1.2,2.7,1.2s2-0.4,2.7-1.2
			C373.7,920.7,374,919.7,374,918.6z"/>
		<path class="st6" d="M419,879.1c-0.4,12.7-5.9,19.1-16.6,19.1c-4.5,0-7.9-1-10.3-2.9c-2.4-2-3.6-4.5-3.6-7.5
			c0-2.3,0.7-4.3,2.2-5.9c1.5-1.6,3.3-2.4,5.5-2.4c2.3,0,4.2,0.8,5.6,2.5c1.5,1.6,2.2,3.6,2.2,5.8c0,2.2-0.6,3.8-1.7,4.8
			c6.9-0.3,10.4-4.8,10.4-13.4H419z M419,906.3c-0.4,12.7-5.9,19.1-16.6,19.1c-4.5,0-7.9-1-10.3-2.9c-2.4-2-3.6-4.5-3.6-7.5
			c0-2.3,0.7-4.3,2.2-5.9c1.5-1.6,3.3-2.4,5.5-2.4c2.3,0,4.2,0.8,5.6,2.5c1.5,1.6,2.2,3.6,2.2,5.8c0,2.2-0.6,3.8-1.7,4.8
			c6.9-0.3,10.4-4.8,10.4-13.4H419z M399.6,887.7c0-1-0.3-1.9-1-2.6c-0.7-0.7-1.5-1.1-2.5-1.1c-1,0-1.8,0.4-2.4,1.1
			c-0.6,0.7-0.9,1.6-0.9,2.6c0,1,0.3,1.9,0.9,2.6c0.6,0.7,1.4,1,2.4,1c1,0,1.8-0.3,2.5-1C399.2,889.6,399.6,888.8,399.6,887.7z
			 M399.6,915c0-1-0.3-1.9-1-2.6c-0.7-0.7-1.5-1.1-2.5-1.1c-1,0-1.8,0.4-2.4,1.1c-0.6,0.7-0.9,1.6-0.9,2.6c0,1,0.3,1.9,0.9,2.6
			c0.6,0.7,1.4,1,2.4,1c1,0,1.8-0.3,2.5-1C399.2,916.9,399.6,916,399.6,915z"/>
		<path class="st6" d="M466.4,926.7h-6.9V888c0-2.5-0.6-3.7-1.7-3.7c-1,0-1.6,0.6-2,1.8l-13.3,40.7h-7.8v-30.8
			c-0.7,0.2-1.4,0.2-1.9,0.2c-2.4,0-4.4-0.9-6-2.7c-1.6-1.8-2.5-4-2.5-6.5c0-2.5,0.8-4.6,2.5-6.4c1.6-1.8,3.6-2.6,6-2.6
			c2.5,0,4.6,0.9,6.3,2.8c1.7,1.8,2.5,4.2,2.5,7v17.9c0,2.7-0.4,7-1.3,12.7c0.8-3.5,1.9-7.4,3.1-11.8l6.2-21.4
			c1.4-4.9,4.2-7.3,8.4-7.2c5.6,0.1,8.4,3.5,8.4,10.2V926.7z M436.6,887c0-1.1-0.4-2.1-1.1-2.9c-0.7-0.8-1.6-1.2-2.7-1.2
			c-1,0-1.9,0.4-2.7,1.2c-0.7,0.8-1.1,1.8-1.1,2.9c0,1.1,0.4,2.1,1.1,2.9c0.7,0.8,1.6,1.2,2.7,1.2c1,0,1.9-0.4,2.7-1.2
			C436.2,889.1,436.6,888.1,436.6,887z"/>
		<path class="st6" d="M503.9,926.7H497v-34.8c0-2.2-0.7-4-2.1-5.4c-1.4-1.4-3.3-2.1-5.8-2.1s-4.5,0.9-6,2.6
			c-1.6,1.7-2.4,3.9-2.5,6.6h-6.7c0.2-4.8,1.7-8.6,4.4-11.5c2.7-2.8,6.3-4.3,10.8-4.3c4.2,0,7.7,1.1,10.5,3.4
			c2.9,2.3,4.3,5.7,4.3,10.4V926.7z"/>
		<path class="st6" d="M552.2,904.1c0,3.2-0.8,5.4-2.3,6.6c2.9,1.7,4.4,4.4,4.4,8c0,2.6-0.8,4.7-2.5,6.5c-1.6,1.7-3.6,2.6-5.9,2.6
			c-2.2,0-4-0.7-5.6-2.2s-2.5-3.3-2.8-5.6c-2.4,1.3-4.1,2.2-5.1,2.9c-1.8,1.2-3.2,2.5-4.2,4h-7v-30.8c-0.7,0.2-1.4,0.2-1.9,0.2
			c-2.4,0-4.4-0.9-6-2.7c-1.6-1.8-2.5-4-2.5-6.5c0-2.5,0.8-4.6,2.5-6.4c1.6-1.8,3.6-2.6,6-2.6c2.5,0,4.6,0.9,6.3,2.8
			c1.7,1.8,2.5,4.2,2.5,7v30.5c1.2-1,3.9-2.4,8-4.2c3.7-1.7,6.3-3.4,7.7-5c1-1.2,1.6-3.1,1.6-5.8v-24.2h6.9V904.1z M522.9,887
			c0-1.1-0.4-2.1-1.1-2.9c-0.7-0.8-1.6-1.2-2.7-1.2c-1,0-1.9,0.4-2.7,1.2c-0.7,0.8-1.1,1.8-1.1,2.9c0,1.1,0.4,2.1,1.1,2.9
			c0.7,0.8,1.6,1.2,2.7,1.2c1,0,1.9-0.4,2.7-1.2C522.6,889.1,522.9,888.1,522.9,887z M549.5,918.6c0-1.1-0.4-2-1.1-2.8
			c-0.7-0.8-1.6-1.2-2.7-1.2c-1,0-1.9,0.4-2.7,1.2c-0.7,0.8-1.1,1.7-1.1,2.8c0,1.1,0.4,2.1,1.1,2.8c0.7,0.8,1.6,1.2,2.7,1.2
			c1,0,1.9-0.4,2.7-1.2C549.1,920.7,549.5,919.7,549.5,918.6z"/>
		<path class="st6" d="M596.1,915.9c0,4.2-1.7,7.2-5.2,9.2c-2.8,1.7-6.5,2.5-10.9,2.5s-8.1-0.8-10.8-2.5c-3.3-2-5-5.1-5-9.3v-12.2
			c0-2.9,0.7-5.3,2.2-7.3c1.5-2,3.6-3,6.4-3c2.4,0,4.4,0.9,6,2.6c1.6,1.7,2.5,3.9,2.5,6.5c0,2.5-0.8,4.6-2.5,6.4
			c-1.6,1.8-3.6,2.7-6,2.7c-0.7,0-1.2-0.1-1.7-0.2v3.7c0,4.1,3,6.2,9,6.2c6.1,0,9.1-2.1,9.1-6.3V892c0-2.6-1.2-4.6-3.5-6
			c-1.9-1.1-4.3-1.7-7.1-1.7c-7.1,0-10.9,1.9-11.5,5.8h-6.7c1-8.1,6.8-12.2,17.6-12.2c5,0,9.1,1,12.3,3c3.9,2.6,5.8,6.4,5.8,11.5
			V915.9z M576.5,902.6c0-1.1-0.4-2-1.1-2.8c-0.8-0.8-1.7-1.2-2.7-1.2c-1.1,0-2,0.4-2.7,1.2c-0.8,0.8-1.1,1.7-1.1,2.8
			c0,1.1,0.4,2.1,1.1,2.8c0.8,0.8,1.7,1.2,2.7,1.2c1.1,0,2-0.4,2.7-1.2C576.1,904.6,576.5,903.7,576.5,902.6z"/>
		<path class="st6" d="M633.6,926.7h-6.9v-34.8c0-2.2-0.7-4-2.1-5.4c-1.4-1.4-3.3-2.1-5.8-2.1s-4.5,0.9-6,2.6
			c-1.6,1.7-2.4,3.9-2.5,6.6h-6.7c0.2-4.8,1.7-8.6,4.4-11.5c2.7-2.8,6.3-4.3,10.8-4.3c4.2,0,7.7,1.1,10.5,3.4
			c2.9,2.3,4.3,5.7,4.3,10.4V926.7z"/>
		<path class="st6" d="M682.5,926.7h-6.9v-26.6c0-2.2-0.4-3.2-1.2-3.2c-0.6,0-1.5,1-2.6,3l-14.5,26.9h-6.5v-30.8
			c-0.7,0.2-1.4,0.2-1.9,0.2c-2.4,0-4.4-0.9-6-2.7c-1.6-1.8-2.5-4-2.5-6.5c0-2.5,0.8-4.6,2.5-6.4c1.6-1.8,3.6-2.6,6-2.6
			c2.5,0,4.6,0.9,6.3,2.8c1.7,1.8,2.5,4.2,2.5,7v17.9c0,2.1-0.4,6.3-1.3,12.7c0.7-3.4,1.9-6.6,3.3-9.5l6.1-11.4
			c1.3-2.4,2.5-3.8,3.6-4.1c-1.5-2-2.2-4.1-2.2-6.2c0-2.6,0.8-4.7,2.5-6.5c1.6-1.8,3.6-2.6,6-2.6c2.4,0,4.4,0.9,6,2.6
			c1.6,1.8,2.5,3.9,2.5,6.5c0,2.6-1,5-3.1,7c1,2,1.5,4.2,1.5,6.5V926.7z M652.7,887c0-1.1-0.4-2.1-1.1-2.9c-0.7-0.8-1.6-1.2-2.7-1.2
			c-1,0-1.9,0.4-2.7,1.2c-0.7,0.8-1.1,1.8-1.1,2.9c0,1.1,0.4,2.1,1.1,2.9c0.7,0.8,1.6,1.2,2.7,1.2c1,0,1.9-0.4,2.7-1.2
			C652.3,889.1,652.7,888.1,652.7,887z M679.4,887c0-1.1-0.4-2.1-1.1-2.9c-0.7-0.8-1.6-1.2-2.7-1.2c-1,0-1.9,0.4-2.7,1.2
			c-0.7,0.8-1.1,1.8-1.1,2.9c0,1.1,0.4,2.1,1.1,2.9c0.7,0.8,1.6,1.2,2.7,1.2c1,0,1.9-0.4,2.7-1.2C679.1,889.1,679.4,888.1,679.4,887
			z"/>
		<path class="st6" d="M719.9,926.7H713v-34.8c0-2.2-0.7-4-2.1-5.4c-1.4-1.4-3.3-2.1-5.8-2.1s-4.5,0.9-6,2.6
			c-1.6,1.7-2.4,3.9-2.5,6.6h-6.7c0.2-4.8,1.7-8.6,4.4-11.5c2.7-2.8,6.3-4.3,10.8-4.3c4.2,0,7.7,1.1,10.5,3.4
			c2.9,2.3,4.3,5.7,4.3,10.4V926.7z"/>
		<path class="st6" d="M755.9,918.7c0,2.6-0.8,4.7-2.5,6.4c-1.7,1.7-3.7,2.6-6.1,2.6c-2.4,0-4.4-0.9-6.1-2.6s-2.5-3.9-2.5-6.5
			c0-2.6,0.8-4.7,2.5-6.5c1.7-1.8,3.7-2.6,6.1-2.6c0.9,0,1.5,0,1.7,0.1v-10.3c0-1.3-2.5-2.5-7.4-3.8c-4.9-1.2-9.4-2.2-13.4-2.9
			c0.1-4.4,1.2-7.9,3.2-10.6c2-2.7,4.9-4,8.7-4c1.6,0,3.7,0.4,6.4,1.1c2.7,0.8,4.7,1.1,5.9,1.1c1.3,0,2-0.9,2.1-2.6l5.5,1.6
			c-1.3,4.9-3.8,7.3-7.4,7.3c-1.3,0-3.3-0.3-5.7-1c-2.5-0.7-4.4-1-5.6-1c-3.3,0-5.1,1.3-5.6,4c5.7,1.3,10.5,2.6,14.4,4.1
			c3.9,1.4,5.9,3.9,5.9,7.4V918.7z M751.1,918.6c0-1.1-0.4-2.1-1.1-2.9c-0.8-0.8-1.7-1.2-2.7-1.2c-1.1,0-2,0.4-2.7,1.2
			c-0.8,0.8-1.1,1.8-1.1,2.9c0,1.1,0.4,2.1,1.1,2.9c0.8,0.8,1.7,1.2,2.7,1.2c1.1,0,2-0.4,2.7-1.2
			C750.7,920.7,751.1,919.7,751.1,918.6z"/>
	</g>
	<g>
		<g>
			<path d="M359.9,478.4c0.8-21.8,2.3-57.4,3.2-92.9c0.3-13.2-0.7-26.4-1-39.7c-0.4-15.6-5.8-29.1-15.7-41.1
				c-7-8.5-12.8-18-17.3-28.2c-6.3-14.4-7.8-29.5-6.5-45c1.6-19.2,5.8-37.8,14.1-55.3c4.3-9.1,9.6-17.6,17.3-24.3
				c10.5-9,23.7-8.9,34,0.3c8.7,7.7,14.4,17.6,18.8,28.1c8.4,19.8,12.3,40.4,12.5,61.9c0.2,17.9-5,34-14.7,48.8
				c-4.4,6.7-9,13.3-13.9,19.8c-5.9,7.9-9.2,16.6-10.4,26.5c-2.7,21.4-2.6,42.9-1.6,64.4c1.9,41.7,3.9,83.5,6,125.2
				c1.8,34.4,3.8,68.8,5.8,103.2c0.4,7-0.9,13.5-5.3,19.3c-8.3,10.9-23.2,10.1-30.3-1.6c-3.3-5.4-4.3-11.1-3.9-17.2
				C353.7,584.5,356.4,538.3,359.9,478.4z"/>
			<path d="M454.5,144.4c0.4,2.1,1.1,4.2,1.1,6.3c0.1,8.7,0.1,17.4,0.1,26.1c0,25.4,0,50.9,0,76.3c0,0.7,0,1.4,0,2.2
				c0.1,3.6,2,5.7,5.1,5.7c2.9,0,5-2.1,5.1-5.5c0.4-9.4,0.8-18.8,1.1-28.2c1-25.8,2-51.7,3.1-77.5c0.1-1.8,0.7-3.5,1-5.3
				c0.5,0,0.9-0.1,1.4-0.1c0.4,2.1,1.1,4.1,1.2,6.2c0.5,16,1,32.1,1.4,48.1c0.5,18.7,1,37.4,1.6,56.1c0.1,3.9,2.2,6.3,5.4,6.2
				c3.1-0.1,4.8-2.2,5-6.2c1-34.7,2-69.5,3.1-104.2c0.1-2,0.6-4,0.9-6c0.5,0,1,0,1.5-0.1c0.4,1.7,1.1,3.3,1.1,5
				c0.9,20.8,1.7,41.5,2.5,62.3c0.5,13.7,1,27.5,1.5,41.2c0.1,1.3,0.1,2.7,0.3,4c0.5,2.5,3,4.3,5.5,3.9c2.6-0.4,4.3-1.9,4.5-4.7
				c0.1-1,0-2.1,0-3.1c0-33.4,0-66.8,0-100.2c0-2.8,0.5-5.6,0.8-8.4c0.5-0.1,1-0.1,1.4-0.2c0.5,1.2,1.3,2.4,1.4,3.6
				c0.7,8.1,1.4,16.3,1.9,24.4c2,29.3,4.1,58.6,5.7,87.9c0.7,11.6,0.3,23.2,0.4,34.7c0,4.7-2.2,8.5-5.8,11.2
				c-4.9,3.6-10,7-15.2,10.2c-4.1,2.5-6.2,5.7-6.8,10.6c-2.3,20.2-3,40.5-2.2,60.7c2,52.2,4.6,104.4,7.2,156.5
				c1.4,28.1,3.1,56.2,4.7,84.3c0.4,7.3-0.4,14.3-4.8,20.4c-4.2,5.8-9.9,9.2-17.3,8.1c-7.8-1.1-12.9-6.1-15.4-13.2
				c-1.4-4-2.1-8.5-1.9-12.7c2.8-51.9,6.3-103.9,8.8-155.8c1.7-34.1,2.7-68.2,3.1-102.3c0.2-16.3-1.8-32.6-2.8-48.9
				c-0.2-3.3-2.6-5-5-6.6c-5.1-3.5-10.4-6.7-15.5-10.3c-4.5-3.2-6.9-7.5-6.8-13.2c0.5-19.7,0.6-39.5,1.7-59.2
				c1.5-26.8,3.8-53.6,5.7-80.5c0.2-3.2,0.8-6.4,1.2-9.6C453.3,144.5,453.9,144.4,454.5,144.4z"/>
		</g>
		<path class="st8" d="M432.4,748c-7.2,0-14.3,0-21.5,0c-0.9-0.1-1.8-0.3-2.7-0.4c-5.4-0.4-10.8-0.6-16.2-1
			c-16.7-1.3-33.2-3.9-49.5-7.7c-66.7-15.8-124-48.2-171.5-97.7c-43.7-45.5-72.8-99.1-87.5-160.4c-3.9-16.2-6.6-32.6-7.9-49.2
			c-0.6-7.9-1-15.8-1.5-23.7c0-0.7-0.3-1.4-0.4-2.2c0-3,0-6,0-9c0.2-0.6,0.4-1.3,0.4-1.9c0.3-5.8,0.6-11.6,1-17.4
			c0.9-15.1,3-30.1,6-45c7.1-35.7,19.5-69.5,37.4-101.1c35.8-63.1,86.3-110.7,151.4-142.6c46.5-22.8,95.8-34.2,147.7-34.8
			c0.8,0,1.6-0.2,2.4-0.4c0.7,0,1.3,0,2,0c0.8,0.1,1.6,0.4,2.4,0.4c14.9,0.1,29.8,1.2,44.5,3.3c22.4,3.1,44.3,8.3,65.7,15.6
			c95,32.7,171.8,105.9,209.1,199.5c14.6,36.7,23.1,74.8,24.2,114.4c0,0.7,0.3,1.4,0.4,2.1c0,7.8,0,15.7,0,23.5
			c-0.1,0.8-0.4,1.6-0.4,2.4c-0.1,10.6-1.2,21.1-2.5,31.6c-2.8,21.6-7.6,42.7-14.4,63.4c-17.7,53.5-46.7,99.9-87,139.3
			c-37.7,36.9-81.7,63.8-131.7,80.8c-20,6.8-40.4,11.6-61.3,14.6c-12,1.7-24,2.9-36,3.2C434,747.6,433.2,747.9,432.4,748z
			 M201.8,231.1c-82.6,104.5-81,267,28.2,370.8c108.6,103.2,265.5,95,360.9,18.4C461.3,490.6,331.6,360.9,201.8,231.1z M251.6,181.4
			c129.7,129.7,259.4,259.5,389.1,389.2c80.7-101.5,82.5-262.9-25.9-368.5C507.8,97.8,349.6,103.1,251.6,181.4z"/>
	</g>
</g>
</svg>
