<?xml version="1.0" encoding="utf-8"?>
<!-- Generator: Adobe Illustrator 22.0.0, SVG Export Plug-In . SVG Version: 6.00 Build 0)  -->
<svg version="1.1" id="Layer_1" xmlns="http://www.w3.org/2000/svg" xmlns:xlink="http://www.w3.org/1999/xlink" x="0px" y="0px"
	 viewBox="0 0 841.9 1190.6" style="enable-background:new 0 0 841.9 1190.6;" xml:space="preserve">
<style type="text/css">
	.st0{fill:none;}
	.st1{fill:#010101;}
	.st2{fill:#FFFFFF;}
	.st3{fill:#EB2227;}
	.st4{fill:#EB2627;}
	.st5{fill:#2A3B8F;}
	.st6{fill:#FFFFFF;stroke:#FFFFFF;stroke-miterlimit:10;}
	.st7{fill-rule:evenodd;clip-rule:evenodd;}
	.st8{fill:#EC2727;}
	.st9{fill-rule:evenodd;clip-rule:evenodd;fill:#FFFFFF;}
	.st10{fill-rule:evenodd;clip-rule:evenodd;fill:#EC2C2C;}
	.st11{fill-rule:evenodd;clip-rule:evenodd;fill:#010101;}
	.st12{fill-rule:evenodd;clip-rule:evenodd;fill:#AFAFB0;}
	.st13{fill-rule:evenodd;clip-rule:evenodd;fill:#302F2F;}
	.st14{fill:#040505;}
</style>
<g>
	<g>
		<rect x="0" y="0" class="st0" width="841.9" height="1190.6"/>
		<rect x="28.3" y="28.3" class="st1" width="785.2" height="1133.9"/>
		<rect x="34" y="34" class="st2" width="773.9" height="1122.5"/>
		<rect x="52.5" y="792.6" class="st3" width="737" height="348.7"/>
		<g id="stecon_43_">
			<path id="red_43_" class="st4" d="M52.8,53.5c42.5,0,85,0,127.6,0c0,22.6,0,45.1,0,67.7c-42.5,0-85,0-127.5,0c0-0.2,0-0.5,0-0.7
				c0-22.1,0-44.2,0-66.3C52.9,54,52.8,53.8,52.8,53.5z M55.8,87.4c0.2,0.1,0.4,0.2,0.5,0.3c3.6,1.8,7.1,3.7,10.7,5.5
				c16.4,8.4,32.7,16.8,49.1,25.2c0.4,0.2,0.7,0.2,1.1,0c13.8-7.1,27.6-14.2,41.4-21.3c6.1-3.2,12.3-6.3,18.4-9.5
				c0.1-0.1,0.3-0.2,0.5-0.3c-0.2-0.1-0.3-0.2-0.5-0.3c-3.8-1.9-7.6-3.9-11.4-5.8c-16.2-8.3-32.4-16.7-48.5-25
				c-0.3-0.2-0.5-0.2-0.9,0c-7,3.6-14.1,7.3-21.1,10.9c-12.6,6.5-25.2,12.9-37.7,19.4C56.9,86.8,56.4,87.1,55.8,87.4z"/>
			<g id="white_43_">
				<path class="st2" d="M55.8,87.4c0.6-0.3,1.1-0.6,1.6-0.8c12.6-6.5,25.2-12.9,37.7-19.4c7-3.6,14.1-7.2,21.1-10.9
					c0.3-0.2,0.6-0.1,0.9,0c16.2,8.3,32.4,16.7,48.5,25c3.8,1.9,7.6,3.9,11.4,5.8c0.1,0.1,0.3,0.1,0.5,0.3c-0.2,0.1-0.3,0.2-0.5,0.3
					c-6.1,3.2-12.3,6.3-18.4,9.5c-13.8,7.1-27.6,14.2-41.4,21.3c-0.4,0.2-0.7,0.2-1.1,0C99.7,110,83.4,101.6,67,93.1
					c-3.6-1.8-7.1-3.7-10.7-5.5C56.2,87.6,56,87.5,55.8,87.4z M59.7,87.4c0.2,0.1,0.3,0.2,0.4,0.2c1,0.5,1.9,1,2.9,1.5
					c17.7,9.1,35.5,18.2,53.2,27.3c0.3,0.1,0.5,0.2,0.8,0c12.9-6.6,25.7-13.2,38.6-19.8c5.8-3,11.6-6,17.5-9
					c0.1-0.1,0.3-0.2,0.5-0.3c-0.2-0.1-0.4-0.2-0.6-0.3c-15.9-8.2-31.9-16.4-47.8-24.5c-2.7-1.4-5.5-2.8-8.2-4.2
					c-0.2-0.1-0.4-0.1-0.7,0c-0.3,0.2-0.7,0.4-1.1,0.6C97,68.3,78.6,77.6,60.3,87C60.1,87.1,60,87.2,59.7,87.4z"/>
				<path class="st2" d="M147.4,79.5c1.4,0,2.7,0,4.1,0c0,5.2,0,10.3,0,15.4c-1.4,0-2.8,0-4.2,0c-0.9-2.6-1.8-5.3-2.7-7.9
					c0,0-0.1,0-0.1,0c0,2.6,0,5.2,0,7.9c-1.4,0-2.7,0-4,0c0,0,0,0,0,0c0,0,0,0,0,0c0-0.1,0-0.2,0-0.3c0-4.9,0-9.9,0-14.8
					c0,0,0-0.1,0-0.2c0.1,0,0.3,0,0.4,0c1.2,0,2.3,0,3.5,0c0.4,0,0.4,0,0.5,0.4c0.8,2.5,1.6,5,2.4,7.5c0,0.1,0.1,0.2,0.2,0.4
					C147.4,85,147.4,82.3,147.4,79.5z"/>
				<path class="st2" d="M138.8,87.3c0,1.5,0,3,0,4.5c0,0.8-0.3,1.4-0.8,1.9c-0.7,0.7-1.6,1.2-2.6,1.3c-1.5,0.3-3.1,0.3-4.6-0.1
					c-0.9-0.2-1.6-0.6-2.3-1.3c-0.5-0.5-0.8-1.1-0.8-1.9c0-3,0-6.1,0-9.1c0-0.7,0.2-1.3,0.7-1.8c0.6-0.7,1.4-1.2,2.3-1.4
					c1.7-0.4,3.5-0.4,5.2,0.1c0.7,0.2,1.4,0.6,2,1.2c0.6,0.5,0.9,1.2,0.8,2C138.8,84.3,138.8,85.8,138.8,87.3z M134.2,87.3
					c0-1.5,0-2.9,0-4.4c0-0.7-0.1-0.9-0.8-0.9c-0.1,0-0.2,0-0.2,0c-0.5,0.1-0.6,0.2-0.6,0.7c0,3,0,6,0,9c0,0.5,0.1,0.7,0.6,0.7
					c0.2,0,0.3,0,0.5,0c0.5-0.1,0.6-0.2,0.6-0.7C134.2,90.3,134.2,88.8,134.2,87.3z"/>
				<path class="st2" d="M126.7,88.9c0,0.2,0,0.3,0,0.5c0,0.8,0,1.6,0,2.4c0,0.8-0.3,1.5-0.9,2c-0.7,0.7-1.5,1.1-2.5,1.3
					c-1.5,0.3-3,0.3-4.5-0.1c-0.8-0.2-1.5-0.6-2.2-1.2c-0.6-0.6-0.9-1.2-0.9-2.1c0-3,0-5.9,0-8.9c0-0.9,0.3-1.6,0.9-2.1
					c0.7-0.7,1.6-1.1,2.5-1.2c1.4-0.2,2.9-0.2,4.3,0.1c0.9,0.2,1.6,0.6,2.3,1.2c0.6,0.6,0.9,1.2,0.9,2.1c0,0.8,0,1.7,0,2.5
					c0,0.2,0,0.3,0,0.5c-1.6,0-3.1,0-4.6,0c0-0.2,0-0.3,0-0.5c0-0.9,0-1.7,0-2.6c0-0.5-0.1-0.6-0.6-0.7c-0.1,0-0.2,0-0.3,0
					c-0.7,0.1-0.7,0.3-0.7,0.8c0,2.9,0,5.9,0,8.8c0,0.1,0,0.2,0,0.3c0,0.2,0.1,0.4,0.3,0.4c0.1,0,0.3,0.1,0.4,0.1
					c0.6,0.1,0.8-0.2,0.8-0.8c0-0.8,0-1.5,0-2.3c0-0.2,0-0.3,0-0.5C122.4,88.8,126,88.8,126.7,88.9z"/>
				<path class="st2" d="M105.5,94.9c0-5.1,0-10.2,0-15.3c0.4-0.1,8.7-0.1,9.1,0c0,0.8,0,1.6,0,2.5c-0.1,0-0.3,0-0.4,0
					c-1.1,0-2.2,0-3.3,0c-0.1,0-0.3,0-0.5,0c0,1.4,0,2.7,0,4.1c1,0,2.1,0,3.1,0c0,0.8,0,1.5,0,2.2c-0.4,0.1-0.7,0.1-1,0.1
					c-0.3,0-0.7,0-1,0c-0.3,0-0.7,0-1,0c-0.1,0.3-0.1,2.8,0,3.7c0.1,0,0.3,0,0.5,0c1.1,0,2.2,0,3.3,0c0.2,0,0.3,0,0.5,0
					c0,0.9,0,1.8,0,2.6C114.3,95,106,95,105.5,94.9z"/>
				<path class="st2" d="M101.1,94.9c-1.6,0-3.1,0-4.7,0c0-4.3,0-8.5,0-12.8c-1,0-2,0-3,0c-0.1-0.4-0.1-2.1,0-2.6
					c0.3-0.1,10.4-0.1,10.8,0c0.1,0.3,0.1,2.1,0,2.6c-1,0-2,0-3,0C101.1,86.4,101.1,90.6,101.1,94.9z"/>
				<path class="st2" d="M92.1,84.9c-1.6,0-3.1,0-4.6,0c0-0.2,0-0.3,0-0.5c0-0.6,0-1.2,0-1.8c0-0.4-0.1-0.6-0.5-0.6
					c-0.1,0-0.2,0-0.4,0c-0.3,0-0.5,0.2-0.5,0.5c0,0.6,0,1.1,0,1.7c0,0.4,0.2,0.6,0.5,0.8c0.4,0.2,0.7,0.4,1.1,0.7
					c1,0.6,2,1.1,2.9,1.7c0.1,0.1,0.3,0.2,0.4,0.3c0.7,0.5,1.1,1.2,1.1,2.1c0,0.7,0,1.3,0,2c0,0.7-0.2,1.3-0.7,1.7
					c-0.7,0.7-1.5,1.2-2.4,1.4c-1.5,0.4-3.1,0.4-4.7,0c-0.8-0.2-1.6-0.6-2.2-1.2c-0.6-0.5-0.9-1.2-0.9-2.1c0-0.8,0-1.5,0-2.3
					c0.3-0.1,3.9-0.1,4.5,0c0,0.1,0,0.3,0,0.4c0,0.7,0,1.3,0,2c0,0.4,0.1,0.6,0.5,0.6c0.2,0,0.5,0,0.7-0.1c0.2,0,0.3-0.2,0.3-0.4
					c0-0.6,0-1.2,0-1.8c0-0.3-0.2-0.6-0.4-0.7c-0.4-0.3-0.8-0.5-1.2-0.8c-1-0.6-2-1.2-2.9-1.8c-0.3-0.2-0.6-0.4-0.9-0.7
					c-0.4-0.4-0.6-0.9-0.6-1.5c0-0.7,0-1.3,0-2c0-0.8,0.3-1.4,0.8-1.9c0.7-0.7,1.6-1.2,2.6-1.4c1.4-0.3,2.8-0.3,4.2,0.1
					c0.9,0.2,1.7,0.7,2.3,1.3c0.5,0.5,0.8,1.1,0.8,1.9C92.1,83.5,92.1,84.2,92.1,84.9z"/>
			</g>
			<g id="blue_43_">
				<path class="st5" d="M59.7,87.4c0.3-0.1,0.5-0.2,0.7-0.3c18.3-9.4,36.6-18.8,54.9-28.1c0.4-0.2,0.7-0.4,1.1-0.6
					c0.2-0.1,0.4-0.1,0.7,0c2.7,1.4,5.4,2.8,8.2,4.2c15.9,8.2,31.9,16.4,47.8,24.5c0.2,0.1,0.3,0.2,0.6,0.3
					c-0.2,0.1-0.3,0.2-0.5,0.3c-5.8,3-11.6,6-17.5,9c-12.9,6.6-25.7,13.2-38.6,19.8c-0.3,0.1-0.5,0.1-0.8,0
					C98.5,107.3,80.8,98.2,63,89.1c-1-0.5-1.9-1-2.9-1.5C60,87.5,59.9,87.5,59.7,87.4z M147.4,79.5c0,2.8,0,5.5,0,8.3
					c-0.1-0.1-0.1-0.2-0.2-0.4c-0.8-2.5-1.6-5-2.4-7.5c-0.1-0.4-0.1-0.4-0.5-0.4c-1.2,0-2.3,0-3.5,0c-0.1,0-0.3,0-0.4,0
					c0,0.1,0,0.1,0,0.2c0,4.9,0,9.9,0,14.8c0,0.1,0,0.2,0,0.3c0,0,0,0,0,0c0,0,0,0,0,0c1.3,0,2.7,0,4,0c0-2.7,0-5.3,0-7.9
					c0,0,0.1,0,0.1,0c0.9,2.6,1.8,5.3,2.7,7.9c1.4,0,2.8,0,4.2,0c0-5.1,0-10.2,0-15.4C150.2,79.5,148.8,79.5,147.4,79.5z
					 M138.8,87.3c0-1.5,0-3,0-4.5c0-0.8-0.3-1.5-0.8-2c-0.6-0.6-1.2-1-2-1.2c-1.7-0.5-3.5-0.5-5.2-0.1c-0.9,0.2-1.7,0.7-2.3,1.4
					c-0.4,0.5-0.7,1.1-0.7,1.8c0,3,0,6.1,0,9.1c0,0.8,0.3,1.4,0.8,1.9c0.6,0.7,1.4,1.1,2.3,1.3c1.5,0.3,3.1,0.3,4.6,0.1
					c1-0.2,1.8-0.6,2.6-1.3c0.5-0.5,0.8-1.2,0.8-1.9C138.8,90.3,138.8,88.8,138.8,87.3z M126.7,88.9c-0.6-0.1-4.3-0.1-4.7,0
					c0,0.1,0,0.3,0,0.5c0,0.8,0,1.5,0,2.3c0,0.7-0.2,0.9-0.8,0.8c-0.1,0-0.3,0-0.4-0.1c-0.2-0.1-0.3-0.2-0.3-0.4c0-0.1,0-0.2,0-0.3
					c0-2.9,0-5.9,0-8.8c0-0.5,0-0.7,0.7-0.8c0.1,0,0.2,0,0.3,0c0.5,0.1,0.6,0.2,0.6,0.7c0,0.9,0,1.7,0,2.6c0,0.2,0,0.3,0,0.5
					c1.6,0,3.1,0,4.6,0c0-0.2,0-0.4,0-0.5c0-0.8,0-1.7,0-2.5c0-0.9-0.3-1.5-0.9-2.1c-0.7-0.6-1.4-1-2.3-1.2
					c-1.4-0.3-2.9-0.3-4.3-0.1c-0.9,0.2-1.8,0.6-2.5,1.2c-0.6,0.6-0.9,1.3-0.9,2.1c0,3,0,5.9,0,8.9c0,0.9,0.3,1.6,0.9,2.1
					c0.6,0.6,1.4,1,2.2,1.2c1.5,0.3,3,0.3,4.5,0.1c0.9-0.2,1.8-0.6,2.5-1.3c0.6-0.5,0.9-1.2,0.9-2c0-0.8,0-1.6,0-2.4
					C126.7,89.2,126.7,89.1,126.7,88.9z M92.1,84.9c0-0.7,0-1.4,0-2.1c0-0.8-0.3-1.4-0.8-1.9c-0.7-0.7-1.4-1.1-2.3-1.3
					c-1.4-0.3-2.8-0.3-4.2-0.1c-1,0.2-1.9,0.6-2.6,1.4c-0.5,0.5-0.8,1.1-0.8,1.9c0,0.7,0,1.3,0,2c0,0.6,0.2,1.1,0.6,1.5
					c0.3,0.2,0.6,0.5,0.9,0.7c1,0.6,2,1.2,2.9,1.8c0.4,0.2,0.8,0.5,1.2,0.8c0.2,0.2,0.4,0.4,0.4,0.7c0,0.6,0,1.2,0,1.8
					c0,0.2-0.1,0.4-0.3,0.4c-0.2,0-0.5,0.1-0.7,0.1c-0.4,0-0.5-0.2-0.5-0.6c0-0.7,0-1.3,0-2c0-0.1,0-0.3,0-0.4
					c-0.6-0.1-4.2-0.1-4.5,0c0,0.7,0,1.5,0,2.3c0,0.9,0.3,1.5,0.9,2.1c0.6,0.6,1.4,1,2.2,1.2c1.6,0.4,3.1,0.3,4.7,0
					c0.9-0.2,1.7-0.7,2.4-1.4c0.4-0.5,0.7-1.1,0.7-1.7c0-0.7,0-1.3,0-2c0-0.9-0.4-1.6-1.1-2.1c-0.1-0.1-0.3-0.2-0.4-0.3
					c-1-0.6-2-1.1-2.9-1.7c-0.4-0.2-0.7-0.4-1.1-0.7c-0.3-0.2-0.5-0.4-0.5-0.8c0-0.6,0-1.1,0-1.7c0-0.3,0.2-0.5,0.5-0.5
					c0.1,0,0.2,0,0.4,0c0.4,0,0.5,0.2,0.5,0.6c0,0.6,0,1.2,0,1.8c0,0.1,0,0.3,0,0.5C89.1,84.9,90.6,84.9,92.1,84.9z M105.5,94.9
					c0.5,0.1,8.8,0.1,9.1,0c0-0.9,0-1.7,0-2.6c-0.2,0-0.3,0-0.5,0c-1.1,0-2.2,0-3.3,0c-0.2,0-0.3,0-0.5,0c-0.1-0.8,0-3.3,0-3.7
					c0.3,0,0.7,0,1,0c0.3,0,0.7,0,1,0c0.3,0,0.7,0.1,1-0.1c0-0.7,0-1.5,0-2.2c-1.1,0-2.1,0-3.1,0c0-1.4,0-2.7,0-4.1
					c0.2,0,0.3,0,0.5,0c1.1,0,2.2,0,3.3,0c0.1,0,0.3,0,0.4,0c0-0.9,0-1.7,0-2.5c-0.4-0.1-8.7-0.1-9.1,0
					C105.5,84.7,105.5,89.8,105.5,94.9z M101.1,94.9c0-4.3,0-8.5,0-12.8c1,0,2,0,3,0c0.1-0.5,0.1-2.2,0-2.6
					c-0.4-0.1-10.5-0.1-10.8,0c-0.1,0.4-0.1,2.2,0,2.6c1,0,2,0,3,0c0,4.3,0,8.5,0,12.8C97.9,94.9,99.5,94.9,101.1,94.9z"/>
				<path class="st5" d="M134.2,87.3c0,1.5,0,3,0,4.5c0,0.5-0.1,0.6-0.6,0.7c-0.2,0-0.3,0-0.5,0c-0.5-0.1-0.6-0.2-0.6-0.7
					c0-3,0-6,0-9c0-0.5,0.1-0.6,0.6-0.7c0.1,0,0.2,0,0.2,0c0.7,0,0.8,0.1,0.8,0.9C134.2,84.4,134.2,85.9,134.2,87.3z"/>
			</g>
		</g>
	</g>
	<g>
		<path class="st6" d="M199.4,1051.3v-53.7h6.8l14.1,35.9v-35.9h6.5v53.7h-7l-13.9-35v35H199.4z"/>
		<path class="st6" d="M232.8,1024.8c0-5.5,0.5-10.1,1.6-13.8c0.8-2.7,1.9-5.2,3.2-7.4c1.4-2.2,2.8-3.8,4.5-4.8
			c2.2-1.4,4.6-2.1,7.4-2.1c5.1,0,9.2,2.5,12.2,7.4s4.6,11.7,4.6,20.5c0,8.7-1.5,15.4-4.5,20.3s-7.1,7.3-12.2,7.3
			c-5.1,0-9.2-2.4-12.3-7.3C234.3,1040,232.8,1033.3,232.8,1024.8z M240,1024.4c0,6.1,0.9,10.7,2.7,13.8c1.8,3.1,4.1,4.7,6.9,4.7
			s5.1-1.6,6.8-4.7c1.8-3.1,2.7-7.8,2.7-14c0-6.2-0.9-10.7-2.6-13.8c-1.7-3-4-4.5-6.9-4.5s-5.2,1.5-7,4.6
			C240.8,1013.6,240,1018.2,240,1024.4z"/>
		<path class="st6" d="M298.6,1051.3v-53.7h23.7v9.1h-16.7v12.7H320v9.1h-14.4v22.8H298.6z"/>
		<path class="st6" d="M327.8,1051.3v-53.7h7v53.7H327.8z"/>
		<path class="st6" d="M341.5,1051.3v-53.7h14.7c3.7,0,6.4,0.5,8,1.4c1.7,1,3,2.7,4,5.1s1.5,5.3,1.5,8.5c0,4-0.8,7.4-2.3,10
			c-1.5,2.6-3.8,4.3-6.8,5c1.5,1.4,2.8,2.9,3.7,4.5c1,1.6,2.3,4.5,4,8.7l4.2,10.5h-8.3l-5-11.7c-1.8-4.2-3-6.8-3.7-7.9
			c-0.7-1.1-1.4-1.8-2.1-2.2c-0.7-0.4-1.9-0.6-3.5-0.6h-1.4v22.4H341.5z M348.4,1020.3h5.2c3.3,0,5.4-0.2,6.3-0.7
			c0.8-0.4,1.5-1.2,2-2.3c0.5-1.1,0.7-2.4,0.7-4c0-1.8-0.3-3.3-0.9-4.4c-0.6-1.1-1.5-1.8-2.6-2.1c-0.6-0.1-2.3-0.2-5.1-0.2h-5.4
			V1020.3z"/>
		<path class="st6" d="M376.3,1051.3v-53.7h25.6v9.1h-18.6v11.9h17.3v9h-17.3v14.6h19.3v9H376.3z"/>
		<path class="st6" d="M435.1,1051.3v-53.7h7v53.7H435.1z"/>
		<path class="st6" d="M464.8,1031.5v-9h15v21.4c-1.5,2.2-3.6,4.1-6.4,5.8s-5.6,2.5-8.4,2.5c-3.6,0-6.8-1.2-9.5-3.5
			s-4.7-5.7-6.1-10.1c-1.4-4.4-2-9.1-2-14.3c0-5.6,0.8-10.6,2.3-14.9c1.5-4.3,3.7-7.7,6.6-10c2.2-1.8,5-2.7,8.3-2.7
			c4.3,0,7.6,1.4,10.1,4.2c2.4,2.8,4,6.7,4.7,11.6l-6.9,2c-0.5-2.6-1.4-4.7-2.7-6.2c-1.3-1.5-3-2.3-5-2.3c-3,0-5.5,1.5-7.3,4.5
			c-1.8,3-2.7,7.5-2.7,13.4c0,6.4,0.9,11.2,2.7,14.3c1.8,3.2,4.2,4.8,7.2,4.8c1.5,0,2.9-0.4,4.4-1.3c1.5-0.9,2.7-2,3.8-3.2v-6.8
			H464.8z"/>
		<path class="st6" d="M486.3,1051.3v-53.7h6.8l14.1,35.9v-35.9h6.5v53.7h-7l-13.9-35v35H486.3z"/>
		<path class="st6" d="M520.9,1051.3v-53.7h7v53.7H520.9z"/>
		<path class="st6" d="M542.3,1051.3v-44.6H532v-9.1h27.5v9.1h-10.2v44.6H542.3z"/>
		<path class="st6" d="M563.8,1051.3v-53.7h7v53.7H563.8z"/>
		<path class="st6" d="M576,1024.8c0-5.5,0.5-10.1,1.6-13.8c0.8-2.7,1.9-5.2,3.2-7.4c1.4-2.2,2.8-3.8,4.5-4.8
			c2.2-1.4,4.6-2.1,7.4-2.1c5.1,0,9.2,2.5,12.2,7.4s4.6,11.7,4.6,20.5c0,8.7-1.5,15.4-4.5,20.3c-3,4.9-7.1,7.3-12.2,7.3
			c-5.1,0-9.2-2.4-12.3-7.3C577.5,1040,576,1033.3,576,1024.8z M583.2,1024.4c0,6.1,0.9,10.7,2.7,13.8c1.8,3.1,4.1,4.7,6.9,4.7
			c2.8,0,5.1-1.6,6.8-4.7c1.8-3.1,2.7-7.8,2.7-14c0-6.2-0.9-10.7-2.6-13.8s-4-4.5-6.9-4.5s-5.2,1.5-7,4.6
			C584.1,1013.6,583.2,1018.2,583.2,1024.4z"/>
		<path class="st6" d="M615,1051.3v-53.7h6.8l14.1,35.9v-35.9h6.5v53.7h-7l-13.9-35v35H615z"/>
	</g>
	<g>
		<path class="st6" d="M303.5,934.1H296v-28.9c0-2.3-0.4-3.5-1.3-3.5c-0.6,0-1.6,1.1-2.8,3.3l-15.7,29.1h-7v-33.4
			c-0.8,0.2-1.5,0.3-2.1,0.3c-2.6,0-4.8-1-6.5-2.9c-1.8-2-2.7-4.3-2.7-7.1c0-2.7,0.9-5,2.7-6.9c1.8-1.9,3.9-2.9,6.5-2.9
			c2.7,0,5,1,6.8,3c1.8,2,2.7,4.5,2.7,7.5v19.4c0,2.3-0.5,6.8-1.5,13.8c0.8-3.7,2-7.1,3.6-10.3l6.6-12.3c1.5-2.6,2.7-4.1,3.9-4.4
			c-1.6-2.2-2.4-4.4-2.4-6.8c0-2.8,0.9-5.1,2.7-7c1.8-1.9,3.9-2.9,6.5-2.9c2.6,0,4.8,1,6.5,2.9c1.8,1.9,2.7,4.2,2.7,7
			c0,2.9-1.1,5.4-3.4,7.5c1,2.2,1.6,4.5,1.6,7V934.1z M271.2,891.1c0-1.2-0.4-2.3-1.2-3.1c-0.8-0.9-1.8-1.3-2.9-1.3
			c-1.1,0-2.1,0.4-2.9,1.3c-0.8,0.9-1.2,1.9-1.2,3.1c0,1.2,0.4,2.3,1.2,3.1c0.8,0.9,1.8,1.3,2.9,1.3c1.1,0,2.1-0.4,2.9-1.3
			C270.8,893.3,271.2,892.3,271.2,891.1z M300.2,891.1c0-1.2-0.4-2.3-1.2-3.1c-0.8-0.9-1.8-1.3-2.9-1.3c-1.1,0-2.1,0.4-2.9,1.3
			c-0.8,0.9-1.2,1.9-1.2,3.1c0,1.2,0.4,2.3,1.2,3.1c0.8,0.9,1.8,1.3,2.9,1.3c1.1,0,2.1-0.4,2.9-1.3
			C299.8,893.3,300.2,892.3,300.2,891.1z"/>
		<path class="st6" d="M310.8,851.3c-0.8,4.6-1.9,8.4-3.4,11.6s-3.3,5.6-5.6,7.5c-2.3,1.9-4.9,3.2-7.9,4c-3,0.8-6.5,1.2-10.5,1.2h-4
			v-5.2c1.6-0.1,3-0.7,4-1.8c1.1-1.1,1.8-2.3,2.2-3.4c-2-0.3-3.6-1.3-4.8-2.9c-1.2-1.6-1.8-3.5-1.8-5.7c0-2.3,0.8-4.3,2.4-5.8
			c1.6-1.6,3.4-2.3,5.5-2.3c2.4,0,4.3,0.8,5.7,2.5c1.4,1.6,2.1,3.7,2.1,6.2c0,2.5-0.6,4.9-1.7,7.3c-1.1,2.3-2.3,4.2-3.5,5.5
			c4-0.8,7.3-2.9,9.8-6.3c2.5-3.4,3.9-7.5,4-12.2H310.8z M290.2,856.8c0-1-0.3-1.8-0.9-2.4c-0.6-0.7-1.3-1-2.2-1
			c-0.9,0-1.6,0.3-2.2,1c-0.6,0.6-0.8,1.5-0.8,2.4c0,1,0.3,1.8,0.8,2.4c0.6,0.7,1.3,1,2.2,1c0.9,0,1.6-0.3,2.2-1
			C289.9,858.5,290.2,857.7,290.2,856.8z"/>
		<path class="st6" d="M344.1,934.1h-7.5v-37.7c0-2.4-0.8-4.4-2.3-5.9c-1.5-1.5-3.6-2.3-6.3-2.3c-2.7,0-4.8,0.9-6.5,2.8
			c-1.7,1.9-2.6,4.3-2.7,7.2h-7.3c0.2-5.2,1.8-9.3,4.8-12.4c2.9-3.1,6.8-4.6,11.7-4.6c4.5,0,8.3,1.2,11.4,3.7
			c3.1,2.5,4.7,6.2,4.7,11.2V934.1z"/>
		<path class="st6" d="M394.5,934.1H387c-4.7-4.5-9.4-7.7-14.1-9.5v0.7c0,2.8-1,5.1-3,7c-2,1.9-4.2,2.9-6.7,2.9c-2.7,0-5-1-6.9-3.1
			s-2.9-4.5-2.9-7.4c0-2.9,1-5.3,2.9-7.3c1.9-2,4.2-3.1,6.9-3.1h0.8v-13.5c-0.8,0.2-1.5,0.3-2.1,0.3c-2.6,0-4.8-1-6.5-2.9
			c-1.8-2-2.7-4.3-2.7-7.1c0-2.7,0.9-5,2.7-6.9c1.8-1.9,3.9-2.9,6.5-2.9c2.7,0,5,1,6.8,3c1.8,2,2.7,4.5,2.7,7.5v24.7
			c6.4,2.3,11.5,5.4,15.5,9.2v-43.4h7.5V934.1z M366.1,891.1c0-1.2-0.4-2.3-1.2-3.1c-0.8-0.9-1.8-1.3-2.9-1.3
			c-1.1,0-2.1,0.4-2.9,1.3c-0.8,0.9-1.2,1.9-1.2,3.1c0,1.2,0.4,2.3,1.2,3.1c0.8,0.9,1.8,1.3,2.9,1.3c1.1,0,2.1-0.4,2.9-1.3
			C365.7,893.3,366.1,892.3,366.1,891.1z M367.3,924.6c0-1.2-0.4-2.3-1.2-3.1c-0.8-0.9-1.8-1.3-2.9-1.3c-1.1,0-2.1,0.4-2.9,1.3
			c-0.8,0.9-1.2,1.9-1.2,3.1c0,1.2,0.4,2.3,1.2,3.1c0.8,0.9,1.8,1.3,2.9,1.3c1.1,0,2.1-0.4,2.9-1.3
			C366.9,926.9,367.3,925.8,367.3,924.6z"/>
		<path class="st6" d="M441.6,925c0,3.2-1,5.7-2.9,7.5s-4.4,2.7-7.5,2.7c-5.9,0-9.3-2.8-10.3-8.5l-1.8-10.3c-0.9,0.3-1.9,0.5-3,0.5
			c-2.3,0-4.4-0.9-6-2.7c-1.7-1.8-2.5-4-2.5-6.5c0-2.5,0.8-4.7,2.5-6.5c1.7-1.8,3.7-2.7,6-2.7c2.1,0,3.9,0.7,5.6,2.1
			c1.6,1.4,2.6,3.2,3,5.4l3.4,19.8c0.2,1.6,1.2,2.3,3,2.3c2,0,3-0.9,3-2.6v-29.1c0-2.8-1.3-5-3.7-6.5c-2.1-1.2-4.7-1.8-7.7-1.8
			c-6.9,0-11.1,2.1-12.4,6.2h-7.3c1-8.8,7.4-13.2,19.1-13.3c5.4,0,9.8,1.1,13.3,3.3c4.2,2.8,6.3,6.9,6.3,12.5V925z M419.8,907.7
			c0-1.1-0.4-2.1-1.1-2.9c-0.7-0.8-1.6-1.2-2.7-1.2c-1,0-1.9,0.4-2.7,1.2c-0.7,0.8-1.1,1.7-1.1,2.9c0,1.1,0.4,2.1,1.1,2.9
			c0.7,0.8,1.6,1.2,2.7,1.2c1,0,1.9-0.4,2.7-1.2C419.5,909.8,419.8,908.9,419.8,907.7z"/>
		<path class="st6" d="M441.6,964.7h-7.3v-9.9h-0.5c-2,0-3.7-0.8-5.1-2.3c-1.4-1.5-2.1-3.3-2.1-5.4c0-2.2,0.7-4,2.1-5.6
			c1.4-1.6,3.2-2.3,5.3-2.3c2,0,3.8,0.7,5.3,2.1c1.5,1.4,2.3,3.3,2.3,5.7V964.7z M437.4,946.7c0-1-0.3-1.8-1-2.5
			c-0.6-0.7-1.4-1-2.3-1c-0.9,0-1.7,0.3-2.4,1c-0.7,0.7-1,1.5-1,2.5c0,1,0.3,1.8,1,2.5c0.7,0.7,1.5,1.1,2.4,1.1
			c0.9,0,1.7-0.4,2.3-1.1C437,948.5,437.4,947.7,437.4,946.7z"/>
		<path class="st6" d="M490.5,934.1H483v-34.7c0-3.3-1.1-6-3.4-8c-2.3-2.1-5-3.1-8.1-3.1c-3.4,0-6.3,1.2-8.8,3.7
			c-2.5,2.5-3.7,5.4-3.7,8.9c0,2.2,0.7,5.2,2,9.2c1.3,4,2,6.9,2,8.9c0,0.6-0.1,1.4-0.2,2.5c2.3-4.1,4.9-7.5,7.7-10.3
			c-2.3-0.2-4-1.1-5.3-2.9c-1.2-1.5-1.8-3.3-1.8-5.5c0-2.3,0.8-4.2,2.4-5.9c1.6-1.7,3.4-2.5,5.6-2.5c2.2,0,4,0.8,5.6,2.5
			c1.5,1.7,2.3,3.7,2.3,5.9c0,3.9-1.8,8.2-5.3,13c-4.9,6.5-7.6,10.4-8.3,11.7c-1.2,2.3-1.8,4.5-1.8,6.6h-7.6
			c0.1-3.2,0.1-6.2,0.1-8.8c0-4.7-0.5-8.3-1.5-10.8c-0.7-2.3-1.5-4.6-2.2-7c-0.7-2.4-1.1-4.5-1.1-6.3c0-5.9,1.9-10.7,5.7-14.4
			c3.8-3.7,8.5-5.6,14-5.6c5.6,0,10.1,1.6,13.7,4.7c3.8,3.4,5.7,8,5.7,13.9V934.1z M474.9,902.8c0-1.1-0.3-2.1-1-2.8
			c-0.7-0.7-1.6-1.1-2.6-1.1c-1,0-1.9,0.4-2.6,1.1c-0.7,0.7-1,1.7-1,2.8c0,1.1,0.3,2.1,1,2.8c0.7,0.7,1.5,1.1,2.6,1.1
			c1,0,1.9-0.4,2.6-1.1C474.6,904.8,474.9,903.9,474.9,902.8z"/>
		<path class="st6" d="M526.7,925.3c0,2.8-0.9,5.1-2.7,7s-4,2.9-6.5,2.9c-2.7,0-5-1-6.9-3c-1.9-2-2.8-4.5-2.8-7.5v-64.2l-7.3,11.4
			l-4.8-1.6c-0.3-8.1-1.4-15.7-3.4-22.8h6.5c1,6.8,1.5,12,1.6,15.5l8.6-14.4c1.6,0.3,3.1,1.1,4.4,2.5c1.3,1.4,1.9,3,1.9,4.9v59.7
			c0.4-0.2,1.1-0.3,2.2-0.3c2.5,0,4.7,1,6.5,2.9C525.8,920.2,526.7,922.5,526.7,925.3z M521.6,925.3c0-1.2-0.4-2.3-1.2-3.1
			c-0.8-0.9-1.8-1.3-2.9-1.3c-1.1,0-2.1,0.4-2.9,1.3c-0.8,0.9-1.2,1.9-1.2,3.1c0,1.2,0.4,2.3,1.2,3.1c0.8,0.9,1.8,1.3,2.9,1.3
			c1.1,0,2.1-0.4,2.9-1.3C521.2,927.5,521.6,926.5,521.6,925.3z"/>
		<path class="st6" d="M579.2,934.1h-8.5l-11.4-40.3l-11.7,40.3h-8.1v-33.4c-0.8,0.2-1.5,0.3-2.1,0.3c-2.6,0-4.8-1-6.5-2.9
			c-1.8-2-2.7-4.3-2.7-7.1c0-2.7,0.9-5,2.7-6.9c1.8-1.9,3.9-2.9,6.5-2.9c2.7,0,5,1,6.8,3c1.8,2,2.7,4.5,2.7,7.5v19.4
			c0,2.3-0.5,6.8-1.5,13.8c1.8-7.9,2.8-12.1,3-12.7l8.5-27.7h4.6l8.5,27.7c0.2,0.5,1.2,4.8,3,12.7c-1-6.9-1.4-11.5-1.4-13.8v-49.7
			h7.5V934.1z M541.6,891.1c0-1.2-0.4-2.3-1.2-3.1c-0.8-0.9-1.8-1.3-2.9-1.3c-1.1,0-2.1,0.4-2.9,1.3c-0.8,0.9-1.2,1.9-1.2,3.1
			c0,1.2,0.4,2.3,1.2,3.1c0.8,0.9,1.8,1.3,2.9,1.3c1.1,0,2.1-0.4,2.9-1.3C541.2,893.3,541.6,892.3,541.6,891.1z"/>
	</g>
	<g>
		<g>
			<path class="st7" d="M368.6,297.8c-2.6-8.7-7.2-21.4-15.1-41.2c-1.1,4.3-3.1,12.2-4.8,21.4L368.6,297.8"/>
			<path class="st7" d="M518.1,447.3C567.7,392.6,624,330.5,624,330.5l-0.8-35.5l-31-3.3L478.3,407.5L518.1,447.3"/>
			<path class="st7" d="M427.9,458.7l-24.6,25c0,0-8.2,10.6-11.4,21.2c-3.3,10.6-13.1,28.6-17.2,31.9c-1.6-4.1-23.7-30.2,4.9-85
				c5.9-11.3,8.2-22.2,8.9-32.5L254.1,284.8c-1.3,1.9-2.5,3.6-3.7,5.6c-2.9-2.8-0.9-3.5-6.1-4.3c-16.4,27.4,0.2,107.2,7.6,121.5
				c5.5,10.8,3.5,17.4,1.6,19.2c-2.9,2.9-14.3,2-18.8-4.5c0,13.7,13.1,54.5,46.6,73.1c7.4,4.1,5.3,4.5,5.7,6.9
				c1.1,6.4,9.7,13.6,25.7,21.2c7.8,3.7,27,8.2,29.4,8.6c2.4,0.4,9.8,3.7,10.2,13.9c0.4,10.2-9.8,14.3-14.7,15.9
				c-8.2,2.7-19.6,12.5-19.6,27.4c0,13.8,10.1,28.6,29.4,28.6c20,0,28.8-20.3,30.2-32.7c1.4-12.3,15.2-35.7,36-40.9
				c9.6-2.4,23.7-9,30.6-15.9c0.7-0.8,10.8-11.8,25.6-28L427.9,458.7"/>
			<path class="st7" d="M322.9,252c0.6-14,5.2-27.7,16.8-38.8c-7.1,1.4-18.8-2-39.8,15.8L322.9,252"/>
			<path class="st9" d="M344.1,511.9c0,0,2.9-16.8,7.4-22.1c4.5-5.3,7.8-27.8,8.2-33.9c0.4-6.1,1.6-18,2.9-21.7
				c1.2-3.7,2.9-21.7-14.7-45.3c-0.8,4.1-4.1,19.6-12.7,27.8c0-6.1,1.2-35.5-11.4-48.2c-12.7-12.7-18.4-13.9-21.7-15.1
				c-3.3-1.2-14.7-6.5-15.5-11c-2.9,3.3-6.9,5.7-5.7,19.2c1.2,13.5,6.9,51.1,11,59.2c4.1,8.2,6.5,23.3,5.3,28.2
				c-1.2,4.9-5.7,5.7-9,4.9c-3.3-0.8-9.4-2.9-12.7-2c-1.2,5.3,0,13.1,3.3,16.3c3.3,3.3,13.1,14.3,20,16.3c6.9,2,7.4,1.6,9,5.3
				c1.6,3.7,1.6,4.8,5.7,7.8C322,503.8,335.7,509.8,344.1,511.9"/>
			<path class="st9" d="M494,423.1c53.5-56.3,110.8-116.7,110.8-116.7s-8.2-7.4-13.9-2c-3.1,2.9-57.4,58.8-106.4,109.3L494,423.1"/>
			<path class="st9" d="M434.4,465.2c-17.2,17.7-28.6,29.5-28.6,29.5s-7,8.7-2.5,23.3c1.4-1.3,17.9-18.6,41-42.8L434.4,465.2"/>
			<path class="st9" d="M511.7,440.9c48.5-51.9,101.3-108.5,104.1-112c5.3-6.5-0.4-18-0.4-18S555,374.7,501.8,431L511.7,440.9"/>
			<path class="st9" d="M452.4,483.2c-16.7,17.7-28.4,30-29.8,31.5c-6.1,6.5-6.1,16.8-5.7,18c5.7,1.2,13.5-4.9,13.5-4.9
				s13.2-14.1,32.2-34.4L452.4,483.2"/>
		</g>
		<path class="st8" d="M432.4,748c-7.2,0-14.3,0-21.5,0c-0.9-0.1-1.8-0.3-2.7-0.4c-5.4-0.4-10.8-0.6-16.2-1
			c-16.7-1.3-33.2-3.9-49.5-7.7c-66.7-15.8-124-48.2-171.5-97.7c-43.7-45.5-72.8-99.1-87.5-160.4c-3.9-16.2-6.6-32.6-7.9-49.2
			c-0.6-7.9-1-15.8-1.5-23.7c0-0.7-0.3-1.4-0.4-2.2c0-3,0-6,0-9c0.2-0.6,0.4-1.3,0.4-1.9c0.3-5.8,0.6-11.6,1-17.4
			c0.9-15.1,3-30.1,6-45c7.1-35.7,19.5-69.5,37.4-101.1c35.8-63.1,86.3-110.7,151.4-142.6c46.5-22.8,95.8-34.2,147.7-34.8
			c0.8,0,1.6-0.2,2.4-0.4c0.7,0,1.3,0,2,0c0.8,0.1,1.6,0.4,2.4,0.4c14.9,0.1,29.8,1.2,44.5,3.3c22.4,3.1,44.3,8.3,65.7,15.6
			c95,32.7,171.8,105.9,209.1,199.5c14.6,36.7,23.1,74.8,24.2,114.4c0,0.7,0.3,1.4,0.4,2.1c0,7.8,0,15.7,0,23.5
			c-0.1,0.8-0.4,1.6-0.4,2.4c-0.1,10.6-1.2,21.1-2.5,31.6c-2.8,21.6-7.6,42.7-14.4,63.4c-17.7,53.5-46.7,99.9-87,139.3
			c-37.7,36.9-81.7,63.8-131.7,80.8c-20,6.8-40.4,11.6-61.3,14.6c-12,1.7-24,2.9-36,3.2C434,747.6,433.2,747.9,432.4,748z
			 M201.8,231.1c-82.6,104.5-81,267,28.2,370.8c108.6,103.2,265.5,95,360.9,18.4C461.3,490.6,331.6,360.9,201.8,231.1z M251.6,181.4
			c129.7,129.7,259.4,259.5,389.1,389.2c80.7-101.5,82.5-262.9-25.9-368.5C507.8,97.8,349.6,103.1,251.6,181.4z"/>
	</g>
</g>
</svg>
