<?xml version="1.0" encoding="utf-8"?>
<!-- Generator: Adobe Illustrator 22.0.0, SVG Export Plug-In . SVG Version: 6.00 Build 0)  -->
<svg version="1.1" id="Layer_1" xmlns="http://www.w3.org/2000/svg" xmlns:xlink="http://www.w3.org/1999/xlink" x="0px" y="0px"
	 viewBox="0 0 841.9 1190.6" style="enable-background:new 0 0 841.9 1190.6;" xml:space="preserve">
<style type="text/css">
	.st0{fill:none;}
	.st1{fill:#010101;}
	.st2{fill:#FFFFFF;}
	.st3{fill:#EB2227;}
	.st4{fill:#EB2627;}
	.st5{fill:#2A3B8F;}
	.st6{fill:#FFFFFF;stroke:#FFFFFF;stroke-miterlimit:10;}
	.st7{fill-rule:evenodd;clip-rule:evenodd;}
	.st8{fill:#EC2727;}
	.st9{fill-rule:evenodd;clip-rule:evenodd;fill:#FFFFFF;}
	.st10{fill-rule:evenodd;clip-rule:evenodd;fill:#EC2C2C;}
	.st11{fill-rule:evenodd;clip-rule:evenodd;fill:#010101;}
	.st12{fill-rule:evenodd;clip-rule:evenodd;fill:#AFAFB0;}
	.st13{fill-rule:evenodd;clip-rule:evenodd;fill:#302F2F;}
	.st14{fill:#040505;}
</style>
<g>
	<g>
		<rect x="0" y="0" class="st0" width="841.9" height="1190.6"/>
		<rect x="28.3" y="28.3" class="st1" width="785.2" height="1133.9"/>
		<rect x="34" y="34" class="st2" width="773.9" height="1122.5"/>
		<rect x="52.5" y="792.6" class="st3" width="737" height="348.7"/>
		<g id="stecon_79_">
			<path id="red_79_" class="st4" d="M52.8,53.5c42.5,0,85,0,127.6,0c0,22.6,0,45.1,0,67.7c-42.5,0-85,0-127.5,0c0-0.2,0-0.5,0-0.7
				c0-22.1,0-44.2,0-66.3C52.9,54,52.8,53.8,52.8,53.5z M55.8,87.4c0.2,0.1,0.4,0.2,0.5,0.3c3.6,1.8,7.1,3.7,10.7,5.5
				c16.4,8.4,32.7,16.8,49.1,25.2c0.4,0.2,0.7,0.2,1.1,0c13.8-7.1,27.6-14.2,41.4-21.3c6.1-3.2,12.3-6.3,18.4-9.5
				c0.1-0.1,0.3-0.2,0.5-0.3c-0.2-0.1-0.3-0.2-0.5-0.3c-3.8-1.9-7.6-3.9-11.4-5.8c-16.2-8.3-32.4-16.7-48.5-25
				c-0.3-0.2-0.5-0.2-0.9,0c-7,3.6-14.1,7.3-21.1,10.9c-12.6,6.5-25.2,12.9-37.7,19.4C56.9,86.8,56.4,87.1,55.8,87.4z"/>
			<g id="white_79_">
				<path class="st2" d="M55.8,87.4c0.6-0.3,1.1-0.6,1.6-0.8c12.6-6.5,25.2-12.9,37.7-19.4c7-3.6,14.1-7.2,21.1-10.9
					c0.3-0.2,0.6-0.1,0.9,0c16.2,8.3,32.4,16.7,48.5,25c3.8,1.9,7.6,3.9,11.4,5.8c0.1,0.1,0.3,0.1,0.5,0.3c-0.2,0.1-0.3,0.2-0.5,0.3
					c-6.1,3.2-12.3,6.3-18.4,9.5c-13.8,7.1-27.6,14.2-41.4,21.3c-0.4,0.2-0.7,0.2-1.1,0C99.7,110,83.4,101.6,67,93.1
					c-3.6-1.8-7.1-3.7-10.7-5.5C56.2,87.6,56,87.5,55.8,87.4z M59.7,87.4c0.2,0.1,0.3,0.2,0.4,0.2c1,0.5,1.9,1,2.9,1.5
					c17.7,9.1,35.5,18.2,53.2,27.3c0.3,0.1,0.5,0.2,0.8,0c12.9-6.6,25.7-13.2,38.6-19.8c5.8-3,11.6-6,17.5-9
					c0.1-0.1,0.3-0.2,0.5-0.3c-0.2-0.1-0.4-0.2-0.6-0.3c-15.9-8.2-31.9-16.4-47.8-24.5c-2.7-1.4-5.5-2.8-8.2-4.2
					c-0.2-0.1-0.4-0.1-0.7,0c-0.3,0.2-0.7,0.4-1.1,0.6C97,68.3,78.6,77.6,60.3,87C60.1,87.1,60,87.2,59.7,87.4z"/>
				<path class="st2" d="M147.4,79.5c1.4,0,2.7,0,4.1,0c0,5.2,0,10.3,0,15.4c-1.4,0-2.8,0-4.2,0c-0.9-2.6-1.8-5.3-2.7-7.9
					c0,0-0.1,0-0.1,0c0,2.6,0,5.2,0,7.9c-1.4,0-2.7,0-4,0c0,0,0,0,0,0c0,0,0,0,0,0c0-0.1,0-0.2,0-0.3c0-4.9,0-9.9,0-14.8
					c0,0,0-0.1,0-0.2c0.1,0,0.3,0,0.4,0c1.2,0,2.3,0,3.5,0c0.4,0,0.4,0,0.5,0.4c0.8,2.5,1.6,5,2.4,7.5c0,0.1,0.1,0.2,0.2,0.4
					C147.4,85,147.4,82.3,147.4,79.5z"/>
				<path class="st2" d="M138.8,87.3c0,1.5,0,3,0,4.5c0,0.8-0.3,1.4-0.8,1.9c-0.7,0.7-1.6,1.2-2.6,1.3c-1.5,0.3-3.1,0.3-4.6-0.1
					c-0.9-0.2-1.6-0.6-2.3-1.3c-0.5-0.5-0.8-1.1-0.8-1.9c0-3,0-6.1,0-9.1c0-0.7,0.2-1.3,0.7-1.8c0.6-0.7,1.4-1.2,2.3-1.4
					c1.7-0.4,3.5-0.4,5.2,0.1c0.7,0.2,1.4,0.6,2,1.2c0.6,0.5,0.9,1.2,0.8,2C138.8,84.3,138.8,85.8,138.8,87.3z M134.2,87.3
					c0-1.5,0-2.9,0-4.4c0-0.7-0.1-0.9-0.8-0.9c-0.1,0-0.2,0-0.2,0c-0.5,0.1-0.6,0.2-0.6,0.7c0,3,0,6,0,9c0,0.5,0.1,0.7,0.6,0.7
					c0.2,0,0.3,0,0.5,0c0.5-0.1,0.6-0.2,0.6-0.7C134.2,90.3,134.2,88.8,134.2,87.3z"/>
				<path class="st2" d="M126.7,88.9c0,0.2,0,0.3,0,0.5c0,0.8,0,1.6,0,2.4c0,0.8-0.3,1.5-0.9,2c-0.7,0.7-1.5,1.1-2.5,1.3
					c-1.5,0.3-3,0.3-4.5-0.1c-0.8-0.2-1.5-0.6-2.2-1.2c-0.6-0.6-0.9-1.2-0.9-2.1c0-3,0-5.9,0-8.9c0-0.9,0.3-1.6,0.9-2.1
					c0.7-0.7,1.6-1.1,2.5-1.2c1.4-0.2,2.9-0.2,4.3,0.1c0.9,0.2,1.6,0.6,2.3,1.2c0.6,0.6,0.9,1.2,0.9,2.1c0,0.8,0,1.7,0,2.5
					c0,0.2,0,0.3,0,0.5c-1.6,0-3.1,0-4.6,0c0-0.2,0-0.3,0-0.5c0-0.9,0-1.7,0-2.6c0-0.5-0.1-0.6-0.6-0.7c-0.1,0-0.2,0-0.3,0
					c-0.7,0.1-0.7,0.3-0.7,0.8c0,2.9,0,5.9,0,8.8c0,0.1,0,0.2,0,0.3c0,0.2,0.1,0.4,0.3,0.4c0.1,0,0.3,0.1,0.4,0.1
					c0.6,0.1,0.8-0.2,0.8-0.8c0-0.8,0-1.5,0-2.3c0-0.2,0-0.3,0-0.5C122.4,88.8,126,88.8,126.7,88.9z"/>
				<path class="st2" d="M105.5,94.9c0-5.1,0-10.2,0-15.3c0.4-0.1,8.7-0.1,9.1,0c0,0.8,0,1.6,0,2.5c-0.1,0-0.3,0-0.4,0
					c-1.1,0-2.2,0-3.3,0c-0.1,0-0.3,0-0.5,0c0,1.4,0,2.7,0,4.1c1,0,2.1,0,3.1,0c0,0.8,0,1.5,0,2.2c-0.4,0.1-0.7,0.1-1,0.1
					c-0.3,0-0.7,0-1,0c-0.3,0-0.7,0-1,0c-0.1,0.3-0.1,2.8,0,3.7c0.1,0,0.3,0,0.5,0c1.1,0,2.2,0,3.3,0c0.2,0,0.3,0,0.5,0
					c0,0.9,0,1.8,0,2.6C114.3,95,106,95,105.5,94.9z"/>
				<path class="st2" d="M101.1,94.9c-1.6,0-3.1,0-4.7,0c0-4.3,0-8.5,0-12.8c-1,0-2,0-3,0c-0.1-0.4-0.1-2.1,0-2.6
					c0.3-0.1,10.4-0.1,10.8,0c0.1,0.3,0.1,2.1,0,2.6c-1,0-2,0-3,0C101.1,86.4,101.1,90.6,101.1,94.9z"/>
				<path class="st2" d="M92.1,84.9c-1.6,0-3.1,0-4.6,0c0-0.2,0-0.3,0-0.5c0-0.6,0-1.2,0-1.8c0-0.4-0.1-0.6-0.5-0.6
					c-0.1,0-0.2,0-0.4,0c-0.3,0-0.5,0.2-0.5,0.5c0,0.6,0,1.1,0,1.7c0,0.4,0.2,0.6,0.5,0.8c0.4,0.2,0.7,0.4,1.1,0.7
					c1,0.6,2,1.1,2.9,1.7c0.1,0.1,0.3,0.2,0.4,0.3c0.7,0.5,1.1,1.2,1.1,2.1c0,0.7,0,1.3,0,2c0,0.7-0.2,1.3-0.7,1.7
					c-0.7,0.7-1.5,1.2-2.4,1.4c-1.5,0.4-3.1,0.4-4.7,0c-0.8-0.2-1.6-0.6-2.2-1.2c-0.6-0.5-0.9-1.2-0.9-2.1c0-0.8,0-1.5,0-2.3
					c0.3-0.1,3.9-0.1,4.5,0c0,0.1,0,0.3,0,0.4c0,0.7,0,1.3,0,2c0,0.4,0.1,0.6,0.5,0.6c0.2,0,0.5,0,0.7-0.1c0.2,0,0.3-0.2,0.3-0.4
					c0-0.6,0-1.2,0-1.8c0-0.3-0.2-0.6-0.4-0.7c-0.4-0.3-0.8-0.5-1.2-0.8c-1-0.6-2-1.2-2.9-1.8c-0.3-0.2-0.6-0.4-0.9-0.7
					c-0.4-0.4-0.6-0.9-0.6-1.5c0-0.7,0-1.3,0-2c0-0.8,0.3-1.4,0.8-1.9c0.7-0.7,1.6-1.2,2.6-1.4c1.4-0.3,2.8-0.3,4.2,0.1
					c0.9,0.2,1.7,0.7,2.3,1.3c0.5,0.5,0.8,1.1,0.8,1.9C92.1,83.5,92.1,84.2,92.1,84.9z"/>
			</g>
			<g id="blue_79_">
				<path class="st5" d="M59.7,87.4c0.3-0.1,0.5-0.2,0.7-0.3c18.3-9.4,36.6-18.8,54.9-28.1c0.4-0.2,0.7-0.4,1.1-0.6
					c0.2-0.1,0.4-0.1,0.7,0c2.7,1.4,5.4,2.8,8.2,4.2c15.9,8.2,31.9,16.4,47.8,24.5c0.2,0.1,0.3,0.2,0.6,0.3
					c-0.2,0.1-0.3,0.2-0.5,0.3c-5.8,3-11.6,6-17.5,9c-12.9,6.6-25.7,13.2-38.6,19.8c-0.3,0.1-0.5,0.1-0.8,0
					C98.5,107.3,80.8,98.2,63,89.1c-1-0.5-1.9-1-2.9-1.5C60,87.5,59.9,87.5,59.7,87.4z M147.4,79.5c0,2.8,0,5.5,0,8.3
					c-0.1-0.1-0.1-0.2-0.2-0.4c-0.8-2.5-1.6-5-2.4-7.5c-0.1-0.4-0.1-0.4-0.5-0.4c-1.2,0-2.3,0-3.5,0c-0.1,0-0.3,0-0.4,0
					c0,0.1,0,0.1,0,0.2c0,4.9,0,9.9,0,14.8c0,0.1,0,0.2,0,0.3c0,0,0,0,0,0c0,0,0,0,0,0c1.3,0,2.7,0,4,0c0-2.7,0-5.3,0-7.9
					c0,0,0.1,0,0.1,0c0.9,2.6,1.8,5.3,2.7,7.9c1.4,0,2.8,0,4.2,0c0-5.1,0-10.2,0-15.4C150.2,79.5,148.8,79.5,147.4,79.5z
					 M138.8,87.3c0-1.5,0-3,0-4.5c0-0.8-0.3-1.5-0.8-2c-0.6-0.6-1.2-1-2-1.2c-1.7-0.5-3.5-0.5-5.2-0.1c-0.9,0.2-1.7,0.7-2.3,1.4
					c-0.4,0.5-0.7,1.1-0.7,1.8c0,3,0,6.1,0,9.1c0,0.8,0.3,1.4,0.8,1.9c0.6,0.7,1.4,1.1,2.3,1.3c1.5,0.3,3.1,0.3,4.6,0.1
					c1-0.2,1.8-0.6,2.6-1.3c0.5-0.5,0.8-1.2,0.8-1.9C138.8,90.3,138.8,88.8,138.8,87.3z M126.7,88.9c-0.6-0.1-4.3-0.1-4.7,0
					c0,0.1,0,0.3,0,0.5c0,0.8,0,1.5,0,2.3c0,0.7-0.2,0.9-0.8,0.8c-0.1,0-0.3,0-0.4-0.1c-0.2-0.1-0.3-0.2-0.3-0.4c0-0.1,0-0.2,0-0.3
					c0-2.9,0-5.9,0-8.8c0-0.5,0-0.7,0.7-0.8c0.1,0,0.2,0,0.3,0c0.5,0.1,0.6,0.2,0.6,0.7c0,0.9,0,1.7,0,2.6c0,0.2,0,0.3,0,0.5
					c1.6,0,3.1,0,4.6,0c0-0.2,0-0.4,0-0.5c0-0.8,0-1.7,0-2.5c0-0.9-0.3-1.5-0.9-2.1c-0.7-0.6-1.4-1-2.3-1.2
					c-1.4-0.3-2.9-0.3-4.3-0.1c-0.9,0.2-1.8,0.6-2.5,1.2c-0.6,0.6-0.9,1.3-0.9,2.1c0,3,0,5.9,0,8.9c0,0.9,0.3,1.6,0.9,2.1
					c0.6,0.6,1.4,1,2.2,1.2c1.5,0.3,3,0.3,4.5,0.1c0.9-0.2,1.8-0.6,2.5-1.3c0.6-0.5,0.9-1.2,0.9-2c0-0.8,0-1.6,0-2.4
					C126.7,89.2,126.7,89.1,126.7,88.9z M92.1,84.9c0-0.7,0-1.4,0-2.1c0-0.8-0.3-1.4-0.8-1.9c-0.7-0.7-1.4-1.1-2.3-1.3
					c-1.4-0.3-2.8-0.3-4.2-0.1c-1,0.2-1.9,0.6-2.6,1.4c-0.5,0.5-0.8,1.1-0.8,1.9c0,0.7,0,1.3,0,2c0,0.6,0.2,1.1,0.6,1.5
					c0.3,0.2,0.6,0.5,0.9,0.7c1,0.6,2,1.2,2.9,1.8c0.4,0.2,0.8,0.5,1.2,0.8c0.2,0.2,0.4,0.4,0.4,0.7c0,0.6,0,1.2,0,1.8
					c0,0.2-0.1,0.4-0.3,0.4c-0.2,0-0.5,0.1-0.7,0.1c-0.4,0-0.5-0.2-0.5-0.6c0-0.7,0-1.3,0-2c0-0.1,0-0.3,0-0.4
					c-0.6-0.1-4.2-0.1-4.5,0c0,0.7,0,1.5,0,2.3c0,0.9,0.3,1.5,0.9,2.1c0.6,0.6,1.4,1,2.2,1.2c1.6,0.4,3.1,0.3,4.7,0
					c0.9-0.2,1.7-0.7,2.4-1.4c0.4-0.5,0.7-1.1,0.7-1.7c0-0.7,0-1.3,0-2c0-0.9-0.4-1.6-1.1-2.1c-0.1-0.1-0.3-0.2-0.4-0.3
					c-1-0.6-2-1.1-2.9-1.7c-0.4-0.2-0.7-0.4-1.1-0.7c-0.3-0.2-0.5-0.4-0.5-0.8c0-0.6,0-1.1,0-1.7c0-0.3,0.2-0.5,0.5-0.5
					c0.1,0,0.2,0,0.4,0c0.4,0,0.5,0.2,0.5,0.6c0,0.6,0,1.2,0,1.8c0,0.1,0,0.3,0,0.5C89.1,84.9,90.6,84.9,92.1,84.9z M105.5,94.9
					c0.5,0.1,8.8,0.1,9.1,0c0-0.9,0-1.7,0-2.6c-0.2,0-0.3,0-0.5,0c-1.1,0-2.2,0-3.3,0c-0.2,0-0.3,0-0.5,0c-0.1-0.8,0-3.3,0-3.7
					c0.3,0,0.7,0,1,0c0.3,0,0.7,0,1,0c0.3,0,0.7,0.1,1-0.1c0-0.7,0-1.5,0-2.2c-1.1,0-2.1,0-3.1,0c0-1.4,0-2.7,0-4.1
					c0.2,0,0.3,0,0.5,0c1.1,0,2.2,0,3.3,0c0.1,0,0.3,0,0.4,0c0-0.9,0-1.7,0-2.5c-0.4-0.1-8.7-0.1-9.1,0
					C105.5,84.7,105.5,89.8,105.5,94.9z M101.1,94.9c0-4.3,0-8.5,0-12.8c1,0,2,0,3,0c0.1-0.5,0.1-2.2,0-2.6
					c-0.4-0.1-10.5-0.1-10.8,0c-0.1,0.4-0.1,2.2,0,2.6c1,0,2,0,3,0c0,4.3,0,8.5,0,12.8C97.9,94.9,99.5,94.9,101.1,94.9z"/>
				<path class="st5" d="M134.2,87.3c0,1.5,0,3,0,4.5c0,0.5-0.1,0.6-0.6,0.7c-0.2,0-0.3,0-0.5,0c-0.5-0.1-0.6-0.2-0.6-0.7
					c0-3,0-6,0-9c0-0.5,0.1-0.6,0.6-0.7c0.1,0,0.2,0,0.2,0c0.7,0,0.8,0.1,0.8,0.9C134.2,84.4,134.2,85.9,134.2,87.3z"/>
			</g>
		</g>
	</g>
	<g>
		<path class="st6" d="M269,1051.3v-53.7h7.9l16.5,35.9v-35.9h7.6v53.7h-8.2l-16.2-35v35H269z"/>
		<path class="st6" d="M307.9,1024.8c0-5.5,0.6-10.1,1.8-13.8c0.9-2.7,2.2-5.2,3.7-7.4c1.6-2.2,3.3-3.8,5.2-4.8
			c2.5-1.4,5.4-2.1,8.7-2.1c5.9,0,10.7,2.5,14.2,7.4c3.6,4.9,5.3,11.7,5.3,20.5c0,8.7-1.8,15.4-5.3,20.3c-3.5,4.9-8.3,7.3-14.2,7.3
			c-6,0-10.7-2.4-14.3-7.3C309.6,1040,307.9,1033.3,307.9,1024.8z M316.3,1024.4c0,6.1,1.1,10.7,3.2,13.8c2.1,3.1,4.8,4.7,8,4.7
			c3.2,0,5.9-1.6,8-4.7c2.1-3.1,3.1-7.8,3.1-14c0-6.2-1-10.7-3-13.8c-2-3-4.7-4.5-8.1-4.5c-3.4,0-6.1,1.5-8.1,4.6
			C317.3,1013.6,316.3,1018.2,316.3,1024.4z"/>
		<path class="st6" d="M384.8,1051.3V998h8.1v44.2h20.2v9H384.8z"/>
		<path class="st6" d="M418.6,1051.3v-53.7h8.1v53.7H418.6z"/>
		<path class="st6" d="M443.6,1051.3v-44.6h-11.9v-9.1h32v9.1h-11.9v44.6H443.6z"/>
		<path class="st6" d="M477.9,1051.3v-44.6H466v-9.1h32v9.1h-11.9v44.6H477.9z"/>
		<path class="st6" d="M503.2,1051.3v-53.7h29.9v9.1h-21.7v11.9h20.2v9h-20.2v14.6h22.5v9H503.2z"/>
		<path class="st6" d="M540.8,1051.3v-53.7h17.1c4.3,0,7.4,0.5,9.4,1.4c1.9,1,3.5,2.7,4.7,5.1c1.2,2.5,1.8,5.3,1.8,8.5
			c0,4-0.9,7.4-2.7,10c-1.8,2.6-4.4,4.3-8,5c1.8,1.4,3.2,2.9,4.4,4.5s2.7,4.5,4.6,8.7l4.9,10.5h-9.7l-5.9-11.7
			c-2.1-4.2-3.5-6.8-4.3-7.9c-0.8-1.1-1.6-1.8-2.4-2.2c-0.9-0.4-2.2-0.6-4.1-0.6h-1.6v22.4H540.8z M548.9,1020.3h6
			c3.9,0,6.3-0.2,7.3-0.7c1-0.4,1.7-1.2,2.3-2.3s0.8-2.4,0.8-4c0-1.8-0.4-3.3-1.1-4.4c-0.7-1.1-1.7-1.8-3.1-2.1
			c-0.7-0.1-2.6-0.2-5.9-0.2h-6.3V1020.3z"/>
	</g>
	<g>
		<path class="st6" d="M281.2,934.1h-7.5v-28.9c0-2.3-0.4-3.5-1.3-3.5c-0.6,0-1.6,1.1-2.8,3.3l-15.7,29.1h-7v-33.4
			c-0.8,0.2-1.5,0.3-2.1,0.3c-2.6,0-4.8-1-6.5-2.9c-1.8-2-2.7-4.3-2.7-7.1c0-2.7,0.9-5,2.7-6.9c1.8-1.9,3.9-2.9,6.5-2.9
			c2.7,0,5,1,6.8,3c1.8,2,2.7,4.5,2.7,7.5v19.4c0,2.3-0.5,6.8-1.4,13.8c0.8-3.7,2-7.1,3.6-10.3l6.6-12.3c1.5-2.6,2.7-4.1,3.9-4.4
			c-1.6-2.2-2.4-4.4-2.4-6.8c0-2.8,0.9-5.1,2.7-7c1.8-1.9,3.9-2.9,6.5-2.9c2.6,0,4.8,1,6.5,2.9c1.8,1.9,2.7,4.2,2.7,7
			c0,2.9-1.1,5.4-3.4,7.5c1,2.2,1.6,4.5,1.6,7V934.1z M249,891.1c0-1.2-0.4-2.3-1.2-3.1c-0.8-0.9-1.8-1.3-2.9-1.3
			c-1.1,0-2.1,0.4-2.9,1.3c-0.8,0.9-1.2,1.9-1.2,3.1c0,1.2,0.4,2.3,1.2,3.1c0.8,0.9,1.8,1.3,2.9,1.3c1.1,0,2.1-0.4,2.9-1.3
			C248.6,893.3,249,892.3,249,891.1z M278,891.1c0-1.2-0.4-2.3-1.2-3.1c-0.8-0.9-1.8-1.3-2.9-1.3c-1.1,0-2.1,0.4-2.9,1.3
			c-0.8,0.9-1.2,1.9-1.2,3.1c0,1.2,0.4,2.3,1.2,3.1c0.8,0.9,1.8,1.3,2.9,1.3c1.1,0,2.1-0.4,2.9-1.3C277.6,893.3,278,892.3,278,891.1
			z"/>
		<path class="st6" d="M288.6,851.3c-0.8,4.6-1.9,8.4-3.4,11.6s-3.3,5.6-5.6,7.5c-2.3,1.9-4.9,3.2-7.9,4c-3,0.8-6.5,1.2-10.5,1.2h-4
			v-5.2c1.6-0.1,3-0.7,4-1.8c1.1-1.1,1.8-2.3,2.2-3.4c-2-0.3-3.6-1.3-4.8-2.9c-1.2-1.6-1.8-3.5-1.8-5.7c0-2.3,0.8-4.3,2.4-5.8
			s3.4-2.3,5.5-2.3c2.4,0,4.3,0.8,5.7,2.5c1.4,1.6,2.1,3.7,2.1,6.2c0,2.5-0.6,4.9-1.7,7.3c-1.1,2.3-2.3,4.2-3.5,5.5
			c4-0.8,7.3-2.9,9.8-6.3c2.5-3.4,3.9-7.5,4-12.2H288.6z M267.9,856.8c0-1-0.3-1.8-0.9-2.4c-0.6-0.7-1.3-1-2.2-1
			c-0.9,0-1.6,0.3-2.2,1c-0.6,0.6-0.8,1.5-0.8,2.4c0,1,0.3,1.8,0.8,2.4c0.6,0.7,1.3,1,2.2,1c0.9,0,1.6-0.3,2.2-1
			C267.6,858.5,267.9,857.7,267.9,856.8z"/>
		<path class="st6" d="M321.8,934.1h-7.5v-37.7c0-2.4-0.8-4.4-2.3-5.9c-1.5-1.5-3.6-2.3-6.3-2.3c-2.7,0-4.8,0.9-6.5,2.8
			c-1.7,1.9-2.6,4.3-2.7,7.2h-7.3c0.2-5.2,1.8-9.3,4.8-12.4c2.9-3.1,6.8-4.6,11.7-4.6c4.5,0,8.3,1.2,11.4,3.7
			c3.1,2.5,4.7,6.2,4.7,11.2V934.1z"/>
		<path class="st6" d="M372.2,934.1h-7.5c-4.7-4.5-9.4-7.7-14.1-9.5v0.7c0,2.8-1,5.1-3,7c-2,1.9-4.2,2.9-6.7,2.9c-2.7,0-5-1-6.9-3.1
			s-2.9-4.5-2.9-7.4c0-2.9,1-5.3,2.9-7.3c1.9-2,4.2-3.1,6.9-3.1h0.8v-13.5c-0.8,0.2-1.5,0.3-2.1,0.3c-2.6,0-4.8-1-6.5-2.9
			c-1.8-2-2.7-4.3-2.7-7.1c0-2.7,0.9-5,2.7-6.9c1.8-1.9,3.9-2.9,6.5-2.9c2.7,0,5,1,6.8,3c1.8,2,2.7,4.5,2.7,7.5v24.7
			c6.4,2.3,11.5,5.4,15.5,9.2v-43.4h7.5V934.1z M343.8,891.1c0-1.2-0.4-2.3-1.2-3.1c-0.8-0.9-1.8-1.3-2.9-1.3
			c-1.1,0-2.1,0.4-2.9,1.3c-0.8,0.9-1.2,1.9-1.2,3.1c0,1.2,0.4,2.3,1.2,3.1c0.8,0.9,1.8,1.3,2.9,1.3c1.1,0,2.1-0.4,2.9-1.3
			C343.4,893.3,343.8,892.3,343.8,891.1z M345,924.6c0-1.2-0.4-2.3-1.2-3.1c-0.8-0.9-1.8-1.3-2.9-1.3c-1.1,0-2.1,0.4-2.9,1.3
			c-0.8,0.9-1.2,1.9-1.2,3.1c0,1.2,0.4,2.3,1.2,3.1c0.8,0.9,1.8,1.3,2.9,1.3c1.1,0,2.1-0.4,2.9-1.3C344.6,926.9,345,925.8,345,924.6
			z"/>
		<path class="st6" d="M425.2,934.1h-7.5v-42c0-2.7-0.6-4-1.8-4c-1,0-1.8,0.6-2.2,1.9l-14.4,44.1h-8.5v-33.4
			c-0.8,0.2-1.5,0.3-2.1,0.3c-2.6,0-4.8-1-6.5-2.9c-1.8-2-2.7-4.3-2.7-7.1c0-2.7,0.9-5,2.7-6.9c1.8-1.9,3.9-2.9,6.5-2.9
			c2.7,0,5,1,6.8,3c1.8,2,2.7,4.5,2.7,7.5v19.4c0,2.9-0.5,7.5-1.4,13.8c0.9-3.8,2-8.1,3.4-12.7L407,889c1.5-5.3,4.6-7.9,9.1-7.8
			c6,0.1,9.1,3.8,9.1,11V934.1z M392.9,891.1c0-1.2-0.4-2.3-1.2-3.1c-0.8-0.9-1.8-1.3-2.9-1.3c-1.1,0-2.1,0.4-2.9,1.3
			c-0.8,0.9-1.2,1.9-1.2,3.1c0,1.2,0.4,2.3,1.2,3.1c0.8,0.9,1.8,1.3,2.9,1.3c1.1,0,2.1-0.4,2.9-1.3
			C392.5,893.3,392.9,892.3,392.9,891.1z"/>
		<path class="st6" d="M425.4,875.6c-10-3.5-19.1-5.2-27.4-5.2c-3.8,0-7.6,0.3-11.5,0.8c1-11.6,6.8-17.4,17.6-17.4
			c6.2,0,11.1,2,14.7,6C422.5,863.9,424.7,869.1,425.4,875.6z M417.7,867.9c-0.5-2.2-1.9-4.2-4.4-6.1c-2.4-1.9-5.2-2.9-8.2-2.9
			c-2.9,0-5.4,0.6-7.5,1.9c-2.1,1.3-3.4,2.9-4,5c1.4-0.3,3.5-0.5,6.4-0.5C406,865.3,411.9,866.2,417.7,867.9z"/>
		<path class="st6" d="M434,825.6c-1.5,8.2-4.1,13.9-8,17.1c-3.9,3.2-9.6,4.7-17.1,4.7h-3.4v-4.3c3.2-0.3,5.2-1.5,5.9-3.8
			c-4.1-1.1-6.2-3.7-6.2-7.7c0-2.1,0.7-3.8,2.1-5.2c1.4-1.4,3-2.1,5-2.1c2.2,0,3.9,0.7,5.1,2.1c1.3,1.4,1.9,3.3,1.9,5.5
			c0,3.4-1.8,7-5.3,10.8c3.9-0.9,7.2-2.9,9.7-6c2.5-3.2,3.9-6.9,4.1-11.2H434z M415.2,831.9c0-1-0.3-1.8-0.9-2.4s-1.3-1-2.2-1
			c-0.9,0-1.6,0.3-2.2,1c-0.6,0.7-0.9,1.5-0.9,2.4c0,1,0.3,1.8,0.9,2.4c0.6,0.7,1.3,1,2.2,1c0.9,0,1.6-0.3,2.2-1
			C414.9,833.7,415.2,832.9,415.2,831.9z"/>
		<path class="st6" d="M463.6,934.1h-7.4l-22.6-27.4l4.5-5.6l18,21.8v-22.4c-0.2,0.1-1,0.1-2.3,0.1c-2.5,0-4.6-0.9-6.3-2.7
			c-1.7-1.8-2.6-4-2.6-6.8c0-2.8,0.9-5.1,2.7-7.1c1.8-1.9,3.9-2.9,6.3-2.9c2.8,0,5.2,1,7,2.9c1.9,2,2.8,4.5,2.8,7.6V934.1z
			 M457.9,891c0-1.2-0.4-2.2-1.2-3c-0.8-0.8-1.8-1.3-2.9-1.3c-1.1,0-2.1,0.4-2.9,1.3c-0.8,0.8-1.2,1.9-1.2,3c0,1.2,0.4,2.2,1.2,3
			c0.8,0.8,1.8,1.3,2.9,1.3c1.1,0,2.1-0.4,2.9-1.3C457.5,893.1,457.9,892.1,457.9,891z"/>
		<path class="st6" d="M513.7,921.9c0,4.2-1.2,7.5-3.7,9.8c-2.5,2.3-5.7,3.4-9.7,3.4c-4,0-7.3-1.1-9.7-3.4c-2.5-2.3-3.7-5.6-3.7-9.8
			v-8.4c0-2.5,1.1-5.9,3.2-10c2.1-4.2,3.2-7.5,3.2-9.9c0-2-0.6-3.6-1.9-4.9c-1.3-1.3-2.8-1.9-4.5-1.9c-2.6,0-4.3,0.5-5.2,1.6
			c2.4,0.1,4.4,0.9,5.9,2.5c1.5,1.6,2.2,3.6,2.2,6c0,2.6-0.8,4.8-2.5,6.6c-1.7,1.8-3.7,2.7-6,2.7c-2.7,0-4.9-1.1-6.6-3.2
			c-1.7-2.1-2.5-4.7-2.5-7.7c0-4,1.5-7.3,4.4-9.9c2.9-2.6,6.3-3.9,10.2-3.9c4,0,7.3,1,9.8,3.1c2.5,2.1,3.8,5.1,3.8,9.1
			c0,2.6-1,6.2-3,10.9s-3,8-3,9.9v9.5c0,1.5,0.6,2.6,1.9,3.4c1.2,0.8,2.6,1.2,4,1.2c1.5,0,2.9-0.4,4.1-1.2c1.2-0.8,1.8-1.9,1.8-3.3
			v-41.4h7.5V921.9z M485,896.9c0-1.1-0.4-2.1-1.1-2.9s-1.6-1.2-2.7-1.2c-1,0-1.9,0.4-2.7,1.2c-0.7,0.8-1.1,1.7-1.1,2.9
			c0,1.1,0.4,2.1,1.1,2.9c0.7,0.8,1.6,1.2,2.7,1.2c1,0,1.9-0.4,2.7-1.2C484.6,899,485,898.1,485,896.9z"/>
		<path class="st6" d="M560.4,921c0,9.4-6,14.2-17.9,14.2c-11.8,0-17.8-4.7-17.8-14.2v-6c0-4.2,1.6-7.1,4.9-8.8
			c-3.6-2.7-5.5-6.6-5.5-11.8c0-3.8,1-7,3-9.4c2-2.5,4.7-3.7,8.2-3.7c2.4,0,4.5,0.8,6.2,2.4c1.7,1.6,2.5,3.7,2.5,6.3
			c0,2.3-0.8,4.4-2.3,6.1c-1.5,1.7-3.6,2.6-6.1,2.6c-1.3,0-2.4-0.2-3.4-0.6c0.6,3.3,2.1,4.9,4.4,4.9h8.6v6.4h-8.6
			c-1.3,0-2.3,0.6-3.1,1.8c-0.8,1.2-1.2,2.6-1.2,4.1v5.9c0,4.6,3.4,7,10.3,7c7,0,10.5-2.3,10.5-7v-38.9h7.5V921z M539.5,890
			c0-1.2-0.4-2.2-1.1-3c-0.7-0.8-1.7-1.2-2.8-1.2c-1.1,0-2.1,0.4-2.8,1.2c-0.7,0.8-1.1,1.8-1.1,3c0,1.2,0.4,2.2,1.1,3
			s1.7,1.2,2.8,1.2c1.1,0,2.1-0.4,2.8-1.2S539.5,891.3,539.5,890z"/>
		<path class="st6" d="M603,882.5c-0.4,13.8-6.4,20.7-18,20.7c-4.8,0-8.5-1.1-11.1-3.2c-2.6-2.1-3.9-4.8-3.9-8.1
			c0-2.5,0.8-4.6,2.4-6.4c1.6-1.7,3.6-2.6,5.9-2.6c2.5,0,4.5,0.9,6.1,2.7c1.6,1.8,2.4,3.9,2.4,6.3c0,2.3-0.6,4.1-1.8,5.2
			c7.5-0.3,11.2-5.2,11.2-14.6H603z M603,912c-0.4,13.8-6.4,20.7-18,20.7c-4.8,0-8.5-1.1-11.1-3.2c-2.6-2.1-3.9-4.8-3.9-8.1
			c0-2.5,0.8-4.6,2.4-6.4c1.6-1.7,3.6-2.6,5.9-2.6c2.5,0,4.5,0.9,6.1,2.7c1.6,1.8,2.4,3.9,2.4,6.3c0,2.3-0.6,4.1-1.8,5.2
			c7.5-0.3,11.2-5.2,11.2-14.6H603z M582,891.9c0-1.1-0.4-2.1-1.1-2.9c-0.7-0.8-1.6-1.2-2.7-1.2c-1,0-1.9,0.4-2.6,1.2
			c-0.7,0.8-1,1.7-1,2.9c0,1.1,0.3,2.1,1,2.8c0.7,0.7,1.6,1.1,2.6,1.1c1,0,1.9-0.4,2.7-1.1C581.6,893.9,582,893,582,891.9z
			 M582,921.4c0-1.1-0.4-2.1-1.1-2.9c-0.7-0.8-1.6-1.2-2.7-1.2c-1,0-1.9,0.4-2.6,1.2c-0.7,0.8-1,1.7-1,2.9c0,1.1,0.3,2.1,1,2.8
			c0.7,0.7,1.6,1.1,2.6,1.1c1,0,1.9-0.4,2.7-1.1C581.6,923.4,582,922.5,582,921.4z"/>
	</g>
	<g>
		<g>
			<g>
				<path d="M436.9,470.8c0-54.2,0-108.4,0-162.6c0-1.3,0.2-2.8-0.2-4c-0.3-1.1-1-2.6-1.9-2.8c-0.8-0.2-2.3,0.7-3,1.5
					c-1.8,2.2-3.4,4.7-5,7.1c-8.1,11.8-16.3,23.6-24.4,35.4c-3.6,5.3-8.4,7.9-14.9,7.9c-25.6-0.1-51.3,0-76.9,0
					c-9.3,0-14.9-5.6-16.9-12.8c-2-7.6,1.7-15.6,8.7-18.8c2.7-1.3,6-1.9,9-1.9c21-0.2,41.9-0.1,62.9,0c3.4,0,5.7-1.2,7.6-3.9
					c12.8-18.7,25.6-37.3,38.4-55.9c7.6-11,18.6-16.7,31.6-16.9c27.7-0.5,55.4-0.2,83.2-0.2c24.1,0,42.9,19.9,42.9,45.2
					c0,16.1,0,32.2,0,48.3c0,30.9,0,61.9,0,92.8c0,8.9-4.8,15.5-12.6,17.5c-10.7,2.8-20.9-4.7-21.1-15.9
					c-0.3-19.2-0.1-38.4-0.1-57.6c0-22.1,0-44.1,0-66.2c0-3.1-1.8-4.8-4.5-4.8c-2.8,0-4.5,1.9-4.5,5.2c0,15,0,29.9,0,44.9
					c0,76.2,0,152.4,0,228.5c0,18,0,36.1,0,54.1c0,11.4-6.8,18.2-18.2,18.2c-2.7,0-5.4,0-8.1,0c-6.1,0-11.3-2.5-15.7-6.6
					c-0.9-0.8-1.4-2.5-1.4-3.8c-0.1-30.7,0-61.5,0-92.2c0-38.3,0-76.6-0.1-114.9c0-4.2-2.2-6.7-5.6-6.7c-3.5,0-5.6,2.6-5.6,6.8
					c0,36.3,0,72.7,0,109c0,29.9,0,59.8,0,89.7c0,12-6.7,18.6-18.7,18.7c-2.1,0-4.2,0-6.2,0c-11.8,0-18.6-6.8-18.6-18.5
					c0-13.2,0-26.4,0-39.6c0-35.5,0-71,0-106.5C436.9,482.4,436.9,476.6,436.9,470.8z"/>
				<path d="M488.2,232.5c-23.1,0-41.9-18.4-41.8-41c0.1-22.9,18.8-41.3,41.9-41.3c22.8,0.1,41.4,18.5,41.4,41.1
					C529.7,214.1,511.2,232.5,488.2,232.5z"/>
			</g>
			<path d="M267.2,460.1c4.8-6.6,9.4-12.9,14.2-19.4c6.5,4.7,12.8,9.3,19.4,14.1c-4.7,6.5-9.4,12.8-14.2,19.4
				C280.1,469.5,273.8,464.9,267.2,460.1z"/>
			<path d="M323.5,406.4c3.3,7.5,6.4,14.6,9.6,22c-7.4,3.3-14.6,6.4-22,9.7c-3.2-7.3-6.4-14.5-9.7-22
				C308.8,412.8,316,409.6,323.5,406.4z"/>
			<path d="M299.1,488.2c7.9,2.1,15.4,4,23.2,6c-2,7.7-3.9,15.2-5.9,23.2c-7.7-2-15.3-3.9-23.2-6
				C295.2,503.7,297.1,496.1,299.1,488.2z"/>
			<path d="M307.6,529.4c3.3,7.5,6.4,14.6,9.6,22c-7.4,3.3-14.6,6.4-22,9.7c-3.2-7.3-6.4-14.5-9.7-22
				C293,535.8,300.1,532.7,307.6,529.4z"/>
			<path d="M323.5,566.7c3.3,7.5,6.4,14.6,9.6,22c-7.4,3.3-14.6,6.4-22,9.7c-3.2-7.3-6.4-14.5-9.7-22
				C308.8,573.1,316,570,323.5,566.7z"/>
		</g>
		<path class="st8" d="M432.4,748c-7.2,0-14.3,0-21.5,0c-0.9-0.1-1.8-0.3-2.7-0.4c-5.4-0.4-10.8-0.6-16.2-1
			c-16.7-1.3-33.2-3.9-49.5-7.7c-66.7-15.8-124-48.2-171.5-97.7c-43.7-45.5-72.8-99.1-87.5-160.4c-3.9-16.2-6.6-32.6-7.9-49.2
			c-0.6-7.9-1-15.8-1.5-23.7c0-0.7-0.3-1.4-0.4-2.2c0-3,0-6,0-9c0.2-0.6,0.4-1.3,0.4-1.9c0.3-5.8,0.6-11.6,1-17.4
			c0.9-15.1,3-30.1,6-45c7.1-35.7,19.5-69.5,37.4-101.1c35.8-63.1,86.3-110.7,151.4-142.6c46.5-22.8,95.8-34.2,147.7-34.8
			c0.8,0,1.6-0.2,2.4-0.4c0.7,0,1.3,0,2,0c0.8,0.1,1.6,0.4,2.4,0.4c14.9,0.1,29.8,1.2,44.5,3.3c22.4,3.1,44.3,8.3,65.7,15.6
			c95,32.7,171.8,105.9,209.1,199.5c14.6,36.7,23.1,74.8,24.2,114.4c0,0.7,0.3,1.4,0.4,2.1c0,7.8,0,15.7,0,23.5
			c-0.1,0.8-0.4,1.6-0.4,2.4c-0.1,10.6-1.2,21.1-2.5,31.6c-2.8,21.6-7.6,42.7-14.4,63.4c-17.7,53.5-46.7,99.9-87,139.3
			c-37.7,36.9-81.7,63.8-131.7,80.8c-20,6.8-40.4,11.6-61.3,14.6c-12,1.7-24,2.9-36,3.2C434,747.6,433.2,747.9,432.4,748z
			 M201.8,231.1c-82.6,104.5-81,267,28.2,370.8c108.6,103.2,265.5,95,360.9,18.4C461.3,490.6,331.6,360.9,201.8,231.1z M251.6,181.4
			c129.7,129.7,259.4,259.5,389.1,389.2c80.7-101.5,82.5-262.9-25.9-368.5C507.8,97.8,349.6,103.1,251.6,181.4z"/>
	</g>
</g>
</svg>
