<?xml version="1.0" encoding="utf-8"?>
<!-- Generator: Adobe Illustrator 22.0.0, SVG Export Plug-In . SVG Version: 6.00 Build 0)  -->
<svg version="1.1" id="Layer_1" xmlns="http://www.w3.org/2000/svg" xmlns:xlink="http://www.w3.org/1999/xlink" x="0px" y="0px"
	 viewBox="0 0 841.9 1190.6" style="enable-background:new 0 0 841.9 1190.6;" xml:space="preserve">
<style type="text/css">
	.st0{fill:none;}
	.st1{fill:#010101;}
	.st2{fill:#FFFFFF;}
	.st3{fill:#FCEE1F;}
	.st4{fill:#EB2627;}
	.st5{fill:#2A3B8F;}
	.st6{fill:#010101;stroke:#010101;stroke-miterlimit:10;}
	.st7{fill-rule:evenodd;clip-rule:evenodd;}
	.st8{fill-rule:evenodd;clip-rule:evenodd;fill:#FCEE1F;}
	.st9{fill:#FCEE23;}
	.st10{fill-rule:evenodd;clip-rule:evenodd;fill:#FCEE23;}
	.st11{fill-rule:evenodd;clip-rule:evenodd;fill:#010101;}
	.st12{fill-rule:evenodd;clip-rule:evenodd;fill:#F3C636;}
	.st13{fill:#DDF1F6;}
	.st14{fill:none;stroke:#231F20;stroke-width:1.000000e-02;}
</style>
<g>
	<g>
		<rect x="0" y="0" class="st0" width="841.9" height="1190.6"/>
		<rect x="28.3" y="28.3" class="st1" width="785.2" height="1133.9"/>
		<rect x="34" y="34" class="st2" width="773.9" height="1122.5"/>
		<rect x="52.5" y="792.6" class="st3" width="737" height="348.7"/>
		<g id="stecon_22_">
			<path id="red_22_" class="st4" d="M52.8,53.5c42.5,0,85,0,127.6,0c0,22.6,0,45.1,0,67.7c-42.5,0-85,0-127.5,0c0-0.2,0-0.5,0-0.7
				c0-22.1,0-44.2,0-66.3C52.9,54,52.8,53.8,52.8,53.5z M55.8,87.4c0.2,0.1,0.4,0.2,0.5,0.3c3.6,1.8,7.1,3.7,10.7,5.5
				c16.4,8.4,32.7,16.8,49.1,25.2c0.4,0.2,0.7,0.2,1.1,0c13.8-7.1,27.6-14.2,41.4-21.3c6.1-3.2,12.3-6.3,18.4-9.5
				c0.1-0.1,0.3-0.2,0.5-0.3c-0.2-0.1-0.3-0.2-0.5-0.3c-3.8-1.9-7.6-3.9-11.4-5.8c-16.2-8.3-32.4-16.7-48.5-25
				c-0.3-0.2-0.5-0.2-0.9,0c-7,3.6-14.1,7.3-21.1,10.9c-12.6,6.5-25.2,12.9-37.7,19.4C56.9,86.8,56.4,87.1,55.8,87.4z"/>
			<g id="white_22_">
				<path class="st2" d="M55.8,87.4c0.6-0.3,1.1-0.6,1.6-0.8c12.6-6.5,25.2-12.9,37.7-19.4c7-3.6,14.1-7.2,21.1-10.9
					c0.3-0.2,0.6-0.1,0.9,0c16.2,8.3,32.4,16.7,48.5,25c3.8,1.9,7.6,3.9,11.4,5.8c0.1,0.1,0.3,0.1,0.5,0.3c-0.2,0.1-0.3,0.2-0.5,0.3
					c-6.1,3.2-12.3,6.3-18.4,9.5c-13.8,7.1-27.6,14.2-41.4,21.3c-0.4,0.2-0.7,0.2-1.1,0C99.7,110,83.4,101.6,67,93.1
					c-3.6-1.8-7.1-3.7-10.7-5.5C56.2,87.6,56,87.5,55.8,87.4z M59.7,87.4c0.2,0.1,0.3,0.2,0.4,0.2c1,0.5,1.9,1,2.9,1.5
					c17.7,9.1,35.5,18.2,53.2,27.3c0.3,0.1,0.5,0.2,0.8,0c12.9-6.6,25.7-13.2,38.6-19.8c5.8-3,11.6-6,17.5-9
					c0.1-0.1,0.3-0.2,0.5-0.3c-0.2-0.1-0.4-0.2-0.6-0.3c-15.9-8.2-31.9-16.4-47.8-24.5c-2.7-1.4-5.5-2.8-8.2-4.2
					c-0.2-0.1-0.4-0.1-0.7,0c-0.3,0.2-0.7,0.4-1.1,0.6C97,68.3,78.6,77.6,60.3,87C60.1,87.1,60,87.2,59.7,87.4z"/>
				<path class="st2" d="M147.4,79.5c1.4,0,2.7,0,4.1,0c0,5.2,0,10.3,0,15.4c-1.4,0-2.8,0-4.2,0c-0.9-2.6-1.8-5.3-2.7-7.9
					c0,0-0.1,0-0.1,0c0,2.6,0,5.2,0,7.9c-1.4,0-2.7,0-4,0c0,0,0,0,0,0c0,0,0,0,0,0c0-0.1,0-0.2,0-0.3c0-4.9,0-9.9,0-14.8
					c0,0,0-0.1,0-0.2c0.1,0,0.3,0,0.4,0c1.2,0,2.3,0,3.5,0c0.4,0,0.4,0,0.5,0.4c0.8,2.5,1.6,5,2.4,7.5c0,0.1,0.1,0.2,0.2,0.4
					C147.4,85,147.4,82.3,147.4,79.5z"/>
				<path class="st2" d="M138.8,87.3c0,1.5,0,3,0,4.5c0,0.8-0.3,1.4-0.8,1.9c-0.7,0.7-1.6,1.2-2.6,1.3c-1.5,0.3-3.1,0.3-4.6-0.1
					c-0.9-0.2-1.6-0.6-2.3-1.3c-0.5-0.5-0.8-1.1-0.8-1.9c0-3,0-6.1,0-9.1c0-0.7,0.2-1.3,0.7-1.8c0.6-0.7,1.4-1.2,2.3-1.4
					c1.7-0.4,3.5-0.4,5.2,0.1c0.7,0.2,1.4,0.6,2,1.2c0.6,0.5,0.9,1.2,0.8,2C138.8,84.3,138.8,85.8,138.8,87.3z M134.2,87.3
					c0-1.5,0-2.9,0-4.4c0-0.7-0.1-0.9-0.8-0.9c-0.1,0-0.2,0-0.2,0c-0.5,0.1-0.6,0.2-0.6,0.7c0,3,0,6,0,9c0,0.5,0.1,0.7,0.6,0.7
					c0.2,0,0.3,0,0.5,0c0.5-0.1,0.6-0.2,0.6-0.7C134.2,90.3,134.2,88.8,134.2,87.3z"/>
				<path class="st2" d="M126.7,88.9c0,0.2,0,0.3,0,0.5c0,0.8,0,1.6,0,2.4c0,0.8-0.3,1.5-0.9,2c-0.7,0.7-1.5,1.1-2.5,1.3
					c-1.5,0.3-3,0.3-4.5-0.1c-0.8-0.2-1.5-0.6-2.2-1.2c-0.6-0.6-0.9-1.2-0.9-2.1c0-3,0-5.9,0-8.9c0-0.9,0.3-1.6,0.9-2.1
					c0.7-0.7,1.6-1.1,2.5-1.2c1.4-0.2,2.9-0.2,4.3,0.1c0.9,0.2,1.6,0.6,2.3,1.2c0.6,0.6,0.9,1.2,0.9,2.1c0,0.8,0,1.7,0,2.5
					c0,0.2,0,0.3,0,0.5c-1.6,0-3.1,0-4.6,0c0-0.2,0-0.3,0-0.5c0-0.9,0-1.7,0-2.6c0-0.5-0.1-0.6-0.6-0.7c-0.1,0-0.2,0-0.3,0
					c-0.7,0.1-0.7,0.3-0.7,0.8c0,2.9,0,5.9,0,8.8c0,0.1,0,0.2,0,0.3c0,0.2,0.1,0.4,0.3,0.4c0.1,0,0.3,0.1,0.4,0.1
					c0.6,0.1,0.8-0.2,0.8-0.8c0-0.8,0-1.5,0-2.3c0-0.2,0-0.3,0-0.5C122.4,88.8,126,88.8,126.7,88.9z"/>
				<path class="st2" d="M105.5,94.9c0-5.1,0-10.2,0-15.3c0.4-0.1,8.7-0.1,9.1,0c0,0.8,0,1.6,0,2.5c-0.1,0-0.3,0-0.4,0
					c-1.1,0-2.2,0-3.3,0c-0.1,0-0.3,0-0.5,0c0,1.4,0,2.7,0,4.1c1,0,2.1,0,3.1,0c0,0.8,0,1.5,0,2.2c-0.4,0.1-0.7,0.1-1,0.1
					c-0.3,0-0.7,0-1,0c-0.3,0-0.7,0-1,0c-0.1,0.3-0.1,2.8,0,3.7c0.1,0,0.3,0,0.5,0c1.1,0,2.2,0,3.3,0c0.2,0,0.3,0,0.5,0
					c0,0.9,0,1.8,0,2.6C114.3,95,106,95,105.5,94.9z"/>
				<path class="st2" d="M101.1,94.9c-1.6,0-3.1,0-4.7,0c0-4.3,0-8.5,0-12.8c-1,0-2,0-3,0c-0.1-0.4-0.1-2.1,0-2.6
					c0.3-0.1,10.4-0.1,10.8,0c0.1,0.3,0.1,2.1,0,2.6c-1,0-2,0-3,0C101.1,86.4,101.1,90.6,101.1,94.9z"/>
				<path class="st2" d="M92.1,84.9c-1.6,0-3.1,0-4.6,0c0-0.2,0-0.3,0-0.5c0-0.6,0-1.2,0-1.8c0-0.4-0.1-0.6-0.5-0.6
					c-0.1,0-0.2,0-0.4,0c-0.3,0-0.5,0.2-0.5,0.5c0,0.6,0,1.1,0,1.7c0,0.4,0.2,0.6,0.5,0.8c0.4,0.2,0.7,0.4,1.1,0.7
					c1,0.6,2,1.1,2.9,1.7c0.1,0.1,0.3,0.2,0.4,0.3c0.7,0.5,1.1,1.2,1.1,2.1c0,0.7,0,1.3,0,2c0,0.7-0.2,1.3-0.7,1.7
					c-0.7,0.7-1.5,1.2-2.4,1.4c-1.5,0.4-3.1,0.4-4.7,0c-0.8-0.2-1.6-0.6-2.2-1.2c-0.6-0.5-0.9-1.2-0.9-2.1c0-0.8,0-1.5,0-2.3
					c0.3-0.1,3.9-0.1,4.5,0c0,0.1,0,0.3,0,0.4c0,0.7,0,1.3,0,2c0,0.4,0.1,0.6,0.5,0.6c0.2,0,0.5,0,0.7-0.1c0.2,0,0.3-0.2,0.3-0.4
					c0-0.6,0-1.2,0-1.8c0-0.3-0.2-0.6-0.4-0.7c-0.4-0.3-0.8-0.5-1.2-0.8c-1-0.6-2-1.2-2.9-1.8c-0.3-0.2-0.6-0.4-0.9-0.7
					c-0.4-0.4-0.6-0.9-0.6-1.5c0-0.7,0-1.3,0-2c0-0.8,0.3-1.4,0.8-1.9c0.7-0.7,1.6-1.2,2.6-1.4c1.4-0.3,2.8-0.3,4.2,0.1
					c0.9,0.2,1.7,0.7,2.3,1.3c0.5,0.5,0.8,1.1,0.8,1.9C92.1,83.5,92.1,84.2,92.1,84.9z"/>
			</g>
			<g id="blue_22_">
				<path class="st5" d="M59.7,87.4c0.3-0.1,0.5-0.2,0.7-0.3c18.3-9.4,36.6-18.8,54.9-28.1c0.4-0.2,0.7-0.4,1.1-0.6
					c0.2-0.1,0.4-0.1,0.7,0c2.7,1.4,5.4,2.8,8.2,4.2c15.9,8.2,31.9,16.4,47.8,24.5c0.2,0.1,0.3,0.2,0.6,0.3
					c-0.2,0.1-0.3,0.2-0.5,0.3c-5.8,3-11.6,6-17.5,9c-12.9,6.6-25.7,13.2-38.6,19.8c-0.3,0.1-0.5,0.1-0.8,0
					C98.5,107.3,80.8,98.2,63,89.1c-1-0.5-1.9-1-2.9-1.5C60,87.5,59.9,87.5,59.7,87.4z M147.4,79.5c0,2.8,0,5.5,0,8.3
					c-0.1-0.1-0.1-0.2-0.2-0.4c-0.8-2.5-1.6-5-2.4-7.5c-0.1-0.4-0.1-0.4-0.5-0.4c-1.2,0-2.3,0-3.5,0c-0.1,0-0.3,0-0.4,0
					c0,0.1,0,0.1,0,0.2c0,4.9,0,9.9,0,14.8c0,0.1,0,0.2,0,0.3c0,0,0,0,0,0c0,0,0,0,0,0c1.3,0,2.7,0,4,0c0-2.7,0-5.3,0-7.9
					c0,0,0.1,0,0.1,0c0.9,2.6,1.8,5.3,2.7,7.9c1.4,0,2.8,0,4.2,0c0-5.1,0-10.2,0-15.4C150.2,79.5,148.8,79.5,147.4,79.5z
					 M138.8,87.3c0-1.5,0-3,0-4.5c0-0.8-0.3-1.5-0.8-2c-0.6-0.6-1.2-1-2-1.2c-1.7-0.5-3.5-0.5-5.2-0.1c-0.9,0.2-1.7,0.7-2.3,1.4
					c-0.4,0.5-0.7,1.1-0.7,1.8c0,3,0,6.1,0,9.1c0,0.8,0.3,1.4,0.8,1.9c0.6,0.7,1.4,1.1,2.3,1.3c1.5,0.3,3.1,0.3,4.6,0.1
					c1-0.2,1.8-0.6,2.6-1.3c0.5-0.5,0.8-1.2,0.8-1.9C138.8,90.3,138.8,88.8,138.8,87.3z M126.7,88.9c-0.6-0.1-4.3-0.1-4.7,0
					c0,0.1,0,0.3,0,0.5c0,0.8,0,1.5,0,2.3c0,0.7-0.2,0.9-0.8,0.8c-0.1,0-0.3,0-0.4-0.1c-0.2-0.1-0.3-0.2-0.3-0.4c0-0.1,0-0.2,0-0.3
					c0-2.9,0-5.9,0-8.8c0-0.5,0-0.7,0.7-0.8c0.1,0,0.2,0,0.3,0c0.5,0.1,0.6,0.2,0.6,0.7c0,0.9,0,1.7,0,2.6c0,0.2,0,0.3,0,0.5
					c1.6,0,3.1,0,4.6,0c0-0.2,0-0.4,0-0.5c0-0.8,0-1.7,0-2.5c0-0.9-0.3-1.5-0.9-2.1c-0.7-0.6-1.4-1-2.3-1.2
					c-1.4-0.3-2.9-0.3-4.3-0.1c-0.9,0.2-1.8,0.6-2.5,1.2c-0.6,0.6-0.9,1.3-0.9,2.1c0,3,0,5.9,0,8.9c0,0.9,0.3,1.6,0.9,2.1
					c0.6,0.6,1.4,1,2.2,1.2c1.5,0.3,3,0.3,4.5,0.1c0.9-0.2,1.8-0.6,2.5-1.3c0.6-0.5,0.9-1.2,0.9-2c0-0.8,0-1.6,0-2.4
					C126.7,89.2,126.7,89.1,126.7,88.9z M92.1,84.9c0-0.7,0-1.4,0-2.1c0-0.8-0.3-1.4-0.8-1.9c-0.7-0.7-1.4-1.1-2.3-1.3
					c-1.4-0.3-2.8-0.3-4.2-0.1c-1,0.2-1.9,0.6-2.6,1.4c-0.5,0.5-0.8,1.1-0.8,1.9c0,0.7,0,1.3,0,2c0,0.6,0.2,1.1,0.6,1.5
					c0.3,0.2,0.6,0.5,0.9,0.7c1,0.6,2,1.2,2.9,1.8c0.4,0.2,0.8,0.5,1.2,0.8c0.2,0.2,0.4,0.4,0.4,0.7c0,0.6,0,1.2,0,1.8
					c0,0.2-0.1,0.4-0.3,0.4c-0.2,0-0.5,0.1-0.7,0.1c-0.4,0-0.5-0.2-0.5-0.6c0-0.7,0-1.3,0-2c0-0.1,0-0.3,0-0.4
					c-0.6-0.1-4.2-0.1-4.5,0c0,0.7,0,1.5,0,2.3c0,0.9,0.3,1.5,0.9,2.1c0.6,0.6,1.4,1,2.2,1.2c1.6,0.4,3.1,0.3,4.7,0
					c0.9-0.2,1.7-0.7,2.4-1.4c0.4-0.5,0.7-1.1,0.7-1.7c0-0.7,0-1.3,0-2c0-0.9-0.4-1.6-1.1-2.1c-0.1-0.1-0.3-0.2-0.4-0.3
					c-1-0.6-2-1.1-2.9-1.7c-0.4-0.2-0.7-0.4-1.1-0.7c-0.3-0.2-0.5-0.4-0.5-0.8c0-0.6,0-1.1,0-1.7c0-0.3,0.2-0.5,0.5-0.5
					c0.1,0,0.2,0,0.4,0c0.4,0,0.5,0.2,0.5,0.6c0,0.6,0,1.2,0,1.8c0,0.1,0,0.3,0,0.5C89.1,84.9,90.6,84.9,92.1,84.9z M105.5,94.9
					c0.5,0.1,8.8,0.1,9.1,0c0-0.9,0-1.7,0-2.6c-0.2,0-0.3,0-0.5,0c-1.1,0-2.2,0-3.3,0c-0.2,0-0.3,0-0.5,0c-0.1-0.8,0-3.3,0-3.7
					c0.3,0,0.7,0,1,0c0.3,0,0.7,0,1,0c0.3,0,0.7,0.1,1-0.1c0-0.7,0-1.5,0-2.2c-1.1,0-2.1,0-3.1,0c0-1.4,0-2.7,0-4.1
					c0.2,0,0.3,0,0.5,0c1.1,0,2.2,0,3.3,0c0.1,0,0.3,0,0.4,0c0-0.9,0-1.7,0-2.5c-0.4-0.1-8.7-0.1-9.1,0
					C105.5,84.7,105.5,89.8,105.5,94.9z M101.1,94.9c0-4.3,0-8.5,0-12.8c1,0,2,0,3,0c0.1-0.5,0.1-2.2,0-2.6
					c-0.4-0.1-10.5-0.1-10.8,0c-0.1,0.4-0.1,2.2,0,2.6c1,0,2,0,3,0c0,4.3,0,8.5,0,12.8C97.9,94.9,99.5,94.9,101.1,94.9z"/>
				<path class="st5" d="M134.2,87.3c0,1.5,0,3,0,4.5c0,0.5-0.1,0.6-0.6,0.7c-0.2,0-0.3,0-0.5,0c-0.5-0.1-0.6-0.2-0.6-0.7
					c0-3,0-6,0-9c0-0.5,0.1-0.6,0.6-0.7c0.1,0,0.2,0,0.2,0c0.7,0,0.8,0.1,0.8,0.9C134.2,84.4,134.2,85.9,134.2,87.3z"/>
			</g>
		</g>
	</g>
	<g>
		<g>
			<path class="st6" d="M168.5,992.2h13.8c2.7,0,4.8,0.2,6.1,0.5s2.5,1.1,3.6,2.2c1.1,1.1,1.9,2.6,2.7,4.5c0.7,1.9,1.1,4,1.1,6.3
				c0,2.5-0.4,4.8-1.3,6.9c-0.9,2.1-2.1,3.7-3.5,4.7c2.1,1,3.7,2.6,4.9,4.9c1.1,2.3,1.7,5,1.7,8.1c0,2.4-0.4,4.8-1.1,7.1
				c-0.7,2.3-1.7,4.2-3,5.5c-1.3,1.4-2.8,2.2-4.7,2.5c-1.2,0.2-4,0.3-8.4,0.4h-11.8V992.2z M175.4,1001.2v12.4h4.6
				c2.7,0,4.4-0.1,5.1-0.2c1.2-0.2,2.1-0.9,2.8-1.9c0.7-1.1,1-2.5,1-4.2c0-1.7-0.3-3-0.9-4s-1.5-1.7-2.6-1.9c-0.7-0.1-2.7-0.2-6-0.2
				H175.4z M175.4,1022.5v14.4h6.5c2.5,0,4.1-0.1,4.8-0.3c1-0.3,1.9-1,2.5-2.1c0.7-1.1,1-2.7,1-4.6c0-1.6-0.3-3-0.8-4.1
				c-0.5-1.1-1.2-1.9-2.2-2.5c-1-0.5-3-0.8-6.2-0.8H175.4z"/>
			<path class="st6" d="M203.3,1045.9v-53.7h25.6v9.1h-18.6v11.9h17.3v9h-17.3v14.6h19.3v9H203.3z"/>
			<path class="st6" d="M240.4,1045.9l-8.2-53.7h7.1l5.2,36.9l6.3-36.9h8.3l6.1,37.5l5.3-37.5h7l-8.4,53.7h-7.4l-6.9-40.1l-6.9,40.1
				H240.4z"/>
			<path class="st6" d="M309.5,1045.9h-7.6l-3-12.2h-13.8l-2.9,12.2h-7.4l13.5-53.7h7.4L309.5,1045.9z M296.7,1024.7l-4.8-19.9
				l-4.7,19.9H296.7z"/>
			<path class="st6" d="M313.3,1045.9v-53.7h14.7c3.7,0,6.4,0.5,8,1.4c1.7,1,3,2.7,4,5.1c1,2.5,1.5,5.3,1.5,8.5c0,4-0.8,7.4-2.3,10
				c-1.5,2.6-3.8,4.3-6.8,5c1.5,1.4,2.8,2.9,3.7,4.5c1,1.6,2.3,4.5,4,8.7l4.2,10.5H336l-5-11.7c-1.8-4.2-3-6.8-3.7-7.9
				c-0.7-1.1-1.4-1.8-2.1-2.2c-0.7-0.4-1.9-0.6-3.5-0.6h-1.4v22.4H313.3z M320.2,1014.9h5.2c3.3,0,5.4-0.2,6.3-0.7
				c0.8-0.4,1.5-1.2,2-2.3c0.5-1.1,0.7-2.4,0.7-4c0-1.8-0.3-3.3-0.9-4.4c-0.6-1.1-1.5-1.8-2.6-2.1c-0.6-0.1-2.3-0.2-5.1-0.2h-5.4
				V1014.9z"/>
			<path class="st6" d="M348.1,1045.9v-53.7h25.6v9.1h-18.6v11.9h17.3v9h-17.3v14.6h19.3v9H348.1z"/>
			<path class="st6" d="M407.1,1045.9v-53.7h25.6v9.1h-18.6v11.9h17.3v9h-17.3v14.6h19.3v9H407.1z"/>
			<path class="st6" d="M435.8,1045.9l11.8-28l-10.7-25.7h8.2l6.9,17.2l6.8-17.2h8.1l-10.7,26.1l11.8,27.6h-8.4l-7.7-18.6l-7.7,18.6
				H435.8z"/>
			<path class="st6" d="M471.5,1045.9v-53.7h11.2c4.2,0,7,0.3,8.3,0.8c2,0.8,3.6,2.6,5,5.3c1.3,2.7,2,6.2,2,10.5
				c0,3.3-0.4,6.1-1.2,8.3c-0.8,2.2-1.7,4-2.9,5.3c-1.2,1.3-2.4,2.1-3.6,2.5c-1.7,0.5-4.1,0.8-7.2,0.8h-4.5v20.3H471.5z
				 M478.5,1001.3v15.2h3.8c2.7,0,4.6-0.3,5.5-0.8c0.9-0.6,1.7-1.4,2.2-2.6c0.5-1.2,0.8-2.6,0.8-4.2c0-2-0.4-3.6-1.1-4.8
				c-0.7-1.3-1.7-2.1-2.8-2.4c-0.8-0.2-2.5-0.4-5-0.4H478.5z"/>
			<path class="st6" d="M503.9,1045.9v-53.2h7v44.2h17.3v9H503.9z"/>
			<path class="st6" d="M531.7,1019.4c0-5.5,0.5-10.1,1.6-13.8c0.8-2.7,1.9-5.2,3.2-7.4c1.4-2.2,2.8-3.8,4.5-4.8
				c2.2-1.4,4.6-2.1,7.4-2.1c5.1,0,9.2,2.5,12.2,7.4c3.1,4.9,4.6,11.7,4.6,20.5c0,8.7-1.5,15.4-4.5,20.3c-3,4.9-7.1,7.3-12.2,7.3
				c-5.1,0-9.2-2.4-12.3-7.3C533.3,1034.7,531.7,1028,531.7,1019.4z M538.9,1019c0,6.1,0.9,10.7,2.7,13.8c1.8,3.1,4.1,4.7,6.9,4.7
				s5.1-1.6,6.8-4.7c1.8-3.1,2.7-7.8,2.7-14c0-6.2-0.9-10.7-2.6-13.8c-1.7-3-4-4.5-6.9-4.5s-5.2,1.5-7,4.6
				C539.8,1008.3,538.9,1012.9,538.9,1019z"/>
			<path class="st6" d="M568.9,1028.5l6.8-1c0.4,3.5,1.2,6.1,2.5,7.8s2.9,2.5,5.1,2.5c2.2,0,3.9-0.7,5.1-2.2
				c1.1-1.5,1.7-3.2,1.7-5.2c0-1.3-0.2-2.3-0.7-3.2c-0.5-0.9-1.3-1.7-2.5-2.3c-0.8-0.4-2.7-1.2-5.6-2.3c-3.7-1.4-6.4-3.2-7.9-5.3
				c-2.1-3-3.2-6.6-3.2-10.8c0-2.7,0.5-5.3,1.5-7.7c1-2.4,2.4-4.2,4.3-5.4c1.9-1.2,4.1-1.9,6.8-1.9c4.3,0,7.6,1.5,9.8,4.4
				s3.3,6.9,3.5,11.8l-7,0.5c-0.3-2.8-0.9-4.7-1.9-6c-1-1.2-2.5-1.8-4.4-1.8c-2,0-3.6,0.6-4.8,1.9c-0.7,0.8-1.1,1.9-1.1,3.3
				c0,1.3,0.3,2.4,1,3.3c0.9,1.1,3,2.3,6.4,3.6c3.4,1.2,5.9,2.5,7.5,3.9s2.9,3.1,3.8,5.5c0.9,2.3,1.4,5.2,1.4,8.6
				c0,3.1-0.6,6-1.6,8.6c-1.1,2.7-2.7,4.7-4.7,6c-2,1.3-4.5,2-7.5,2c-4.4,0-7.7-1.6-10.1-4.7C570.8,1039,569.4,1034.5,568.9,1028.5z
				"/>
			<path class="st6" d="M602.7,1045.9v-53.7h7v53.7H602.7z"/>
			<path class="st6" d="M625.1,1045.9l-12.3-53.7h7.6l8.7,39.7l8.5-39.7h7.4l-12.4,53.7H625.1z"/>
			<path class="st6" d="M648.5,1045.9v-53.7h25.6v9.1h-18.6v11.9h17.3v9h-17.3v14.6h19.3v9H648.5z"/>
		</g>
		<g>
			<path class="st6" d="M195.9,920.1c0,2.8-0.9,5.1-2.7,7s-4,2.8-6.6,2.8c-2.6,0-4.8-1-6.6-2.9c-1.8-1.9-2.7-4.2-2.7-7
				c0-2.8,0.9-5.1,2.7-7c1.8-1.9,4-2.9,6.6-2.9c1,0,1.6,0,1.8,0.1V899c0-1.4-2.7-2.8-8-4.1c-5.4-1.3-10.2-2.4-14.6-3.2
				c0.2-4.8,1.3-8.6,3.5-11.5c2.2-2.9,5.3-4.4,9.4-4.4c1.7,0,4,0.4,6.9,1.2c2.9,0.8,5.1,1.2,6.3,1.2c1.4,0,2.1-1,2.3-2.9l5.9,1.7
				c-1.5,5.3-4.1,7.9-8,7.9c-1.5,0-3.5-0.4-6.2-1.1c-2.7-0.7-4.7-1.1-6.1-1.1c-3.5,0-5.6,1.4-6,4.3c6.2,1.4,11.4,2.9,15.6,4.4
				c4.2,1.6,6.3,4.2,6.3,8.1V920.1z M190.7,919.9c0-1.2-0.4-2.3-1.2-3.1c-0.8-0.9-1.8-1.3-2.9-1.3s-2.1,0.4-2.9,1.3
				c-0.8,0.9-1.2,1.9-1.2,3.1c0,1.2,0.4,2.3,1.2,3.1c0.8,0.9,1.8,1.3,2.9,1.3s2.1-0.4,2.9-1.3C190.3,922.2,190.7,921.1,190.7,919.9z
				"/>
			<path class="st6" d="M239.4,877.2c-0.4,13.8-6.4,20.7-18,20.7c-4.8,0-8.5-1.1-11.1-3.2c-2.6-2.1-3.9-4.8-3.9-8.1
				c0-2.5,0.8-4.6,2.4-6.4c1.6-1.7,3.6-2.6,5.9-2.6c2.5,0,4.5,0.9,6.1,2.7c1.6,1.8,2.4,3.9,2.4,6.3c0,2.3-0.6,4.1-1.8,5.2
				c7.5-0.3,11.2-5.2,11.2-14.6H239.4z M239.4,906.7c-0.4,13.8-6.4,20.7-18,20.7c-4.8,0-8.5-1.1-11.1-3.2c-2.6-2.1-3.9-4.8-3.9-8.1
				c0-2.5,0.8-4.6,2.4-6.4c1.6-1.7,3.6-2.6,5.9-2.6c2.5,0,4.5,0.9,6.1,2.7c1.6,1.8,2.4,3.9,2.4,6.3c0,2.3-0.6,4.1-1.8,5.2
				c7.5-0.3,11.2-5.2,11.2-14.6H239.4z M218.4,886.5c0-1.1-0.4-2.1-1.1-2.9c-0.7-0.8-1.6-1.2-2.7-1.2c-1,0-1.9,0.4-2.6,1.2
				c-0.7,0.8-1,1.7-1,2.9c0,1.1,0.3,2.1,1,2.8c0.7,0.7,1.6,1.1,2.6,1.1c1,0,1.9-0.4,2.7-1.1C218,888.6,218.4,887.6,218.4,886.5z
				 M218.4,916c0-1.1-0.4-2.1-1.1-2.9c-0.7-0.8-1.6-1.2-2.7-1.2c-1,0-1.9,0.4-2.6,1.2c-0.7,0.8-1,1.7-1,2.9c0,1.1,0.3,2.1,1,2.8
				c0.7,0.7,1.6,1.1,2.6,1.1c1,0,1.9-0.4,2.7-1.1C218,918.1,218.4,917.2,218.4,916z"/>
			<path class="st6" d="M283.6,919.3c0,3-0.9,5.5-2.8,7.5c-1.9,1.9-4.2,2.9-6.9,2.9c-2.6,0-4.8-1-6.5-2.9c-1.8-1.9-2.7-4.2-2.7-6.9
				c0-2.8,0.9-5.1,2.7-7.1c1.8-1.9,3.9-2.9,6.5-2.9c0.9,0,1.6,0,2.2,0.1v-18.9c0-5.5-3.7-8.2-11.1-8.2c-3.1,0-5.7,1-7.8,3
				c-2.1,2-3.2,4.7-3.2,8h-7.3c0.2-5.7,2-10.2,5.3-13.3c3.3-3.2,7.6-4.7,13-4.7c5.3,0,9.6,1.1,12.8,3.4c3.9,2.7,5.8,6.8,5.8,12.4
				V919.3z M278.1,919.8c0-1.2-0.4-2.3-1.2-3.1c-0.8-0.9-1.8-1.3-2.9-1.3c-1.1,0-2.1,0.4-2.9,1.3c-0.8,0.9-1.2,1.9-1.2,3.1
				c0,1.2,0.4,2.3,1.2,3.1c0.8,0.9,1.8,1.3,2.9,1.3c1.1,0,2.1-0.4,2.9-1.3C277.7,922.1,278.1,921,278.1,919.8z"/>
			<path class="st6" d="M295.9,845.2c-2.1,14.4-9.3,21.6-21.8,21.6c-4.8,0-8.5-1.1-11.1-3.2c-2.6-2.1-3.9-4.8-3.9-8.1
				c0-2.5,0.8-4.6,2.4-6.4c1.6-1.7,3.6-2.6,5.9-2.6c2.5,0,4.5,0.9,6.1,2.7c1.6,1.8,2.4,3.9,2.4,6.3c0,2.3-0.6,4.1-1.8,5.2
				c8.4-0.3,13.3-5.5,14.6-15.5H295.9z M271.1,855.5c0-1.1-0.4-2.1-1.1-2.9c-0.7-0.8-1.6-1.2-2.7-1.2c-1,0-1.9,0.4-2.6,1.2
				c-0.7,0.8-1,1.7-1,2.9c0,1.1,0.3,2.1,1,2.8c0.7,0.7,1.6,1.1,2.6,1.1c1,0,1.9-0.4,2.7-1.1C270.7,857.5,271.1,856.6,271.1,855.5z"
				/>
			<path class="st6" d="M322.1,928.8h-7.4l-22.6-27.4l4.5-5.6l18,21.8v-22.4c-0.2,0.1-1,0.1-2.3,0.1c-2.5,0-4.6-0.9-6.3-2.7
				c-1.7-1.8-2.6-4-2.6-6.8c0-2.8,0.9-5.1,2.7-7.1c1.8-1.9,3.9-2.9,6.3-2.9c2.8,0,5.2,1,7,2.9c1.9,2,2.8,4.5,2.8,7.6V928.8z
				 M316.4,885.6c0-1.2-0.4-2.2-1.2-3c-0.8-0.8-1.8-1.3-2.9-1.3c-1.1,0-2.1,0.4-2.9,1.3c-0.8,0.8-1.2,1.9-1.2,3c0,1.2,0.4,2.2,1.2,3
				c0.8,0.8,1.8,1.3,2.9,1.3c1.1,0,2.1-0.4,2.9-1.3C316,887.8,316.4,886.8,316.4,885.6z"/>
			<path class="st6" d="M367.9,919.3c0,3-0.9,5.5-2.8,7.5c-1.9,1.9-4.2,2.9-6.9,2.9c-2.6,0-4.8-1-6.5-2.9c-1.8-1.9-2.7-4.2-2.7-6.9
				c0-2.8,0.9-5.1,2.7-7.1c1.8-1.9,3.9-2.9,6.5-2.9c0.9,0,1.6,0,2.2,0.1v-18.9c0-5.5-3.7-8.2-11.1-8.2c-3.1,0-5.7,1-7.8,3
				c-2.1,2-3.2,4.7-3.2,8H331c0.2-5.7,2-10.2,5.3-13.3c3.3-3.2,7.6-4.7,13-4.7c5.3,0,9.6,1.1,12.8,3.4c3.9,2.7,5.8,6.8,5.8,12.4
				V919.3z M362.3,919.8c0-1.2-0.4-2.3-1.2-3.1c-0.8-0.9-1.8-1.3-2.9-1.3c-1.1,0-2.1,0.4-2.9,1.3c-0.8,0.9-1.2,1.9-1.2,3.1
				c0,1.2,0.4,2.3,1.2,3.1c0.8,0.9,1.8,1.3,2.9,1.3c1.1,0,2.1-0.4,2.9-1.3C361.9,922.1,362.3,921,362.3,919.8z"/>
			<path class="st6" d="M380.1,845.2c-2.1,14.4-9.3,21.6-21.8,21.6c-4.8,0-8.5-1.1-11.1-3.2c-2.6-2.1-3.9-4.8-3.9-8.1
				c0-2.5,0.8-4.6,2.4-6.4c1.6-1.7,3.6-2.6,5.9-2.6c2.5,0,4.5,0.9,6.1,2.7c1.6,1.8,2.4,3.9,2.4,6.3c0,2.3-0.6,4.1-1.8,5.2
				c8.4-0.3,13.3-5.5,14.6-15.5H380.1z M355.3,855.5c0-1.1-0.4-2.1-1.1-2.9c-0.7-0.8-1.6-1.2-2.7-1.2c-1,0-1.9,0.4-2.6,1.2
				c-0.7,0.8-1,1.7-1,2.9c0,1.1,0.3,2.1,1,2.8c0.7,0.7,1.6,1.1,2.6,1.1c1,0,1.9-0.4,2.7-1.1C354.9,857.5,355.3,856.6,355.3,855.5z"
				/>
			<path class="st6" d="M416.8,928.8h-7.5v-34.1c0-5.5-1.4-9.5-4.2-12l-7.5,5.8l-7.4-5.8c-3.4,1.8-5.1,5.9-5.1,12.3
				c0,2.1,0.6,5.2,1.8,9.2c1.2,4.1,1.8,7.1,1.8,9.1c0,1.4-0.2,2.8-0.7,4.3c0.5-1.2,1.7-2.9,3.5-5.1c1.9-2.2,3.6-3.8,5.3-4.9
				c-2.2-0.2-3.9-1.1-5.1-2.7c-1.3-1.6-1.9-3.5-1.9-5.5c0-2.3,0.7-4.3,2.2-6c1.5-1.6,3.3-2.5,5.5-2.5c2.2,0,4,0.8,5.6,2.5
				c1.5,1.6,2.3,3.6,2.3,6c0,3.7-1.8,7.7-5.4,11.8c-4.8,5.5-7.7,9.1-8.5,10.8c-1.2,2.5-1.8,4.7-1.8,6.6h-7.5c0.2-3.3,0.2-6.6,0.2-10
				c0-3.5-0.5-6.7-1.5-9.6c-2.1-6.2-3.2-10.9-3.2-14c0-4.8,1.1-8.9,3.4-12.3c2.2-3.5,5.4-5.8,9.6-7l6.9,5.6l6.4-5.6
				c8.6,1.4,12.9,7.6,12.9,18.7V928.8z M401.1,899.4c0-1.1-0.3-2.1-1-2.8c-0.7-0.7-1.6-1.1-2.6-1.1c-1,0-1.9,0.4-2.6,1.1
				c-0.7,0.7-1,1.7-1,2.8c0,1.1,0.3,2.1,1,2.8c0.7,0.7,1.6,1.1,2.6,1.1c1,0,1.9-0.4,2.6-1.1C400.8,901.5,401.1,900.5,401.1,899.4z"
				/>
			<path class="st6" d="M464.1,928.8h-7.5v-34.4c0-3.5-1-6.4-3-8.4c-2-2.1-4.7-3.1-8-3.1c-4.8,0-8.5,2.2-11,6.5
				c3.8,0.8,6.5,2.7,8.1,5.8c-4.1,2.6-6.2,5.7-6.2,9.4v6.1c0.6-0.3,1.3-0.5,2.3-0.5c2.5,0,4.6,0.9,6.3,2.8c1.7,1.9,2.6,4.2,2.6,7
				c0,2.8-0.9,5.1-2.7,7c-1.8,1.9-3.9,2.9-6.5,2.9c-2.7,0-4.9-1-6.8-3c-1.9-2-2.8-4.5-2.8-7.5v-15.2c0-3.6,1.7-6.5,5-8.6
				c-2-1.5-4.5-2-7.4-1.6c0.2-5.4,2.1-9.8,5.8-13.3c3.4-3.2,7.7-4.8,12.9-4.8c5.8,0,10.4,1.7,13.7,5c3.3,3.3,5,7.9,5,13.6V928.8z
				 M442.9,920c0-1.2-0.4-2.2-1.2-3.1c-0.8-0.9-1.8-1.3-2.9-1.3c-1.1,0-2.1,0.4-2.9,1.3c-0.8,0.9-1.2,1.9-1.2,3.1
				c0,1.2,0.4,2.2,1.2,3.1c0.8,0.9,1.8,1.3,2.9,1.3c1.1,0,2.1-0.4,2.9-1.3C442.5,922.2,442.9,921.2,442.9,920z"/>
			<path class="st6" d="M464.1,959.3h-7.3v-9.9h-0.5c-2,0-3.7-0.8-5.1-2.3c-1.4-1.5-2.1-3.3-2.1-5.4c0-2.2,0.7-4,2.1-5.6
				c1.4-1.6,3.2-2.3,5.3-2.3c2,0,3.8,0.7,5.3,2.1c1.5,1.4,2.3,3.3,2.3,5.7V959.3z M459.8,941.4c0-1-0.3-1.8-1-2.5
				c-0.6-0.7-1.4-1-2.3-1c-0.9,0-1.7,0.3-2.4,1c-0.7,0.7-1,1.5-1,2.5c0,1,0.3,1.8,1,2.5c0.7,0.7,1.5,1.1,2.4,1.1
				c0.9,0,1.7-0.4,2.3-1.1C459.5,943.2,459.8,942.3,459.8,941.4z"/>
			<path class="st6" d="M503,920.1c0,2.8-0.9,5.1-2.7,7s-4,2.8-6.6,2.8c-2.6,0-4.8-1-6.6-2.9c-1.8-1.9-2.7-4.2-2.7-7
				c0-2.8,0.9-5.1,2.7-7c1.8-1.9,4-2.9,6.6-2.9c1,0,1.6,0,1.8,0.1V899c0-1.4-2.7-2.8-8-4.1c-5.4-1.3-10.2-2.4-14.6-3.2
				c0.2-4.8,1.3-8.6,3.5-11.5c2.2-2.9,5.3-4.4,9.4-4.4c1.7,0,4,0.4,6.9,1.2c2.9,0.8,5.1,1.2,6.3,1.2c1.4,0,2.1-1,2.3-2.9l5.9,1.7
				c-1.5,5.3-4.1,7.9-8,7.9c-1.5,0-3.5-0.4-6.2-1.1c-2.7-0.7-4.7-1.1-6.1-1.1c-3.5,0-5.6,1.4-6,4.3c6.2,1.4,11.4,2.9,15.6,4.4
				c4.2,1.6,6.3,4.2,6.3,8.1V920.1z M497.8,919.9c0-1.2-0.4-2.3-1.2-3.1c-0.8-0.9-1.8-1.3-2.9-1.3s-2.1,0.4-2.9,1.3
				c-0.8,0.9-1.2,1.9-1.2,3.1c0,1.2,0.4,2.3,1.2,3.1c0.8,0.9,1.8,1.3,2.9,1.3s2.1-0.4,2.9-1.3C497.4,922.2,497.8,921.1,497.8,919.9z
				"/>
			<path class="st6" d="M546.5,877.2c-0.4,13.8-6.4,20.7-18,20.7c-4.8,0-8.5-1.1-11.1-3.2c-2.6-2.1-3.9-4.8-3.9-8.1
				c0-2.5,0.8-4.6,2.4-6.4c1.6-1.7,3.6-2.6,5.9-2.6c2.5,0,4.5,0.9,6.1,2.7c1.6,1.8,2.4,3.9,2.4,6.3c0,2.3-0.6,4.1-1.8,5.2
				c7.5-0.3,11.2-5.2,11.2-14.6H546.5z M546.5,906.7c-0.4,13.8-6.4,20.7-18,20.7c-4.8,0-8.5-1.1-11.1-3.2c-2.6-2.1-3.9-4.8-3.9-8.1
				c0-2.5,0.8-4.6,2.4-6.4c1.6-1.7,3.6-2.6,5.9-2.6c2.5,0,4.5,0.9,6.1,2.7c1.6,1.8,2.4,3.9,2.4,6.3c0,2.3-0.6,4.1-1.8,5.2
				c7.5-0.3,11.2-5.2,11.2-14.6H546.5z M525.5,886.5c0-1.1-0.4-2.1-1.1-2.9c-0.7-0.8-1.6-1.2-2.7-1.2c-1,0-1.9,0.4-2.6,1.2
				c-0.7,0.8-1,1.7-1,2.9c0,1.1,0.3,2.1,1,2.8c0.7,0.7,1.6,1.1,2.6,1.1c1,0,1.9-0.4,2.7-1.1C525.1,888.6,525.5,887.6,525.5,886.5z
				 M525.5,916c0-1.1-0.4-2.1-1.1-2.9c-0.7-0.8-1.6-1.2-2.7-1.2c-1,0-1.9,0.4-2.6,1.2c-0.7,0.8-1,1.7-1,2.9c0,1.1,0.3,2.1,1,2.8
				c0.7,0.7,1.6,1.1,2.6,1.1c1,0,1.9-0.4,2.7-1.1C525.1,918.1,525.5,917.2,525.5,916z"/>
			<path class="st6" d="M575.7,919.9c0,2.8-0.9,5.1-2.7,7c-1.8,1.9-4,2.9-6.5,2.9c-2.7,0-5-1-6.9-3c-1.9-2-2.8-4.5-2.8-7.5v-42.4
				h7.5v33.4c0.4-0.2,1.1-0.3,2.2-0.3c2.5,0,4.7,1,6.5,2.9C574.8,914.8,575.7,917.2,575.7,919.9z M570.7,919.9
				c0-1.2-0.4-2.3-1.2-3.1c-0.8-0.9-1.8-1.3-2.9-1.3c-1.1,0-2.1,0.4-2.9,1.3c-0.8,0.9-1.2,1.9-1.2,3.1c0,1.2,0.4,2.3,1.2,3.1
				c0.8,0.9,1.8,1.3,2.9,1.3c1.1,0,2.1-0.4,2.9-1.3C570.2,922.2,570.7,921.1,570.7,919.9z"/>
			<path class="st6" d="M623.8,917.1c0,8.5-5.8,12.7-17.5,12.7c-11.8,0-17.6-4.2-17.6-12.7v-21.7c-0.8,0.2-1.5,0.3-2.1,0.3
				c-2.6,0-4.8-1-6.5-2.9c-1.8-2-2.7-4.3-2.7-7.1c0-2.7,0.9-5,2.7-6.9c1.8-1.9,3.9-2.9,6.5-2.9c2.7,0,5,1,6.8,3
				c1.8,2,2.7,4.5,2.7,7.5v30.7c0,1.7,1.1,3.1,3.3,4.1c2.2,1,4.5,1.6,6.9,1.6c2.3,0,4.6-0.5,6.8-1.6c2.2-1,3.3-2.4,3.3-4.1v-40.2
				h7.5V917.1z M590.7,885.7c0-1.2-0.4-2.3-1.2-3.1c-0.8-0.9-1.8-1.3-2.9-1.3c-1.1,0-2.1,0.4-2.9,1.3c-0.8,0.9-1.2,1.9-1.2,3.1
				c0,1.2,0.4,2.3,1.2,3.1c0.8,0.9,1.8,1.3,2.9,1.3c1.1,0,2.1-0.4,2.9-1.3C590.3,888,590.7,887,590.7,885.7z"/>
			<path class="st6" d="M624.1,870.3c-10-3.5-19.1-5.2-27.4-5.2c-3.8,0-7.6,0.3-11.5,0.8c1-11.6,6.8-17.4,17.6-17.4
				c6.2,0,11.1,2,14.7,6C621.2,858.5,623.3,863.8,624.1,870.3z M616.3,862.6c-0.5-2.2-1.9-4.2-4.4-6.1c-2.4-1.9-5.2-2.9-8.2-2.9
				c-2.9,0-5.4,0.6-7.5,1.9c-2.1,1.3-3.4,2.9-4,5c1.4-0.3,3.5-0.5,6.4-0.5C604.6,860,610.5,860.9,616.3,862.6z"/>
			<path class="st6" d="M672.8,928.8h-7.5V894c0-3.3-1.1-6-3.4-8c-2.3-2.1-5-3.1-8.1-3.1c-3.4,0-6.3,1.2-8.8,3.7
				c-2.5,2.5-3.7,5.4-3.7,8.9c0,2.2,0.7,5.2,2,9.2c1.3,4,2,6.9,2,8.9c0,0.6-0.1,1.4-0.2,2.5c2.3-4.1,4.9-7.5,7.7-10.3
				c-2.3-0.2-4-1.1-5.3-2.9c-1.2-1.5-1.8-3.3-1.8-5.5c0-2.3,0.8-4.2,2.4-5.9c1.6-1.7,3.4-2.5,5.6-2.5c2.2,0,4,0.8,5.6,2.5
				c1.5,1.7,2.3,3.7,2.3,5.9c0,3.9-1.8,8.2-5.3,13c-4.9,6.5-7.6,10.4-8.3,11.7c-1.2,2.3-1.8,4.5-1.8,6.6h-7.6
				c0.1-3.2,0.1-6.2,0.1-8.8c0-4.7-0.5-8.3-1.5-10.8c-0.7-2.3-1.5-4.6-2.2-7c-0.7-2.4-1.1-4.5-1.1-6.3c0-5.9,1.9-10.7,5.7-14.4
				c3.8-3.7,8.5-5.6,14-5.6c5.6,0,10.1,1.6,13.7,4.7c3.8,3.4,5.7,8,5.7,13.9V928.8z M657.2,897.4c0-1.1-0.3-2.1-1-2.8
				c-0.7-0.7-1.6-1.1-2.6-1.1c-1,0-1.9,0.4-2.6,1.1c-0.7,0.7-1,1.7-1,2.8c0,1.1,0.3,2.1,1,2.8c0.7,0.7,1.6,1.1,2.6,1.1
				c1,0,1.9-0.4,2.6-1.1C656.8,899.5,657.2,898.6,657.2,897.4z"/>
		</g>
	</g>
	<g>
		<g>
			<path class="st7" d="M443.7,87.9c0,0-5.2-13.1-22-13.1c-16.8,0-24.6,13.1-24.6,13.1L56.5,684c0,0-8.6,15-0.7,29
				c0,0,8.2,13.8,21.8,13.8c13.6,0,682.6,0,682.6,0s18.3,0.5,25.6-14c6.1-12.1,3.1-21.5,0.2-27.1L443.7,87.9"/>
			<polyline class="st8" points="421.3,140.2 112.7,679 727.9,679 421.3,140.2 			"/>
		</g>
		<g>
			<path class="st7" d="M346.1,567.5c4.2-0.5,8.5,0.1,11.3,2.4c1.9,1.5,1.3,4.7-0.8,7.3c-1.8,2.3,0.3,7.2-1,10.3
				c-0.5,1.2-2,3.1-3.3,3.5c-6.7,2-16.2,4.8-19.6-1.2c-2-3.5-0.4-10.3,2.3-14.5c1.6-2.6,0.6-6.7,4-7.5
				C341.2,567.2,343.6,567.8,346.1,567.5"/>
			<path class="st7" d="M483.2,596.2c5.1,1.1,13.5,0.4,13.7,7c0,0.7,0.8,1.2,1.7,0.9c0.8,2.9-2,5.1-3.1,5.7
				c-8.1,4.9-17.3,3.7-26.6,2c-4.9-0.9-9-7.2-6.8-11.1c1.9-3.3,5.1-6.4,9.4-7.6C476,591.9,479.1,595.3,483.2,596.2"/>
			<path class="st7" d="M449.4,603.5c1.4,2.9,1.2,6.3-2.3,8c-4.2,2.1-7.9-0.4-11.7,1.9c-0.8-1.5-2.9-1.5-3.4-2.8
				c-1.3-3.6,0.5-6.8,3.5-8.9C440.3,598.4,446.9,598.4,449.4,603.5"/>
			<path class="st7" d="M408.4,592.3c0.4,0.7,0.9,1.2,1.8,0.9c-1.8,3.4-5.2,5.4-9,4.4c-3.5-1-6.2-3.6-4.2-6.9
				c0.3-0.5,1.6-0.7,1.4-2.1C402.2,588.4,406.3,588.2,408.4,592.3"/>
			<path class="st7" d="M400.4,547.4c0.8,2.6,1.6,5.7-0.4,6.9c-6.8,4-18.3-0.6-16.1-9.4c1.2-4.7,7.4-3.4,11.8-2.6
				C398,542.7,399.5,544.8,400.4,547.4"/>
			<path class="st7" d="M322.6,630.7c-17.3,7.4-38.2,3.3-50.1-11.3c-2.3-2.8-4.6-5.8-6.5-8.9c-2.3-3.7-2.8-8-4.1-12
				c-1.9-5.9-1.7-12.8-0.1-18.8c2.1-7.8,6.5-14.6,11.6-20.9c4.8-5.9,10.7-10,18.5-9.2c1.4,0.1,3.2,1,4.3,1.9
				c5.8,4.5,2.2,13-1.2,18.2c-2.4,3.7,1.1,6.2,4.2,6.5c5.7,0.5,12.5-2.4,17.6,2.8c2.2,2.3,7.9,1.4,9.7,3.7c2.8,3.7-2.5,8.2-3.6,13.3
				c-0.6,2.6-1.3,6.2,1.6,7c2.9,0.8,5.9,0,8.9,0.4c3.1,0.4,4.3,3.5,5.9,5.7c1.2,1.6,1.2,5,0,6.7c-2.2,3.3-3.1,7.9-6.9,9.1
				C328.5,626.1,326.1,629.2,322.6,630.7"/>
			<path class="st7" d="M327.1,553.1c2.3,0.4,4.4-1.2,6.2,0c3.2,2.2,4,5.8,1.6,8.7c-2.7,3.2-6.8,5.5-10.6,6.1
				c-6.5,1-12.9-1.9-18.7-5.3c-2.3-1.4-1.3-5.3,0.1-6.5C311.7,551.3,319.8,551.7,327.1,553.1"/>
			<path class="st7" d="M287.4,542.9c-0.6,0.6-1.1,1.5-1.8,1.7c-2.1,0.7-4.2,0-6.3-0.8c-0.7,5.5-5.1,8.4-9.7,5.9
				c-2.1-1.2-1.9-5.3-0.8-7.5c1.9-3.8,6.9-2.1,9.6,0.7c1.2-4,1.1-7.5,5.4-7.7C286.4,535,290.7,539.3,287.4,542.9"/>
			<path class="st7" d="M363.8,449.6c0.1,4.1-2.9,6.9-3.3,11c-2.2-0.4-1.4,2.6-2.7,2.6c-3,0.1-6.1,1.7-8.9,0c-2-1.2-3.8-3.9-3.9-5.4
				c-0.8-7.5,4.2-15.9,12-17.9c4.1-1.1,7.3,2.1,8.5,5.4C365.9,446.4,363.8,447.1,363.8,449.6"/>
			<path class="st7" d="M354.6,480.4c-2.4,4.7-9.1,6.9-12.4,2.5c-3.1-4.1,0.1-8.8,4.1-12c1.5-1.3,4-1.8,6.1-0.2
				C355.8,473.3,356.2,477.2,354.6,480.4"/>
			<path class="st7" d="M408.4,559.3c-3.3-0.3-5.8,2.3-9,1.9c1.3-5.8,7.4-6.7,11.6-5.1c0.4,0.1,0.5,2.3-0.1,3.1
				C410.5,559.7,409.3,559.4,408.4,559.3"/>
			<path class="st7" d="M505.1,515.6c-5.5,6-12.6,2.9-19.3,4.7c-1.4,0.4-4.3,0.2-6.1-1.3c-1.6-1.4,0.4-4.7-2.8-5.4
				c3-1.5,1.8-5.3,3.7-7.2c3.5-3.4,7.1-5.8,11.7-7.2c4.7-1.4,9.5-0.3,13.2,2.8c3,2.4,5.9,7.3,2.6,10.3
				C507.2,513.3,506.1,514.6,505.1,515.6"/>
			<path class="st7" d="M467.3,631.6c-1.5,0-9.2,4.3-5.1,10.6c1.4,2.1,4.7,3.3,7.3,4.7c3.2,1.6,5.6,4.1,8.6,5.8
				c1,0.6,2.5,0.8,3.5,0.4c3.8-1.5,9.5-0.4,23.3,0.3c3.8,0.2,7.8,1.4,11.8,1c1-0.1,1.9-1.4,2.4-2c1.9-2.1-0.4-4.4-2.6-5.7
				c-6.5-4-14.8-2.8-20.4-8.7c-1.9-2-5.9-1-8.8-2c-4.5-1.5-8.7-3.2-13.3-4.3c-1.9-0.5-3.8-0.1-5.6-1
				C468.2,630.5,467.1,631.6,467.3,631.6"/>
			<path class="st7" d="M717.2,659l-360-55.6c-4.1-0.6-8.9,6.8-12.4,10.5c-2.8,2.9,5.3,5,5,7.6c-0.4,3.2-3.7,4.9-5.6,8.3
				c2.6,0.4,1.7,4.4,4.5,4.5c1.2,0.1,2.8-0.4,3.4,0.2c4.7,4.6,14.2,8.8,16.4-0.2c-0.9,0.3-1.5-0.2-1.7-0.9c-0.2-0.9-0.3-1.9,0-2.7
				c0.9-1.9,3.2-1.2,4.3-0.7c37.8,18.8,76.4,33.5,113,53.7l88.9,0l-147.5-44.3c-3.9-1.1-4.5-4.6-5.2-8.7c-0.2-1.2-3-2.7-4.8-2.5
				c-3.8,0.3-9.6,3.3-13,3.7l-22.7-6.1c-1.4-0.4-0.8-1.8-0.3-2.3c0.8-0.8,5.8-10.9,5.8-10.9s266,54.6,345.7,71.1L717.2,659"/>
			<polyline class="st7" points="689.6,610.6 672.4,580.8 392.1,580.8 689.6,610.6 			"/>
			<polyline class="st7" points="664.3,565.7 655.3,549.7 471.5,568 664.3,565.7 			"/>
			<polyline class="st7" points="635.4,515.9 621.9,491.7 416.9,553.4 635.4,515.9 			"/>
			<polyline class="st7" points="593.9,442.3 579.4,417.6 408.4,535.6 593.9,442.3 			"/>
			<path class="st7" d="M563.2,387.8l-19.9-34.3l-181,199.4l90.3-70.9c0,0,10.4,0.9,12.2-1.4c1.8-2.3,1.8-7.8-1.4-8.2
				C466.1,469.2,563.2,387.8,563.2,387.8"/>
			<polyline class="st7" points="531.1,331.1 517.6,308.7 399.3,480.2 531.1,331.1 			"/>
			<path class="st7" d="M494.6,268l-15.8-28.4L449.4,300l23-70l-5.4-11L338.4,541.5c0,0,4.5-8.7,11.3-8.7c6.8,0,14.9,1.8,18.5-1.4
				c3.6-3.2,9-9.1,9-9.1s5-8.7-2.7-7.8c-7.7,0.9-6.3,7.3-10.8,0.9c-4.5-6.4-4.1-7.3-0.9-13.3l27.1-48c0,0,2.3-1.8,3.2,0.5
				c0.9,2.3,3.6,6.9,5.4,6.9c1.8,0,2.7-1.8,4.5-3.7c1.8-1.8,4.5-4.6,7.2-5.5c2.7-0.9,4.1-6.9,2.3-9.1c-1.8-2.3-6.3-2.7-8.6-0.9
				c-2.3,1.8-8.1,4.6-6.3,0l34.3-61.7c0,0,4.5-5.5,7.2,0c2.7,5.5,22.1,0,26.6-5c4.5-5,8.1-19.2,7.7-21.5c-0.5-2.3-4.1-7.3-9-2.7
				c-5,4.6-11.7,6.4-13.5,6.4c-1.8,0-5-1.8-2.3-6.4L494.6,268"/>
			<path class="st7" d="M402.2,350.8c-1.2,4.4-3.9,7.4-6.1,11.2c-0.5,0.8-0.9,2.5-1.5,3.2c-5.4,6.7-11.8,15.9-21.4,10.2
				c-3.5-2.1-3.1-6.3-4.9-9.4c-1.5-2.7,0.8-7,2.7-9.3c2.3-2.8,6.7-4.1,8.9-7.2c1.7-2.4,1.9-6.6,3.7-8.3c4.5-4.2,11.5-1.5,17.6-2.2
				c1.6-0.2,2.5,1.9,3.2,2.9C406.5,345.1,403.2,347.3,402.2,350.8"/>
			<path class="st7" d="M383.5,193l-46.9,82.3l-9.9,155.1c0,0-9.5-4.6-13.1,0.9c-3.6,5.5-4.5,17.4-4.1,19.2c0.5,1.8,0.5-0.9-1.4,0.9
				c-1.8,1.8-9.5,12.3-1.8,22.4c7.7,10.1,14,7.8,16.7,8.7c0,4.1-0.4,25.2-0.4,25.2s-15.3-4.1-19.9,1.8c-0.9-4.1-23-134.9-23-134.9
				L268,395.1l33,136.3l-54.2-99.3L235,451.9l36.6,54c0,0-2.7,17.4,0.9,21c3.6,3.7,7.7,1.8,8.1,0.5c0.5-1.4,2.7-3.2,4.5-0.9
				c1.8,2.3,13.5,17.8,13.5,17.8s0.9,5.9,5.9,0.9c5-5,3.2-5,6.8-4.1c3.6,0.9,5.4-2.7,5.4-2.7s4.5-0.9,5.9,0
				C323.9,533.3,383.5,193,383.5,193"/>
			<path class="st7" d="M357.6,538.1c-3.3-1.5-6.1-5.1-9.8-2.5c-2.1,1.5-4,3.7-3.2,6.6c0.4,1.6,0.8,3.5,2.2,4.5
				c3.4,2.2,8.4,2.4,11.1-1.3c2-2.8,1.2-6.2-1.7-8.1L357.6,538.1"/>
		</g>
	</g>
</g>
</svg>
