<?xml version="1.0" encoding="utf-8"?>
<!-- Generator: Adobe Illustrator 22.0.0, SVG Export Plug-In . SVG Version: 6.00 Build 0)  -->
<svg version="1.1" id="Layer_1" xmlns="http://www.w3.org/2000/svg" xmlns:xlink="http://www.w3.org/1999/xlink" x="0px" y="0px"
	 viewBox="0 0 841.9 1190.6" style="enable-background:new 0 0 841.9 1190.6;" xml:space="preserve">
<style type="text/css">
	.st0{fill:none;}
	.st1{fill:#010101;}
	.st2{fill:#FFFFFF;}
	.st3{fill:#FCEE1F;}
	.st4{fill:#EB2627;}
	.st5{fill:#2A3B8F;}
	.st6{fill:#010101;stroke:#010101;stroke-miterlimit:10;}
	.st7{fill-rule:evenodd;clip-rule:evenodd;}
	.st8{fill-rule:evenodd;clip-rule:evenodd;fill:#FCEE1F;}
	.st9{fill:#FCEE23;}
	.st10{fill-rule:evenodd;clip-rule:evenodd;fill:#FCEE23;}
	.st11{fill-rule:evenodd;clip-rule:evenodd;fill:#010101;}
	.st12{fill-rule:evenodd;clip-rule:evenodd;fill:#F3C636;}
	.st13{fill:#DDF1F6;}
	.st14{fill:none;stroke:#231F20;stroke-width:1.000000e-02;}
</style>
<g>
	<g>
		<rect x="0" y="0" class="st0" width="841.9" height="1190.6"/>
		<rect x="28.3" y="28.3" class="st1" width="785.2" height="1133.9"/>
		<rect x="34" y="34" class="st2" width="773.9" height="1122.5"/>
		<rect x="52.5" y="792.6" class="st3" width="737" height="348.7"/>
		<g id="stecon_33_">
			<path id="red_33_" class="st4" d="M52.8,53.5c42.5,0,85,0,127.6,0c0,22.6,0,45.1,0,67.7c-42.5,0-85,0-127.5,0c0-0.2,0-0.5,0-0.7
				c0-22.1,0-44.2,0-66.3C52.9,54,52.8,53.8,52.8,53.5z M55.8,87.4c0.2,0.1,0.4,0.2,0.5,0.3c3.6,1.8,7.1,3.7,10.7,5.5
				c16.4,8.4,32.7,16.8,49.1,25.2c0.4,0.2,0.7,0.2,1.1,0c13.8-7.1,27.6-14.2,41.4-21.3c6.1-3.2,12.3-6.3,18.4-9.5
				c0.1-0.1,0.3-0.2,0.5-0.3c-0.2-0.1-0.3-0.2-0.5-0.3c-3.8-1.9-7.6-3.9-11.4-5.8c-16.2-8.3-32.4-16.7-48.5-25
				c-0.3-0.2-0.5-0.2-0.9,0c-7,3.6-14.1,7.3-21.1,10.9c-12.6,6.5-25.2,12.9-37.7,19.4C56.9,86.8,56.4,87.1,55.8,87.4z"/>
			<g id="white_33_">
				<path class="st2" d="M55.8,87.4c0.6-0.3,1.1-0.6,1.6-0.8c12.6-6.5,25.2-12.9,37.7-19.4c7-3.6,14.1-7.2,21.1-10.9
					c0.3-0.2,0.6-0.1,0.9,0c16.2,8.3,32.4,16.7,48.5,25c3.8,1.9,7.6,3.9,11.4,5.8c0.1,0.1,0.3,0.1,0.5,0.3c-0.2,0.1-0.3,0.2-0.5,0.3
					c-6.1,3.2-12.3,6.3-18.4,9.5c-13.8,7.1-27.6,14.2-41.4,21.3c-0.4,0.2-0.7,0.2-1.1,0C99.7,110,83.4,101.6,67,93.1
					c-3.6-1.8-7.1-3.7-10.7-5.5C56.2,87.6,56,87.5,55.8,87.4z M59.7,87.4c0.2,0.1,0.3,0.2,0.4,0.2c1,0.5,1.9,1,2.9,1.5
					c17.7,9.1,35.5,18.2,53.2,27.3c0.3,0.1,0.5,0.2,0.8,0c12.9-6.6,25.7-13.2,38.6-19.8c5.8-3,11.6-6,17.5-9
					c0.1-0.1,0.3-0.2,0.5-0.3c-0.2-0.1-0.4-0.2-0.6-0.3c-15.9-8.2-31.9-16.4-47.8-24.5c-2.7-1.4-5.5-2.8-8.2-4.2
					c-0.2-0.1-0.4-0.1-0.7,0c-0.3,0.2-0.7,0.4-1.1,0.6C97,68.3,78.6,77.6,60.3,87C60.1,87.1,60,87.2,59.7,87.4z"/>
				<path class="st2" d="M147.4,79.5c1.4,0,2.7,0,4.1,0c0,5.2,0,10.3,0,15.4c-1.4,0-2.8,0-4.2,0c-0.9-2.6-1.8-5.3-2.7-7.9
					c0,0-0.1,0-0.1,0c0,2.6,0,5.2,0,7.9c-1.4,0-2.7,0-4,0c0,0,0,0,0,0c0,0,0,0,0,0c0-0.1,0-0.2,0-0.3c0-4.9,0-9.9,0-14.8
					c0,0,0-0.1,0-0.2c0.1,0,0.3,0,0.4,0c1.2,0,2.3,0,3.5,0c0.4,0,0.4,0,0.5,0.4c0.8,2.5,1.6,5,2.4,7.5c0,0.1,0.1,0.2,0.2,0.4
					C147.4,85,147.4,82.3,147.4,79.5z"/>
				<path class="st2" d="M138.8,87.3c0,1.5,0,3,0,4.5c0,0.8-0.3,1.4-0.8,1.9c-0.7,0.7-1.6,1.2-2.6,1.3c-1.5,0.3-3.1,0.3-4.6-0.1
					c-0.9-0.2-1.6-0.6-2.3-1.3c-0.5-0.5-0.8-1.1-0.8-1.9c0-3,0-6.1,0-9.1c0-0.7,0.2-1.3,0.7-1.8c0.6-0.7,1.4-1.2,2.3-1.4
					c1.7-0.4,3.5-0.4,5.2,0.1c0.7,0.2,1.4,0.6,2,1.2c0.6,0.5,0.9,1.2,0.8,2C138.8,84.3,138.8,85.8,138.8,87.3z M134.2,87.3
					c0-1.5,0-2.9,0-4.4c0-0.7-0.1-0.9-0.8-0.9c-0.1,0-0.2,0-0.2,0c-0.5,0.1-0.6,0.2-0.6,0.7c0,3,0,6,0,9c0,0.5,0.1,0.7,0.6,0.7
					c0.2,0,0.3,0,0.5,0c0.5-0.1,0.6-0.2,0.6-0.7C134.2,90.3,134.2,88.8,134.2,87.3z"/>
				<path class="st2" d="M126.7,88.9c0,0.2,0,0.3,0,0.5c0,0.8,0,1.6,0,2.4c0,0.8-0.3,1.5-0.9,2c-0.7,0.7-1.5,1.1-2.5,1.3
					c-1.5,0.3-3,0.3-4.5-0.1c-0.8-0.2-1.5-0.6-2.2-1.2c-0.6-0.6-0.9-1.2-0.9-2.1c0-3,0-5.9,0-8.9c0-0.9,0.3-1.6,0.9-2.1
					c0.7-0.7,1.6-1.1,2.5-1.2c1.4-0.2,2.9-0.2,4.3,0.1c0.9,0.2,1.6,0.6,2.3,1.2c0.6,0.6,0.9,1.2,0.9,2.1c0,0.8,0,1.7,0,2.5
					c0,0.2,0,0.3,0,0.5c-1.6,0-3.1,0-4.6,0c0-0.2,0-0.3,0-0.5c0-0.9,0-1.7,0-2.6c0-0.5-0.1-0.6-0.6-0.7c-0.1,0-0.2,0-0.3,0
					c-0.7,0.1-0.7,0.3-0.7,0.8c0,2.9,0,5.9,0,8.8c0,0.1,0,0.2,0,0.3c0,0.2,0.1,0.4,0.3,0.4c0.1,0,0.3,0.1,0.4,0.1
					c0.6,0.1,0.8-0.2,0.8-0.8c0-0.8,0-1.5,0-2.3c0-0.2,0-0.3,0-0.5C122.4,88.8,126,88.8,126.7,88.9z"/>
				<path class="st2" d="M105.5,94.9c0-5.1,0-10.2,0-15.3c0.4-0.1,8.7-0.1,9.1,0c0,0.8,0,1.6,0,2.5c-0.1,0-0.3,0-0.4,0
					c-1.1,0-2.2,0-3.3,0c-0.1,0-0.3,0-0.5,0c0,1.4,0,2.7,0,4.1c1,0,2.1,0,3.1,0c0,0.8,0,1.5,0,2.2c-0.4,0.1-0.7,0.1-1,0.1
					c-0.3,0-0.7,0-1,0c-0.3,0-0.7,0-1,0c-0.1,0.3-0.1,2.8,0,3.7c0.1,0,0.3,0,0.5,0c1.1,0,2.2,0,3.3,0c0.2,0,0.3,0,0.5,0
					c0,0.9,0,1.8,0,2.6C114.3,95,106,95,105.5,94.9z"/>
				<path class="st2" d="M101.1,94.9c-1.6,0-3.1,0-4.7,0c0-4.3,0-8.5,0-12.8c-1,0-2,0-3,0c-0.1-0.4-0.1-2.1,0-2.6
					c0.3-0.1,10.4-0.1,10.8,0c0.1,0.3,0.1,2.1,0,2.6c-1,0-2,0-3,0C101.1,86.4,101.1,90.6,101.1,94.9z"/>
				<path class="st2" d="M92.1,84.9c-1.6,0-3.1,0-4.6,0c0-0.2,0-0.3,0-0.5c0-0.6,0-1.2,0-1.8c0-0.4-0.1-0.6-0.5-0.6
					c-0.1,0-0.2,0-0.4,0c-0.3,0-0.5,0.2-0.5,0.5c0,0.6,0,1.1,0,1.7c0,0.4,0.2,0.6,0.5,0.8c0.4,0.2,0.7,0.4,1.1,0.7
					c1,0.6,2,1.1,2.9,1.7c0.1,0.1,0.3,0.2,0.4,0.3c0.7,0.5,1.1,1.2,1.1,2.1c0,0.7,0,1.3,0,2c0,0.7-0.2,1.3-0.7,1.7
					c-0.7,0.7-1.5,1.2-2.4,1.4c-1.5,0.4-3.1,0.4-4.7,0c-0.8-0.2-1.6-0.6-2.2-1.2c-0.6-0.5-0.9-1.2-0.9-2.1c0-0.8,0-1.5,0-2.3
					c0.3-0.1,3.9-0.1,4.5,0c0,0.1,0,0.3,0,0.4c0,0.7,0,1.3,0,2c0,0.4,0.1,0.6,0.5,0.6c0.2,0,0.5,0,0.7-0.1c0.2,0,0.3-0.2,0.3-0.4
					c0-0.6,0-1.2,0-1.8c0-0.3-0.2-0.6-0.4-0.7c-0.4-0.3-0.8-0.5-1.2-0.8c-1-0.6-2-1.2-2.9-1.8c-0.3-0.2-0.6-0.4-0.9-0.7
					c-0.4-0.4-0.6-0.9-0.6-1.5c0-0.7,0-1.3,0-2c0-0.8,0.3-1.4,0.8-1.9c0.7-0.7,1.6-1.2,2.6-1.4c1.4-0.3,2.8-0.3,4.2,0.1
					c0.9,0.2,1.7,0.7,2.3,1.3c0.5,0.5,0.8,1.1,0.8,1.9C92.1,83.5,92.1,84.2,92.1,84.9z"/>
			</g>
			<g id="blue_33_">
				<path class="st5" d="M59.7,87.4c0.3-0.1,0.5-0.2,0.7-0.3c18.3-9.4,36.6-18.8,54.9-28.1c0.4-0.2,0.7-0.4,1.1-0.6
					c0.2-0.1,0.4-0.1,0.7,0c2.7,1.4,5.4,2.8,8.2,4.2c15.9,8.2,31.9,16.4,47.8,24.5c0.2,0.1,0.3,0.2,0.6,0.3
					c-0.2,0.1-0.3,0.2-0.5,0.3c-5.8,3-11.6,6-17.5,9c-12.9,6.6-25.7,13.2-38.6,19.8c-0.3,0.1-0.5,0.1-0.8,0
					C98.5,107.3,80.8,98.2,63,89.1c-1-0.5-1.9-1-2.9-1.5C60,87.5,59.9,87.5,59.7,87.4z M147.4,79.5c0,2.8,0,5.5,0,8.3
					c-0.1-0.1-0.1-0.2-0.2-0.4c-0.8-2.5-1.6-5-2.4-7.5c-0.1-0.4-0.1-0.4-0.5-0.4c-1.2,0-2.3,0-3.5,0c-0.1,0-0.3,0-0.4,0
					c0,0.1,0,0.1,0,0.2c0,4.9,0,9.9,0,14.8c0,0.1,0,0.2,0,0.3c0,0,0,0,0,0c0,0,0,0,0,0c1.3,0,2.7,0,4,0c0-2.7,0-5.3,0-7.9
					c0,0,0.1,0,0.1,0c0.9,2.6,1.8,5.3,2.7,7.9c1.4,0,2.8,0,4.2,0c0-5.1,0-10.2,0-15.4C150.2,79.5,148.8,79.5,147.4,79.5z
					 M138.8,87.3c0-1.5,0-3,0-4.5c0-0.8-0.3-1.5-0.8-2c-0.6-0.6-1.2-1-2-1.2c-1.7-0.5-3.5-0.5-5.2-0.1c-0.9,0.2-1.7,0.7-2.3,1.4
					c-0.4,0.5-0.7,1.1-0.7,1.8c0,3,0,6.1,0,9.1c0,0.8,0.3,1.4,0.8,1.9c0.6,0.7,1.4,1.1,2.3,1.3c1.5,0.3,3.1,0.3,4.6,0.1
					c1-0.2,1.8-0.6,2.6-1.3c0.5-0.5,0.8-1.2,0.8-1.9C138.8,90.3,138.8,88.8,138.8,87.3z M126.7,88.9c-0.6-0.1-4.3-0.1-4.7,0
					c0,0.1,0,0.3,0,0.5c0,0.8,0,1.5,0,2.3c0,0.7-0.2,0.9-0.8,0.8c-0.1,0-0.3,0-0.4-0.1c-0.2-0.1-0.3-0.2-0.3-0.4c0-0.1,0-0.2,0-0.3
					c0-2.9,0-5.9,0-8.8c0-0.5,0-0.7,0.7-0.8c0.1,0,0.2,0,0.3,0c0.5,0.1,0.6,0.2,0.6,0.7c0,0.9,0,1.7,0,2.6c0,0.2,0,0.3,0,0.5
					c1.6,0,3.1,0,4.6,0c0-0.2,0-0.4,0-0.5c0-0.8,0-1.7,0-2.5c0-0.9-0.3-1.5-0.9-2.1c-0.7-0.6-1.4-1-2.3-1.2
					c-1.4-0.3-2.9-0.3-4.3-0.1c-0.9,0.2-1.8,0.6-2.5,1.2c-0.6,0.6-0.9,1.3-0.9,2.1c0,3,0,5.9,0,8.9c0,0.9,0.3,1.6,0.9,2.1
					c0.6,0.6,1.4,1,2.2,1.2c1.5,0.3,3,0.3,4.5,0.1c0.9-0.2,1.8-0.6,2.5-1.3c0.6-0.5,0.9-1.2,0.9-2c0-0.8,0-1.6,0-2.4
					C126.7,89.2,126.7,89.1,126.7,88.9z M92.1,84.9c0-0.7,0-1.4,0-2.1c0-0.8-0.3-1.4-0.8-1.9c-0.7-0.7-1.4-1.1-2.3-1.3
					c-1.4-0.3-2.8-0.3-4.2-0.1c-1,0.2-1.9,0.6-2.6,1.4c-0.5,0.5-0.8,1.1-0.8,1.9c0,0.7,0,1.3,0,2c0,0.6,0.2,1.1,0.6,1.5
					c0.3,0.2,0.6,0.5,0.9,0.7c1,0.6,2,1.2,2.9,1.8c0.4,0.2,0.8,0.5,1.2,0.8c0.2,0.2,0.4,0.4,0.4,0.7c0,0.6,0,1.2,0,1.8
					c0,0.2-0.1,0.4-0.3,0.4c-0.2,0-0.5,0.1-0.7,0.1c-0.4,0-0.5-0.2-0.5-0.6c0-0.7,0-1.3,0-2c0-0.1,0-0.3,0-0.4
					c-0.6-0.1-4.2-0.1-4.5,0c0,0.7,0,1.5,0,2.3c0,0.9,0.3,1.5,0.9,2.1c0.6,0.6,1.4,1,2.2,1.2c1.6,0.4,3.1,0.3,4.7,0
					c0.9-0.2,1.7-0.7,2.4-1.4c0.4-0.5,0.7-1.1,0.7-1.7c0-0.7,0-1.3,0-2c0-0.9-0.4-1.6-1.1-2.1c-0.1-0.1-0.3-0.2-0.4-0.3
					c-1-0.6-2-1.1-2.9-1.7c-0.4-0.2-0.7-0.4-1.1-0.7c-0.3-0.2-0.5-0.4-0.5-0.8c0-0.6,0-1.1,0-1.7c0-0.3,0.2-0.5,0.5-0.5
					c0.1,0,0.2,0,0.4,0c0.4,0,0.5,0.2,0.5,0.6c0,0.6,0,1.2,0,1.8c0,0.1,0,0.3,0,0.5C89.1,84.9,90.6,84.9,92.1,84.9z M105.5,94.9
					c0.5,0.1,8.8,0.1,9.1,0c0-0.9,0-1.7,0-2.6c-0.2,0-0.3,0-0.5,0c-1.1,0-2.2,0-3.3,0c-0.2,0-0.3,0-0.5,0c-0.1-0.8,0-3.3,0-3.7
					c0.3,0,0.7,0,1,0c0.3,0,0.7,0,1,0c0.3,0,0.7,0.1,1-0.1c0-0.7,0-1.5,0-2.2c-1.1,0-2.1,0-3.1,0c0-1.4,0-2.7,0-4.1
					c0.2,0,0.3,0,0.5,0c1.1,0,2.2,0,3.3,0c0.1,0,0.3,0,0.4,0c0-0.9,0-1.7,0-2.5c-0.4-0.1-8.7-0.1-9.1,0
					C105.5,84.7,105.5,89.8,105.5,94.9z M101.1,94.9c0-4.3,0-8.5,0-12.8c1,0,2,0,3,0c0.1-0.5,0.1-2.2,0-2.6
					c-0.4-0.1-10.5-0.1-10.8,0c-0.1,0.4-0.1,2.2,0,2.6c1,0,2,0,3,0c0,4.3,0,8.5,0,12.8C97.9,94.9,99.5,94.9,101.1,94.9z"/>
				<path class="st5" d="M134.2,87.3c0,1.5,0,3,0,4.5c0,0.5-0.1,0.6-0.6,0.7c-0.2,0-0.3,0-0.5,0c-0.5-0.1-0.6-0.2-0.6-0.7
					c0-3,0-6,0-9c0-0.5,0.1-0.6,0.6-0.7c0.1,0,0.2,0,0.2,0c0.7,0,0.8,0.1,0.8,0.9C134.2,84.4,134.2,85.9,134.2,87.3z"/>
			</g>
		</g>
	</g>
	<g>
		<g>
			<path class="st6" d="M125.6,992.2h13.8c2.7,0,4.8,0.2,6.1,0.5s2.5,1.1,3.6,2.2s1.9,2.6,2.7,4.5c0.7,1.9,1.1,4,1.1,6.3
				c0,2.5-0.4,4.8-1.3,6.9c-0.9,2.1-2.1,3.7-3.5,4.7c2.1,1,3.7,2.6,4.9,4.9c1.1,2.3,1.7,5,1.7,8.1c0,2.4-0.4,4.8-1.1,7.1
				c-0.7,2.3-1.7,4.2-3,5.5c-1.3,1.4-2.8,2.2-4.7,2.5c-1.2,0.2-4,0.3-8.4,0.4h-11.8V992.2z M132.6,1001.2v12.4h4.6
				c2.7,0,4.4-0.1,5.1-0.2c1.2-0.2,2.1-0.9,2.8-1.9c0.7-1.1,1-2.5,1-4.2c0-1.7-0.3-3-0.9-4s-1.5-1.7-2.6-1.9c-0.7-0.1-2.7-0.2-6-0.2
				H132.6z M132.6,1022.5v14.4h6.5c2.5,0,4.1-0.1,4.8-0.3c1-0.3,1.9-1,2.5-2.1c0.7-1.1,1-2.7,1-4.6c0-1.6-0.3-3-0.8-4.1
				c-0.5-1.1-1.2-1.9-2.2-2.5c-1-0.5-3-0.8-6.2-0.8H132.6z"/>
			<path class="st6" d="M160.4,1045.9v-53.7H186v9.1h-18.6v11.9h17.3v9h-17.3v14.6h19.3v9H160.4z"/>
			<path class="st6" d="M197.5,1045.9l-8.2-53.7h7.1l5.2,36.9l6.3-36.9h8.3l6.1,37.5l5.3-37.5h7l-8.4,53.7h-7.4l-6.9-40.1l-6.9,40.1
				H197.5z"/>
			<path class="st6" d="M266.7,1045.9h-7.6l-3-12.2h-13.8l-2.9,12.2H232l13.5-53.7h7.4L266.7,1045.9z M253.8,1024.7l-4.8-19.9
				l-4.7,19.9H253.8z"/>
			<path class="st6" d="M270.4,1045.9v-53.7h14.7c3.7,0,6.4,0.5,8,1.4c1.7,1,3,2.7,4,5.1c1,2.5,1.5,5.3,1.5,8.5c0,4-0.8,7.4-2.3,10
				c-1.5,2.6-3.8,4.3-6.8,5c1.5,1.4,2.8,2.9,3.7,4.5c1,1.6,2.3,4.5,4,8.7l4.2,10.5h-8.3l-5-11.7c-1.8-4.2-3-6.8-3.7-7.9
				c-0.7-1.1-1.4-1.8-2.1-2.2c-0.7-0.4-1.9-0.6-3.5-0.6h-1.4v22.4H270.4z M277.4,1014.9h5.2c3.3,0,5.4-0.2,6.3-0.7
				c0.8-0.4,1.5-1.2,2-2.3c0.5-1.1,0.7-2.4,0.7-4c0-1.8-0.3-3.3-0.9-4.4s-1.5-1.8-2.6-2.1c-0.6-0.1-2.3-0.2-5.1-0.2h-5.4V1014.9z"/>
			<path class="st6" d="M305.2,1045.9v-53.7h25.6v9.1h-18.6v11.9h17.3v9h-17.3v14.6h19.3v9H305.2z"/>
			<path class="st6" d="M364.3,1045.9v-53.7h7v21.1h13.7v-21.1h7v53.7h-7v-23.5h-13.7v23.5H364.3z"/>
			<path class="st6" d="M397.7,1019.4c0-5.5,0.5-10.1,1.6-13.8c0.8-2.7,1.9-5.2,3.2-7.4c1.4-2.2,2.8-3.8,4.5-4.8
				c2.2-1.4,4.6-2.1,7.4-2.1c5.1,0,9.2,2.5,12.2,7.4s4.6,11.7,4.6,20.5c0,8.7-1.5,15.4-4.5,20.3s-7.1,7.3-12.2,7.3
				c-5.1,0-9.2-2.4-12.3-7.3C399.2,1034.7,397.7,1028,397.7,1019.4z M404.9,1019c0,6.1,0.9,10.7,2.7,13.8c1.8,3.1,4.1,4.7,6.9,4.7
				s5.1-1.6,6.8-4.7c1.8-3.1,2.7-7.8,2.7-14c0-6.2-0.9-10.7-2.6-13.8c-1.7-3-4-4.5-6.9-4.5s-5.2,1.5-7,4.6
				C405.7,1008.3,404.9,1012.9,404.9,1019z"/>
			<path class="st6" d="M444.4,1045.9v-44.6h-10.3v-9.1h27.5v9.1h-10.2v44.6H444.4z"/>
			<path class="st6" d="M491.2,1028.5l6.8-1c0.4,3.5,1.2,6.1,2.5,7.8s2.9,2.5,5.1,2.5c2.2,0,3.9-0.7,5.1-2.2
				c1.1-1.5,1.7-3.2,1.7-5.2c0-1.3-0.2-2.3-0.7-3.2c-0.5-0.9-1.3-1.7-2.5-2.3c-0.8-0.4-2.7-1.2-5.6-2.3c-3.7-1.4-6.4-3.2-7.9-5.3
				c-2.1-3-3.2-6.6-3.2-10.8c0-2.7,0.5-5.3,1.5-7.7c1-2.4,2.4-4.2,4.3-5.4c1.9-1.2,4.1-1.9,6.8-1.9c4.3,0,7.6,1.5,9.8,4.4
				s3.3,6.9,3.5,11.8l-7,0.5c-0.3-2.8-0.9-4.7-1.9-6c-1-1.2-2.5-1.8-4.4-1.8c-2,0-3.6,0.6-4.8,1.9c-0.7,0.8-1.1,1.9-1.1,3.3
				c0,1.3,0.3,2.4,1,3.3c0.9,1.1,3,2.3,6.4,3.6c3.4,1.2,5.9,2.5,7.5,3.9c1.6,1.3,2.9,3.1,3.8,5.5c0.9,2.3,1.4,5.2,1.4,8.6
				c0,3.1-0.5,6-1.6,8.6c-1.1,2.7-2.7,4.7-4.7,6c-2,1.3-4.5,2-7.5,2c-4.4,0-7.7-1.6-10.1-4.7C493,1039,491.6,1034.5,491.2,1028.5z"
				/>
			<path class="st6" d="M525.1,992.2h7v29.1c0,4.6,0.1,7.6,0.3,9c0.3,2.2,1,4,2.1,5.3c1.1,1.3,2.7,2,4.6,2c2,0,3.5-0.6,4.5-1.9
				c1-1.3,1.6-2.8,1.8-4.6s0.3-4.9,0.3-9.1v-29.7h7v28.2c0,6.4-0.2,11-0.6,13.7s-1.1,4.9-2.1,6.7c-1,1.8-2.4,3.3-4.1,4.4
				c-1.7,1.1-3.9,1.6-6.6,1.6c-3.3,0-5.8-0.6-7.5-1.8c-1.7-1.2-3.1-2.7-4-4.6s-1.6-3.9-2-6c-0.5-3.1-0.7-7.6-0.7-13.6V992.2z"/>
			<path class="st6" d="M560,1045.9v-53.7h14.7c3.7,0,6.4,0.5,8,1.4c1.7,1,3,2.7,4,5.1c1,2.5,1.5,5.3,1.5,8.5c0,4-0.8,7.4-2.3,10
				c-1.5,2.6-3.8,4.3-6.8,5c1.5,1.4,2.8,2.9,3.7,4.5c1,1.6,2.3,4.5,4,8.7l4.2,10.5h-8.3l-5-11.7c-1.8-4.2-3-6.8-3.7-7.9
				c-0.7-1.1-1.4-1.8-2.1-2.2c-0.7-0.4-1.9-0.6-3.5-0.6H567v22.4H560z M567,1014.9h5.2c3.3,0,5.4-0.2,6.3-0.7c0.8-0.4,1.5-1.2,2-2.3
				s0.7-2.4,0.7-4c0-1.8-0.3-3.3-0.9-4.4c-0.6-1.1-1.5-1.8-2.6-2.1c-0.6-0.1-2.3-0.2-5.1-0.2H567V1014.9z"/>
			<path class="st6" d="M594.9,1045.9v-53.7h23.7v9.1h-16.7v12.7h14.4v9.1h-14.4v22.8H594.9z"/>
			<path class="st6" d="M652.8,1045.9h-7.6l-3-12.2h-13.8l-2.9,12.2h-7.4l13.5-53.7h7.4L652.8,1045.9z M640,1024.7l-4.8-19.9
				l-4.7,19.9H640z"/>
			<path class="st6" d="M678.6,1026.2l6.8,3.3c-1,5.9-2.8,10.2-5.2,13.1c-2.4,2.8-5.5,4.3-9.2,4.3c-4.6,0-8.4-2.4-11.3-7.3
				c-3-4.9-4.4-11.5-4.4-20c0-8.9,1.5-15.9,4.5-20.8c3-4.9,6.9-7.4,11.7-7.4c4.2,0,7.7,1.9,10.3,5.8c1.6,2.3,2.7,5.6,3.5,9.9
				l-6.9,2.6c-0.4-2.8-1.3-5-2.6-6.6c-1.3-1.6-2.9-2.4-4.7-2.4c-2.6,0-4.6,1.4-6.2,4.3c-1.6,2.9-2.4,7.5-2.4,13.9
				c0,6.8,0.8,11.6,2.4,14.5s3.6,4.3,6.1,4.3c1.9,0,3.4-0.9,4.8-2.7C677.1,1033,678,1030.1,678.6,1026.2z"/>
			<path class="st6" d="M691.4,1045.9v-53.7H717v9.1h-18.6v11.9h17.3v9h-17.3v14.6h19.3v9H691.4z"/>
		</g>
		<g>
			<path class="st6" d="M126.7,920.1c0,2.8-0.9,5.1-2.7,7s-4,2.8-6.6,2.8c-2.6,0-4.8-1-6.6-2.9s-2.7-4.2-2.7-7c0-2.8,0.9-5.1,2.7-7
				c1.8-1.9,4-2.9,6.6-2.9c1,0,1.6,0,1.8,0.1V899c0-1.4-2.7-2.8-8-4.1c-5.4-1.3-10.2-2.4-14.6-3.2c0.2-4.8,1.3-8.6,3.5-11.5
				c2.2-2.9,5.3-4.4,9.4-4.4c1.7,0,4,0.4,6.9,1.2c2.9,0.8,5.1,1.2,6.3,1.2c1.4,0,2.1-1,2.3-2.9l5.9,1.7c-1.5,5.3-4.1,7.9-8,7.9
				c-1.5,0-3.5-0.4-6.2-1.1c-2.7-0.7-4.7-1.1-6.1-1.1c-3.5,0-5.6,1.4-6,4.3c6.2,1.4,11.4,2.9,15.6,4.4c4.2,1.6,6.3,4.2,6.3,8.1
				V920.1z M121.5,919.9c0-1.2-0.4-2.3-1.2-3.1c-0.8-0.9-1.8-1.3-2.9-1.3s-2.1,0.4-2.9,1.3c-0.8,0.9-1.2,1.9-1.2,3.1
				c0,1.2,0.4,2.3,1.2,3.1c0.8,0.9,1.8,1.3,2.9,1.3s2.1-0.4,2.9-1.3C121.1,922.2,121.5,921.1,121.5,919.9z"/>
			<path class="st6" d="M170.2,877.2c-0.4,13.8-6.4,20.7-18,20.7c-4.8,0-8.5-1.1-11.1-3.2c-2.6-2.1-3.9-4.8-3.9-8.1
				c0-2.5,0.8-4.6,2.4-6.4c1.6-1.7,3.6-2.6,5.9-2.6c2.5,0,4.5,0.9,6.1,2.7c1.6,1.8,2.4,3.9,2.4,6.3c0,2.3-0.6,4.1-1.8,5.2
				c7.5-0.3,11.2-5.2,11.2-14.6H170.2z M170.2,906.7c-0.4,13.8-6.4,20.7-18,20.7c-4.8,0-8.5-1.1-11.1-3.2c-2.6-2.1-3.9-4.8-3.9-8.1
				c0-2.5,0.8-4.6,2.4-6.4c1.6-1.7,3.6-2.6,5.9-2.6c2.5,0,4.5,0.9,6.1,2.7c1.6,1.8,2.4,3.9,2.4,6.3c0,2.3-0.6,4.1-1.8,5.2
				c7.5-0.3,11.2-5.2,11.2-14.6H170.2z M149.2,886.5c0-1.1-0.4-2.1-1.1-2.9c-0.7-0.8-1.6-1.2-2.7-1.2c-1,0-1.9,0.4-2.6,1.2
				c-0.7,0.8-1,1.7-1,2.9c0,1.1,0.3,2.1,1,2.8c0.7,0.7,1.5,1.1,2.6,1.1c1,0,1.9-0.4,2.7-1.1C148.8,888.6,149.2,887.6,149.2,886.5z
				 M149.2,916c0-1.1-0.4-2.1-1.1-2.9c-0.7-0.8-1.6-1.2-2.7-1.2c-1,0-1.9,0.4-2.6,1.2c-0.7,0.8-1,1.7-1,2.9c0,1.1,0.3,2.1,1,2.8
				c0.7,0.7,1.5,1.1,2.6,1.1c1,0,1.9-0.4,2.7-1.1C148.8,918.1,149.2,917.2,149.2,916z"/>
			<path class="st6" d="M214.5,919.3c0,3-0.9,5.5-2.8,7.5c-1.9,1.9-4.2,2.9-6.9,2.9c-2.6,0-4.8-1-6.5-2.9c-1.8-1.9-2.7-4.2-2.7-6.9
				c0-2.8,0.9-5.1,2.7-7.1c1.8-1.9,3.9-2.9,6.5-2.9c0.9,0,1.6,0,2.2,0.1v-18.9c0-5.5-3.7-8.2-11.1-8.2c-3.1,0-5.7,1-7.8,3
				c-2.1,2-3.2,4.7-3.2,8h-7.3c0.2-5.7,2-10.2,5.3-13.3c3.3-3.2,7.6-4.7,13-4.7c5.3,0,9.6,1.1,12.8,3.4c3.9,2.7,5.8,6.8,5.8,12.4
				V919.3z M208.9,919.8c0-1.2-0.4-2.3-1.2-3.1c-0.8-0.9-1.8-1.3-2.9-1.3c-1.1,0-2.1,0.4-2.9,1.3c-0.8,0.9-1.2,1.9-1.2,3.1
				c0,1.2,0.4,2.3,1.2,3.1c0.8,0.9,1.8,1.3,2.9,1.3c1.1,0,2.1-0.4,2.9-1.3C208.5,922.1,208.9,921,208.9,919.8z"/>
			<path class="st6" d="M226.7,845.2c-2.1,14.4-9.3,21.6-21.8,21.6c-4.8,0-8.5-1.1-11.1-3.2c-2.6-2.1-3.9-4.8-3.9-8.1
				c0-2.5,0.8-4.6,2.4-6.4c1.6-1.7,3.6-2.6,5.9-2.6c2.5,0,4.5,0.9,6.1,2.7c1.6,1.8,2.4,3.9,2.4,6.3c0,2.3-0.6,4.1-1.8,5.2
				c8.4-0.3,13.3-5.5,14.6-15.5H226.7z M201.9,855.5c0-1.1-0.4-2.1-1.1-2.9c-0.7-0.8-1.6-1.2-2.7-1.2c-1,0-1.9,0.4-2.6,1.2
				c-0.7,0.8-1,1.7-1,2.9c0,1.1,0.3,2.1,1,2.8c0.7,0.7,1.6,1.1,2.6,1.1c1,0,1.9-0.4,2.7-1.1C201.5,857.5,201.9,856.6,201.9,855.5z"
				/>
			<path class="st6" d="M252.9,928.8h-7.4l-22.6-27.4l4.5-5.6l18,21.8v-22.4c-0.2,0.1-1,0.1-2.3,0.1c-2.5,0-4.6-0.9-6.3-2.7
				c-1.7-1.8-2.6-4-2.6-6.8c0-2.8,0.9-5.1,2.7-7.1c1.8-1.9,3.9-2.9,6.3-2.9c2.8,0,5.2,1,7,2.9c1.9,2,2.8,4.5,2.8,7.6V928.8z
				 M247.2,885.6c0-1.2-0.4-2.2-1.2-3c-0.8-0.8-1.8-1.3-2.9-1.3c-1.1,0-2.1,0.4-2.9,1.3c-0.8,0.8-1.2,1.9-1.2,3c0,1.2,0.4,2.2,1.2,3
				c0.8,0.8,1.8,1.3,2.9,1.3c1.1,0,2.1-0.4,2.9-1.3C246.8,887.8,247.2,886.8,247.2,885.6z"/>
			<path class="st6" d="M311.1,928.8h-8.5l-11.4-40.3l-11.7,40.3h-8.1v-33.4c-0.8,0.2-1.5,0.3-2.1,0.3c-2.6,0-4.8-1-6.5-2.9
				c-1.8-2-2.7-4.3-2.7-7.1c0-2.7,0.9-5,2.7-6.9c1.8-1.9,3.9-2.9,6.5-2.9c2.7,0,5,1,6.8,3c1.8,2,2.7,4.5,2.7,7.5v19.4
				c0,2.3-0.5,6.8-1.5,13.8c1.8-7.9,2.8-12.1,3-12.7l8.5-27.7h4.6l8.5,27.7c0.2,0.5,1.2,4.8,3,12.7c-1-6.9-1.4-11.5-1.4-13.8v-28.9
				h7.5V928.8z M273.6,885.7c0-1.2-0.4-2.3-1.2-3.1c-0.8-0.9-1.8-1.3-2.9-1.3c-1.1,0-2.1,0.4-2.9,1.3c-0.8,0.9-1.2,1.9-1.2,3.1
				c0,1.2,0.4,2.3,1.2,3.1c0.8,0.9,1.8,1.3,2.9,1.3c1.1,0,2.1-0.4,2.9-1.3C273.2,888,273.6,887,273.6,885.7z"/>
			<path class="st6" d="M311.4,870.3c-10-3.5-19.1-5.2-27.4-5.2c-3.8,0-7.6,0.3-11.5,0.8c1-11.6,6.8-17.4,17.6-17.4
				c1.2,0,2.3,0.1,3.4,0.3v-4.2h5.4v5.5c1.8,0.8,3.4,2,5,3.5v-9h7.3v23.9L311.4,870.3z M303.6,862.6c-0.5-2.2-1.9-4.2-4.4-6.1
				c-2.4-1.9-5.2-2.9-8.2-2.9c-2.9,0-5.4,0.6-7.5,1.9c-2.1,1.3-3.4,2.9-4,5c1.4-0.3,3.5-0.5,6.4-0.5
				C292,860,297.8,860.9,303.6,862.6z"/>
			<path class="st6" d="M320,820.2c-1.4,8.2-4.1,13.9-8,17.1c-3.9,3.2-9.6,4.7-17.1,4.7h-3.4v-4.3c3.2-0.3,5.2-1.5,5.9-3.8
				c-4.1-1.1-6.2-3.7-6.2-7.7c0-2.1,0.7-3.8,2.1-5.2c1.4-1.4,3-2.1,5-2.1c2.2,0,3.9,0.7,5.1,2.1c1.3,1.4,1.9,3.3,1.9,5.5
				c0,3.4-1.8,7-5.3,10.8c3.9-0.9,7.2-2.9,9.7-6c2.5-3.2,3.9-6.9,4.1-11.2H320z M301.2,826.6c0-1-0.3-1.8-0.9-2.4s-1.3-1-2.2-1
				c-0.9,0-1.6,0.3-2.2,1c-0.6,0.7-0.9,1.5-0.9,2.4c0,1,0.3,1.8,0.9,2.4c0.6,0.7,1.3,1,2.2,1c0.9,0,1.6-0.3,2.2-1
				C300.9,828.3,301.2,827.5,301.2,826.6z"/>
			<path class="st6" d="M363.5,904.2c0,3.5-0.8,5.9-2.5,7.2c3.1,1.9,4.7,4.8,4.7,8.6c0,2.8-0.9,5.1-2.7,7c-1.8,1.9-3.9,2.8-6.4,2.8
				c-2.3,0-4.4-0.8-6-2.4c-1.7-1.6-2.7-3.6-3-6c-2.6,1.4-4.4,2.4-5.6,3.1c-1.9,1.3-3.5,2.7-4.6,4.3h-7.6v-33.4
				c-0.8,0.2-1.5,0.3-2.1,0.3c-2.6,0-4.8-1-6.5-2.9c-1.8-2-2.7-4.3-2.7-7.1c0-2.7,0.9-5,2.7-6.9c1.8-1.9,3.9-2.9,6.5-2.9
				c2.7,0,5,1,6.8,3c1.8,2,2.7,4.5,2.7,7.5v33c1.3-1,4.2-2.6,8.7-4.5c4-1.8,6.8-3.6,8.3-5.5c1.1-1.3,1.7-3.4,1.7-6.2v-26.3h7.5
				V904.2z M331.8,885.7c0-1.2-0.4-2.3-1.2-3.1c-0.8-0.9-1.8-1.3-2.9-1.3c-1.1,0-2.1,0.4-2.9,1.3c-0.8,0.9-1.2,1.9-1.2,3.1
				c0,1.2,0.4,2.3,1.2,3.1c0.8,0.9,1.8,1.3,2.9,1.3c1.1,0,2.1-0.4,2.9-1.3C331.4,888,331.8,887,331.8,885.7z M360.6,920
				c0-1.2-0.4-2.2-1.2-3.1c-0.8-0.9-1.8-1.3-2.9-1.3c-1.1,0-2.1,0.4-2.9,1.3c-0.8,0.9-1.2,1.9-1.2,3.1c0,1.2,0.4,2.2,1.2,3.1
				c0.8,0.9,1.8,1.3,2.9,1.3c1.1,0,2.1-0.4,2.9-1.3C360.2,922.2,360.6,921.2,360.6,920z"/>
			<path class="st6" d="M413.5,928.8H406L393.9,908l-12.1,20.8h-7.4v-42.4c0-3,0.9-5.5,2.8-7.5c1.9-2,4.2-3,6.8-3
				c2.6,0,4.8,1,6.5,2.9c1.8,2,2.7,4.3,2.7,7c0,2.8-0.9,5.1-2.7,7c-1.8,1.9-3.9,2.9-6.5,2.9c-1.1,0-1.9,0-2.2-0.1v22.2l9.5-16h4.8
				l9.7,16.1v-41h7.5V928.8z M388.2,885.7c0-1.2-0.4-2.3-1.2-3.1c-0.8-0.9-1.8-1.3-2.9-1.3c-1.1,0-2.1,0.4-2.9,1.3
				c-0.8,0.9-1.2,1.9-1.2,3.1c0,1.2,0.4,2.3,1.2,3.1c0.8,0.9,1.8,1.3,2.9,1.3c1.1,0,2.1-0.4,2.9-1.3
				C387.8,888,388.2,887,388.2,885.7z"/>
			<path class="st6" d="M413.7,870.3c-10-3.5-19.1-5.2-27.4-5.2c-3.8,0-7.6,0.3-11.5,0.8c1-11.6,6.8-17.4,17.6-17.4
				c6.2,0,11.1,2,14.7,6S413,863.8,413.7,870.3z M406,862.6c-0.5-2.2-1.9-4.2-4.4-6.1c-2.4-1.9-5.2-2.9-8.2-2.9
				c-2.9,0-5.4,0.6-7.5,1.9c-2.1,1.3-3.4,2.9-4,5c1.4-0.3,3.5-0.5,6.4-0.5C394.3,860,400.2,860.9,406,862.6z"/>
			<path class="st6" d="M459.3,919.3c0,3-0.9,5.5-2.8,7.5c-1.9,1.9-4.2,2.9-6.9,2.9c-2.6,0-4.8-1-6.5-2.9c-1.8-1.9-2.7-4.2-2.7-6.9
				c0-2.8,0.9-5.1,2.7-7.1c1.8-1.9,3.9-2.9,6.5-2.9c0.9,0,1.6,0,2.2,0.1v-18.9c0-5.5-3.7-8.2-11.1-8.2c-3.1,0-5.7,1-7.8,3
				c-2.1,2-3.2,4.7-3.2,8h-7.3c0.2-5.7,2-10.2,5.3-13.3c3.3-3.2,7.6-4.7,13-4.7c5.3,0,9.6,1.1,12.8,3.4c3.9,2.7,5.8,6.8,5.8,12.4
				V919.3z M453.7,919.8c0-1.2-0.4-2.3-1.2-3.1c-0.8-0.9-1.8-1.3-2.9-1.3c-1.1,0-2.1,0.4-2.9,1.3c-0.8,0.9-1.2,1.9-1.2,3.1
				c0,1.2,0.4,2.3,1.2,3.1c0.8,0.9,1.8,1.3,2.9,1.3c1.1,0,2.1-0.4,2.9-1.3C453.3,922.1,453.7,921,453.7,919.8z"/>
			<path class="st6" d="M505.1,919.3c0,3-0.9,5.5-2.8,7.5c-1.9,1.9-4.1,2.9-6.9,2.9c-2.6,0-4.8-1-6.5-2.9c-1.8-1.9-2.7-4.2-2.7-6.9
				c0-2.8,0.9-5.1,2.7-7.1c1.8-1.9,3.9-2.9,6.5-2.9c0.9,0,1.6,0,2.2,0.1v-18.9c0-5.5-3.7-8.2-11.1-8.2c-3.1,0-5.7,1-7.8,3
				c-2.1,2-3.2,4.7-3.2,8h-7.3c0.2-5.7,2-10.2,5.3-13.3c3.3-3.2,7.6-4.7,13-4.7c5.3,0,9.6,1.1,12.8,3.4c3.9,2.7,5.8,6.8,5.8,12.4
				V919.3z M499.5,919.8c0-1.2-0.4-2.3-1.2-3.1c-0.8-0.9-1.8-1.3-2.9-1.3c-1.1,0-2.1,0.4-2.9,1.3c-0.8,0.9-1.2,1.9-1.2,3.1
				c0,1.2,0.4,2.3,1.2,3.1c0.8,0.9,1.8,1.3,2.9,1.3c1.1,0,2.1-0.4,2.9-1.3C499.1,922.1,499.5,921,499.5,919.8z"/>
			<path class="st6" d="M517.3,845.2c-2.1,14.4-9.3,21.6-21.8,21.6c-4.8,0-8.5-1.1-11.1-3.2c-2.6-2.1-3.9-4.8-3.9-8.1
				c0-2.5,0.8-4.6,2.4-6.4c1.6-1.7,3.6-2.6,5.9-2.6c2.5,0,4.5,0.9,6.1,2.7c1.6,1.8,2.4,3.9,2.4,6.3c0,2.3-0.6,4.1-1.8,5.2
				c8.4-0.3,13.3-5.5,14.6-15.5H517.3z M492.5,855.5c0-1.1-0.4-2.1-1.1-2.9c-0.7-0.8-1.6-1.2-2.7-1.2c-1,0-1.9,0.4-2.6,1.2
				c-0.7,0.8-1,1.7-1,2.9c0,1.1,0.3,2.1,1,2.8c0.7,0.7,1.6,1.1,2.6,1.1c1,0,1.9-0.4,2.7-1.1C492.2,857.5,492.5,856.6,492.5,855.5z"
				/>
			<path class="st6" d="M553.3,928.8h-7.5v-22.5c0-2.6-1.4-4.6-4.1-6c-2.1-1-4.4-1.6-7-1.6c-2.5,0-4.6,0.7-6.4,2
				c-2.2,1.6-3.3,3.6-3.3,6.2v3.3c1.1-0.2,1.9-0.3,2.2-0.3c2.6,0,4.8,1,6.6,2.9c1.9,2,2.8,4.3,2.8,7c0,2.8-1,5.1-2.9,7
				c-1.9,1.9-4.2,2.9-6.6,2.9c-2.7,0-4.9-0.9-6.8-2.8c-1.9-1.9-2.8-4.2-2.8-7.1v-12c0-5.1,1.8-9.1,5.3-12c3.1-2.5,7-3.8,11.7-3.8
				c5,0,8.7,1.5,11.2,4.4v-5.8c0-2.7-1.5-4.7-4.4-6.2c-2.3-1.1-4.8-1.7-7.6-1.7c-3.1,0-5.8,0.8-8.1,2.3c-2.5,1.7-4,4-4.5,6.9H514
				c0.5-5.3,2.6-9.4,6.4-12.2c3.5-2.7,8.1-4,13.7-4c3.6,0,6.9,0.7,9.8,2.1c1.7-1.6,2.5-3.7,2.5-6.2h8.5c-1,4.4-2.7,7.8-5.2,10.3
				c2.4,2.8,3.6,6,3.6,9.6V928.8z M531.3,919.8c0-1.2-0.4-2.3-1.2-3.1c-0.8-0.9-1.8-1.3-2.9-1.3c-1.1,0-2.1,0.4-2.9,1.3
				c-0.8,0.9-1.2,1.9-1.2,3.1c0,1.2,0.4,2.3,1.2,3.1c0.8,0.9,1.8,1.3,2.9,1.3c1.1,0,2.1-0.4,2.9-1.3
				C530.9,922.1,531.3,921,531.3,919.8z"/>
			<path class="st6" d="M602.2,928.8h-7.5V894c0-3.3-1.1-6-3.4-8c-2.3-2.1-5-3.1-8.1-3.1c-3.4,0-6.3,1.2-8.8,3.7
				c-2.5,2.5-3.7,5.4-3.7,8.9c0,2.2,0.7,5.2,2,9.2c1.3,4,2,6.9,2,8.9c0,0.6-0.1,1.4-0.2,2.5c2.3-4.1,4.9-7.5,7.7-10.3
				c-2.3-0.2-4-1.1-5.3-2.9c-1.2-1.5-1.8-3.3-1.8-5.5c0-2.3,0.8-4.2,2.4-5.9c1.6-1.7,3.4-2.5,5.6-2.5c2.2,0,4,0.8,5.6,2.5
				c1.5,1.7,2.3,3.7,2.3,5.9c0,3.9-1.8,8.2-5.3,13c-4.9,6.5-7.6,10.4-8.3,11.7c-1.2,2.3-1.8,4.5-1.8,6.6h-7.6
				c0.1-3.2,0.1-6.2,0.1-8.8c0-4.7-0.5-8.3-1.5-10.8c-0.7-2.3-1.5-4.6-2.2-7c-0.7-2.4-1.1-4.5-1.1-6.3c0-5.9,1.9-10.7,5.7-14.4
				c3.8-3.7,8.5-5.6,14-5.6c5.6,0,10.1,1.6,13.7,4.7c3.8,3.4,5.7,8,5.7,13.9V928.8z M586.7,897.4c0-1.1-0.3-2.1-1-2.8
				c-0.7-0.7-1.6-1.1-2.6-1.1c-1,0-1.9,0.4-2.6,1.1c-0.7,0.7-1,1.7-1,2.8c0,1.1,0.3,2.1,1,2.8c0.7,0.7,1.5,1.1,2.6,1.1
				c1,0,1.9-0.4,2.6-1.1C586.3,899.5,586.7,898.6,586.7,897.4z"/>
			<path class="st6" d="M602.2,959.3H595v-9.9h-0.5c-2,0-3.7-0.8-5.1-2.3c-1.4-1.5-2.1-3.3-2.1-5.4c0-2.2,0.7-4,2.1-5.6
				c1.4-1.6,3.2-2.3,5.3-2.3c2,0,3.8,0.7,5.3,2.1c1.5,1.4,2.3,3.3,2.3,5.7V959.3z M598,941.4c0-1-0.3-1.8-1-2.5
				c-0.6-0.7-1.4-1-2.3-1c-0.9,0-1.7,0.3-2.4,1c-0.7,0.7-1,1.5-1,2.5c0,1,0.3,1.8,1,2.5c0.7,0.7,1.5,1.1,2.4,1.1
				c0.9,0,1.7-0.4,2.3-1.1C597.7,943.2,598,942.3,598,941.4z"/>
			<path class="st6" d="M641.2,920.1c0,2.8-0.9,5.1-2.7,7s-4,2.8-6.6,2.8c-2.6,0-4.8-1-6.6-2.9s-2.7-4.2-2.7-7c0-2.8,0.9-5.1,2.7-7
				c1.8-1.9,4-2.9,6.6-2.9c1,0,1.6,0,1.8,0.1V899c0-1.4-2.7-2.8-8-4.1c-5.4-1.3-10.2-2.4-14.6-3.2c0.2-4.8,1.3-8.6,3.5-11.5
				c2.2-2.9,5.3-4.4,9.4-4.4c1.7,0,4,0.4,6.9,1.2c2.9,0.8,5.1,1.2,6.3,1.2c1.4,0,2.1-1,2.3-2.9l5.9,1.7c-1.5,5.3-4.1,7.9-8,7.9
				c-1.5,0-3.5-0.4-6.2-1.1c-2.7-0.7-4.7-1.1-6.1-1.1c-3.5,0-5.6,1.4-6,4.3c6.2,1.4,11.4,2.9,15.6,4.4c4.2,1.6,6.3,4.2,6.3,8.1
				V920.1z M636,919.9c0-1.2-0.4-2.3-1.2-3.1c-0.8-0.9-1.8-1.3-2.9-1.3s-2.1,0.4-2.9,1.3c-0.8,0.9-1.2,1.9-1.2,3.1
				c0,1.2,0.4,2.3,1.2,3.1c0.8,0.9,1.8,1.3,2.9,1.3s2.1-0.4,2.9-1.3C635.6,922.2,636,921.1,636,919.9z"/>
			<path class="st6" d="M649.4,846c-0.8,4.6-1.9,8.4-3.4,11.6c-1.5,3.1-3.3,5.6-5.6,7.5c-2.3,1.9-4.9,3.2-7.9,4s-6.5,1.2-10.5,1.2
				h-4v-5.2c1.6-0.1,3-0.7,4-1.8c1.1-1.1,1.8-2.3,2.2-3.4c-2-0.3-3.6-1.3-4.8-2.9c-1.2-1.6-1.8-3.5-1.8-5.7c0-2.3,0.8-4.3,2.4-5.8
				c1.6-1.6,3.4-2.3,5.5-2.3c2.4,0,4.3,0.8,5.7,2.5c1.4,1.6,2.1,3.7,2.1,6.2c0,2.5-0.6,4.9-1.7,7.3c-1.1,2.3-2.3,4.2-3.5,5.5
				c4-0.8,7.3-2.9,9.8-6.3c2.5-3.4,3.9-7.5,4-12.2H649.4z M628.7,851.4c0-1-0.3-1.8-0.9-2.4c-0.6-0.7-1.3-1-2.2-1
				c-0.9,0-1.6,0.3-2.2,1c-0.6,0.6-0.8,1.5-0.8,2.4c0,1,0.3,1.8,0.8,2.4c0.6,0.7,1.3,1,2.2,1c0.9,0,1.6-0.3,2.2-1
				C628.4,853.2,628.7,852.4,628.7,851.4z"/>
			<path class="st6" d="M689.6,917.1c0,4.5-1.9,7.8-5.7,10c-3.1,1.8-7,2.7-11.8,2.7s-8.7-0.9-11.7-2.7c-3.6-2.2-5.4-5.5-5.4-10
				v-13.2c0-3.1,0.8-5.8,2.4-7.9c1.6-2.1,3.9-3.2,6.9-3.2c2.6,0,4.8,0.9,6.5,2.8c1.8,1.9,2.7,4.2,2.7,7c0,2.7-0.9,5-2.7,6.9
				c-1.8,1.9-3.9,2.9-6.5,2.9c-0.7,0-1.3-0.1-1.8-0.3v4c0,4.5,3.3,6.7,9.8,6.7c6.6,0,9.9-2.3,9.9-6.8v-24.8c0-2.8-1.3-5-3.7-6.5
				c-2.1-1.2-4.7-1.8-7.7-1.8c-7.7,0-11.8,2.1-12.4,6.2h-7.3c1-8.8,7.4-13.2,19.1-13.3c5.4,0,9.8,1.1,13.3,3.3
				c4.2,2.8,6.3,6.9,6.3,12.5V917.1z M668.4,902.6c0-1.2-0.4-2.2-1.2-3.1c-0.8-0.9-1.8-1.3-2.9-1.3c-1.1,0-2.1,0.4-2.9,1.3
				c-0.8,0.9-1.2,1.9-1.2,3.1c0,1.2,0.4,2.2,1.2,3.1c0.8,0.9,1.8,1.3,2.9,1.3c1.1,0,2.1-0.4,2.9-1.3
				C667.9,904.8,668.4,903.8,668.4,902.6z"/>
			<path class="st6" d="M741.9,904.2c0,3.5-0.8,5.9-2.5,7.2c3.1,1.9,4.7,4.8,4.7,8.6c0,2.8-0.9,5.1-2.7,7c-1.8,1.9-3.9,2.8-6.4,2.8
				c-2.3,0-4.4-0.8-6-2.4c-1.7-1.6-2.7-3.6-3-6c-2.6,1.4-4.4,2.4-5.6,3.1c-1.9,1.3-3.5,2.7-4.6,4.3h-7.6v-33.4
				c-0.8,0.2-1.5,0.3-2.1,0.3c-2.6,0-4.8-1-6.5-2.9c-1.8-2-2.7-4.3-2.7-7.1c0-2.7,0.9-5,2.7-6.9c1.8-1.9,3.9-2.9,6.5-2.9
				c2.7,0,5,1,6.8,3c1.8,2,2.7,4.5,2.7,7.5v33c1.3-1,4.2-2.6,8.7-4.5c4-1.8,6.8-3.6,8.3-5.5c1.1-1.3,1.7-3.4,1.7-6.2v-26.3h7.5
				V904.2z M710.3,885.7c0-1.2-0.4-2.3-1.2-3.1c-0.8-0.9-1.8-1.3-2.9-1.3c-1.1,0-2.1,0.4-2.9,1.3c-0.8,0.9-1.2,1.9-1.2,3.1
				c0,1.2,0.4,2.3,1.2,3.1c0.8,0.9,1.8,1.3,2.9,1.3c1.1,0,2.1-0.4,2.9-1.3C709.9,888,710.3,887,710.3,885.7z M739,920
				c0-1.2-0.4-2.2-1.2-3.1c-0.8-0.9-1.8-1.3-2.9-1.3c-1.1,0-2.1,0.4-2.9,1.3c-0.8,0.9-1.2,1.9-1.2,3.1c0,1.2,0.4,2.2,1.2,3.1
				c0.8,0.9,1.8,1.3,2.9,1.3c1.1,0,2.1-0.4,2.9-1.3C738.6,922.2,739,921.2,739,920z"/>
		</g>
	</g>
	<g>
		<g>
			<path class="st7" d="M443.7,87.9c0,0-5.2-13.1-22-13.1c-16.8,0-24.6,13.1-24.6,13.1L56.5,684c0,0-8.6,15-0.7,29
				c0,0,8.2,13.8,21.8,13.8c13.6,0,682.6,0,682.6,0s18.3,0.5,25.6-14c6.1-12.1,3.1-21.5,0.2-27.1L443.7,87.9"/>
			<path class="st10" d="M420.6,141.6l307.3,535.7c0.1,0.1,0.1,0.2,0,0.3c-0.1,0.1-0.1,0.2-0.3,0.2H113c-0.1,0-0.2-0.1-0.3-0.2
				c-0.1-0.1,0-0.2,0-0.3L420,141.6c0-0.1,0.1-0.2,0.3-0.2C420.4,141.5,420.5,141.5,420.6,141.6"/>
		</g>
		<g>
			<path class="st1" d="M386.7,524.8c2-3.4,3.6-7.1,4.7-10.9c0.3-2.1-0.7-4.3-2.5-5.3c-0.3-0.1-0.5-0.3-0.8-0.4
				c-3-0.5-6.2,0.1-8.8,1.8c-3.6,2.2-6.8,5-9.6,8.2c-3.2,3.2-6.3,6.4-9.3,9.8c-1.1,1.8-1.8,3.8-1.9,5.9c-0.1,6.3-1,12.6-2.8,18.6
				c-1.7,9.5-3.3,18.9-4.9,28.4c1,0.8,2.1,1.5,3.2,2l7.1,0.1c1.4-0.5,2.6-1.5,3.4-2.8c1.8-5.4,3.4-10.8,4.8-16.3
				c1.8-4.9,3.8-9.7,6.1-14.3C379.4,541.4,383.2,533.1,386.7,524.8"/>
			<path class="st1" d="M255.4,663.1l281.8-0.3l-0.2-34.4l-21.8,0c-1.3,0-2.5-0.5-3.4-1.5c-1-1-1.7-2.2-2.2-3.5
				c-0.5-1.5-0.8-2.9-0.8-4.5c0-6.4,0.1-12.7,0.4-19.1c0.6-8.2,0.4-16.4-0.7-24.5c-0.1-0.6-0.4-1.2-0.7-1.8c-0.2-0.4-0.5-0.7-0.8-1
				c-1.4-0.8-3.1-1-4.7-0.7c-1.6,0.7-2.8,2-3.6,3.6l-2.1,8.9c-0.7,3.3-1.8,6.4-3.3,9.4c-0.4,0.7-0.9,1.4-1.5,1.9
				c-0.9,0.6-1.9,1.1-2.9,1.3l-5.7,1.4c-2,0.8-3.7,2.3-4.7,4.2c-0.7,1.9-1.2,3.9-1.4,5.9c-0.3,2.2,0.1,4.4,1.1,6.3
				c1.3,2.8,3.5,5.2,6.1,6.8c1.5,0.8,3,1.5,4.5,2.2c0.4,0.2,0.8,0.6,1.2,0.9c0.3,0.4,0.4,1,0.1,1.4c-0.7,1-1.7,1.8-2.9,2.1l-53.9,0
				c-0.4-0.3-0.8-0.7-1-1.2c-0.4-0.7-0.5-1.5-0.4-2.4c0.1-0.5,0.2-1,0.3-1.5c1.8-6.3,4-12.5,6.6-18.5c1.5-3.1,2.7-6.4,3.6-9.8
				c0.1-0.7,0.1-1.3,0-2c-0.2-0.8-0.6-1.6-1.1-2.2l-0.8-0.6c-0.7-0.6-1.5-1.1-2.2-1.6c-1.5-0.9-3.3-1.4-5.1-1.2
				c-0.7,0.1-1.4,0.3-2.1,0.6c-0.5,0.2-0.9,0.5-1.3,0.9c-1.7,1.5-3.1,3.3-4.1,5.3c-0.1,0.3-0.3,0.5-0.4,0.8c-1.9,3.4-3.6,7-5.1,10.7
				c-0.2,0.5-0.4,0.9-0.6,1.4c-0.8,2.6-1.2,5.3-1.1,8c0.1,2.4,0.3,4.8,0.6,7.2c0.1,0.5,0.1,1,0.1,1.5c0,0.5,0,1,0,1.5
				c0,0.2,0,0.4-0.1,0.6c-0.1,0.2-0.1,0.4-0.2,0.7c-0.5,0.8-1.3,1.5-2.2,1.8h-8c-0.1-0.1-0.2-0.3-0.3-0.4c-0.5-1-0.8-2.1-0.7-3.2
				c0.6-5.6,2-11.1,4.1-16.4c0.2-0.5,0.4-1,0.6-1.5c5.7-18.6,11.8-36.9,18.3-55.2c0.4-1.5,0.4-3.1,0.1-4.7c-0.3-1.1-0.7-2.2-1.1-3.2
				c-0.3-0.8-0.8-1.6-1.3-2.3c-1.1-1.1-2.5-1.8-4-2.1c-1.6-0.1-3.1-0.1-4.7,0c-2.8-0.3-5.6,0.8-7.4,3c-1.8,2.1-2.5,5.1-1.8,7.8
				l-0.9,5.2l-1.3,9l-0.9,4.7c-0.1,0.3-0.3,0.6-0.5,0.9c-0.6,0.7-1.4,1.1-2.3,1.1c-1-0.2-1.9-0.7-2.6-1.5c-1-1.1-1.4-2.6-1.3-4
				c0.1-0.6,0.2-1.2,0.4-1.8c0.2-0.7,0.3-1.4,0.5-2.1l0.1-0.5c0.1-0.4,0.1-0.9,0-1.4c-0.2-0.3-0.4-0.5-0.7-0.6c-0.5-0.1-1-0.1-1.5,0
				c-0.2,0-0.5,0.1-0.7,0.2c-0.6,0.2-1.2,0.5-1.8,0.9c-8.2,6.3-15,14.4-19.6,23.6c-0.1,0.2-0.2,0.3-0.3,0.5
				c-2.3,3.7-4.4,7.4-6.4,11.2c-2.8,6.6-6.7,12.6-11.5,17.9c-0.9,1.6-1.3,3.4-1.1,5.2l1.3,4.2c0.4,1.3,0.6,2.6,0.5,3.9
				c0,0.7-0.3,1.3-0.8,1.8l-59.5-0.1L298,628c-0.6-0.1-1.3-0.3-1.8-0.7c-1.2-0.7-2.1-1.8-2.5-3.1c0-0.1-0.1-0.3-0.1-0.4
				c-0.1-1.3,0.2-2.6,0.7-3.8c0.2-0.4,0.4-0.9,0.7-1.3c0.6-1,1.4-1.8,2.3-2.5c2.8-2,6.6-2.1,9.4-0.1c1.9,1.4,3.8,2.8,5.6,4.3
				c1.2,1.1,2.5,2.1,3.9,3.1c0.1,0.1,0.3,0.2,0.5,0.3c0.9,0.4,1.9,0.6,2.8,0.5c1.2-0.1,2.3-0.2,3.5-0.6c2.7-0.9,5.3-1.9,8-3
				c1-0.4,1.9-1,2.6-1.8c0.1-0.1,0.2-0.3,0.3-0.4c0.3-0.8,0.3-1.6,0-2.4l-2.9-5c-0.7-1.2-1.2-2.5-1.4-3.9c-0.3-3.5-0.2-6.9,0.3-10.4
				l2.4-12.8c0.3-1.3,0.5-2.6,0.6-3.9c0-0.4-0.1-0.8-0.3-1.2c-0.1-0.4-0.4-0.6-0.7-0.8c-0.3-0.1-0.7-0.1-1.1,0
				c-0.4,0.1-0.8,0.3-1.3,0.4c-1.1,0.6-2.1,1.2-3.2,1.8c-0.6,0.4-1.2,0.6-1.9,0.8c-1,0.1-2,0.1-3,0c-1.8-0.3-3.7-0.4-5.6-0.3
				c-1.4,0-2.8,0.4-4.1,1.1c-8.9,5.2-17.4,11.3-25.3,18c-4.1,4.1-7.2,9-9.3,14.4c-1.3,3.8-3,7.5-5,10.9c-1.1,1.3-2.5,2.3-4.1,2.8
				l-13.3,0.1L255.4,663.1"/>
			<path class="st1" d="M444.5,571.2c0.7,5,1.7,9.9,2.9,14.8c1.3,2.2,3.6,3.7,6.1,4c3.3,0.5,6.4-1.5,7.5-4.6c1.1-1.4,2-3,2.7-4.7
				c4.7-7.8,8.3-16.1,10.9-24.9c26.3-48.3,51.8-97.2,76.2-146.5L509.9,337l-40.5,75.9c-1.3,1.6-3,2.8-4.9,3.6
				c-8.6,2.5-17.3,4.7-26,6.5l-151.7,25.6c-9.8,1.5-19.5,3.2-29.2,5.2l-0.5,0.1c-1.3,0.5-2.6,1.1-3.7,2c-1.2,1.4-1.6,3.3-1.3,5.1
				c0.1,0.4,0.3,0.9,0.4,1.3c4.1,5.7,10.4,9.4,17.4,10c1.5,0,3.1-0.2,4.5-0.6c3.6-1,7.1-1.8,10.8-2.5c1.3-0.1,2.6-0.1,3.8-0.1
				c0.4,0,0.9,0,1.3,0.1c1.6,0.3,3.1,1.3,3.9,2.7c1.4,2.4,1,5.4-0.9,7.4c-0.2,0.1-0.3,0.3-0.5,0.4c-6.6,4.8-13.7,9.1-21,12.8
				c-2.1,1.1-4.3,2.1-6.4,3.1c-5.5,2.8-10.9,5.7-16.3,8.8c-2.9,1.6-5.5,3.7-7.6,6.2c-0.3,0.6-0.5,1.2-0.5,1.8
				c-0.2,1.8,0.5,3.7,1.9,4.9c0.1,0.1,0.3,0.2,0.5,0.3c8.5,4.2,18.6,3.6,26.7-1.5c19.8-13.5,39.4-27.4,58.7-41.5
				c1-0.6,1.9-1.2,3-1.7c1.1-0.6,2.3-1,3.5-1.2c3.5-0.4,7.1-0.2,10.4,0.8c1,0.3,1.9,0.9,2.6,1.6c1.1,1.2,1.6,2.7,1.6,4.3
				c-0.4,2.3-1.6,4.4-3.4,5.9c-2.2,2-4.7,3.7-7.3,5.2l-2.4,1.3l-26.9,15.9l-0.4,0.3c-3.2,2.4-6.1,5.1-8.9,8L270.5,549
				c-2.2,3-4.2,6.2-6,9.5c-1.2,2.2-1.6,4.7-1,7.2c0,0.1,0.1,0.3,0.1,0.4s0.1,0.3,0.2,0.4c0.8,1.5,2.1,2.6,3.8,2.9
				c0.4,0.1,0.8,0.1,1.3,0.2c3.2,0.3,6.4,0.1,9.6-0.5c4.7-1.8,8.8-4.8,11.9-8.8l16.8-23.3c4.3-4.7,9.3-8.7,14.6-12.1l52.4-30.3
				c6.5-4,14.2-5.5,21.7-4.2c17.9,3.8,36.1,6.5,54.4,7.9c3.2,0.1,6.4,0.8,9.4,1.9c2.2,0.4,4.3,1.6,5.8,3.4c0.9,1.6,1.2,3.5,0.8,5.3
				c-0.5,2.8-1.7,5.5-3.4,7.8c-5.8,9-10.8,18.5-15.1,28.3C443.8,553.3,442.7,562.4,444.5,571.2"/>
			<path class="st1" d="M455.6,615.4c1.1-1.3,2.1-2.7,3-4.1c1.7-3.3,1.7-7.3,0.1-10.6c-0.8-1.5-2.2-2.7-3.8-3.3
				c-1.4-0.2-2.7-0.3-4.1-0.3c-1.5,0.1-3,0.7-4.1,1.8c-0.7,1.2-1.2,2.4-1.4,3.8c-0.5,2.8-0.2,5.6,0.7,8.2c1.2,1.5,2.7,2.8,4.2,3.9
				C452.1,615.5,453.9,615.7,455.6,615.4"/>
			<path class="st9" d="M374,610c-1.7,1.8-3,3.8-3.8,6.2c-0.2,1.8-0.2,3.6-0.1,5.4c1.1,1.1,2.6,1.8,4.2,1.8c1.6,0.1,3.1-0.5,4.3-1.5
				c1.1-2.1,2.3-4.2,3.4-6.3c0.8-1.1,1.7-2.1,2.7-2.9c3-1.3,5.8-2.9,8.5-4.9c1.4-1.9,2.3-4,2.7-6.4c-0.1-1.9-0.6-3.7-1.4-5.3
				c-1.8-0.9-3.8-1.2-5.8-0.8c-2.2,1.7-4.2,3.5-6.1,5.5C379.7,603.8,376.9,606.9,374,610"/>
			<path class="st1" d="M339.3,596.8c-1.4,1.2-2.4,2.8-3,4.6c-0.5,2.9-0.8,5.9-1,8.8c0.1,0.8,0.3,1.7,0.5,2.5c0.3,1.2,1,2.3,1.9,3.1
				c1.4,1.3,3.4,1.8,5.3,1.3c2.6-0.7,4.9-2.2,6.7-4.3c0.5-0.6,0.9-1.1,1.4-1.7c2.6-2.4,4-6,3.6-9.6c0.1-1.7-0.5-3.4-1.6-4.8
				c-1.1-1.3-2.7-2.2-4.4-2.4c-1-0.2-2-0.3-3-0.2C343.6,594.7,341.3,595.5,339.3,596.8"/>
		</g>
	</g>
</g>
</svg>
