<?xml version="1.0" encoding="utf-8"?>
<!-- Generator: Adobe Illustrator 22.0.0, SVG Export Plug-In . SVG Version: 6.00 Build 0)  -->
<svg version="1.1" id="Layer_1" xmlns="http://www.w3.org/2000/svg" xmlns:xlink="http://www.w3.org/1999/xlink" x="0px" y="0px"
	 viewBox="0 0 841.9 1190.6" style="enable-background:new 0 0 841.9 1190.6;" xml:space="preserve">
<style type="text/css">
	.st0{fill:none;}
	.st1{fill:#010101;}
	.st2{fill:#FFFFFF;}
	.st3{fill:#FCEE1F;}
	.st4{fill:#EB2627;}
	.st5{fill:#2A3B8F;}
	.st6{fill:#010101;stroke:#010101;stroke-miterlimit:10;}
	.st7{fill-rule:evenodd;clip-rule:evenodd;}
	.st8{fill-rule:evenodd;clip-rule:evenodd;fill:#FCEE1F;}
	.st9{fill:#FCEE23;}
	.st10{fill-rule:evenodd;clip-rule:evenodd;fill:#FCEE23;}
	.st11{fill-rule:evenodd;clip-rule:evenodd;fill:#010101;}
	.st12{fill-rule:evenodd;clip-rule:evenodd;fill:#F3C636;}
	.st13{fill:#DDF1F6;}
	.st14{fill:none;stroke:#231F20;stroke-width:1.000000e-02;}
</style>
<g>
	<g>
		<rect x="0" y="0" class="st0" width="841.9" height="1190.6"/>
		<rect x="28.3" y="28.3" class="st1" width="785.2" height="1133.9"/>
		<rect x="34" y="34" class="st2" width="773.9" height="1122.5"/>
		<rect x="52.5" y="792.6" class="st3" width="737" height="348.7"/>
		<g id="stecon_37_">
			<path id="red_37_" class="st4" d="M52.8,53.5c42.5,0,85,0,127.6,0c0,22.6,0,45.1,0,67.7c-42.5,0-85,0-127.5,0c0-0.2,0-0.5,0-0.7
				c0-22.1,0-44.2,0-66.3C52.9,54,52.8,53.8,52.8,53.5z M55.8,87.4c0.2,0.1,0.4,0.2,0.5,0.3c3.6,1.8,7.1,3.7,10.7,5.5
				c16.4,8.4,32.7,16.8,49.1,25.2c0.4,0.2,0.7,0.2,1.1,0c13.8-7.1,27.6-14.2,41.4-21.3c6.1-3.2,12.3-6.3,18.4-9.5
				c0.1-0.1,0.3-0.2,0.5-0.3c-0.2-0.1-0.3-0.2-0.5-0.3c-3.8-1.9-7.6-3.9-11.4-5.8c-16.2-8.3-32.4-16.7-48.5-25
				c-0.3-0.2-0.5-0.2-0.9,0c-7,3.6-14.1,7.3-21.1,10.9c-12.6,6.5-25.2,12.9-37.7,19.4C56.9,86.8,56.4,87.1,55.8,87.4z"/>
			<g id="white_37_">
				<path class="st2" d="M55.8,87.4c0.6-0.3,1.1-0.6,1.6-0.8c12.6-6.5,25.2-12.9,37.7-19.4c7-3.6,14.1-7.2,21.1-10.9
					c0.3-0.2,0.6-0.1,0.9,0c16.2,8.3,32.4,16.7,48.5,25c3.8,1.9,7.6,3.9,11.4,5.8c0.1,0.1,0.3,0.1,0.5,0.3c-0.2,0.1-0.3,0.2-0.5,0.3
					c-6.1,3.2-12.3,6.3-18.4,9.5c-13.8,7.1-27.6,14.2-41.4,21.3c-0.4,0.2-0.7,0.2-1.1,0C99.7,110,83.4,101.6,67,93.1
					c-3.6-1.8-7.1-3.7-10.7-5.5C56.2,87.6,56,87.5,55.8,87.4z M59.7,87.4c0.2,0.1,0.3,0.2,0.4,0.2c1,0.5,1.9,1,2.9,1.5
					c17.7,9.1,35.5,18.2,53.2,27.3c0.3,0.1,0.5,0.2,0.8,0c12.9-6.6,25.7-13.2,38.6-19.8c5.8-3,11.6-6,17.5-9
					c0.1-0.1,0.3-0.2,0.5-0.3c-0.2-0.1-0.4-0.2-0.6-0.3c-15.9-8.2-31.9-16.4-47.8-24.5c-2.7-1.4-5.5-2.8-8.2-4.2
					c-0.2-0.1-0.4-0.1-0.7,0c-0.3,0.2-0.7,0.4-1.1,0.6C97,68.3,78.6,77.6,60.3,87C60.1,87.1,60,87.2,59.7,87.4z"/>
				<path class="st2" d="M147.4,79.5c1.4,0,2.7,0,4.1,0c0,5.2,0,10.3,0,15.4c-1.4,0-2.8,0-4.2,0c-0.9-2.6-1.8-5.3-2.7-7.9
					c0,0-0.1,0-0.1,0c0,2.6,0,5.2,0,7.9c-1.4,0-2.7,0-4,0c0,0,0,0,0,0c0,0,0,0,0,0c0-0.1,0-0.2,0-0.3c0-4.9,0-9.9,0-14.8
					c0,0,0-0.1,0-0.2c0.1,0,0.3,0,0.4,0c1.2,0,2.3,0,3.5,0c0.4,0,0.4,0,0.5,0.4c0.8,2.5,1.6,5,2.4,7.5c0,0.1,0.1,0.2,0.2,0.4
					C147.4,85,147.4,82.3,147.4,79.5z"/>
				<path class="st2" d="M138.8,87.3c0,1.5,0,3,0,4.5c0,0.8-0.3,1.4-0.8,1.9c-0.7,0.7-1.6,1.2-2.6,1.3c-1.5,0.3-3.1,0.3-4.6-0.1
					c-0.9-0.2-1.6-0.6-2.3-1.3c-0.5-0.5-0.8-1.1-0.8-1.9c0-3,0-6.1,0-9.1c0-0.7,0.2-1.3,0.7-1.8c0.6-0.7,1.4-1.2,2.3-1.4
					c1.7-0.4,3.5-0.4,5.2,0.1c0.7,0.2,1.4,0.6,2,1.2c0.6,0.5,0.9,1.2,0.8,2C138.8,84.3,138.8,85.8,138.8,87.3z M134.2,87.3
					c0-1.5,0-2.9,0-4.4c0-0.7-0.1-0.9-0.8-0.9c-0.1,0-0.2,0-0.2,0c-0.5,0.1-0.6,0.2-0.6,0.7c0,3,0,6,0,9c0,0.5,0.1,0.7,0.6,0.7
					c0.2,0,0.3,0,0.5,0c0.5-0.1,0.6-0.2,0.6-0.7C134.2,90.3,134.2,88.8,134.2,87.3z"/>
				<path class="st2" d="M126.7,88.9c0,0.2,0,0.3,0,0.5c0,0.8,0,1.6,0,2.4c0,0.8-0.3,1.5-0.9,2c-0.7,0.7-1.5,1.1-2.5,1.3
					c-1.5,0.3-3,0.3-4.5-0.1c-0.8-0.2-1.5-0.6-2.2-1.2c-0.6-0.6-0.9-1.2-0.9-2.1c0-3,0-5.9,0-8.9c0-0.9,0.3-1.6,0.9-2.1
					c0.7-0.7,1.6-1.1,2.5-1.2c1.4-0.2,2.9-0.2,4.3,0.1c0.9,0.2,1.6,0.6,2.3,1.2c0.6,0.6,0.9,1.2,0.9,2.1c0,0.8,0,1.7,0,2.5
					c0,0.2,0,0.3,0,0.5c-1.6,0-3.1,0-4.6,0c0-0.2,0-0.3,0-0.5c0-0.9,0-1.7,0-2.6c0-0.5-0.1-0.6-0.6-0.7c-0.1,0-0.2,0-0.3,0
					c-0.7,0.1-0.7,0.3-0.7,0.8c0,2.9,0,5.9,0,8.8c0,0.1,0,0.2,0,0.3c0,0.2,0.1,0.4,0.3,0.4c0.1,0,0.3,0.1,0.4,0.1
					c0.6,0.1,0.8-0.2,0.8-0.8c0-0.8,0-1.5,0-2.3c0-0.2,0-0.3,0-0.5C122.4,88.8,126,88.8,126.7,88.9z"/>
				<path class="st2" d="M105.5,94.9c0-5.1,0-10.2,0-15.3c0.4-0.1,8.7-0.1,9.1,0c0,0.8,0,1.6,0,2.5c-0.1,0-0.3,0-0.4,0
					c-1.1,0-2.2,0-3.3,0c-0.1,0-0.3,0-0.5,0c0,1.4,0,2.7,0,4.1c1,0,2.1,0,3.1,0c0,0.8,0,1.5,0,2.2c-0.4,0.1-0.7,0.1-1,0.1
					c-0.3,0-0.7,0-1,0c-0.3,0-0.7,0-1,0c-0.1,0.3-0.1,2.8,0,3.7c0.1,0,0.3,0,0.5,0c1.1,0,2.2,0,3.3,0c0.2,0,0.3,0,0.5,0
					c0,0.9,0,1.8,0,2.6C114.3,95,106,95,105.5,94.9z"/>
				<path class="st2" d="M101.1,94.9c-1.6,0-3.1,0-4.7,0c0-4.3,0-8.5,0-12.8c-1,0-2,0-3,0c-0.1-0.4-0.1-2.1,0-2.6
					c0.3-0.1,10.4-0.1,10.8,0c0.1,0.3,0.1,2.1,0,2.6c-1,0-2,0-3,0C101.1,86.4,101.1,90.6,101.1,94.9z"/>
				<path class="st2" d="M92.1,84.9c-1.6,0-3.1,0-4.6,0c0-0.2,0-0.3,0-0.5c0-0.6,0-1.2,0-1.8c0-0.4-0.1-0.6-0.5-0.6
					c-0.1,0-0.2,0-0.4,0c-0.3,0-0.5,0.2-0.5,0.5c0,0.6,0,1.1,0,1.7c0,0.4,0.2,0.6,0.5,0.8c0.4,0.2,0.7,0.4,1.1,0.7
					c1,0.6,2,1.1,2.9,1.7c0.1,0.1,0.3,0.2,0.4,0.3c0.7,0.5,1.1,1.2,1.1,2.1c0,0.7,0,1.3,0,2c0,0.7-0.2,1.3-0.7,1.7
					c-0.7,0.7-1.5,1.2-2.4,1.4c-1.5,0.4-3.1,0.4-4.7,0c-0.8-0.2-1.6-0.6-2.2-1.2c-0.6-0.5-0.9-1.2-0.9-2.1c0-0.8,0-1.5,0-2.3
					c0.3-0.1,3.9-0.1,4.5,0c0,0.1,0,0.3,0,0.4c0,0.7,0,1.3,0,2c0,0.4,0.1,0.6,0.5,0.6c0.2,0,0.5,0,0.7-0.1c0.2,0,0.3-0.2,0.3-0.4
					c0-0.6,0-1.2,0-1.8c0-0.3-0.2-0.6-0.4-0.7c-0.4-0.3-0.8-0.5-1.2-0.8c-1-0.6-2-1.2-2.9-1.8c-0.3-0.2-0.6-0.4-0.9-0.7
					c-0.4-0.4-0.6-0.9-0.6-1.5c0-0.7,0-1.3,0-2c0-0.8,0.3-1.4,0.8-1.9c0.7-0.7,1.6-1.2,2.6-1.4c1.4-0.3,2.8-0.3,4.2,0.1
					c0.9,0.2,1.7,0.7,2.3,1.3c0.5,0.5,0.8,1.1,0.8,1.9C92.1,83.5,92.1,84.2,92.1,84.9z"/>
			</g>
			<g id="blue_37_">
				<path class="st5" d="M59.7,87.4c0.3-0.1,0.5-0.2,0.7-0.3c18.3-9.4,36.6-18.8,54.9-28.1c0.4-0.2,0.7-0.4,1.1-0.6
					c0.2-0.1,0.4-0.1,0.7,0c2.7,1.4,5.4,2.8,8.2,4.2c15.9,8.2,31.9,16.4,47.8,24.5c0.2,0.1,0.3,0.2,0.6,0.3
					c-0.2,0.1-0.3,0.2-0.5,0.3c-5.8,3-11.6,6-17.5,9c-12.9,6.6-25.7,13.2-38.6,19.8c-0.3,0.1-0.5,0.1-0.8,0
					C98.5,107.3,80.8,98.2,63,89.1c-1-0.5-1.9-1-2.9-1.5C60,87.5,59.9,87.5,59.7,87.4z M147.4,79.5c0,2.8,0,5.5,0,8.3
					c-0.1-0.1-0.1-0.2-0.2-0.4c-0.8-2.5-1.6-5-2.4-7.5c-0.1-0.4-0.1-0.4-0.5-0.4c-1.2,0-2.3,0-3.5,0c-0.1,0-0.3,0-0.4,0
					c0,0.1,0,0.1,0,0.2c0,4.9,0,9.9,0,14.8c0,0.1,0,0.2,0,0.3c0,0,0,0,0,0c0,0,0,0,0,0c1.3,0,2.7,0,4,0c0-2.7,0-5.3,0-7.9
					c0,0,0.1,0,0.1,0c0.9,2.6,1.8,5.3,2.7,7.9c1.4,0,2.8,0,4.2,0c0-5.1,0-10.2,0-15.4C150.2,79.5,148.8,79.5,147.4,79.5z
					 M138.8,87.3c0-1.5,0-3,0-4.5c0-0.8-0.3-1.5-0.8-2c-0.6-0.6-1.2-1-2-1.2c-1.7-0.5-3.5-0.5-5.2-0.1c-0.9,0.2-1.7,0.7-2.3,1.4
					c-0.4,0.5-0.7,1.1-0.7,1.8c0,3,0,6.1,0,9.1c0,0.8,0.3,1.4,0.8,1.9c0.6,0.7,1.4,1.1,2.3,1.3c1.5,0.3,3.1,0.3,4.6,0.1
					c1-0.2,1.8-0.6,2.6-1.3c0.5-0.5,0.8-1.2,0.8-1.9C138.8,90.3,138.8,88.8,138.8,87.3z M126.7,88.9c-0.6-0.1-4.3-0.1-4.7,0
					c0,0.1,0,0.3,0,0.5c0,0.8,0,1.5,0,2.3c0,0.7-0.2,0.9-0.8,0.8c-0.1,0-0.3,0-0.4-0.1c-0.2-0.1-0.3-0.2-0.3-0.4c0-0.1,0-0.2,0-0.3
					c0-2.9,0-5.9,0-8.8c0-0.5,0-0.7,0.7-0.8c0.1,0,0.2,0,0.3,0c0.5,0.1,0.6,0.2,0.6,0.7c0,0.9,0,1.7,0,2.6c0,0.2,0,0.3,0,0.5
					c1.6,0,3.1,0,4.6,0c0-0.2,0-0.4,0-0.5c0-0.8,0-1.7,0-2.5c0-0.9-0.3-1.5-0.9-2.1c-0.7-0.6-1.4-1-2.3-1.2
					c-1.4-0.3-2.9-0.3-4.3-0.1c-0.9,0.2-1.8,0.6-2.5,1.2c-0.6,0.6-0.9,1.3-0.9,2.1c0,3,0,5.9,0,8.9c0,0.9,0.3,1.6,0.9,2.1
					c0.6,0.6,1.4,1,2.2,1.2c1.5,0.3,3,0.3,4.5,0.1c0.9-0.2,1.8-0.6,2.5-1.3c0.6-0.5,0.9-1.2,0.9-2c0-0.8,0-1.6,0-2.4
					C126.7,89.2,126.7,89.1,126.7,88.9z M92.1,84.9c0-0.7,0-1.4,0-2.1c0-0.8-0.3-1.4-0.8-1.9c-0.7-0.7-1.4-1.1-2.3-1.3
					c-1.4-0.3-2.8-0.3-4.2-0.1c-1,0.2-1.9,0.6-2.6,1.4c-0.5,0.5-0.8,1.1-0.8,1.9c0,0.7,0,1.3,0,2c0,0.6,0.2,1.1,0.6,1.5
					c0.3,0.2,0.6,0.5,0.9,0.7c1,0.6,2,1.2,2.9,1.8c0.4,0.2,0.8,0.5,1.2,0.8c0.2,0.2,0.4,0.4,0.4,0.7c0,0.6,0,1.2,0,1.8
					c0,0.2-0.1,0.4-0.3,0.4c-0.2,0-0.5,0.1-0.7,0.1c-0.4,0-0.5-0.2-0.5-0.6c0-0.7,0-1.3,0-2c0-0.1,0-0.3,0-0.4
					c-0.6-0.1-4.2-0.1-4.5,0c0,0.7,0,1.5,0,2.3c0,0.9,0.3,1.5,0.9,2.1c0.6,0.6,1.4,1,2.2,1.2c1.6,0.4,3.1,0.3,4.7,0
					c0.9-0.2,1.7-0.7,2.4-1.4c0.4-0.5,0.7-1.1,0.7-1.7c0-0.7,0-1.3,0-2c0-0.9-0.4-1.6-1.1-2.1c-0.1-0.1-0.3-0.2-0.4-0.3
					c-1-0.6-2-1.1-2.9-1.7c-0.4-0.2-0.7-0.4-1.1-0.7c-0.3-0.2-0.5-0.4-0.5-0.8c0-0.6,0-1.1,0-1.7c0-0.3,0.2-0.5,0.5-0.5
					c0.1,0,0.2,0,0.4,0c0.4,0,0.5,0.2,0.5,0.6c0,0.6,0,1.2,0,1.8c0,0.1,0,0.3,0,0.5C89.1,84.9,90.6,84.9,92.1,84.9z M105.5,94.9
					c0.5,0.1,8.8,0.1,9.1,0c0-0.9,0-1.7,0-2.6c-0.2,0-0.3,0-0.5,0c-1.1,0-2.2,0-3.3,0c-0.2,0-0.3,0-0.5,0c-0.1-0.8,0-3.3,0-3.7
					c0.3,0,0.7,0,1,0c0.3,0,0.7,0,1,0c0.3,0,0.7,0.1,1-0.1c0-0.7,0-1.5,0-2.2c-1.1,0-2.1,0-3.1,0c0-1.4,0-2.7,0-4.1
					c0.2,0,0.3,0,0.5,0c1.1,0,2.2,0,3.3,0c0.1,0,0.3,0,0.4,0c0-0.9,0-1.7,0-2.5c-0.4-0.1-8.7-0.1-9.1,0
					C105.5,84.7,105.5,89.8,105.5,94.9z M101.1,94.9c0-4.3,0-8.5,0-12.8c1,0,2,0,3,0c0.1-0.5,0.1-2.2,0-2.6
					c-0.4-0.1-10.5-0.1-10.8,0c-0.1,0.4-0.1,2.2,0,2.6c1,0,2,0,3,0c0,4.3,0,8.5,0,12.8C97.9,94.9,99.5,94.9,101.1,94.9z"/>
				<path class="st5" d="M134.2,87.3c0,1.5,0,3,0,4.5c0,0.5-0.1,0.6-0.6,0.7c-0.2,0-0.3,0-0.5,0c-0.5-0.1-0.6-0.2-0.6-0.7
					c0-3,0-6,0-9c0-0.5,0.1-0.6,0.6-0.7c0.1,0,0.2,0,0.2,0c0.7,0,0.8,0.1,0.8,0.9C134.2,84.4,134.2,85.9,134.2,87.3z"/>
			</g>
		</g>
	</g>
	<g>
		<g>
			<path class="st6" d="M163.5,1089.9c0-5.5,0.5-10.1,1.6-13.8c0.8-2.7,1.9-5.2,3.2-7.4c1.4-2.2,2.8-3.8,4.5-4.8
				c2.2-1.4,4.6-2.1,7.4-2.1c5.1,0,9.2,2.5,12.2,7.4s4.6,11.7,4.6,20.5c0,8.7-1.5,15.4-4.5,20.3s-7.1,7.3-12.2,7.3
				c-5.1,0-9.2-2.4-12.3-7.3C165,1105.2,163.5,1098.5,163.5,1089.9z M170.7,1089.6c0,6.1,0.9,10.7,2.7,13.8c1.8,3.1,4.1,4.7,6.9,4.7
				s5.1-1.6,6.8-4.7c1.8-3.1,2.7-7.8,2.7-14c0-6.2-0.9-10.7-2.6-13.8c-1.7-3-4-4.5-6.9-4.5s-5.2,1.5-7,4.6
				C171.6,1078.8,170.7,1083.4,170.7,1089.6z"/>
			<path class="st6" d="M202.5,1116.5v-53.7h23.7v9.1h-16.7v12.7h14.4v9.1h-14.4v22.8H202.5z"/>
			<path class="st6" d="M280.9,1096.7l6.8,3.3c-1,5.9-2.8,10.2-5.2,13.1c-2.4,2.8-5.5,4.3-9.2,4.3c-4.6,0-8.4-2.4-11.3-7.3
				c-3-4.9-4.4-11.5-4.4-20c0-8.9,1.5-15.9,4.5-20.8c3-4.9,6.9-7.4,11.7-7.4c4.2,0,7.7,1.9,10.3,5.8c1.6,2.3,2.8,5.6,3.5,9.9
				l-6.9,2.6c-0.4-2.8-1.3-5-2.6-6.6s-2.9-2.4-4.7-2.4c-2.6,0-4.6,1.4-6.2,4.3c-1.6,2.9-2.4,7.5-2.4,13.9c0,6.8,0.8,11.6,2.4,14.5
				c1.6,2.9,3.6,4.3,6.1,4.3c1.9,0,3.4-0.9,4.8-2.7C279.3,1103.5,280.3,1100.7,280.9,1096.7z"/>
			<path class="st6" d="M293.6,1116.5v-53.7h14.7c3.7,0,6.4,0.5,8,1.4c1.7,1,3,2.7,4,5.1s1.5,5.3,1.5,8.5c0,4-0.8,7.4-2.3,10
				c-1.5,2.6-3.8,4.3-6.8,5c1.5,1.4,2.8,2.9,3.7,4.5c1,1.6,2.3,4.5,4,8.7l4.2,10.5h-8.3l-5-11.7c-1.8-4.2-3-6.8-3.7-7.9
				c-0.7-1.1-1.4-1.8-2.1-2.2c-0.7-0.4-1.9-0.6-3.5-0.6h-1.4v22.4H293.6z M300.6,1085.5h5.2c3.3,0,5.4-0.2,6.3-0.7
				c0.8-0.4,1.5-1.2,2-2.3c0.5-1.1,0.7-2.4,0.7-4c0-1.8-0.3-3.3-0.9-4.4c-0.6-1.1-1.5-1.8-2.6-2.1c-0.6-0.1-2.3-0.2-5.1-0.2h-5.4
				V1085.5z"/>
			<path class="st6" d="M328.4,1062.8h7v29.1c0,4.6,0.1,7.6,0.3,9c0.3,2.2,1,4,2.1,5.3c1.1,1.3,2.7,2,4.6,2c2,0,3.5-0.6,4.5-1.9
				c1-1.3,1.6-2.8,1.8-4.6s0.3-4.9,0.3-9.1v-29.7h7v28.2c0,6.4-0.2,11-0.6,13.7c-0.4,2.7-1.1,4.9-2.1,6.7c-1,1.8-2.4,3.3-4.1,4.4
				s-3.9,1.6-6.6,1.6c-3.3,0-5.8-0.6-7.5-1.8c-1.7-1.2-3.1-2.7-4-4.6c-1-1.9-1.6-3.9-2-6c-0.5-3.1-0.7-7.6-0.7-13.6V1062.8z"/>
			<path class="st6" d="M361.6,1099l6.8-1c0.4,3.5,1.2,6.1,2.5,7.8s2.9,2.5,5.1,2.5c2.2,0,3.9-0.7,5.1-2.2c1.1-1.5,1.7-3.2,1.7-5.2
				c0-1.3-0.2-2.3-0.7-3.2c-0.5-0.9-1.3-1.7-2.5-2.3c-0.8-0.4-2.7-1.2-5.6-2.3c-3.7-1.4-6.4-3.2-7.9-5.3c-2.1-3-3.2-6.6-3.2-10.8
				c0-2.7,0.5-5.3,1.5-7.7c1-2.4,2.4-4.2,4.3-5.4c1.9-1.2,4.1-1.9,6.8-1.9c4.3,0,7.6,1.5,9.8,4.4c2.2,3,3.3,6.9,3.5,11.8l-7,0.5
				c-0.3-2.8-0.9-4.7-1.9-6c-1-1.2-2.5-1.8-4.4-1.8c-2,0-3.6,0.6-4.8,1.9c-0.7,0.8-1.1,1.9-1.1,3.3c0,1.3,0.3,2.4,1,3.3
				c0.9,1.1,3,2.3,6.4,3.6c3.4,1.2,5.9,2.5,7.5,3.9s2.9,3.1,3.8,5.5c0.9,2.3,1.4,5.2,1.4,8.6c0,3.1-0.5,6-1.6,8.6s-2.7,4.7-4.7,6
				s-4.5,2-7.5,2c-4.4,0-7.7-1.6-10.1-4.7C363.4,1109.6,362,1105,361.6,1099z"/>
			<path class="st6" d="M395.5,1116.5v-53.7h7v21.1h13.7v-21.1h7v53.7h-7V1093h-13.7v23.5H395.5z"/>
			<path class="st6" d="M430.2,1116.5v-53.7h7v53.7H430.2z"/>
			<path class="st6" d="M443.9,1116.5v-53.7h6.8l14.1,35.9v-35.9h6.5v53.7h-7l-13.9-35v35H443.9z"/>
			<path class="st6" d="M494.7,1096.7v-9h15v21.4c-1.5,2.2-3.6,4.1-6.4,5.8s-5.6,2.5-8.4,2.5c-3.6,0-6.8-1.2-9.5-3.5
				s-4.7-5.7-6.1-10.1c-1.4-4.4-2-9.1-2-14.3c0-5.6,0.8-10.6,2.3-14.9c1.5-4.3,3.7-7.7,6.6-10c2.2-1.8,5-2.7,8.3-2.7
				c4.3,0,7.6,1.4,10.1,4.2c2.4,2.8,4,6.7,4.7,11.6l-6.9,2c-0.5-2.6-1.4-4.7-2.7-6.2c-1.3-1.5-3-2.3-5-2.3c-3,0-5.5,1.5-7.3,4.5
				c-1.8,3-2.7,7.5-2.7,13.4c0,6.4,0.9,11.2,2.7,14.3c1.8,3.2,4.2,4.8,7.2,4.8c1.5,0,2.9-0.4,4.4-1.3c1.5-0.9,2.7-2,3.8-3.2v-6.8
				H494.7z"/>
			<path class="st6" d="M543,1116.5v-53.7h7v21.1h13.7v-21.1h7v53.7h-7V1093H550v23.5H543z"/>
			<path class="st6" d="M609,1116.5h-7.6l-3-12.2h-13.8l-2.9,12.2h-7.4l13.5-53.7h7.4L609,1116.5z M596.2,1095.2l-4.8-19.9
				l-4.7,19.9H596.2z"/>
			<path class="st6" d="M612.8,1116.5v-53.7h6.8l14.1,35.9v-35.9h6.5v53.7h-7l-13.9-35v35H612.8z"/>
			<path class="st6" d="M647.5,1062.8h12.8c2.9,0,5.1,0.3,6.6,1c2,0.9,3.8,2.6,5.2,4.9s2.5,5.3,3.3,8.7c0.8,3.4,1.1,7.7,1.1,12.7
				c0,4.4-0.4,8.2-1.1,11.4c-0.9,3.9-2.1,7.1-3.7,9.5c-1.2,1.8-2.8,3.3-4.9,4.3c-1.5,0.8-3.6,1.1-6.2,1.1h-13.1V1062.8z
				 M654.5,1071.9v35.6h5.2c1.9,0,3.4-0.2,4.2-0.5c1.1-0.4,2.1-1.2,2.8-2.2s1.4-2.8,1.8-5.2c0.5-2.4,0.7-5.7,0.7-9.8
				s-0.2-7.3-0.7-9.6c-0.5-2.2-1.1-4-2-5.2c-0.8-1.2-1.9-2.1-3.2-2.5c-1-0.3-2.9-0.5-5.7-0.5H654.5z"/>
		</g>
		<g>
			<path class="st6" d="M319.6,951.8h13.8c2.7,0,4.8,0.2,6.1,0.5c1.3,0.4,2.5,1.1,3.6,2.2s1.9,2.6,2.7,4.5c0.7,1.9,1.1,4,1.1,6.3
				c0,2.5-0.4,4.8-1.3,6.9s-2.1,3.7-3.5,4.7c2.1,1,3.7,2.6,4.9,4.9c1.1,2.3,1.7,5,1.7,8.1c0,2.4-0.4,4.8-1.1,7.1
				c-0.7,2.3-1.7,4.2-3,5.5s-2.8,2.2-4.7,2.5c-1.2,0.2-4,0.3-8.4,0.4h-11.8V951.8z M326.5,960.7v12.4h4.6c2.7,0,4.4-0.1,5.1-0.2
				c1.2-0.2,2.1-0.9,2.8-1.9c0.7-1.1,1-2.5,1-4.2c0-1.7-0.3-3-0.9-4c-0.6-1-1.5-1.7-2.6-1.9c-0.7-0.1-2.7-0.2-6-0.2H326.5z
				 M326.5,982.1v14.4h6.5c2.5,0,4.1-0.1,4.8-0.3c1-0.3,1.9-1,2.5-2.1c0.7-1.1,1-2.7,1-4.6c0-1.6-0.3-3-0.8-4.1
				c-0.5-1.1-1.2-1.9-2.2-2.5s-3-0.8-6.2-0.8H326.5z"/>
			<path class="st6" d="M354.4,1005.5v-53.7H380v9.1h-18.6v11.9h17.3v9h-17.3v14.6h19.3v9H354.4z"/>
			<path class="st6" d="M391.5,1005.5l-8.2-53.7h7.1l5.2,36.9l6.3-36.9h8.3l6.1,37.5l5.3-37.5h7l-8.4,53.7h-7.4l-6.9-40.1l-6.9,40.1
				H391.5z"/>
			<path class="st6" d="M460.6,1005.5H453l-3-12.2h-13.8l-2.9,12.2H426l13.5-53.7h7.4L460.6,1005.5z M447.8,984.2l-4.8-19.9
				l-4.7,19.9H447.8z"/>
			<path class="st6" d="M464.3,1005.5v-53.7H479c3.7,0,6.4,0.5,8,1.4c1.7,1,3,2.7,4,5.1c1,2.5,1.5,5.3,1.5,8.5c0,4-0.8,7.4-2.3,10
				c-1.5,2.6-3.8,4.3-6.8,5c1.5,1.4,2.8,2.9,3.7,4.5s2.3,4.5,4,8.7l4.2,10.5h-8.3l-5-11.7c-1.8-4.2-3-6.8-3.7-7.9
				c-0.7-1.1-1.4-1.8-2.1-2.2c-0.7-0.4-1.9-0.6-3.5-0.6h-1.4v22.4H464.3z M471.3,974.5h5.2c3.3,0,5.4-0.2,6.3-0.7s1.5-1.2,2-2.3
				s0.7-2.4,0.7-4c0-1.8-0.3-3.3-0.9-4.4c-0.6-1.1-1.5-1.8-2.6-2.1c-0.6-0.1-2.3-0.2-5.1-0.2h-5.4V974.5z"/>
			<path class="st6" d="M499.2,1005.5v-53.7h25.6v9.1h-18.6v11.9h17.3v9h-17.3v14.6h19.3v9H499.2z"/>
		</g>
		<g>
			<path class="st6" d="M241.9,893.2c0,2.8-0.9,5.1-2.7,7c-1.8,1.9-4,2.8-6.6,2.8c-2.6,0-4.8-1-6.6-2.9c-1.8-1.9-2.7-4.2-2.7-7
				c0-2.8,0.9-5.1,2.7-7c1.8-1.9,4-2.9,6.6-2.9c1,0,1.6,0,1.8,0.1v-11.2c0-1.4-2.7-2.8-8-4.1c-5.4-1.3-10.2-2.4-14.6-3.2
				c0.2-4.8,1.3-8.6,3.5-11.5c2.2-2.9,5.3-4.4,9.4-4.4c1.7,0,4,0.4,6.9,1.2c2.9,0.8,5.1,1.2,6.3,1.2c1.4,0,2.1-1,2.3-2.9l5.9,1.7
				c-1.4,5.3-4.1,7.9-8,7.9c-1.5,0-3.5-0.4-6.2-1.1c-2.7-0.7-4.7-1.1-6.1-1.1c-3.5,0-5.6,1.4-6,4.3c6.2,1.4,11.4,2.9,15.6,4.4
				c4.2,1.6,6.3,4.2,6.3,8.1V893.2z M236.7,893c0-1.2-0.4-2.3-1.2-3.1c-0.8-0.9-1.8-1.3-2.9-1.3c-1.1,0-2.1,0.4-2.9,1.3
				c-0.8,0.9-1.2,1.9-1.2,3.1c0,1.2,0.4,2.3,1.2,3.1c0.8,0.9,1.8,1.3,2.9,1.3c1.1,0,2.1-0.4,2.9-1.3
				C236.2,895.3,236.7,894.3,236.7,893z"/>
			<path class="st6" d="M285.4,850.3c-0.4,13.8-6.4,20.7-18,20.7c-4.8,0-8.5-1.1-11.1-3.2c-2.6-2.1-3.9-4.8-3.9-8.1
				c0-2.5,0.8-4.6,2.4-6.4c1.6-1.7,3.6-2.6,5.9-2.6c2.5,0,4.5,0.9,6.1,2.7c1.6,1.8,2.4,3.9,2.4,6.3c0,2.3-0.6,4.1-1.8,5.2
				c7.5-0.3,11.2-5.2,11.2-14.6H285.4z M285.4,879.8c-0.4,13.8-6.4,20.7-18,20.7c-4.8,0-8.5-1.1-11.1-3.2c-2.6-2.1-3.9-4.8-3.9-8.1
				c0-2.5,0.8-4.6,2.4-6.4c1.6-1.7,3.6-2.6,5.9-2.6c2.5,0,4.5,0.9,6.1,2.7c1.6,1.8,2.4,3.9,2.4,6.3c0,2.3-0.6,4.1-1.8,5.2
				c7.5-0.3,11.2-5.2,11.2-14.6H285.4z M264.3,859.6c0-1.1-0.4-2.1-1.1-2.9c-0.7-0.8-1.6-1.2-2.7-1.2c-1,0-1.9,0.4-2.6,1.2
				c-0.7,0.8-1,1.7-1,2.9c0,1.1,0.3,2.1,1,2.8c0.7,0.7,1.5,1.1,2.6,1.1c1,0,1.9-0.4,2.7-1.1C264,861.7,264.3,860.8,264.3,859.6z
				 M264.3,889.1c0-1.1-0.4-2.1-1.1-2.9c-0.7-0.8-1.6-1.2-2.7-1.2c-1,0-1.9,0.4-2.6,1.2c-0.7,0.8-1,1.7-1,2.9c0,1.1,0.3,2.1,1,2.8
				c0.7,0.7,1.5,1.1,2.6,1.1c1,0,1.9-0.4,2.7-1.1C264,891.2,264.3,890.3,264.3,889.1z"/>
			<path class="st6" d="M329.6,892.4c0,3-0.9,5.5-2.8,7.5c-1.9,1.9-4.2,2.9-6.9,2.9c-2.6,0-4.8-1-6.5-2.9c-1.8-1.9-2.7-4.2-2.7-6.9
				c0-2.8,0.9-5.1,2.7-7.1c1.8-1.9,3.9-2.9,6.5-2.9c0.9,0,1.6,0,2.2,0.1v-18.9c0-5.5-3.7-8.2-11.1-8.2c-3.1,0-5.7,1-7.8,3
				c-2.1,2-3.2,4.7-3.2,8h-7.3c0.2-5.7,2-10.2,5.3-13.3c3.3-3.2,7.6-4.7,13-4.7c5.3,0,9.6,1.1,12.8,3.4c3.9,2.7,5.8,6.8,5.8,12.4
				V892.4z M324,892.9c0-1.2-0.4-2.3-1.2-3.1c-0.8-0.9-1.8-1.3-2.9-1.3c-1.1,0-2.1,0.4-2.9,1.3c-0.8,0.9-1.2,1.9-1.2,3.1
				c0,1.2,0.4,2.3,1.2,3.1c0.8,0.9,1.8,1.3,2.9,1.3c1.1,0,2.1-0.4,2.9-1.3C323.6,895.2,324,894.1,324,892.9z"/>
			<path class="st6" d="M341.8,818.3c-2.1,14.4-9.3,21.6-21.8,21.6c-4.8,0-8.5-1.1-11.1-3.2c-2.6-2.1-3.9-4.8-3.9-8.1
				c0-2.5,0.8-4.6,2.4-6.4c1.6-1.7,3.6-2.6,5.9-2.6c2.5,0,4.5,0.9,6.1,2.7c1.6,1.8,2.4,3.9,2.4,6.3c0,2.3-0.6,4.1-1.8,5.2
				c8.4-0.3,13.3-5.5,14.6-15.5H341.8z M317,828.6c0-1.1-0.4-2.1-1.1-2.9c-0.7-0.8-1.6-1.2-2.7-1.2c-1,0-1.9,0.4-2.6,1.2
				c-0.7,0.8-1,1.7-1,2.9c0,1.1,0.3,2.1,1,2.8c0.7,0.7,1.6,1.1,2.6,1.1c1,0,1.9-0.4,2.7-1.1C316.7,830.6,317,829.7,317,828.6z"/>
			<path class="st6" d="M368,901.9h-7.4L338,874.5l4.5-5.6l18,21.8v-22.4c-0.2,0.1-1,0.1-2.3,0.1c-2.5,0-4.6-0.9-6.3-2.7
				c-1.7-1.8-2.6-4-2.6-6.8c0-2.8,0.9-5.1,2.7-7.1c1.8-1.9,3.9-2.9,6.3-2.9c2.8,0,5.2,1,7,2.9c1.9,2,2.8,4.5,2.8,7.6V901.9z
				 M362.3,858.7c0-1.2-0.4-2.2-1.2-3c-0.8-0.8-1.8-1.3-2.9-1.3c-1.1,0-2.1,0.4-2.9,1.3c-0.8,0.8-1.2,1.9-1.2,3c0,1.2,0.4,2.2,1.2,3
				c0.8,0.8,1.8,1.3,2.9,1.3c1.1,0,2.1-0.4,2.9-1.3C361.9,860.9,362.3,859.9,362.3,858.7z"/>
			<path class="st6" d="M420.9,901.9h-7.5V873c0-2.3-0.4-3.5-1.3-3.5c-0.6,0-1.6,1.1-2.8,3.3l-15.7,29.1h-7v-33.4
				c-0.8,0.2-1.5,0.3-2.1,0.3c-2.6,0-4.8-1-6.5-2.9c-1.8-2-2.7-4.3-2.7-7.1c0-2.7,0.9-5,2.7-6.9c1.8-1.9,3.9-2.9,6.5-2.9
				c2.7,0,5,1,6.8,3c1.8,2,2.7,4.5,2.7,7.5v19.4c0,2.3-0.5,6.8-1.5,13.8c0.8-3.7,2-7.1,3.6-10.3l6.6-12.3c1.5-2.6,2.7-4.1,3.9-4.4
				c-1.6-2.2-2.4-4.4-2.4-6.8c0-2.8,0.9-5.1,2.7-7c1.8-1.9,3.9-2.9,6.5-2.9c2.6,0,4.8,1,6.5,2.9c1.8,1.9,2.7,4.2,2.7,7
				c0,2.9-1.1,5.4-3.4,7.5c1,2.2,1.6,4.5,1.6,7V901.9z M388.7,858.9c0-1.2-0.4-2.3-1.2-3.1c-0.8-0.9-1.8-1.3-2.9-1.3
				c-1.1,0-2.1,0.4-2.9,1.3c-0.8,0.9-1.2,1.9-1.2,3.1c0,1.2,0.4,2.3,1.2,3.1c0.8,0.9,1.8,1.3,2.9,1.3c1.1,0,2.1-0.4,2.9-1.3
				C388.3,861.1,388.7,860.1,388.7,858.9z M417.7,858.9c0-1.2-0.4-2.3-1.2-3.1c-0.8-0.9-1.8-1.3-2.9-1.3c-1.1,0-2.1,0.4-2.9,1.3
				c-0.8,0.9-1.2,1.9-1.2,3.1c0,1.2,0.4,2.3,1.2,3.1c0.8,0.9,1.8,1.3,2.9,1.3c1.1,0,2.1-0.4,2.9-1.3
				C417.3,861.1,417.7,860.1,417.7,858.9z"/>
			<path class="st6" d="M473.3,877.3c0,3.5-0.8,5.9-2.5,7.2c3.1,1.9,4.7,4.8,4.7,8.6c0,2.8-0.9,5.1-2.7,7c-1.8,1.9-3.9,2.8-6.4,2.8
				c-2.3,0-4.4-0.8-6-2.4c-1.7-1.6-2.7-3.6-3-6c-2.6,1.4-4.4,2.4-5.6,3.1c-1.9,1.3-3.5,2.7-4.6,4.3h-7.6v-33.4
				c-0.8,0.2-1.5,0.3-2.1,0.3c-2.6,0-4.8-1-6.5-2.9c-1.8-2-2.7-4.3-2.7-7.1c0-2.7,0.9-5,2.7-6.9c1.8-1.9,3.9-2.9,6.5-2.9
				c2.7,0,5,1,6.8,3c1.8,2,2.7,4.5,2.7,7.5v33c1.3-1,4.2-2.6,8.7-4.5c4-1.8,6.8-3.6,8.3-5.5c1.1-1.3,1.7-3.4,1.7-6.2V850h7.5V877.3z
				 M441.6,858.9c0-1.2-0.4-2.3-1.2-3.1c-0.8-0.9-1.8-1.3-2.9-1.3c-1.1,0-2.1,0.4-2.9,1.3c-0.8,0.9-1.2,1.9-1.2,3.1
				c0,1.2,0.4,2.3,1.2,3.1c0.8,0.9,1.8,1.3,2.9,1.3c1.1,0,2.1-0.4,2.9-1.3C441.2,861.1,441.6,860.1,441.6,858.9z M470.4,893.1
				c0-1.2-0.4-2.2-1.2-3.1c-0.8-0.9-1.8-1.3-2.9-1.3c-1.1,0-2.1,0.4-2.9,1.3c-0.8,0.9-1.2,1.9-1.2,3.1c0,1.2,0.4,2.2,1.2,3.1
				c0.8,0.9,1.8,1.3,2.9,1.3c1.1,0,2.1-0.4,2.9-1.3C470,895.3,470.4,894.3,470.4,893.1z"/>
			<path class="st6" d="M473.5,843.4c-10-3.5-19.1-5.2-27.4-5.2c-3.8,0-7.6,0.3-11.5,0.8c1-11.6,6.8-17.4,17.6-17.4
				c5.7,0,10.3,1.7,13.8,5.1v-9h7.3v23.9C473.3,842.2,473.4,842.8,473.5,843.4z M465.8,835.7c-0.5-2.2-1.9-4.2-4.4-6.1
				c-2.4-1.9-5.2-2.9-8.2-2.9c-2.9,0-5.4,0.6-7.5,1.9c-2.1,1.3-3.4,2.9-4,5c1.4-0.3,3.5-0.5,6.4-0.5
				C454.1,833.1,460,834,465.8,835.7z"/>
			<path class="st6" d="M527,890.2c0,8.5-5.8,12.7-17.5,12.7c-11.8,0-17.6-4.2-17.6-12.7v-21.7c-0.8,0.2-1.5,0.3-2.1,0.3
				c-2.6,0-4.8-1-6.5-2.9c-1.8-2-2.7-4.3-2.7-7.1c0-2.7,0.9-5,2.7-6.9c1.8-1.9,3.9-2.9,6.5-2.9c2.7,0,5,1,6.8,3
				c1.8,2,2.7,4.5,2.7,7.5v30.7c0,1.7,1.1,3.1,3.3,4.1c2.2,1,4.5,1.6,6.9,1.6c2.3,0,4.6-0.5,6.8-1.6c2.2-1,3.3-2.4,3.3-4.1V850h7.5
				V890.2z M493.9,858.9c0-1.2-0.4-2.3-1.2-3.1c-0.8-0.9-1.8-1.3-2.9-1.3c-1.1,0-2.1,0.4-2.9,1.3c-0.8,0.9-1.2,1.9-1.2,3.1
				c0,1.2,0.4,2.3,1.2,3.1c0.8,0.9,1.8,1.3,2.9,1.3c1.1,0,2.1-0.4,2.9-1.3C493.5,861.1,493.9,860.1,493.9,858.9z"/>
			<path class="st6" d="M577.4,901.9h-7.5c-4.7-4.5-9.4-7.7-14.1-9.5v0.7c0,2.8-1,5.1-3,7c-2,1.9-4.2,2.9-6.7,2.9
				c-2.7,0-5-1-6.9-3.1s-2.9-4.5-2.9-7.4c0-2.9,1-5.3,2.9-7.3c1.9-2,4.2-3.1,6.9-3.1h0.8v-13.5c-0.8,0.2-1.5,0.3-2.1,0.3
				c-2.6,0-4.8-1-6.5-2.9c-1.8-2-2.7-4.3-2.7-7.1c0-2.7,0.9-5,2.7-6.9c1.8-1.9,3.9-2.9,6.5-2.9c2.7,0,5,1,6.8,3
				c1.8,2,2.7,4.5,2.7,7.5v24.7c6.4,2.3,11.5,5.4,15.5,9.2V850h7.5V901.9z M549,858.9c0-1.2-0.4-2.3-1.2-3.1
				c-0.8-0.9-1.8-1.3-2.9-1.3c-1.1,0-2.1,0.4-2.9,1.3c-0.8,0.9-1.2,1.9-1.2,3.1c0,1.2,0.4,2.3,1.2,3.1c0.8,0.9,1.8,1.3,2.9,1.3
				c1.1,0,2.1-0.4,2.9-1.3C548.6,861.1,549,860.1,549,858.9z M550.2,892.4c0-1.2-0.4-2.3-1.2-3.1c-0.8-0.9-1.8-1.3-2.9-1.3
				c-1.1,0-2.1,0.4-2.9,1.3c-0.8,0.9-1.2,1.9-1.2,3.1c0,1.2,0.4,2.3,1.2,3.1c0.8,0.9,1.8,1.3,2.9,1.3c1.1,0,2.1-0.4,2.9-1.3
				C549.8,894.6,550.2,893.6,550.2,892.4z"/>
			<path class="st6" d="M577.7,843.4c-10-3.5-19.1-5.2-27.4-5.2c-3.8,0-7.6,0.3-11.5,0.8c1-11.6,6.8-17.4,17.6-17.4
				c1.2,0,2.3,0.1,3.4,0.3v-4.2h5.4v5.5c1.8,0.8,3.4,2,5,3.5v-9h7.3v23.9L577.7,843.4z M569.9,835.7c-0.5-2.2-1.9-4.2-4.4-6.1
				c-2.4-1.9-5.2-2.9-8.2-2.9c-2.9,0-5.4,0.6-7.5,1.9c-2.1,1.3-3.4,2.9-4,5c1.4-0.3,3.5-0.5,6.4-0.5
				C558.3,833.1,564.1,834,569.9,835.7z"/>
			<path class="st6" d="M625,890.2c0,4.5-1.9,7.8-5.7,10c-3.1,1.8-7,2.7-11.8,2.7s-8.7-0.9-11.7-2.7c-3.6-2.2-5.4-5.5-5.4-10V877
				c0-3.1,0.8-5.8,2.4-7.9c1.6-2.1,3.9-3.2,6.9-3.2c2.6,0,4.8,0.9,6.5,2.8c1.8,1.9,2.7,4.2,2.7,7c0,2.7-0.9,5-2.7,6.9
				c-1.8,1.9-3.9,2.9-6.5,2.9c-0.7,0-1.3-0.1-1.8-0.3v4c0,4.5,3.3,6.7,9.8,6.7c6.6,0,9.9-2.3,9.9-6.8v-24.8c0-2.8-1.3-5-3.7-6.5
				c-2.1-1.2-4.7-1.8-7.7-1.8c-7.7,0-11.8,2.1-12.4,6.2h-7.3c1-8.8,7.4-13.2,19.1-13.3c5.4,0,9.8,1.1,13.3,3.3
				c4.2,2.8,6.3,6.9,6.3,12.5V890.2z M603.8,875.7c0-1.2-0.4-2.2-1.2-3.1c-0.8-0.9-1.8-1.3-2.9-1.3c-1.1,0-2.1,0.4-2.9,1.3
				c-0.8,0.9-1.2,1.9-1.2,3.1c0,1.2,0.4,2.2,1.2,3.1c0.8,0.9,1.8,1.3,2.9,1.3c1.1,0,2.1-0.4,2.9-1.3
				C603.4,877.9,603.8,876.9,603.8,875.7z"/>
		</g>
	</g>
	<g>
		<g>
			<path class="st7" d="M445.4,87.7c0,0-5.2-12.9-22-12.9c-16.8,0-24.6,12.9-24.6,12.9L56.5,684.6c0,0-8.6,14.7-0.7,28.5
				c0,0,8.2,13.6,21.8,13.6c13.6,0,682.7,0,682.7,0s18.3,0.5,25.6-13.8c6.1-12,3.1-21.2,0.2-26.7L445.4,87.7"/>
			<polyline class="st8" points="423,139.2 112.7,679.8 727.9,679.8 423,139.2 			"/>
		</g>
		<g>
			<polyline class="st11" points="227.3,658.3 391.5,658.3 391.5,641.1 227.3,641.1 227.3,658.3 			"/>
			<polyline class="st11" points="226.7,507.2 391.2,507.2 391.2,489.8 226.7,489.8 226.7,507.2 			"/>
			<polyline class="st11" points="323.6,372.5 323.6,441.6 344,441.6 309.2,480.1 274.5,441.6 294.9,441.6 294.9,372.5 323.6,372.5 
							"/>
			<path class="st11" d="M453.3,609l-77.8,0c-7.2,0-12.9,5.8-12.9,12.9c0,7.2,5.8,12.9,12.9,12.9l143.4,0c43.3,0,61-18.7,66.6-26.8
				h38v-97.8h-38c-0.7-1.2-17.5-26.8-66.6-26.8H397.2c3.4,19.2,18.1,23.8,24.6,23.8h31.7c2.6,0,3.1,2.5,3.1,3c0,1.9-2.1,3-2.7,3
				H343.6c-7.2,0-12.8,5.8-12.8,12.9c0,7.2,5.8,12.9,12.9,12.9l109.8,0c2.6,0,3.1,2.5,3.1,3c0,1.9-2.1,3-2.7,3H325.5
				c-7.2,0-12.9,5.8-12.9,12.9c0,7.1,5.8,12.9,12.9,12.9l128,0c2.6,0,3.1,2.5,3.1,3c0,1.9-2.1,3-2.7,3l-110.4,0
				c-7.2,0-12.9,5.8-12.9,12.9c0,7.2,5.8,12.9,12.9,12.9l109.6,0c2.6,0,3.1,2.6,3.1,3.1C456.1,607.8,453.9,609,453.3,609"/>
		</g>
	</g>
</g>
</svg>
