<?xml version="1.0" encoding="utf-8"?>
<!-- Generator: Adobe Illustrator 22.0.0, SVG Export Plug-In . SVG Version: 6.00 Build 0)  -->
<svg version="1.1" id="Layer_1" xmlns="http://www.w3.org/2000/svg" xmlns:xlink="http://www.w3.org/1999/xlink" x="0px" y="0px"
	 viewBox="0 0 841.9 1190.6" style="enable-background:new 0 0 841.9 1190.6;" xml:space="preserve">
<style type="text/css">
	.st0{fill:none;}
	.st1{fill:#010101;}
	.st2{fill:#FFFFFF;}
	.st3{fill:#FCEE1F;}
	.st4{fill:#EB2627;}
	.st5{fill:#2A3B8F;}
	.st6{fill:#010101;stroke:#010101;stroke-miterlimit:10;}
	.st7{fill-rule:evenodd;clip-rule:evenodd;}
	.st8{fill-rule:evenodd;clip-rule:evenodd;fill:#FCEE1F;}
	.st9{fill:#FCEE23;}
	.st10{fill-rule:evenodd;clip-rule:evenodd;fill:#FCEE23;}
	.st11{fill-rule:evenodd;clip-rule:evenodd;fill:#010101;}
	.st12{fill-rule:evenodd;clip-rule:evenodd;fill:#F3C636;}
	.st13{fill:#DDF1F6;}
	.st14{fill:none;stroke:#231F20;stroke-width:1.000000e-02;}
</style>
<g>
	<g>
		<rect x="0" y="0" class="st0" width="841.9" height="1190.6"/>
		<rect x="28.3" y="28.3" class="st1" width="785.2" height="1133.9"/>
		<rect x="34" y="34" class="st2" width="773.9" height="1122.5"/>
		<rect x="52.5" y="792.6" class="st3" width="737" height="348.7"/>
		<g id="stecon_113_">
			<path id="red_113_" class="st4" d="M52.8,53.5c42.5,0,85,0,127.6,0c0,22.6,0,45.1,0,67.7c-42.5,0-85,0-127.5,0c0-0.2,0-0.5,0-0.7
				c0-22.1,0-44.2,0-66.3C52.9,54,52.8,53.8,52.8,53.5z M55.8,87.4c0.2,0.1,0.4,0.2,0.5,0.3c3.6,1.8,7.1,3.7,10.7,5.5
				c16.4,8.4,32.7,16.8,49.1,25.2c0.4,0.2,0.7,0.2,1.1,0c13.8-7.1,27.6-14.2,41.4-21.3c6.1-3.2,12.3-6.3,18.4-9.5
				c0.1-0.1,0.3-0.2,0.5-0.3c-0.2-0.1-0.3-0.2-0.5-0.3c-3.8-1.9-7.6-3.9-11.4-5.8c-16.2-8.3-32.4-16.7-48.5-25
				c-0.3-0.2-0.5-0.2-0.9,0c-7,3.6-14.1,7.3-21.1,10.9c-12.6,6.5-25.2,12.9-37.7,19.4C56.9,86.8,56.4,87.1,55.8,87.4z"/>
			<g id="white_113_">
				<path class="st2" d="M55.8,87.4c0.6-0.3,1.1-0.6,1.6-0.8c12.6-6.5,25.2-12.9,37.7-19.4c7-3.6,14.1-7.2,21.1-10.9
					c0.3-0.2,0.6-0.1,0.9,0c16.2,8.3,32.4,16.7,48.5,25c3.8,1.9,7.6,3.9,11.4,5.8c0.1,0.1,0.3,0.1,0.5,0.3c-0.2,0.1-0.3,0.2-0.5,0.3
					c-6.1,3.2-12.3,6.3-18.4,9.5c-13.8,7.1-27.6,14.2-41.4,21.3c-0.4,0.2-0.7,0.2-1.1,0C99.7,110,83.4,101.6,67,93.1
					c-3.6-1.8-7.1-3.7-10.7-5.5C56.2,87.6,56,87.5,55.8,87.4z M59.7,87.4c0.2,0.1,0.3,0.2,0.4,0.2c1,0.5,1.9,1,2.9,1.5
					c17.7,9.1,35.5,18.2,53.2,27.3c0.3,0.1,0.5,0.2,0.8,0c12.9-6.6,25.7-13.2,38.6-19.8c5.8-3,11.6-6,17.5-9
					c0.1-0.1,0.3-0.2,0.5-0.3c-0.2-0.1-0.4-0.2-0.6-0.3c-15.9-8.2-31.9-16.4-47.8-24.5c-2.7-1.4-5.5-2.8-8.2-4.2
					c-0.2-0.1-0.4-0.1-0.7,0c-0.3,0.2-0.7,0.4-1.1,0.6C97,68.3,78.6,77.6,60.3,87C60.1,87.1,60,87.2,59.7,87.4z"/>
				<path class="st2" d="M147.4,79.5c1.4,0,2.7,0,4.1,0c0,5.2,0,10.3,0,15.4c-1.4,0-2.8,0-4.2,0c-0.9-2.6-1.8-5.3-2.7-7.9
					c0,0-0.1,0-0.1,0c0,2.6,0,5.2,0,7.9c-1.4,0-2.7,0-4,0c0,0,0,0,0,0c0,0,0,0,0,0c0-0.1,0-0.2,0-0.3c0-4.9,0-9.9,0-14.8
					c0,0,0-0.1,0-0.2c0.1,0,0.3,0,0.4,0c1.2,0,2.3,0,3.5,0c0.4,0,0.4,0,0.5,0.4c0.8,2.5,1.6,5,2.4,7.5c0,0.1,0.1,0.2,0.2,0.4
					C147.4,85,147.4,82.3,147.4,79.5z"/>
				<path class="st2" d="M138.8,87.3c0,1.5,0,3,0,4.5c0,0.8-0.3,1.4-0.8,1.9c-0.7,0.7-1.6,1.2-2.6,1.3c-1.5,0.3-3.1,0.3-4.6-0.1
					c-0.9-0.2-1.6-0.6-2.3-1.3c-0.5-0.5-0.8-1.1-0.8-1.9c0-3,0-6.1,0-9.1c0-0.7,0.2-1.3,0.7-1.8c0.6-0.7,1.4-1.2,2.3-1.4
					c1.7-0.4,3.5-0.4,5.2,0.1c0.7,0.2,1.4,0.6,2,1.2c0.6,0.5,0.9,1.2,0.8,2C138.8,84.3,138.8,85.8,138.8,87.3z M134.2,87.3
					c0-1.5,0-2.9,0-4.4c0-0.7-0.1-0.9-0.8-0.9c-0.1,0-0.2,0-0.2,0c-0.5,0.1-0.6,0.2-0.6,0.7c0,3,0,6,0,9c0,0.5,0.1,0.7,0.6,0.7
					c0.2,0,0.3,0,0.5,0c0.5-0.1,0.6-0.2,0.6-0.7C134.2,90.3,134.2,88.8,134.2,87.3z"/>
				<path class="st2" d="M126.7,88.9c0,0.2,0,0.3,0,0.5c0,0.8,0,1.6,0,2.4c0,0.8-0.3,1.5-0.9,2c-0.7,0.7-1.5,1.1-2.5,1.3
					c-1.5,0.3-3,0.3-4.5-0.1c-0.8-0.2-1.5-0.6-2.2-1.2c-0.6-0.6-0.9-1.2-0.9-2.1c0-3,0-5.9,0-8.9c0-0.9,0.3-1.6,0.9-2.1
					c0.7-0.7,1.6-1.1,2.5-1.2c1.4-0.2,2.9-0.2,4.3,0.1c0.9,0.2,1.6,0.6,2.3,1.2c0.6,0.6,0.9,1.2,0.9,2.1c0,0.8,0,1.7,0,2.5
					c0,0.2,0,0.3,0,0.5c-1.6,0-3.1,0-4.6,0c0-0.2,0-0.3,0-0.5c0-0.9,0-1.7,0-2.6c0-0.5-0.1-0.6-0.6-0.7c-0.1,0-0.2,0-0.3,0
					c-0.7,0.1-0.7,0.3-0.7,0.8c0,2.9,0,5.9,0,8.8c0,0.1,0,0.2,0,0.3c0,0.2,0.1,0.4,0.3,0.4c0.1,0,0.3,0.1,0.4,0.1
					c0.6,0.1,0.8-0.2,0.8-0.8c0-0.8,0-1.5,0-2.3c0-0.2,0-0.3,0-0.5C122.4,88.8,126,88.8,126.7,88.9z"/>
				<path class="st2" d="M105.5,94.9c0-5.1,0-10.2,0-15.3c0.4-0.1,8.7-0.1,9.1,0c0,0.8,0,1.6,0,2.5c-0.1,0-0.3,0-0.4,0
					c-1.1,0-2.2,0-3.3,0c-0.1,0-0.3,0-0.5,0c0,1.4,0,2.7,0,4.1c1,0,2.1,0,3.1,0c0,0.8,0,1.5,0,2.2c-0.4,0.1-0.7,0.1-1,0.1
					c-0.3,0-0.7,0-1,0c-0.3,0-0.7,0-1,0c-0.1,0.3-0.1,2.8,0,3.7c0.1,0,0.3,0,0.5,0c1.1,0,2.2,0,3.3,0c0.2,0,0.3,0,0.5,0
					c0,0.9,0,1.8,0,2.6C114.3,95,106,95,105.5,94.9z"/>
				<path class="st2" d="M101.1,94.9c-1.6,0-3.1,0-4.7,0c0-4.3,0-8.5,0-12.8c-1,0-2,0-3,0c-0.1-0.4-0.1-2.1,0-2.6
					c0.3-0.1,10.4-0.1,10.8,0c0.1,0.3,0.1,2.1,0,2.6c-1,0-2,0-3,0C101.1,86.4,101.1,90.6,101.1,94.9z"/>
				<path class="st2" d="M92.1,84.9c-1.6,0-3.1,0-4.6,0c0-0.2,0-0.3,0-0.5c0-0.6,0-1.2,0-1.8c0-0.4-0.1-0.6-0.5-0.6
					c-0.1,0-0.2,0-0.4,0c-0.3,0-0.5,0.2-0.5,0.5c0,0.6,0,1.1,0,1.7c0,0.4,0.2,0.6,0.5,0.8c0.4,0.2,0.7,0.4,1.1,0.7
					c1,0.6,2,1.1,2.9,1.7c0.1,0.1,0.3,0.2,0.4,0.3c0.7,0.5,1.1,1.2,1.1,2.1c0,0.7,0,1.3,0,2c0,0.7-0.2,1.3-0.7,1.7
					c-0.7,0.7-1.5,1.2-2.4,1.4c-1.5,0.4-3.1,0.4-4.7,0c-0.8-0.2-1.6-0.6-2.2-1.2c-0.6-0.5-0.9-1.2-0.9-2.1c0-0.8,0-1.5,0-2.3
					c0.3-0.1,3.9-0.1,4.5,0c0,0.1,0,0.3,0,0.4c0,0.7,0,1.3,0,2c0,0.4,0.1,0.6,0.5,0.6c0.2,0,0.5,0,0.7-0.1c0.2,0,0.3-0.2,0.3-0.4
					c0-0.6,0-1.2,0-1.8c0-0.3-0.2-0.6-0.4-0.7c-0.4-0.3-0.8-0.5-1.2-0.8c-1-0.6-2-1.2-2.9-1.8c-0.3-0.2-0.6-0.4-0.9-0.7
					c-0.4-0.4-0.6-0.9-0.6-1.5c0-0.7,0-1.3,0-2c0-0.8,0.3-1.4,0.8-1.9c0.7-0.7,1.6-1.2,2.6-1.4c1.4-0.3,2.8-0.3,4.2,0.1
					c0.9,0.2,1.7,0.7,2.3,1.3c0.5,0.5,0.8,1.1,0.8,1.9C92.1,83.5,92.1,84.2,92.1,84.9z"/>
			</g>
			<g id="blue_113_">
				<path class="st5" d="M59.7,87.4c0.3-0.1,0.5-0.2,0.7-0.3c18.3-9.4,36.6-18.8,54.9-28.1c0.4-0.2,0.7-0.4,1.1-0.6
					c0.2-0.1,0.4-0.1,0.7,0c2.7,1.4,5.4,2.8,8.2,4.2c15.9,8.2,31.9,16.4,47.8,24.5c0.2,0.1,0.3,0.2,0.6,0.3
					c-0.2,0.1-0.3,0.2-0.5,0.3c-5.8,3-11.6,6-17.5,9c-12.9,6.6-25.7,13.2-38.6,19.8c-0.3,0.1-0.5,0.1-0.8,0
					C98.5,107.3,80.8,98.2,63,89.1c-1-0.5-1.9-1-2.9-1.5C60,87.5,59.9,87.5,59.7,87.4z M147.4,79.5c0,2.8,0,5.5,0,8.3
					c-0.1-0.1-0.1-0.2-0.2-0.4c-0.8-2.5-1.6-5-2.4-7.5c-0.1-0.4-0.1-0.4-0.5-0.4c-1.2,0-2.3,0-3.5,0c-0.1,0-0.3,0-0.4,0
					c0,0.1,0,0.1,0,0.2c0,4.9,0,9.9,0,14.8c0,0.1,0,0.2,0,0.3c0,0,0,0,0,0c0,0,0,0,0,0c1.3,0,2.7,0,4,0c0-2.7,0-5.3,0-7.9
					c0,0,0.1,0,0.1,0c0.9,2.6,1.8,5.3,2.7,7.9c1.4,0,2.8,0,4.2,0c0-5.1,0-10.2,0-15.4C150.2,79.5,148.8,79.5,147.4,79.5z
					 M138.8,87.3c0-1.5,0-3,0-4.5c0-0.8-0.3-1.5-0.8-2c-0.6-0.6-1.2-1-2-1.2c-1.7-0.5-3.5-0.5-5.2-0.1c-0.9,0.2-1.7,0.7-2.3,1.4
					c-0.4,0.5-0.7,1.1-0.7,1.8c0,3,0,6.1,0,9.1c0,0.8,0.3,1.4,0.8,1.9c0.6,0.7,1.4,1.1,2.3,1.3c1.5,0.3,3.1,0.3,4.6,0.1
					c1-0.2,1.8-0.6,2.6-1.3c0.5-0.5,0.8-1.2,0.8-1.9C138.8,90.3,138.8,88.8,138.8,87.3z M126.7,88.9c-0.6-0.1-4.3-0.1-4.7,0
					c0,0.1,0,0.3,0,0.5c0,0.8,0,1.5,0,2.3c0,0.7-0.2,0.9-0.8,0.8c-0.1,0-0.3,0-0.4-0.1c-0.2-0.1-0.3-0.2-0.3-0.4c0-0.1,0-0.2,0-0.3
					c0-2.9,0-5.9,0-8.8c0-0.5,0-0.7,0.7-0.8c0.1,0,0.2,0,0.3,0c0.5,0.1,0.6,0.2,0.6,0.7c0,0.9,0,1.7,0,2.6c0,0.2,0,0.3,0,0.5
					c1.6,0,3.1,0,4.6,0c0-0.2,0-0.4,0-0.5c0-0.8,0-1.7,0-2.5c0-0.9-0.3-1.5-0.9-2.1c-0.7-0.6-1.4-1-2.3-1.2
					c-1.4-0.3-2.9-0.3-4.3-0.1c-0.9,0.2-1.8,0.6-2.5,1.2c-0.6,0.6-0.9,1.3-0.9,2.1c0,3,0,5.9,0,8.9c0,0.9,0.3,1.6,0.9,2.1
					c0.6,0.6,1.4,1,2.2,1.2c1.5,0.3,3,0.3,4.5,0.1c0.9-0.2,1.8-0.6,2.5-1.3c0.6-0.5,0.9-1.2,0.9-2c0-0.8,0-1.6,0-2.4
					C126.7,89.2,126.7,89.1,126.7,88.9z M92.1,84.9c0-0.7,0-1.4,0-2.1c0-0.8-0.3-1.4-0.8-1.9c-0.7-0.7-1.4-1.1-2.3-1.3
					c-1.4-0.3-2.8-0.3-4.2-0.1c-1,0.2-1.9,0.6-2.6,1.4c-0.5,0.5-0.8,1.1-0.8,1.9c0,0.7,0,1.3,0,2c0,0.6,0.2,1.1,0.6,1.5
					c0.3,0.2,0.6,0.5,0.9,0.7c1,0.6,2,1.2,2.9,1.8c0.4,0.2,0.8,0.5,1.2,0.8c0.2,0.2,0.4,0.4,0.4,0.7c0,0.6,0,1.2,0,1.8
					c0,0.2-0.1,0.4-0.3,0.4c-0.2,0-0.5,0.1-0.7,0.1c-0.4,0-0.5-0.2-0.5-0.6c0-0.7,0-1.3,0-2c0-0.1,0-0.3,0-0.4
					c-0.6-0.1-4.2-0.1-4.5,0c0,0.7,0,1.5,0,2.3c0,0.9,0.3,1.5,0.9,2.1c0.6,0.6,1.4,1,2.2,1.2c1.6,0.4,3.1,0.3,4.7,0
					c0.9-0.2,1.7-0.7,2.4-1.4c0.4-0.5,0.7-1.1,0.7-1.7c0-0.7,0-1.3,0-2c0-0.9-0.4-1.6-1.1-2.1c-0.1-0.1-0.3-0.2-0.4-0.3
					c-1-0.6-2-1.1-2.9-1.7c-0.4-0.2-0.7-0.4-1.1-0.7c-0.3-0.2-0.5-0.4-0.5-0.8c0-0.6,0-1.1,0-1.7c0-0.3,0.2-0.5,0.5-0.5
					c0.1,0,0.2,0,0.4,0c0.4,0,0.5,0.2,0.5,0.6c0,0.6,0,1.2,0,1.8c0,0.1,0,0.3,0,0.5C89.1,84.9,90.6,84.9,92.1,84.9z M105.5,94.9
					c0.5,0.1,8.8,0.1,9.1,0c0-0.9,0-1.7,0-2.6c-0.2,0-0.3,0-0.5,0c-1.1,0-2.2,0-3.3,0c-0.2,0-0.3,0-0.5,0c-0.1-0.8,0-3.3,0-3.7
					c0.3,0,0.7,0,1,0c0.3,0,0.7,0,1,0c0.3,0,0.7,0.1,1-0.1c0-0.7,0-1.5,0-2.2c-1.1,0-2.1,0-3.1,0c0-1.4,0-2.7,0-4.1
					c0.2,0,0.3,0,0.5,0c1.1,0,2.2,0,3.3,0c0.1,0,0.3,0,0.4,0c0-0.9,0-1.7,0-2.5c-0.4-0.1-8.7-0.1-9.1,0
					C105.5,84.7,105.5,89.8,105.5,94.9z M101.1,94.9c0-4.3,0-8.5,0-12.8c1,0,2,0,3,0c0.1-0.5,0.1-2.2,0-2.6
					c-0.4-0.1-10.5-0.1-10.8,0c-0.1,0.4-0.1,2.2,0,2.6c1,0,2,0,3,0c0,4.3,0,8.5,0,12.8C97.9,94.9,99.5,94.9,101.1,94.9z"/>
				<path class="st5" d="M134.2,87.3c0,1.5,0,3,0,4.5c0,0.5-0.1,0.6-0.6,0.7c-0.2,0-0.3,0-0.5,0c-0.5-0.1-0.6-0.2-0.6-0.7
					c0-3,0-6,0-9c0-0.5,0.1-0.6,0.6-0.7c0.1,0,0.2,0,0.2,0c0.7,0,0.8,0.1,0.8,0.9C134.2,84.4,134.2,85.9,134.2,87.3z"/>
			</g>
		</g>
	</g>
	<g>
		<g>
			<path class="st6" d="M159.5,992.2h13.8c2.7,0,4.8,0.2,6.1,0.5s2.5,1.1,3.6,2.2s1.9,2.6,2.7,4.5c0.7,1.9,1.1,4,1.1,6.3
				c0,2.5-0.4,4.8-1.3,6.9s-2.1,3.7-3.5,4.7c2.1,1,3.7,2.6,4.9,4.9c1.1,2.3,1.7,5,1.7,8.1c0,2.4-0.4,4.8-1.1,7.1
				c-0.7,2.3-1.7,4.2-3,5.5c-1.3,1.4-2.8,2.2-4.7,2.5c-1.2,0.2-4,0.3-8.4,0.4h-11.8V992.2z M166.5,1001.2v12.4h4.6
				c2.7,0,4.4-0.1,5.1-0.2c1.2-0.2,2.1-0.9,2.8-1.9c0.7-1.1,1-2.5,1-4.2c0-1.7-0.3-3-0.9-4c-0.6-1-1.5-1.7-2.6-1.9
				c-0.7-0.1-2.7-0.2-6-0.2H166.5z M166.5,1022.5v14.4h6.5c2.5,0,4.1-0.1,4.8-0.3c1-0.3,1.9-1,2.5-2.1c0.7-1.1,1-2.7,1-4.6
				c0-1.6-0.3-3-0.8-4.1s-1.2-1.9-2.2-2.5c-1-0.5-3-0.8-6.2-0.8H166.5z"/>
			<path class="st6" d="M194.4,1045.9v-53.7H220v9.1h-18.6v11.9h17.3v9h-17.3v14.6h19.3v9H194.4z"/>
			<path class="st6" d="M231.5,1045.9l-8.2-53.7h7.1l5.2,36.9l6.3-36.9h8.3l6.1,37.5l5.3-37.5h7l-8.4,53.7h-7.4l-6.9-40.1l-6.9,40.1
				H231.5z"/>
			<path class="st6" d="M300.6,1045.9H293l-3-12.2h-13.8l-2.9,12.2h-7.4l13.5-53.7h7.4L300.6,1045.9z M287.8,1024.7l-4.8-19.9
				l-4.7,19.9H287.8z"/>
			<path class="st6" d="M304.3,1045.9v-53.7H319c3.7,0,6.4,0.5,8,1.4c1.7,1,3,2.7,4,5.1c1,2.5,1.5,5.3,1.5,8.5c0,4-0.8,7.4-2.3,10
				c-1.5,2.6-3.8,4.3-6.8,5c1.5,1.4,2.8,2.9,3.7,4.5c1,1.6,2.3,4.5,4,8.7l4.2,10.5H327l-5-11.7c-1.8-4.2-3-6.8-3.7-7.9
				c-0.7-1.1-1.4-1.8-2.1-2.2c-0.7-0.4-1.9-0.6-3.5-0.6h-1.4v22.4H304.3z M311.3,1014.9h5.2c3.3,0,5.4-0.2,6.3-0.7
				c0.8-0.4,1.5-1.2,2-2.3c0.5-1.1,0.7-2.4,0.7-4c0-1.8-0.3-3.3-0.9-4.4c-0.6-1.1-1.5-1.8-2.6-2.1c-0.6-0.1-2.3-0.2-5.1-0.2h-5.4
				V1014.9z"/>
			<path class="st6" d="M339.2,1045.9v-53.7h25.6v9.1h-18.6v11.9h17.3v9h-17.3v14.6h19.3v9H339.2z"/>
			<path class="st6" d="M398.1,992.2h12.7c2.9,0,5.1,0.3,6.6,1c2,0.9,3.8,2.6,5.2,4.9c1.4,2.4,2.5,5.3,3.3,8.7
				c0.8,3.4,1.1,7.7,1.1,12.7c0,4.4-0.4,8.2-1.1,11.4c-0.9,3.9-2.1,7.1-3.7,9.5c-1.2,1.8-2.8,3.3-4.9,4.3c-1.5,0.8-3.6,1.1-6.2,1.1
				h-13.1V992.2z M405.1,1001.3v35.6h5.2c1.9,0,3.4-0.2,4.2-0.5c1.1-0.4,2.1-1.2,2.8-2.2s1.4-2.8,1.8-5.2c0.5-2.4,0.7-5.7,0.7-9.8
				s-0.2-7.3-0.7-9.6c-0.5-2.2-1.1-4-2-5.2c-0.8-1.2-1.9-2.1-3.2-2.5c-1-0.3-2.9-0.5-5.7-0.5H405.1z"/>
			<path class="st6" d="M433,1045.9v-53.7h25.6v9.1H440v11.9h17.3v9H440v14.6h19.3v9H433z"/>
			<path class="st6" d="M465.2,1045.9v-53.7h25.6v9.1h-18.6v11.9h17.3v9h-17.3v14.6h19.3v9H465.2z"/>
			<path class="st6" d="M497.4,1045.9v-53.7h11.2c4.2,0,7,0.3,8.3,0.8c2,0.8,3.6,2.6,5,5.3c1.3,2.7,2,6.2,2,10.5
				c0,3.3-0.4,6.1-1.2,8.3c-0.8,2.2-1.7,4-2.9,5.3c-1.2,1.3-2.4,2.1-3.6,2.5c-1.7,0.5-4.1,0.8-7.2,0.8h-4.5v20.3H497.4z
				 M504.4,1001.3v15.2h3.8c2.7,0,4.6-0.3,5.5-0.8c0.9-0.6,1.7-1.4,2.2-2.6c0.5-1.2,0.8-2.6,0.8-4.2c0-2-0.4-3.6-1.1-4.8
				c-0.7-1.3-1.7-2.1-2.8-2.4c-0.8-0.2-2.5-0.4-5-0.4H504.4z"/>
			<path class="st6" d="M555.6,1045.9v-53.7h7v21.1h13.7v-21.1h7v53.7h-7v-23.5h-13.7v23.5H555.6z"/>
			<path class="st6" d="M589,1019.4c0-5.5,0.5-10.1,1.6-13.8c0.8-2.7,1.9-5.2,3.2-7.4c1.4-2.2,2.8-3.8,4.5-4.8
				c2.2-1.4,4.6-2.1,7.4-2.1c5.1,0,9.2,2.5,12.2,7.4s4.6,11.7,4.6,20.5c0,8.7-1.5,15.4-4.5,20.3c-3,4.9-7.1,7.3-12.2,7.3
				c-5.1,0-9.2-2.4-12.3-7.3C590.5,1034.7,589,1028,589,1019.4z M596.2,1019c0,6.1,0.9,10.7,2.7,13.8c1.8,3.1,4.1,4.7,6.9,4.7
				s5.1-1.6,6.8-4.7c1.8-3.1,2.7-7.8,2.7-14c0-6.2-0.9-10.7-2.6-13.8c-1.7-3-4-4.5-6.9-4.5s-5.2,1.5-7,4.6
				C597,1008.3,596.2,1012.9,596.2,1019z"/>
			<path class="st6" d="M628.1,1045.9v-53.2h7v44.2h17.3v9H628.1z"/>
			<path class="st6" d="M657.4,1045.9v-53.7H683v9.1h-18.6v11.9h17.3v9h-17.3v14.6h19.3v9H657.4z"/>
		</g>
		<g>
			<path class="st6" d="M247.8,920.1c0,2.8-0.9,5.1-2.7,7c-1.8,1.9-4,2.8-6.6,2.8c-2.6,0-4.8-1-6.6-2.9c-1.8-1.9-2.7-4.2-2.7-7
				c0-2.8,0.9-5.1,2.7-7c1.8-1.9,4-2.9,6.6-2.9c1,0,1.6,0,1.8,0.1V899c0-1.4-2.7-2.8-8-4.1c-5.4-1.3-10.2-2.4-14.6-3.2
				c0.2-4.8,1.3-8.6,3.5-11.5c2.2-2.9,5.3-4.4,9.4-4.4c1.7,0,4,0.4,6.9,1.2c2.9,0.8,5.1,1.2,6.3,1.2c1.4,0,2.1-1,2.3-2.9l5.9,1.7
				c-1.5,5.3-4.1,7.9-8,7.9c-1.5,0-3.5-0.4-6.2-1.1c-2.7-0.7-4.7-1.1-6.1-1.1c-3.5,0-5.6,1.4-6,4.3c6.2,1.4,11.4,2.9,15.6,4.4
				c4.2,1.6,6.3,4.2,6.3,8.1V920.1z M242.6,919.9c0-1.2-0.4-2.3-1.2-3.1c-0.8-0.9-1.8-1.3-2.9-1.3c-1.1,0-2.1,0.4-2.9,1.3
				c-0.8,0.9-1.2,1.9-1.2,3.1c0,1.2,0.4,2.3,1.2,3.1c0.8,0.9,1.8,1.3,2.9,1.3c1.1,0,2.1-0.4,2.9-1.3
				C242.2,922.2,242.6,921.1,242.6,919.9z"/>
			<path class="st6" d="M291.3,877.2c-0.4,13.8-6.4,20.7-18,20.7c-4.8,0-8.5-1.1-11.1-3.2c-2.6-2.1-3.9-4.8-3.9-8.1
				c0-2.5,0.8-4.6,2.4-6.4c1.6-1.7,3.6-2.6,5.9-2.6c2.5,0,4.5,0.9,6.1,2.7c1.6,1.8,2.4,3.9,2.4,6.3c0,2.3-0.6,4.1-1.8,5.2
				c7.5-0.3,11.2-5.2,11.2-14.6H291.3z M291.3,906.7c-0.4,13.8-6.4,20.7-18,20.7c-4.8,0-8.5-1.1-11.1-3.2c-2.6-2.1-3.9-4.8-3.9-8.1
				c0-2.5,0.8-4.6,2.4-6.4c1.6-1.7,3.6-2.6,5.9-2.6c2.5,0,4.5,0.9,6.1,2.7c1.6,1.8,2.4,3.9,2.4,6.3c0,2.3-0.6,4.1-1.8,5.2
				c7.5-0.3,11.2-5.2,11.2-14.6H291.3z M270.2,886.5c0-1.1-0.4-2.1-1.1-2.9c-0.7-0.8-1.6-1.2-2.7-1.2c-1,0-1.9,0.4-2.6,1.2
				c-0.7,0.8-1,1.7-1,2.9c0,1.1,0.3,2.1,1,2.8c0.7,0.7,1.5,1.1,2.6,1.1c1,0,1.9-0.4,2.7-1.1C269.9,888.6,270.2,887.6,270.2,886.5z
				 M270.2,916c0-1.1-0.4-2.1-1.1-2.9c-0.7-0.8-1.6-1.2-2.7-1.2c-1,0-1.9,0.4-2.6,1.2c-0.7,0.8-1,1.7-1,2.9c0,1.1,0.3,2.1,1,2.8
				c0.7,0.7,1.5,1.1,2.6,1.1c1,0,1.9-0.4,2.7-1.1C269.9,918.1,270.2,917.2,270.2,916z"/>
			<path class="st6" d="M335.5,919.3c0,3-0.9,5.5-2.8,7.5c-1.9,1.9-4.1,2.9-6.9,2.9c-2.6,0-4.8-1-6.5-2.9c-1.8-1.9-2.7-4.2-2.7-6.9
				c0-2.8,0.9-5.1,2.7-7.1c1.8-1.9,3.9-2.9,6.5-2.9c0.9,0,1.6,0,2.2,0.1v-18.9c0-5.5-3.7-8.2-11.1-8.2c-3.1,0-5.7,1-7.8,3
				c-2.1,2-3.2,4.7-3.2,8h-7.3c0.2-5.7,2-10.2,5.3-13.3c3.3-3.2,7.6-4.7,13-4.7c5.3,0,9.6,1.1,12.8,3.4c3.9,2.7,5.8,6.8,5.8,12.4
				V919.3z M329.9,919.8c0-1.2-0.4-2.3-1.2-3.1c-0.8-0.9-1.8-1.3-2.9-1.3c-1.1,0-2.1,0.4-2.9,1.3c-0.8,0.9-1.2,1.9-1.2,3.1
				c0,1.2,0.4,2.3,1.2,3.1c0.8,0.9,1.8,1.3,2.9,1.3c1.1,0,2.1-0.4,2.9-1.3C329.5,922.1,329.9,921,329.9,919.8z"/>
			<path class="st6" d="M347.7,845.2c-2.1,14.4-9.3,21.6-21.8,21.6c-4.8,0-8.5-1.1-11.1-3.2c-2.6-2.1-3.9-4.8-3.9-8.1
				c0-2.5,0.8-4.6,2.4-6.4c1.6-1.7,3.6-2.6,5.9-2.6c2.5,0,4.5,0.9,6.1,2.7c1.6,1.8,2.4,3.9,2.4,6.3c0,2.3-0.6,4.1-1.8,5.2
				c8.4-0.3,13.3-5.5,14.6-15.5H347.7z M322.9,855.5c0-1.1-0.4-2.1-1.1-2.9c-0.7-0.8-1.6-1.2-2.7-1.2c-1,0-1.9,0.4-2.6,1.2
				c-0.7,0.8-1,1.7-1,2.9c0,1.1,0.3,2.1,1,2.8c0.7,0.7,1.6,1.1,2.6,1.1c1,0,1.9-0.4,2.7-1.1C322.6,857.5,322.9,856.6,322.9,855.5z"
				/>
			<path class="st6" d="M373.9,928.8h-7.4L344,901.3l4.5-5.6l18,21.8v-22.4c-0.2,0.1-1,0.1-2.3,0.1c-2.5,0-4.6-0.9-6.3-2.7
				c-1.7-1.8-2.6-4-2.6-6.8c0-2.8,0.9-5.1,2.7-7.1c1.8-1.9,3.9-2.9,6.3-2.9c2.8,0,5.2,1,7,2.9c1.9,2,2.8,4.5,2.8,7.6V928.8z
				 M368.2,885.6c0-1.2-0.4-2.2-1.2-3c-0.8-0.8-1.8-1.3-2.9-1.3c-1.1,0-2.1,0.4-2.9,1.3c-0.8,0.8-1.2,1.9-1.2,3c0,1.2,0.4,2.2,1.2,3
				c0.8,0.8,1.8,1.3,2.9,1.3c1.1,0,2.1-0.4,2.9-1.3C367.8,887.8,368.2,886.8,368.2,885.6z"/>
			<path class="st6" d="M426.8,928.8h-7.5v-28.9c0-2.3-0.4-3.5-1.3-3.5c-0.6,0-1.6,1.1-2.8,3.3l-15.7,29.1h-7v-33.4
				c-0.8,0.2-1.5,0.3-2.1,0.3c-2.6,0-4.8-1-6.5-2.9c-1.8-2-2.7-4.3-2.7-7.1c0-2.7,0.9-5,2.7-6.9c1.8-1.9,3.9-2.9,6.5-2.9
				c2.7,0,5,1,6.8,3c1.8,2,2.7,4.5,2.7,7.5v19.4c0,2.3-0.5,6.8-1.5,13.8c0.8-3.7,2-7.1,3.6-10.3l6.6-12.3c1.4-2.6,2.7-4.1,3.9-4.4
				c-1.6-2.2-2.4-4.4-2.4-6.8c0-2.8,0.9-5.1,2.7-7c1.8-1.9,3.9-2.9,6.5-2.9c2.6,0,4.8,1,6.5,2.9c1.8,1.9,2.7,4.2,2.7,7
				c0,2.9-1.1,5.4-3.4,7.5c1,2.2,1.6,4.5,1.6,7V928.8z M394.6,885.7c0-1.2-0.4-2.3-1.2-3.1c-0.8-0.9-1.8-1.3-2.9-1.3
				c-1.1,0-2.1,0.4-2.9,1.3c-0.8,0.9-1.2,1.9-1.2,3.1c0,1.2,0.4,2.3,1.2,3.1c0.8,0.9,1.8,1.3,2.9,1.3c1.1,0,2.1-0.4,2.9-1.3
				C394.2,888,394.6,887,394.6,885.7z M423.6,885.7c0-1.2-0.4-2.3-1.2-3.1c-0.8-0.9-1.8-1.3-2.9-1.3c-1.1,0-2.1,0.4-2.9,1.3
				c-0.8,0.9-1.2,1.9-1.2,3.1c0,1.2,0.4,2.3,1.2,3.1c0.8,0.9,1.8,1.3,2.9,1.3c1.1,0,2.1-0.4,2.9-1.3
				C423.2,888,423.6,887,423.6,885.7z"/>
			<path class="st6" d="M475.1,928.8h-7.5v-22.5c0-2.6-1.4-4.6-4.1-6c-2.1-1-4.4-1.6-7-1.6c-2.5,0-4.6,0.7-6.4,2
				c-2.2,1.6-3.3,3.6-3.3,6.2v3.3c0.6-0.2,1.4-0.3,2.2-0.3c2.6,0,4.8,1,6.6,2.9c1.9,2,2.8,4.3,2.8,7c0,2.8-1,5.1-2.9,7
				c-1.9,1.9-4.2,2.9-6.6,2.9c-2.7,0-4.9-0.9-6.8-2.8c-1.9-1.9-2.8-4.2-2.8-7.1v-12c0-5.1,1.8-9.1,5.3-12c3.1-2.5,7-3.8,11.7-3.8
				c5,0,8.7,1.5,11.2,4.4v-5.8c0-2.7-1.5-4.7-4.4-6.2c-2.3-1.1-4.8-1.7-7.6-1.7c-3.1,0-5.8,0.8-8.1,2.3c-2.5,1.7-4,4-4.5,6.9h-7.3
				c0.5-5.3,2.6-9.4,6.4-12.2c3.5-2.7,8.1-4,13.7-4c5,0,9.3,1.3,12.9,3.8c4.2,2.9,6.3,6.8,6.3,12V928.8z M453.1,919.8
				c0-1.2-0.4-2.3-1.2-3.1c-0.8-0.9-1.8-1.3-2.9-1.3c-1.1,0-2.1,0.4-2.9,1.3c-0.8,0.9-1.2,1.9-1.2,3.1c0,1.2,0.4,2.3,1.2,3.1
				c0.8,0.9,1.8,1.3,2.9,1.3c1.1,0,2.1-0.4,2.9-1.3C452.7,922.1,453.1,921,453.1,919.8z"/>
			<path class="st6" d="M475.1,959.3h-7.3v-9.9h-0.5c-2,0-3.7-0.8-5.1-2.3c-1.4-1.5-2.1-3.3-2.1-5.4c0-2.2,0.7-4,2.1-5.6
				c1.4-1.6,3.2-2.3,5.3-2.3c2,0,3.8,0.7,5.3,2.1c1.5,1.4,2.3,3.3,2.3,5.7V959.3z M470.8,941.4c0-1-0.3-1.8-1-2.5
				c-0.6-0.7-1.4-1-2.3-1c-0.9,0-1.7,0.3-2.4,1c-0.7,0.7-1,1.5-1,2.5c0,1,0.3,1.8,1,2.5c0.7,0.7,1.5,1.1,2.4,1.1
				c0.9,0,1.7-0.4,2.3-1.1C470.5,943.2,470.8,942.3,470.8,941.4z"/>
			<path class="st6" d="M525.5,928.8H518c-4.7-4.5-9.4-7.7-14.1-9.5v0.7c0,2.8-1,5.1-3,7c-2,1.9-4.2,2.9-6.7,2.9c-2.7,0-5-1-6.9-3.1
				s-2.9-4.5-2.9-7.4c0-2.9,1-5.3,2.9-7.3c1.9-2,4.2-3.1,6.9-3.1h0.8v-13.5c-0.8,0.2-1.5,0.3-2.1,0.3c-2.6,0-4.8-1-6.5-2.9
				c-1.8-2-2.7-4.3-2.7-7.1c0-2.7,0.9-5,2.7-6.9c1.8-1.9,3.9-2.9,6.5-2.9c2.7,0,5,1,6.8,3c1.8,2,2.7,4.5,2.7,7.5v24.7
				c6.4,2.3,11.5,5.4,15.5,9.2v-43.4h7.5V928.8z M497.1,885.7c0-1.2-0.4-2.3-1.2-3.1c-0.8-0.9-1.8-1.3-2.9-1.3
				c-1.1,0-2.1,0.4-2.9,1.3c-0.8,0.9-1.2,1.9-1.2,3.1c0,1.2,0.4,2.3,1.2,3.1c0.8,0.9,1.8,1.3,2.9,1.3c1.1,0,2.1-0.4,2.9-1.3
				C496.7,888,497.1,887,497.1,885.7z M498.3,919.3c0-1.2-0.4-2.3-1.2-3.1c-0.8-0.9-1.8-1.3-2.9-1.3c-1.1,0-2.1,0.4-2.9,1.3
				c-0.8,0.9-1.2,1.9-1.2,3.1c0,1.2,0.4,2.3,1.2,3.1c0.8,0.9,1.8,1.3,2.9,1.3c1.1,0,2.1-0.4,2.9-1.3
				C497.9,921.5,498.3,920.5,498.3,919.3z"/>
			<path class="st6" d="M573.7,928.8h-7.5v-22.5c0-2.6-1.4-4.6-4.1-6c-2.1-1-4.4-1.6-7-1.6c-2.5,0-4.6,0.7-6.4,2
				c-2.2,1.6-3.3,3.6-3.3,6.2v3.3c0.6-0.2,1.4-0.3,2.2-0.3c2.6,0,4.8,1,6.6,2.9c1.9,2,2.8,4.3,2.8,7c0,2.8-1,5.1-2.9,7
				c-1.9,1.9-4.2,2.9-6.6,2.9c-2.7,0-4.9-0.9-6.8-2.8c-1.9-1.9-2.8-4.2-2.8-7.1v-12c0-5.1,1.8-9.1,5.3-12c3.1-2.5,7-3.8,11.7-3.8
				c5,0,8.7,1.5,11.2,4.4v-5.8c0-2.7-1.5-4.7-4.4-6.2c-2.3-1.1-4.8-1.7-7.6-1.7c-3.1,0-5.8,0.8-8.1,2.3c-2.5,1.7-4,4-4.5,6.9h-7.3
				c0.5-5.3,2.6-9.4,6.4-12.2c3.5-2.7,8.1-4,13.7-4c5,0,9.3,1.3,12.9,3.8c4.2,2.9,6.3,6.8,6.3,12V928.8z M551.7,919.8
				c0-1.2-0.4-2.3-1.2-3.1c-0.8-0.9-1.8-1.3-2.9-1.3c-1.1,0-2.1,0.4-2.9,1.3c-0.8,0.9-1.2,1.9-1.2,3.1c0,1.2,0.4,2.3,1.2,3.1
				c0.8,0.9,1.8,1.3,2.9,1.3c1.1,0,2.1-0.4,2.9-1.3C551.3,922.1,551.7,921,551.7,919.8z"/>
			<path class="st6" d="M575.2,851c0,1.7-0.5,3.3-1.4,4.7c-0.9,1.4-2.1,2.3-3.6,2.7c1.9,3.4,3.1,7.3,3.6,11.8
				c-10-3.5-19.1-5.2-27.4-5.2c-3.8,0-7.6,0.3-11.5,0.8c1-11.6,6.8-17.4,17.6-17.4c3.1,0,6,0.5,8.5,1.6c0.2-1.9,1-3.5,2.3-4.8
				c1.3-1.3,2.9-2,4.7-2c2,0,3.7,0.8,5.1,2.3C574.6,847,575.2,848.9,575.2,851z M566.2,862.6c-0.5-2.2-1.9-4.2-4.4-6.1
				c-2.4-1.9-5.2-2.9-8.2-2.9c-2.9,0-5.4,0.6-7.5,1.9c-2.1,1.3-3.4,2.9-4,5c1.4-0.3,3.5-0.5,6.4-0.5
				C554.5,860,560.4,860.9,566.2,862.6z M571.5,851c0-1-0.3-1.9-1-2.7c-0.7-0.7-1.5-1.1-2.4-1.1c-0.9,0-1.7,0.4-2.4,1.1
				c-0.7,0.7-1.1,1.6-1.1,2.7s0.4,1.9,1.1,2.6c0.7,0.7,1.5,1,2.4,1c0.9,0,1.7-0.3,2.4-1C571.2,852.9,571.5,852.1,571.5,851z"/>
			<path class="st6" d="M620.9,928.8h-7.5v-34.4c0-3.5-1-6.4-3-8.4c-2-2.1-4.7-3.1-8-3.1c-4.8,0-8.5,2.2-11,6.5
				c3.8,0.8,6.5,2.7,8.1,5.8c-4.1,2.6-6.2,5.7-6.2,9.4v24.2h-7.5v-24.7c0-3.6,1.6-6.5,5-8.6c-2-1.5-4.5-2-7.4-1.6
				c0.2-5.4,2.1-9.8,5.8-13.3c3.4-3.2,7.7-4.8,12.9-4.8c5.8,0,10.4,1.7,13.7,5c3.3,3.3,5,7.9,5,13.6V928.8z"/>
		</g>
	</g>
	<g>
		<g>
			<path class="st7" d="M445.4,87.7c0,0-5.2-12.9-22-12.9c-16.8,0-24.6,12.9-24.6,12.9L56.5,684.6c0,0-8.6,14.7-0.7,28.5
				c0,0,8.2,13.6,21.8,13.6c13.6,0,682.6,0,682.6,0s18.3,0.5,25.6-13.8c6.1-11.9,3.1-21.2,0.2-26.7L445.4,87.7"/>
			<polyline class="st10" points="423,139.2 112.7,679.8 727.9,679.8 423,139.2 			"/>
		</g>
		<g>
			<path class="st13" d="M377.6,527.8c58.5,0,116.9,0,175.5,0c0,0.4,0,0.8,0,1.2c0,15.6,0,31.2,0,46.8c0,7.7,0,15.3-0.1,23
				c0,5-0.7,9.9-3.5,14.5c-3.2,5.3-8.3,9.4-14.3,12.7c-9.6,5.4-20.4,9-31.8,11.3c-15,3.1-30.3,4.2-45.8,3.6
				c-12.9-0.5-25.6-2.1-37.8-5.3c-9.6-2.6-18.8-5.9-26.7-11c-5.7-3.6-10.5-7.8-13.1-13.2c-1.6-3.2-2.3-6.5-2.4-10c0-1,0-2,0-2.9
				c0-23.1,0-46.2,0-69.3C377.6,528.7,377.6,528.3,377.6,527.8z"/>
			<path d="M380,407.8c0,60.5,0,121.1,0,181.6c0,9.7,3.4,18.1,10.3,25c7,7,15.5,11.9,24.6,15.6c10.7,4.3,21.9,6.9,33.3,8.1
				c10.9,1.2,21.9,1.3,32.8,0.2c15.3-1.6,30.1-5.2,43.8-12.4c7.9-4.2,14.9-9.3,20.1-16.7c3.4-4.9,5-10.2,5.6-16.2
				c0.5-5.1,0.2-10.2,0.4-15.4c0.1-5.2,0-10.4,0-15.6c0-50.8,0-101.7,0-152.5c0-0.6,0-1.1,0-1.7c2.9,0,5.8,0,8.8,0
				c0,86,0,172,0,258.1c-92.5,0-185,0-277.5,0c0-86,0-172,0-258.1C314.8,407.8,347.4,407.8,380,407.8z"/>
			<g>
				<path d="M404.3,563.2l12.3,6.1l4.1-5.9l6.6,6.9l8.2-13l0.8,12.7l7.8-3l-2,7.8l8.4,0.6l-6.4,6.6l7.5,5.7c0-0.2-9.8,1.1-9.8,1.1
					l1,9.7l-8.5-6.8l-1.2,10.2l-6.1-8.1l-4,12.1l-2.4-10.8l-6.5,3.8l0.9-8l-12.3-0.7l8-6.1l-9-5.4l6.9-3.7L404.3,563.2z"/>
				<polygon points="448.8,632.2 461.6,607.7 475.9,603.9 474.8,609.2 487.1,602.6 491.2,607.7 507.5,602.3 481,621.7 478.7,614.9 
					467.2,626.3 466.2,617.7 				"/>
				<path d="M470.6,584.3c0.2-1.9,0.4-3.7,0.6-5.6c0.4-3.9,0.8-7.8,1.3-11.7c0.3-2.3,1.3-3.1,3.5-3.3c2.6-0.3,5.1,0.2,7.5,1.5
					c0.3,0.2,0.6,0.3,0.9,0.5c2-2.1,3.9-4.3,5.3-6.8c0.7-1.2,1.3-2.3,2.1-3.4c0.4-0.6,1-1.2,1.6-1.7c1.5-1.1,3.3-0.8,4.6,0.6
					c0.5,0.5,0.9,1.1,1.3,1.7c1.5,2.6,3.1,5.1,4.5,7.8c1.1,2,1.5,4.2,1.2,6.4c0.9,0.2,1.4-0.3,1.9-0.9c1.5-2.1,3.2-4.2,4.7-6.3
					c0.3-0.4,0.5-1.1,0.5-1.7c-0.2-6.4-0.6-12.7-0.8-19.1c-0.1-2,0.4-4.1,0.7-6.1c0.1-0.5,0.5-1,0.8-1.6c0.3,0,0.6,0,1,0
					c0.7,0.5,0.8,1,0.6,1.9c-0.4,2-0.8,4-0.8,5.9c0.1,4.6,0.4,9.2,0.6,13.8c0,0.7,0.1,1.5,0.2,2.2c1.3-1.8,2.4-3.6,3.8-5.2
					c2.1-2.4,4.7-3.5,7.9-3.1c1,0.1,1.5,0.5,1.7,1.5c1.2,5.3,1.9,10.7,1.9,16.1c0,0.3,0.1,0.5,0.2,0.8c0,0.4,0,0.9,0,1.3
					c-0.1,0.2-0.1,0.4-0.2,0.6c-0.1,2.2-0.2,4.5-0.4,6.7c-0.3,3.6-1.3,6.9-3.6,9.7c-2.4,3-5.3,4.8-9.3,4.2c-1.8-0.2-2.7-1.1-3-2.8
					c-0.1-0.5-0.2-0.9-0.2-1.4c-0.1-2.9-0.2-5.7-0.3-8.6c0-0.4-0.1-0.9-0.1-1.5c-1.7,2.6-3.6,4.7-5.8,6.6c-2.2,1.9-4.9,2.9-7.9,3.9
					c0.6,0.2,0.9,0.3,1.2,0.4c2.5,0.6,4.9,1.3,7.4,1.9c0.8,0.2,1.4,0.4,1.2,1.4c-0.1,0.8-0.7,1.1-1.7,0.9c-1.6-0.3-3.1-0.7-4.6-1.1
					c-1.5-0.4-3-0.8-4.5-1.3c-0.5,0.8-0.8,1.6-1.3,2.3c-2.7,4.1-5.5,8-10.7,9.2c-0.1,0-0.1,0-0.2,0c-1.6-0.3-2.8-1-3.6-2.4
					c-1.3-2.3-2.7-4.6-3.9-7c-0.4-0.8-0.6-1.8-0.6-2.7c0-1.6,1.4-2.8,3.4-3c1.9-0.1,3.7,0,5.6,0.1c1,0,2.1,0.1,3.1,0.1
					c-2-1.5-3.9-2.9-5.8-4.4c-0.5-0.4-0.8-0.5-1.4-0.2c-3.3,1.7-6.6,3.2-9.8,4.9c-0.9,0.5-1.6,0.5-2.3-0.2
					C470.6,585.7,470.6,585,470.6,584.3z M527.3,566.8c0,0-0.1,0-0.1,0c-0.1-2.8-0.2-5.7-0.3-8.5c-0.1-1.7-0.1-3.5-1.2-4.9
					c-0.7-1-1.7-1.3-2.7-0.7c-0.8,0.4-1.6,1-2.2,1.7c-2,2.8-4,5.7-5.9,8.6c-0.2,0.2-0.1,0.6-0.1,0.9c0.1,4.8,0.2,9.6,0.4,14.4
					c0.1,2.8,0.5,5.6,0.9,8.3c0.3,1.9,1.3,2.4,3.1,2c2.8-0.7,5-2.3,6.2-4.9c0.8-1.7,1.4-3.6,1.5-5.5
					C527.2,574.4,527.2,570.6,527.3,566.8z M486.5,567.3c2.6,2.2,5.3,4.3,8.4,5.9c0.4,0.2,0.9,0.2,1.3,0c1.4-0.5,2.8-1,4.2-1.5
					c2.1-0.7,2.3-0.9,2.2-3.2c0-0.4,0-0.8-0.1-1.2c-1-4.1-3.8-7.2-5.8-10.6c-0.4-0.6-1.1-0.6-1.7-0.3c-1.1,0.6-1.7,1.5-2.3,2.5
					c-0.7,1.3-1.4,2.6-2.3,3.7C489.2,564.2,487.8,565.7,486.5,567.3z M482.9,567.5c-1.6-0.6-3-1.3-4.5-1.7c-1.8-0.5-3.1,0.3-3.7,2.1
					c-0.2,0.6-0.4,1.3-0.4,1.9c-0.2,2.7-0.4,5.4-0.6,8.1c-0.1,1.9-0.4,3.8-0.6,5.8c3-1.5,5.8-2.9,8.7-4.3
					C478.6,575.6,478,573,482.9,567.5z M496,588.6c-1-0.1-1.8-0.2-2.6-0.2c-2.4,0-4.8,0-7.1,0c-1.2,0-2.4,0-3.5,0.2
					c-2,0.3-2.6,1.8-1.6,3.5c0.9,1.4,1.8,2.9,2.6,4.3c0.6,1,1.4,1.5,2.6,1.6c1.8,0.1,3.2-0.6,4.4-1.7
					C493.1,594.2,494.5,591.5,496,588.6z M485.7,580.3c2.4,2,5,3.3,7.5,4.7c1.2,0.6,2.3,0.8,3.5,0.5c0.5-0.2,0.8-0.4,1.1-0.9
					c1.7-3.1,3.4-6.3,5.1-9.4c0.1-0.2,0.2-0.4,0.3-0.6c-1.6,1.5-3.4,2.4-5.5,1.9c-1.8-0.4-3.3-0.1-4.8,0.7c-1.4,0.6-2.7,1.2-4.1,1.8
					C487.8,579.4,486.8,579.8,485.7,580.3z M484.7,568.9c-0.6,0.7-1.1,1.3-1.6,2c-1.9,2.7-1.8,4.4,0.2,7c0.4,0.5,0.7,0.6,1.3,0.3
					c2.1-1,4.2-1.9,6.3-2.8c0.6-0.2,1.1-0.5,1.7-0.8C489.9,572.8,487.4,570.9,484.7,568.9z M500.6,584.3c0.3,0,0.3,0,0.4-0.1
					c4.3-1.7,7.6-4.4,10-8.3c0.5-0.8,1.1-1.7,0.6-2.7c-0.6-1-1.8-0.8-2.8-0.9c-0.8,0-1.4,0.3-1.9,1c-1.7,2.8-3.5,5.6-5.2,8.4
					C501.4,582.5,501,583.3,500.6,584.3z M512.5,566.6c-0.1,0-0.2-0.1-0.3-0.1c-0.9,1.2-1.8,2.4-2.8,3.6c1.1,0.2,2.1,0.4,3,0.6
					C512.5,569.3,512.5,567.9,512.5,566.6z"/>
				<g>
					<path d="M454.7,602.7c-0.6-0.7-1-1.2-1.3-1.6c2-2.2,4-4.3,5.8-6.5c1.8-2.3,3.2-4.9,3.6-7.9c0.8,0,1.5,0,2.3,0
						C464.1,593.7,459.6,598.3,454.7,602.7z"/>
					<path d="M438.3,610c0.4,0.7,0.7,1.3,1.1,2c-6,2.4-12,4.1-18.5,3.6c0.1-0.8,0.2-1.4,0.3-2.3C427.1,613.7,432.7,612.2,438.3,610z
						"/>
					<path d="M411,608.9c0.3,0,0.6,0,0.8,0c1-0.1,1.6,0.1,2.1,1.1c0.4,0.7,1.1,1.3,1.8,1.7c0.9,0.5,1,1.1,0.8,1.9
						c-0.1,0.3-0.1,0.6-0.2,0.9C413.9,613.9,411.4,611.4,411,608.9z"/>
					<path d="M449.1,606.9c-1.2,0.7-2.3,1.4-3.4,2.1c-0.4-0.7-0.7-1.3-1.1-2c1-0.6,2-1.2,3.1-1.9
						C448.1,605.7,448.6,606.2,449.1,606.9z"/>
				</g>
			</g>
			<g>
				<path d="M520.2,330.1c-0.4,2-1.7,3.3-3.1,4.6c-8.9,7.7-17.7,15.5-26.5,23.3c-0.3,0.3-0.7,0.6-1,0.9c-2.3,2.3-4.8,2.4-7.5,0.7
					c-4.6-3.1-9.3-6-14-9.1c-0.2-0.1-0.4-0.2-0.7-0.4c-3.1,5.7-6.1,11.5-9.2,17.2c-5.5,10.3-11,20.6-16.6,30.9
					c-0.4,0.8-0.5,1.3,0.1,2c4,4.9,8,9.8,12,14.7c2.7,3.3,2.2,7.1-1.4,9.6c-11.1,7.8-22.2,15.5-33.3,23.2c-1.6,1.1-3.2,2.1-4.8,3.1
					c-1.1,0-2.1,0-3.2,0c-0.2-0.1-0.5-0.3-0.7-0.4c-4.7-1.8-5.9-7.5-2.4-11.1c0.8-0.8,1.8-1.3,2.8-2c9-6.3,18-12.6,27-18.9
					c0.4-0.3,0.8-0.6,1.2-0.8c-0.1-0.2-0.1-0.3-0.2-0.4c-5.3-6.5-10.7-13.1-16-19.6c-0.3-0.3-0.9-0.5-1.3-0.5
					c-3.1,0-6.2,0.2-9.2,0.2c-9,0.3-18,0.5-27,0.7c-0.7,0-1.5-0.2-2.1-0.5c-10.3-5.5-20.5-11-30.8-16.4c-2.6-1.3-4.6-2.8-5.5-5.7
					c0-0.7,0-1.5,0-2.2c0.1-0.2,0.2-0.4,0.3-0.7c1.2-4.4,6-6.2,10-4c9.8,5.4,19.6,10.6,29.4,15.9c0.5,0.3,1.2,0.3,1.8,0.3
					c6.5-0.2,13.1-0.3,19.6-0.6c0.5,0,1.1-0.5,1.3-1c7.7-14.4,15.5-28.8,23.2-43.2c0.4-0.7,0.8-1.5,1.3-2.4c-0.7,0-1.3,0-1.9,0
					c-7.3,0.2-14.7,0.4-22,0.6c-2.8,0.1-5.5,0.1-8.3,0.3c-2.4,0.1-4.1-0.7-5.5-2.7c-6.8-10.1-13.7-20.1-20.6-30.1
					c-1.8-2.6-1.3-5.9,1.2-7.6c2.4-1.6,5.6-0.8,7.3,1.7c6.3,9.2,12.6,18.4,18.9,27.6c0.3,0.4,1,0.7,1.5,0.7
					c8.2-0.2,16.4-0.4,24.6-0.7c6.9-0.2,13.9-0.4,20.8-0.6c0.7,0,1.5,0.2,2,0.6c10.9,7,21.7,14,32.5,21c0.3,0.2,0.6,0.3,0.9,0.6
					c2.3-2,4.6-4,6.9-6.1c6.4-5.7,12.9-11.4,19.3-17.1c3.1-2.8,7.7-1.4,8.7,2.7c0,0.2,0.2,0.4,0.2,0.5
					C520.2,329.4,520.2,329.7,520.2,330.1z"/>
				<path d="M466.6,329.6c-9.3,0-16.7-7.4-16.7-16.8c0-9.2,7.5-16.6,16.8-16.6c9.2,0,16.7,7.5,16.7,16.7
					C483.5,322.2,476,329.6,466.6,329.6z"/>
			</g>
		</g>
	</g>
</g>
</svg>
