<?xml version="1.0" encoding="utf-8"?>
<!-- Generator: Adobe Illustrator 22.0.0, SVG Export Plug-In . SVG Version: 6.00 Build 0)  -->
<svg version="1.1" id="Layer_1" xmlns="http://www.w3.org/2000/svg" xmlns:xlink="http://www.w3.org/1999/xlink" x="0px" y="0px"
	 viewBox="0 0 841.9 1190.6" style="enable-background:new 0 0 841.9 1190.6;" xml:space="preserve">
<style type="text/css">
	.st0{fill:none;}
	.st1{fill:#010101;}
	.st2{fill:#FFFFFF;}
	.st3{fill:#FCEE1F;}
	.st4{fill:#EB2627;}
	.st5{fill:#2A3B8F;}
	.st6{fill:#010101;stroke:#010101;stroke-miterlimit:10;}
	.st7{fill-rule:evenodd;clip-rule:evenodd;}
	.st8{fill-rule:evenodd;clip-rule:evenodd;fill:#FCEE1F;}
	.st9{fill:#FCEE23;}
	.st10{fill-rule:evenodd;clip-rule:evenodd;fill:#FCEE23;}
	.st11{fill-rule:evenodd;clip-rule:evenodd;fill:#010101;}
	.st12{fill-rule:evenodd;clip-rule:evenodd;fill:#F3C636;}
	.st13{fill:#DDF1F6;}
	.st14{fill:none;stroke:#231F20;stroke-width:1.000000e-02;}
</style>
<g>
	<g>
		<rect x="0" y="0" class="st0" width="841.9" height="1190.6"/>
		<rect x="28.3" y="28.3" class="st1" width="785.2" height="1133.9"/>
		<rect x="34" y="34" class="st2" width="773.9" height="1122.5"/>
		<rect x="52.5" y="792.6" class="st3" width="737" height="348.7"/>
		<g id="stecon_35_">
			<path id="red_35_" class="st4" d="M52.8,53.5c42.5,0,85,0,127.6,0c0,22.6,0,45.1,0,67.7c-42.5,0-85,0-127.5,0c0-0.2,0-0.5,0-0.7
				c0-22.1,0-44.2,0-66.3C52.9,54,52.8,53.8,52.8,53.5z M55.8,87.4c0.2,0.1,0.4,0.2,0.5,0.3c3.6,1.8,7.1,3.7,10.7,5.5
				c16.4,8.4,32.7,16.8,49.1,25.2c0.4,0.2,0.7,0.2,1.1,0c13.8-7.1,27.6-14.2,41.4-21.3c6.1-3.2,12.3-6.3,18.4-9.5
				c0.1-0.1,0.3-0.2,0.5-0.3c-0.2-0.1-0.3-0.2-0.5-0.3c-3.8-1.9-7.6-3.9-11.4-5.8c-16.2-8.3-32.4-16.7-48.5-25
				c-0.3-0.2-0.5-0.2-0.9,0c-7,3.6-14.1,7.3-21.1,10.9c-12.6,6.5-25.2,12.9-37.7,19.4C56.9,86.8,56.4,87.1,55.8,87.4z"/>
			<g id="white_35_">
				<path class="st2" d="M55.8,87.4c0.6-0.3,1.1-0.6,1.6-0.8c12.6-6.5,25.2-12.9,37.7-19.4c7-3.6,14.1-7.2,21.1-10.9
					c0.3-0.2,0.6-0.1,0.9,0c16.2,8.3,32.4,16.7,48.5,25c3.8,1.9,7.6,3.9,11.4,5.8c0.1,0.1,0.3,0.1,0.5,0.3c-0.2,0.1-0.3,0.2-0.5,0.3
					c-6.1,3.2-12.3,6.3-18.4,9.5c-13.8,7.1-27.6,14.2-41.4,21.3c-0.4,0.2-0.7,0.2-1.1,0C99.7,110,83.4,101.6,67,93.1
					c-3.6-1.8-7.1-3.7-10.7-5.5C56.2,87.6,56,87.5,55.8,87.4z M59.7,87.4c0.2,0.1,0.3,0.2,0.4,0.2c1,0.5,1.9,1,2.9,1.5
					c17.7,9.1,35.5,18.2,53.2,27.3c0.3,0.1,0.5,0.2,0.8,0c12.9-6.6,25.7-13.2,38.6-19.8c5.8-3,11.6-6,17.5-9
					c0.1-0.1,0.3-0.2,0.5-0.3c-0.2-0.1-0.4-0.2-0.6-0.3c-15.9-8.2-31.9-16.4-47.8-24.5c-2.7-1.4-5.5-2.8-8.2-4.2
					c-0.2-0.1-0.4-0.1-0.7,0c-0.3,0.2-0.7,0.4-1.1,0.6C97,68.3,78.6,77.6,60.3,87C60.1,87.1,60,87.2,59.7,87.4z"/>
				<path class="st2" d="M147.4,79.5c1.4,0,2.7,0,4.1,0c0,5.2,0,10.3,0,15.4c-1.4,0-2.8,0-4.2,0c-0.9-2.6-1.8-5.3-2.7-7.9
					c0,0-0.1,0-0.1,0c0,2.6,0,5.2,0,7.9c-1.4,0-2.7,0-4,0c0,0,0,0,0,0c0,0,0,0,0,0c0-0.1,0-0.2,0-0.3c0-4.9,0-9.9,0-14.8
					c0,0,0-0.1,0-0.2c0.1,0,0.3,0,0.4,0c1.2,0,2.3,0,3.5,0c0.4,0,0.4,0,0.5,0.4c0.8,2.5,1.6,5,2.4,7.5c0,0.1,0.1,0.2,0.2,0.4
					C147.4,85,147.4,82.3,147.4,79.5z"/>
				<path class="st2" d="M138.8,87.3c0,1.5,0,3,0,4.5c0,0.8-0.3,1.4-0.8,1.9c-0.7,0.7-1.6,1.2-2.6,1.3c-1.5,0.3-3.1,0.3-4.6-0.1
					c-0.9-0.2-1.6-0.6-2.3-1.3c-0.5-0.5-0.8-1.1-0.8-1.9c0-3,0-6.1,0-9.1c0-0.7,0.2-1.3,0.7-1.8c0.6-0.7,1.4-1.2,2.3-1.4
					c1.7-0.4,3.5-0.4,5.2,0.1c0.7,0.2,1.4,0.6,2,1.2c0.6,0.5,0.9,1.2,0.8,2C138.8,84.3,138.8,85.8,138.8,87.3z M134.2,87.3
					c0-1.5,0-2.9,0-4.4c0-0.7-0.1-0.9-0.8-0.9c-0.1,0-0.2,0-0.2,0c-0.5,0.1-0.6,0.2-0.6,0.7c0,3,0,6,0,9c0,0.5,0.1,0.7,0.6,0.7
					c0.2,0,0.3,0,0.5,0c0.5-0.1,0.6-0.2,0.6-0.7C134.2,90.3,134.2,88.8,134.2,87.3z"/>
				<path class="st2" d="M126.7,88.9c0,0.2,0,0.3,0,0.5c0,0.8,0,1.6,0,2.4c0,0.8-0.3,1.5-0.9,2c-0.7,0.7-1.5,1.1-2.5,1.3
					c-1.5,0.3-3,0.3-4.5-0.1c-0.8-0.2-1.5-0.6-2.2-1.2c-0.6-0.6-0.9-1.2-0.9-2.1c0-3,0-5.9,0-8.9c0-0.9,0.3-1.6,0.9-2.1
					c0.7-0.7,1.6-1.1,2.5-1.2c1.4-0.2,2.9-0.2,4.3,0.1c0.9,0.2,1.6,0.6,2.3,1.2c0.6,0.6,0.9,1.2,0.9,2.1c0,0.8,0,1.7,0,2.5
					c0,0.2,0,0.3,0,0.5c-1.6,0-3.1,0-4.6,0c0-0.2,0-0.3,0-0.5c0-0.9,0-1.7,0-2.6c0-0.5-0.1-0.6-0.6-0.7c-0.1,0-0.2,0-0.3,0
					c-0.7,0.1-0.7,0.3-0.7,0.8c0,2.9,0,5.9,0,8.8c0,0.1,0,0.2,0,0.3c0,0.2,0.1,0.4,0.3,0.4c0.1,0,0.3,0.1,0.4,0.1
					c0.6,0.1,0.8-0.2,0.8-0.8c0-0.8,0-1.5,0-2.3c0-0.2,0-0.3,0-0.5C122.4,88.8,126,88.8,126.7,88.9z"/>
				<path class="st2" d="M105.5,94.9c0-5.1,0-10.2,0-15.3c0.4-0.1,8.7-0.1,9.1,0c0,0.8,0,1.6,0,2.5c-0.1,0-0.3,0-0.4,0
					c-1.1,0-2.2,0-3.3,0c-0.1,0-0.3,0-0.5,0c0,1.4,0,2.7,0,4.1c1,0,2.1,0,3.1,0c0,0.8,0,1.5,0,2.2c-0.4,0.1-0.7,0.1-1,0.1
					c-0.3,0-0.7,0-1,0c-0.3,0-0.7,0-1,0c-0.1,0.3-0.1,2.8,0,3.7c0.1,0,0.3,0,0.5,0c1.1,0,2.2,0,3.3,0c0.2,0,0.3,0,0.5,0
					c0,0.9,0,1.8,0,2.6C114.3,95,106,95,105.5,94.9z"/>
				<path class="st2" d="M101.1,94.9c-1.6,0-3.1,0-4.7,0c0-4.3,0-8.5,0-12.8c-1,0-2,0-3,0c-0.1-0.4-0.1-2.1,0-2.6
					c0.3-0.1,10.4-0.1,10.8,0c0.1,0.3,0.1,2.1,0,2.6c-1,0-2,0-3,0C101.1,86.4,101.1,90.6,101.1,94.9z"/>
				<path class="st2" d="M92.1,84.9c-1.6,0-3.1,0-4.6,0c0-0.2,0-0.3,0-0.5c0-0.6,0-1.2,0-1.8c0-0.4-0.1-0.6-0.5-0.6
					c-0.1,0-0.2,0-0.4,0c-0.3,0-0.5,0.2-0.5,0.5c0,0.6,0,1.1,0,1.7c0,0.4,0.2,0.6,0.5,0.8c0.4,0.2,0.7,0.4,1.1,0.7
					c1,0.6,2,1.1,2.9,1.7c0.1,0.1,0.3,0.2,0.4,0.3c0.7,0.5,1.1,1.2,1.1,2.1c0,0.7,0,1.3,0,2c0,0.7-0.2,1.3-0.7,1.7
					c-0.7,0.7-1.5,1.2-2.4,1.4c-1.5,0.4-3.1,0.4-4.7,0c-0.8-0.2-1.6-0.6-2.2-1.2c-0.6-0.5-0.9-1.2-0.9-2.1c0-0.8,0-1.5,0-2.3
					c0.3-0.1,3.9-0.1,4.5,0c0,0.1,0,0.3,0,0.4c0,0.7,0,1.3,0,2c0,0.4,0.1,0.6,0.5,0.6c0.2,0,0.5,0,0.7-0.1c0.2,0,0.3-0.2,0.3-0.4
					c0-0.6,0-1.2,0-1.8c0-0.3-0.2-0.6-0.4-0.7c-0.4-0.3-0.8-0.5-1.2-0.8c-1-0.6-2-1.2-2.9-1.8c-0.3-0.2-0.6-0.4-0.9-0.7
					c-0.4-0.4-0.6-0.9-0.6-1.5c0-0.7,0-1.3,0-2c0-0.8,0.3-1.4,0.8-1.9c0.7-0.7,1.6-1.2,2.6-1.4c1.4-0.3,2.8-0.3,4.2,0.1
					c0.9,0.2,1.7,0.7,2.3,1.3c0.5,0.5,0.8,1.1,0.8,1.9C92.1,83.5,92.1,84.2,92.1,84.9z"/>
			</g>
			<g id="blue_35_">
				<path class="st5" d="M59.7,87.4c0.3-0.1,0.5-0.2,0.7-0.3c18.3-9.4,36.6-18.8,54.9-28.1c0.4-0.2,0.7-0.4,1.1-0.6
					c0.2-0.1,0.4-0.1,0.7,0c2.7,1.4,5.4,2.8,8.2,4.2c15.9,8.2,31.9,16.4,47.8,24.5c0.2,0.1,0.3,0.2,0.6,0.3
					c-0.2,0.1-0.3,0.2-0.5,0.3c-5.8,3-11.6,6-17.5,9c-12.9,6.6-25.7,13.2-38.6,19.8c-0.3,0.1-0.5,0.1-0.8,0
					C98.5,107.3,80.8,98.2,63,89.1c-1-0.5-1.9-1-2.9-1.5C60,87.5,59.9,87.5,59.7,87.4z M147.4,79.5c0,2.8,0,5.5,0,8.3
					c-0.1-0.1-0.1-0.2-0.2-0.4c-0.8-2.5-1.6-5-2.4-7.5c-0.1-0.4-0.1-0.4-0.5-0.4c-1.2,0-2.3,0-3.5,0c-0.1,0-0.3,0-0.4,0
					c0,0.1,0,0.1,0,0.2c0,4.9,0,9.9,0,14.8c0,0.1,0,0.2,0,0.3c0,0,0,0,0,0c0,0,0,0,0,0c1.3,0,2.7,0,4,0c0-2.7,0-5.3,0-7.9
					c0,0,0.1,0,0.1,0c0.9,2.6,1.8,5.3,2.7,7.9c1.4,0,2.8,0,4.2,0c0-5.1,0-10.2,0-15.4C150.2,79.5,148.8,79.5,147.4,79.5z
					 M138.8,87.3c0-1.5,0-3,0-4.5c0-0.8-0.3-1.5-0.8-2c-0.6-0.6-1.2-1-2-1.2c-1.7-0.5-3.5-0.5-5.2-0.1c-0.9,0.2-1.7,0.7-2.3,1.4
					c-0.4,0.5-0.7,1.1-0.7,1.8c0,3,0,6.1,0,9.1c0,0.8,0.3,1.4,0.8,1.9c0.6,0.7,1.4,1.1,2.3,1.3c1.5,0.3,3.1,0.3,4.6,0.1
					c1-0.2,1.8-0.6,2.6-1.3c0.5-0.5,0.8-1.2,0.8-1.9C138.8,90.3,138.8,88.8,138.8,87.3z M126.7,88.9c-0.6-0.1-4.3-0.1-4.7,0
					c0,0.1,0,0.3,0,0.5c0,0.8,0,1.5,0,2.3c0,0.7-0.2,0.9-0.8,0.8c-0.1,0-0.3,0-0.4-0.1c-0.2-0.1-0.3-0.2-0.3-0.4c0-0.1,0-0.2,0-0.3
					c0-2.9,0-5.9,0-8.8c0-0.5,0-0.7,0.7-0.8c0.1,0,0.2,0,0.3,0c0.5,0.1,0.6,0.2,0.6,0.7c0,0.9,0,1.7,0,2.6c0,0.2,0,0.3,0,0.5
					c1.6,0,3.1,0,4.6,0c0-0.2,0-0.4,0-0.5c0-0.8,0-1.7,0-2.5c0-0.9-0.3-1.5-0.9-2.1c-0.7-0.6-1.4-1-2.3-1.2
					c-1.4-0.3-2.9-0.3-4.3-0.1c-0.9,0.2-1.8,0.6-2.5,1.2c-0.6,0.6-0.9,1.3-0.9,2.1c0,3,0,5.9,0,8.9c0,0.9,0.3,1.6,0.9,2.1
					c0.6,0.6,1.4,1,2.2,1.2c1.5,0.3,3,0.3,4.5,0.1c0.9-0.2,1.8-0.6,2.5-1.3c0.6-0.5,0.9-1.2,0.9-2c0-0.8,0-1.6,0-2.4
					C126.7,89.2,126.7,89.1,126.7,88.9z M92.1,84.9c0-0.7,0-1.4,0-2.1c0-0.8-0.3-1.4-0.8-1.9c-0.7-0.7-1.4-1.1-2.3-1.3
					c-1.4-0.3-2.8-0.3-4.2-0.1c-1,0.2-1.9,0.6-2.6,1.4c-0.5,0.5-0.8,1.1-0.8,1.9c0,0.7,0,1.3,0,2c0,0.6,0.2,1.1,0.6,1.5
					c0.3,0.2,0.6,0.5,0.9,0.7c1,0.6,2,1.2,2.9,1.8c0.4,0.2,0.8,0.5,1.2,0.8c0.2,0.2,0.4,0.4,0.4,0.7c0,0.6,0,1.2,0,1.8
					c0,0.2-0.1,0.4-0.3,0.4c-0.2,0-0.5,0.1-0.7,0.1c-0.4,0-0.5-0.2-0.5-0.6c0-0.7,0-1.3,0-2c0-0.1,0-0.3,0-0.4
					c-0.6-0.1-4.2-0.1-4.5,0c0,0.7,0,1.5,0,2.3c0,0.9,0.3,1.5,0.9,2.1c0.6,0.6,1.4,1,2.2,1.2c1.6,0.4,3.1,0.3,4.7,0
					c0.9-0.2,1.7-0.7,2.4-1.4c0.4-0.5,0.7-1.1,0.7-1.7c0-0.7,0-1.3,0-2c0-0.9-0.4-1.6-1.1-2.1c-0.1-0.1-0.3-0.2-0.4-0.3
					c-1-0.6-2-1.1-2.9-1.7c-0.4-0.2-0.7-0.4-1.1-0.7c-0.3-0.2-0.5-0.4-0.5-0.8c0-0.6,0-1.1,0-1.7c0-0.3,0.2-0.5,0.5-0.5
					c0.1,0,0.2,0,0.4,0c0.4,0,0.5,0.2,0.5,0.6c0,0.6,0,1.2,0,1.8c0,0.1,0,0.3,0,0.5C89.1,84.9,90.6,84.9,92.1,84.9z M105.5,94.9
					c0.5,0.1,8.8,0.1,9.1,0c0-0.9,0-1.7,0-2.6c-0.2,0-0.3,0-0.5,0c-1.1,0-2.2,0-3.3,0c-0.2,0-0.3,0-0.5,0c-0.1-0.8,0-3.3,0-3.7
					c0.3,0,0.7,0,1,0c0.3,0,0.7,0,1,0c0.3,0,0.7,0.1,1-0.1c0-0.7,0-1.5,0-2.2c-1.1,0-2.1,0-3.1,0c0-1.4,0-2.7,0-4.1
					c0.2,0,0.3,0,0.5,0c1.1,0,2.2,0,3.3,0c0.1,0,0.3,0,0.4,0c0-0.9,0-1.7,0-2.5c-0.4-0.1-8.7-0.1-9.1,0
					C105.5,84.7,105.5,89.8,105.5,94.9z M101.1,94.9c0-4.3,0-8.5,0-12.8c1,0,2,0,3,0c0.1-0.5,0.1-2.2,0-2.6
					c-0.4-0.1-10.5-0.1-10.8,0c-0.1,0.4-0.1,2.2,0,2.6c1,0,2,0,3,0c0,4.3,0,8.5,0,12.8C97.9,94.9,99.5,94.9,101.1,94.9z"/>
				<path class="st5" d="M134.2,87.3c0,1.5,0,3,0,4.5c0,0.5-0.1,0.6-0.6,0.7c-0.2,0-0.3,0-0.5,0c-0.5-0.1-0.6-0.2-0.6-0.7
					c0-3,0-6,0-9c0-0.5,0.1-0.6,0.6-0.7c0.1,0,0.2,0,0.2,0c0.7,0,0.8,0.1,0.8,0.9C134.2,84.4,134.2,85.9,134.2,87.3z"/>
			</g>
		</g>
	</g>
	<g>
		<g>
			<path class="st6" d="M127.8,1062.9h12.8c2.9,0,5.1,0.3,6.6,1c2,0.9,3.8,2.6,5.2,4.9c1.4,2.4,2.5,5.3,3.3,8.7s1.1,7.7,1.1,12.7
				c0,4.4-0.4,8.2-1.1,11.4c-0.9,3.9-2.1,7.1-3.7,9.5c-1.2,1.8-2.8,3.3-4.9,4.3c-1.5,0.8-3.6,1.1-6.2,1.1h-13.1V1062.9z M134.8,1072
				v35.6h5.2c1.9,0,3.4-0.2,4.2-0.5c1.1-0.4,2.1-1.2,2.8-2.2s1.4-2.8,1.8-5.2c0.5-2.4,0.7-5.7,0.7-9.8s-0.2-7.3-0.7-9.6
				c-0.5-2.2-1.1-4-2-5.2c-0.8-1.2-1.9-2.1-3.2-2.5c-1-0.3-2.9-0.5-5.7-0.5H134.8z"/>
			<path class="st6" d="M193.8,1116.6h-7.6l-3-12.2h-13.8l-2.9,12.2h-7.4l13.5-53.7h7.4L193.8,1116.6z M181,1095.3l-4.8-19.9
				l-4.7,19.9H181z"/>
			<path class="st6" d="M197.6,1116.6v-53.7h6.8l14.1,35.9v-35.9h6.5v53.7h-7l-13.9-35v35H197.6z"/>
			<path class="st6" d="M248.5,1096.8v-9h15v21.4c-1.5,2.2-3.6,4.1-6.4,5.8c-2.8,1.7-5.6,2.5-8.4,2.5c-3.6,0-6.8-1.2-9.5-3.5
				c-2.7-2.4-4.7-5.7-6.1-10.1c-1.4-4.4-2-9.1-2-14.3c0-5.6,0.8-10.6,2.3-14.9c1.5-4.3,3.7-7.7,6.6-10c2.2-1.8,5-2.7,8.3-2.7
				c4.3,0,7.6,1.4,10.1,4.2c2.4,2.8,4,6.7,4.7,11.6l-6.9,2c-0.5-2.6-1.4-4.7-2.7-6.2c-1.3-1.5-3-2.3-5-2.3c-3,0-5.5,1.5-7.3,4.5
				c-1.8,3-2.7,7.5-2.7,13.4c0,6.4,0.9,11.2,2.7,14.3c1.8,3.2,4.2,4.8,7.2,4.8c1.5,0,2.9-0.4,4.4-1.3c1.5-0.9,2.7-2,3.8-3.2v-6.8
				H248.5z"/>
			<path class="st6" d="M269.9,1116.6v-53.7h25.6v9.1h-18.6v11.9h17.3v9h-17.3v14.6h19.3v9H269.9z"/>
			<path class="st6" d="M302.2,1116.6v-53.7h14.7c3.7,0,6.4,0.5,8,1.4c1.7,1,3,2.7,4,5.1s1.5,5.3,1.5,8.5c0,4-0.8,7.4-2.3,10
				c-1.5,2.6-3.8,4.3-6.8,5c1.5,1.4,2.8,2.9,3.7,4.5c1,1.6,2.3,4.5,4,8.7l4.2,10.5h-8.3l-5-11.7c-1.8-4.2-3-6.8-3.7-7.9
				c-0.7-1.1-1.4-1.8-2.1-2.2c-0.7-0.4-1.9-0.6-3.5-0.6h-1.4v22.4H302.2z M309.1,1085.6h5.2c3.3,0,5.4-0.2,6.3-0.7
				c0.8-0.4,1.5-1.2,2-2.3c0.5-1.1,0.7-2.4,0.7-4c0-1.8-0.3-3.3-0.9-4.4c-0.6-1.1-1.5-1.8-2.6-2.1c-0.6-0.1-2.3-0.2-5.1-0.2h-5.4
				V1085.6z"/>
			<path class="st6" d="M393.2,1116.6h-7.6l-3-12.2h-13.8l-2.9,12.2h-7.4l13.5-53.7h7.4L393.2,1116.6z M380.3,1095.3l-4.8-19.9
				l-4.7,19.9H380.3z"/>
			<path class="st6" d="M396.9,1116.6v-53.7h14.7c3.7,0,6.4,0.5,8,1.4c1.7,1,3,2.7,4,5.1c1,2.5,1.5,5.3,1.5,8.5c0,4-0.8,7.4-2.3,10
				c-1.5,2.6-3.8,4.3-6.8,5c1.5,1.4,2.8,2.9,3.7,4.5s2.3,4.5,4,8.7l4.2,10.5h-8.3l-5-11.7c-1.8-4.2-3-6.8-3.7-7.9
				c-0.7-1.1-1.4-1.8-2.1-2.2c-0.7-0.4-1.9-0.6-3.5-0.6h-1.4v22.4H396.9z M403.9,1085.6h5.2c3.3,0,5.4-0.2,6.3-0.7s1.5-1.2,2-2.3
				s0.7-2.4,0.7-4c0-1.8-0.3-3.3-0.9-4.4c-0.6-1.1-1.5-1.8-2.6-2.1c-0.6-0.1-2.3-0.2-5.1-0.2h-5.4V1085.6z"/>
			<path class="st6" d="M453.8,1096.8l6.8,3.3c-1,5.9-2.8,10.2-5.2,13.1c-2.4,2.8-5.5,4.3-9.2,4.3c-4.6,0-8.4-2.4-11.3-7.3
				c-3-4.9-4.4-11.5-4.4-20c0-8.9,1.5-15.9,4.5-20.8c3-4.9,6.9-7.4,11.7-7.4c4.2,0,7.7,1.9,10.3,5.8c1.6,2.3,2.7,5.6,3.5,9.9
				l-6.9,2.6c-0.4-2.8-1.3-5-2.6-6.6c-1.3-1.6-2.9-2.4-4.7-2.4c-2.6,0-4.6,1.4-6.2,4.3c-1.6,2.9-2.4,7.5-2.4,13.9
				c0,6.8,0.8,11.6,2.4,14.5c1.6,2.9,3.6,4.3,6.1,4.3c1.9,0,3.4-0.9,4.8-2.7C452.3,1103.6,453.2,1100.8,453.8,1096.8z"/>
			<path class="st6" d="M498.3,1116.6l-8.2-53.7h7.1l5.2,36.9l6.3-36.9h8.3l6.1,37.5l5.3-37.5h7l-8.4,53.7h-7.4l-6.9-40.1l-6.9,40.1
				H498.3z"/>
			<path class="st6" d="M539,1116.6v-53.7h25.6v9.1h-18.6v11.9h17.3v9h-17.3v14.6h19.3v9H539z"/>
			<path class="st6" d="M571.3,1116.6v-53.2h7v44.2h17.3v9H571.3z"/>
			<path class="st6" d="M600.6,1062.9h12.8c2.9,0,5.1,0.3,6.6,1c2,0.9,3.8,2.6,5.2,4.9c1.4,2.4,2.5,5.3,3.3,8.7s1.1,7.7,1.1,12.7
				c0,4.4-0.4,8.2-1.1,11.4c-0.9,3.9-2.1,7.1-3.7,9.5c-1.2,1.8-2.8,3.3-4.9,4.3c-1.5,0.8-3.6,1.1-6.2,1.1h-13.1V1062.9z M607.6,1072
				v35.6h5.2c1.9,0,3.4-0.2,4.2-0.5c1.1-0.4,2.1-1.2,2.8-2.2s1.4-2.8,1.8-5.2c0.5-2.4,0.7-5.7,0.7-9.8s-0.2-7.3-0.7-9.6
				c-0.5-2.2-1.1-4-2-5.2c-0.8-1.2-1.9-2.1-3.2-2.5c-1-0.3-2.9-0.5-5.7-0.5H607.6z"/>
			<path class="st6" d="M635.3,1116.6v-53.7h7v53.7H635.3z"/>
			<path class="st6" d="M649,1116.6v-53.7h6.8l14.1,35.9v-35.9h6.5v53.7h-7l-13.9-35v35H649z"/>
			<path class="st6" d="M699.8,1096.8v-9h15v21.4c-1.5,2.2-3.6,4.1-6.4,5.8c-2.8,1.7-5.6,2.5-8.4,2.5c-3.6,0-6.8-1.2-9.5-3.5
				s-4.7-5.7-6.1-10.1s-2-9.1-2-14.3c0-5.6,0.8-10.6,2.3-14.9c1.5-4.3,3.7-7.7,6.6-10c2.2-1.8,5-2.7,8.3-2.7c4.3,0,7.6,1.4,10.1,4.2
				c2.4,2.8,4,6.7,4.7,11.6l-6.9,2c-0.5-2.6-1.4-4.7-2.7-6.2c-1.3-1.5-3-2.3-5-2.3c-3,0-5.5,1.5-7.3,4.5c-1.8,3-2.7,7.5-2.7,13.4
				c0,6.4,0.9,11.2,2.7,14.3c1.8,3.2,4.2,4.8,7.2,4.8c1.5,0,2.9-0.4,4.4-1.3c1.5-0.9,2.7-2,3.8-3.2v-6.8H699.8z"/>
		</g>
		<g>
			<path class="st6" d="M115.4,1014.1c0,3.2-1,5.7-2.9,7.5s-4.4,2.7-7.5,2.7c-5.9,0-9.3-2.8-10.3-8.5l-1.8-10.3
				c-0.9,0.3-1.9,0.5-3,0.5c-2.3,0-4.4-0.9-6-2.7c-1.7-1.8-2.5-4-2.5-6.5c0-2.5,0.8-4.7,2.5-6.5c1.7-1.8,3.7-2.7,6-2.7
				c2.1,0,3.9,0.7,5.6,2.1c1.6,1.4,2.6,3.2,3,5.4l3.4,19.8c0.2,1.6,1.2,2.3,3,2.3c2,0,3-0.9,3-2.6v-29.1c0-2.8-1.3-5-3.7-6.5
				c-2.1-1.2-4.7-1.8-7.7-1.8c-6.9,0-11.1,2.1-12.4,6.2h-7.3c1-8.8,7.4-13.2,19.1-13.3c5.4,0,9.8,1.1,13.3,3.3
				c4.2,2.8,6.3,6.9,6.3,12.5V1014.1z M93.7,996.8c0-1.1-0.4-2.1-1.1-2.9c-0.7-0.8-1.6-1.2-2.7-1.2c-1,0-1.9,0.4-2.7,1.2
				c-0.7,0.8-1.1,1.7-1.1,2.9c0,1.1,0.4,2.1,1.1,2.9c0.7,0.8,1.6,1.2,2.7,1.2c1,0,1.9-0.4,2.7-1.2C93.3,998.9,93.7,998,93.7,996.8z"
				/>
			<path class="st6" d="M156,1023.2h-7.5v-37.7c0-2.4-0.8-4.4-2.3-5.9c-1.5-1.5-3.6-2.3-6.3-2.3s-4.8,0.9-6.5,2.8
				c-1.7,1.9-2.6,4.3-2.7,7.2h-7.3c0.2-5.2,1.8-9.3,4.8-12.4c2.9-3.1,6.8-4.6,11.7-4.6c4.5,0,8.3,1.2,11.4,3.7
				c3.1,2.5,4.7,6.2,4.7,11.2V1023.2z"/>
			<path class="st6" d="M203.3,1023.2h-7.5v-34.4c0-3.5-1-6.4-3-8.4c-2-2.1-4.7-3.1-8-3.1c-4.8,0-8.5,2.2-11,6.5
				c3.8,0.8,6.5,2.7,8.1,5.8c-4.1,2.6-6.2,5.7-6.2,9.4v24.2h-7.5v-24.7c0-3.6,1.7-6.5,5-8.6c-2-1.5-4.5-2-7.4-1.6
				c0.2-5.4,2.1-9.8,5.8-13.3c3.4-3.2,7.7-4.8,12.9-4.8c5.8,0,10.4,1.7,13.7,5c3.3,3.3,5,7.9,5,13.6V1023.2z"/>
			<path class="st6" d="M234.1,1014.4c0,2.8-0.9,5.1-2.7,7s-4,2.9-6.5,2.9c-2.7,0-5-1-6.9-3c-1.9-2-2.8-4.5-2.8-7.5v-42.4h7.5v33.4
				c0.4-0.2,1.1-0.3,2.2-0.3c2.5,0,4.7,1,6.5,2.9C233.2,1009.3,234.1,1011.6,234.1,1014.4z M229,1014.4c0-1.2-0.4-2.3-1.2-3.1
				c-0.8-0.9-1.8-1.3-2.9-1.3c-1.1,0-2.1,0.4-2.9,1.3c-0.8,0.9-1.2,1.9-1.2,3.1c0,1.2,0.4,2.3,1.2,3.1c0.8,0.9,1.8,1.3,2.9,1.3
				c1.1,0,2.1-0.4,2.9-1.3C228.6,1016.7,229,1015.6,229,1014.4z"/>
			<path class="st6" d="M277.1,1023.2h-7.5v-35.4c0-3.1-1.3-5.7-3.7-7.8c-2.3-1.8-5-2.7-8.1-2.7c-3.6,0-6.5,1.3-8.7,3.9
				c-2.2,2.6-3.3,5.6-3.3,9.1c0,1,0.2,2.5,0.5,4.7c0.4,2.2,0.5,4.1,0.5,5.8v3.6c0-0.1,0.1-1,0.4-2.8c0.3-1.8,0.5-3.1,0.5-4.1
				c0.8-3.6,2.1-6.7,3.7-9.1c2.1-3.1,4.5-4.7,7.3-4.7c2.2,0,4.1,0.8,5.7,2.5c1.6,1.6,2.4,3.6,2.4,6c0,2.3-0.8,4.2-2.4,5.9
				c-1.6,1.7-3.5,2.5-5.7,2.5c-2,0-3.8-0.8-5.4-2.3c-2.4,7.9-3.6,16.2-3.6,24.8h-7.5v-8.3c0-4.1-0.7-8.5-2-13.3
				c-1.3-4.8-2-8.6-2-11.4c0-6,2-10.8,6-14.6c3.8-3.6,8.5-5.3,14-5.3c5.1,0,9.3,1.4,12.8,4.3c3.9,3.3,5.9,7.8,5.9,13.4V1023.2z
				 M262.5,992.3c0-1.1-0.4-2.1-1.1-2.9c-0.7-0.8-1.6-1.2-2.7-1.2c-1,0-1.9,0.4-2.6,1.2c-0.7,0.8-1,1.7-1,2.9c0,1.1,0.3,2.1,1,2.8
				c0.7,0.7,1.6,1.1,2.6,1.1c1,0,1.9-0.4,2.7-1.1C262.1,994.4,262.5,993.4,262.5,992.3z"/>
			<path class="st6" d="M316,1014.5c0,2.8-0.9,5.1-2.7,7c-1.8,1.9-4,2.8-6.6,2.8c-2.6,0-4.8-1-6.6-2.9c-1.8-1.9-2.7-4.2-2.7-7
				c0-2.8,0.9-5.1,2.7-7c1.8-1.9,4-2.9,6.6-2.9c1,0,1.6,0,1.8,0.1v-11.2c0-1.4-2.7-2.8-8-4.1c-5.4-1.3-10.2-2.4-14.6-3.2
				c0.2-4.8,1.3-8.6,3.5-11.5c2.2-2.9,5.3-4.4,9.4-4.4c1.7,0,4,0.4,6.9,1.2c2.9,0.8,5.1,1.2,6.3,1.2c1.4,0,2.1-1,2.3-2.9l5.9,1.7
				c-1.4,5.3-4.1,7.9-8,7.9c-1.5,0-3.5-0.4-6.2-1.1c-2.7-0.7-4.7-1.1-6.1-1.1c-3.5,0-5.6,1.4-6,4.3c6.2,1.4,11.4,2.9,15.6,4.4
				c4.2,1.6,6.3,4.2,6.3,8.1V1014.5z M310.8,1014.4c0-1.2-0.4-2.3-1.2-3.1c-0.8-0.9-1.8-1.3-2.9-1.3c-1.1,0-2.1,0.4-2.9,1.3
				c-0.8,0.9-1.2,1.9-1.2,3.1c0,1.2,0.4,2.3,1.2,3.1c0.8,0.9,1.8,1.3,2.9,1.3c1.1,0,2.1-0.4,2.9-1.3
				C310.4,1016.7,310.8,1015.6,310.8,1014.4z"/>
			<path class="st6" d="M317.1,964.7c-10-3.5-19.1-5.2-27.4-5.2c-3.8,0-7.6,0.3-11.5,0.8c1-11.6,6.8-17.4,17.6-17.4
				c1.2,0,2.3,0.1,3.4,0.3V939h5.4v5.5c1.8,0.8,3.4,2,5,3.5v-9h7.3v23.9L317.1,964.7z M309.4,957.1c-0.5-2.2-1.9-4.2-4.4-6.1
				c-2.4-1.9-5.2-2.9-8.2-2.9c-2.9,0-5.4,0.6-7.5,1.9c-2.1,1.3-3.4,2.9-4,5c1.4-0.3,3.5-0.5,6.4-0.5
				C297.7,954.5,303.6,955.3,309.4,957.1z"/>
			<path class="st6" d="M316.9,935.2h-7.3v-14.8h7.3V935.2z"/>
			<path class="st6" d="M364.5,1011.5c0,4.5-1.9,7.8-5.7,10c-3.1,1.8-7,2.7-11.8,2.7s-8.7-0.9-11.7-2.7c-3.6-2.2-5.4-5.5-5.4-10
				v-13.2c0-3.1,0.8-5.8,2.4-7.9c1.6-2.1,3.9-3.2,6.9-3.2c2.6,0,4.8,0.9,6.5,2.8c1.8,1.9,2.7,4.2,2.7,7c0,2.7-0.9,5-2.7,6.9
				c-1.8,1.9-3.9,2.9-6.5,2.9c-0.7,0-1.3-0.1-1.8-0.3v4c0,4.5,3.3,6.7,9.8,6.7c6.6,0,9.9-2.3,9.9-6.8v-24.8c0-2.8-1.3-5-3.7-6.5
				c-2.1-1.2-4.7-1.8-7.7-1.8c-7.7,0-11.8,2.1-12.4,6.2h-7.3c1-8.8,7.4-13.2,19.1-13.3c5.4,0,9.8,1.1,13.3,3.3
				c4.2,2.8,6.3,6.9,6.3,12.5V1011.5z M343.2,997c0-1.2-0.4-2.2-1.2-3.1c-0.8-0.9-1.8-1.3-2.9-1.3c-1.1,0-2.1,0.4-2.9,1.3
				c-0.8,0.9-1.2,1.9-1.2,3.1c0,1.2,0.4,2.2,1.2,3.1c0.8,0.9,1.8,1.3,2.9,1.3c1.1,0,2.1-0.4,2.9-1.3
				C342.8,999.3,343.2,998.2,343.2,997z"/>
			<path class="st6" d="M402.9,1023.2h-7.4l-22.6-27.4l4.5-5.6l18,21.8v-22.4c-0.2,0.1-1,0.1-2.3,0.1c-2.5,0-4.6-0.9-6.3-2.7
				c-1.7-1.8-2.6-4-2.6-6.8c0-2.8,0.9-5.1,2.7-7.1c1.8-1.9,3.9-2.9,6.3-2.9c2.8,0,5.2,1,7,2.9c1.9,2,2.8,4.5,2.8,7.6V1023.2z
				 M397.2,980.1c0-1.2-0.4-2.2-1.2-3c-0.8-0.8-1.8-1.3-2.9-1.3c-1.1,0-2.1,0.4-2.9,1.3c-0.8,0.8-1.2,1.9-1.2,3c0,1.2,0.4,2.2,1.2,3
				c0.8,0.8,1.8,1.3,2.9,1.3c1.1,0,2.1-0.4,2.9-1.3C396.8,982.3,397.2,981.3,397.2,980.1z"/>
			<path class="st6" d="M433.7,1014.4c0,2.8-0.9,5.1-2.7,7c-1.8,1.9-4,2.9-6.5,2.9c-2.7,0-5-1-6.9-3c-1.9-2-2.8-4.5-2.8-7.5v-42.4
				h7.5v33.4c0.4-0.2,1.1-0.3,2.2-0.3c2.5,0,4.7,1,6.5,2.9C432.8,1009.3,433.7,1011.6,433.7,1014.4z M428.6,1014.4
				c0-1.2-0.4-2.3-1.2-3.1c-0.8-0.9-1.8-1.3-2.9-1.3c-1.1,0-2.1,0.4-2.9,1.3c-0.8,0.9-1.2,1.9-1.2,3.1c0,1.2,0.4,2.3,1.2,3.1
				c0.8,0.9,1.8,1.3,2.9,1.3c1.1,0,2.1-0.4,2.9-1.3C428.2,1016.7,428.6,1015.6,428.6,1014.4z"/>
			<path class="st6" d="M474.6,1011c0,4.2-1.2,7.5-3.7,9.8c-2.5,2.3-5.7,3.4-9.7,3.4c-4,0-7.3-1.1-9.7-3.4c-2.5-2.3-3.7-5.6-3.7-9.8
				v-8.4c0-2.5,1.1-5.9,3.2-10c2.1-4.2,3.2-7.5,3.2-9.9c0-2-0.6-3.6-1.9-4.9c-1.3-1.3-2.8-1.9-4.5-1.9c-2.6,0-4.3,0.5-5.2,1.6
				c2.4,0.1,4.4,0.9,5.9,2.5c1.5,1.6,2.2,3.6,2.2,6c0,2.6-0.8,4.8-2.5,6.6c-1.7,1.8-3.7,2.7-6,2.7c-2.7,0-4.9-1.1-6.6-3.2
				c-1.7-2.1-2.5-4.7-2.5-7.7c0-4,1.5-7.3,4.4-9.9c2.9-2.6,6.3-3.9,10.2-3.9c4,0,7.3,1,9.8,3.1c2.5,2.1,3.8,5.1,3.8,9.1
				c0,2.6-1,6.2-3,10.9c-2,4.7-3,8-3,9.9v9.5c0,1.5,0.6,2.6,1.9,3.4c1.2,0.8,2.6,1.2,4,1.2c1.5,0,2.9-0.4,4.1-1.2
				c1.2-0.8,1.8-1.9,1.8-3.3v-21.4c0-3.2-1.2-5.2-3.5-6c0.3-1.6,0.4-3.1,0.1-4.5c4.1-1.6,6.2-5.8,6.2-12.4h7.5
				c-0.6,6.7-2.7,11.6-6.4,14.7c2.4,2.1,3.6,4.8,3.6,8.2V1011z M445.8,986.1c0-1.1-0.4-2.1-1.1-2.9c-0.7-0.8-1.6-1.2-2.7-1.2
				c-1,0-1.9,0.4-2.7,1.2s-1.1,1.7-1.1,2.9c0,1.1,0.4,2.1,1.1,2.9c0.7,0.8,1.6,1.2,2.7,1.2c1,0,1.9-0.4,2.7-1.2
				C445.4,988.1,445.8,987.2,445.8,986.1z"/>
			<path class="st6" d="M474.8,964.7c-10-3.5-19.1-5.2-27.4-5.2c-3.8,0-7.6,0.3-11.5,0.8c1-11.6,6.8-17.4,17.6-17.4
				c1.2,0,2.3,0.1,3.4,0.3V939h5.4v5.5c1.8,0.8,3.4,2,5,3.5v-9h7.3v23.9L474.8,964.7z M467.1,957.1c-0.5-2.2-1.9-4.2-4.4-6.1
				c-2.4-1.9-5.2-2.9-8.2-2.9c-2.9,0-5.4,0.6-7.5,1.9c-2.1,1.3-3.4,2.9-4,5c1.4-0.3,3.5-0.5,6.4-0.5
				C455.4,954.5,461.3,955.3,467.1,957.1z"/>
			<path class="st6" d="M474.6,935.2h-7.3v-14.8h7.3V935.2z"/>
			<path class="st6" d="M522.2,1011.5c0,4.5-1.9,7.8-5.7,10c-3.1,1.8-7,2.7-11.8,2.7s-8.7-0.9-11.7-2.7c-3.6-2.2-5.4-5.5-5.4-10
				v-13.2c0-3.1,0.8-5.8,2.4-7.9c1.6-2.1,3.9-3.2,6.9-3.2c2.6,0,4.8,0.9,6.5,2.8c1.8,1.9,2.7,4.2,2.7,7c0,2.7-0.9,5-2.7,6.9
				c-1.8,1.9-3.9,2.9-6.5,2.9c-0.7,0-1.3-0.1-1.8-0.3v4c0,4.5,3.3,6.7,9.8,6.7c6.6,0,9.9-2.3,9.9-6.8v-24.8c0-2.8-1.3-5-3.7-6.5
				c-2.1-1.2-4.7-1.8-7.7-1.8c-7.7,0-11.8,2.1-12.4,6.2h-7.3c1-8.8,7.4-13.2,19.1-13.3c5.4,0,9.8,1.1,13.3,3.3
				c4.2,2.8,6.3,6.9,6.3,12.5V1011.5z M500.9,997c0-1.2-0.4-2.2-1.2-3.1c-0.8-0.9-1.8-1.3-2.9-1.3s-2.1,0.4-2.9,1.3
				c-0.8,0.9-1.2,1.9-1.2,3.1c0,1.2,0.4,2.2,1.2,3.1c0.8,0.9,1.8,1.3,2.9,1.3s2.1-0.4,2.9-1.3C500.5,999.3,500.9,998.2,500.9,997z"
				/>
			<path class="st6" d="M572.6,1023.2h-7.5c-4.7-4.5-9.4-7.7-14.1-9.5v0.7c0,2.8-1,5.1-3,7c-2,1.9-4.2,2.9-6.7,2.9
				c-2.7,0-5-1-6.9-3.1s-2.9-4.5-2.9-7.4c0-2.9,1-5.3,2.9-7.3c1.9-2,4.2-3.1,6.9-3.1h0.8v-13.5c-0.8,0.2-1.5,0.3-2.1,0.3
				c-2.6,0-4.8-1-6.5-2.9c-1.8-2-2.7-4.3-2.7-7.1c0-2.7,0.9-5,2.7-6.9c1.8-1.9,3.9-2.9,6.5-2.9c2.7,0,5,1,6.8,3
				c1.8,2,2.7,4.5,2.7,7.5v24.7c6.4,2.3,11.5,5.4,15.5,9.2v-43.4h7.5V1023.2z M544.2,980.2c0-1.2-0.4-2.3-1.2-3.1
				c-0.8-0.9-1.8-1.3-2.9-1.3c-1.1,0-2.1,0.4-2.9,1.3c-0.8,0.9-1.2,1.9-1.2,3.1c0,1.2,0.4,2.3,1.2,3.1c0.8,0.9,1.8,1.3,2.9,1.3
				c1.1,0,2.1-0.4,2.9-1.3C543.8,982.5,544.2,981.4,544.2,980.2z M545.4,1013.7c0-1.2-0.4-2.3-1.2-3.1c-0.8-0.9-1.8-1.3-2.9-1.3
				c-1.1,0-2.1,0.4-2.9,1.3c-0.8,0.9-1.2,1.9-1.2,3.1c0,1.2,0.4,2.3,1.2,3.1c0.8,0.9,1.8,1.3,2.9,1.3c1.1,0,2.1-0.4,2.9-1.3
				C545,1016,545.4,1015,545.4,1013.7z"/>
			<path class="st6" d="M608.7,1014.4c0,2.8-0.9,5.1-2.7,7s-4,2.9-6.5,2.9c-2.7,0-5-1-6.9-3c-1.9-2-2.8-4.5-2.8-7.5v-64.2l-7.3,11.4
				l-4.8-1.6c-0.3-8.1-1.5-15.7-3.4-22.8h6.5c1,6.8,1.5,12,1.6,15.5l8.6-14.4c1.6,0.3,3.1,1.1,4.4,2.5c1.3,1.4,1.9,3,1.9,4.9v59.7
				c0.4-0.2,1.1-0.3,2.2-0.3c2.5,0,4.7,1,6.5,2.9C607.8,1009.3,608.7,1011.6,608.7,1014.4z M603.6,1014.4c0-1.2-0.4-2.3-1.2-3.1
				c-0.8-0.9-1.8-1.3-2.9-1.3c-1.1,0-2.1,0.4-2.9,1.3c-0.8,0.9-1.2,1.9-1.2,3.1c0,1.2,0.4,2.3,1.2,3.1c0.8,0.9,1.8,1.3,2.9,1.3
				c1.1,0,2.1-0.4,2.9-1.3C603.2,1016.7,603.6,1015.6,603.6,1014.4z"/>
			<path class="st6" d="M661.3,1023.2h-8.5l-11.4-40.3l-11.7,40.3h-8.1v-33.4c-0.8,0.2-1.5,0.3-2.1,0.3c-2.6,0-4.8-1-6.5-2.9
				c-1.8-2-2.7-4.3-2.7-7.1c0-2.7,0.9-5,2.7-6.9c1.8-1.9,3.9-2.9,6.5-2.9c2.7,0,5,1,6.8,3c1.8,2,2.7,4.5,2.7,7.5v19.4
				c0,2.3-0.5,6.8-1.4,13.8c1.8-7.9,2.8-12.1,3-12.7l8.5-27.7h4.6l8.5,27.7c0.2,0.5,1.2,4.8,3,12.7c-1-6.9-1.5-11.5-1.5-13.8v-49.7
				h7.5V1023.2z M623.7,980.2c0-1.2-0.4-2.3-1.2-3.1c-0.8-0.9-1.8-1.3-2.9-1.3c-1.1,0-2.1,0.4-2.9,1.3c-0.8,0.9-1.2,1.9-1.2,3.1
				c0,1.2,0.4,2.3,1.2,3.1c0.8,0.9,1.8,1.3,2.9,1.3c1.1,0,2.1-0.4,2.9-1.3C623.3,982.5,623.7,981.4,623.7,980.2z"/>
			<path class="st6" d="M719.5,1023.2h-8.5l-11.4-40.3l-11.7,40.3h-8.1v-33.4c-0.8,0.2-1.5,0.3-2.1,0.3c-2.6,0-4.8-1-6.5-2.9
				c-1.8-2-2.7-4.3-2.7-7.1c0-2.7,0.9-5,2.7-6.9c1.8-1.9,3.9-2.9,6.5-2.9c2.7,0,5,1,6.8,3c1.8,2,2.7,4.5,2.7,7.5v19.4
				c0,2.3-0.5,6.8-1.4,13.8c1.8-7.9,2.8-12.1,3-12.7l8.5-27.7h4.6l8.5,27.7c0.2,0.5,1.2,4.8,3,12.7c-1-6.9-1.5-11.5-1.5-13.8v-49.7
				h7.5V1023.2z M681.9,980.2c0-1.2-0.4-2.3-1.2-3.1c-0.8-0.9-1.8-1.3-2.9-1.3c-1.1,0-2.1,0.4-2.9,1.3c-0.8,0.9-1.2,1.9-1.2,3.1
				c0,1.2,0.4,2.3,1.2,3.1c0.8,0.9,1.8,1.3,2.9,1.3c1.1,0,2.1-0.4,2.9-1.3C681.5,982.5,681.9,981.4,681.9,980.2z"/>
			<path class="st6" d="M715.9,941.6c-0.3,4.2-1.2,7.8-2.5,10.7c-1.4,2.9-3.2,5.3-5.4,7.1c-2.3,1.8-4.9,3.1-8,4
				c-3.1,0.8-6.5,1.2-10.2,1.2H686v-4.9c1.6-0.1,2.9-0.7,3.9-1.8c1-1.1,1.6-2.1,1.9-3.2c-1.8-0.4-3.2-1.4-4.3-2.9
				c-1.1-1.5-1.7-3.3-1.7-5.3c0-2.3,0.7-4.1,2.2-5.6c1.5-1.5,3.2-2.2,5.2-2.2c2.3,0,4.2,0.8,5.5,2.3c1.3,1.6,2,3.6,2,6
				c0,2.2-0.6,4.4-1.7,6.7c-1.1,2.3-2.3,4.1-3.4,5.4c3.9-0.9,7-2.9,9.4-6.2c2.4-3.3,3.6-7,3.8-11.4H715.9z M696.1,946.8
				c0-1-0.3-1.7-0.8-2.3c-0.6-0.6-1.3-0.9-2.2-0.9c-0.8,0-1.5,0.3-2.1,0.9c-0.6,0.6-0.8,1.4-0.8,2.3c0,0.9,0.3,1.6,0.8,2.2
				c0.6,0.6,1.3,0.9,2.1,0.9c0.9,0,1.6-0.3,2.2-0.9C695.8,948.4,696.1,947.7,696.1,946.8z"/>
			<path class="st6" d="M760.1,1023.2h-7.5v-37.7c0-2.4-0.8-4.4-2.3-5.9c-1.5-1.5-3.6-2.3-6.3-2.3s-4.8,0.9-6.5,2.8
				c-1.7,1.9-2.6,4.3-2.7,7.2h-7.3c0.2-5.2,1.8-9.3,4.8-12.4c2.9-3.1,6.8-4.6,11.7-4.6c4.5,0,8.3,1.2,11.4,3.7
				c3.1,2.5,4.7,6.2,4.7,11.2V1023.2z"/>
		</g>
		<g>
			<path class="st6" d="M232.6,884.1c0,2.8-0.9,5.1-2.7,7s-4,2.8-6.6,2.8c-2.6,0-4.8-1-6.6-2.9s-2.7-4.2-2.7-7c0-2.8,0.9-5.1,2.7-7
				c1.8-1.9,4-2.9,6.6-2.9c1,0,1.6,0,1.8,0.1V863c0-1.4-2.7-2.8-8-4.1c-5.4-1.3-10.2-2.4-14.6-3.2c0.2-4.8,1.3-8.6,3.5-11.5
				c2.2-2.9,5.3-4.4,9.4-4.4c1.7,0,4,0.4,6.9,1.2c2.9,0.8,5.1,1.2,6.3,1.2c1.4,0,2.1-1,2.3-2.9l5.9,1.7c-1.5,5.3-4.1,7.9-8,7.9
				c-1.5,0-3.5-0.4-6.2-1.1c-2.7-0.7-4.7-1.1-6.1-1.1c-3.5,0-5.6,1.4-6,4.3c6.2,1.4,11.4,2.9,15.6,4.4c4.2,1.6,6.3,4.2,6.3,8.1
				V884.1z M227.4,883.9c0-1.2-0.4-2.3-1.2-3.1c-0.8-0.9-1.8-1.3-2.9-1.3s-2.1,0.4-2.9,1.3c-0.8,0.9-1.2,1.9-1.2,3.1
				c0,1.2,0.4,2.3,1.2,3.1c0.8,0.9,1.8,1.3,2.9,1.3s2.1-0.4,2.9-1.3C227,886.2,227.4,885.1,227.4,883.9z"/>
			<path class="st6" d="M276.1,841.2c-0.4,13.8-6.4,20.7-18,20.7c-4.8,0-8.5-1.1-11.1-3.2c-2.6-2.1-3.9-4.8-3.9-8.1
				c0-2.5,0.8-4.6,2.4-6.4c1.6-1.7,3.6-2.6,5.9-2.6c2.5,0,4.5,0.9,6.1,2.7c1.6,1.8,2.4,3.9,2.4,6.3c0,2.3-0.6,4.1-1.8,5.2
				c7.5-0.3,11.2-5.2,11.2-14.6H276.1z M276.1,870.7c-0.4,13.8-6.4,20.7-18,20.7c-4.8,0-8.5-1.1-11.1-3.2c-2.6-2.1-3.9-4.8-3.9-8.1
				c0-2.5,0.8-4.6,2.4-6.4c1.6-1.7,3.6-2.6,5.9-2.6c2.5,0,4.5,0.9,6.1,2.7c1.6,1.8,2.4,3.9,2.4,6.3c0,2.3-0.6,4.1-1.8,5.2
				c7.5-0.3,11.2-5.2,11.2-14.6H276.1z M255.1,850.5c0-1.1-0.4-2.1-1.1-2.9c-0.7-0.8-1.6-1.2-2.7-1.2c-1,0-1.9,0.4-2.6,1.2
				c-0.7,0.8-1,1.7-1,2.9c0,1.1,0.3,2.1,1,2.8c0.7,0.7,1.6,1.1,2.6,1.1c1,0,1.9-0.4,2.7-1.1C254.8,852.6,255.1,851.6,255.1,850.5z
				 M255.1,880c0-1.1-0.4-2.1-1.1-2.9c-0.7-0.8-1.6-1.2-2.7-1.2c-1,0-1.9,0.4-2.6,1.2c-0.7,0.8-1,1.7-1,2.9c0,1.1,0.3,2.1,1,2.8
				c0.7,0.7,1.6,1.1,2.6,1.1c1,0,1.9-0.4,2.7-1.1C254.8,882.1,255.1,881.2,255.1,880z"/>
			<path class="st6" d="M320.4,883.3c0,3-0.9,5.5-2.8,7.5c-1.9,1.9-4.1,2.9-6.9,2.9c-2.6,0-4.8-1-6.5-2.9c-1.8-1.9-2.7-4.2-2.7-6.9
				c0-2.8,0.9-5.1,2.7-7.1c1.8-1.9,3.9-2.9,6.5-2.9c0.9,0,1.6,0,2.2,0.1v-18.9c0-5.5-3.7-8.2-11.1-8.2c-3.1,0-5.7,1-7.8,3
				c-2.1,2-3.2,4.7-3.2,8h-7.3c0.2-5.7,2-10.2,5.3-13.3c3.3-3.2,7.6-4.7,13-4.7c5.3,0,9.6,1.1,12.8,3.4c3.9,2.7,5.8,6.8,5.8,12.4
				V883.3z M314.8,883.8c0-1.2-0.4-2.3-1.2-3.1c-0.8-0.9-1.8-1.3-2.9-1.3c-1.1,0-2.1,0.4-2.9,1.3c-0.8,0.9-1.2,1.9-1.2,3.1
				c0,1.2,0.4,2.3,1.2,3.1c0.8,0.9,1.8,1.3,2.9,1.3c1.1,0,2.1-0.4,2.9-1.3C314.4,886.1,314.8,885,314.8,883.8z"/>
			<path class="st6" d="M332.6,809.2c-2.1,14.4-9.3,21.6-21.8,21.6c-4.8,0-8.5-1.1-11.1-3.2c-2.6-2.1-3.9-4.8-3.9-8.1
				c0-2.5,0.8-4.6,2.4-6.4c1.6-1.7,3.6-2.6,5.9-2.6c2.5,0,4.5,0.9,6.1,2.7c1.6,1.8,2.4,3.9,2.4,6.3c0,2.3-0.6,4.1-1.8,5.2
				c8.4-0.3,13.3-5.5,14.6-15.5H332.6z M307.8,819.4c0-1.1-0.4-2.1-1.1-2.9c-0.7-0.8-1.6-1.2-2.7-1.2c-1,0-1.9,0.4-2.6,1.2
				c-0.7,0.8-1,1.7-1,2.9c0,1.1,0.3,2.1,1,2.8c0.7,0.7,1.6,1.1,2.6,1.1c1,0,1.9-0.4,2.7-1.1C307.4,821.5,307.8,820.6,307.8,819.4z"
				/>
			<path class="st6" d="M358.8,892.8h-7.4l-22.6-27.4l4.5-5.6l18,21.8v-22.4c-0.2,0.1-1,0.1-2.3,0.1c-2.5,0-4.6-0.9-6.3-2.7
				c-1.7-1.8-2.6-4-2.6-6.8c0-2.8,0.9-5.1,2.7-7.1c1.8-1.9,3.9-2.9,6.3-2.9c2.8,0,5.2,1,7,2.9c1.9,2,2.8,4.5,2.8,7.6V892.8z
				 M353.1,849.6c0-1.2-0.4-2.2-1.2-3c-0.8-0.8-1.8-1.3-2.9-1.3c-1.1,0-2.1,0.4-2.9,1.3c-0.8,0.8-1.2,1.9-1.2,3c0,1.2,0.4,2.2,1.2,3
				c0.8,0.8,1.8,1.3,2.9,1.3c1.1,0,2.1-0.4,2.9-1.3C352.7,851.8,353.1,850.8,353.1,849.6z"/>
			<path class="st6" d="M406.4,881.1c0,4.5-1.9,7.8-5.7,10c-3.1,1.8-7,2.7-11.8,2.7s-8.7-0.9-11.7-2.7c-3.6-2.2-5.4-5.5-5.4-10
				v-13.2c0-3.1,0.8-5.8,2.4-7.9c1.6-2.1,3.9-3.2,6.9-3.2c2.6,0,4.8,0.9,6.5,2.8c1.8,1.9,2.7,4.2,2.7,7c0,2.7-0.9,5-2.7,6.9
				c-1.8,1.9-3.9,2.9-6.5,2.9c-0.7,0-1.3-0.1-1.8-0.3v4c0,4.5,3.3,6.7,9.8,6.7c6.6,0,9.9-2.3,9.9-6.8v-24.8c0-2.8-1.3-5-3.7-6.5
				c-2.1-1.2-4.7-1.8-7.7-1.8c-7.7,0-11.8,2.1-12.4,6.2h-7.3c1-8.8,7.4-13.2,19.1-13.3c5.4,0,9.8,1.1,13.3,3.3
				c4.2,2.8,6.3,6.9,6.3,12.5V881.1z M385.1,866.6c0-1.2-0.4-2.2-1.2-3.1c-0.8-0.9-1.8-1.3-2.9-1.3c-1.1,0-2.1,0.4-2.9,1.3
				c-0.8,0.9-1.2,1.9-1.2,3.1c0,1.2,0.4,2.2,1.2,3.1c0.8,0.9,1.8,1.3,2.9,1.3c1.1,0,2.1-0.4,2.9-1.3
				C384.7,868.8,385.1,867.8,385.1,866.6z"/>
			<path class="st6" d="M418.6,809.2c-2.1,14.4-9.3,21.6-21.8,21.6c-4.8,0-8.5-1.1-11.1-3.2c-2.6-2.1-3.9-4.8-3.9-8.1
				c0-2.5,0.8-4.6,2.4-6.4c1.6-1.7,3.6-2.6,5.9-2.6c2.5,0,4.5,0.9,6.1,2.7c1.6,1.8,2.4,3.9,2.4,6.3c0,2.3-0.6,4.1-1.8,5.2
				c8.4-0.3,13.3-5.5,14.6-15.5H418.6z M393.8,819.4c0-1.1-0.4-2.1-1.1-2.9c-0.7-0.8-1.6-1.2-2.7-1.2c-1,0-1.9,0.4-2.6,1.2
				c-0.7,0.8-1,1.7-1,2.9c0,1.1,0.3,2.1,1,2.8c0.7,0.7,1.6,1.1,2.6,1.1c1,0,1.9-0.4,2.7-1.1C393.5,821.5,393.8,820.6,393.8,819.4z"
				/>
			<path class="st6" d="M458.7,868.2c0,3.5-0.8,5.9-2.5,7.2c3.1,1.9,4.7,4.8,4.7,8.6c0,2.8-0.9,5.1-2.7,7c-1.8,1.9-3.9,2.8-6.4,2.8
				c-2.3,0-4.4-0.8-6-2.4c-1.7-1.6-2.7-3.6-3-6c-2.6,1.4-4.4,2.4-5.6,3.1c-1.9,1.3-3.5,2.7-4.6,4.3H425v-33.4
				c-0.8,0.2-1.5,0.3-2.1,0.3c-2.6,0-4.8-1-6.5-2.9c-1.8-2-2.7-4.3-2.7-7.1c0-2.7,0.9-5,2.7-6.9c1.8-1.9,3.9-2.9,6.5-2.9
				c2.7,0,5,1,6.8,3c1.8,2,2.7,4.5,2.7,7.5v33c1.3-1,4.2-2.6,8.7-4.5c4-1.8,6.8-3.6,8.3-5.5c1.1-1.3,1.7-3.4,1.7-6.2v-26.3h7.5
				V868.2z M427.1,849.7c0-1.2-0.4-2.3-1.2-3.1c-0.8-0.9-1.8-1.3-2.9-1.3c-1.1,0-2.1,0.4-2.9,1.3c-0.8,0.9-1.2,1.9-1.2,3.1
				c0,1.2,0.4,2.3,1.2,3.1c0.8,0.9,1.8,1.3,2.9,1.3c1.1,0,2.1-0.4,2.9-1.3C426.7,852,427.1,851,427.1,849.7z M455.8,884
				c0-1.2-0.4-2.2-1.2-3.1c-0.8-0.9-1.8-1.3-2.9-1.3c-1.1,0-2.1,0.4-2.9,1.3c-0.8,0.9-1.2,1.9-1.2,3.1c0,1.2,0.4,2.2,1.2,3.1
				c0.8,0.9,1.8,1.3,2.9,1.3c1.1,0,2.1-0.4,2.9-1.3C455.4,886.2,455.8,885.2,455.8,884z"/>
			<path class="st6" d="M507.7,892.8h-7.5v-34.1c0-5.5-1.4-9.5-4.2-12l-7.5,5.8l-7.4-5.8c-3.4,1.8-5.1,5.9-5.1,12.3
				c0,2.1,0.6,5.2,1.8,9.2c1.2,4.1,1.8,7.1,1.8,9.1c0,1.4-0.2,2.8-0.7,4.3c0.5-1.2,1.7-2.9,3.5-5.1c1.9-2.2,3.6-3.8,5.3-4.9
				c-2.2-0.2-3.9-1.1-5.1-2.7c-1.3-1.6-1.9-3.5-1.9-5.5c0-2.3,0.7-4.3,2.2-6c1.5-1.6,3.3-2.5,5.5-2.5c2.2,0,4,0.8,5.6,2.5
				c1.5,1.6,2.3,3.6,2.3,6c0,3.7-1.8,7.7-5.4,11.8c-4.8,5.5-7.7,9.1-8.5,10.8c-1.2,2.5-1.8,4.7-1.8,6.6H473c0.2-3.3,0.2-6.6,0.2-10
				c0-3.5-0.5-6.7-1.5-9.6c-2.1-6.2-3.2-10.9-3.2-14c0-4.8,1.1-8.9,3.4-12.3c2.2-3.5,5.4-5.8,9.6-7l6.9,5.6l6.4-5.6
				c8.6,1.4,12.9,7.6,12.9,18.7V892.8z M492,863.4c0-1.1-0.3-2.1-1-2.8c-0.7-0.7-1.6-1.1-2.6-1.1c-1,0-1.9,0.4-2.6,1.1
				c-0.7,0.7-1,1.7-1,2.8c0,1.1,0.3,2.1,1,2.8c0.7,0.7,1.5,1.1,2.6,1.1c1,0,1.9-0.4,2.6-1.1C491.6,865.4,492,864.5,492,863.4z"/>
			<path class="st6" d="M546.6,884.1c0,2.8-0.9,5.1-2.7,7s-4,2.8-6.6,2.8c-2.6,0-4.8-1-6.6-2.9s-2.7-4.2-2.7-7c0-2.8,0.9-5.1,2.7-7
				c1.8-1.9,4-2.9,6.6-2.9c1,0,1.6,0,1.8,0.1V863c0-1.4-2.7-2.8-8-4.1c-5.4-1.3-10.2-2.4-14.6-3.2c0.2-4.8,1.3-8.6,3.5-11.5
				c2.2-2.9,5.3-4.4,9.4-4.4c1.7,0,4,0.4,6.9,1.2c2.9,0.8,5.1,1.2,6.3,1.2c1.4,0,2.1-1,2.3-2.9l5.9,1.7c-1.5,5.3-4.1,7.9-8,7.9
				c-1.5,0-3.5-0.4-6.2-1.1c-2.7-0.7-4.7-1.1-6.1-1.1c-3.5,0-5.6,1.4-6,4.3c6.2,1.4,11.4,2.9,15.6,4.4c4.2,1.6,6.3,4.2,6.3,8.1
				V884.1z M541.4,883.9c0-1.2-0.4-2.3-1.2-3.1c-0.8-0.9-1.8-1.3-2.9-1.3s-2.1,0.4-2.9,1.3c-0.8,0.9-1.2,1.9-1.2,3.1
				c0,1.2,0.4,2.3,1.2,3.1c0.8,0.9,1.8,1.3,2.9,1.3s2.1-0.4,2.9-1.3C541,886.2,541.4,885.1,541.4,883.9z"/>
			<path class="st6" d="M588,892.8h-7.5V855c0-2.4-0.8-4.4-2.3-5.9c-1.5-1.5-3.6-2.3-6.3-2.3s-4.8,0.9-6.5,2.8
				c-1.7,1.9-2.6,4.3-2.7,7.2h-7.3c0.2-5.2,1.8-9.3,4.8-12.4c2.9-3.1,6.8-4.6,11.7-4.6c4.5,0,8.3,1.2,11.4,3.7
				c3.1,2.5,4.7,6.2,4.7,11.2V892.8z"/>
			<path class="st6" d="M634.7,879.6c0,9.4-6,14.2-17.9,14.2c-11.8,0-17.8-4.7-17.8-14.2v-6c0-4.2,1.6-7.1,4.9-8.8
				c-3.6-2.7-5.5-6.6-5.5-11.8c0-3.8,1-7,3-9.4c2-2.5,4.7-3.7,8.2-3.7c2.4,0,4.5,0.8,6.2,2.4c1.7,1.6,2.5,3.7,2.5,6.3
				c0,2.3-0.8,4.4-2.3,6.1c-1.5,1.7-3.6,2.6-6.1,2.6c-1.3,0-2.4-0.2-3.4-0.6c0.6,3.3,2.1,4.9,4.4,4.9h8.6v6.4h-8.6
				c-1.3,0-2.3,0.6-3.1,1.8c-0.8,1.2-1.2,2.6-1.2,4.1v5.9c0,4.6,3.4,7,10.3,7c7,0,10.5-2.3,10.5-7v-38.9h7.5V879.6z M613.8,848.7
				c0-1.2-0.4-2.2-1.1-3c-0.7-0.8-1.7-1.2-2.8-1.2c-1.1,0-2.1,0.4-2.8,1.2c-0.7,0.8-1.1,1.8-1.1,3c0,1.2,0.4,2.2,1.1,3
				s1.7,1.2,2.8,1.2c1.1,0,2.1-0.4,2.8-1.2S613.8,849.9,613.8,848.7z"/>
		</g>
	</g>
	<g>
		<g>
			<path class="st11" d="M445.4,87.7c0,0-5.2-12.9-22-12.9c-16.8,0-24.6,12.9-24.6,12.9L56.5,684.6c0,0-8.6,14.7-0.7,28.5
				c0,0,8.2,13.6,21.8,13.6c13.6,0,682.7,0,682.7,0s18.3,0.5,25.6-13.8c6.1-12,3.1-21.2,0.2-26.7L445.4,87.7"/>
			<polyline class="st8" points="423,139.2 112.7,679.8 727.9,679.8 423,139.2 			"/>
		</g>
		<g>
			<path class="st1" d="M613.9,544.4c0-2.2,1.8-4,4-4c2.2,0,4,1.8,4,4c0,2.2-1.8,4-4,4C615.7,548.4,613.9,546.6,613.9,544.4"/>
			<path class="st1" d="M607.9,523.8c0-2.1,1.7-3.8,3.8-3.8c2.1,0,3.8,1.7,3.8,3.8c0,2.1-1.7,3.8-3.8,3.8
				C609.6,527.6,607.9,525.9,607.9,523.8"/>
			<path class="st1" d="M607.7,561.6c0-1.7,1.4-3.2,3.2-3.2c1.7,0,3.2,1.4,3.2,3.2c0,1.7-1.4,3.2-3.2,3.2
				C609.1,564.7,607.7,563.3,607.7,561.6"/>
			<path class="st1" d="M606.1,541.5c0-1.3,1-2.3,2.3-2.3c1.3,0,2.3,1,2.3,2.3c0,1.3-1,2.3-2.3,2.3
				C607.2,543.8,606.1,542.7,606.1,541.5"/>
			<path class="st1" d="M603.9,490.9c0-1.7,1.4-3.1,3.2-3.1c1.7,0,3.1,1.4,3.1,3.1c0,1.7-1.4,3.1-3.1,3.1
				C605.3,494.1,603.9,492.7,603.9,490.9"/>
			<path class="st1" d="M601.1,579.6c0-1.7,1.4-3.1,3.1-3.1c1.7,0,3.1,1.4,3.1,3.1c0,1.7-1.4,3.1-3.1,3.1
				C602.5,582.7,601.1,581.3,601.1,579.6"/>
			<path class="st1" d="M596.9,502.7c0-1.8,1.5-3.3,3.3-3.3c1.8,0,3.3,1.5,3.3,3.3c0,1.8-1.5,3.3-3.3,3.3
				C598.3,505.9,596.9,504.5,596.9,502.7"/>
			<path class="st1" d="M597.8,555.8c0-1.4,1.1-2.5,2.5-2.5c1.4,0,2.5,1.1,2.5,2.5c0,1.4-1.1,2.5-2.5,2.5
				C598.9,558.4,597.8,557.3,597.8,555.8"/>
			<path class="st1" d="M596.3,525.9c0-1.5,1.2-2.8,2.8-2.8s2.8,1.2,2.8,2.8c0,1.5-1.3,2.8-2.8,2.8S596.3,527.5,596.3,525.9"/>
			<path class="st1" d="M595.9,573.1c0-1.4,1.1-2.5,2.5-2.5c1.4,0,2.5,1.1,2.5,2.5c0,1.4-1.1,2.5-2.5,2.5
				C597,575.6,595.9,574.5,595.9,573.1"/>
			<path class="st1" d="M591,510.8c0-1.6,1.3-2.9,2.9-2.9c1.6,0,3,1.3,3,2.9c0,1.6-1.3,2.9-3,2.9C592.3,513.7,591,512.4,591,510.8"
				/>
			<path class="st1" d="M585.4,566.5c0-2.4,1.9-4.3,4.3-4.3c2.4,0,4.3,1.9,4.3,4.3c0,2.4-1.9,4.3-4.3,4.3
				C587.3,570.7,585.4,568.8,585.4,566.5"/>
			<path class="st1" d="M585.5,546.7l5,0c1.1,0.1,2,0.7,2.7,1.5c0.5,0.6,0.5,1.5,0.1,2.2c-0.1,0.2-0.3,0.3-0.4,0.4
				c-0.3,0.2-0.7,0.3-1,0.4c-1.8,0.4-3.7,0.1-5.3-1C585.5,549.4,585,547.9,585.5,546.7"/>
			<path class="st1" d="M587.9,528.6c0-1.3,1-2.3,2.3-2.3c1.3,0,2.3,1,2.3,2.3c0,1.3-1.1,2.3-2.3,2.3
				C589,530.9,587.9,529.8,587.9,528.6"/>
			<path class="st1" d="M585.6,518.9c0-1.5,1.2-2.8,2.8-2.8c1.5,0,2.8,1.2,2.8,2.8c0,1.5-1.2,2.8-2.8,2.8
				C586.8,521.7,585.6,520.4,585.6,518.9"/>
			<path class="st1" d="M585.1,494.9c0-1.6,1.3-3,3-3c1.6,0,3,1.3,3,3c0,1.6-1.3,3-3,3C586.4,497.9,585.1,496.6,585.1,494.9"/>
			<path class="st1" d="M570.8,551.8c0-1,0.6-1.8,1.5-2.2c0.6-0.3,1.3-0.3,1.9,0c0.6,0.2,1.2,0.5,1.7,0.9c0.6,0.3,1.1,0.7,1.6,1.2
				l7.9,5.5c-0.2,0.7-0.5,1.3-0.9,1.8c-0.4,0.5-1.1,0.8-1.7,0.8c-0.8,0.1-1.6-0.1-2.3-0.5c-2-1.1-3.9-2.4-5.6-3.9L570.8,551.8"/>
			<path class="st1" d="M574.5,539.7c0-0.5,0.3-1,0.8-1.3c1.1-0.5,2.3-0.9,3.5-0.9c1.9-0.1,3.7,0.4,5.3,1.2c0.8,0.4,1.2,1.3,1,2.2
				c-0.2,0.7-0.7,1.2-1.3,1.4c-1.5,0.4-3.1,0.5-4.6,0.3c-1.4-0.2-2.8-0.7-4-1.4C574.7,540.8,574.4,540.2,574.5,539.7"/>
			<path class="st1" d="M580.1,502.4c0-1.3,1.1-2.4,2.4-2.4c1.3,0,2.4,1.1,2.4,2.4c0,1.3-1.1,2.4-2.4,2.4
				C581.2,504.8,580.1,503.7,580.1,502.4"/>
			<path class="st1" d="M575.4,588.6c0-1.4,1.1-2.5,2.5-2.5c1.4,0,2.5,1.1,2.5,2.5c0,1.4-1.1,2.5-2.5,2.5
				C576.5,591.1,575.4,590,575.4,588.6"/>
			<path class="st1" d="M571.9,578.7c0-1.5,1.2-2.7,2.7-2.7c1.5,0,2.7,1.2,2.7,2.7c0,1.5-1.2,2.7-2.7,2.7
				C573.1,581.4,571.9,580.2,571.9,578.7"/>
			<path class="st1" d="M571.3,476.1c0-1.6,1.3-2.8,2.8-2.8s2.8,1.3,2.8,2.8c0,1.6-1.3,2.8-2.8,2.8S571.3,477.7,571.3,476.1"/>
			<path class="st1" d="M571,505.4c0-1.1,0.9-2.1,2.1-2.1c1.1,0,2.1,0.9,2.1,2.1c0,1.1-0.9,2.1-2.1,2.1
				C571.9,507.4,571,506.5,571,505.4"/>
			<path class="st1" d="M561,553.8c2.1-1,4.6-0.6,6.1,1.1c1.7,1.3,3.3,2.7,4.6,4.4c0.7,0.9,1,2.1,0.7,3.2c-0.1,0.4-0.5,0.8-1,0.8
				c-0.6,0-1.2-0.1-1.7-0.4c-0.2-0.1-0.4-0.2-0.6-0.3l-6.7-4.5c-0.4-0.5-0.9-1-1.3-1.6c-0.5-0.3-0.9-0.8-0.9-1.4
				C560.2,554.6,560.5,554.1,561,553.8"/>
			<path class="st1" d="M558.3,594.2c0-1.9,1.5-3.4,3.4-3.4c1.9,0,3.4,1.5,3.4,3.4c0,1.9-1.5,3.4-3.4,3.4
				C559.8,597.6,558.3,596.1,558.3,594.2"/>
			<path class="st1" d="M560.5,485.4c0.2,0.2,0.3,0.4,0.4,0.6c0.1,0.2,0.2,0.4,0.3,0.6c0.9,4.4,2,8.8,3.5,13
				c0.1,0.2,0.1,0.5,0.2,0.7c0.2,1.1,0.1,2.2-0.4,3.2c-0.1,0.2-0.3,0.4-0.5,0.6c-0.4,0.4-0.9,0.5-1.4,0.4c-0.1,0-0.2-0.1-0.3-0.2
				c-0.1-0.1-0.1-0.2-0.2-0.3c-0.1-0.4-0.2-0.8-0.4-1.3l-4-16.4c-0.2-0.8,0.2-1.6,0.9-1.8C559.4,484.3,560.2,484.6,560.5,485.4"/>
			<path class="st1" d="M559.1,582.6c0-1.4,1.2-2.6,2.6-2.6c1.5,0,2.6,1.2,2.6,2.6c0,1.5-1.2,2.6-2.6,2.6
				C560.3,585.2,559.1,584,559.1,582.6"/>
			<path class="st11" d="M271.7,622.8c0-0.7-0.3-1.3-0.8-1.7c-0.5-0.4-1.2-0.6-1.9-0.4c-3.8,1.6-8,2-12.1,1.2
				c-1.7-0.5-3-1.8-3.3-3.6c-0.3-1.7,0.4-3.5,1.8-4.5c0.1-0.1,0.2-0.2,0.3-0.3c0.9-0.7,1.9-1.4,2.9-2.1c1.6-1.1,3.1-2.2,4.5-3.6
				c5.2-5.2,9.7-11.2,13.4-17.6c0.8-1,0.8-2.3,0.1-3.3c-0.7-1-2-1.4-3.2-1c-0.1,0-0.2,0-0.3,0c-2.3,0.1-4.7,0.3-7,0.5
				c-1.4,0.9-3.2,1.1-4.8,0.7c-1.6-0.4-3-1.5-3.8-3c-1.1-2-2-4.1-2.5-6.3c14.4-5.4,29.2-9.6,44.2-12.7c3.2-0.4,6.2-1.3,9.2-2.5
				c0.6-0.4,1.4-0.4,2.1-0.2c0.7,0.3,1.2,0.8,1.5,1.5s0.2,1.5-0.2,2.1c-0.4,0.6-1,1.1-1.7,1.2c-0.1,0.1-0.2,0.1-0.3,0.2
				c-4.8,0.2-9.5,0.9-14.2,2.2l-26.8,6.3c-1,0.2-1.9,0.5-2.8,0.8c-0.5,0.2-1,0.4-1.4,0.7c-0.2,0.2-0.4,0.3-0.5,0.6
				c-0.1,0.2-0.2,0.5-0.1,0.7c0.1,0.3,0.3,0.7,0.5,0.9c0.3,0.3,0.7,0.5,1.1,0.7c1.4,0.6,3,0.9,4.6,0.9c1.9,0,3.9-0.1,5.8-0.3
				c8.7-1,17.5-1.5,26.3-1.5c4.8,0.2,9.6,0.4,14.4,0.7c-0.2-10.1,0-20.2,0.3-30.2c-0.1-1.5,1-2.8,2.5-3c1.5-0.2,2.8,0.9,3,2.4
				c-0.1,3.1-0.1,6.2,0,9.3c0.5,1,1.4,1.8,2.5,2.1c1.1,0.3,2.3,0.1,3.3-0.5c6-0.7,11.9-1.8,17.7-3.2l3.3-0.7c0-3.1,1.2-6.1,3.2-8.4
				l6.5-9.3c3.4-4.8,5.3-10.5,5.4-16.5c0.3-2.1,0-4.1-0.9-6c-0.4-1-1.2-1.8-2.3-2c-1.1-0.2-2.2,0.2-2.9,1c-3.3,3-6.2,6.5-8.6,10.3
				c-0.8,1.1-1.7,2.2-2.7,3.2c-0.1,0.1-0.2,0.2-0.3,0.3c-0.3,0.6-1,0.9-1.7,0.8c-0.7-0.1-1.2-0.7-1.2-1.4l-0.1-0.3
				c-0.7-2.2-1.1-4.4-1.3-6.7c0.5-4.5-0.8-9.1-3.5-12.7c-1.4-1.8-3.2-3.4-5.2-4.6c-0.4-0.3-0.6-0.7-0.6-1.2c0-0.5,0.2-0.9,0.5-1.2
				l3.4-1.4c0.6-0.5,1-1.3,1-2.1c0-0.8-0.4-1.5-1-2.1c-3.6-2.3-6.7-5.4-8.9-9.1c-5.7-12.2-10.9-24.6-15.7-37.3c-0.2-1-0.2-2.1,0-3.1
				c0.8-2.5,1.4-5,1.9-7.5c-0.1-0.9-0.5-1.7-1.3-2.3c-0.7-0.5-1.7-0.8-2.6-0.6c-4.2,2.6-7.8,6.1-10.6,10.1c1.7,7.2,4.7,14,8.8,20.1
				c3.1,5.6,5.6,11.4,7.6,17.5c1.5,3.8,2.3,7.9,2.3,12c0.8,4.1,4.8,6.9,8.9,6.3c1.1-0.4,2.4-0.6,3.6-0.6c0.4,0.1,0.7,0.5,0.8,0.9
				c0.1,0.4,0,0.8-0.3,1.2l-2.1,1.1c-4,3.4-7.3,7.5-9.8,12.1l-3.2-1.4c-0.7-6.5-1.3-12.9-1.8-19.4c-0.6-4.6-1.8-9.2-3.6-13.5
				c-2.9-7-6.3-13.7-10.3-20.2c-2.3-4.3-4.3-8.8-5.7-13.4c-9.8-10.4-25.7-12.3-37.7-4.6l-0.1,0c-0.1,0.1-0.2,0.1-0.4,0.2
				c-0.4,0.6-1,0.9-1.7,1c-0.7,0-1.4-0.2-1.8-0.7c-0.5-0.5-0.7-1.2-0.5-1.9c0.1-0.7,0.5-1.3,1.1-1.6c0.5-0.8,1.3-1.6,2.1-2.1
				c12-7.5,27.4-6.4,38.2,2.7l0.2,0.1c1.9-1.3,3.8-2.7,5.5-4.3c2.1-1.9,3.8-4.1,5.3-6.5l0.7-1.1c-0.2-2-0.4-4-0.5-6
				c-1-4.5,0-9.2,2.6-13c0.9-1.3,1.9-2.5,3-3.6l-3.2-10.4c2.4-5.5,5-10.8,8-16c4.5-7.3,10.5-13.5,17.5-18.4
				c7.4-4.6,16.2-6.7,24.9-5.7c13.6-0.7,27.2,1.2,40.1,5.7c15.1,4,26.6,16.3,29.6,31.7c0.4,2.7,0.4,5.4-0.1,8l-2,11.2
				c-0.5,2-0.8,4.1-0.7,6.2v1.4l4.5,6c-3.6,18.6-7.9,37-13,55.3c-1.8,6.5-4.6,12.8-8.3,18.5c-0.9,1.4-2,2.6-3.1,3.8
				c-0.5,0.5-1.1,0.9-1.7,1.3c-0.4,0.3-1,0.4-1.5,0.3c-0.5-0.1-1-0.5-1.2-0.9c-0.3-0.5-0.3-1-0.1-1.5c0.2-0.5,0.5-0.9,1-1.1
				c0.8-1.9,0-4.1-1.9-4.9c-0.9-0.3-1.8-0.4-2.7-0.3c-1.8,0.1-3.5,0.2-5.3,0.4c-6.3,0.4-12.7,0-19-1.3c-2.8-0.5-5.6-1-8.3-1.6
				c-3.1-0.7-6.1-1.7-9-2.8c-0.6-0.4-0.8-1.1-0.5-1.7c0.3-0.6,1-0.9,1.7-0.6c1.3,0.1,2.7,0.2,4,0.5c9.9,2.8,20.3,3.8,30.5,3
				c7.2-0.4,13.6-4.8,16.8-11.3c5.3-12.9,9.8-26.1,13.4-39.6c0.3-1.6,0.4-3.1,0.3-4.7l0-0.2c-0.3-1.4-1.2-2.6-2.4-3.3
				c-1.2-0.7-2.7-0.8-4.1-0.4l-1.1,0.3c-15.2,5.9-32.1,5.7-47.3-0.3c-4.4-0.6-8.7,2.1-9.9,6.4c-3.3,10.4-7,20.6-11.2,30.7
				c-1.5,3.6-3.2,7-5.1,10.4c-0.7,0.3-1.5,0.2-2.2-0.1c-0.7-0.3-1.2-0.9-1.4-1.6l0,0c6-14.5,11.5-29.2,16.7-44
				c1.4-2.4,3.6-4.3,6.3-5.2c2.1-0.7,4.3-1,6.5-1l0.1,0c16,6,33.7,5.1,49-2.4c1-0.6,1.9-1.5,2.5-2.5c0.1-0.5,0-1-0.3-1.3
				c-0.3-0.3-0.9-0.5-1.3-0.3l-0.2,0c-1.5,0.5-3.1,1-4.7,1.4c-2.1,0.5-4.3,0.6-6.5,0.5c-15-0.4-29.9-3.1-44.1-8
				c-1.7-0.7-3.5-1-5.4-1c-1.8,0.2-3.4,1.2-4.4,2.7L332,467.7c-0.5,1.8-0.7,3.7-0.6,5.6c1.1,9.4,6.2,17.8,14.1,23
				c8.9,5.3,19,8.1,29.4,7.9c7.6,0.2,15.2,0.2,22.8,0c0.4,0,0.7,0.2,1,0.5c0.2,0.3,0.3,0.7,0.2,1.1c-0.1,0.4-0.3,0.7-0.6,0.9
				c-0.3,0.2-0.7,0.2-1.1,0.1l-0.1,0c-6.7,1.5-13.4,2.5-20.2,3.2c-1.7,0.2-3.3,1.2-4.2,2.7c-0.9,1.5-1.1,3.3-0.6,5
				c2.2,5.7,3.6,11.6,4.1,17.7l-7.5-9.7l-6,14.4c1.7-0.6,3.6,0.3,4.3,2c0.6,1.7-0.2,3.6-2,4.3c-3.4,2.5-6.2,5.8-8.1,9.6v1.6
				l44.4-3.8c0.2-5.3,0.1-10.7-0.4-16c-0.3-2.3-0.7-4.5-1.1-6.7c-0.1-0.6-0.2-1.2-0.3-1.8c-1-3.4,0.7-7,3.9-8.5l0.3-0.1
				c1.2-0.6,2.5-1.1,3.7-1.5c6.9-2.2,13.9-4.1,20.9-5.9c8-2,15.9-4.3,23.7-6.9c2.9-6,6.3-11.8,10.1-17.3
				c5.6-7.5,13.1-13.4,21.7-17.2c2.3-1.1,4.7-2.2,7.1-3.2c-8.7-8.1-18.1-15.6-28-22.2c-4.8-2.9-9.7-5.6-14.7-8.1
				c-1.2-0.6-2.3-1.3-3.4-2c-0.3-0.2-0.7-0.5-1-0.8c-0.8-0.3-1.4-0.8-1.7-1.6c-0.3-0.7-0.3-1.6,0-2.3c0.3-0.7,1-1.3,1.7-1.5
				c0.8-0.2,1.6-0.1,2.3,0.3h0.3c5,0.6,9.8,2.5,13.7,5.6l19.4,12.2c4.4,3.2,8.5,6.7,12.5,10.4l8.6,7.8l0.1,0
				c1.4-0.7,3.1-0.8,4.6-0.2c1.7,1.1,3.3,2.4,4.7,3.8c0.6,0.9,1.6,1.6,2.8,1.7c1.1,0.2,2.3-0.2,3.1-0.9c1.1-0.5,2.1-1,3.1-1.6
				c1-0.4,2.1-0.6,3.2-0.6c1.1,0,2.2,0.5,2.8,1.4c1.8,1.9,2.5,4.5,1.9,7.1c-0.2,0.7-0.5,1.4-0.8,2.1c-0.7,1.9-2,3.7-3.6,5
				c-0.2,0.2-0.3,0.4-0.2,0.7c0,0.3,0.2,0.5,0.4,0.6c4.6,2.6,8.7,5.9,12.3,9.8c4.4,4.7,9,9.2,13.8,13.5c3,2.1,5.7,4.5,8.1,7.3
				c0.8,1.2,1.5,2.5,2,3.9c1.2,3.9,2.7,7.7,4.5,11.4c0.3,0.4,0.3,0.9,0.2,1.4c-0.1,0.5-0.4,0.9-0.8,1.1c-0.4,0.2-0.9,0.3-1.4,0.2
				c-0.5-0.1-0.9-0.4-1.1-0.8c-4.4-7.3-9.5-14.3-15.3-20.6c-4.7-5.2-9.6-10.2-14.8-14.9c-2.3-2.7-5.4-4.6-8.8-5.7
				c-1.7-0.3-3.4,0-4.9,0.8c-2.5,1.6-4.8,3.5-6.9,5.7c-0.6,1-1,2.1-1.1,3.3c-0.7,2.7-1.8,5.3-3.5,7.6c-2.4,2.6-3.2,6.4-1.9,9.7
				c-0.1,1.8-1.1,3.5-2.6,4.5c-1.9,1.7-3.9,3.4-6,5c-3.2,2.7-6.5,5.2-10.1,7.4c-2.2,1.2-4.5,2.3-6.9,3.3c-1,0.4-1.9,0.9-2.8,1.4
				c-2,1.3-3.6,3.1-4.7,5.2c-0.7,1.4-0.4,3,0.7,4.1c1.1,1.1,2.8,1.3,4.1,0.5c1.4-0.3,2.9-0.8,4.1-1.5c2.1-1.2,4-2.7,5.8-4.3
				c4.1-3.7,8.1-7.7,11.7-11.8c2.7-2.9,5.6-5.6,8.8-8c4.7-3.8,10.8-5.3,16.7-4.1c5.3,1.3,10.8,1.1,16-0.6l0.2-0.1l8,7.4
				c0,2.5-1,4.9-2.8,6.5c-1.8,1.7-4.3,2.5-6.7,2.3c-7.3-1.8-15-0.7-21.5,3c-7.1,4.6-13.6,10.3-19,16.8c-1,1.1-1.7,2.4-2.3,3.8
				l-5.4,12.2c-1.8,3.6-4,6.9-6.5,10c-8.6,10.9-17.4,21.6-26.5,32.1l-9.4,11.9c-2,3.6-5.8,6-9.9,6.3l-11.4,2.4
				c-3.8,1.1-7.5,2.6-11,4.4l-12,6c-10-2.3-20.1-4-30.3-4.9c-5.5-0.5-11.1,0.2-16.3,2.2c-3.8,1.7-7.4,3.8-10.7,6.3l-3.2,2.4
				l-3.5-3.1c2.4-3.1,4.9-6,7.6-8.7c3-2.7,6.7-4.4,10.7-4.9c5.2-0.7,10.4-1,15.6-1l24.5,1.1c3.4,0.2,6.8-0.4,9.9-1.7
				c0.1,0,0.2-0.1,0.4-0.2c2.5-1.1,4.4-3.1,5.4-5.6l0.2-0.5c1.3-2.8,2.7-5.5,4.2-8.2c1.4-2.5,3-4.8,4.8-7c0.1-0.2,0.3-0.3,0.4-0.5
				c0.3-0.9,1-1.6,1.9-1.9c0.9-0.3,1.8-0.2,2.6,0.3c0.8,0.5,1.3,1.3,1.4,2.2c0.1,0.9-0.2,1.9-0.9,2.5c-0.5,0.9-1.1,1.7-1.7,2.5
				c-2.5,1.9-3.7,5.1-3.2,8.2c0.1,0.1,0.2,0.2,0.3,0.4c0.6,0.5,1.2,1,1.9,1.3c0.9,0.4,1.9,0.7,2.8,1c2.9,1.5,6.4,1.3,9.1-0.5
				c0.2-0.1,0.3-0.2,0.5-0.3c1.7-1.3,3.2-2.8,4.5-4.4c11.7-12.5,22.7-25.7,32.7-39.7c1.9-2.6,4-5.1,6.3-7.4c0.9-0.9,1.7-1.9,2.3-2.9
				c0.1-0.2,0.2-0.3,0.3-0.5c0.6-0.7,0.7-1.7,0.1-2.5c-0.6-0.7-1.6-0.9-2.4-0.5c-0.3,0.1-0.5,0.2-0.8,0.3c-2.6,1.7-5.6,2.5-8.7,2.5
				c-0.6,3.6-1.4,7.1-2.6,10.5c-1.2,3.3-3.2,6.2-5.9,8.5l-14.7,12.8c-2.8,2.1-6.3,3.1-9.8,2.9c-2.5-0.2-4.9-0.5-7.4-0.8l-18.8-2.6
				c-4.6-1.7-9.8-0.6-13.2,2.9c-1.8,2.6-4.1,4.7-6.8,6.3c-0.3,0.1-0.6,0.2-0.9,0.3c-1.7,0.4-3.4,0.6-5.1,0.7
				c-7.8,0.7-15.5,2.7-22.6,6c-8.7,3.7-17.6,7.1-26.7,10.1c-2.3,0.7-4.7,1.2-7.2,1.3c-2.2,0.1-4.5-0.6-6.3-1.9
				c-1.2,0.1-2.2-0.8-2.3-1.9c-0.1-1.1,0.6-2.2,1.8-2.4l0.1-0.2c1.4-2.3,0.9-5.2-1.2-6.9c-0.1-0.1-0.3-0.2-0.4-0.3
				c-0.1-0.1-0.2-0.1-0.3-0.1c-6.5,0-13,0.4-19.4,1.2c-1.6,0.2-2.7,1.5-2.6,3.1c0.1,1.6,1.4,2.8,3,2.8c2.2,1.4,4.6,2.5,7.2,3.2h0
				c2.7,0.4,5.4,0.4,8.1,0.1c0.8-0.3,1.8,0.1,2.1,0.9c0.4,0.8,0,1.8-0.7,2.2c-2.9,2.9-4,7.2-2.9,11.1c-0.4,1.6-1.9,2.6-3.5,2.4
				c-3.1-1.4-6.5-1.9-9.8-1.3c-1.4-0.2-2.7-1.1-3.4-2.3c-0.6-2.5-1.4-4.9-2.6-7.2c-1.2-1.3-2.8-2.2-4.5-2.5
				c-4.4-0.4-8.7-0.6-13.1-0.6c-5.4-0.3-10.8,1.4-15,4.8c-1.1,1-2.6,1.1-3.8,0.3c-1.2-0.8-1.7-2.3-1.3-3.6c2.8-3.5,6.9-5.7,11.3-6.2
				C270.9,625.1,271.7,624,271.7,622.8 M278.4,620.7c0,3.4,2.8,6.2,6.2,6.2c3.4,0,6.2-2.8,6.2-6.2c0-3.4-2.8-6.2-6.2-6.2
				C281.1,614.4,278.4,617.2,278.4,620.7z M299.9,582.3l-0.4,0.1c-7.8-1-15.4,2.8-19.3,9.6c-0.6,0.9-1.2,1.9-1.8,2.8l-1.8,2.8
				l-7.1,11.5l-5.2,4.1c-0.3,0.3-0.6,0.6-0.9,0.9c-0.3,0.4-0.3,0.9-0.2,1.4c0.1,0.2,0.2,0.5,0.4,0.6c0.2,0.1,0.4,0.2,0.7,0.3
				c0.7,0.2,1.4,0.2,2.1,0.2c3.8-0.2,7.5-1.7,10.3-4.3c2.4-2.3,4.8-4.6,7-7.1l2.8-2.8c0.2-0.1,0.3-0.3,0.5-0.4
				c0.2-0.5,0.8-0.6,1.3-0.4c0.5,0.2,0.7,0.8,0.5,1.3l0,0c0,0.2,0.1,0.3,0,0.5c0,0.3,0,0.7-0.1,1c-1,1.7-0.9,3.8,0.2,5.5
				c1,1.7,2.9,2.6,4.9,2.5c2.3,0.3,4.7,0.4,7,0.2c4-0.1,7.9-0.4,11.9-0.7c2.2,0.6,4.5-0.1,6.2-1.7c1.6-1.6,2.3-3.9,1.8-6.1
				c-0.2-2.3-0.6-4.6-1.1-6.8c-0.4-1.8-0.9-3.6-1.6-5.3c-0.5-1.3-1.4-2.4-2.5-3.3c-4.2-3.4-9.2-5.5-14.5-6.2
				C300.5,582.3,300.2,582.3,299.9,582.3z M312.1,417.2l10.8,8.7c1.2-4.5-0.6-9.3-4.5-11.8c-0.8-0.6-1.9-0.9-3-0.6
				c-1,0.2-1.9,0.9-2.4,1.9C312.7,415.9,312.4,416.5,312.1,417.2z M335.1,447.4c2.2-6.8,4.1-13.6,5.7-20.5c0.5-2.5,0.8-5,0.9-7.6
				c0-2.7-0.7-5.4-2.1-7.7c-0.6-1.1-1.5-2.1-2.5-2.9l-14.5-11.4l-2.2-1.7c-0.7-0.7-1.6-1-2.5-1c-1,0-1.9,0.4-2.5,1.2
				c-1,2-1,4.3,0,6.3l12.6,16.2c1.9,3.3,2.1,7.2,0.6,10.7c-2.1,5.2-4.7,10.1-7.8,14.9c-0.6,1.2-1.2,2.4-1.7,3.7
				c-1.3,6.9,1.4,14,7,18.2c0.8,0.9,2.1,1.3,3.3,1c1.2-0.3,2.1-1.3,2.4-2.5C332.3,458.4,333.3,452.8,335.1,447.4z M347.3,515.5
				l0.2,0.3c0.1,0.3,0.4,0.4,0.7,0.5c0.3,0.1,0.6,0,0.8-0.1c1.3-0.8,2.5-1.6,3.6-2.5c1.1-0.8,1.8-1.9,1.9-3.2
				c0.2-1.3-0.2-2.6-1.1-3.6c-2.5-2.4-6-3.3-9.4-2.4c-0.5,0.1-0.9,0.5-1.1,0.9c-0.2,0.5-0.2,1,0,1.4
				C344.6,509.6,346,512.5,347.3,515.5z M339.1,402.8c13.9,7.2,28.7,12.6,44,16c7.7,1.5,15.5,2.1,23.3,1.8c2.7-0.2,5.4-0.6,8-1.4
				c4.4-1.4,7.8-4.9,8.9-9.4c1.1-4.6,1.3-9.2,0.6-13.9c-1.1-9.4-6.1-17.9-13.8-23.4c-9.7-6.1-20.9-9.5-32.3-9.9
				c-12.3-1.8-24.8-1.2-36.9,1.8c-6.2,2.2-11.5,6.4-15.1,11.9c-1.3,1.6-2.6,3.3-3.8,5.1c-2.1,2.7-2.1,6.4-0.1,9.2
				C326.7,395.5,332.6,399.7,339.1,402.8z M320.3,567.1c0.8,15.3,3.1,30.5,6.8,45.3c1,0,1.9,0.4,2.5,1.2c0.6,0.8,0.7,1.8,0.4,2.7
				l0,0c-0.5-0.1-1,0.1-1.4,0.4c-0.4,0.3-0.6,0.8-0.6,1.3c0,0.5,0.2,1,0.6,1.3c0.4,0.3,0.9,0.5,1.4,0.4c2.8,0.1,5.5,0.5,8.2,1.3
				c3.1,1.2,6.6,0.8,9.4-1.1c2.7-1.9,4.4-5.1,4.3-8.4c-0.8-0.3-1.4-1-1.6-1.9c-0.2-0.9,0.1-1.8,0.7-2.4c0.6-0.6,1.5-0.9,2.4-0.7
				c0.9,0.2,1.6,0.8,1.9,1.6c0.4,1.1,0.8,2.2,1.3,3.3c0.1,0.2,0.2,0.4,0.3,0.5c-0.1,0.6,0,1.1,0.3,1.6c0.3,0.5,0.8,0.7,1.4,0.8
				c0.6,0,1.1-0.2,1.5-0.6c0.4-0.4,0.6-1,0.5-1.5c-0.3-1.1-0.8-2.2-1.4-3.3c-0.4-0.7-0.4-1.5-0.2-2.3c0.2-0.8,0.8-1.4,1.5-1.7
				c0.7-0.3,1.5-0.4,2.3-0.1c0.7,0.3,1.3,0.9,1.6,1.6l0.7,1.3c0.1,0.2,0.2,0.4,0.3,0.6c0.3,1.1,1.2,2,2.4,2.2c1.2,0.2,2.4-0.3,3-1.3
				c0.4-2.2,2.1-3.9,4.2-4.4c3.1,1.1,6.2,2.2,9.2,3.5c0.8,0,1.6-0.2,2.3-0.5c2.6-1.1,4.8-2.9,6.4-5.2c2.2-2.4,3.1-5.7,2.4-8.9
				l-0.2-1.1l0-0.1c-0.5-0.7-0.8-1.6-0.6-2.4c0.1-0.8,0.6-1.6,1.3-2.1c0.7-0.5,1.6-0.7,2.4-0.5c0.8,0.2,1.6,0.7,2,1.5
				c0.3,0.3,0.6,0.5,0.9,0.8c1.4,1.7,3,3.4,4.6,5c0.2,0.4,0.5,0.6,1,0.7c0.4,0,0.8-0.1,1.1-0.5c1.3-0.7,2.9-0.6,4.1,0.2l0.4,0.3
				c0.9,1.4,2.5,2.2,4.2,2.1c1.7-0.1,3.2-1.1,3.9-2.5c3.8,0.2,7.6,0.7,11.3,1.5c3.4,0.8,6.8,2,10,3.4c1.9,0.2,3.7-0.5,4.9-1.9
				c1.2-1.4,1.6-3.4,1.1-5.2c-0.1-0.1-0.1-0.2-0.2-0.3c-2.2-1.8-4.7-3.3-7.4-4.4c-0.9-0.4-1.5-1.4-1.4-2.5c0.1-1,0.8-1.9,1.8-2.2
				c1.7-0.6,3.6-0.2,5,0.9l0.1,0.1l1.5,1c2.2,1.9,5.1,2.9,8.1,2.8c1.2-0.2,2.2-1,2.8-2.1c0.5-1.1,0.5-2.4,0-3.5
				c-0.1-0.1-0.1-0.3-0.2-0.4c-1.9-2.2-4.6-3.4-7.5-3.4l-1-0.2c-1.7-0.3-3.3-0.9-4.8-1.7c-0.3-0.2-0.6-0.4-0.9-0.6
				c-0.5-0.9-0.4-2.1,0.4-2.8c0.8-0.7,1.9-0.9,2.8-0.3c3.8-0.3,7.6,0.5,10.9,2.3l1.6,0.6c1,0.3,2,0.5,3,0.4c0.5,0,1.1-0.2,1.5-0.5
				c0.3-0.2,0.6-0.5,0.7-0.9c0.1-0.3,0.1-0.6,0-0.8c-0.1-0.3-0.2-0.6-0.4-0.8c-0.4-0.7-0.9-1.4-1.4-2.1c-1.2-1.6-2.4-3.1-3.6-4.6
				c-0.9-1.1-2.1-1.9-3.4-2.4c-1.4-0.6-2.9-1-4.4-1.1c-1.4-0.2-2.8-0.3-4.2-0.6l-0.2,0c-0.3,0.1-0.6,0.1-0.9,0
				c-0.3-0.1-0.5-0.4-0.6-0.7c0.1-0.2,0.2-0.4,0.4-0.6c4-2.8,9.1-3.3,13.6-1.3c4.9,2.1,10,3.3,15.3,3.6c0.9-0.3,1.6-1.1,1.6-2.1
				c0-1-0.5-1.8-1.4-2.2c-1.4-1.4-3-2.5-4.8-3.3c-8.4-4.4-18-6.1-27.4-4.8c-12.1,2.3-24.1,4.9-36,7.9c-21.9,2.9-43.9,4.5-65.9,4.9
				c-5.1,0.3-10.1,1-15.1,2.1L320.3,567.1z M495.9,489.2c-0.4-0.7-1.1-1.2-1.9-1.2c-0.8,0-1.6,0.4-2,1.1c-1.5,3.3-2.5,6.9-3,10.5
				c0.2,0.4,0.4,0.7,0.8,0.8c0.4,0.2,0.8,0.1,1.2,0c2.7-1.6,4.7-4.3,5.2-7.5C496.7,491.7,496.6,490.3,495.9,489.2z M496,518.2
				l0.2-0.1c1.1-0.2,1.9-1.2,1.8-2.3c-0.1-1.1-1.1-2-2.2-1.9c-3-1.6-6.6-0.9-8.9,1.6c-0.4,0.4-0.5,1-0.4,1.6c0.1,0.6,0.5,1,1,1.3
				C490.2,519.2,493.2,519.2,496,518.2z M405.3,533.1l1.2,20.2c10.5-1.5,20.8-3.7,30.9-6.8c3.1-0.9,6.2-1.6,9.4-2
				c3.8-0.7,7.8-0.5,11.6,0.8l0.6,0.1c2.9,1.3,6.2,0,7.5-2.8c1-2.3,1.8-4.7,2.4-7.2c0.6-1.9,2.4-3.1,4.4-2.8
				c4.9-0.1,9.7-1.6,13.8-4.3c0.4-0.4,0.6-1,0.6-1.6c0-0.6-0.3-1.1-0.8-1.5c-2.2-1.4-4.4-2.8-6.6-4.3c-2.9-2.8-3.8-7.1-2.3-10.9
				c4.2-7.4,8-15.2,11.2-23.1c0.7-2,2.1-3.7,4-4.6c2.4-1.1,4.6-2.4,6.8-3.8c1-0.2,1.7-1.1,1.7-2.1c0.1-1.2-0.5-2.4-1.5-3.1
				c-3-1.2-6.5-0.8-9.2,1c-1.9,0.9-3.8,1.9-5.6,3c-3.5,2.1-6.9,4.3-10.1,6.8c-2.8,1.4-4.8,4-5.7,7c0.4,2.1-0.7,4.1-2.5,5.1l-2.6,2.5
				l-0.4,6.7l-7,5.9c0.9,0.6,1.6,1.4,2.2,2.3c0.2,0.3,0.3,0.6,0.4,0.9c0.6,0.9,0.5,2.2-0.4,2.9c-0.9,0.7-2.1,0.6-2.9-0.2l-0.1,0
				c-0.5-0.5-1-1.1-1.3-1.8c-0.3-0.8-0.6-1.7-0.7-2.5c-1.1,1.8-2.4,3.5-3.9,5c-2.3,2.5-6,3.1-8.9,1.4l-4.2-1.4l-5.9,6.1l-5.8-3.1
				l-5,6.4l-7.9-3.3L405.3,533.1z M493.5,504.9c0,0.4,0.2,0.7,0.5,0.9c0.9,0.6,1.9,1.1,3,1.4c1.3,0.4,2.7,0.3,3.9-0.4
				c0.8-0.5,1.3-1.4,1.4-2.4c-0.3-2-2-3.4-4-3.4c-1.1-0.2-2.3,0.1-3.3,0.8C494.1,502.5,493.5,503.6,493.5,504.9z M509.7,488.5
				c-1.1-1.5-3.2-2.1-4.9-1.2c-0.9,0.3-1.7,0.8-2.4,1.5c-1,0.9-1.4,2.3-1.1,3.6c0.4,1.3,1.4,2.3,2.7,2.6c1.8,0.7,3.9,0.3,5.1-1.2
				C510.5,492.3,510.7,490.1,509.7,488.5z M530.3,529.7c-4.6-3.2-10.4-4.3-15.9-2.9c-4,1-7.6,3.2-10.1,6.5l-0.2,0.2
				c-6.9,6.2-13.6,12.7-19.9,19.4l-0.1,0.1c-1.1,0.6-1.5,2-0.9,3.1c0.6,1.1,2,1.5,3.1,1c4.1-2.9,7.9-6.2,11.3-9.9
				c4.6-5.7,10.2-10.4,16.6-14c2.6-1.1,5.3-1.9,8-2.4C524.8,530.5,527.5,530.1,530.3,529.7z"/>
			<path class="st11" d="M457.8,524.2c0-1.8,1.4-3.2,3.2-3.2c1.8,0,3.2,1.4,3.2,3.2c0,1.7-1.4,3.2-3.2,3.2
				C459.2,527.4,457.8,526,457.8,524.2"/>
			<path class="st11" d="M339.4,610.3c0-1.6,1.1-2.9,2.7-3.2c1.5-0.3,3.1,0.6,3.6,2c0.7,1.2,0.3,2.7-0.7,3.5
				c-0.9,0.9-2.3,1.2-3.6,0.7C340.2,612.9,339.4,611.7,339.4,610.3"/>
			<path class="st11" d="M333.2,605c0-1.7,1.4-3.1,3.1-3.1c1.7,0,3.1,1.4,3.1,3.1c0,1.7-1.4,3.1-3.1,3.1
				C334.6,608.2,333.2,606.7,333.2,605"/>
			<path class="st11" d="M314.3,601.3c0.4-0.1,0.8-0.1,1.2,0c0.6-0.2,1.3,0,1.6,0.6c0.3,0.5,0.3,1.2-0.1,1.7
				c-0.1,0.1-0.2,0.2-0.4,0.3c-4,1.9-8.1,3.3-12.4,4.2l-0.2,0.1c-1.4,0.4-2.8,0.6-4.3,0.7c-1.1,0-2.1-0.2-3-0.7
				c-0.1,0-0.1-0.1-0.2-0.1c-0.7,0-1.3-0.5-1.4-1.2c-0.1-0.7,0.4-1.4,1.1-1.5c0.6-0.5,1.4-0.7,2.1-0.6
				C303.8,604.6,309.2,603.5,314.3,601.3"/>
			<path class="st11" d="M554.9,480.1c0-1.2,0.9-2.1,2.1-2.1c1.2,0,2.1,0.9,2.1,2.1c0,1.2-0.9,2.1-2.1,2.1
				C555.9,482.2,554.9,481.2,554.9,480.1"/>
			<path class="st11" d="M550.1,570.8c0-1.7,1.4-3,3-3c1.7,0,3,1.3,3,3c0,1.7-1.3,3-3,3C551.5,573.8,550.1,572.5,550.1,570.8"/>
			<path class="st11" d="M547,460.4c0-2,1.6-3.6,3.6-3.6c2,0,3.6,1.6,3.6,3.6c0,2-1.6,3.6-3.6,3.6C548.5,464,547,462.4,547,460.4"/>
			<path class="st11" d="M544.4,561.8c0-1.5,1.2-2.7,2.7-2.7s2.7,1.2,2.7,2.7c0,1.5-1.2,2.7-2.7,2.7S544.4,563.3,544.4,561.8"/>
			<path class="st11" d="M544.7,592.5c0-1.2,1-2.1,2.1-2.1c1.2,0,2.1,0.9,2.1,2.1c0,1.2-1,2.1-2.1,2.1
				C545.7,594.6,544.7,593.6,544.7,592.5"/>
			<path class="st11" d="M544.2,494.5c0-1.2,1-2.1,2.1-2.1c1.2,0,2.1,1,2.1,2.1c0,1.2-1,2.1-2.1,2.1
				C545.1,496.6,544.2,495.7,544.2,494.5"/>
			<path class="st11" d="M540.4,486.6c0-1.3,1.1-2.4,2.4-2.4c1.3,0,2.4,1.1,2.4,2.4c0,1.3-1.1,2.4-2.4,2.4
				C541.5,489,540.4,487.9,540.4,486.6"/>
			<path class="st11" d="M539.8,546.8c-3.3,1.1-6.4,2.7-9.1,4.9c-0.6,0.5-1.4,0.7-2.1,0.6c-0.8-0.1-1.4-0.6-1.8-1.3
				c-0.5-0.7-0.7-1.6-0.4-2.5c0.3-0.8,1-1.5,1.8-1.7c3.5-1.3,7-2.8,10.4-4.3c1.5-0.9,3.5-0.4,4.4,1.1
				C542.9,545.3,541.5,546.7,539.8,546.8"/>
			<path class="st11" d="M537.7,553.6c0-1.4,1.2-2.6,2.6-2.6s2.6,1.1,2.6,2.6c0,1.4-1.1,2.6-2.6,2.6S537.7,555,537.7,553.6"/>
			<path class="st11" d="M535.5,578.6c-0.3-2.6,0.1-5.3,1.3-7.6c0.6-1.2,1.9-1.8,3.2-1.5c0.9,0.2,1.7,0.8,2.2,1.6
				c0.3,0.5,0.3,1.2-0.1,1.7l-5.7,7.3L535.5,578.6"/>
			<path class="st11" d="M531,466.6c0-1.3,1-2.3,2.3-2.3c1.3,0,2.3,1,2.3,2.3c0,1.2-1,2.3-2.3,2.3C532,468.9,531,467.9,531,466.6"/>
			<path class="st11" d="M529.2,513.7c1.6,0.3,2.8,1.5,3.1,3.1c0.1,0.8-0.1,1.5-0.5,2.2c-0.5,0.6-1.1,1-1.9,1.1
				c-1.1,0.3-2.2,0-3-0.7c-0.8-0.7-1.3-1.8-1.3-2.9c0-0.9,0.4-1.7,1.1-2.3C527.4,513.6,528.3,513.5,529.2,513.7"/>
			<path class="st11" d="M519.1,566.1c0-2.5,2-4.5,4.5-4.5c2.5,0,4.5,2,4.5,4.5c0,2.5-2,4.5-4.5,4.5
				C521.1,570.6,519.1,568.6,519.1,566.1"/>
			<path class="st11" d="M383.1,532c3.5-2.2,7.8-2.8,11.8-1.6c0.6,0,1.2,0.3,1.5,0.9c0.3,0.6,0.1,1.3-0.3,1.7
				c-3.1,2.1-6.5,3.5-10.1,4.3l-0.2,0c-1.5,0.4-3.1,0.3-4.6-0.2l0,0c-0.7-0.9-0.9-2.1-0.5-3.1C381,533,382,532.2,383.1,532"/>
			<path class="st11" d="M328.7,521.3c0-2.4,1.9-4.3,4.3-4.3c2.4,0,4.3,1.9,4.3,4.3c0,2.4-1.9,4.3-4.3,4.3
				C330.6,525.6,328.7,523.7,328.7,521.3"/>
			<path class="st11" d="M323,537.9c0-2.2,1.8-4,4-4c2.2,0,4,1.8,4,4c0,2.2-1.8,4-4,4C324.8,541.9,323,540.1,323,537.9"/>
			<path class="st11" d="M298.3,498c0.2-11-2.7-21.8-8.5-31.1l-5.2-8.7c-0.6-1.1-0.3-2.4,0.7-3.2c1-0.8,2.4-0.7,3.3,0.2
				c7.1,10.5,12.3,22.2,15.2,34.6l3.7,27.5c0.8,3.3,0.7,6.9-0.3,10.2l-9.7,26.6c-2,3.6-6,5.6-10.1,5.1l-9.7,0.1
				c-2.2,0.4-4.3,1.6-5.9,3.2l-0.9,0.7c-0.9,1.3-2.5,2-4.1,1.8c-1.6-0.3-2.9-1.4-3.3-3l-5.2-5.2c-0.9-0.5-1.5-1.4-1.4-2.5
				c0.1-1,0.8-1.9,1.8-2.3c0.4-0.2,0.8-0.3,1.2-0.4c2.4,0,4.7-0.5,6.8-1.5c0.8-2.4-0.5-5-2.8-5.9c-0.6,0-1.3-0.2-1.7-0.7
				c-0.5-0.5-0.7-1.1-0.7-1.7c0-0.6,0.3-1.3,0.7-1.7c0.5-0.5,1.1-0.7,1.7-0.7c3.2,0.8,6.3,1.9,9.3,3.3c1.8,1.4,4.2,1.9,6.4,1.5
				c0,0,0,0,0,0c0.1-0.1,0.2-0.2,0.2-0.3l0-0.1c-7.4-7.8-15.7-14.6-24.7-20.4c-1.2-0.2-2.2-1-2.6-2.1c-0.5-1.1-0.3-2.4,0.4-3.3
				c3-3.3,5.3-7.3,6.5-11.6c0.8-1.9,1-4.1,0.5-6.2c-1.6-1.1-2.5-3.1-2.2-5.1c0.3-2,1.7-3.6,3.6-4.2c1.1-0.1,2.1-0.8,2.6-1.7
				c0-0.4-0.1-0.8-0.4-1.1c-0.3-0.3-0.7-0.4-1.1-0.3c-1-0.5-2.1-0.9-3.2-1.3c-2.4-1.1-4.2-3.1-5-5.6c0-0.3-0.1-0.7,0-1
				c-0.2-1.6,0.7-3.2,2.1-4c4.6-0.5,8.9,2.1,10.8,6.3c2,2.5,4.1,4.8,6.5,6.9c2.6,1.8,5,3.8,7.2,6.1c8.8,10.6,15.2,22.9,18.9,36.2
				l0,0.1c2.4-1.9,3.7-4.9,3.5-8c0.4-6.5-1.6-12.8-5.7-17.8c-6.5-7.8-13.4-15.3-20.6-22.4c-0.9-0.5-1.2-1.6-0.9-2.5
				c0.3-0.9,1.3-1.5,2.3-1.3L298.3,498 M290.3,545.1c0.7-2.1,1.3-4.2,1.9-6.3c1.9-8.4,0.5-17.2-4-24.5c-3-5.2-6.3-10.4-9.7-15.4
				c-1.6-2.1-3.9-3.5-6.5-3.9c-0.5,0.2-0.8,0.6-0.9,1c-0.1,0.5,0.1,1,0.5,1.3c0.9,1.7,1.4,3.5,1.3,5.4c-2.1,2.6-3.5,5.6-4,8.9
				c-0.7,3.4-1.1,6.9-1.4,10.3c0.1,2.2,1.1,4.3,2.7,5.8C276.7,533.9,283.4,539.6,290.3,545.1z"/>
			<path class="st11" d="M279.3,461.3c-6.9-2.9-14-5.1-21.4-6.4c-2.9-0.5-5.7-0.9-8.6-1.2c-0.9-0.3-1.6-1.1-1.8-2.1
				c-0.2-1,0.3-2,1.1-2.5c3-0.7,6-1,9-0.8C266.7,448.7,274.8,453.6,279.3,461.3"/>
		</g>
	</g>
</g>
</svg>
